<svg id="レイヤー_1" data-name="レイヤー 1" xmlns="http://www.w3.org/2000/svg" viewBox="0 0 153.64 56.27"><defs><style>.cls-1{isolation:isolate;}.cls-2{fill:#040000;}.cls-3{fill:none;stroke:#121212;}</style></defs><g id="GOODS_見出し" data-name="GOODS 見出し"><g id="YOUTHをブランディング" class="cls-1"><g class="cls-1"><path class="cls-2" d="M413,397.82h0a.74.74,0,1,1,0,1.48h0l-1.19,0-1.31,0a.71.71,0,0,1-.84-.74.74.74,0,0,1,.79-.74h.22c.17,0,.23-.12.23-.28,0-.77,0-1.54,0-2.41a.58.58,0,0,0-.15-.47c-.9-1.36-2.12-3.2-2.86-4.3a.43.43,0,0,0-.38-.18c-.25,0-.88,0-.88-.72a.72.72,0,0,1,.77-.73h.07c.29,0,.67,0,1.06,0s1,0,1.35,0h.05a.7.7,0,0,1,.8.68.83.83,0,0,1-.85.77c-.11,0-.2,0-.2.09a.28.28,0,0,0,.06.13c1.8,2.79,1.89,2.9,2,2.9a17.43,17.43,0,0,0,2-3c0-.07-.08-.09-.18-.09a.77.77,0,0,1-.83-.73.73.73,0,0,1,.8-.72h.07c.3,0,.65,0,1,0s.9,0,1.28,0c.18,0,.85.05.85.73a.73.73,0,0,1-.8.72h0c-.17,0-.22,0-.32.18-.74,1.15-2.05,3.12-2.83,4.23a.67.67,0,0,0-.18.56c0,.63,0,1.53,0,2.41,0,.18,0,.25.25.25Z" transform="translate(-406.62 -343.6)"/><path class="cls-2" d="M416.68,394a5.4,5.4,0,1,1,10.8,0,5.4,5.4,0,1,1-10.8,0Zm9.18,0a3.79,3.79,0,1,0-3.78,4A3.77,3.77,0,0,0,425.86,394Z" transform="translate(-406.62 -343.6)"/><path class="cls-2" d="M436,390.21a.78.78,0,0,1-.84-.77.71.71,0,0,1,.77-.7H436c.29,0,.66,0,1,0s.94,0,1.32,0h0a.75.75,0,0,1,.83.75.74.74,0,0,1-.8.72h-.2c-.13,0-.2,0-.2.24,0,.63,0,1.2,0,1.75,0,.9,0,1.75,0,2.76a4.16,4.16,0,0,1-4.23,4.51,4.11,4.11,0,0,1-4.19-4.38V395c0-1,0-2.1,0-3.15,0-.47,0-1,0-1.41,0-.14,0-.24-.18-.24h-.19a.73.73,0,0,1-.84-.74.72.72,0,0,1,.77-.73h.07c.29,0,.65,0,1.05,0s.94,0,1.31,0h0a.74.74,0,0,1,.81.75.72.72,0,0,1-.78.72h-.31c-.18,0-.21.07-.21.27v.67c0,1.08,0,2.14,0,3.23v.73a2.58,2.58,0,0,0,2.58,2.83,2.74,2.74,0,0,0,2.72-2.94c0-1.22,0-2.41,0-3.6v-.9c0-.22,0-.28-.25-.28Z" transform="translate(-406.62 -343.6)"/><path class="cls-2" d="M442.79,390.13c-1.2,0-1.26,0-1.44.63,0,.13-.07.28-.12.45a.77.77,0,0,1-.75.57.72.72,0,0,1-.75-.73,1,1,0,0,1,.07-.36c.45-1.34.68-2,2.17-2h.26c.44,0,1.15,0,1.92,0,.94,0,2,0,2.59,0h.14c1.11,0,1.7.32,2,1.13.09.23.24.55.34.84a1.05,1.05,0,0,1,.06.33.75.75,0,0,1-.77.74.76.76,0,0,1-.75-.56q-.06-.24-.12-.42c-.21-.65-.35-.66-1.1-.66-1.14,0-1.16,0-1.16.31,0,1,0,2.53,0,4,0,1.08,0,2.14,0,3,0,.31.14.33.39.33a.74.74,0,0,1,.81.75.73.73,0,0,1-.77.74h-.05l-1.14,0-1.23,0a.73.73,0,0,1-.81-.74.72.72,0,0,1,.75-.75h.06c.25,0,.39,0,.39-.31,0-1.14,0-2.85,0-4.57,0-.85,0-1.71,0-2.49C443.76,390.13,443.76,390.13,442.79,390.13Z" transform="translate(-406.62 -343.6)"/><path class="cls-2" d="M459.64,397.83h0a.74.74,0,0,1,.81.75.73.73,0,0,1-.78.72h-.06l-1.13,0-1.24,0a.76.76,0,0,1-.84-.74.73.73,0,0,1,.77-.73h.07l.21,0a.22.22,0,0,0,.24-.24c0-.63,0-1.2,0-1.68s0-.87,0-1.12-.07-.28-.29-.3l-2.05,0-2.49,0c-.11,0-.3,0-.3.27s0,1,0,1.74v1c0,.14.06.28.24.28H453a.75.75,0,0,1,.83.75.74.74,0,0,1-.8.72H453l-1.12,0-1.23,0h-.06a.74.74,0,1,1,0-1.47h.34a.2.2,0,0,0,.15-.22c0-1.41,0-3,0-4.51,0-.93,0-1.79,0-2.56,0-.17,0-.34-.21-.34h-.24a.74.74,0,0,1-.84-.74.73.73,0,0,1,.77-.73h.07c.29,0,.66,0,1,0s.93,0,1.31,0h0a.75.75,0,0,1,.83.75.74.74,0,0,1-.8.72h-.15c-.17,0-.29.05-.29.28,0,.51,0,1,0,1.38s0,.71,0,.94.13.28.26.28h4.62c.2,0,.25-.1.25-.27s0-.55,0-.95,0-.9,0-1.43c0-.21-.12-.24-.29-.24h-.16a.74.74,0,0,1-.84-.74.73.73,0,0,1,.77-.73h.07c.3,0,.66,0,1.05,0s.94,0,1.32,0h0a.74.74,0,0,1,.81.75.73.73,0,0,1-.78.72h-.14c-.16,0-.28.05-.28.24,0,.94,0,2.08,0,3.22,0,1.39,0,2.81,0,3.9,0,.17,0,.22.23.26Z" transform="translate(-406.62 -343.6)"/><path class="cls-2" d="M467.56,395.82c0,.24,0,.49,0,.77a.83.83,0,0,1-.76.85.59.59,0,0,1-.58-.66v-.12a6.41,6.41,0,0,0,.06-.94c-.29.15-1.6.84-1.6,1.72,0,.24.12,1.07,1.54,1.07a6.36,6.36,0,0,0,1.77-.3,1.18,1.18,0,0,1,.35,0,.68.68,0,0,1,.73.65c0,.3-.11,1-2.51,1s-3.14-1.2-3.14-2.22c0-1.71,2-2.78,2.72-3.16-.17-.54-.45-.82-.83-.82a1.33,1.33,0,0,0-.72.25c-.59.66-.94.85-1.25.85a.55.55,0,0,1-.6-.53.74.74,0,0,1,.32-.57,7.2,7.2,0,0,0,1.79-2.13,4.19,4.19,0,0,1-.68.05c-1.42,0-1.43-.78-1.43-.89a.6.6,0,0,1,.57-.62,1,1,0,0,1,.51.18.86.86,0,0,0,.51.12,5.6,5.6,0,0,0,1.11-.16,5.11,5.11,0,0,0,.25-1.1.55.55,0,0,1,.59-.49.71.71,0,0,1,.76.61,2.55,2.55,0,0,1-.09.52c.42-.21.48-.22.58-.22a.61.61,0,0,1,.6.61c0,.46-.36.74-1.82,1.09a14,14,0,0,1-.8,1.41,1.88,1.88,0,0,1,1.77,1.31,16.42,16.42,0,0,1,3.23-1.13.75.75,0,0,1,.79.73.58.58,0,0,1-.38.54c-.44.18-.9.24-1.63.46s-1.19.41-1.73.63C467.56,395.35,467.56,395.58,467.56,395.82Z" transform="translate(-406.62 -343.6)"/><path class="cls-2" d="M474.6,398a11.36,11.36,0,0,0,6-6.1c.1-.24-.07-.34-.25-.32-1.08.05-2.94.36-3.91.47a8.93,8.93,0,0,1-1.76.16.76.76,0,1,1,.09-1.5,16.35,16.35,0,0,0,1.73-.07c1.17-.09,3.08-.4,4.65-.49,1.17-.07,1.72.7,1.3,1.55-1.47,3-3.26,6.08-7.19,7.69C473.87,400,473.38,398.49,474.6,398Zm7-8.57c-.7-.29-.15-1.13.5-.89a4.61,4.61,0,0,1,1.37.84c.54.57-.27,1.42-.73.88A4.77,4.77,0,0,0,481.63,389.47Zm1.27-1.19c-.72-.28-.21-1.12.44-.91a4.49,4.49,0,0,1,1.4.8c.56.56-.22,1.41-.7.9A4.83,4.83,0,0,0,482.9,388.28Z" transform="translate(-406.62 -343.6)"/><path class="cls-2" d="M487.76,399.73c-1,.42-1.82-.92-.61-1.35a9.45,9.45,0,0,0,5.45-5.13c.11-.3,0-.4-.24-.39-1.08.07-3.13.37-3.8.44a13.83,13.83,0,0,1-1.66.15c-.93,0-1.22-1.41,0-1.41.71,0,.88,0,1.54-.06s3.11-.32,4.72-.46c1-.1,1.81.64,1.32,1.58C492.92,396,491.41,398.25,487.76,399.73Zm1.4-9.17c-.46.05-.53,0-1.12.05a.66.66,0,1,1,0-1.32c.52,0,.56,0,1,0,.72-.06,2.37-.2,3.34-.35s1.51,1.16,0,1.34C491.59,390.37,489.67,390.52,489.16,390.56Z" transform="translate(-406.62 -343.6)"/><path class="cls-2" d="M499.79,393.37a5.81,5.81,0,0,0-2-1c-.84-.18-.49-1.58.58-1.31a8.32,8.32,0,0,1,2.31.94.8.8,0,0,1,.23,1.13A.75.75,0,0,1,499.79,393.37Zm.6,5.28a3,3,0,0,1-1.34.44c-1.16.1-1.33-1.37-.44-1.47a4.25,4.25,0,0,0,1.08-.35,13.62,13.62,0,0,0,6.22-6.16c.46-.88,1.88-.29,1.26.83A15.83,15.83,0,0,1,500.39,398.65Z" transform="translate(-406.62 -343.6)"/><path class="cls-2" d="M515.92,394.3a7.24,7.24,0,0,1-4.59,5.47c-1.36.53-1.64-1-.66-1.33a5.51,5.51,0,0,0,3.77-4.19,1,1,0,0,0-.17-.65.67.67,0,0,1-.1-.21l-2.27.28c-.8.09-1.29.24-1.74.27a.71.71,0,1,1,0-1.41c.5,0,1.15,0,1.76-.1,1.07-.11,3.42-.38,4.88-.51a8.27,8.27,0,0,1,2-.11c.63.09.87.3.85.7s-.32.69-.92.69c-.86,0-1.61-.06-2.41,0l-.48,0A1.91,1.91,0,0,1,515.92,394.3Zm-.55-3.57c-.82.06-1.27.13-1.9.2a10.43,10.43,0,0,1-1.65.12c-.9,0-1.12-1.3,0-1.34a12.77,12.77,0,0,0,1.38,0l2.15-.22c.25,0,.46-.09.65-.13a2.35,2.35,0,0,1,.68-.08c1.06,0,1.28,1.33,0,1.41Zm3.27-.56a5.38,5.38,0,0,0-.91-1.06c-.62-.45.1-1.14.67-.76a4.51,4.51,0,0,1,1.15,1.12C519.94,390.16,519,390.8,518.64,390.17Zm1.87-.59a8.48,8.48,0,0,0-1-1c-.63-.42.06-1.13.65-.78a4.65,4.65,0,0,1,1.19,1.08A.57.57,0,0,1,520.51,389.58Z" transform="translate(-406.62 -343.6)"/><path class="cls-2" d="M523.69,395.78a13.13,13.13,0,0,1-2.47,1.93c-1.05.64-1.66-.59-.85-1a10.16,10.16,0,0,0,4.43-4.53c.25-.73,1.61-.33,1.2.54a4.63,4.63,0,0,1-.49.86c-.25.34-.49.66-.74,1a.27.27,0,0,1,.05.11,2.17,2.17,0,0,1,.06,1c0,.77,0,2.24,0,3.31a.69.69,0,0,1-.63.77c-.34,0-.63-.21-.63-.7,0-1.05.11-2.34.07-3.28Z" transform="translate(-406.62 -343.6)"/><path class="cls-2" d="M532.27,393.37a5.81,5.81,0,0,0-2-1c-.84-.18-.49-1.58.58-1.31a8.32,8.32,0,0,1,2.31.94.8.8,0,0,1,.24,1.13A.76.76,0,0,1,532.27,393.37Zm.6,5.28a3,3,0,0,1-1.34.44c-1.16.1-1.33-1.37-.44-1.47a4.25,4.25,0,0,0,1.08-.35,13.62,13.62,0,0,0,6.22-6.16c.46-.88,1.88-.29,1.26.83A15.83,15.83,0,0,1,532.87,398.65Z" transform="translate(-406.62 -343.6)"/><path class="cls-2" d="M543,395.14c-1,.65-1.8-.63-.82-1.21a10.39,10.39,0,0,0,3-3.25,4.62,4.62,0,0,0,.55-1.15.76.76,0,0,1,1.5.24,2.33,2.33,0,0,1-.21.61c.67-.11,1.4-.28,2-.32,1-.06,1.85.63,1.32,1.54-2.26,3.87-4.3,6.57-8.09,8-1.2.46-1.75-1-.56-1.36,3-1,5.26-3.51,6.87-6.55.14-.28,0-.34-.2-.34a21.69,21.69,0,0,0-2.24.35A14.49,14.49,0,0,1,543,395.14Zm7.07-5.47c-.7-.3-.15-1.14.49-.9a4.69,4.69,0,0,1,1.37.84c.55.58-.26,1.43-.73.88A4.68,4.68,0,0,0,550.11,389.67Zm1.26-1.19c-.71-.28-.21-1.12.45-.91a4.12,4.12,0,0,1,1.4.8c.56.56-.22,1.41-.7.89A5.07,5.07,0,0,0,551.37,388.48Z" transform="translate(-406.62 -343.6)"/></g></g><line id="線_4" data-name="線 4" class="cls-3" x1="7.64" y1="19.1" x2="153.64" y2="19.1"/><g id="Episode_4_GOODS" data-name="Episode 4 GOODS" class="cls-1"><g class="cls-1"><path class="cls-2" d="M424.94,352.89c2.24,0,2.32-.06,2.58-.91a.71.71,0,0,1,.7-.55.76.76,0,0,1,.77.75,4.12,4.12,0,0,1-.28.91c-.28.72-.8,1.2-2.29,1.2h-2.78c-.68,0-1.31,0-1.83,0a.75.75,0,0,1-.84-.72.73.73,0,0,1,.78-.73h.14c.23,0,.3-.07.32-.28.07-.93.08-3.56.08-5.59v-1.49c0-.21-.05-.32-.36-.32s-.9-.07-.9-.71a.73.73,0,0,1,.78-.72h.06c.38,0,.86,0,1.37,0,1,0,2.23,0,3,0,1.73,0,1.94.63,2.23,1.68a1.3,1.3,0,0,1,.06.31.77.77,0,0,1-1.52.11c-.09-.5-.26-.7-1-.7h-1.85c-.28,0-.37.06-.38.36,0,.64,0,1.62,0,2.55,0,.14.07.19.19.19.45,0,1.17,0,1.4,0s.29-.21.29-.45a.71.71,0,0,1,.72-.77.67.67,0,0,1,.69.72v.05c0,.33,0,.7,0,1.07s0,.87,0,1.17v.06a.71.71,0,0,1-1.41,0V350c0-.05,0-.12,0-.18s0-.29-.3-.29l-1.4,0c-.16,0-.21.07-.21.23,0,1.27,0,2.44,0,2.76S423.86,352.89,424.94,352.89Z" transform="translate(-406.62 -343.6)"/><path class="cls-2" d="M430.23,357.83a.67.67,0,0,1-.06-1.33h.14c.37,0,.41-.16.41-.56s0-.74,0-1.15c0-1.7,0-3.85-.05-5.4,0-.32-.14-.49-.42-.49h-.07a.63.63,0,0,1-.65-.67c0-.55.37-.77,1-.77a1.31,1.31,0,0,1,1.36.79c0,.05,0,.07.05.07s.06,0,.09-.07a2.84,2.84,0,0,1,2.1-.88,3.32,3.32,0,0,1,3.39,3.52,3.35,3.35,0,0,1-3.39,3.51,2.87,2.87,0,0,1-2-.75.09.09,0,0,0-.07,0s0,0,0,.07c0,.88,0,1.64,0,2.3,0,.29,0,.47.58.47a.63.63,0,0,1,.63.67.68.68,0,0,1-.7.7Zm5.9-6.94a2,2,0,1,0-2,2.24A2,2,0,0,0,436.13,350.89Z" transform="translate(-406.62 -343.6)"/><path class="cls-2" d="M439.68,347.43c1,0,1.44.49,1.44,1.5V349c0,1.94-.05,3-.05,3.67a.24.24,0,0,0,.23.27.7.7,0,1,1,0,1.38h-2a.67.67,0,0,1-.8-.68.69.69,0,0,1,.74-.7h.23c.18,0,.23,0,.23-.3,0-.64,0-1.49,0-2.46v-.7c0-.39,0-.55-.39-.55h-.14a.65.65,0,0,1-.65-.71.71.71,0,0,1,.69-.77Zm-.52-2.83a1,1,0,0,1,1-1,1,1,0,1,1,0,1.94A.93.93,0,0,1,439.16,344.6Z" transform="translate(-406.62 -343.6)"/><path class="cls-2" d="M447.48,348c0,.23,0,.43,0,.63s0,.26,0,.4a.6.6,0,0,1-.66.63.64.64,0,0,1-.7-.61v0c0-.49-.83-.49-.88-.49-.49,0-.76.28-.76.59a.79.79,0,0,0,.48.64c.38.2,1,.46,1.41.69a2.05,2.05,0,0,1-1,4,2.62,2.62,0,0,1-1.13-.22.23.23,0,0,0-.11,0,.17.17,0,0,0-.11,0,.8.8,0,0,1-.48.14.63.63,0,0,1-.7-.59v0c0-.19,0-.35,0-.49s0-.38,0-.62v0a.63.63,0,0,1,.69-.61.66.66,0,0,1,.7.65.27.27,0,0,0,.12.23,1.45,1.45,0,0,0,.93.29c1,0,1.05-.59,1.05-.74,0-.39-.26-.71-1.95-1.47a1.91,1.91,0,0,1-1.26-1.74,2,2,0,0,1,2.13-1.87,2.15,2.15,0,0,1,.85.16.18.18,0,0,0,.1,0,.44.44,0,0,0,.18,0,.73.73,0,0,1,.39-.1.66.66,0,0,1,.72.64Z" transform="translate(-406.62 -343.6)"/><path class="cls-2" d="M448.88,350.87a3.52,3.52,0,1,1,7,0,3.52,3.52,0,1,1-7,0Zm5.63,0a2.12,2.12,0,1,0-4.22,0,2.11,2.11,0,1,0,4.22,0Z" transform="translate(-406.62 -343.6)"/><path class="cls-2" d="M462.15,343.76l.48,0c1.06,0,1.41.51,1.41,1.47v.12c0,1.21-.05,3.09-.05,4.77,0,.84,0,1.64,0,2.27,0,.32.15.49.43.49h.07a.64.64,0,0,1,.65.68c0,.46-.24.76-1,.76a1.37,1.37,0,0,1-1.36-.79c0-.05,0-.07,0-.07s-.05,0-.07.05a2.86,2.86,0,0,1-2.11.9,3.32,3.32,0,0,1-3.39-3.52,3.35,3.35,0,0,1,3.39-3.51,2.85,2.85,0,0,1,1.95.74h0s.07,0,.07-.07.05-1.26.05-2.13c0-.44,0-.71-.45-.71s-.84,0-.84-.69a.74.74,0,0,1,.77-.75Zm.45,7.11a2,2,0,1,0-4,0,2,2,0,1,0,4,0Z" transform="translate(-406.62 -343.6)"/><path class="cls-2" d="M469.35,354.45a3.32,3.32,0,0,1-3.35-3.53,3.4,3.4,0,0,1,3.32-3.62,2.83,2.83,0,0,1,3,2.48A1.21,1.21,0,0,1,471,351h-3.44c-.09,0-.12.12-.12.27a1.85,1.85,0,0,0,1.91,1.86,2.38,2.38,0,0,0,1.82-.85.63.63,0,0,1,.48-.23.76.76,0,0,1,.74.73.68.68,0,0,1-.21.49A3.53,3.53,0,0,1,469.35,354.45Zm1.54-4.91c0-.19-.3-1-1.56-1a1.84,1.84,0,0,0-1.75,1.22c0,.12.14.12,1.44.12h1.59A.3.3,0,0,0,470.89,349.54Z" transform="translate(-406.62 -343.6)"/><path class="cls-2" d="M481.85,351.94a.15.15,0,0,0-.16-.16c-1.33,0-2.66,0-2.8,0-.94,0-1.41-.44-1.41-1.05a1.76,1.76,0,0,1,.39-1.05c.84-1.19,3.15-4.33,4.19-5.72a.66.66,0,0,1,.56-.29.79.79,0,0,1,.61,1.33c-.63.77-3.26,4.05-4,5.12a.3.3,0,0,0-.09.2c0,.18.21.18.52.18l2.06,0a.18.18,0,0,0,.2-.2v-.73c0-.55,0-1,0-1.25v-.05a.72.72,0,0,1,.73-.74.73.73,0,0,1,.73.79c0,.63,0,1,0,1.95,0,.11,0,.17.16.17l.81,0h0a.66.66,0,0,1,.7.65.73.73,0,0,1-.8.69h-.67c-.1,0-.24,0-.24.15s0,.61,0,.87.05.21.39.21h0c.54,0,.81.32.81.66a.68.68,0,0,1-.77.64h-2.36c-.4,0-.82-.15-.82-.64a.68.68,0,0,1,.77-.66h.05l.17,0c.13,0,.27,0,.27-.19Z" transform="translate(-406.62 -343.6)"/><path class="cls-2" d="M507.76,350.23c-.14,0-.85,0-1.62,0a.71.71,0,0,1-.7-.78.63.63,0,0,1,.66-.69h0c.34,0,.77,0,1.19,0l.81,0h.14c1.29,0,1.59.59,1.59,1.77,0,.1,0,1.2,0,2,0,.42,0,.77,0,.9v.09a.74.74,0,0,1-.76.73.7.7,0,0,1-.73-.74v-.15c0-.09,0-.17-.08-.17a.18.18,0,0,0-.14.07,4.53,4.53,0,0,1-3,1.11,5.07,5.07,0,0,1-5.08-5.3,5.24,5.24,0,0,1,5.28-5.5,4.18,4.18,0,0,1,2.31.61.14.14,0,0,0,.09,0s.08,0,.09-.11c0-.31.37-.48.73-.48a.7.7,0,0,1,.79.66v.06c0,.29,0,.61,0,.93s0,.75,0,1v.05a.77.77,0,0,1-1.53.11,2.34,2.34,0,0,0-2.45-1.48,3.81,3.81,0,0,0-3.71,4,3.66,3.66,0,0,0,3.67,3.86,2.73,2.73,0,0,0,2.95-2.28c0-.28-.22-.42-.49-.42Z" transform="translate(-406.62 -343.6)"/><path class="cls-2" d="M511.55,349a5.4,5.4,0,1,1,10.8,0,5.4,5.4,0,1,1-10.8,0Zm9.18,0a3.79,3.79,0,1,0-3.78,4A3.77,3.77,0,0,0,520.73,349Z" transform="translate(-406.62 -343.6)"/><path class="cls-2" d="M523.87,349a5.4,5.4,0,1,1,10.8,0,5.4,5.4,0,1,1-10.8,0Zm9.18,0a3.79,3.79,0,1,0-3.78,4A3.77,3.77,0,0,0,533.05,349Z" transform="translate(-406.62 -343.6)"/><path class="cls-2" d="M539.71,354.33c-.8,0-1.51,0-2.33,0h-.77a.73.73,0,0,1-.84-.72.75.75,0,0,1,.81-.75c.31,0,.36,0,.36-1v-.41c0-.61,0-1.36,0-2.11s0-1.52,0-2.16v-.39c0-.52,0-.94,0-1.21s0-.31-.25-.31h-.07a.74.74,0,1,1,0-1.47h.06l.88,0c.81,0,1.54,0,2.35,0,.33,0,.65,0,1,0a5,5,0,0,1,5,5.26C545.87,354.3,541.25,354.33,539.71,354.33Zm-.13-9.17c-1,0-1,0-1.05.43s0,1.11,0,2c0,1.85,0,4.26,0,4.8s.16.48,1.26.48c1.59,0,4.46,0,4.46-3.89,0-2.22-1.36-3.83-3.52-3.83Z" transform="translate(-406.62 -343.6)"/><path class="cls-2" d="M550.59,354.46a4.29,4.29,0,0,1-1.92-.42.27.27,0,0,0-.13,0,.2.2,0,0,0-.14.09.76.76,0,0,1-.61.29.7.7,0,0,1-.75-.69v-.06c0-.24,0-.53,0-.82s0-.76,0-1.05v0a.69.69,0,0,1,.76-.67.67.67,0,0,1,.74.65v.12c0,.79,1.19,1.17,2,1.17,1.43,0,1.93-.91,1.93-1.54a1.86,1.86,0,0,0-1.08-1.58c-.61-.35-1.4-.79-2.14-1.12a2.79,2.79,0,0,1-1.79-2.52,2.76,2.76,0,0,1,3-2.64,3.74,3.74,0,0,1,1.56.34h.1a.17.17,0,0,0,.12,0,.84.84,0,0,1,.6-.22c.38,0,.76.19.76.59v0c0,.26,0,.53,0,.81s0,.63,0,.88c0,.53-.5.67-.76.67a.67.67,0,0,1-.74-.61V346c0-.05,0-.11,0-.15,0-.41-.65-.88-1.67-.88a1.32,1.32,0,0,0-1.49,1.21,1.49,1.49,0,0,0,.91,1.28c.59.31,1.55.74,2.2,1.09a3.32,3.32,0,0,1,2,2.86A3.27,3.27,0,0,1,550.59,354.46Z" transform="translate(-406.62 -343.6)"/></g></g></g></svg>