<svg id="レイヤー_1" data-name="レイヤー 1" xmlns="http://www.w3.org/2000/svg" viewBox="0 0 222.81 56.64"><defs><style>.cls-1{isolation:isolate;}.cls-2{fill:#040000;}.cls-3{fill:none;stroke:#121212;}</style></defs><g id="CAREER_SUPPORT_見出し" data-name="CAREER SUPPORT 見出し"><g id="学生の悩みは_学生にしか分からない" data-name="学生の悩みは 学生にしか分からない" class="cls-1"><g class="cls-1"><path class="cls-2" d="M362,396.45a4,4,0,0,1,0,.61,2.89,2.89,0,0,1-3,3.17c-1.09,0-1.68-.29-1.68-.84a.65.65,0,0,1,.66-.66.58.58,0,0,1,.22,0,3,3,0,0,0,.92.15c1.57,0,1.57-1.87,1.57-2a2.42,2.42,0,0,0,0-.47l-5.94,0a.6.6,0,0,1-.64-.62.62.62,0,0,1,.63-.65l5.18,0a2.47,2.47,0,0,0-.56-.29c-.29-.1-.42-.28-.42-.46a.69.69,0,0,1,.74-.59,1.75,1.75,0,0,1,.83.28c.36-.24,1.11-.76,1.11-.93s-.06-.08-.16-.08h-.74c-.9,0-2.26,0-3.24.07h0a.59.59,0,0,1-.64-.59.61.61,0,0,1,.65-.59c.6,0,1.36,0,2.1,0,1,0,2.05,0,2.69,0,.8,0,1.13.42,1.13.85,0,.69-.74,1.26-2,2.05.07.1.14.19.2.29l4.17,0a.61.61,0,0,1,.62.65.58.58,0,0,1-.6.61Zm2.31-4.49c0-.58-.31-.68-.88-.7l-3.6,0-2.84,0c-.77,0-.9.21-.94.7v.82h0a.66.66,0,0,1-.72.62.64.64,0,0,1-.67-.63c0-.18,0-.39,0-.62s0-.48,0-.69a1.48,1.48,0,0,1,1.64-1.34h1.18a.91.91,0,0,1-.19-.2,3.93,3.93,0,0,0-1-1,.5.5,0,0,1-.18-.36.7.7,0,0,1,.72-.6,2.46,2.46,0,0,1,1.62,1.55.77.77,0,0,1-.4.62c1.23,0,2.45,0,3.68,0a6.59,6.59,0,0,0,1-1.85.66.66,0,0,1,.63-.45.77.77,0,0,1,.8.69,4.4,4.4,0,0,1-1,1.63h1a1.48,1.48,0,0,1,1.63,1.33c0,.2,0,.49,0,.76s0,.38,0,.52a.7.7,0,0,1-.75.61.62.62,0,0,1-.7-.59V392Zm-4-1.91a.5.5,0,0,1-.48-.34,3.86,3.86,0,0,0-.82-1.21.44.44,0,0,1-.13-.3c0-.3.35-.55.71-.55.72,0,1.49,1.37,1.49,1.7A.8.8,0,0,1,360.36,390.05Z" transform="translate(-354.1 -343.6)"/><path class="cls-2" d="M368.78,399.63a.6.6,0,0,1-.65-.6.65.65,0,0,1,.65-.68l4.78,0v-2.52h-2.63a.59.59,0,0,1-.66-.6.64.64,0,0,1,.66-.65l2.63,0v-2.15l-2.49,0a16.43,16.43,0,0,1-1.56,2.28.77.77,0,0,1-.61.32.66.66,0,0,1-.68-.63.72.72,0,0,1,.19-.45,12.62,12.62,0,0,0,2.49-4.58.63.63,0,0,1,.64-.47.72.72,0,0,1,.79.64.86.86,0,0,1,0,.21c-.19.49-.38,1-.59,1.43h1.86v-2.49a.72.72,0,1,1,1.44,0v2.49h3.78a.63.63,0,1,1,0,1.25l-3.78,0v2.15l2.83,0a.63.63,0,1,1,0,1.25H375v2.52l4.68,0a.61.61,0,0,1,.63.65.59.59,0,0,1-.63.63Z" transform="translate(-354.1 -343.6)"/><path class="cls-2" d="M391.33,394a3,3,0,0,0-3.25-2.89h0a.63.63,0,0,1,.39.59v.07c0,1.47-1.44,4-3,5.53a1.5,1.5,0,0,1-1,.48c-1,0-1.89-1.12-1.89-2.65,0-2.53,2.49-5.11,5.64-5.11,2.83,0,4.6,1.88,4.6,4.06a4.36,4.36,0,0,1-.31,1.59c-1.23,3.1-5,3.54-5.24,3.54a.74.74,0,0,1-.8-.69c0-.31.24-.6.77-.7C389.73,397.44,391.33,395.87,391.33,394Zm-4.05-2.82a4.59,4.59,0,0,0-3.5,3.88c0,1,.7,1.18.74,1.18a.39.39,0,0,0,.27-.11c.42-.38,2.17-2.45,2.22-4.34A.74.74,0,0,1,387.28,391.22Z" transform="translate(-354.1 -343.6)"/><path class="cls-2" d="M394.26,393.65a.93.93,0,0,1,.14-.47,3.93,3.93,0,0,0,.54-2,.51.51,0,0,1,.56-.56.62.62,0,0,1,.65.63c0,.66-.36,3-1.28,3A.6.6,0,0,1,394.26,393.65Zm2.17-5.2a.61.61,0,0,1,.66-.62.62.62,0,0,1,.67.62v2.09a.74.74,0,0,1,.38-.12c.44,0,1.31,1,1.31,1.42a.67.67,0,0,1-.65.63.44.44,0,0,1-.4-.27,4.49,4.49,0,0,0-.64-.94v8.31a.67.67,0,0,1-1.33,0Zm3.59,2.7a4.49,4.49,0,0,0-1-1.68.51.51,0,0,1-.16-.36.62.62,0,0,1,.64-.56c.74,0,1.75,1.73,1.75,2.32a.74.74,0,0,1-.71.73A.55.55,0,0,1,400,391.15Zm.32,2.15c0,.64,0,1.51,0,2.36s0,1.71,0,2.34.31.6,2.41.6c.67,0,1.37,0,1.88,0a.58.58,0,0,0,.59-.54c0-.65,0-1.7,0-2.72,0-.73,0-1.44,0-2a.59.59,0,0,1,.66-.57.6.6,0,0,1,.66.57c0,.64,0,1.37,0,2.1,0,1,0,2.06,0,2.82a1.53,1.53,0,0,1-1.64,1.56c-.65,0-1.41,0-2.17,0s-1.48,0-2.13,0a1.41,1.41,0,0,1-1.55-1.51c0-.7,0-1.59,0-2.48s0-1.79,0-2.5a.62.62,0,0,1,.67-.55.57.57,0,0,1,.63.53Zm.9,4.79a.61.61,0,0,1-.63-.58.6.6,0,0,1,.26-.46,6,6,0,0,0,1.46-1.68,8,8,0,0,0-1.3-.91.52.52,0,0,1-.31-.45.61.61,0,0,1,.62-.56c.19,0,.46.07,1.55.85a6.65,6.65,0,0,0,.44-1.3.56.56,0,0,1,.58-.45.65.65,0,0,1,.69.61,6.77,6.77,0,0,1-.74,1.93c.89.81,1.08,1.13,1.08,1.41a.75.75,0,0,1-.7.72.57.57,0,0,1-.47-.28,4.34,4.34,0,0,0-.57-.74C402.65,397,401.8,398.09,401.24,398.09Zm1-7.36a5,5,0,0,0-.74-1.78.46.46,0,0,1-.11-.32.62.62,0,0,1,.64-.56c.87,0,1.44,2.14,1.44,2.42a.69.69,0,0,1-.68.73A.54.54,0,0,1,402.26,390.73Zm2.23,1.33a.59.59,0,0,1-.52-1,9.54,9.54,0,0,0,1.33-2.48.57.57,0,0,1,.56-.36.75.75,0,0,1,.8.66,9.73,9.73,0,0,1-1.6,2.87A.73.73,0,0,1,404.49,392.06Z" transform="translate(-354.1 -343.6)"/><path class="cls-2" d="M413.94,399.68a.71.71,0,0,1-.76-.67.69.69,0,0,1,.59-.64,5.07,5.07,0,0,0,3-2.22,13.57,13.57,0,0,0-3.34-.94c-1.34,1.74-2,2.05-2.83,2.05a1.6,1.6,0,0,1-1.73-1.5c0-.68.51-1.47,1.9-1.67a10.93,10.93,0,0,1,1.3-.08,8.43,8.43,0,0,1,.86,0,14.85,14.85,0,0,0,1.92-3.42s0-.06-.05-.06l-.11,0a3.08,3.08,0,0,1-1.09.24c-.59,0-1.16-.22-1.16-.81a.54.54,0,0,1,.53-.59l.18,0a2.79,2.79,0,0,0,.59.05,2.73,2.73,0,0,0,.66-.07,6.91,6.91,0,0,1,1.26-.21c.42,0,.95.2.95.77a1.85,1.85,0,0,1-.29.87c-.48.79-1.28,2.1-2.13,3.32a16.39,16.39,0,0,1,3.09.83,5.57,5.57,0,0,0,.26-1.29.59.59,0,0,1,.63-.56.69.69,0,0,1,.71.71,8.24,8.24,0,0,1-.39,1.64A11.06,11.06,0,0,1,420.9,397a.78.78,0,0,1,.29.62.75.75,0,0,1-.7.78.7.7,0,0,1-.52-.22,9.48,9.48,0,0,0-2-1.46A6.18,6.18,0,0,1,413.94,399.68Zm-3.84-4c0,.16.17.35.5.35s.6,0,1.45-.89C410.17,395.12,410.1,395.57,410.1,395.66Z" transform="translate(-354.1 -343.6)"/><path class="cls-2" d="M424.43,399.47a.74.74,0,0,1-.68-.6,10.17,10.17,0,0,1-.42-3.05,15.37,15.37,0,0,1,.1-1.82c.16-1.57.49-3,.58-3.83a.65.65,0,0,1,.65-.66.72.72,0,0,1,.73.69s0,.07,0,.11c-.09.6-.35,1.59-.54,2.61a13.38,13.38,0,0,0-.31,2.41c0,.52.08.63.11.63s.11-.09.2-.25c.39-.86.61-1,.84-1a.61.61,0,0,1,.59.59.59.59,0,0,1-.07.26,8.45,8.45,0,0,0-1.11,2.76c0,.17,0,.34,0,.5A.68.68,0,0,1,424.43,399.47Zm4.56,0a2.08,2.08,0,0,1-2.17-1.76c0-1.06,1.3-1.49,2.59-1.49a6.46,6.46,0,0,1,1.3.14c0-.13,0-.26,0-.4a7.54,7.54,0,0,0,0-.78c-.05-.6-.12-1.64-.17-2.73a5.3,5.3,0,0,0-2.52,1,.67.67,0,0,1-.45.2.68.68,0,0,1-.64-.68c0-.3.2-1,3.59-1.78,0-.58,0-1.14,0-1.59a.6.6,0,0,1,.64-.58.61.61,0,0,1,.66.55v.07c0,.39-.08.84-.1,1.3l.76-.12a.62.62,0,0,1,.18,0,.65.65,0,0,1,.72.61c0,.29-.24.6-.76.67l-.91.12c0,1,0,2.06.12,2.8a13.65,13.65,0,0,1,.12,1.56v.15a6,6,0,0,1,1.61,1,.79.79,0,0,1,.26.58.75.75,0,0,1-.71.78.66.66,0,0,1-.5-.25,4.67,4.67,0,0,0-1-.81A3.27,3.27,0,0,1,429,399.45Zm.19-2.18c-1.09,0-1.15.35-1.15.48s.19.52.8.52a2.05,2.05,0,0,0,1.56-.81A4.29,4.29,0,0,0,429.18,397.27Z" transform="translate(-354.1 -343.6)"/><path class="cls-2" d="M437.55,399.94a5.38,5.38,0,0,0-1.72-1.48.61.61,0,0,1,.28-1.17c.49,0,2.73,1.23,2.73,2.18a.77.77,0,0,1-.75.77A.64.64,0,0,1,437.55,399.94Z" transform="translate(-354.1 -343.6)"/><path class="cls-2" d="M450.49,396.45a4,4,0,0,1,0,.61,2.89,2.89,0,0,1-3,3.17c-1.09,0-1.68-.29-1.68-.84a.65.65,0,0,1,.66-.66.58.58,0,0,1,.22,0,3,3,0,0,0,.92.15c1.57,0,1.57-1.87,1.57-2a2.42,2.42,0,0,0,0-.47l-5.94,0a.6.6,0,0,1-.64-.62.62.62,0,0,1,.63-.65l5.18,0a2.47,2.47,0,0,0-.56-.29c-.29-.1-.42-.28-.42-.46a.69.69,0,0,1,.74-.59,1.71,1.71,0,0,1,.83.28c.36-.24,1.11-.76,1.11-.93s-.06-.08-.16-.08h-.74c-.9,0-2.26,0-3.24.07h0a.59.59,0,0,1-.63-.59.6.6,0,0,1,.64-.59c.6,0,1.36,0,2.1,0,1,0,2,0,2.69,0,.8,0,1.13.42,1.13.85,0,.69-.74,1.26-2,2.05.07.1.14.19.2.29l4.17,0a.61.61,0,0,1,.62.65.58.58,0,0,1-.6.61ZM452.8,392c0-.58-.31-.68-.88-.7l-3.6,0-2.84,0c-.77,0-.9.21-.94.7v.82h0a.66.66,0,0,1-.72.62.64.64,0,0,1-.67-.63c0-.18,0-.39,0-.62s0-.48,0-.69a1.48,1.48,0,0,1,1.64-1.34H446a.7.7,0,0,1-.18-.2,4.14,4.14,0,0,0-1-1,.5.5,0,0,1-.18-.36.7.7,0,0,1,.72-.6A2.46,2.46,0,0,1,447,389.5a.77.77,0,0,1-.4.62c1.23,0,2.45,0,3.68,0a6.59,6.59,0,0,0,1-1.85.66.66,0,0,1,.63-.45.77.77,0,0,1,.8.69,4.26,4.26,0,0,1-1,1.63h1a1.48,1.48,0,0,1,1.63,1.33c0,.2,0,.49,0,.76s0,.38,0,.52a.7.7,0,0,1-.75.61.62.62,0,0,1-.7-.59V392Zm-4-1.91a.5.5,0,0,1-.48-.34,3.86,3.86,0,0,0-.82-1.21.44.44,0,0,1-.13-.3c0-.3.35-.55.71-.55.72,0,1.49,1.37,1.49,1.7A.8.8,0,0,1,448.84,390.05Z" transform="translate(-354.1 -343.6)"/><path class="cls-2" d="M457.26,399.63a.6.6,0,0,1-.65-.6.65.65,0,0,1,.65-.68l4.78,0v-2.52h-2.63a.59.59,0,0,1-.66-.6.64.64,0,0,1,.66-.65l2.63,0v-2.15l-2.49,0a16.43,16.43,0,0,1-1.56,2.28.77.77,0,0,1-.61.32.66.66,0,0,1-.68-.63.72.72,0,0,1,.19-.45,12.62,12.62,0,0,0,2.49-4.58A.63.63,0,0,1,460,389a.72.72,0,0,1,.79.64.86.86,0,0,1,0,.21c-.19.49-.38,1-.59,1.43H462v-2.49a.72.72,0,0,1,.73-.77.71.71,0,0,1,.71.77v2.49h3.79a.63.63,0,1,1,0,1.25l-3.79,0v2.15l2.83,0a.63.63,0,1,1,0,1.25h-2.83v2.52l4.68,0a.61.61,0,0,1,.63.65.59.59,0,0,1-.63.63Z" transform="translate(-354.1 -343.6)"/><path class="cls-2" d="M471.67,398.93a8.94,8.94,0,0,1-.36-2.68,41.94,41.94,0,0,1,.78-5.84.65.65,0,0,1,.67-.67.66.66,0,0,1,.7.61.57.57,0,0,1,0,.12,32.71,32.71,0,0,0-.91,5c0,.52.1.57.14.57s.07,0,.1-.1c.43-.82.53-1,.82-1a.61.61,0,0,1,.58.59.47.47,0,0,1-.07.25,7.29,7.29,0,0,0-1.05,2.63c0,.13,0,.25,0,.38a.66.66,0,0,1-.7.73A.75.75,0,0,1,471.67,398.93Zm7.79-.09c-2.42,0-4.27-1.44-4.27-2.13a.69.69,0,0,1,.73-.65.83.83,0,0,1,.63.3,3.54,3.54,0,0,0,2.71.94,9.64,9.64,0,0,0,1.19-.08.52.52,0,0,1,.17,0,.65.65,0,0,1,.7.68C481.32,398.6,480.71,398.84,479.46,398.84Zm-1.58-6.15a7.69,7.69,0,0,1-1.9-.21.64.64,0,0,1-.58-.63.65.65,0,0,1,.64-.66.36.36,0,0,1,.14,0,6.48,6.48,0,0,0,1.36.14,13.31,13.31,0,0,0,1.72-.14l.13,0a.65.65,0,0,1,.67.66C480.06,392.41,479.67,392.69,477.88,392.69Z" transform="translate(-354.1 -343.6)"/><path class="cls-2" d="M487.26,399.5c-2.81,0-2.92-1.62-2.92-3,0-1.6.17-3.63.17-5.28a14.84,14.84,0,0,0-.08-1.6s0-.1,0-.14a.69.69,0,0,1,.73-.7.77.77,0,0,1,.79.67c0,.31,0,.65,0,1,0,1.72-.3,3.92-.3,5.8,0,1.15.06,1.85,1.45,1.85a9.57,9.57,0,0,0,3.34-.73,1.14,1.14,0,0,1,.44-.1.66.66,0,0,1,.68.68,1,1,0,0,1-.68.88A11,11,0,0,1,487.26,399.5Z" transform="translate(-354.1 -343.6)"/><path class="cls-2" d="M496.79,393.52a8.11,8.11,0,0,1-1.58.27.61.61,0,0,1-.66-.63.68.68,0,0,1,.7-.7,10.28,10.28,0,0,0,2.31-.33,6,6,0,0,0,.68-2.14.6.6,0,0,1,.64-.5.7.7,0,0,1,.75.64,4.86,4.86,0,0,1-.5,1.7h.11c1.6,0,1.64,1.72,1.64,2.36,0,1.25-.06,4.75-2.65,4.75-.8,0-1.83-.36-1.83-1a.74.74,0,0,1,.72-.72.66.66,0,0,1,.3.07,1.86,1.86,0,0,0,.78.21c.91,0,1.33-1,1.33-3.44,0-.57-.08-1-.53-1a.8.8,0,0,0-.25,0l-.23.05c-1,2-2.52,4.28-3.41,5.8a.84.84,0,0,1-.73.41.66.66,0,0,1-.72-.6.9.9,0,0,1,.17-.49c.62-.94,2.08-3,3.07-4.74Zm7.76,1.93a4.45,4.45,0,0,0-2.41-2.22.52.52,0,0,1-.38-.48.66.66,0,0,1,.67-.62c.72,0,3.46,1.74,3.46,3a.74.74,0,0,1-.74.74A.64.64,0,0,1,504.55,395.45Z" transform="translate(-354.1 -343.6)"/><path class="cls-2" d="M513.56,393.9c-.73,5-4.69,6.12-5.14,6.12a.69.69,0,0,1-.7-.69.66.66,0,0,1,.53-.63,5.35,5.35,0,0,0,3.91-4.8H510.9a.56.56,0,0,1-.6-.57v-.09c-.63.73-1.63,1.71-2.24,1.71a.74.74,0,0,1-.76-.71.7.7,0,0,1,.38-.6,7.48,7.48,0,0,0,2.77-3.14.74.74,0,0,1,.65-.44.76.76,0,0,1,.75.72,6.8,6.8,0,0,1-1.13,2,.84.84,0,0,1,.18,0h4.59a1.41,1.41,0,0,1,1.49,1.54c0,2.72-.08,5.7-3.18,5.7a5.93,5.93,0,0,1-1.39-.19.65.65,0,0,1-.47-.65.7.7,0,0,1,.67-.73l.21,0a4,4,0,0,0,1.09.17c1,0,1.68-.48,1.68-3.94v-.21c0-.39-.19-.54-.49-.54Zm-1.82-4.3h0a.66.66,0,0,1,0-1.32l2.3,0h.06a1.61,1.61,0,0,1,1.62.87,9.33,9.33,0,0,0,3.56,4.1.76.76,0,0,1,.4.67.85.85,0,0,1-.82.83c-.79,0-2.9-2-4.22-4.75a.75.75,0,0,0-.8-.43h-.07Z" transform="translate(-354.1 -343.6)"/><path class="cls-2" d="M524.37,393.52a8,8,0,0,1-1.58.27.61.61,0,0,1-.66-.63.68.68,0,0,1,.7-.7,10.28,10.28,0,0,0,2.31-.33,6,6,0,0,0,.68-2.14.6.6,0,0,1,.64-.5.7.7,0,0,1,.75.64,4.86,4.86,0,0,1-.5,1.7h.11c1.6,0,1.64,1.72,1.64,2.36,0,1.25-.06,4.75-2.65,4.75-.8,0-1.83-.36-1.83-1a.74.74,0,0,1,.72-.72.66.66,0,0,1,.3.07,1.86,1.86,0,0,0,.78.21c.91,0,1.33-1,1.33-3.44,0-.57-.08-1-.53-1a.8.8,0,0,0-.25,0l-.23.05c-1.05,2-2.52,4.28-3.41,5.8a.84.84,0,0,1-.73.41.66.66,0,0,1-.72-.6.9.9,0,0,1,.17-.49c.62-.94,2.08-3,3.07-4.74Zm7.76,1.93a4.45,4.45,0,0,0-2.41-2.22.52.52,0,0,1-.38-.48.66.66,0,0,1,.67-.62c.72,0,3.46,1.74,3.46,3a.74.74,0,0,1-.74.74A.64.64,0,0,1,532.13,395.45Z" transform="translate(-354.1 -343.6)"/><path class="cls-2" d="M537.89,400.08c-.53,0-.77-.31-.77-.63a.67.67,0,0,1,.65-.66c2.48-.2,4.49-1.66,4.49-2.78a1,1,0,0,0-1.08-.89c-1.07,0-3.06,1.76-3.27,2s-.55.49-.77.49-1.17-.3-1.17-2.29a5.92,5.92,0,0,1,.26-1.82,6.06,6.06,0,0,0,.14-1.18v-.24c0-.91.42-1.37,1.38-1.9.34-.19.75-.35.75-.52s-.16-.23-.54-.35a.64.64,0,0,1-.52-.58.7.7,0,0,1,.76-.63c.51,0,2.26.83,2.26,1.8,0,.65-.52.75-1.22.86a3.37,3.37,0,0,0-.67.28c-.89.41-1,.78-1,1.21,0,.07,0,.15,0,.24v.15a3.87,3.87,0,0,1,0,.56,13,13,0,0,0-.24,1.85s0,.6.17.6a.3.3,0,0,0,.13,0c.28-.17.81-.53,1.43-.88a4.66,4.66,0,0,1,2.25-.76,2.24,2.24,0,0,1,2.42,2c0,.89-.61,2-2.1,2.94A9.19,9.19,0,0,1,537.89,400.08Z" transform="translate(-354.1 -343.6)"/><path class="cls-2" d="M550.79,390.61A36.49,36.49,0,0,1,548,396a.79.79,0,0,1-.7.42.62.62,0,0,1-.66-.6.89.89,0,0,1,.15-.48,29.77,29.77,0,0,0,2.48-4.09,4.16,4.16,0,0,1-1.76.56c-.93,0-.93-.63-.93-.68a.64.64,0,0,1,.65-.66,1,1,0,0,1,.28,0,.61.61,0,0,0,.24,0,5.75,5.75,0,0,0,2-.73c0-.34,0-.66.06-1.08a.62.62,0,0,1,.66-.62.64.64,0,0,1,.67.61V389a.8.8,0,0,1,.15,0,.58.58,0,0,1,.56.58c0,.47-.6.84-1,1.06Zm-.41,9.27c-1.27,0-2.34-.91-2.34-1.71s1.23-1.61,3-1.61c.21,0,.44,0,.65,0-.1-1.12-.1-1.18-.1-1.33,0-.91.29-1.74,1.93-2.83a.25.25,0,0,0,.13-.17c0-.09-.13-.09-.18-.09a5.88,5.88,0,0,0-.9.17.62.62,0,0,1-.18,0,.48.48,0,0,1-.54-.46c0-.37.41-.79,1.87-.79,1,0,2.25.59,2.25,1.23a.71.71,0,0,1-.71.63,2.53,2.53,0,0,0-2.51,2.32,4.36,4.36,0,0,0,.07.68c0,.28.1.58.14.87.87.27,2.23.88,2.23,1.68a.69.69,0,0,1-.65.73A.81.81,0,0,1,554,399a4.59,4.59,0,0,0-1.07-.76A2.75,2.75,0,0,1,550.38,399.88Zm.39-2.24c-.82,0-1.52.28-1.52.53s.49.55,1,.55a1.39,1.39,0,0,0,1.43-1A4.31,4.31,0,0,0,550.77,397.64Z" transform="translate(-354.1 -343.6)"/><path class="cls-2" d="M562.36,398.3a2.62,2.62,0,0,1-1.66-.73,7.36,7.36,0,0,1-2.05-4.22c-.11-.53-.26-1.39-.26-1.5a.69.69,0,0,1,.7-.67.74.74,0,0,1,.7.66c.08.45.11.92.19,1.37.58,3.27,1.89,3.39,2,3.39s.26-.11.39-.45.23-.74.39-1.19a.55.55,0,0,1,.52-.39.75.75,0,0,1,.74.7s0,.07,0,.11c-.08.47-.36,1.38-.41,1.81A1.16,1.16,0,0,1,562.36,398.3Zm5.38-3.18a4.88,4.88,0,0,0-1.83-2.83.57.57,0,0,1-.24-.45.61.61,0,0,1,.63-.58.92.92,0,0,1,.59.24c.59.51,2.33,2.05,2.33,3.46a.77.77,0,0,1-.78.8A.7.7,0,0,1,567.74,395.12Z" transform="translate(-354.1 -343.6)"/></g></g><line id="線_6" data-name="線 6" class="cls-3" x1="44.63" y1="19.1" x2="190.63" y2="19.1"/><g id="Episode_6_CAREER_SUPPORT" data-name="Episode 6 CAREER SUPPORT" class="cls-1"><g class="cls-1"><path class="cls-2" d="M371.47,352.89c2.24,0,2.32-.06,2.57-.91a.73.73,0,0,1,.7-.55.75.75,0,0,1,.77.75,3.64,3.64,0,0,1-.28.91c-.28.72-.79,1.2-2.28,1.2h-2.79c-.67,0-1.3,0-1.82,0a.75.75,0,0,1-.84-.72.73.73,0,0,1,.77-.73h.14c.24,0,.31-.07.32-.28.07-.93.09-3.56.09-5.59v-1.49c0-.21-.06-.32-.37-.32s-.89-.07-.89-.71a.73.73,0,0,1,.78-.72h.06c.38,0,.85,0,1.37,0,1,0,2.23,0,3,0,1.72,0,1.93.63,2.23,1.68a1.24,1.24,0,0,1,0,.31.76.76,0,0,1-1.51.11c-.1-.5-.27-.7-1-.7H370.7c-.28,0-.37.06-.38.36,0,.64,0,1.62,0,2.55,0,.14.06.19.19.19.45,0,1.16,0,1.4,0s.28-.21.28-.45a.73.73,0,0,1,.73-.77.67.67,0,0,1,.69.72v.05c0,.33,0,.7,0,1.07s0,.87,0,1.17v.06a.68.68,0,0,1-.72.69.67.67,0,0,1-.7-.69V350c0-.05,0-.12,0-.18s-.05-.29-.3-.29l-1.4,0c-.17,0-.21.07-.21.23,0,1.27,0,2.44,0,2.76S370.39,352.89,371.47,352.89Z" transform="translate(-354.1 -343.6)"/><path class="cls-2" d="M376.76,357.83a.67.67,0,0,1-.06-1.33h.14c.36,0,.41-.16.41-.56s0-.74,0-1.15c0-1.7,0-3.85-.06-5.4,0-.32-.14-.49-.42-.49h-.07a.63.63,0,0,1-.64-.67c0-.55.36-.77,1-.77a1.3,1.3,0,0,1,1.36.79c0,.05.05.07.06.07s0,0,.08-.07a2.87,2.87,0,0,1,2.1-.88,3.31,3.31,0,0,1,3.39,3.52,3.35,3.35,0,0,1-3.39,3.51,2.91,2.91,0,0,1-2-.75.07.07,0,0,0-.07,0s0,0,0,.07c0,.88,0,1.64,0,2.3,0,.29,0,.47.57.47a.63.63,0,0,1,.63.67.68.68,0,0,1-.7.7Zm5.89-6.94a2,2,0,1,0-4,0,2,2,0,1,0,4,0Z" transform="translate(-354.1 -343.6)"/><path class="cls-2" d="M386.21,347.43c1,0,1.44.49,1.44,1.5V349c0,1.94-.06,3-.06,3.67a.25.25,0,0,0,.24.27.7.7,0,1,1,0,1.38h-2.05a.67.67,0,0,1-.79-.68.69.69,0,0,1,.74-.7H386c.18,0,.24,0,.24-.3,0-.64,0-1.49,0-2.46v-.7c0-.39,0-.55-.39-.55h-.14a.65.65,0,0,1-.65-.71.71.71,0,0,1,.69-.77Zm-.52-2.83a1,1,0,0,1,1-1,1,1,0,0,1,1,1,1,1,0,0,1-1,1A.93.93,0,0,1,385.69,344.6Z" transform="translate(-354.1 -343.6)"/><path class="cls-2" d="M394,348c0,.23,0,.43,0,.63a2.82,2.82,0,0,0,0,.4.61.61,0,0,1-.66.63.64.64,0,0,1-.7-.61v0c0-.49-.83-.49-.89-.49-.49,0-.75.28-.75.59a.77.77,0,0,0,.47.64c.38.2,1,.46,1.42.69a2.05,2.05,0,0,1-1,4,2.59,2.59,0,0,1-1.13-.22.27.27,0,0,0-.12,0,.17.17,0,0,0-.11,0,.77.77,0,0,1-.47.14.63.63,0,0,1-.7-.59v0c0-.19,0-.35,0-.49s0-.38,0-.62v0A.62.62,0,0,1,390,352a.65.65,0,0,1,.7.65.26.26,0,0,0,.13.23,1.44,1.44,0,0,0,.92.29c1,0,1-.59,1-.74,0-.39-.25-.71-1.94-1.47a1.91,1.91,0,0,1-1.26-1.74,2,2,0,0,1,2.12-1.87,2.23,2.23,0,0,1,.86.16.18.18,0,0,0,.1,0,.44.44,0,0,0,.18,0,.73.73,0,0,1,.39-.1.66.66,0,0,1,.72.64Z" transform="translate(-354.1 -343.6)"/><path class="cls-2" d="M395.4,350.87a3.53,3.53,0,1,1,7.05,0,3.53,3.53,0,1,1-7.05,0Zm5.63,0a2.11,2.11,0,1,0-4.21,0,2.11,2.11,0,1,0,4.21,0Z" transform="translate(-354.1 -343.6)"/><path class="cls-2" d="M408.68,343.76l.47,0c1.07,0,1.42.51,1.42,1.47v.12c0,1.21-.06,3.09-.06,4.77,0,.84,0,1.64,0,2.27,0,.32.15.49.43.49H411a.64.64,0,0,1,.65.68c0,.46-.24.76-1,.76a1.36,1.36,0,0,1-1.36-.79c0-.05,0-.07-.06-.07s0,0-.07.05a2.82,2.82,0,0,1-2.1.9,3.32,3.32,0,0,1-3.39-3.52,3.35,3.35,0,0,1,3.39-3.51,2.85,2.85,0,0,1,1.95.74h0s.07,0,.07-.07,0-1.26,0-2.13c0-.44,0-.71-.45-.71s-.84,0-.84-.69a.75.75,0,0,1,.77-.75Zm.45,7.11a2,2,0,1,0-2,2.22A2.05,2.05,0,0,0,409.13,350.87Z" transform="translate(-354.1 -343.6)"/><path class="cls-2" d="M415.87,354.45a3.32,3.32,0,0,1-3.34-3.53,3.4,3.4,0,0,1,3.31-3.62,2.83,2.83,0,0,1,3,2.48,1.21,1.21,0,0,1-1.33,1.22h-3.45c-.08,0-.11.12-.11.27a1.85,1.85,0,0,0,1.91,1.86,2.38,2.38,0,0,0,1.82-.85.62.62,0,0,1,.47-.23.77.77,0,0,1,.75.73.68.68,0,0,1-.21.49A3.55,3.55,0,0,1,415.87,354.45Zm1.54-4.91c0-.19-.29-1-1.55-1a1.83,1.83,0,0,0-1.75,1.22c0,.12.14.12,1.44.12h1.58A.29.29,0,0,0,417.41,349.54Z" transform="translate(-354.1 -343.6)"/><path class="cls-2" d="M427.68,354.46a3.45,3.45,0,0,1-3.55-3.6,7.46,7.46,0,0,1,1-3.35c.57-1.05,2.72-3.77,3.63-3.77a.88.88,0,0,1,.85.82.61.61,0,0,1-.31.51c-1.34.89-3,2.79-3,3.24,0,0,0,.07.07.07l.08,0A3.64,3.64,0,0,1,428,348a3.07,3.07,0,0,1,3.22,3.13A3.31,3.31,0,0,1,427.68,354.46Zm.05-5.23a2,2,0,0,0-2.14,2,1.87,1.87,0,0,0,2,1.86,2,2,0,0,0,2.11-1.93A1.89,1.89,0,0,0,427.73,349.23Z" transform="translate(-354.1 -343.6)"/><path class="cls-2" d="M451.94,354.46a5.13,5.13,0,0,1-5.35-5.31A5.31,5.31,0,0,1,452,343.6a5.21,5.21,0,0,1,2.37.54.7.7,0,0,1,.71-.44.71.71,0,0,1,.78.67v.05c0,.29,0,.61,0,.93s0,.75,0,1v.05a.72.72,0,0,1-.77.73.71.71,0,0,1-.75-.62c-.06-.51-.79-1.45-2.47-1.45a3.73,3.73,0,0,0-3.7,4,3.69,3.69,0,0,0,3.72,3.86,3.36,3.36,0,0,0,2.71-1.19.84.84,0,0,1,.66-.36,1,1,0,0,1,.93.88C456.2,353,454.47,354.46,451.94,354.46Z" transform="translate(-354.1 -343.6)"/><path class="cls-2" d="M464.2,352.89a.22.22,0,0,0,.21-.22s-.36-1.24-.53-1.74a.24.24,0,0,0-.22-.2h-3.21c-.18,0-.24.06-.3.24l-.47,1.64a.32.32,0,0,0,.32.28c.48,0,.84.24.84.71a.7.7,0,0,1-.77.7H460l-1.07,0-1.19,0h-.06a.71.71,0,0,1-.77-.71.7.7,0,0,1,.76-.7h.07c.22,0,.36-.24.42-.42.81-2.54,2.11-6.19,2.67-7.84a1.22,1.22,0,0,1,1.15-.93,1.33,1.33,0,0,1,1.22,1c.74,2.13,2.11,6,2.8,7.8,0,.13.22.42.45.42a.73.73,0,0,1,.82.71.71.71,0,0,1-.78.7h-.06l-1.07,0-1.2,0a.71.71,0,1,1-.05-1.41h.08Zm-1-3.5c.08,0,.12,0,.12-.07s-1-3.06-1.07-3.41-.16-.36-.23-.36-.15.14-.25.42c-.32.87-1.07,3.33-1.07,3.33s0,.06.14.09Z" transform="translate(-354.1 -343.6)"/><path class="cls-2" d="M475.14,354.28h-1.08a.66.66,0,0,1-.73-.64.67.67,0,0,1,.53-.66c.1,0,.25-.09.25-.2a.24.24,0,0,0,0-.08c-1.38-2.34-2-3.39-2.58-3.39a3,3,0,0,0-.41,0c-.43,0-.7,0-.7.31,0,.73,0,2.06,0,3,0,.21.16.29.45.3.55,0,.79.35.79.69a.72.72,0,0,1-.75.71h-.05l-1.05,0-1.17,0a.7.7,0,0,1-.82-.68.72.72,0,0,1,.8-.7h.05c.23,0,.27-.17.28-.34,0-.6,0-2,0-3.5s0-2.93,0-3.56c0-.22-.06-.33-.27-.33-.81,0-.87-.58-.87-.73a.7.7,0,0,1,.76-.72h.07l.9,0c.65,0,1.28,0,1.94,0,.34,0,.68,0,1,0,2.45.18,3.15,1.6,3.15,2.69a2.56,2.56,0,0,1-2,2.54c-.11,0-.21,0-.21.11a.14.14,0,0,0,.06.11,13.52,13.52,0,0,1,1.1,1.56c1.25,2,1.26,2,1.75,2.05a.71.71,0,0,1,.73.71.77.77,0,0,1-.84.75Zm-1-7.79c0-.69-.54-1.35-1.77-1.42h-1.5c-.43.05-.46.07-.46,1.08v1.67c0,.32.25.32,1.13.32.33,0,.68,0,.93,0A1.73,1.73,0,0,0,474.16,346.49Z" transform="translate(-354.1 -343.6)"/><path class="cls-2" d="M481.45,352.89c2.24,0,2.32-.06,2.58-.91a.71.71,0,0,1,.7-.55.76.76,0,0,1,.77.75,4.12,4.12,0,0,1-.28.91c-.28.72-.8,1.2-2.29,1.2h-2.78c-.68,0-1.31,0-1.83,0a.75.75,0,0,1-.84-.72.73.73,0,0,1,.78-.73h.13c.24,0,.31-.07.33-.28.07-.93.08-3.56.08-5.59v-1.49c0-.21-.05-.32-.36-.32s-.9-.07-.9-.71a.73.73,0,0,1,.78-.72h.06c.38,0,.86,0,1.37,0,1,0,2.23,0,3,0,1.73,0,1.94.63,2.23,1.68a1.3,1.3,0,0,1,.06.31.77.77,0,0,1-1.52.11c-.09-.5-.26-.7-1-.7h-1.85c-.28,0-.37.06-.38.36,0,.64,0,1.62,0,2.55,0,.14.07.19.19.19.45,0,1.17,0,1.4,0s.29-.21.29-.45a.71.71,0,0,1,.72-.77.67.67,0,0,1,.69.72v.05c0,.33,0,.7,0,1.07s0,.87,0,1.17v.06a.68.68,0,0,1-.71.69.67.67,0,0,1-.7-.69V350c0-.05,0-.12,0-.18s0-.29-.3-.29l-1.4,0c-.16,0-.21.07-.21.23,0,1.27,0,2.44,0,2.76S480.37,352.89,481.45,352.89Z" transform="translate(-354.1 -343.6)"/><path class="cls-2" d="M490,352.89c2.25,0,2.33-.06,2.58-.91a.72.72,0,0,1,.7-.55.75.75,0,0,1,.77.75,4.12,4.12,0,0,1-.28.91c-.28.72-.8,1.2-2.28,1.2h-2.79c-.67,0-1.3,0-1.82,0a.75.75,0,0,1-.84-.72.73.73,0,0,1,.77-.73h.14c.24,0,.31-.07.32-.28.07-.93.09-3.56.09-5.59v-1.49c0-.21-.06-.32-.37-.32s-.89-.07-.89-.71a.73.73,0,0,1,.78-.72h.06c.37,0,.85,0,1.37,0,1,0,2.23,0,3,0,1.72,0,1.93.63,2.23,1.68a2,2,0,0,1,0,.31.76.76,0,0,1-1.51.11c-.1-.5-.27-.7-1-.7H489.2c-.28,0-.36.06-.37.36,0,.64,0,1.62-.05,2.55,0,.14.07.19.2.19.45,0,1.16,0,1.4,0s.28-.21.28-.45a.73.73,0,0,1,.73-.77.67.67,0,0,1,.69.72v.05c0,.33,0,.7,0,1.07s0,.87,0,1.17v.06a.68.68,0,0,1-.72.69.67.67,0,0,1-.7-.69V350c0-.05,0-.12,0-.18s-.05-.29-.3-.29l-1.4,0c-.17,0-.21.07-.21.23,0,1.27,0,2.44,0,2.76S488.9,352.89,490,352.89Z" transform="translate(-354.1 -343.6)"/><path class="cls-2" d="M502,354.28H500.9a.66.66,0,0,1-.73-.64.67.67,0,0,1,.53-.66c.1,0,.25-.09.25-.2a.13.13,0,0,0,0-.08c-1.37-2.34-2-3.39-2.57-3.39a3,3,0,0,0-.41,0c-.43,0-.7,0-.7.31,0,.73,0,2.06,0,3,0,.21.16.29.45.3.55,0,.78.35.78.69a.72.72,0,0,1-.74.71h0l-1.05,0-1.17,0a.7.7,0,0,1-.82-.68.71.71,0,0,1,.79-.7h.06c.23,0,.27-.17.28-.34,0-.6,0-2,0-3.5s0-2.93,0-3.56c0-.22-.05-.33-.26-.33-.81,0-.87-.58-.87-.73a.7.7,0,0,1,.76-.72h.07l.89,0c.66,0,1.29,0,1.95,0,.34,0,.67,0,1,0,2.45.18,3.15,1.6,3.15,2.69a2.56,2.56,0,0,1-2,2.54c-.11,0-.21,0-.21.11a.15.15,0,0,0,.05.11,12.51,12.51,0,0,1,1.11,1.56c1.25,2,1.26,2,1.75,2.05a.72.72,0,0,1,.73.71.77.77,0,0,1-.84.75Zm-1-7.79c0-.69-.53-1.35-1.76-1.42h-1.5c-.43.05-.46.07-.46,1.08v1.67c0,.32.25.32,1.13.32.32,0,.67,0,.93,0A1.73,1.73,0,0,0,501,346.49Z" transform="translate(-354.1 -343.6)"/><path class="cls-2" d="M512.19,354.46a4.32,4.32,0,0,1-1.92-.42.21.21,0,0,0-.12,0,.18.18,0,0,0-.14.09.77.77,0,0,1-.62.29.69.69,0,0,1-.74-.69v-.06c0-.24,0-.53,0-.82s0-.76,0-1.05v0a.76.76,0,0,1,1.5,0v.12c0,.79,1.19,1.17,2,1.17,1.43,0,1.94-.91,1.94-1.54a1.88,1.88,0,0,0-1.08-1.58c-.62-.35-1.4-.79-2.14-1.12a2.66,2.66,0,0,1,1.23-5.16,3.69,3.69,0,0,1,1.55.34h.1a.2.2,0,0,0,.13,0,.82.82,0,0,1,.6-.22c.38,0,.76.19.76.59v0q0,.39,0,.81c0,.32,0,.63,0,.88,0,.53-.51.67-.76.67a.67.67,0,0,1-.74-.61V346c0-.05,0-.11,0-.15,0-.41-.64-.88-1.67-.88a1.32,1.32,0,0,0-1.48,1.21,1.49,1.49,0,0,0,.91,1.28c.59.31,1.54.74,2.2,1.09a3.32,3.32,0,0,1,2,2.86A3.28,3.28,0,0,1,512.19,354.46Z" transform="translate(-354.1 -343.6)"/><path class="cls-2" d="M524.09,345.21a.78.78,0,0,1-.84-.77.71.71,0,0,1,.77-.7h.07c.3,0,.66,0,1,0s.94,0,1.32,0h0a.75.75,0,0,1,.83.75.74.74,0,0,1-.8.72h-.19c-.13,0-.2,0-.2.24,0,.63,0,1.2,0,1.75,0,.9,0,1.75,0,2.76a4.17,4.17,0,0,1-4.24,4.51,4.1,4.1,0,0,1-4.18-4.38V350c0-1,0-2.1,0-3.15,0-.47,0-1,0-1.41,0-.14,0-.24-.18-.24h-.2a.74.74,0,0,1-.84-.74.73.73,0,0,1,.77-.73h.07c.3,0,.66,0,1,0s.94,0,1.32,0h0a.74.74,0,0,1,.81.75.73.73,0,0,1-.78.72h-.31c-.18,0-.21.07-.21.27v.67c0,1.08,0,2.14,0,3.23v.73a2.58,2.58,0,0,0,2.58,2.83,2.75,2.75,0,0,0,2.72-2.94c0-1.22,0-2.41,0-3.6v-.9c0-.22,0-.28-.25-.28Z" transform="translate(-354.1 -343.6)"/><path class="cls-2" d="M531.09,352.85a.72.72,0,0,1,.8.71.74.74,0,0,1-.76.74h0l-1.11,0-1.22,0a.71.71,0,0,1-.84-.7.74.74,0,0,1,.81-.71h.06c.22,0,.28-.17.29-.34,0-.6,0-2,0-3.5s0-2.91,0-3.54c0-.23-.06-.34-.28-.34-.73,0-.88-.43-.88-.73a.7.7,0,0,1,.75-.7h.09a6.14,6.14,0,0,0,.66,0l2.49,0h.73a3.1,3.1,0,0,1,3.22,3.07,3.27,3.27,0,0,1-3,3.25c-.32,0-.63.06-1,.06a6.08,6.08,0,0,1-1.1-.1l-.14,0c-.07,0-.08.06-.08.21,0,.69,0,1.56.06,2.34,0,.21.11.28.29.31Zm.51-7.75c-.93,0-1,.06-1,.49s0,.82,0,1.33v1.43c0,.24.14.41,1.26.41.26,0,.53,0,.79,0a2,2,0,0,0,1.74-2c0-.82-.54-1.59-1.85-1.59Z" transform="translate(-354.1 -343.6)"/><path class="cls-2" d="M540.09,352.85a.72.72,0,0,1,.8.71.73.73,0,0,1-.75.74h-.06l-1.11,0-1.22,0a.71.71,0,0,1-.84-.7.74.74,0,0,1,.82-.71h0c.23,0,.28-.17.3-.34,0-.6,0-2,0-3.5s0-2.91,0-3.54c0-.23-.06-.34-.28-.34-.73,0-.88-.43-.88-.73a.7.7,0,0,1,.75-.7h.09a6.24,6.24,0,0,0,.66,0l2.49,0h.73a3.1,3.1,0,0,1,3.22,3.07,3.27,3.27,0,0,1-3,3.25c-.32,0-.63.06-1,.06a5.89,5.89,0,0,1-1.09-.1l-.15,0c-.07,0-.08.06-.08.21,0,.69,0,1.56.06,2.34,0,.21.11.28.29.31Zm.51-7.75c-.93,0-1,.06-1,.49s0,.82,0,1.33v1.43c0,.24.14.41,1.26.41.26,0,.53,0,.8,0a2,2,0,0,0,1.73-2c0-.82-.54-1.59-1.85-1.59Z" transform="translate(-354.1 -343.6)"/><path class="cls-2" d="M546.36,349a5.4,5.4,0,1,1,10.8,0,5.4,5.4,0,1,1-10.8,0Zm9.18,0a3.79,3.79,0,1,0-3.78,4A3.77,3.77,0,0,0,555.54,349Z" transform="translate(-354.1 -343.6)"/><path class="cls-2" d="M565.53,354.28h-1.08a.65.65,0,0,1-.72-.64.67.67,0,0,1,.53-.66c.1,0,.25-.09.25-.2a.13.13,0,0,0,0-.08c-1.37-2.34-2-3.39-2.57-3.39a3,3,0,0,0-.41,0c-.44,0-.7,0-.7.31,0,.73,0,2.06,0,3,0,.21.15.29.45.3.55,0,.78.35.78.69a.72.72,0,0,1-.74.71h-.06l-1,0-1.16,0a.7.7,0,0,1-.82-.68.71.71,0,0,1,.79-.7h.06c.22,0,.27-.17.28-.34,0-.6,0-2,0-3.5s0-2.93,0-3.56c0-.22,0-.33-.26-.33-.82,0-.87-.58-.87-.73a.7.7,0,0,1,.76-.72h.07l.89,0c.66,0,1.29,0,1.95,0,.34,0,.67,0,1,0,2.45.18,3.15,1.6,3.15,2.69a2.56,2.56,0,0,1-2,2.54c-.12,0-.21,0-.21.11a.15.15,0,0,0,0,.11,12.51,12.51,0,0,1,1.11,1.56c1.25,2,1.26,2,1.75,2.05a.72.72,0,0,1,.73.71.77.77,0,0,1-.84.75Zm-1-7.79c0-.69-.53-1.35-1.76-1.42h-1.5c-.44.05-.46.07-.46,1.08v1.67c0,.32.25.32,1.13.32.32,0,.67,0,.93,0A1.73,1.73,0,0,0,564.55,346.49Z" transform="translate(-354.1 -343.6)"/><path class="cls-2" d="M570.43,345.13c-1.2,0-1.26,0-1.44.63,0,.13-.07.28-.13.45a.75.75,0,0,1-.74.57.73.73,0,0,1-.76-.73,1.27,1.27,0,0,1,.07-.36c.45-1.34.69-2,2.17-2h.27c.43,0,1.15,0,1.92,0,.94,0,2,0,2.59,0h.14c1.11,0,1.7.32,2,1.13.08.23.24.55.34.84a1,1,0,0,1,0,.33.77.77,0,0,1-1.51.18,3,3,0,0,0-.13-.42c-.21-.65-.35-.66-1.09-.66-1.15,0-1.16,0-1.16.31,0,1,0,2.53,0,4,0,1.08,0,2.14,0,3,0,.31.14.33.4.33a.75.75,0,0,1,.81.75.73.73,0,0,1-.77.74h-.06l-1.13,0-1.23,0a.73.73,0,0,1-.82-.74.72.72,0,0,1,.76-.75H571c.25,0,.39,0,.39-.31,0-1.14,0-2.85,0-4.57,0-.85,0-1.71,0-2.49C571.4,345.13,571.4,345.13,570.43,345.13Z" transform="translate(-354.1 -343.6)"/></g></g></g></svg>