<svg id="レイヤー_1" data-name="レイヤー 1" xmlns="http://www.w3.org/2000/svg" viewBox="0 0 146 56.61"><defs><style>.cls-1{isolation:isolate;}.cls-2{fill:#040000;}.cls-3{fill:none;stroke:#121212;}</style></defs><g id="僕たちができることは_" data-name="僕たちができることは " class="cls-1"><g class="cls-1"><path class="cls-2" d="M598,399.58l.17-7.22c-1,1.22-1.25,1.29-1.54,1.29a.66.66,0,0,1-.66-.62.64.64,0,0,1,.24-.49,13.15,13.15,0,0,0,3.14-4.38.57.57,0,0,1,.54-.37.79.79,0,0,1,.8.73.62.62,0,0,1-.08.31c-.35.59-.72,1.16-1.09,1.72l-.17,9a.67.67,0,0,1-.7.64.62.62,0,0,1-.65-.62Zm7.18-2.61a5.79,5.79,0,0,0,3.13,1.79.54.54,0,0,1,.42.56.69.69,0,0,1-.71.7,5.65,5.65,0,0,1-3.64-2.38,5,5,0,0,1-3.92,2.44.68.68,0,0,1-.71-.65.62.62,0,0,1,.62-.6c1.78-.23,2.62-1,3-1.86h-2.75a.51.51,0,1,1,0-1h3c0-.17,0-.32,0-.49v-.19h-2.27a.47.47,0,0,1-.53-.46.49.49,0,0,1,.53-.48l2.27,0v-.69l-2.61,0a.5.5,0,0,1-.53-.51.5.5,0,0,1,.53-.5h1.45a3.5,3.5,0,0,0-.31-.58.34.34,0,0,1-.07-.22.43.43,0,0,1,.35-.37l-1.5,0a.55.55,0,0,1-.59-.55.54.54,0,0,1,.59-.54h1.9v-2.11a.55.55,0,0,1,.59-.55.56.56,0,0,1,.6.55v2.11h.53v-2.11a.56.56,0,0,1,.61-.55.57.57,0,0,1,.63.55l0,2.11h2.08a.53.53,0,0,1,.58.54.54.54,0,0,1-.58.55l-1.87,0a.6.6,0,0,1,.41.51.29.29,0,0,1,0,.15q-.09.24-.21.51h1.47a.51.51,0,0,1,.55.5.52.52,0,0,1-.55.51l-2.66,0,0,.69,2.15,0h0a.47.47,0,0,1,.53.46.49.49,0,0,1-.54.48h-2.16v.26a3,3,0,0,1,0,.42h3.17a.51.51,0,1,1,0,1Zm-3.28-6.73a.45.45,0,0,1-.42-.26,4.5,4.5,0,0,0-.62-.87.35.35,0,0,1-.08-.24c0-.28.35-.5.67-.5.5,0,1.12.91,1.12,1.21A.71.71,0,0,1,601.86,390.24Zm1.16,1.3a1.9,1.9,0,0,1,.74,1.11v.06h1.08a3.76,3.76,0,0,0,.28-.88.42.42,0,0,1,.18-.29Zm3.54-1.27c-.29,0-.6-.21-.6-.48a.46.46,0,0,1,.16-.33,6.78,6.78,0,0,0,.74-1,.42.42,0,0,1,.38-.21c.33,0,.77.32.77.66s-.13.34-1,1.23A.59.59,0,0,1,606.56,390.27Z" transform="translate(-586.72 -343.6)"/><path class="cls-2" d="M615.16,391.57a67,67,0,0,1-3.25,7.36.72.72,0,0,1-.67.39.67.67,0,0,1-.73-.6.81.81,0,0,1,.11-.4,44,44,0,0,0,3-6.33l-.16.05a4.53,4.53,0,0,1-1.19.18c-.14,0-1.23,0-1.23-.76a.66.66,0,0,1,.62-.71.82.82,0,0,1,.42.11.83.83,0,0,0,.36.08,6.07,6.07,0,0,0,1.64-.39,5.29,5.29,0,0,0,.1-1.12.71.71,0,0,1,.77-.66.6.6,0,0,1,.66.51,1.69,1.69,0,0,1,0,.23,2.53,2.53,0,0,1,0,.27.84.84,0,0,1,.18,0,.66.66,0,0,1,.66.65c0,.36-.25.61-1.29,1.07Zm4.27,7.89c-2.3,0-3.81-1.22-3.81-1.93a.74.74,0,0,1,.69-.75.69.69,0,0,1,.54.31c.53.72,1,.81,2.82.94a.69.69,0,0,1,.71.7C620.38,399.46,619.65,399.46,619.43,399.46Zm.81-5.27a7.94,7.94,0,0,0-2.48-.64,1.74,1.74,0,0,0-.47.05l-.16,0a.55.55,0,0,1-.53-.57c0-.23.07-.74,1.32-.74a8,8,0,0,1,2.84.63.64.64,0,0,1,.45.61.69.69,0,0,1-.67.69A.8.8,0,0,1,620.24,394.19Z" transform="translate(-586.72 -343.6)"/><path class="cls-2" d="M627.14,390a1.13,1.13,0,0,1,.69-.28.57.57,0,0,1,.6.57c0,.44-.43.89-1.71,1.57-.18,1.26-.47,2.92-.49,3.76a5.3,5.3,0,0,1,3.56-1.88c1,0,2.56.56,2.56,2a3.34,3.34,0,0,1-1,2.21,7.36,7.36,0,0,1-4.16,2,.71.71,0,0,1-.79-.67.69.69,0,0,1,.65-.66c2.88-.42,3.88-2.1,3.88-2.77s-.74-.93-1.28-.93a4.74,4.74,0,0,0-3.22,2.2c-.18.3-.15.48-.53.63a.83.83,0,0,1-.29.06.68.68,0,0,1-.72-.71c0-.4.13-1.74.52-4.75a3.66,3.66,0,0,1-.84.11c-.41,0-1.4-.08-1.4-.77a.65.65,0,0,1,.66-.66.82.82,0,0,1,.36.07,1.32,1.32,0,0,0,.42.07,2.4,2.4,0,0,0,1-.24c.25-2.08.33-2.56,1-2.56a.61.61,0,0,1,.66.59,10.28,10.28,0,0,1-.25,1.13Z" transform="translate(-586.72 -343.6)"/><path class="cls-2" d="M637.38,393.52a8.19,8.19,0,0,1-1.59.27.61.61,0,0,1-.66-.63.68.68,0,0,1,.7-.7,10.33,10.33,0,0,0,2.32-.33,6,6,0,0,0,.68-2.14.59.59,0,0,1,.63-.5.7.7,0,0,1,.76.64,4.75,4.75,0,0,1-.51,1.7h.12c1.59,0,1.63,1.72,1.63,2.36,0,1.25-.05,4.75-2.64,4.75-.8,0-1.84-.36-1.84-1a.75.75,0,0,1,.73-.72.59.59,0,0,1,.29.07,1.94,1.94,0,0,0,.79.21c.91,0,1.33-1,1.33-3.44,0-.57-.08-1-.53-1a.77.77,0,0,0-.25,0l-.23.05c-1.05,2-2.52,4.28-3.42,5.8a.81.81,0,0,1-.72.41.66.66,0,0,1-.72-.6.83.83,0,0,1,.17-.49c.62-.94,2.07-3,3.07-4.74Zm7.75,1.93a4.39,4.39,0,0,0-2.4-2.22.51.51,0,0,1-.38-.48.65.65,0,0,1,.67-.62c.71,0,3.46,1.74,3.46,3a.74.74,0,0,1-.74.74A.66.66,0,0,1,645.13,395.45Zm-.39-3.7a4.65,4.65,0,0,0-1.17-.77.44.44,0,0,1-.35-.42.55.55,0,0,1,.57-.51c.07,0,1.84.5,1.84,1.24a.61.61,0,0,1-.55.62A.44.44,0,0,1,644.74,391.75Zm1.21-1.28a4.9,4.9,0,0,0-1.19-.72.44.44,0,0,1-.37-.43.57.57,0,0,1,.58-.53,4.17,4.17,0,0,1,1.64.74.63.63,0,0,1-.34,1.09A.5.5,0,0,1,646,390.47Z" transform="translate(-586.72 -343.6)"/><path class="cls-2" d="M656.05,399.38h-.14c-3-.29-4.95-2.39-4.95-4.54a4,4,0,0,1,1-2.57.22.22,0,0,0,.07-.12s0,0,0,0a.6.6,0,0,0-.14.05c-2.2,1.14-2.47,1.22-2.78,1.22a.79.79,0,0,1-.85-.75.8.8,0,0,1,.64-.73c.3-.1,1.09-.34,1.51-.49.66-.24,1.83-.6,3.21-1.15a10.63,10.63,0,0,1,3.71-.87c.7,0,1,.32,1,.69,0,.71-.59.87-1.12.87a1.94,1.94,0,0,1-.33,0h-.33c-2.17,0-4.3,1.85-4.3,3.72,0,1.69,1.59,3.11,3.79,3.11.7,0,1,.41,1,.83S656.7,399.38,656.05,399.38Zm1.21-4.92a5.44,5.44,0,0,0-1.19-.87.48.48,0,0,1-.35-.43.59.59,0,0,1,.61-.55c.19,0,1.89.64,1.89,1.37a.66.66,0,0,1-.6.66A.5.5,0,0,1,657.26,394.46Zm1.61-1.16a4.87,4.87,0,0,0-1.22-.83.49.49,0,0,1-.36-.43.6.6,0,0,1,.61-.57c.23,0,1.91.61,1.91,1.34a.64.64,0,0,1-.59.65A.51.51,0,0,1,658.87,393.3Z" transform="translate(-586.72 -343.6)"/><path class="cls-2" d="M668.16,394.68a13.7,13.7,0,0,0,.52,1.29,2,2,0,0,1,.18.72.72.72,0,0,1-.78.78,2.09,2.09,0,0,1-.63-.11A9.46,9.46,0,0,0,665,397c-1,0-1.68.39-1.68.76s.62.92,2.19.92a4.61,4.61,0,0,0,.68,0,.52.52,0,0,1,.17,0,.65.65,0,0,1,.73.64c0,.61-.59.79-1,.79-2.22,0-4.07-1-4.07-2.21,0-.52.5-1.95,3.19-1.95.58,0,1.11.05,1.52.07l.26,0c.15,0,.3,0,.3-.21a6.8,6.8,0,0,0-.31-1.07,7.07,7.07,0,0,1-.91.06c-.27,0-2.94,0-2.94-1.58a1.34,1.34,0,0,1,.54-1.05.28.28,0,0,0,.14-.23c0-.28-.84-.75-1.53-.9-.46-.08-.67-.36-.67-.63a.67.67,0,0,1,.73-.6c.88,0,3,1.26,3,2.1,0,.34-.28.58-.61.75s-.36.25-.36.36.8.52,1.61.52a5.27,5.27,0,0,0,.56,0,20.6,20.6,0,0,0-2-4.26.74.74,0,0,1-.14-.41c0-.35.35-.56.72-.56a.84.84,0,0,1,.77.48,40.89,40.89,0,0,1,1.79,4.45l.67-.22a.88.88,0,0,1,.27,0,.59.59,0,0,1,.59.64c0,.55-.4.7-1.1.92Z" transform="translate(-586.72 -343.6)"/><path class="cls-2" d="M678.69,395.83c0-1.47-1.78-1.47-1.9-1.47a4.59,4.59,0,0,0-3.35,1.86.69.69,0,0,1-.56.28.72.72,0,0,1-.74-.67.79.79,0,0,1,.28-.57,37.59,37.59,0,0,0,4.06-4.64,0,0,0,0,0,0,0l-.1,0a7.26,7.26,0,0,1-2.8,1,.69.69,0,0,1-.73-.69.6.6,0,0,1,.59-.61,13.29,13.29,0,0,0,3.54-1,1.2,1.2,0,0,1,.51-.11.88.88,0,0,1,.92.83,1,1,0,0,1-.32.68c-1,.91-2,2.11-2.92,3.09a3.64,3.64,0,0,1,2-.56,2.7,2.7,0,0,1,3,2.46c0,1.88-1.93,3.67-4.35,3.67-1.68,0-2.57-1-2.57-1.79a1.44,1.44,0,0,1,1.57-1.32,2,2,0,0,1,2.19,1.75A2.75,2.75,0,0,0,678.69,395.83Zm-3.82,1.5c-.48,0-.49.31-.49.36,0,.55,1,.62,1.3.62h.1C675.74,397.71,675.43,397.33,674.87,397.33Z" transform="translate(-586.72 -343.6)"/><path class="cls-2" d="M687.48,399.4c-2.9,0-4.45-1.34-4.45-2.14a.76.76,0,0,1,.73-.76.87.87,0,0,1,.63.35,3.27,3.27,0,0,0,2.66,1.07,9.57,9.57,0,0,0,2.38-.35,1.22,1.22,0,0,1,.32,0,.7.7,0,0,1,.76.71.94.94,0,0,1-.79.88A9.1,9.1,0,0,1,687.48,399.4Zm1-7.28a8.75,8.75,0,0,1-3.8-.9.78.78,0,0,1-.46-.71.61.61,0,0,1,.63-.65,1.08,1.08,0,0,1,.4.09,9.31,9.31,0,0,0,3.38.73.71.71,0,0,1,.73.71C689.39,391.75,689.11,392.12,688.51,392.12Z" transform="translate(-586.72 -343.6)"/><path class="cls-2" d="M696.19,394c-.6-.32-.73-.78-.73-1.57,0-.22,0-.48,0-.76,0-.64,0-1.14,0-1.56a6.48,6.48,0,0,0-.1-1.35,1.15,1.15,0,0,1,0-.18.6.6,0,0,1,.64-.62c.86,0,.9.82.9,1.75,0,.4,0,.89-.08,1.59,0,.43-.07.78-.07,1.06,0,.87.57.95,1,.95.21,0,.24-.11.41-.16a.59.59,0,0,1,.22-.05.7.7,0,0,1,.7.68.89.89,0,0,1-.52.72c-.47.3-1.59.78-2.24,1.12-1.06.59-1.54,1.2-1.54,1.71s.62,1.17,2.06,1.17a4,4,0,0,0,2-.45,1.15,1.15,0,0,1,.66-.23.75.75,0,0,1,.79.72c0,.87-1.63,1.36-3.08,1.36-2.53,0-3.67-1.21-3.67-2.41,0-1,.77-2.16,2.47-3.11l.48-.27A.79.79,0,0,1,696.19,394Z" transform="translate(-586.72 -343.6)"/><path class="cls-2" d="M704.39,399.47a.74.74,0,0,1-.68-.6,10.17,10.17,0,0,1-.42-3.05,15.41,15.41,0,0,1,.09-1.82c.17-1.57.5-3,.59-3.83a.65.65,0,0,1,.65-.66.72.72,0,0,1,.73.69s0,.07,0,.11c-.1.6-.35,1.59-.54,2.61a13.38,13.38,0,0,0-.31,2.41c0,.52.08.63.11.63s.11-.09.2-.25c.39-.86.61-1,.84-1a.61.61,0,0,1,.58.59.48.48,0,0,1-.07.26,8.58,8.58,0,0,0-1.1,2.76c0,.17,0,.34,0,.5A.68.68,0,0,1,704.39,399.47Zm4.56,0a2.09,2.09,0,0,1-2.18-1.76c0-1.06,1.31-1.49,2.6-1.49a6.54,6.54,0,0,1,1.3.14c0-.13,0-.26,0-.4a7.54,7.54,0,0,0,0-.78c-.06-.6-.13-1.64-.17-2.73a5.25,5.25,0,0,0-2.52,1,.67.67,0,0,1-.45.2.68.68,0,0,1-.64-.68c0-.3.19-1,3.58-1.78,0-.58,0-1.14,0-1.59a.59.59,0,0,1,.64-.58.61.61,0,0,1,.66.55v.07c0,.39-.08.84-.1,1.3l.76-.12a.58.58,0,0,1,.18,0,.64.64,0,0,1,.71.61c0,.29-.23.6-.75.67l-.91.12c0,1,.05,2.06.12,2.8a13.65,13.65,0,0,1,.12,1.56v.15a6,6,0,0,1,1.61,1,.79.79,0,0,1,.26.58.75.75,0,0,1-.71.78.69.69,0,0,1-.51-.25,4.44,4.44,0,0,0-1-.81A3.23,3.23,0,0,1,709,399.45Zm.19-2.18c-1.09,0-1.15.35-1.15.48s.18.52.8.52a2.05,2.05,0,0,0,1.56-.81A4.35,4.35,0,0,0,709.14,397.27Z" transform="translate(-586.72 -343.6)"/><path class="cls-2" d="M718.24,396c0-1.78,1.84-2.59,2.34-3.51a2.43,2.43,0,0,0,.31-1.15,1.56,1.56,0,0,0-1.6-1.7,1.78,1.78,0,0,0-1.69,1.3.79.79,0,0,1-1.49-.25,3.09,3.09,0,0,1,3.17-2.45,3,3,0,0,1,3.08,3.07,3.92,3.92,0,0,1-.28,1.4c-.51,1.26-2.34,2-2.34,3.25a.78.78,0,0,1-.78.81A.71.71,0,0,1,718.24,396Zm.76,3.67a1,1,0,0,1-1-.92,1,1,0,0,1,1-1,.91.91,0,0,1,1,1A.92.92,0,0,1,719,399.71Z" transform="translate(-586.72 -343.6)"/></g></g><line id="線_3" data-name="線 3" class="cls-3" y1="19.1" x2="146" y2="19.1"/><g id="Episode_2_WEB" data-name="Episode 2 WEB" class="cls-1"><g class="cls-1"><path class="cls-2" d="M608.21,352.89c2.25,0,2.33-.06,2.58-.91a.72.72,0,0,1,.7-.55.75.75,0,0,1,.77.75,4.12,4.12,0,0,1-.28.91c-.28.72-.8,1.2-2.28,1.2h-2.79c-.67,0-1.3,0-1.82,0a.75.75,0,0,1-.84-.72.73.73,0,0,1,.77-.73h.14c.24,0,.31-.07.32-.28.07-.93.09-3.56.09-5.59v-1.49c0-.21-.06-.32-.37-.32s-.89-.07-.89-.71a.73.73,0,0,1,.78-.72h.06c.37,0,.85,0,1.37,0,1,0,2.23,0,3,0,1.72,0,1.93.63,2.23,1.68a2,2,0,0,1,0,.31.76.76,0,0,1-1.51.11c-.1-.5-.27-.7-1-.7h-1.85c-.28,0-.36.06-.37.36,0,.64,0,1.62-.05,2.55,0,.14.07.19.2.19.45,0,1.16,0,1.4,0s.28-.21.28-.45a.73.73,0,0,1,.73-.77.67.67,0,0,1,.69.72v.05c0,.33,0,.7,0,1.07s0,.87,0,1.17v.06a.68.68,0,0,1-.72.69.67.67,0,0,1-.7-.69V350c0-.05,0-.12,0-.18s0-.29-.29-.29l-1.4,0c-.17,0-.21.07-.21.23,0,1.27,0,2.44,0,2.76S607.14,352.89,608.21,352.89Z" transform="translate(-586.72 -343.6)"/><path class="cls-2" d="M613.5,357.83a.67.67,0,0,1,0-1.33h.14c.36,0,.4-.16.4-.56s0-.74,0-1.15c0-1.7,0-3.85-.06-5.4,0-.32-.14-.49-.42-.49h-.07a.63.63,0,0,1-.64-.67c0-.55.36-.77,1-.77a1.31,1.31,0,0,1,1.36.79c0,.05,0,.07.06.07s0,0,.08-.07a2.87,2.87,0,0,1,2.1-.88,3.32,3.32,0,0,1,3.39,3.52,3.35,3.35,0,0,1-3.39,3.51,2.91,2.91,0,0,1-2-.75.09.09,0,0,0-.07,0s0,0,0,.07c0,.88,0,1.64,0,2.3,0,.29,0,.47.57.47a.63.63,0,0,1,.63.67.68.68,0,0,1-.7.7Zm5.9-6.94a2,2,0,1,0-2,2.24A2,2,0,0,0,619.4,350.89Z" transform="translate(-586.72 -343.6)"/><path class="cls-2" d="M623,347.43c1,0,1.45.49,1.45,1.5V349c0,1.94-.06,3-.06,3.67a.24.24,0,0,0,.24.27.7.7,0,1,1,0,1.38h-2.05a.68.68,0,0,1-.8-.68.7.7,0,0,1,.75-.7h.22c.18,0,.24,0,.24-.3,0-.64,0-1.49,0-2.46v-.7c0-.39,0-.55-.4-.55h-.14a.65.65,0,0,1-.64-.71.7.7,0,0,1,.69-.77Zm-.51-2.83a.94.94,0,0,1,1-1,1,1,0,0,1,1,1,1,1,0,0,1-1,1A.93.93,0,0,1,622.44,344.6Z" transform="translate(-586.72 -343.6)"/><path class="cls-2" d="M630.75,348c0,.23,0,.43,0,.63s0,.26,0,.4a.6.6,0,0,1-.65.63.64.64,0,0,1-.7-.61v0c0-.49-.83-.49-.89-.49-.49,0-.75.28-.75.59a.77.77,0,0,0,.47.64c.38.2,1,.46,1.42.69a2.05,2.05,0,0,1-1,4,2.67,2.67,0,0,1-1.14-.22.23.23,0,0,0-.11,0,.17.17,0,0,0-.11,0,.8.8,0,0,1-.48.14.63.63,0,0,1-.7-.59v0a4.44,4.44,0,0,0,0-.49c0-.2,0-.38,0-.62v0a.63.63,0,0,1,.69-.61.65.65,0,0,1,.7.65.26.26,0,0,0,.13.23,1.42,1.42,0,0,0,.92.29c1,0,1.05-.59,1.05-.74,0-.39-.25-.71-2-1.47a1.92,1.92,0,0,1-1.26-1.74,2,2,0,0,1,2.13-1.87,2.23,2.23,0,0,1,.86.16.18.18,0,0,0,.1,0,.44.44,0,0,0,.18,0,.73.73,0,0,1,.39-.1.65.65,0,0,1,.71.64Z" transform="translate(-586.72 -343.6)"/><path class="cls-2" d="M632.15,350.87a3.53,3.53,0,1,1,7.05,0,3.53,3.53,0,1,1-7.05,0Zm5.63,0a2.11,2.11,0,1,0-4.21,0,2.11,2.11,0,1,0,4.21,0Z" transform="translate(-586.72 -343.6)"/><path class="cls-2" d="M645.43,343.76l.47,0c1.07,0,1.42.51,1.42,1.47v.12c0,1.21-.06,3.09-.06,4.77,0,.84,0,1.64,0,2.27,0,.32.15.49.43.49h.07a.63.63,0,0,1,.64.68c0,.46-.23.76-1,.76a1.36,1.36,0,0,1-1.36-.79c0-.05,0-.07-.06-.07s0,0-.07.05a2.82,2.82,0,0,1-2.1.9,3.32,3.32,0,0,1-3.39-3.52,3.35,3.35,0,0,1,3.39-3.51,2.87,2.87,0,0,1,1.95.74h0s.07,0,.07-.07,0-1.26,0-2.13c0-.44,0-.71-.45-.71s-.84,0-.84-.69a.75.75,0,0,1,.77-.75Zm.45,7.11a2,2,0,1,0-2,2.22A2.05,2.05,0,0,0,645.88,350.87Z" transform="translate(-586.72 -343.6)"/><path class="cls-2" d="M652.62,354.45a3.32,3.32,0,0,1-3.35-3.53,3.41,3.41,0,0,1,3.32-3.62,2.83,2.83,0,0,1,3,2.48,1.21,1.21,0,0,1-1.33,1.22h-3.45c-.08,0-.11.12-.11.27a1.84,1.84,0,0,0,1.9,1.86,2.38,2.38,0,0,0,1.83-.85.61.61,0,0,1,.47-.23.76.76,0,0,1,.74.73.64.64,0,0,1-.21.49A3.51,3.51,0,0,1,652.62,354.45Zm1.54-4.91c0-.19-.29-1-1.55-1a1.83,1.83,0,0,0-1.75,1.22c0,.12.14.12,1.44.12h1.58A.29.29,0,0,0,654.16,349.54Z" transform="translate(-586.72 -343.6)"/><path class="cls-2" d="M667.74,352.92a1.79,1.79,0,0,1-1.94,1.37h-.14c-.58,0-1.2,0-1.81,0-.8,0-1.58,0-2.23.06h0a.84.84,0,0,1-.4-1.6,2.9,2.9,0,0,0,.54-.43c4.16-4.4,4.24-5,4.24-5.79a1.47,1.47,0,0,0-1.5-1.51,2,2,0,0,0-1.67,1.08.79.79,0,0,1-1.48-.31,3.12,3.12,0,0,1,3.14-2.16,2.93,2.93,0,0,1,3.14,2.75,4.59,4.59,0,0,1-1.07,2.7,44.82,44.82,0,0,1-3.45,3.71.18.18,0,0,0,0,.09s0,0,.11,0c.5,0,1.6,0,2.26,0s.88-.45,1.09-1.09a.81.81,0,0,1,.79-.63.76.76,0,0,1,.78.75.89.89,0,0,1,0,.3Z" transform="translate(-586.72 -343.6)"/><path class="cls-2" d="M690.23,351.73l-.63,1.66a1.34,1.34,0,0,1-1.22,1,1.5,1.5,0,0,1-1.33-1c-.69-1.57-2.43-6-3.08-7.93a.46.46,0,0,0-.4-.34.68.68,0,1,1-.07-1.36h0l1,0,1.19,0h0a.67.67,0,0,1,.72.69.63.63,0,0,1-.65.67c-.16,0-.21.1-.21.21a70.92,70.92,0,0,0,2.49,6.94c.08.22.15.35.24.35s.36-.38,1.23-2.6c-.67-1.73-1.39-3.57-1.76-4.59-.1-.25-.19-.32-.33-.34-.33,0-.5-.33-.5-.65s.18-.68.55-.68h0l1,0c.22,0,.46,0,.73,0h0c.36,0,.54.35.54.69a.6.6,0,0,1-.42.64.16.16,0,0,0-.15.16,29.28,29.28,0,0,0,.94,3c.57-1.6.94-2.93.94-3a.15.15,0,0,0-.17-.16.6.6,0,0,1-.62-.65.63.63,0,0,1,.6-.68h0l.82,0,1,0h0a.59.59,0,0,1,.58.66.62.62,0,0,1-.5.67.31.31,0,0,0-.29.23c-.52,1.34-1.19,3.12-1.81,4.7.94,2.44,1.11,2.57,1.19,2.57s.14-.11.21-.3c2.49-6.69,2.52-6.83,2.52-6.92a.26.26,0,0,0-.25-.25.6.6,0,0,1-.6-.67c0-.35.18-.69.56-.69h0c.33,0,.69,0,1,0l1.32,0h0a.69.69,0,0,1,0,1.36.35.35,0,0,0-.38.23c-1,2.56-2.58,6.48-3.14,8.06a1.32,1.32,0,0,1-1.23,1,1.44,1.44,0,0,1-1.32-1Z" transform="translate(-586.72 -343.6)"/><path class="cls-2" d="M701.87,352.89c2.24,0,2.33-.06,2.58-.91a.72.72,0,0,1,.7-.55.75.75,0,0,1,.77.75,4.12,4.12,0,0,1-.28.91c-.28.72-.8,1.2-2.28,1.2h-2.79c-.67,0-1.3,0-1.82,0a.75.75,0,0,1-.84-.72.72.72,0,0,1,.77-.73h.14c.24,0,.31-.07.32-.28.07-.93.09-3.56.09-5.59v-1.49c0-.21-.06-.32-.37-.32s-.9-.07-.9-.71a.73.73,0,0,1,.79-.72h0c.38,0,.86,0,1.38,0,1,0,2.23,0,3,0,1.72,0,1.93.63,2.22,1.68a1.3,1.3,0,0,1,.06.31.73.73,0,0,1-.77.73.72.72,0,0,1-.74-.62c-.1-.5-.27-.7-1-.7H701.1c-.28,0-.36.06-.38.36,0,.64,0,1.62,0,2.55,0,.14.07.19.2.19.45,0,1.16,0,1.4,0s.28-.21.28-.45a.72.72,0,0,1,.73-.77.67.67,0,0,1,.68.72v.05c0,.33,0,.7,0,1.07s0,.87,0,1.17v.06a.71.71,0,0,1-1.41,0V350c0-.05,0-.12,0-.18s0-.29-.29-.29l-1.4,0c-.17,0-.21.07-.21.23,0,1.27,0,2.44,0,2.76S700.79,352.89,701.87,352.89Z" transform="translate(-586.72 -343.6)"/><path class="cls-2" d="M714.91,351.13c0,1.47-1.09,3-3.52,3.17l-.92,0c-.77,0-1.47,0-2.24,0h-.8a.72.72,0,0,1-.84-.71.74.74,0,0,1,.81-.73h0c.24,0,.28-.12.29-.31,0-.58,0-2,0-3.5s0-2.92,0-3.56c0-.22-.06-.32-.26-.32-.4,0-.89-.15-.89-.71a.72.72,0,0,1,.78-.72h.07c.26,0,.51,0,.75,0,.71,0,1.35,0,2,0l.84,0c2.48.16,3.2,1.47,3.2,2.51a2.14,2.14,0,0,1-1.67,2.17c-.22,0-.24.09-.24.1s.21.06.23.06A2.44,2.44,0,0,1,714.91,351.13Zm-1.58-.14c0-.83-.56-1.62-1.87-1.71-.35,0-.64,0-.94,0-1.12,0-1.31,0-1.31.33,0,2.39,0,2.81,0,3s.14.36,1.18.36c.37,0,.77,0,1,0A2,2,0,0,0,713.33,351Zm-3.11-5.9c-.86,0-1,0-1,.36s0,1.4,0,2.2c0,.24.09.3,1,.3.27,0,.56,0,.81,0a1.72,1.72,0,0,0,1.67-1.6c0-.64-.5-1.23-1.77-1.23Z" transform="translate(-586.72 -343.6)"/></g></g></svg>