<svg xmlns="http://www.w3.org/2000/svg" width="139.354" height="287.486" viewBox="0 0 139.354 287.486"><path d="M70.278,0C31.464,0,0,34.611,0,77.306s52.937,77.306,70.278,77.306C153.309,143.387,171.023,9.438,70.278,0Z" fill="#f7c600"/><path d="M114.29,333.008c-1-4.839-2.562-9.526-3.893-14.278a64,64,0,0,1-2.513-15.418c-.358-11.989,2.488-23.76,5.3-35.326.458-1.883-2.446-2.686-2.9-.8-2.465,10.142-4.914,20.4-5.368,30.865a64.833,64.833,0,0,0,1.05,15.184c1,5.116,2.694,10.055,4.081,15.07,4.293,15.518,3.92,32.394-2.127,47.412A55.942,55.942,0,0,1,92.763,397.15c-1.468,1.271.67,3.394,2.13,2.13,12.246-10.6,18.93-26.143,20.617-42.047A79.028,79.028,0,0,0,114.29,333.008Z" transform="translate(-38.897 -112.181)"/></svg>