<svg xmlns="http://www.w3.org/2000/svg" width="84.396" height="174.108" viewBox="0 0 84.396 174.108"><path d="M42.562,0C19.056,0,0,20.961,0,46.818S32.06,93.636,42.562,93.636C92.848,86.839,103.575,5.716,42.562,0Z" fill="#f71140"/><path d="M105.605,306.625c-.6-2.931-1.552-5.769-2.358-8.647a38.76,38.76,0,0,1-1.522-9.338c-.217-7.261,1.507-14.39,3.21-21.394.277-1.14-1.481-1.627-1.759-.485-1.493,6.142-2.976,12.352-3.251,18.692a39.264,39.264,0,0,0,.636,9.2c.6,3.1,1.631,6.089,2.472,9.126a45.1,45.1,0,0,1-1.288,28.713,33.879,33.879,0,0,1-9.177,12.981c-.889.77.406,2.055,1.29,1.29,7.416-6.421,11.465-15.833,12.486-25.465A47.861,47.861,0,0,0,105.605,306.625Z" transform="translate(-59.946 -172.887)"/></svg>