<svg id="レイヤー_1" data-name="レイヤー 1" xmlns="http://www.w3.org/2000/svg" viewBox="0 0 251.68 11.73"><defs><style>.cls-1{isolation:isolate;}.cls-2{fill:#040000;}</style></defs><g id="_上の画像をクリックすると記事が見られます_" data-name=" 上の画像をクリックすると記事が見られます " class="cls-1"><g class="cls-1"><path class="cls-2" d="M355.73,376.46a.66.66,0,0,1-.74-.63.91.91,0,0,1,.13-.44l4.85-8.46a.67.67,0,0,1,1.22,0l4.85,8.46a.91.91,0,0,1,.13.44.66.66,0,0,1-.74.63Zm5-8.93a.22.22,0,0,0-.18-.13.23.23,0,0,0-.18.13l-4.54,7.94a.25.25,0,0,0,0,.14c0,.11.08.18.22.18h9.08c.14,0,.22-.07.22-.18a.37.37,0,0,0,0-.14Z" transform="translate(-354.99 -365.62)"/><path class="cls-2" d="M368.61,376.73a.58.58,0,0,1-.57-.62.55.55,0,0,1,.57-.59h4v-8.8a.63.63,0,0,1,.67-.64.64.64,0,0,1,.69.64v3.33h3.52a.57.57,0,0,1,.58.6.58.58,0,0,1-.58.62H374v4.25h4.63a.56.56,0,0,1,.56.6.58.58,0,0,1-.56.61Z" transform="translate(-354.99 -365.62)"/><path class="cls-2" d="M389.45,371.61a2.75,2.75,0,0,0-3-2.68h0a.59.59,0,0,1,.36.55v.06c0,1.37-1.34,3.73-2.77,5.14a1.4,1.4,0,0,1-1,.44c-.92,0-1.76-1-1.76-2.46a5.18,5.18,0,0,1,5.24-4.74c2.63,0,4.27,1.74,4.27,3.77a3.92,3.92,0,0,1-.29,1.47c-1.14,2.88-4.68,3.29-4.86,3.29a.68.68,0,0,1-.74-.64c0-.29.22-.56.71-.65C388,374.77,389.45,373.31,389.45,371.61ZM385.69,369a4.25,4.25,0,0,0-3.25,3.6c0,1,.65,1.09.69,1.09a.38.38,0,0,0,.25-.1,7.25,7.25,0,0,0,2.07-4A.67.67,0,0,1,385.69,369Z" transform="translate(-354.99 -365.62)"/><path class="cls-2" d="M398.82,367.88v1h1.12a1.3,1.3,0,0,1,1.33,1.13c0,.4,0,1.08,0,1.76s0,1.35,0,1.72a1.36,1.36,0,0,1-1.39,1.29c-.74,0-1.12,0-1.48,0s-.81,0-1.66,0a1.32,1.32,0,0,1-1.44-1.27c0-.43,0-1.09,0-1.74s0-1.29,0-1.66a1.27,1.27,0,0,1,1.38-1.23l1,0v-1h-3.85a.57.57,0,0,1-.61-.57.6.6,0,0,1,.61-.61h9a.59.59,0,0,1,0,1.18Zm-4.32,2.17c0,.82,0,1.85,0,2.82,0,.7,0,1.39,0,1.92s.2.81.81.84c.77,0,1.85,0,2.94,0s2.16,0,2.9,0a.8.8,0,0,0,.87-.8c0-.65,0-1.41,0-2.21s0-1.78,0-2.53v0a.59.59,0,0,1,.64-.57.62.62,0,0,1,.66.6c0,.57,0,1.44,0,2.35s0,1.87,0,2.64a1.75,1.75,0,0,1-1.84,1.72c-.9,0-2.14.05-3.34.05s-2.4,0-3.2-.05a1.56,1.56,0,0,1-1.69-1.69c0-.84,0-1.77,0-2.72,0-.79,0-1.59,0-2.34a.59.59,0,0,1,.61-.61.61.61,0,0,1,.64.6Zm3.14-.22H397a.52.52,0,0,0-.57.52c0,.21,0,.55,0,.92h1.23Zm0,2.39h-1.23c0,.43,0,.82,0,1.07,0,.49.19.52,1.22.52Zm2.48-.94c0-.37,0-.7,0-.93,0-.51-.32-.53-1.29-.53v1.46Zm-.57,2.51c.34,0,.55-.11.56-.52,0-.23,0-.62,0-1h-1.3v1.59Z" transform="translate(-354.99 -365.62)"/><path class="cls-2" d="M407,376.76l.17-6.63c-.92,1.1-1.17,1.12-1.36,1.12a.61.61,0,0,1-.61-.58.59.59,0,0,1,.22-.45,12.29,12.29,0,0,0,2.91-4.07.54.54,0,0,1,.51-.34.74.74,0,0,1,.74.68c0,.1,0,.35-1.16,2l-.17,8.27a.61.61,0,0,1-.65.58.56.56,0,0,1-.6-.57Zm5.92-5.7-.59.47a3.89,3.89,0,0,1,1.69,3.32,2.19,2.19,0,0,1-2.27,2.47c-.64,0-1.16-.12-1.16-.69a.52.52,0,0,1,.52-.55h.16a1.72,1.72,0,0,0,.39,0c.83,0,1.23-.46,1.23-1.58v-.16a8.73,8.73,0,0,1-3.78,2.08.51.51,0,0,1-.5-.55.48.48,0,0,1,.36-.49,8.75,8.75,0,0,0,3.71-2,2.71,2.71,0,0,0-.2-.42,9.22,9.22,0,0,1-3.29,1.68.5.5,0,0,1-.5-.52.48.48,0,0,1,.37-.48,7.57,7.57,0,0,0,2.83-1.32,2.15,2.15,0,0,0-.42-.24,7.51,7.51,0,0,1-2.23.91.52.52,0,0,1-.52-.54A.43.43,0,0,1,409,372a7.85,7.85,0,0,0,2.43-1h-.61c-1.33,0-1.33-.52-1.33-1.52a1.11,1.11,0,0,1-.59.32.53.53,0,0,1-.26-1A7.87,7.87,0,0,0,411,366a.55.55,0,0,1,.51-.33.56.56,0,0,1,.58.51,1,1,0,0,1-.19.47c.39,0,1,0,1.37,0s1,0,1,.65c0,.08,0,.34-.51.93h1.29c1.21,0,1.25.7,1.25,1.31,0,.87,0,1.54-1.25,1.55h-.49a7.76,7.76,0,0,0,.22,1.39,8.2,8.2,0,0,0,1.23-.82.51.51,0,0,1,.33-.13.68.68,0,0,1,.61.67c0,.23-.14.57-1.85,1.26a4.57,4.57,0,0,0,1.72,2,.56.56,0,0,1,.27.47.65.65,0,0,1-.66.62c-.64,0-2.55-1.56-2.93-5.53l-.63,0Zm-.55-1.88h-1.21c-.32,0-.52.08-.52.52,0,.28,0,.51.55.51h1.18Zm.27-.95c.29-.34.41-.53.41-.6s-.09-.13-.17-.13-1,0-1.5,0c-.17.24-.35.47-.53.7Zm.76,2h1.4c.41,0,.48-.15.48-.52s-.15-.51-.5-.51h-1.38Z" transform="translate(-354.99 -365.62)"/><path class="cls-2" d="M424.08,373.26c0,.22,0,.46,0,.72a.77.77,0,0,1-.7.79.55.55,0,0,1-.54-.61V374a6.82,6.82,0,0,0,.05-.87c-.27.14-1.48.78-1.48,1.6,0,.22.11,1,1.43,1a5.92,5.92,0,0,0,1.64-.28,1,1,0,0,1,.33-.05.63.63,0,0,1,.67.61c0,.28-.1.94-2.33.94s-2.91-1.12-2.91-2.07c0-1.58,1.85-2.57,2.52-2.92-.15-.51-.41-.77-.76-.77a1.34,1.34,0,0,0-.68.23c-.54.61-.87.8-1.16.8a.51.51,0,0,1-.55-.5.7.7,0,0,1,.29-.53,6.59,6.59,0,0,0,1.67-2,3.81,3.81,0,0,1-.64.06c-1.31,0-1.32-.73-1.32-.84a.55.55,0,0,1,.53-.57.82.82,0,0,1,.47.17.84.84,0,0,0,.48.1,4.86,4.86,0,0,0,1-.14,5.05,5.05,0,0,0,.24-1,.5.5,0,0,1,.54-.45c.34,0,.71.23.71.57a2.82,2.82,0,0,1-.08.48c.39-.19.44-.21.53-.21a.57.57,0,0,1,.56.58c0,.43-.34.69-1.69,1a12,12,0,0,1-.74,1.3,1.74,1.74,0,0,1,1.64,1.22,15.21,15.21,0,0,1,3-1.05.69.69,0,0,1,.73.68.54.54,0,0,1-.35.5c-.41.17-.83.22-1.51.43s-1.11.38-1.61.59A6.12,6.12,0,0,1,424.08,373.26Z" transform="translate(-354.99 -365.62)"/><path class="cls-2" d="M431.05,372.64c-.9.59-1.66-.59-.75-1.13a9.6,9.6,0,0,0,2.82-3,4.52,4.52,0,0,0,.51-1.07.71.71,0,0,1,1.39.22,2.35,2.35,0,0,1-.2.58c.63-.11,1.3-.26,1.89-.3.91-.05,1.71.58,1.22,1.43-2.09,3.59-4,6.09-7.5,7.46-1.12.43-1.63-.9-.52-1.26,2.74-.92,4.87-3.26,6.37-6.09.13-.26,0-.31-.18-.31-.52,0-1.56.24-2.08.33A13.28,13.28,0,0,1,431.05,372.64Z" transform="translate(-354.99 -365.62)"/><path class="cls-2" d="M441,376.06a6.28,6.28,0,0,0,3.53-5.56c0-1,.07-1.44,0-2.08a6.83,6.83,0,0,0-.1-1.07c-.25-1,1.39-1.17,1.45-.07,0,.55,0,.74,0,1.14s0,.71,0,.95,0,.54,0,1.08a7.71,7.71,0,0,1-4.17,6.76C440.69,377.77,440.18,376.46,441,376.06Zm.41-4a10.59,10.59,0,0,0,.07-3.17,6.85,6.85,0,0,0-.16-.76.74.74,0,1,1,1.43-.27,10.1,10.1,0,0,1,0,1.08c0,.5,0,1.15,0,1.66a8.53,8.53,0,0,1-.07,1.51C442.62,373.31,441.24,373,441.45,372.08Z" transform="translate(-354.99 -365.62)"/><path class="cls-2" d="M449.75,373.18a3.07,3.07,0,0,0-.71-.95c-.53-.45.23-1.26.82-.71a5.14,5.14,0,0,1,.93,1.12A.59.59,0,1,1,449.75,373.18Zm.06,2.59a6.79,6.79,0,0,0,3.73-3.95,1.92,1.92,0,0,0,.09-.63.65.65,0,0,1,1.29,0,2.08,2.08,0,0,1-.25,1.06,8.28,8.28,0,0,1-4.27,4.53C449.51,377.23,449.1,376.09,449.81,375.77Zm1.6-3.26a3.25,3.25,0,0,0-.57-1c-.47-.52.39-1.21.91-.59a5,5,0,0,1,.75,1.22A.58.58,0,1,1,451.41,372.51Z" transform="translate(-354.99 -365.62)"/><path class="cls-2" d="M458.74,372.64c-.89.59-1.66-.59-.75-1.13a9.6,9.6,0,0,0,2.82-3,4.16,4.16,0,0,0,.51-1.07.71.71,0,0,1,1.39.22,2.35,2.35,0,0,1-.2.58c.63-.11,1.3-.26,1.89-.3.91-.05,1.71.58,1.22,1.43-2.09,3.59-4,6.09-7.5,7.46-1.12.43-1.63-.9-.52-1.26,2.74-.92,4.87-3.26,6.37-6.09.13-.26,0-.31-.18-.31-.52,0-1.56.24-2.08.33A13.28,13.28,0,0,1,458.74,372.64Z" transform="translate(-354.99 -365.62)"/><path class="cls-2" d="M473.35,374.38a2,2,0,0,1-1.89-2.11,1.46,1.46,0,0,1,1.49-1.53,2.06,2.06,0,0,1,.6.08c0-.43-.07-.82-.09-1.19a18.71,18.71,0,0,0-4.77,1,.79.79,0,0,1-.25,0,.63.63,0,0,1-.62-.65.74.74,0,0,1,.61-.7,29.2,29.2,0,0,1,5-.88v-.42c0-1.14,0-1.75.71-1.75a.67.67,0,0,1,.72.61.22.22,0,0,1,0,.11,11.33,11.33,0,0,0-.17,1.34c1-.06,2.1-.09,3.15-.09.55,0,.82.33.82.65a.69.69,0,0,1-.77.65h-.06c-.64,0-1.29-.05-1.94-.05-.4,0-.81,0-1.21,0,0,.88.08,1.7.09,1.87a2.09,2.09,0,0,1,.69,1.55,2.62,2.62,0,0,1-.41,1.31,6.42,6.42,0,0,1-4.5,2.94.65.65,0,0,1-.72-.63c0-.26.18-.53.63-.62a5.27,5.27,0,0,0,3.05-1.6Zm-.22-2.59a.55.55,0,0,0-.58.59.93.93,0,0,0,.82.95.58.58,0,0,0,.56-.56s0-.07,0-.11a1.83,1.83,0,0,0-.09-.43A.84.84,0,0,0,473.13,371.79Z" transform="translate(-354.99 -365.62)"/><path class="cls-2" d="M486.55,373.27c0-1.36-1.65-1.36-1.77-1.36a4.3,4.3,0,0,0-3.11,1.73.65.65,0,0,1-.52.26.67.67,0,0,1-.68-.63.72.72,0,0,1,.26-.53,34.12,34.12,0,0,0,3.77-4.3,0,0,0,0,0,0,0l-.09,0a6.51,6.51,0,0,1-2.6.95.63.63,0,0,1-.68-.63.56.56,0,0,1,.55-.58,12.16,12.16,0,0,0,3.28-.88,1,1,0,0,1,.47-.1.82.82,0,0,1,.86.76.9.9,0,0,1-.3.64c-.88.85-1.88,1.95-2.7,2.86a3.45,3.45,0,0,1,1.86-.52,2.51,2.51,0,0,1,2.74,2.29c0,1.74-1.79,3.4-4,3.4-1.56,0-2.38-.89-2.38-1.66a1.33,1.33,0,0,1,1.45-1.22,1.85,1.85,0,0,1,2,1.62A2.54,2.54,0,0,0,486.55,373.27ZM483,374.66c-.44,0-.45.29-.45.34,0,.51.88.57,1.2.57h.1C483.81,375,483.52,374.66,483,374.66Z" transform="translate(-354.99 -365.62)"/><path class="cls-2" d="M492.79,371.58c-.56-.3-.68-.72-.68-1.45,0-.21,0-.44,0-.7,0-.6,0-1.07,0-1.46a6.46,6.46,0,0,0-.09-1.25,1,1,0,0,1,0-.17.56.56,0,0,1,.59-.57c.8,0,.83.75.83,1.62,0,.37,0,.82-.07,1.47,0,.41-.07.73-.07,1,0,.81.54.89.93.89.19,0,.22-.11.37-.16a.56.56,0,0,1,.21,0,.66.66,0,0,1,.65.63.83.83,0,0,1-.48.67c-.44.27-1.48.72-2.08,1-1,.55-1.43,1.11-1.43,1.59s.57,1.08,1.91,1.08a3.7,3.7,0,0,0,1.81-.42,1.15,1.15,0,0,1,.61-.21.7.7,0,0,1,.74.66c0,.81-1.52,1.27-2.86,1.27-2.35,0-3.41-1.12-3.41-2.24,0-.94.72-2,2.29-2.89l.44-.24A1,1,0,0,1,492.79,371.58Z" transform="translate(-354.99 -365.62)"/><path class="cls-2" d="M499.37,369a.53.53,0,0,1-.6-.52.57.57,0,0,1,.6-.58h4.17a.55.55,0,1,1,0,1.1Zm3,7.95c-.38,0-.79,0-1.21,0s-.69,0-1,0a1,1,0,0,1-1-1c0-.33,0-.67,0-1s0-.63,0-.92a1,1,0,0,1,.95-1l1.14,0,1.11,0a1,1,0,0,1,1.05.93c0,.3,0,.65,0,1s0,.69,0,1A1,1,0,0,1,502.41,377Zm-2.48-9.73a.52.52,0,0,1-.58-.51.56.56,0,0,1,.58-.56h2.92a.51.51,0,0,1,.55.53.53.53,0,0,1-.55.54Zm0,3.47a.51.51,0,0,1-.57-.51.56.56,0,0,1,.57-.56h2.93a.51.51,0,0,1,.54.53.52.52,0,0,1-.54.54Zm0,1.67a.5.5,0,0,1-.57-.5.55.55,0,0,1,.57-.56h2.93a.51.51,0,0,1,.54.53.52.52,0,0,1-.54.53ZM502.4,375a6.43,6.43,0,0,0,0-.65c0-.33-.22-.35-1-.35h-.66c-.36,0-.36.26-.36,1,0,.24,0,.47,0,.67s.14.31,1,.31c.65,0,1,0,1.05-.33A6.22,6.22,0,0,0,502.4,375Zm2.66-7.52a.55.55,0,0,1-.6-.54.59.59,0,0,1,.62-.59h3a1.31,1.31,0,0,1,1.42,1.42c0,.32,0,.79,0,1.22,0,1.16,0,2.24-1.44,2.24h-1.28c-.9,0-1.12,0-1.15.46s-.05,1.38-.05,2.15c0,.48,0,.95,0,1.34s.37.63,1.53.63,1.76-.18,1.76-1.32a.57.57,0,0,1,.61-.6.66.66,0,0,1,.7.7c0,2.32-1.74,2.42-3.11,2.42-1.54,0-2.65-.18-2.7-1.58,0-.38,0-.93,0-1.53,0-.9,0-1.93.05-2.6a1.27,1.27,0,0,1,1.42-1.22l1.58,0c.87,0,.89,0,.89-1.23,0-.3,0-.61,0-1s-.26-.45-1.3-.45l-1.89,0Z" transform="translate(-354.99 -365.62)"/><path class="cls-2" d="M521.65,373.65c0,.77-.09,1.46-1.36,1.46h-2.14l0,.6h0c0,.78-.67,1.51-2,1.51-.42,0-1.37,0-1.37-.69a.57.57,0,0,1,.57-.59,1.38,1.38,0,0,1,.2,0,3.26,3.26,0,0,0,.69.09c.39,0,.7-.13.7-.61v-.34h-3.31a.48.48,0,0,1-.5-.48.47.47,0,0,1,.5-.48h0l3.3,0v-.58H512.2a.47.47,0,0,1-.46-.5.46.46,0,0,1,.46-.48H517v-.54l-3.3,0h0a.42.42,0,0,1-.43-.44.47.47,0,0,1,.49-.48H517v-.46c-3.1,0-3.39,0-3.39-1.18,0-.86.16-1.26,1.35-1.26h2v-.51h-3.92a.52.52,0,1,1,0-1H517v-.53a.57.57,0,0,1,.6-.58.55.55,0,0,1,.58.58v.53H522a.52.52,0,1,1,0,1h-3.86v.51h2.06c.83,0,1.19.25,1.23.78a2.93,2.93,0,0,1,0,.41,2.63,2.63,0,0,1,0,.41c-.09.83-.45.84-3.29.84v.47h2.12c.83,0,1.33.29,1.35.94,0,.12,0,.26,0,.43h1.19a.55.55,0,0,1,0,1.09ZM517,369.1h-1.75c-.27,0-.38.07-.41.19v.28c0,.22.32.24,2.16.24Zm1.17.72c2.06,0,2.1,0,2.1-.38,0-.21-.07-.33-.43-.33h-1.67Zm2.33,2.63a.36.36,0,0,0-.4-.35h-1.93v.53h2.34Zm-2.33,1.15v.58l1.93,0a.37.37,0,0,0,.4-.37c0-.06,0-.13,0-.19Z" transform="translate(-354.99 -365.62)"/><path class="cls-2" d="M527.75,371.13a7.47,7.47,0,0,1-1.47.25.57.57,0,0,1-.61-.59.63.63,0,0,1,.65-.65,9.72,9.72,0,0,0,2.14-.3,5.42,5.42,0,0,0,.64-2,.55.55,0,0,1,.58-.47.66.66,0,0,1,.71.6,4.56,4.56,0,0,1-.47,1.58h.1c1.48,0,1.52,1.59,1.52,2.19,0,1.16,0,4.41-2.45,4.41-.75,0-1.71-.34-1.71-1a.71.71,0,0,1,.68-.68.68.68,0,0,1,.27.07,1.72,1.72,0,0,0,.73.19c.85,0,1.23-.91,1.23-3.18,0-.54-.07-.93-.49-.93a.69.69,0,0,0-.23,0l-.21.05c-1,1.83-2.34,4-3.17,5.38a.78.78,0,0,1-.68.38.6.6,0,0,1-.66-.56.82.82,0,0,1,.15-.45c.58-.87,1.93-2.77,2.85-4.4Zm7.2,1.79a4.11,4.11,0,0,0-2.24-2.06.48.48,0,0,1-.35-.45.61.61,0,0,1,.63-.57c.66,0,3.21,1.61,3.21,2.81a.69.69,0,0,1-.69.69A.61.61,0,0,1,535,372.92Zm-.37-3.43a4.45,4.45,0,0,0-1.09-.71c-.23-.1-.32-.24-.32-.39a.52.52,0,0,1,.53-.49c.07,0,1.7.47,1.7,1.16a.56.56,0,0,1-.5.57A.44.44,0,0,1,534.58,369.49Zm1.12-1.2a4.46,4.46,0,0,0-1.1-.66.41.41,0,0,1-.34-.4.53.53,0,0,1,.53-.5,3.78,3.78,0,0,1,1.52.69.56.56,0,0,1,.2.43.57.57,0,0,1-.51.59A.41.41,0,0,1,535.7,368.29Z" transform="translate(-354.99 -365.62)"/><path class="cls-2" d="M538.06,377.33a.63.63,0,0,1-.67-.61.61.61,0,0,1,.59-.59,3.85,3.85,0,0,0,3.29-2,.63.63,0,0,1,.58-.39.69.69,0,0,1,.69.62.88.88,0,0,1-.06.26C541.32,377.07,538.06,377.33,538.06,377.33Zm3-3.82a1.39,1.39,0,0,1-1.53-1.3c0-.57,0-1.51,0-2.42s0-1.82,0-2.33a1.32,1.32,0,0,1,1.44-1.27c.59,0,1.37,0,2.18,0s1.61,0,2.27,0a1.36,1.36,0,0,1,1.36,1.18c0,.57,0,1.41,0,2.26s0,1.91,0,2.55a1.4,1.4,0,0,1-1.42,1.33l-.66,0c0,.52,0,1.13,0,1.55,0,.71.16.88,1.27.88s1.63-.15,1.63-1.32a.58.58,0,0,1,.61-.61.65.65,0,0,1,.69.7c0,2.23-1.51,2.4-3,2.4-1.31,0-2.45-.13-2.45-1.57,0-.35,0-1.32,0-2Zm4.55-4.18h-4.93v1h4.93Zm0-1c0-.19,0-.37,0-.52,0-.33-.18-.53-.61-.56l-1.62,0-2,0a.59.59,0,0,0-.61.58c0,.14,0,.31,0,.5Zm-4.9,3c0,.19,0,.36,0,.52,0,.42.24.56.62.57.6,0,1.25,0,1.91,0s1.17,0,1.73,0,.62-.51.62-1.09Z" transform="translate(-354.99 -365.62)"/><path class="cls-2" d="M553.37,377.21c-.49,0-.71-.28-.71-.58a.61.61,0,0,1,.59-.61c2.3-.19,4.18-1.54,4.18-2.58a.92.92,0,0,0-1-.83c-1,0-2.84,1.64-3,1.87s-.5.46-.71.46-1.08-.29-1.08-2.13a5.72,5.72,0,0,1,.23-1.69A5.35,5.35,0,0,0,552,370v-.22c0-.84.39-1.27,1.29-1.77.31-.16.69-.32.69-.48s-.14-.2-.5-.32a.6.6,0,0,1-.48-.53.66.66,0,0,1,.71-.59c.46,0,2.09.77,2.09,1.66,0,.62-.48.71-1.13.81a2.89,2.89,0,0,0-.63.26c-.82.38-1,.72-1,1.12,0,.06,0,.14,0,.22v.14a5,5,0,0,1,0,.52,12.32,12.32,0,0,0-.22,1.72s0,.56.15.56l.12,0c.26-.16.75-.5,1.32-.82a4.45,4.45,0,0,1,2.1-.7,2.08,2.08,0,0,1,2.25,1.9c0,.83-.58,1.83-2,2.73A8.59,8.59,0,0,1,553.37,377.21Z" transform="translate(-354.99 -365.62)"/><path class="cls-2" d="M561.43,374.64s.09-.11.2-.26.24-.4.37-.63a14.28,14.28,0,0,1,1-1.4c.17-.3.31-.58.43-.84l0-.37a5.34,5.34,0,0,0-1.16.57.84.84,0,0,1-.47.19.53.53,0,0,1-.49-.58c0-.42.1-.57,2.26-1.5.11-1.07.18-2,.18-2.58a.57.57,0,0,1,.59-.61.62.62,0,0,1,.65.6c0,.39-.16,1.69-.24,2.35a.52.52,0,0,1,.3.52,4.92,4.92,0,0,1,2.94-1.66,1.38,1.38,0,0,1,1.39,1.54,2.35,2.35,0,0,1,0,.26c-.09.85-.47,2.23-.61,3.42a2.57,2.57,0,0,0,0,.45c0,.4.14.57.61.57a3.81,3.81,0,0,0,1.44-.42,1,1,0,0,1,.35-.08.58.58,0,0,1,.58.61.77.77,0,0,1-.48.71,5,5,0,0,1-1.86.4c-1,0-1.88-.33-1.88-1.64a3,3,0,0,1,.06-.58c.18-1.19.53-2.55.58-3.4v-.14c0-.43-.15-.58-.39-.58-.69,0-2.2,1.43-3.25,2.73,0,.69-.09,1.39-.09,2a11.41,11.41,0,0,0,.13,1.83.71.71,0,0,1,0,.15.67.67,0,0,1-.69.67c-.69,0-.7-.77-.7-1.7,0-.46,0-1,.05-1.48-.28.46-.55,1-.79,1.47a1.08,1.08,0,0,1-.91.67.48.48,0,0,1-.52-.48,1.39,1.39,0,0,1,.39-.75Z" transform="translate(-354.99 -365.62)"/><path class="cls-2" d="M576.3,377.2c-1.09,0-2.17-.72-2.17-1.65,0-1.22,1.56-1.5,2.54-1.5a6.35,6.35,0,0,1,1,.08v-.22c0-.19,0-.4,0-.64,0-.4-.08-.82-.11-1.26a4.65,4.65,0,0,1-1,.13c-.24,0-1.57-.1-1.57-1,0-.25.1-.68,1-1.43.17-.15.29-.28.29-.42,0-.35-1.11-.74-2-.75-.47,0-.69-.28-.69-.55s.23-.58.7-.58,2.72.48,3.12,1.39v-.61c0-.54,0-1,0-1.47a.59.59,0,0,1,.6-.65.65.65,0,0,1,.67.65v.05c-.06.87-.13,2.11-.13,3.34v.35a2.47,2.47,0,0,0,.63-.45.62.62,0,0,1,.46-.22.63.63,0,0,1,.61.63c0,.64-1.07,1.08-1.67,1.28,0,.49,0,1,.1,1.36s.09.86.11,1.34c.94.34,2,.95,2,1.59a.7.7,0,0,1-.65.72.76.76,0,0,1-.56-.29,3.7,3.7,0,0,0-.9-.76A2.62,2.62,0,0,1,576.3,377.2Zm.16-2.15c-.91,0-1.2.24-1.2.49s.5.55.94.55a1.35,1.35,0,0,0,1.29-.89A4.07,4.07,0,0,0,576.46,375.05Zm.93-5.56a1.39,1.39,0,0,1-.41.55c-.76.59-.77.79-.77.83s.21.18.37.18a3.46,3.46,0,0,0,.87-.14C577.42,370.44,577.41,370,577.39,369.49Z" transform="translate(-354.99 -365.62)"/><path class="cls-2" d="M588.54,374.38a2,2,0,0,1-1.9-2.11,1.46,1.46,0,0,1,1.49-1.53,2,2,0,0,1,.6.08c0-.43-.06-.82-.09-1.19a18.71,18.71,0,0,0-4.77,1,.79.79,0,0,1-.25,0,.63.63,0,0,1-.62-.65.74.74,0,0,1,.61-.7,29.2,29.2,0,0,1,5-.88v-.42c0-1.14,0-1.75.71-1.75a.67.67,0,0,1,.72.61.22.22,0,0,1,0,.11,11.33,11.33,0,0,0-.17,1.34q1.57-.09,3.15-.09c.55,0,.82.33.82.65a.69.69,0,0,1-.77.65H593c-.64,0-1.29-.05-1.94-.05-.4,0-.8,0-1.21,0,0,.88.08,1.7.09,1.87a2.09,2.09,0,0,1,.69,1.55,2.62,2.62,0,0,1-.41,1.31,6.42,6.42,0,0,1-4.5,2.94.65.65,0,0,1-.72-.63c0-.26.19-.53.63-.62a5.27,5.27,0,0,0,3-1.6Zm-.23-2.59a.55.55,0,0,0-.58.59.93.93,0,0,0,.82.95.58.58,0,0,0,.56-.56s0-.07,0-.11a1.83,1.83,0,0,0-.09-.43A.84.84,0,0,0,588.31,371.79Z" transform="translate(-354.99 -365.62)"/><path class="cls-2" d="M596.23,376.46a.66.66,0,0,1-.74-.63.91.91,0,0,1,.13-.44l4.85-8.46a.73.73,0,0,1,.61-.4.7.7,0,0,1,.61.4l4.85,8.46a.91.91,0,0,1,.13.44.66.66,0,0,1-.74.63Zm5-8.93a.21.21,0,0,0-.18-.13.24.24,0,0,0-.18.13l-4.54,7.94a.25.25,0,0,0,0,.14c0,.11.08.18.22.18h9.08c.14,0,.22-.07.22-.18a.25.25,0,0,0,0-.14Z" transform="translate(-354.99 -365.62)"/></g></g></svg>