<svg xmlns="http://www.w3.org/2000/svg" width="62.684" height="129.317" viewBox="0 0 62.684 129.317"><path d="M31.612,0C14.153,0,0,15.569,0,34.774S23.812,69.548,31.612,69.548C68.962,64.5,76.93,4.246,31.612,0Z" fill="#f71140"/><path d="M102.175,296.2c-.448-2.177-1.153-4.285-1.751-6.422a28.789,28.789,0,0,1-1.13-6.936c-.161-5.393,1.119-10.688,2.384-15.89.206-.847-1.1-1.208-1.306-.36a72.375,72.375,0,0,0-2.415,13.884,29.163,29.163,0,0,0,.472,6.83c.448,2.3,1.212,4.523,1.836,6.779a33.5,33.5,0,0,1-.957,21.327,25.163,25.163,0,0,1-6.816,9.642c-.66.572.3,1.527.958.958,5.508-4.769,8.515-11.76,9.274-18.914A35.548,35.548,0,0,0,102.175,296.2Z" transform="translate(-68.261 -196.87)"/></svg>