<svg id="レイヤー_1" data-name="レイヤー 1" xmlns="http://www.w3.org/2000/svg" viewBox="0 0 278 184"><defs><style>.cls-1{fill:#d6d6d6;}.cls-2,.cls-3{isolation:isolate;}.cls-3{font-size:12px;fill:#040000;font-family:TsukuBRdGothicStd-B-90ms-RKSJ-H, FOT-TsukuBRdGothic Std;}.cls-4{letter-spacing:-0.08em;}.cls-5{letter-spacing:-0.05em;}.cls-6{letter-spacing:-0.03em;}.cls-7{letter-spacing:-0.9em;}.cls-8{letter-spacing:-0.01em;}.cls-9{letter-spacing:-0.06em;}.cls-10{letter-spacing:-0.12em;}.cls-11{letter-spacing:-0.1em;}.cls-12{letter-spacing:-0.04em;}.cls-13{letter-spacing:-0.1em;}.cls-14{letter-spacing:-0.52em;}.cls-15{letter-spacing:-0.15em;}.cls-16{letter-spacing:-0.24em;}.cls-17{letter-spacing:-0.21em;}.cls-18{letter-spacing:-0.11em;}.cls-19{letter-spacing:-0.02em;}.cls-20{letter-spacing:-0.17em;}.cls-21{letter-spacing:-0.06em;}.cls-22{letter-spacing:-0.18em;}.cls-23{letter-spacing:-0.5em;}.cls-24{letter-spacing:-0.09em;}.cls-25{letter-spacing:-0.62em;}.cls-26{letter-spacing:-0.05em;}.cls-27{letter-spacing:-0.19em;}.cls-28{letter-spacing:-0.34em;}.cls-29{letter-spacing:-0.33em;}.cls-30{letter-spacing:-0.23em;}.cls-31{letter-spacing:-0.11em;}.cls-32{letter-spacing:-0.58em;}.cls-33{letter-spacing:-0.28em;}.cls-34{letter-spacing:-0.57em;}.cls-35{letter-spacing:-0.36em;}.cls-36{letter-spacing:-0.01em;}.cls-37{letter-spacing:-0.6em;}.cls-38{letter-spacing:-0.26em;}.cls-39{letter-spacing:-0.13em;}.cls-40{letter-spacing:-0.23em;}.cls-41{letter-spacing:-0.15em;}.cls-42{letter-spacing:-0.25em;}.cls-43{letter-spacing:-0.19em;}.cls-44{letter-spacing:-0.32em;}.cls-45{letter-spacing:-0.03em;}</style></defs><g id="トップ_ユース紹介文" data-name="トップ ユース紹介文"><rect id="長方形_5" data-name="長方形 5" class="cls-1" width="278" height="184"/><g id="YOUTH_SENSE_は_夢追い人で溢れる鹿児島を創る_をビジョンに掲げ活動する学生団体です_2018年に発足し_その後カフェ_バーの経営_キャリア支援_グッズ販売_WEB開発など_さまざまな分野で活動してきました_" data-name="YOUTH SENSE は 夢追い人で溢れる鹿児島を創る をビジョンに掲げ活動する学生団体です 2018年に発足し その後カフェ バーの経営 キャリア支援 グッズ販売 WEB開発など さまざまな分野で活動してきました " class="cls-2"><text class="cls-3" transform="translate(21 26)"><tspan class="cls-4">Y</tspan><tspan x="8.17" y="0">OUTH SENSE</tspan><tspan class="cls-5" x="88.69" y="0"> </tspan><tspan class="cls-6" x="91.51" y="0">は</tspan><tspan class="cls-7" x="103.15" y="0">、</tspan><tspan x="104.35" y="0">「夢</tspan><tspan class="cls-6" x="128.35" y="0">追</tspan><tspan class="cls-8" x="139.99" y="0">い</tspan><tspan class="cls-9" x="151.87" y="0">人</tspan><tspan x="163.15" y="0">で溢</tspan></text><text class="cls-3" transform="translate(20.52 50)"><tspan class="cls-10">れ</tspan><tspan class="cls-11" x="10.56" y="0">る</tspan><tspan x="21.36" y="0">鹿児</tspan><tspan class="cls-10" x="45.36" y="0">島</tspan><tspan class="cls-12" x="55.92" y="0">を</tspan><tspan class="cls-10" x="67.44" y="0">創</tspan><tspan class="cls-13" x="78" y="0">る</tspan><tspan class="cls-14" x="88.8" y="0">」</tspan><tspan class="cls-15" x="94.56" y="0">を</tspan><tspan class="cls-9" x="104.76" y="0">ビ</tspan><tspan class="cls-16" x="116.04" y="0">ジ</tspan><tspan class="cls-17" x="125.16" y="0">ョ</tspan><tspan class="cls-18" x="134.64" y="0">ン</tspan><tspan class="cls-5" x="145.32" y="0">に</tspan><tspan x="156.72" y="0">掲</tspan></text><text class="cls-3" transform="translate(20.04 74)">げ活<tspan class="cls-19" x="24" y="0">動</tspan><tspan class="cls-20" x="35.76" y="0">す</tspan><tspan class="cls-11" x="45.72" y="0">る</tspan><tspan x="56.52" y="0">学生団</tspan><tspan class="cls-21" x="92.52" y="0">体</tspan><tspan class="cls-19" x="103.8" y="0">で</tspan><tspan class="cls-22" x="115.56" y="0">す</tspan><tspan class="cls-23" x="125.4" y="0">。</tspan></text><text class="cls-3" transform="translate(21 98)">2018<tspan class="cls-21" x="28.8" y="0">年</tspan><tspan class="cls-5" x="40.08" y="0">に</tspan><tspan x="51.48" y="0">発</tspan><tspan class="cls-15" x="63.48" y="0">足</tspan><tspan class="cls-24" x="73.68" y="0">し</tspan><tspan class="cls-25" x="84.6" y="0">、</tspan><tspan class="cls-22" x="89.16" y="0">そ</tspan><tspan class="cls-26" x="99" y="0">の</tspan><tspan class="cls-21" x="110.4" y="0">後</tspan><tspan class="cls-27" x="121.68" y="0">カ</tspan><tspan class="cls-28" x="131.4" y="0">フ</tspan><tspan class="cls-29" x="139.32" y="0">ェ</tspan><tspan class="cls-30" x="147.36" y="0">・</tspan></text><text class="cls-3" transform="translate(21 122)"><tspan class="cls-9">バ</tspan><tspan class="cls-31" x="11.28" y="0">ー</tspan><tspan class="cls-26" x="21.96" y="0">の</tspan><tspan x="33.36" y="0">経営</tspan><tspan class="cls-32" x="57.36" y="0">、</tspan><tspan class="cls-17" x="62.4" y="0">キ</tspan><tspan class="cls-33" x="71.88" y="0">ャ</tspan><tspan class="cls-17" x="80.52" y="0">リ</tspan><tspan class="cls-13" x="90" y="0">ア</tspan><tspan x="100.8" y="0">支援</tspan><tspan class="cls-34" x="124.8" y="0">、</tspan><tspan class="cls-35" x="129.96" y="0">グ</tspan><tspan class="cls-27" x="137.64" y="0">ッ</tspan><tspan class="cls-36" x="147.36" y="0">ズ</tspan><tspan x="159.24" y="0">販</tspan></text><text class="cls-3" transform="translate(21 146)">売<tspan class="cls-23" x="12" y="0">、</tspan><tspan x="18" y="0">WEB開</tspan><tspan class="cls-24" x="58.08" y="0">発</tspan><tspan class="cls-30" x="69" y="0">な</tspan><tspan class="cls-4" x="78.24" y="0">ど</tspan><tspan class="cls-37" x="89.28" y="0">、</tspan><tspan class="cls-38" x="94.08" y="0">さ</tspan><tspan class="cls-30" x="102.96" y="0">ま</tspan><tspan class="cls-39" x="112.2" y="0">ざ</tspan><tspan class="cls-40" x="122.64" y="0">ま</tspan><tspan class="cls-12" x="131.88" y="0">な</tspan><tspan x="143.4" y="0">分野</tspan></text><text class="cls-3" transform="translate(20.28 170)">で活<tspan class="cls-41" x="24" y="0">動</tspan><tspan class="cls-42" x="34.2" y="0">し</tspan><tspan class="cls-43" x="43.2" y="0">て</tspan><tspan class="cls-30" x="52.92" y="0">き</tspan><tspan class="cls-44" x="62.16" y="0">ま</tspan><tspan class="cls-15" x="70.32" y="0">し</tspan><tspan class="cls-45" x="80.52" y="0">た</tspan><tspan class="cls-23" x="92.16" y="0">。</tspan></text></g></g></svg>