<svg id="レイヤー_1" data-name="レイヤー 1" xmlns="http://www.w3.org/2000/svg" viewBox="0 0 186.26 154.94"><defs><style>.cls-1{isolation:isolate;}.cls-2{fill:#040000;}</style></defs><g id="YOUTH_SENSE_は_夢追い人で溢れる鹿児島を創る_をビジョンに掲げ活動する学生団体です_2018年に発足し_その後カフェ_バーの経営_キャリア支援_グッズ販売_WEB開発など_さまざまな分野で活動してきました_" data-name="YOUTH SENSE は 夢追い人で溢れる鹿児島を創る をビジョンに掲げ活動する学生団体です 2018年に発足し その後カフェ バーの経営 キャリア支援 グッズ販売 WEB開発など さまざまな分野で活動してきました " class="cls-1"><g class="cls-1"><path class="cls-2" d="M393.19,302.92h0a.64.64,0,1,1,0,1.27h0l-1,0-1.12,0a.61.61,0,0,1-.72-.64.63.63,0,0,1,.67-.63h.19c.15,0,.2-.11.2-.24,0-.66,0-1.32,0-2.06a.51.51,0,0,0-.13-.41c-.77-1.16-1.81-2.73-2.45-3.68a.35.35,0,0,0-.32-.16c-.22,0-.76,0-.76-.61a.61.61,0,0,1,.66-.62h.06l.91,0,1.15,0h.05c.46,0,.68.27.68.57a.71.71,0,0,1-.73.66c-.09,0-.17,0-.17.09a.23.23,0,0,0,0,.1c1.55,2.39,1.62,2.49,1.69,2.49a14.86,14.86,0,0,0,1.74-2.59c0-.06-.07-.09-.15-.09a.65.65,0,0,1-.71-.62.63.63,0,0,1,.68-.61h.06l.87,0,1.09,0c.15,0,.73,0,.73.62a.62.62,0,0,1-.68.61h0c-.14,0-.19,0-.28.16-.63,1-1.75,2.67-2.42,3.62a.6.6,0,0,0-.15.48c0,.54,0,1.31,0,2.06,0,.16,0,.22.21.22Z" transform="translate(-387.74 -294.06)"/><path class="cls-2" d="M396.37,299.68a4.62,4.62,0,1,1,9.24,0,4.62,4.62,0,1,1-9.24,0Zm7.85,0A3.24,3.24,0,1,0,401,303.1,3.22,3.22,0,0,0,404.22,299.68Z" transform="translate(-387.74 -294.06)"/><path class="cls-2" d="M412.92,296.41a.68.68,0,0,1-.72-.66.61.61,0,0,1,.66-.6h.06l.89,0,1.13,0h0a.63.63,0,1,1,0,1.26h-.05l-.12,0c-.11,0-.17,0-.17.21,0,.54,0,1,0,1.5,0,.77,0,1.5,0,2.36a3.56,3.56,0,0,1-3.62,3.86,3.51,3.51,0,0,1-3.58-3.75v-.06c0-.89,0-1.8,0-2.7,0-.41,0-.82,0-1.21,0-.12,0-.21-.16-.21h0l-.15,0a.64.64,0,0,1-.72-.64.62.62,0,0,1,.66-.62h.06l.9,0,1.13,0h0a.63.63,0,1,1,0,1.26h-.05l-.17,0H409c-.15,0-.18.07-.18.23v.58c0,.92,0,1.83,0,2.77v.62A2.2,2.2,0,0,0,411,303a2.34,2.34,0,0,0,2.33-2.51c0-1.05,0-2.07,0-3.09v-.76c0-.19,0-.24-.21-.24Z" transform="translate(-387.74 -294.06)"/><path class="cls-2" d="M418.75,296.33c-1,0-1.08,0-1.24.54,0,.11-.06.24-.11.39a.65.65,0,0,1-.63.49.62.62,0,0,1-.65-.62,1,1,0,0,1,.06-.32c.38-1.15.59-1.67,1.86-1.67h.23l1.64,0,2.22,0h.12c.95,0,1.45.27,1.7,1,.07.19.21.46.29.72a.68.68,0,0,1,.05.27.64.64,0,0,1-.66.64.65.65,0,0,1-.64-.48,3.07,3.07,0,0,0-.11-.36c-.18-.55-.3-.57-.93-.57-1,0-1,0-1,.27,0,.89,0,2.17,0,3.44,0,.92,0,1.84,0,2.59,0,.27.12.28.34.28a.64.64,0,0,1,.69.64.63.63,0,0,1-.66.64h-.05l-1,0-1.05,0a.63.63,0,0,1-.7-.64.62.62,0,0,1,.65-.64h.05c.21,0,.33,0,.33-.27,0-1,0-2.43,0-3.91,0-.73,0-1.46,0-2.13C419.57,296.33,419.57,296.33,418.75,296.33Z" transform="translate(-387.74 -294.06)"/><path class="cls-2" d="M433.18,302.93h0a.63.63,0,0,1,.7.64.62.62,0,0,1-.67.62h-.05l-1,0-1.06,0a.66.66,0,0,1-.72-.64.62.62,0,0,1,.66-.62h.24a.19.19,0,0,0,.21-.2c0-.54,0-1,0-1.44s0-.74,0-1-.06-.24-.26-.25c-.42,0-1.06,0-1.75,0s-1.66,0-2.13,0c-.1,0-.25,0-.25.23s0,.81,0,1.48v.89c0,.12.05.24.21.24h.15a.64.64,0,0,1,.71.64.63.63,0,0,1-.68.62h0l-1,0-1.05,0h0a.63.63,0,1,1,0-1.26h.28a.17.17,0,0,0,.14-.19c0-1.21,0-2.58,0-3.86,0-.79,0-1.54,0-2.2,0-.14,0-.29-.18-.29h0l-.17,0a.64.64,0,0,1-.72-.64.61.61,0,0,1,.66-.62h.06l.88,0,1.13,0h0a.63.63,0,1,1,0,1.26h-.13c-.15,0-.24,0-.24.24,0,.43,0,.82,0,1.17s0,.61,0,.81.1.24.21.24h4c.17,0,.22-.09.22-.23s0-.47,0-.82,0-.77,0-1.22c0-.18-.11-.21-.26-.21l-.13,0a.64.64,0,0,1-.72-.64.62.62,0,0,1,.66-.62h.06l.9,0,1.13,0h0a.63.63,0,1,1,0,1.26h-.12c-.13,0-.24,0-.24.2,0,.8,0,1.78,0,2.76,0,1.19,0,2.4,0,3.33,0,.15,0,.2.2.23Z" transform="translate(-387.74 -294.06)"/><path class="cls-2" d="M441.05,304.32a3.61,3.61,0,0,1-1.64-.36.26.26,0,0,0-.11,0c-.05,0-.08,0-.12.08a.64.64,0,0,1-.52.24.59.59,0,0,1-.64-.59v-.05c0-.2,0-.45,0-.7s0-.65,0-.9v0a.58.58,0,0,1,.65-.57.58.58,0,0,1,.63.56v.1c0,.68,1,1,1.73,1,1.22,0,1.66-.78,1.66-1.32a1.61,1.61,0,0,0-.93-1.36c-.53-.3-1.2-.67-1.83-1A2.28,2.28,0,0,1,441,295a3,3,0,0,1,1.33.29h.09a.13.13,0,0,0,.1,0,.74.74,0,0,1,.52-.19c.32,0,.65.17.65.5v0c0,.23,0,.45,0,.69s0,.54,0,.76c0,.46-.43.58-.65.58a.57.57,0,0,1-.63-.53v-.05s0-.1,0-.13c0-.35-.55-.76-1.43-.76a1.13,1.13,0,0,0-1.27,1.05,1.28,1.28,0,0,0,.78,1.09c.5.26,1.32.63,1.88.93a2.83,2.83,0,0,1,1.7,2.45A2.8,2.8,0,0,1,441.05,304.32Z" transform="translate(-387.74 -294.06)"/><path class="cls-2" d="M448.15,303c1.91,0,2-.05,2.2-.78a.62.62,0,0,1,.6-.47.64.64,0,0,1,.66.64,3.19,3.19,0,0,1-.24.78c-.24.62-.68,1-1.95,1H447c-.58,0-1.11,0-1.56,0a.65.65,0,0,1-.72-.62.62.62,0,0,1,.66-.63h.12c.2,0,.26-.06.28-.24.06-.79.07-3,.07-4.78v-1.27c0-.18-.05-.28-.31-.28s-.77-.06-.77-.61a.62.62,0,0,1,.67-.61h0l1.17,0,2.55,0c1.47,0,1.65.54,1.9,1.44a.85.85,0,0,1,.05.26.62.62,0,0,1-.66.62.6.6,0,0,1-.63-.52c-.09-.44-.23-.6-.83-.6l-1.58,0c-.24,0-.32.05-.33.32,0,.54,0,1.38,0,2.18,0,.12.06.16.16.16.39,0,1,0,1.2,0s.24-.18.24-.38a.62.62,0,0,1,.63-.66.56.56,0,0,1,.58.61v0c0,.28,0,.6,0,.91s0,.74,0,1v.05a.61.61,0,0,1-1.21,0v-.05c0-.05,0-.11,0-.16s0-.25-.26-.25h-1.2c-.14,0-.18.06-.18.19,0,1.09,0,2.09,0,2.36S447.22,303,448.15,303Z" transform="translate(-387.74 -294.06)"/><path class="cls-2" d="M458.49,303.66c-.84-1.34-3.1-5.47-3.74-6.56-.1-.17-.17-.24-.22-.24s-.1.28-.1.63c0,.94,0,3.55.06,5.14a.26.26,0,0,0,.29.3h0a.63.63,0,0,1,.7.62.63.63,0,0,1-.68.63h-.05l-.93,0c-.38,0-.74,0-1,0a.65.65,0,0,1-.72-.63.61.61,0,0,1,.66-.62H453c.13,0,.24,0,.24-.27,0-1,0-2.05,0-3.09s0-2,0-2.85c0-.25,0-.31-.23-.31s-.79,0-.79-.64a.62.62,0,0,1,.66-.63h1a2,2,0,0,1,1.77,1c.88,1.5,2.59,4.67,3.41,5.91.08.11.15.18.21.18s.09-.12.09-.55c0-.91,0-3.46-.06-5,0-.28-.07-.33-.3-.33h-.1a.65.65,0,0,1-.72-.63.61.61,0,0,1,.66-.62h.06c.25,0,.55,0,.86,0s.78,0,1.1,0,.72.12.72.61a.64.64,0,0,1-.69.64h0c-.22,0-.23.14-.23.26,0,.72,0,1.55,0,2.4,0,1.46,0,3,0,4v0a1.07,1.07,0,0,1-1.07,1.13A1.18,1.18,0,0,1,458.49,303.66Z" transform="translate(-387.74 -294.06)"/><path class="cls-2" d="M465.38,304.32a3.62,3.62,0,0,1-1.65-.36l-.1,0a.14.14,0,0,0-.12.08.66.66,0,0,1-.53.24.59.59,0,0,1-.64-.59v-.05c0-.2,0-.45,0-.7s0-.65,0-.9v0a.65.65,0,0,1,1.29,0v.1c0,.68,1,1,1.72,1,1.23,0,1.66-.78,1.66-1.32a1.61,1.61,0,0,0-.93-1.36c-.52-.3-1.19-.67-1.83-1a2.28,2.28,0,0,1,1.06-4.41,3,3,0,0,1,1.33.29h.08a.15.15,0,0,0,.11,0,.7.7,0,0,1,.51-.19c.33,0,.65.17.65.5v0c0,.23,0,.45,0,.69s0,.54,0,.76c0,.46-.43.58-.65.58a.57.57,0,0,1-.63-.53v-.05s0-.1,0-.13c0-.35-.55-.76-1.43-.76a1.13,1.13,0,0,0-1.27,1.05,1.28,1.28,0,0,0,.78,1.09c.51.26,1.32.63,1.88.93a2.84,2.84,0,0,1,1.71,2.45A2.8,2.8,0,0,1,465.38,304.32Z" transform="translate(-387.74 -294.06)"/><path class="cls-2" d="M472.47,303c1.92,0,2-.05,2.21-.78a.61.61,0,0,1,.6-.47.65.65,0,0,1,.66.64,3.7,3.7,0,0,1-.24.78c-.24.62-.69,1-2,1h-2.39c-.57,0-1.11,0-1.56,0a.65.65,0,0,1-.72-.62.62.62,0,0,1,.66-.63h.12c.21,0,.27-.06.28-.24.06-.79.07-3,.07-4.78v-1.27c0-.18-.05-.28-.31-.28s-.77-.06-.77-.61a.62.62,0,0,1,.67-.61h0l1.18,0,2.54,0c1.48,0,1.66.54,1.91,1.44a1.32,1.32,0,0,1,0,.26.62.62,0,0,1-.66.62.61.61,0,0,1-.64-.52c-.08-.44-.23-.6-.83-.6l-1.58,0c-.24,0-.31.05-.32.32,0,.54,0,1.38,0,2.18,0,.12.06.16.17.16.38,0,1,0,1.2,0s.24-.18.24-.38a.61.61,0,0,1,.62-.66.57.57,0,0,1,.59.61v0c0,.28,0,.6,0,.91s0,.74,0,1v.05a.61.61,0,0,1-1.21,0v-.05c0-.05,0-.11,0-.16s0-.25-.25-.25h-1.2c-.15,0-.18.06-.18.19,0,1.09,0,2.09,0,2.36S471.55,303,472.47,303Z" transform="translate(-387.74 -294.06)"/><path class="cls-2" d="M481.88,304.33a.63.63,0,0,1-.59-.51,8.91,8.91,0,0,1-.36-2.62,13.47,13.47,0,0,1,.08-1.56c.15-1.34.42-2.53.51-3.27a.54.54,0,0,1,.55-.56.61.61,0,0,1,.62.58s0,.07,0,.1c-.08.52-.3,1.36-.47,2.23a12.06,12.06,0,0,0-.26,2.06c0,.45.07.54.1.54s.09-.07.16-.21c.34-.73.53-.87.72-.87a.53.53,0,0,1,.51.51.65.65,0,0,1-.06.23,7.24,7.24,0,0,0-.95,2.36c0,.14,0,.29,0,.43A.58.58,0,0,1,481.88,304.33Zm3.9,0a1.77,1.77,0,0,1-1.86-1.5c0-.91,1.11-1.28,2.21-1.28a6.18,6.18,0,0,1,1.12.12c0-.11,0-.22,0-.34s0-.42,0-.67c-.05-.51-.11-1.4-.15-2.34a4.51,4.51,0,0,0-2.16.88.55.55,0,0,1-.38.16.57.57,0,0,1-.55-.57c0-.26.17-.88,3.07-1.52,0-.51,0-1,0-1.37a.52.52,0,0,1,.56-.49.51.51,0,0,1,.56.46v.07c0,.33-.07.71-.08,1.11l.64-.11h.16a.54.54,0,0,1,.61.52c0,.25-.2.51-.65.57l-.78.11c0,.89.05,1.76.11,2.4a11.9,11.9,0,0,1,.1,1.33V302a4.94,4.94,0,0,1,1.38.84.69.69,0,0,1,.22.49.64.64,0,0,1-.61.67.57.57,0,0,1-.43-.21,4.18,4.18,0,0,0-.86-.7A2.79,2.79,0,0,1,485.78,304.31Zm.16-1.86c-.93,0-1,.3-1,.41s.16.44.68.44a1.74,1.74,0,0,0,1.33-.69A3.68,3.68,0,0,0,485.94,302.45Z" transform="translate(-387.74 -294.06)"/><path class="cls-2" d="M493.12,304.73a4.62,4.62,0,0,0-1.47-1.26.54.54,0,0,1-.33-.48.54.54,0,0,1,.57-.53c.42,0,2.33,1.06,2.33,1.87a.66.66,0,0,1-.64.66A.55.55,0,0,1,493.12,304.73Z" transform="translate(-387.74 -294.06)"/><path class="cls-2" d="M500.4,299.2a.32.32,0,0,1-.31.36.33.33,0,0,1-.32-.35c0-.54,0-1,0-1.48,0-.8,0-1.49,0-2.23a1.32,1.32,0,0,1,1.35-1.43h.59l1.23,0a.31.31,0,1,1,0,.62h0c-.07,0-.41,0-1.66,0a.81.81,0,0,0-.85.88c0,.47,0,.95,0,1.48s0,1.34,0,2.16Z" transform="translate(-387.74 -294.06)"/><path class="cls-2" d="M511.71,296v.17c0,.26-.27.39-.53.39s-.58-.14-.58-.39V296h-1.48v.17c0,.26-.27.39-.53.39s-.57-.14-.57-.39V296h-2.65a.45.45,0,0,1-.5-.45.49.49,0,0,1,.5-.49H508v-.39c0-.26.27-.39.54-.39s.56.13.56.39V295h1.48v-.39c0-.27.28-.4.56-.4s.55.13.55.4V295h2.74a.46.46,0,0,1,.5.46.47.47,0,0,1-.5.48Zm1.88,5.61c0-1,0-1.06-.74-1.08l-2.79,0a.39.39,0,0,1,.09.23.51.51,0,0,1-.21.38l1.86,0c.65,0,.94.31.94.68a1,1,0,0,1-.25.6c-1.18,1.35-2.77,2.53-6.62,2.53a.5.5,0,0,1-.52-.52.46.46,0,0,1,.47-.48h0c.21,0,.4,0,.59,0a8.53,8.53,0,0,0,2.52-.37c-.22-.12-.44-.23-.67-.33a.35.35,0,0,1-.25-.32.49.49,0,0,1,.5-.46,6.24,6.24,0,0,1,1.54.61,2.92,2.92,0,0,0,1.21-1.05c0-.06-.05-.07-.1-.07h-.05c-.07,0-1.65,0-2.23,0a6.87,6.87,0,0,1-2.8,1.43.47.47,0,0,1-.51-.46.49.49,0,0,1,.37-.45,8.3,8.3,0,0,0,3.16-2l-2.26,0c-.64,0-.74.15-.78.59v.53h0a.5.5,0,0,1-.56.45c-.28,0-.56-.15-.56-.46s0-.3,0-.46,0-.32,0-.51c0-.59.46-1,1.39-1l3.87,0,3.18,0a1.23,1.23,0,0,1,1.35,1.08,4.52,4.52,0,0,1,0,.51c0,.43,0,.85-.63.85a.51.51,0,0,1-.56-.49Zm-3.44-2.35h-2.78c-1.25,0-1.29-.51-1.29-1.31s.07-1.27,1.24-1.28l2.78,0,2.73,0c.62,0,1.12.13,1.12,1.28,0,.83-.17,1.3-1.21,1.31Zm-1.79-1.84h-.73c-.33,0-.5.09-.5.54s0,.5.5.5h.73Zm2.18,0h-1.18v1.06h1.18Zm1,1.06h.86c.47,0,.49-.23.49-.51s-.06-.53-.51-.53h-.84Z" transform="translate(-387.74 -294.06)"/><path class="cls-2" d="M517.18,304.8a.72.72,0,0,1-.67-.66.5.5,0,0,1,.3-.45,7.55,7.55,0,0,0,1.68-1.24c0-.54,0-1,0-1.46v-.49c0-.29-.12-.33-.55-.33h-.53c-.25,0-.68,0-.68-.5a.54.54,0,0,1,.53-.58c.43,0,.83,0,1.22,0,.78,0,1.14.35,1.14,1.12s0,1.53,0,2.29c.76,1,1.93,1.21,3.61,1.21,1.17,0,2.43-.13,3.37-.2h.06a.58.58,0,0,1,.59.58.62.62,0,0,1-.62.6c-.74.07-1.83.14-2.91.14-3.18,0-3.88-.66-4.65-1.46C518.13,304.35,517.51,304.8,517.18,304.8Zm1.53-7.81a3.82,3.82,0,0,0-1.24-1.07.44.44,0,0,1-.25-.38.63.63,0,0,1,.63-.57c.32,0,1.92.91,1.92,1.6a.69.69,0,0,1-.63.68A.53.53,0,0,1,518.71,297Zm3.69-1.4a7.65,7.65,0,0,0,.16-.78.57.57,0,0,1,.62-.48.61.61,0,0,1,.68.55,2.23,2.23,0,0,1-.19.7h1.24c.55,0,1,.31,1,.79,0,.3.05.64.05.94,0,.79-.08,1.4-1.23,1.44l-1.74,0-1.15,0v.8l1.95,0h1.26c.86,0,1.2.44,1.21.95,0,.19,0,.38,0,.57,0,.35,0,.7,0,1a1,1,0,0,1-1,.84c-.64,0-1.4,0-2.09,0-1.4,0-2.39,0-2.41-1.11,0-.55,0-1.15,0-1.75,0-1.2,0-2.42,0-3.44a1,1,0,0,1,1.13-1.07Zm.89,2.28c1.51,0,1.51,0,1.51-.62s0-.77-.39-.77h-1.49c-1,0-1.07,0-1.07.55v.83C522.23,297.87,522.77,297.87,523.29,297.87Zm-1.44,2.88v.67c0,.53.09.55,1.48.55,1.6,0,1.74,0,1.77-.36,0-.11,0-.26,0-.41s0-.32,0-.44a.38.38,0,0,0-.41-.31H524c-.71,0-1.56,0-2.19,0Z" transform="translate(-387.74 -294.06)"/><path class="cls-2" d="M532.42,303.33a2.29,2.29,0,0,1-1.43-.63,6.24,6.24,0,0,1-1.75-3.61c-.09-.45-.23-1.18-.23-1.28a.59.59,0,0,1,.6-.58.62.62,0,0,1,.6.57c.08.38.1.79.17,1.17.49,2.8,1.62,2.91,1.69,2.91s.23-.1.34-.39.19-.63.33-1a.47.47,0,0,1,.45-.33.64.64,0,0,1,.63.6s0,.06,0,.09c-.07.4-.31,1.18-.35,1.55A1,1,0,0,1,532.42,303.33ZM537,300.6a4.27,4.27,0,0,0-1.57-2.42.47.47,0,0,1-.21-.38.52.52,0,0,1,.54-.49.76.76,0,0,1,.5.2c.51.43,2,1.75,2,3a.66.66,0,0,1-.66.69A.59.59,0,0,1,537,300.6Z" transform="translate(-387.74 -294.06)"/><path class="cls-2" d="M545.92,297a.31.31,0,0,1,0,.1,7.61,7.61,0,0,0,4.39,6.23.61.61,0,0,1,.47.59.76.76,0,0,1-.79.73c-1,0-3.55-2.18-4.6-4.91a8.05,8.05,0,0,1-4.31,5,.77.77,0,0,1-.35.08.69.69,0,0,1-.7-.66.65.65,0,0,1,.45-.59c4.09-1.82,4.19-6,4.19-6.93,0-.36,0-.77,0-1.13v0a.61.61,0,0,1,.67-.6.62.62,0,0,1,.66.63c0,.42,0,.94-.05,1.45Z" transform="translate(-387.74 -294.06)"/><path class="cls-2" d="M559.12,304.25H559c-2.6-.24-4.25-2-4.25-3.89a3.37,3.37,0,0,1,.87-2.19c0-.05.06-.08.06-.11l0,0-.12,0c-1.88,1-2.11,1-2.37,1a.64.64,0,0,1-.18-1.27c.25-.09.93-.29,1.29-.42.57-.21,1.56-.52,2.75-1a9.11,9.11,0,0,1,3.18-.75c.6,0,.81.28.81.59,0,.61-.5.74-1,.74h-.56c-1.86,0-3.68,1.58-3.68,3.19,0,1.44,1.37,2.66,3.25,2.66.6,0,.89.35.89.71S559.67,304.25,559.12,304.25Zm1-4.21a4.76,4.76,0,0,0-1-.74.42.42,0,0,1-.3-.38.51.51,0,0,1,.53-.46c.15,0,1.62.55,1.62,1.17a.58.58,0,0,1-.52.57A.41.41,0,0,1,560.15,300Zm1.38-1a4.13,4.13,0,0,0-1-.7c-.22-.09-.32-.23-.32-.37a.52.52,0,0,1,.53-.48c.19,0,1.63.51,1.63,1.14a.56.56,0,0,1-.5.56A.43.43,0,0,1,561.53,299Z" transform="translate(-387.74 -294.06)"/><path class="cls-2" d="M564.88,299.2a4.87,4.87,0,0,0-1.39-.77.41.41,0,0,1-.3-.39.59.59,0,0,1,.58-.58,4.5,4.5,0,0,1,1.75.71.6.6,0,0,1,.25.5.63.63,0,0,1-.55.66A.49.49,0,0,1,564.88,299.2Zm-.93,5.45a.62.62,0,0,1-.63-.58.55.55,0,0,1,.14-.36,8.79,8.79,0,0,0,1.48-2.9.53.53,0,0,1,.51-.36.56.56,0,0,1,.57.55,8.65,8.65,0,0,1-1.5,3.32A.7.7,0,0,1,564,304.65Zm1.41-8.15a4.94,4.94,0,0,0-1.2-1,.45.45,0,0,1-.23-.37.61.61,0,0,1,.6-.54c.29,0,1.84.77,1.84,1.44a.67.67,0,0,1-.61.65A.52.52,0,0,1,565.36,296.5Zm.95,8.05a.48.48,0,1,1,0-1H567c0-.74,0-1.62,0-2.13,0-.7.47-1,1.2-1.06h3.3a1.09,1.09,0,0,1,1.21,1.07c0,.31,0,.73,0,1.17s0,.64,0,.95h.66a.48.48,0,1,1,0,1Zm6.88-6.85-1.88,0a6.4,6.4,0,0,0,2.38,1.87.52.52,0,0,1,.31.48.62.62,0,0,1-.6.61c-.52,0-2.14-1.29-3.17-3h-.81c-.95,1.78-2.46,3.08-3,3.08a.51.51,0,0,1-.23-1,5.86,5.86,0,0,0,2.08-2.09l-1.47,0h0a.48.48,0,0,1-.51-.5.49.49,0,0,1,.52-.52h3.44a14.42,14.42,0,0,0,.77-1.77.49.49,0,0,1,.5-.39.66.66,0,0,1,.66.59,6.8,6.8,0,0,1-.79,1.57h1.77a.49.49,0,0,1,.5.52.48.48,0,0,1-.48.5Zm-4.61-1.08a.43.43,0,0,1-.41-.27,3.77,3.77,0,0,0-.71-1,.42.42,0,0,1-.13-.31.55.55,0,0,1,.56-.51c.55,0,1.31,1.12,1.31,1.45A.63.63,0,0,1,568.58,296.62Zm0,4.61h-.23a.39.39,0,0,0-.42.37c0,.48,0,1.31,0,2h.66Zm1.52,0h-.61v2.37h.61Zm1.62,2.36c0-1.4,0-1.71,0-2a.41.41,0,0,0-.45-.37H571v2.36Z" transform="translate(-387.74 -294.06)"/></g><g class="cls-1"><path class="cls-2" d="M389,326.48s.08-.1.17-.24.23-.38.35-.58a13.86,13.86,0,0,1,.91-1.3,7.24,7.24,0,0,0,.4-.78l0-.33a4.39,4.39,0,0,0-1.07.53.74.74,0,0,1-.43.16.49.49,0,0,1-.46-.52c0-.4.1-.53,2.09-1.39.09-1,.17-1.85.17-2.38a.52.52,0,0,1,.54-.56.58.58,0,0,1,.6.55c0,.36-.15,1.56-.22,2.17a.49.49,0,0,1,.28.48,4.53,4.53,0,0,1,2.71-1.54,1.28,1.28,0,0,1,1.28,1.43,2,2,0,0,1,0,.24c-.09.78-.43,2.05-.57,3.16a3,3,0,0,0,0,.4c0,.38.13.53.56.53a3.42,3.42,0,0,0,1.33-.38.85.85,0,0,1,.33-.07.53.53,0,0,1,.52.56.7.7,0,0,1-.44.65,4.47,4.47,0,0,1-1.72.37c-.92,0-1.72-.3-1.72-1.51a2.59,2.59,0,0,1,.05-.54c.16-1.09.49-2.35.54-3.13v-.13c0-.4-.15-.54-.36-.54-.64,0-2,1.32-3,2.51-.05.64-.09,1.29-.09,1.9a10.92,10.92,0,0,0,.12,1.69.3.3,0,0,1,0,.13.63.63,0,0,1-.64.63c-.64,0-.65-.71-.65-1.57,0-.42,0-.88.05-1.37-.26.43-.52.93-.73,1.35a1,1,0,0,1-.84.63.45.45,0,0,1-.48-.45,1.21,1.21,0,0,1,.36-.69Z" transform="translate(-387.74 -294.06)"/><path class="cls-2" d="M406,325.22c0-1.26-1.52-1.26-1.63-1.26a4,4,0,0,0-2.87,1.59.6.6,0,0,1-.48.24.62.62,0,0,1-.63-.57.71.71,0,0,1,.24-.5,30.46,30.46,0,0,0,3.48-4s0,0,0,0l-.08,0a6,6,0,0,1-2.4.88A.59.59,0,0,1,401,321a.53.53,0,0,1,.51-.53,11.72,11.72,0,0,0,3-.81,1,1,0,0,1,.43-.1.76.76,0,0,1,.8.71.87.87,0,0,1-.28.59c-.82.78-1.74,1.8-2.49,2.64a3.09,3.09,0,0,1,1.71-.49,2.32,2.32,0,0,1,2.53,2.12c0,1.6-1.65,3.14-3.73,3.14-1.44,0-2.19-.83-2.19-1.54a1.23,1.23,0,0,1,1.34-1.12,1.71,1.71,0,0,1,1.87,1.49A2.34,2.34,0,0,0,406,325.22Zm-3.27,1.28c-.41,0-.42.26-.42.31,0,.47.81.53,1.11.53h.09C403.48,326.82,403.22,326.5,402.74,326.5Z" transform="translate(-387.74 -294.06)"/><path class="cls-2" d="M418.69,320.46c-.89,0-1.82,0-2.74,0a.31.31,0,0,1,.19.29v.67h1.44c1,0,1.16.44,1.16,1.41,0,.79,0,1.34-1.24,1.35h-6.27c-.14,2-.73,4.31-1.63,4.31a.58.58,0,0,1-.58-.58.61.61,0,0,1,.15-.4c.89-1.07,1-3.39,1-5.05,0-.75,0-1.36,0-1.68v0a1.16,1.16,0,0,1,1.28-1.22c.77,0,1.61,0,2.47,0v-.67a.63.63,0,0,1,1.25,0v.67c1.19,0,2.39,0,3.52,0a.45.45,0,0,1,.47.47.46.46,0,0,1-.45.49ZM413,326.24v1.19c.52-.12,1-.25,1.37-.37a.44.44,0,0,1,.15,0,.46.46,0,0,1,.46.47.52.52,0,0,1-.42.5,19.77,19.77,0,0,1-3.43.83.53.53,0,0,1-.07-1.06c.3,0,.61-.08.9-.13v-2.84a.52.52,0,1,1,1,0v.47h1.4a.48.48,0,1,1,0,1Zm-.23-5.51a.29.29,0,0,1,.18-.27h-1.15c-.39,0-.53.16-.53.46v.48h1.49Zm0,1.54h-1.47c0,.31,0,.67,0,1l1.5,0Zm2.35-1.54a.31.31,0,0,1,.19-.29h-1.7a.32.32,0,0,1,.18.29v.67h1.33Zm0,1.54H413.8v1.07h1.33Zm1.08,5c0,.48.23.55.91.55s1.19-.21,1.19-.88a.45.45,0,0,1,.48-.48.57.57,0,0,1,.6.6c0,1-.51,1.75-2.3,1.75-.91,0-1.92-.11-1.92-1.38,0-.72,0-2,0-2.64a.51.51,0,0,1,.52-.53.51.51,0,0,1,.53.52h0l0,.82a15,15,0,0,0,1.9-.72.41.41,0,0,1,.21-.05.55.55,0,0,1,.52.55.53.53,0,0,1-.37.5,13,13,0,0,1-2.27.65Zm-.07-3.9c1.36,0,1.45,0,1.5-.31a1.49,1.49,0,0,0,0-.25c0-.41-.07-.5-.37-.5h-1.14Z" transform="translate(-387.74 -294.06)"/><path class="cls-2" d="M421.78,328.87a.6.6,0,0,1-.61-.61.53.53,0,0,1,.51-.54,3,3,0,0,0,3-2.86.57.57,0,0,1,1.14,0v0A4.24,4.24,0,0,1,421.78,328.87Zm.84-9.79a.53.53,0,0,1,.58-.5.52.52,0,0,1,.57.5l0,4.72c0,.3-.29.46-.58.46a.51.51,0,0,1-.57-.46Zm5.18-.38c.56,0,1.11,0,1.56,0a1.15,1.15,0,0,1,1.2,1c0,.5.05,1.21.05,1.86,0,.4,0,.77,0,1.06a1.28,1.28,0,0,1-1.27,1.16c-.47,0-1,0-1.52,0s-1.11,0-1.59,0a1.24,1.24,0,0,1-1.31-1.15c0-.18,0-.39,0-.61,0-.75,0-1.68.05-2.26a1.17,1.17,0,0,1,1.26-1.1C426.68,318.7,427.24,318.7,427.8,318.7Zm-1.85,3c0,.32,0,.59,0,.76,0,.45.36.47,1.86.47,1.14,0,1.63,0,1.65-.49,0-.16,0-.44,0-.74Zm3.55-.91c0-.27,0-.51,0-.66,0-.49-.25-.5-1.76-.5-.45,0-.88,0-1.21,0-.54,0-.54.31-.54,1.14Zm-2.25,3.52a.51.51,0,0,1,.57.5c0,.47,0,1.45,0,2s0,.8,1.13.8,1.44-.27,1.44-1a.5.5,0,0,1,.55-.51.58.58,0,0,1,.64.59c0,1.64-1.11,2-2.73,2-1.11,0-2.18-.05-2.18-1.4,0-.47,0-2.08,0-2.46A.54.54,0,0,1,427.25,324.32Z" transform="translate(-387.74 -294.06)"/><path class="cls-2" d="M436,324.34v.08c0,.41.3.45.65.45h.72c1.28,0,3.25,0,4.63.05.86,0,1.25.36,1.25,1a2.92,2.92,0,0,1-3,3,6.25,6.25,0,0,1-1.3-.15.46.46,0,0,1-.34-.46.6.6,0,0,1,.1-.32h-3.6c-1,0-1.29-.47-1.3-1.05,0-.17,0-.46,0-.64a.53.53,0,0,1,.57-.51.52.52,0,0,1,.57.49v0c0,.1,0,.32,0,.44,0,.42.08.42,1.54.42v-1.27h-.18c-.77,0-1.34-.3-1.39-1.19,0-.41,0-1,0-1.73,0-.84,0-1.74,0-2.38a1.09,1.09,0,0,1,1.2-1.15c.34,0,.74,0,1.19,0,.06-.23.13-.51.17-.74a.6.6,0,0,1,.63-.46c.33,0,.67.19.67.51a2.82,2.82,0,0,1-.21.69c.61,0,1.2,0,1.65,0,1,0,1.25.51,1.3.83s0,.71,0,1.13c0,.76,0,1.5-1.32,1.54l-3.13,0H436c0,.14,0,.33,0,.53H443a.46.46,0,1,1,0,.91Zm0-2.81v.57h1.4c1,0,2,0,2.65-.05a.39.39,0,0,0,.42-.39s0-.09,0-.14Zm4.49-.73c0-.07,0-.12,0-.17,0-.26-.14-.39-.44-.4s-1,0-1.67,0-1.36,0-1.87,0a.45.45,0,0,0-.48.5v.07Zm-.15,6.05a1,1,0,0,1-.66,1,4.65,4.65,0,0,0,.61.06,1.69,1.69,0,0,0,1.73-1.74c0-.23-.11-.31-.38-.33h-4v1.3c1.57,0,1.59,0,1.59-.54a.9.9,0,0,0,0-.24v0c0-.28.27-.42.54-.42s.58.15.59.44Z" transform="translate(-387.74 -294.06)"/><path class="cls-2" d="M450.23,325.2c0,.21,0,.42,0,.66a.72.72,0,0,1-.65.74.51.51,0,0,1-.49-.57v-.11a7.8,7.8,0,0,0,.05-.8c-.25.13-1.37.72-1.37,1.48,0,.2.1.91,1.32.91a5.48,5.48,0,0,0,1.51-.26,1.18,1.18,0,0,1,.3,0,.57.57,0,0,1,.62.56c0,.25-.09.86-2.14.86s-2.69-1-2.69-1.9c0-1.47,1.7-2.38,2.33-2.7-.15-.47-.39-.71-.71-.71a1.11,1.11,0,0,0-.62.22c-.51.56-.81.73-1.07.73a.48.48,0,0,1-.52-.46.65.65,0,0,1,.28-.49,6,6,0,0,0,1.53-1.82,4.13,4.13,0,0,1-.58.05c-1.22,0-1.23-.68-1.23-.77a.51.51,0,0,1,.49-.53.77.77,0,0,1,.44.16.8.8,0,0,0,.44.09,4.54,4.54,0,0,0,.95-.13,4.47,4.47,0,0,0,.21-.95.48.48,0,0,1,.51-.42.61.61,0,0,1,.64.53,1.84,1.84,0,0,1-.07.44c.36-.18.41-.19.49-.19a.52.52,0,0,1,.52.53c0,.4-.31.64-1.56.94-.18.37-.42.78-.68,1.2a1.6,1.6,0,0,1,1.51,1.12,13.76,13.76,0,0,1,2.77-1,.64.64,0,0,1,.67.63.49.49,0,0,1-.32.46c-.37.16-.77.21-1.39.4s-1,.35-1.49.54A5.24,5.24,0,0,1,450.23,325.2Z" transform="translate(-387.74 -294.06)"/><path class="cls-2" d="M455.55,328.37a.54.54,0,0,1-.55-.53.57.57,0,0,1,.17-.39,5,5,0,0,0,1.07-3.48c0-.39,0-.73,0-1,0-.76.58-1,1.13-1h1l1.41,0c.72,0,1.15.28,1.19.88,0,.22,0,.5,0,.79,0,1.24,0,1.71-1.19,1.72-.64,0-1.25,0-1.88,0h-.79C456.9,327,456.19,328.37,455.55,328.37Zm2.05-6.85a.44.44,0,0,1-.43-.27c-1.07,1.1-1.43,1.12-1.53,1.12a.62.62,0,0,1-.63-.57.56.56,0,0,1,.29-.47,9.13,9.13,0,0,0,2.21-2.17,1.24,1.24,0,0,1,1.05-.61,1.48,1.48,0,0,1,1.13.61,11.84,11.84,0,0,0,1.88,1.75.49.49,0,0,1,.22.4.66.66,0,0,1-.62.62c-.2,0-.35-.05-1.11-.8a.42.42,0,0,1-.45.39Zm1.42,7.22c-1.52,0-2.15,0-2.15-1.17,0-.82,0-1.61.95-1.67.38,0,.78,0,1.17,0s.82,0,1.22,0a1,1,0,0,1,.94.79,4.63,4.63,0,0,1,0,.54c0,.6,0,1.42-1,1.48Zm-1.79-4.69c0,.17,0,.35,0,.54h2.4a.3.3,0,0,0,.33-.31c0-.07,0-.14,0-.23Zm2.72-.73c0-.08,0-.18,0-.24a.29.29,0,0,0-.33-.29h-2c-.34,0-.41.2-.41.45v.08Zm-.32-2.66-.71-.83c-.12-.13-.21-.19-.31-.19s-.19.08-.29.21a8.58,8.58,0,0,1-.61.81Zm-.52,6.08h-.84c-.33,0-.36.28-.36.63s0,.44,1.11.44,1.09,0,1.09-.51S460.1,326.74,459.11,326.74Zm2.89-7a.56.56,0,0,1,1.11,0v6.12a.56.56,0,0,1-1.11,0Zm3.28,7.46v0c0,.72-.46,1.58-1.84,1.58-1,0-1.32-.22-1.32-.69a.55.55,0,0,1,.5-.6h.12a3.59,3.59,0,0,0,.74.14c.32,0,.6-.14.61-.65s0-3.78,0-6v-1.89a.54.54,0,0,1,.58-.56.54.54,0,0,1,.57.56v6.64Z" transform="translate(-387.74 -294.06)"/><path class="cls-2" d="M473.45,325.22c0-1.26-1.52-1.26-1.63-1.26a4,4,0,0,0-2.87,1.59.6.6,0,0,1-.48.24.62.62,0,0,1-.63-.57.71.71,0,0,1,.24-.5,30.46,30.46,0,0,0,3.48-4s0,0,0,0l-.08,0a6,6,0,0,1-2.4.88.59.59,0,0,1-.62-.59.52.52,0,0,1,.5-.53,11.72,11.72,0,0,0,3-.81,1,1,0,0,1,.43-.1.76.76,0,0,1,.8.71.87.87,0,0,1-.28.59c-.82.78-1.74,1.8-2.49,2.64a3.09,3.09,0,0,1,1.71-.49,2.32,2.32,0,0,1,2.53,2.12c0,1.6-1.65,3.14-3.73,3.14-1.44,0-2.19-.83-2.19-1.54a1.23,1.23,0,0,1,1.34-1.12,1.71,1.71,0,0,1,1.87,1.49A2.34,2.34,0,0,0,473.45,325.22Zm-3.27,1.28c-.41,0-.42.26-.42.31,0,.47.81.53,1.11.53H471C470.92,326.82,470.66,326.5,470.18,326.5Z" transform="translate(-387.74 -294.06)"/><path class="cls-2" d="M479.36,323.92a.32.32,0,0,1,.31-.36.32.32,0,0,1,.32.35c0,.54,0,1,0,1.49,0,.79,0,1.48,0,2.23a1.31,1.31,0,0,1-1.35,1.42c-.21,0-.4,0-.59,0-.42,0-.79,0-1.22,0a.31.31,0,1,1,0-.62h.05c.07,0,.41,0,1.66,0a.81.81,0,0,0,.85-.88c0-.47,0-.95,0-1.48s0-1.34,0-2.16Z" transform="translate(-387.74 -294.06)"/><path class="cls-2" d="M488.87,325.2c0,.21,0,.42,0,.66a.72.72,0,0,1-.65.74.51.51,0,0,1-.49-.57v-.11a5.72,5.72,0,0,0,.05-.8c-.26.13-1.37.72-1.37,1.48,0,.2.1.91,1.32.91a5.48,5.48,0,0,0,1.51-.26,1.18,1.18,0,0,1,.3,0,.57.57,0,0,1,.62.56c0,.25-.09.86-2.14.86s-2.69-1-2.69-1.9c0-1.47,1.7-2.38,2.33-2.7-.15-.47-.39-.71-.71-.71a1.11,1.11,0,0,0-.62.22c-.51.56-.81.73-1.07.73a.48.48,0,0,1-.52-.46.65.65,0,0,1,.28-.49,6,6,0,0,0,1.53-1.82,4.13,4.13,0,0,1-.58.05c-1.22,0-1.23-.68-1.23-.77a.51.51,0,0,1,.49-.53.77.77,0,0,1,.44.16.8.8,0,0,0,.44.09,4.54,4.54,0,0,0,1-.13,4.47,4.47,0,0,0,.21-.95.48.48,0,0,1,.51-.42.61.61,0,0,1,.64.53,1.84,1.84,0,0,1-.07.44c.36-.18.41-.19.49-.19a.52.52,0,0,1,.52.53c0,.4-.31.64-1.56.94-.18.37-.42.78-.68,1.2a1.6,1.6,0,0,1,1.51,1.12,13.54,13.54,0,0,1,2.77-1,.64.64,0,0,1,.67.63.49.49,0,0,1-.32.46c-.37.16-.77.21-1.39.4s-1,.35-1.49.54A5.24,5.24,0,0,1,488.87,325.2Z" transform="translate(-387.74 -294.06)"/><path class="cls-2" d="M496.09,325.71c0,.57.22.85.93,1a7.6,7.6,0,0,0,3.28-.42c1-.57,1.79.68.44,1.28a9.54,9.54,0,0,1-4.16.32,1.72,1.72,0,0,1-1.67-1.78c0-1.19.07-2.13.13-3.53A6.58,6.58,0,0,0,495,321a.68.68,0,1,1,1.34,0,10.62,10.62,0,0,1,0,1.5c0,.3,0,.57,0,.83a12.22,12.22,0,0,0,2.19-.64,3.44,3.44,0,0,0,1-.56c.64-.54,1.71.26,1,1a3.72,3.72,0,0,1-1.23.62,17.31,17.31,0,0,1-3.1.84C496.12,324.9,496.11,325.28,496.09,325.71Zm4.21-4.33c-.6-.25-.14-1,.42-.77a3.9,3.9,0,0,1,1.17.72c.47.49-.23,1.22-.62.76A4,4,0,0,0,500.3,321.38Zm1.08-1c-.62-.24-.18-1,.38-.78a4,4,0,0,1,1.2.68c.48.48-.19,1.21-.6.77A4.47,4.47,0,0,0,501.38,320.36Z" transform="translate(-387.74 -294.06)"/><path class="cls-2" d="M506.8,324.56a4.25,4.25,0,0,0-1.48-.62c-.72-.11-.48-1.25.39-1.09a6.4,6.4,0,0,1,1.75.61.62.62,0,0,1,.25.89A.61.61,0,0,1,506.8,324.56Zm-.06,3.69c-1,.12-1.16-1.13-.39-1.25a3.8,3.8,0,0,0,.92-.3,13.2,13.2,0,0,0,5.48-5.5c.41-.76,1.61-.23,1.06.72a15.19,15.19,0,0,1-5.9,5.92A2.78,2.78,0,0,1,506.74,328.25Zm1.51-5.83a4.37,4.37,0,0,0-1.32-.92c-.67-.28-.18-1.34.64-1a6.23,6.23,0,0,1,1.57,1,.64.64,0,1,1-.89.91Zm2.56-2.16c-.6-.25-.13-1,.42-.76a4.08,4.08,0,0,1,1.17.71c.47.5-.22,1.23-.62.76A4.33,4.33,0,0,0,510.81,320.26Zm1.08-1c-.61-.24-.18-1,.38-.78a3.63,3.63,0,0,1,1.2.69c.48.48-.19,1.21-.6.77A4.51,4.51,0,0,0,511.89,319.24Z" transform="translate(-387.74 -294.06)"/><path class="cls-2" d="M520.53,326.68c0,.26-.23.48-.65.52l-.59,0c-.38,0-2.23.24-2.53.28a4.63,4.63,0,0,1-.84.05c-.67-.06-.7-1,.12-.95a5.81,5.81,0,0,0,.59,0l2.45-.3c0-.28.12-.6.18-.91l-.13,0-.59.06c-.37,0-.87.14-1.15.19a4.54,4.54,0,0,1-.82.07c-.66,0-.78-.92,0-.93a6,6,0,0,0,.6,0l1.28-.17c.21,0,.46-.09.68-.11a.56.56,0,0,1,.29.05c.06-.29.1-.52.13-.64s0-.24-.22-.21c-.4.06-1.76.26-2.08.32a5.49,5.49,0,0,1-1,.11.49.49,0,1,1,0-1,5.29,5.29,0,0,0,.8,0c.3-.05,1.72-.19,2-.24a7.73,7.73,0,0,1,.84-.13c.86,0,1,.67.86,1a10.28,10.28,0,0,0-.43,1.47c-.08.35-.15.71-.23,1A.46.46,0,0,1,520.53,326.68Z" transform="translate(-387.74 -294.06)"/><path class="cls-2" d="M526,323.11a5,5,0,0,0-1.7-.82c-.72-.16-.42-1.36.49-1.13a7.32,7.32,0,0,1,2,.81.69.69,0,0,1,.2,1A.65.65,0,0,1,526,323.11Zm.51,4.52a2.66,2.66,0,0,1-1.15.38c-1,.08-1.14-1.18-.37-1.26a3.8,3.8,0,0,0,.92-.3,11.68,11.68,0,0,0,5.33-5.28c.4-.75,1.61-.25,1.08.71A13.58,13.58,0,0,1,526.49,327.63Z" transform="translate(-387.74 -294.06)"/><path class="cls-2" d="M534.78,327.87a7.68,7.68,0,0,1-.32-2.29,35.33,35.33,0,0,1,.68-5,.59.59,0,0,1,1.17,0,.31.31,0,0,1,0,.09,28.53,28.53,0,0,0-.78,4.28c0,.45.08.5.12.5s.06,0,.08-.09c.37-.71.46-.85.71-.85a.52.52,0,0,1,.49.5.35.35,0,0,1-.06.22,6.43,6.43,0,0,0-.9,2.25c0,.11,0,.22,0,.33a.56.56,0,0,1-.6.62A.63.63,0,0,1,534.78,327.87Zm6.66-.08c-2.07,0-3.65-1.23-3.65-1.82a.59.59,0,0,1,.62-.56.71.71,0,0,1,.54.26,3,3,0,0,0,2.33.81,7.23,7.23,0,0,0,1-.08h.14a.56.56,0,0,1,.6.58C543,327.59,542.51,327.79,541.44,327.79Zm-1.35-5.26a6.88,6.88,0,0,1-1.62-.18.55.55,0,0,1,0-1.1h.12a5.86,5.86,0,0,0,1.16.12,11.52,11.52,0,0,0,1.48-.12h.1a.55.55,0,0,1,.58.56C542,322.29,541.62,322.53,540.09,322.53Z" transform="translate(-387.74 -294.06)"/><path class="cls-2" d="M546.06,324.77c-.77.41-.87.45-1.06.45a.58.58,0,0,1-.56-.58.53.53,0,0,1,.34-.49c.46-.19.88-.37,1.28-.57v-1.81h-1a.51.51,0,0,1-.53-.54.49.49,0,0,1,.51-.51h1v-1.87a.55.55,0,0,1,.57-.57.53.53,0,0,1,.54.57v1.87h.62a.53.53,0,1,1,0,1h-.62V323l.5-.32a.43.43,0,0,1,.25-.09.5.5,0,0,1,.46.51c0,.26-.08.37-1.21,1.06v1.57c0,.2,0,1.29,0,1.71v.05a1.3,1.3,0,0,1-1.48,1.34c-.8,0-1.07-.22-1.07-.65a.49.49,0,0,1,.45-.55h.11a2.2,2.2,0,0,0,.37.05c.27,0,.5-.09.5-.4Zm3.91,1.38c0,.41.16.48.88.48.88,0,1.19-.2,1.19-.75a.42.42,0,0,1,.46-.42.5.5,0,0,1,.57.5c0,1.39-1.19,1.54-2.24,1.54-1.37,0-1.86-.37-1.86-1.19,0-.4,0-.93,0-1.35a3.15,3.15,0,0,1-1.25.74.54.54,0,0,1-.53-.51.42.42,0,0,1,.24-.38,6.07,6.07,0,0,0,2.34-2.2h0c-1.19-.08-1.2-.71-1.2-1.51,0-.44,0-.92,0-1.32a1.12,1.12,0,0,1,1.19-1l1.42,0,1.45,0a1.17,1.17,0,0,1,1.16,1,9.18,9.18,0,0,1,0,.94c0,.33,0,.65,0,.95,0,.63-.5,1-1.2,1s-1.17,0-1.71,0l-.37.6h3.16a1.1,1.1,0,0,1,1.19,1.19c0,2.05-.06,4.41-2.58,4.41a4.84,4.84,0,0,1-1.1-.15.52.52,0,0,1-.41-.51.56.56,0,0,1,.56-.56l.18,0a3.46,3.46,0,0,0,.87.13c.79,0,1.35-.39,1.35-3v-.17c0-.3-.15-.42-.39-.42H549.8l-.09.1a.41.41,0,0,1,.28.4v.45a14.54,14.54,0,0,0,1.84-.66.58.58,0,0,1,.2-.05.48.48,0,0,1,.46.48.47.47,0,0,1-.34.45,16.29,16.29,0,0,1-2.17.6Zm2.74-5.08h-3.13c0,.1,0,.21,0,.31,0,.39.26.41,1.48.41,1.45,0,1.62,0,1.64-.42Zm0-.84c0-.07,0-.14,0-.19,0-.47-.07-.47-1.51-.47l-1.16,0c-.35,0-.42.23-.43.46l0,.18Z" transform="translate(-387.74 -294.06)"/></g><g class="cls-1"><path class="cls-2" d="M390.5,344c0,.36-.13.91-.21,1.5a14.6,14.6,0,0,0-.12,1.77,9,9,0,0,0,.56,3.25.88.88,0,0,1,0,.27.61.61,0,0,1-.62.61.66.66,0,0,1-.62-.46,8.85,8.85,0,0,1-.47-3.16c0-.84.06-1.65.11-2.28s.1-1,.14-1.55a.6.6,0,0,1,1.19,0Zm3.74,2.35a14.27,14.27,0,0,1-2,.32.6.6,0,0,1-.64-.59c0-.27.21-.53.64-.53a6.91,6.91,0,0,0,2.13-.28c0-.68-.06-1.18-.09-1.48,0,0,0-.07,0-.1a.52.52,0,0,1,.57-.54.66.66,0,0,1,.69.55c0,.13,0,.28,0,.46s0,.54,0,.89a4.16,4.16,0,0,1,.84-.14c.4,0,.59.24.59.5a.64.64,0,0,1-.62.61l-.81.12c0,.41,0,.85,0,1.37,0,.13,0,.26,0,.38a5.26,5.26,0,0,1-3.19,5.11.7.7,0,0,1-.31.07.61.61,0,0,1-.61-.59.55.55,0,0,1,.38-.5,4.25,4.25,0,0,0,2.59-4.29c0-.16,0-.92,0-1.37Zm1.95-2.47a4.25,4.25,0,0,0-.64-1,.47.47,0,0,1-.16-.33.44.44,0,0,1,.46-.38c.45,0,1.24,1.09,1.24,1.45a.56.56,0,0,1-.54.54A.4.4,0,0,1,396.19,343.9Zm1.43-.57a3.92,3.92,0,0,0-.69-1,.41.41,0,0,1-.17-.31.44.44,0,0,1,.47-.39c.48,0,1.27,1.08,1.27,1.41a.55.55,0,0,1-.53.53A.36.36,0,0,1,397.62,343.33Z" transform="translate(-387.74 -294.06)"/><path class="cls-2" d="M401,347.24a4.68,4.68,0,0,0-1.4-.77.4.4,0,0,1-.3-.4.59.59,0,0,1,.57-.57,4.25,4.25,0,0,1,1.76.71.61.61,0,0,1,.26.5.65.65,0,0,1-.56.66A.53.53,0,0,1,401,347.24Zm-.64,5.42a.63.63,0,0,1-.63-.59.61.61,0,0,1,.14-.36,10.88,10.88,0,0,0,1.61-2.85.5.5,0,0,1,.48-.33.58.58,0,0,1,.6.55,10.4,10.4,0,0,1-1.63,3.27A.71.71,0,0,1,400.36,352.66Zm1.17-8.05a5.45,5.45,0,0,0-1.21-1,.44.44,0,0,1-.23-.38.59.59,0,0,1,.6-.53c.2,0,1.84.75,1.84,1.45a.66.66,0,0,1-.61.64A.52.52,0,0,1,401.53,344.61Zm5.25,2.27v1.51l.9,0a1.32,1.32,0,0,1,1.4,1.13c0,.34,0,.7,0,1s0,.55,0,.82c0,.71-.5,1.17-1.41,1.25-.36,0-.9,0-1.44,0-1.82,0-2.81-.06-2.85-1.26,0-.34,0-.69,0-1s0-.56,0-.81a1.25,1.25,0,0,1,1.35-1.18l.89,0v-1.51h-2.47a.53.53,0,1,1,0-1.06h2.47v-1.41c-.69.08-1.76.15-1.93.15a.52.52,0,0,1-.55-.55.49.49,0,0,1,.49-.53,15,15,0,0,0,4.48-.64.7.7,0,0,1,.23,0,.54.54,0,0,1,.54.55c0,.44-.23.6-2.11.9v1.57h2.54a.53.53,0,1,1,0,1.06Zm1.13,2.95c-.05-.49-.25-.49-1.71-.49l-1.12,0c-.56,0-.56.29-.56,1,0,.25,0,.51,0,.73,0,.57.42.57,1.7.57,1.69,0,1.69,0,1.69-1.17C407.93,350.27,407.92,350,407.91,349.83Z" transform="translate(-387.74 -294.06)"/><path class="cls-2" d="M413.73,350.24l-1.59,0h0a.42.42,0,0,1-.46-.42.44.44,0,0,1,.48-.42h1.59V349c-1.76,0-1.92,0-1.92-1.7,0-1.48.34-1.49,1.93-1.49v-.49h-1.82a.45.45,0,0,1-.48-.43.44.44,0,0,1,.48-.43h1.82v-.5c-.68,0-1.26,0-1.5,0a.47.47,0,0,1-.5-.48.45.45,0,0,1,.49-.45h0l.73,0a13.85,13.85,0,0,0,2.95-.34h.12a.49.49,0,0,1,.49.49c0,.36-.24.48-1.82.65l0,.59h1.78a.44.44,0,0,1,.49.43s0,.06,0,.08a.47.47,0,0,1,.27-.07h1V343a.51.51,0,0,1,.55-.53.54.54,0,0,1,.58.53l0,1.87h.9a1.24,1.24,0,0,1,1.29,1.33c0,.35,0,.71,0,1.07,0,2.3-.22,5.29-2.45,5.29a3.4,3.4,0,0,1-1-.18.56.56,0,0,1-.39-.54.54.54,0,0,1,.52-.57,1.11,1.11,0,0,1,.23,0,2.31,2.31,0,0,0,.63.12c.52,0,1.38-.31,1.38-4.26,0-.28,0-.56,0-.82a.41.41,0,0,0-.44-.46h-.64c-.08,2.53-.75,5.25-3,6.79a.67.67,0,0,1-.39.13.57.57,0,0,1-.57-.55.57.57,0,0,1,.28-.47,4.09,4.09,0,0,0,.51-.4,33.55,33.55,0,0,1-4.36.77.48.48,0,0,1-.48-.5.43.43,0,0,1,.42-.47c.65-.05,1.33-.11,2-.2Zm0-2.6h-1c0,.09,0,.16,0,.22,0,.36.14.37,1,.37Zm0-1.18c-.9,0-1,0-1,.43V347h1Zm1,3.75v.59c.55-.1,1-.2,1.5-.31h.1a.39.39,0,0,1,.39.32,7.67,7.67,0,0,0,1.51-4.93h-1a.48.48,0,0,1-.5-.51.88.88,0,0,1,0-.16.54.54,0,0,1-.27.06h-1.78v.48c1.58,0,2,0,2,1.54s-.24,1.66-2,1.66v.46l1.5,0h0a.42.42,0,0,1,.44.41.43.43,0,0,1-.46.41Zm1-3.37c0-.38-.16-.38-1-.38V347h1Zm-1,.8v.59c.76,0,1,0,1-.38,0-.07,0-.13,0-.21Z" transform="translate(-387.74 -294.06)"/><path class="cls-2" d="M428.51,350.24a1.89,1.89,0,0,1-1.75-1.95,1.35,1.35,0,0,1,1.38-1.41,2.08,2.08,0,0,1,.55.07c0-.4-.06-.76-.08-1.09a16.78,16.78,0,0,0-4.4.95,1.11,1.11,0,0,1-.23,0,.59.59,0,0,1-.58-.6.67.67,0,0,1,.57-.64,26.61,26.61,0,0,1,4.59-.82v-.38c0-1.06,0-1.62.66-1.62a.62.62,0,0,1,.66.56.41.41,0,0,1,0,.11,9.5,9.5,0,0,0-.16,1.23c1-.06,1.93-.08,2.9-.08.51,0,.76.3.76.6a.64.64,0,0,1-.71.6h-.06c-.58,0-1.18-.05-1.78-.05-.38,0-.75,0-1.12,0,0,.81.07,1.57.08,1.72a2,2,0,0,1,.64,1.43,2.4,2.4,0,0,1-.38,1.21,5.9,5.9,0,0,1-4.15,2.71.6.6,0,0,1-.66-.57c0-.24.16-.5.57-.58a4.85,4.85,0,0,0,2.82-1.47Zm-.2-2.39a.51.51,0,0,0-.54.54.85.85,0,0,0,.75.87.52.52,0,0,0,.52-.51s0-.06,0-.1a1.41,1.41,0,0,0-.08-.39A.76.76,0,0,0,428.31,347.85Z" transform="translate(-387.74 -294.06)"/><path class="cls-2" d="M440.69,349.22c0-1.26-1.52-1.26-1.63-1.26a4,4,0,0,0-2.87,1.59.6.6,0,0,1-.48.24.62.62,0,0,1-.63-.57.71.71,0,0,1,.24-.5,30.46,30.46,0,0,0,3.48-4s0,0,0,0l-.08,0a6,6,0,0,1-2.4.88.59.59,0,0,1-.63-.59.53.53,0,0,1,.51-.53,11.72,11.72,0,0,0,3-.81,1,1,0,0,1,.43-.1.76.76,0,0,1,.8.71.87.87,0,0,1-.28.59c-.82.78-1.74,1.8-2.49,2.64a3.09,3.09,0,0,1,1.71-.49,2.32,2.32,0,0,1,2.53,2.12c0,1.6-1.65,3.14-3.73,3.14-1.44,0-2.19-.83-2.19-1.54a1.23,1.23,0,0,1,1.34-1.12,1.71,1.71,0,0,1,1.87,1.49A2.34,2.34,0,0,0,440.69,349.22Zm-3.27,1.28c-.41,0-.42.26-.42.31,0,.47.81.53,1.11.53h.09C438.16,350.82,437.9,350.5,437.42,350.5Z" transform="translate(-387.74 -294.06)"/><path class="cls-2" d="M450.62,349.74a4.58,4.58,0,0,1,0,.53,2.47,2.47,0,0,1-2.59,2.71c-.93,0-1.44-.25-1.44-.72a.56.56,0,0,1,.57-.56.65.65,0,0,1,.19,0,2.47,2.47,0,0,0,.79.13c1.34,0,1.34-1.6,1.34-1.7a2.83,2.83,0,0,0,0-.41l-5.09,0a.52.52,0,0,1-.55-.53.53.53,0,0,1,.54-.55l4.44,0a2.42,2.42,0,0,0-.48-.25c-.25-.08-.36-.24-.36-.4a.59.59,0,0,1,.63-.5,1.46,1.46,0,0,1,.71.24c.31-.2.95-.65.95-.79s0-.07-.13-.07a5.47,5.47,0,0,0-.64,0c-.77,0-1.93,0-2.77.07h0a.51.51,0,0,1-.54-.51.51.51,0,0,1,.55-.5c.51,0,1.16,0,1.8,0,.87,0,1.75,0,2.3,0s1,.36,1,.73c0,.59-.63,1.08-1.71,1.75a1.75,1.75,0,0,1,.16.25l3.58,0a.52.52,0,0,1,.53.55.51.51,0,0,1-.52.53Zm2-3.83c0-.51-.27-.59-.76-.6-1,0-2,0-3.08,0-.85,0-1.69,0-2.44,0s-.76.18-.8.6v.69h0a.56.56,0,0,1-.61.53.54.54,0,0,1-.58-.54c0-.15,0-.33,0-.53s0-.4,0-.58a1.28,1.28,0,0,1,1.41-1.16h1a.39.39,0,0,1-.15-.16,3.67,3.67,0,0,0-.84-.87.4.4,0,0,1-.16-.31.61.61,0,0,1,.61-.52,2.12,2.12,0,0,1,1.39,1.33.64.64,0,0,1-.34.53h3.15a5.73,5.73,0,0,0,.85-1.58.57.57,0,0,1,.54-.39.67.67,0,0,1,.69.59,3.69,3.69,0,0,1-.88,1.39h.84a1.27,1.27,0,0,1,1.39,1.14c0,.17,0,.42,0,.65s0,.33,0,.45a.59.59,0,0,1-.63.52c-.32,0-.6-.17-.6-.5v-.68Zm-3.4-1.65a.42.42,0,0,1-.41-.29,3.41,3.41,0,0,0-.7-1,.37.37,0,0,1-.11-.26c0-.25.3-.47.61-.47.61,0,1.27,1.18,1.27,1.45A.67.67,0,0,1,449.2,344.26Z" transform="translate(-387.74 -294.06)"/><path class="cls-2" d="M456.43,352.47a.52.52,0,0,1-.57-.52.56.56,0,0,1,.57-.57h4.09v-2.16h-2.26a.51.51,0,0,1-.56-.52.54.54,0,0,1,.56-.55h2.26v-1.83h-2.14a13.81,13.81,0,0,1-1.33,2,.69.69,0,0,1-.53.27.56.56,0,0,1-.57-.54.64.64,0,0,1,.15-.38,10.78,10.78,0,0,0,2.14-3.92.54.54,0,0,1,.55-.41.56.56,0,0,1,.64.73c-.16.42-.33.83-.51,1.22l1.6,0v-2.14a.62.62,0,1,1,1.23,0v2.14l3.24,0a.54.54,0,0,1,.58.54.53.53,0,0,1-.58.53h-3.24v1.83h2.43a.53.53,0,0,1,.57.54.53.53,0,0,1-.57.53h-2.43v2.16h4a.52.52,0,0,1,.54.55.51.51,0,0,1-.54.54Z" transform="translate(-387.74 -294.06)"/><path class="cls-2" d="M476.46,352.5c-1,0-2.16,0-3.26,0s-2.21,0-3.28,0a1.42,1.42,0,0,1-1.6-1.45c0-.9-.05-2-.05-3.09,0-1.36,0-2.75.05-3.92a1.36,1.36,0,0,1,1.5-1.31c1,0,2.15,0,3.27,0s2.27,0,3.4,0a1.36,1.36,0,0,1,1.46,1.36c0,1.23.05,2.58.05,3.89,0,1.08,0,2.12-.05,3A1.47,1.47,0,0,1,476.46,352.5Zm.39-4.94c0-1,0-2.06-.05-3,0-.68-.26-.8-.85-.81l-2.87,0-2.77,0c-.68,0-.87.2-.89.81,0,1,0,2,0,3.09s0,2.06,0,3c0,.68.27.8,1,.81s1.7,0,2.63,0l2.84,0c.67,0,.88-.33.9-.85C476.84,349.62,476.85,348.59,476.85,347.56Zm-3-1h-3.41a.49.49,0,1,1,0-1h3.39v-.93a.49.49,0,0,1,.54-.47.48.48,0,0,1,.54.47v.93H476a.49.49,0,1,1,0,1H474.9l0,1.21,0,1.61v0c0,.65-.44,1.49-1.83,1.49-.58,0-1.34-.05-1.34-.66a.53.53,0,0,1,.56-.53h.15a3.44,3.44,0,0,0,.67.09c.4,0,.69-.15.69-.64Zm-1.74,2.1a3.42,3.42,0,0,0-1.07-.84.44.44,0,0,1-.27-.37.55.55,0,0,1,.56-.51c.24,0,1.72.65,1.72,1.33a.61.61,0,0,1-.55.62A.53.53,0,0,1,472.09,348.63Z" transform="translate(-387.74 -294.06)"/><path class="cls-2" d="M487,350.37v2.07a.5.5,0,0,1-.55.48.49.49,0,0,1-.55-.48v-2.07h-1a.48.48,0,0,1-.54-.48.52.52,0,0,1,.54-.53h1v-.3l0-2.07a11.38,11.38,0,0,1-2.53,3.4.61.61,0,0,1-.43.18.59.59,0,0,1-.48-.26l0,2.12a.56.56,0,0,1-.59.55.53.53,0,0,1-.57-.54h0l.12-5.54c-.76,1-1.09,1.17-1.35,1.17a.55.55,0,0,1-.57-.52.57.57,0,0,1,.21-.42,11.06,11.06,0,0,0,2.73-4.34.54.54,0,0,1,.52-.39.66.66,0,0,1,.67.59,9.49,9.49,0,0,1-1,2.17l-.1,4.64a.85.85,0,0,1,.16-.17,10.72,10.72,0,0,0,2.91-3.73l-2,0h0a.49.49,0,0,1-.54-.5.53.53,0,0,1,.55-.54h2.34v-2a.58.58,0,0,1,1.15,0v2h2.68a.51.51,0,0,1,.53.52.49.49,0,0,1-.52.52h0l-2.4,0a11.43,11.43,0,0,0,3.14,3.41.58.58,0,0,1,.25.48.6.6,0,0,1-.58.6.78.78,0,0,1-.48-.19A12.84,12.84,0,0,1,487,347l0,2.05v.31h1.07a.51.51,0,1,1,0,1Z" transform="translate(-387.74 -294.06)"/><path class="cls-2" d="M498.81,352.25h-.12c-2.61-.24-4.25-2-4.25-3.89a3.37,3.37,0,0,1,.87-2.19c0-.05.06-.08.06-.11l0,0-.12,0c-1.88,1-2.11,1-2.37,1a.64.64,0,0,1-.18-1.27c.25-.09.93-.29,1.29-.42.57-.21,1.56-.52,2.75-1a9.11,9.11,0,0,1,3.18-.75c.6,0,.81.28.81.59,0,.61-.5.74-1,.74h-.56c-1.86,0-3.68,1.58-3.68,3.19,0,1.44,1.36,2.66,3.25,2.66.6,0,.88.35.88.71S499.36,352.25,498.81,352.25Zm1-4.21a4.76,4.76,0,0,0-1-.74.41.41,0,0,1-.3-.38.51.51,0,0,1,.53-.46c.15,0,1.62.55,1.62,1.17a.58.58,0,0,1-.52.57A.4.4,0,0,1,499.84,348Zm1.38-1a4,4,0,0,0-1.05-.7.43.43,0,0,1-.31-.37.52.52,0,0,1,.53-.48c.19,0,1.63.51,1.63,1.14a.56.56,0,0,1-.5.56A.41.41,0,0,1,501.22,347Z" transform="translate(-387.74 -294.06)"/><path class="cls-2" d="M508.31,350.24a1.89,1.89,0,0,1-1.75-1.95,1.35,1.35,0,0,1,1.38-1.41,2.08,2.08,0,0,1,.55.07c0-.4-.06-.76-.08-1.09a16.78,16.78,0,0,0-4.4.95,1.11,1.11,0,0,1-.23,0,.59.59,0,0,1-.58-.6.67.67,0,0,1,.57-.64,26.61,26.61,0,0,1,4.59-.82v-.38c0-1.06,0-1.62.66-1.62a.62.62,0,0,1,.66.56.41.41,0,0,1,0,.11,9.5,9.5,0,0,0-.16,1.23c1-.06,1.93-.08,2.91-.08.5,0,.75.3.75.6a.64.64,0,0,1-.71.6h-.06c-.58,0-1.18-.05-1.78-.05-.38,0-.75,0-1.12,0,0,.81.07,1.57.08,1.72a2,2,0,0,1,.64,1.43,2.4,2.4,0,0,1-.38,1.21,5.9,5.9,0,0,1-4.15,2.71.6.6,0,0,1-.66-.57c0-.24.16-.5.57-.58a4.85,4.85,0,0,0,2.82-1.47Zm-.2-2.39a.51.51,0,0,0-.54.54.85.85,0,0,0,.76.87.51.51,0,0,0,.51-.51s0-.06,0-.1a1.41,1.41,0,0,0-.08-.39A.76.76,0,0,0,508.11,347.85Z" transform="translate(-387.74 -294.06)"/><path class="cls-2" d="M514,353a1.37,1.37,0,1,1,1.36-1.36A1.36,1.36,0,0,1,514,353Zm0-2.26a.89.89,0,0,0-.91.9.91.91,0,1,0,.91-.9Z" transform="translate(-387.74 -294.06)"/></g><g class="cls-1"><path class="cls-2" d="M394,375a1.53,1.53,0,0,1-1.67,1.18h-.12c-.49,0-1,0-1.55,0s-1.35,0-1.9.05h-.05a.72.72,0,0,1-.76-.7.74.74,0,0,1,.42-.67,1.92,1.92,0,0,0,.46-.37c3.56-3.76,3.63-4.31,3.63-4.95a1.26,1.26,0,0,0-1.28-1.3,1.67,1.67,0,0,0-1.43.93.66.66,0,0,1-.58.35.67.67,0,0,1-.69-.62,2.68,2.68,0,0,1,2.69-1.84,2.49,2.49,0,0,1,2.68,2.35,3.91,3.91,0,0,1-.91,2.31,35.48,35.48,0,0,1-2.95,3.18.13.13,0,0,0,0,.07s0,.05.09.05c.42,0,1.37,0,1.93-.05s.76-.38.94-.93a.69.69,0,0,1,.67-.54.65.65,0,0,1,.62.9Z" transform="translate(-387.74 -294.06)"/><path class="cls-2" d="M395.41,373.23c-.05-.52-.07-1-.07-1.52s0-.94.06-1.43c.16-2.09,1.3-3.24,2.93-3.24s2.74,1.09,2.93,3.09c.05.53.08,1.06.08,1.58,0,1.16,0,4.62-3,4.62C396.74,376.33,395.6,375.24,395.41,373.23Zm4.48,0a13.28,13.28,0,0,0,.11-1.71c0-.44,0-.88-.06-1.29-.12-1.26-.74-2-1.61-2s-1.5.77-1.62,2.07c0,.4-.06.82-.06,1.23a13.67,13.67,0,0,0,.1,1.58c.14,1.23.79,2,1.58,2S399.73,374.42,399.89,373.28Z" transform="translate(-387.74 -294.06)"/><path class="cls-2" d="M406.91,374.85h0a.65.65,0,1,1,0,1.3h0l-1.27,0-1.44,0a.64.64,0,0,1-.76-.64.65.65,0,0,1,.7-.66h.61c.23,0,.28-.07.28-.29,0-1.34,0-3.24,0-4.42,0-.51,0-.88,0-1,0-.37-.13-.56-.52-.57h-.29a.66.66,0,0,1-.73-.71.62.62,0,0,1,.62-.68h1a1.18,1.18,0,0,1,1.28,1.24v0c0,.21,0,.56,0,1,0,1-.05,2.45-.05,4,0,.37,0,.76,0,1.13,0,.18.06.3.25.3Z" transform="translate(-387.74 -294.06)"/><path class="cls-2" d="M415.88,373.54c0,2-1.67,2.79-3.18,2.79a2.82,2.82,0,0,1-3.11-2.79,2.59,2.59,0,0,1,1.51-2.36,2.11,2.11,0,0,1-1.08-1.84c0-1.57,1.33-2.31,2.71-2.31s2.71.74,2.71,2.31a2.09,2.09,0,0,1-1.08,1.84A2.46,2.46,0,0,1,415.88,373.54Zm-3.15-1.7a1.65,1.65,0,1,0,0,3.28,1.7,1.7,0,0,0,1.87-1.58A1.64,1.64,0,0,0,412.73,371.84Zm0-3.66a1.33,1.33,0,0,0-1.45,1.21c0,.88.65,1.25,1.42,1.25,1.43,0,1.49-1,1.49-1.25A1.32,1.32,0,0,0,412.73,368.18Z" transform="translate(-387.74 -294.06)"/><path class="cls-2" d="M423.42,374.08v2.4a.52.52,0,0,1-.58.49.53.53,0,0,1-.58-.49v-2.4h-4.53a.52.52,0,0,1-.58-.52.56.56,0,0,1,.58-.56h1.64c0-.4,0-.84,0-1.69a1.15,1.15,0,0,1,1.32-1.15h1.53v-1.38h-1.91a10.26,10.26,0,0,1-1.46,1.82.75.75,0,0,1-.5.23.59.59,0,0,1-.6-.56.56.56,0,0,1,.2-.42,9.22,9.22,0,0,0,2.17-3.29.56.56,0,0,1,.53-.36.65.65,0,0,1,.68.59,2.28,2.28,0,0,1-.39.93h5.3a.53.53,0,1,1,0,1.06h-2.86v1.38h2.2a.57.57,0,0,1,.6.54.53.53,0,0,1-.59.52h0c-.7,0-1.46,0-2.2,0V373H427a.54.54,0,0,1,.56.55.52.52,0,0,1-.56.53Zm-1.16-2.87H421.1c-.41,0-.52.21-.53.46s0,.89,0,1.33h1.73Z" transform="translate(-387.74 -294.06)"/><path class="cls-2" d="M430,375.87a8,8,0,0,1-.31-2.29,35.69,35.69,0,0,1,.67-5,.59.59,0,0,1,1.18,0,.31.31,0,0,1,0,.09,28.53,28.53,0,0,0-.78,4.28c0,.45.08.5.12.5s.06,0,.08-.09c.37-.71.46-.85.71-.85a.52.52,0,0,1,.49.5.35.35,0,0,1-.06.22,6.43,6.43,0,0,0-.9,2.25c0,.11,0,.22,0,.33a.56.56,0,0,1-.6.62A.64.64,0,0,1,430,375.87Zm6.67-.08c-2.07,0-3.66-1.23-3.66-1.82a.6.6,0,0,1,.63-.56.71.71,0,0,1,.54.26,3,3,0,0,0,2.32.81,7,7,0,0,0,1-.08h.15a.56.56,0,0,1,.6.58C438.28,375.59,437.75,375.79,436.68,375.79Zm-1.35-5.26a6.88,6.88,0,0,1-1.62-.18.57.57,0,0,1-.51-.54.56.56,0,0,1,.56-.56h.12a5.86,5.86,0,0,0,1.16.12,11.21,11.21,0,0,0,1.47-.12h.11a.55.55,0,0,1,.58.56C437.2,370.29,436.86,370.53,435.33,370.53Z" transform="translate(-387.74 -294.06)"/><path class="cls-2" d="M448.85,373.66l-2.24,0c0,.76,0,1.41,0,1.57,0,.44.4.49,1,.49.77,0,1.14-.19,1.14-.9a.51.51,0,0,1,.55-.54.61.61,0,0,1,.65.66c0,1.41-.8,1.85-2.43,1.85-.65,0-2,0-2-1.39,0-.16,0-.9,0-1.76H444.2c-.22,1.47-1,2.82-3.37,3.31l-.21,0a.58.58,0,0,1-.62-.6.5.5,0,0,1,.43-.53c1.81-.25,2.42-1.11,2.62-2.2l-1.91,0h0a.5.5,0,0,1-.56-.52.56.56,0,0,1,.57-.57h2v-1.4H443a.54.54,0,0,1-.51-.28,6,6,0,0,1-2.16,1.15.58.58,0,0,1-.55-.59.55.55,0,0,1,.36-.51,8.29,8.29,0,0,0,3.84-3.19c0-.09-.07-.12-.19-.12l-1.69,0a.48.48,0,0,1-.51-.5.5.5,0,0,1,.51-.52h1.69c.76,0,1.38,0,1.53.68a.47.47,0,0,1,.33.16q.23.27.48.54a6.41,6.41,0,0,0,.88-1,.45.45,0,0,1,.4-.23.65.65,0,0,1,.62.6c0,.41-.92,1.19-1.17,1.39l.57.51a6.83,6.83,0,0,0,1.11-1.11.46.46,0,0,1,.38-.2.67.67,0,0,1,.62.61c0,.26-.39.68-1.26,1.32a9.1,9.1,0,0,0,1.6.85.56.56,0,0,1,.38.51.65.65,0,0,1-.67.62,5.22,5.22,0,0,1-2.19-1.22v0a.53.53,0,0,1-.57.53h-.19c0,.36,0,.86,0,1.4h2.23a.54.54,0,0,1,.58.55.52.52,0,0,1-.57.54Zm-7.32-4.27a5,5,0,0,0-1-.83.41.41,0,0,1-.24-.36.59.59,0,0,1,.6-.53c.48,0,1.48.86,1.51.89a.55.55,0,0,1,.16.37.65.65,0,0,1-.63.63A.47.47,0,0,1,441.53,369.39Zm5.26.73A18.79,18.79,0,0,1,445,368.3a12.55,12.55,0,0,1-1.62,1.82Zm-1.29,2.46c0-.54,0-1,0-1.4h-1.26v1.12c0,.1,0,.18,0,.28Z" transform="translate(-387.74 -294.06)"/><path class="cls-2" d="M457.65,373.42v2.12a7.4,7.4,0,0,0,1.51.12c.81,0,1.67-.07,2.45-.12h0a.55.55,0,0,1,.57.55.6.6,0,0,1-.6.59c-.71.07-1.43.13-2.14.13-2,0-3.93-.45-4.94-2.3-.58,1.32-1.76,2.47-2.3,2.47a.6.6,0,0,1-.59-.6.5.5,0,0,1,.25-.43,4.55,4.55,0,0,0,2.06-3.68.57.57,0,0,1,.58-.55.54.54,0,0,1,.56.55,6.25,6.25,0,0,1-.1.78,3.06,3.06,0,0,0,1.47,2.06V371c-.61,0-1.2,0-1.71,0a1.26,1.26,0,0,1-1.36-1.23c0-.22,0-.47,0-.71s0-.67,0-.9a1.21,1.21,0,0,1,1.33-1.2c.7,0,1.46,0,2.26,0s1.6,0,2.4,0a1.26,1.26,0,0,1,1.27,1.09c0,.21,0,.46,0,.73s0,.69,0,1a1.32,1.32,0,0,1-1.34,1.26c-.53,0-1.1,0-1.66,0v1.35h2.74a.52.52,0,0,1,.56.54.52.52,0,0,1-.56.53Zm1.86-4.51c0-.62,0-1-.59-1s-1.15,0-1.75,0-1.46,0-2.1,0-.56.33-.56,1c0,.88.1,1,.57,1l1.9,0,2,0C459.47,369.94,459.51,369.61,459.51,368.91Z" transform="translate(-387.74 -294.06)"/><path class="cls-2" d="M467.37,376.36c-2.4,0-2.5-1.39-2.5-2.58,0-1.37.15-3.11.15-4.52a13.25,13.25,0,0,0-.07-1.37s0-.08,0-.12a.6.6,0,0,1,.63-.6.66.66,0,0,1,.67.58c0,.26,0,.55,0,.86,0,1.48-.26,3.36-.26,5,0,1,.05,1.58,1.24,1.58a8.31,8.31,0,0,0,2.86-.62,1,1,0,0,1,.38-.09.56.56,0,0,1,.58.58.82.82,0,0,1-.58.75A9.25,9.25,0,0,1,467.37,376.36Z" transform="translate(-387.74 -294.06)"/><path class="cls-2" d="M474.57,376.73a4.62,4.62,0,0,0-1.47-1.26.54.54,0,0,1-.33-.48.53.53,0,0,1,.56-.53c.42,0,2.34,1.06,2.34,1.87a.66.66,0,0,1-.64.66A.55.55,0,0,1,474.57,376.73Z" transform="translate(-387.74 -294.06)"/><path class="cls-2" d="M484.68,376.78c-.72,0-3.55-1.43-3.55-3.64a1.77,1.77,0,0,1,.35-1.08.19.19,0,0,0,.06-.12h0s-.8.43-1,.55a.75.75,0,0,1-.42.12.68.68,0,0,1-.72-.6c0-.21.15-.44.52-.62a4.26,4.26,0,0,0,1.35-.91,23.59,23.59,0,0,0,1.92-2.62s0,0-.05,0l-.09,0a5.11,5.11,0,0,1-1.76.59.57.57,0,0,1-.62-.57.55.55,0,0,1,.53-.54,8.56,8.56,0,0,0,2-.47,1.28,1.28,0,0,1,.52-.17.77.77,0,0,1,.82.75,1.19,1.19,0,0,1-.27.69,20.26,20.26,0,0,1-2,2.35q-.09.09-.09.12h.11a11.23,11.23,0,0,1,3.3-.89.65.65,0,0,1,.68.65c0,.29-.17.61-1,.63a7.36,7.36,0,0,0-1.38.2,2.59,2.59,0,0,0-1.43.73,1.34,1.34,0,0,0-.42,1,2.88,2.88,0,0,0,2.51,2.44.81.81,0,0,1,.75.77A.68.68,0,0,1,484.68,376.78Z" transform="translate(-387.74 -294.06)"/><path class="cls-2" d="M495.78,371.68a2.54,2.54,0,0,0-2.78-2.47h0a.53.53,0,0,1,.33.5v.06c0,1.26-1.23,3.45-2.55,4.74a1.29,1.29,0,0,1-.9.41c-.85,0-1.62-1-1.62-2.27a4.77,4.77,0,0,1,4.83-4.38c2.43,0,3.94,1.61,3.94,3.48a3.7,3.7,0,0,1-.27,1.36c-1.05,2.66-4.32,3-4.48,3a.64.64,0,0,1-.69-.59c0-.26.21-.51.66-.59C494.42,374.6,495.78,373.25,495.78,371.68Zm-3.46-2.41a3.93,3.93,0,0,0-3,3.32c0,.9.6,1,.63,1a.28.28,0,0,0,.23-.1,6.62,6.62,0,0,0,1.91-3.71A.61.61,0,0,1,492.32,369.27Z" transform="translate(-387.74 -294.06)"/><path class="cls-2" d="M500.07,372.13c-.81.65-1,.74-1.17.74a.6.6,0,0,1-.58-.6.53.53,0,0,1,.29-.48,8.39,8.39,0,0,0,2.79-2.88.55.55,0,0,1,.46-.28.67.67,0,0,1,.62.62.54.54,0,0,1-.11.32,13.15,13.15,0,0,1-1.16,1.45l-.13,5.41a.56.56,0,0,1-.6.54.51.51,0,0,1-.55-.52v0ZM499,370a.56.56,0,0,1-.6-.54.69.69,0,0,1,.4-.56,6.67,6.67,0,0,0,2.3-2.33.57.57,0,0,1,.48-.3.61.61,0,0,1,.6.59.67.67,0,0,1-.12.36C501.13,368.63,499.64,370,499,370Zm6.13,2.09,1.53,0a.79.79,0,0,1,.9.77,4.38,4.38,0,0,1-1.16,2,5.47,5.47,0,0,0,2.33.8.49.49,0,0,1,.44.52.61.61,0,0,1-.64.62,5.6,5.6,0,0,1-2.87-1.23,6.4,6.4,0,0,1-3,1.39.55.55,0,0,1-.57-.55.49.49,0,0,1,.43-.48,5.55,5.55,0,0,0,2.4-1.12,5.07,5.07,0,0,1-.78-1.19c-.56.71-1.61,1.72-2.07,1.72a.55.55,0,0,1-.55-.54.42.42,0,0,1,.22-.37,7.16,7.16,0,0,0,2.49-2.79c-.4,0-1.32.12-1.86.12a.46.46,0,0,1-.45-.51.45.45,0,0,1,.44-.49c.4,0,.79,0,1.19,0h0c.27-.2.54-.41.82-.66a6.06,6.06,0,0,0-1.6-1.19.46.46,0,0,1-.28-.43A.5.5,0,0,1,503,368a1.28,1.28,0,0,1,.55.21,6.27,6.27,0,0,0,1.1-1.62.42.42,0,0,1,.4-.26.66.66,0,0,1,.66.56,5,5,0,0,1-1.35,1.83,6.81,6.81,0,0,1,.75.66,12.86,12.86,0,0,0,1.31-1.64.54.54,0,0,1,.46-.24.58.58,0,0,1,.62.51c0,.59-2,2.37-2.41,2.68.74-.06,1.46-.16,2.14-.25a1.86,1.86,0,0,0-.26-.23.48.48,0,0,1-.19-.35.5.5,0,0,1,.53-.44c.48,0,1.93,1.36,1.93,1.92a.59.59,0,0,1-.58.58.52.52,0,0,1-.47-.29c-.09-.15-.19-.31-.29-.45-.8.16-1.7.3-2.63.41a.57.57,0,0,1,0,.18.54.54,0,0,1-.09.3Zm1.16,1c0-.11-.09-.13-.18-.13h0l-1.3,0a4.92,4.92,0,0,0,.8,1.2A3.26,3.26,0,0,0,506.33,373.06Z" transform="translate(-387.74 -294.06)"/><path class="cls-2" d="M515.87,371a8.55,8.55,0,0,1-4.17,5.39c-.79.4-1.58-.59-.6-1.1a7.38,7.38,0,0,0,3.49-4.12l-.85.12a13.69,13.69,0,0,1-1.51.16c-1,0-.9-1.19-.12-1.16a10.23,10.23,0,0,0,1.51-.09c.45,0,.88-.1,1.3-.15a8,8,0,0,0,.15-.8,7.6,7.6,0,0,0,0-1.26c0-.78,1.22-.68,1.26,0a8.08,8.08,0,0,1-.08,1.16l-.12.74c.36-.05.72-.1,1.08-.13a1.28,1.28,0,0,1,1.52,1.46,10.28,10.28,0,0,1-1,3.8c-.84,1.3-2.27,1.71-3.31.63-.57-.58.21-1.67.85-1,.45.49.91.3,1.36-.29a7.77,7.77,0,0,0,.84-3c0-.29,0-.62-.57-.55Z" transform="translate(-387.74 -294.06)"/><path class="cls-2" d="M521.85,375.11a9.71,9.71,0,0,0,5.11-5.23c.08-.2-.06-.29-.22-.27-.92,0-2.51.31-3.34.4a7.2,7.2,0,0,1-1.51.14.65.65,0,1,1,.08-1.29,10.35,10.35,0,0,0,1.48-.06c1-.07,2.63-.33,4-.42,1-.06,1.47.6,1.11,1.33-1.26,2.57-2.79,5.21-6.15,6.59C521.23,376.78,520.81,375.5,521.85,375.11Z" transform="translate(-387.74 -294.06)"/><path class="cls-2" d="M533.32,372.52a5.19,5.19,0,0,1-.1,1.8l1.64-.11a5.61,5.61,0,0,1,.82,0c.45.05.71.37.63.7a.71.71,0,0,1-.89.38,3.18,3.18,0,0,0-.68-.06H534c-1,0-2.12.14-2.81.21s-1,.13-1.29.13c-.77,0-.8-1.07.07-1a11.18,11.18,0,0,0,1.15-.05c.35,0,.71-.09,1.06-.11a6.24,6.24,0,0,0,.1-1.13,4.32,4.32,0,0,0-.06-.59v-.08h-.17a5.55,5.55,0,0,1-1.07.07.51.51,0,1,1,.07-1,5.51,5.51,0,0,0,.81,0c.41,0,1.2-.09,1.72-.16a4.15,4.15,0,0,1,.85-.12c.74,0,.89,1,0,1-.29,0-.51,0-.8.07l-.33,0Z" transform="translate(-387.74 -294.06)"/><path class="cls-2" d="M540.89,372.82a1.27,1.27,0,1,1,1.27-1.27A1.27,1.27,0,0,1,540.89,372.82Z" transform="translate(-387.74 -294.06)"/></g><g class="cls-1"><path class="cls-2" d="M388.68,397.35a5,5,0,0,0,2.74-2.76.64.64,0,0,1,1.23.36,6.94,6.94,0,0,1-3.47,3.6A.66.66,0,1,1,388.68,397.35Zm8.33.43a7.9,7.9,0,0,0-2.75-2.76c-.66-.36,0-1.35.78-.89a8.5,8.5,0,0,1,3.18,3,.76.76,0,0,1-.32,1A.63.63,0,0,1,397,397.78Zm-1.46-4.32c-.6-.25-.13-1,.42-.77a4.11,4.11,0,0,1,1.17.72c.47.5-.22,1.23-.62.76A4.33,4.33,0,0,0,395.55,393.46Zm1.08-1c-.61-.24-.18-1,.38-.78a3.85,3.85,0,0,1,1.2.69c.48.48-.19,1.21-.6.76A4.47,4.47,0,0,0,396.63,392.44Z" transform="translate(-387.74 -294.06)"/><path class="cls-2" d="M408.38,396.14h-.63c-2.29,0-4,.1-5,.14l-1.19,0-.38,0a.66.66,0,0,1-.69-.64.63.63,0,0,1,.71-.59h.08c.44,0,1,0,1.45,0,1,0,3.55-.15,5.66-.21h0a.65.65,0,0,1,.73.61c0,.32-.25.63-.76.63Z" transform="translate(-387.74 -294.06)"/><path class="cls-2" d="M418.74,395.68a2.54,2.54,0,0,0-2.78-2.47h0a.53.53,0,0,1,.33.5v.06c0,1.26-1.23,3.45-2.55,4.74a1.29,1.29,0,0,1-.9.41c-.85,0-1.62-1-1.62-2.27a4.77,4.77,0,0,1,4.83-4.38c2.43,0,3.94,1.61,3.94,3.48a3.7,3.7,0,0,1-.27,1.36c-1.05,2.66-4.32,3-4.48,3a.64.64,0,0,1-.69-.59c0-.26.21-.51.66-.59C417.38,398.6,418.74,397.25,418.74,395.68Zm-3.46-2.41a3.93,3.93,0,0,0-3,3.32c0,.9.6,1,.63,1a.28.28,0,0,0,.23-.1,6.62,6.62,0,0,0,1.91-3.71A.64.64,0,0,1,415.28,393.27Z" transform="translate(-387.74 -294.06)"/><path class="cls-2" d="M421.89,400.09a.49.49,0,0,1-.53-.45.68.68,0,0,1,.11-.33,5.31,5.31,0,0,0,.71-2.06.46.46,0,0,1,.48-.42.52.52,0,0,1,.55.53,7.28,7.28,0,0,1-.79,2.45A.62.62,0,0,1,421.89,400.09Zm1.59.26,0-4.18c-.12,0-1.34.18-1.51.18a.45.45,0,0,1-.44-.48.41.41,0,0,1,.38-.44l.54,0a8.09,8.09,0,0,0,.72-.9,11.52,11.52,0,0,0-1.36-1.1.49.49,0,0,1-.22-.4.46.46,0,0,1,.46-.46.63.63,0,0,1,.35.12,7.87,7.87,0,0,0,.91-2,.46.46,0,0,1,.47-.34.56.56,0,0,1,.61.49,9.66,9.66,0,0,1-1.21,2.45c.19.15.37.31.54.47a12.73,12.73,0,0,0,.91-1.72.47.47,0,0,1,.45-.3.59.59,0,0,1,.6.53,13.78,13.78,0,0,1-1.92,3.09c.39,0,.76-.08,1-.12-.21-.38-.24-.42-.24-.5a.44.44,0,0,1,.46-.4c.24,0,.49.17.87,1a.57.57,0,0,1,.39-.29,6.92,6.92,0,0,0,1.93-.81,3.68,3.68,0,0,1-1.18-1.58.56.56,0,0,1,.57-.51.39.39,0,0,1,.34.19,4.35,4.35,0,0,0,1.1,1.26,3.88,3.88,0,0,0,1.05-1.54c0-.11-.12-.16-.19-.16h-.48l-2.67,0h0a.45.45,0,0,1-.43-.49.46.46,0,0,1,.42-.5h1.5l2.21,0c.69,0,.94.36.94.77a4.82,4.82,0,0,1-1.47,2.46,6.66,6.66,0,0,0,1.85.59.51.51,0,0,1,.45.52.59.59,0,0,1-.62.59,6.5,6.5,0,0,1-2.53-1,7.42,7.42,0,0,1-2.6,1.18.56.56,0,0,1-.33-.09.45.45,0,0,1,0,.12.57.57,0,0,1-.54.58.43.43,0,0,1-.42-.39.94.94,0,0,0-.06-.24l-.57.09,0,4.35a.55.55,0,0,1-.57.56.52.52,0,0,1-.55-.55Zm1.79-1.64a4.35,4.35,0,0,0-.39-1.43.52.52,0,0,1-.06-.22.4.4,0,0,1,.43-.37.5.5,0,0,1,.44.23,3.92,3.92,0,0,1,.6,1.68.57.57,0,0,1-.56.57A.45.45,0,0,1,425.27,398.71Zm.78,1.76a.51.51,0,0,1-.54-.51.5.5,0,0,1,.54-.51h2.41V398h-1.51a.48.48,0,0,1-.51-.5.49.49,0,0,1,.51-.52l1.51,0v-1a.52.52,0,0,1,.55-.53.54.54,0,0,1,.58.53v1l1.47,0a.53.53,0,0,1,.56.52.51.51,0,0,1-.56.5h-1.47l0,1.49h2.23a.51.51,0,0,1,.56.51.51.51,0,0,1-.56.51Z" transform="translate(-387.74 -294.06)"/><path class="cls-2" d="M435.31,394.63a.56.56,0,0,1-.61.51.55.55,0,0,1-.59-.53c0-.15,0-.33,0-.52s0-.41,0-.59a1.24,1.24,0,0,1,1.39-1.13h1a.66.66,0,0,1-.16-.17,3.2,3.2,0,0,0-.83-.85.43.43,0,0,1-.15-.31.58.58,0,0,1,.61-.51,2.16,2.16,0,0,1,1.37,1.3.66.66,0,0,1-.35.54h3.25a6.82,6.82,0,0,0,.85-1.57.55.55,0,0,1,.53-.38.65.65,0,0,1,.67.58c0,.35-.74,1.23-.86,1.38h.86a1.35,1.35,0,0,1,1.35,1.19,5.72,5.72,0,0,1,0,.61c0,.42,0,.92-.66.92a.54.54,0,0,1-.6-.49v0c0-1.13,0-1.24-.75-1.25l-3.11,0-2.46,0c-.65,0-.75.18-.78.6v.7Zm3.76,2.87c.81,0,1.63,0,2.41,0a1,1,0,0,1,1.12.82c0,.2,0,.41,0,.64s0,.45,0,.68a1.08,1.08,0,0,1-1.18.95c-.93,0-1.83,0-2.68,0s-1.65,0-2.4,0-1.16-.41-1.19-.94c0-.16,0-.34,0-.52s0-.51,0-.72c0-.43.34-.9,1.18-.91.52,0,1.1,0,1.7,0,.07-.24.13-.5.18-.7-.43,0-.83,0-1.15,0-1.16,0-1.18-.74-1.18-1.35a4.88,4.88,0,0,1,0-.56c0-.44.32-.86,1.13-.88l1.8,0,1.93,0a1,1,0,0,1,1.1.79c0,.17,0,.35,0,.54s0,.37,0,.55a1.06,1.06,0,0,1-1.14.91c-.45,0-.92,0-1.39,0A4.07,4.07,0,0,1,439.07,397.5Zm-.27,2.17H441c.43,0,.5-.18.5-.66s0-.63-.51-.64l-2.18,0c-.71,0-1.38,0-2,0-.48,0-.51.22-.51.65s0,.63.52.65Zm1.95-4.28a2.09,2.09,0,0,0,0-.24c0-.32-.2-.32-1.68-.32h-1.61c-.43,0-.49.2-.49.55,0,.07,0,.15,0,.23,0,.35.1.35,1.86.35s1.9,0,1.91-.35A1.85,1.85,0,0,0,440.75,395.39Zm-1.75-3.1a.43.43,0,0,1-.41-.29,3.61,3.61,0,0,0-.69-1,.38.38,0,0,1-.1-.25.58.58,0,0,1,.6-.48c.54,0,1.25,1.14,1.25,1.45A.65.65,0,0,1,439,392.29Z" transform="translate(-387.74 -294.06)"/><path class="cls-2" d="M447.33,400.73a4.62,4.62,0,0,0-1.47-1.26.54.54,0,0,1-.33-.48.54.54,0,0,1,.57-.53c.42,0,2.33,1.06,2.33,1.87a.66.66,0,0,1-.64.66A.55.55,0,0,1,447.33,400.73Z" transform="translate(-387.74 -294.06)"/><path class="cls-2" d="M452.73,395.45a.57.57,0,0,1-.61-.56c0-.28.21-.56.71-.6a7.68,7.68,0,0,0,1.95-.4c-.11-.36-.21-.67-.29-.94a3.08,3.08,0,0,0-.38-.81.56.56,0,0,1-.08-.3.63.63,0,0,1,.67-.57c.5,0,.68.42.9,1.35.06.27.15.6.26,1a9,9,0,0,0,1.28-.43,2.06,2.06,0,0,1,.77-.19c.41,0,.65.24.65.5s-.22.53-.68.65-.71.21-1.11.33l-.6.18c.12.4.25.82.4,1.25.23-.05.44-.13.67-.19a17.67,17.67,0,0,1,2.05-.55h.19a.58.58,0,0,1,.64.58c0,.31-.17.59-.66.68a25.64,25.64,0,0,0-2.54.54c.36,1.08.72,2.11,1,2.84a1.23,1.23,0,0,1,.07.38.63.63,0,0,1-.59.69c-.26,0-.52-.18-.64-.59-.23-.78-.57-1.86-.91-3-.54.18-1,.36-1.49.53a9.08,9.08,0,0,1-1.72.49.62.62,0,0,1-.64-.62.66.66,0,0,1,.6-.64c.4-.08,1-.21,1.46-.34l1.46-.47c-.14-.45-.27-.88-.41-1.29a9.83,9.83,0,0,1-2.35.53Z" transform="translate(-387.74 -294.06)"/><path class="cls-2" d="M465.37,396.53c.33,1.09.75,2.38,1.06,3.19a.61.61,0,0,1-.27.84.54.54,0,0,1-.72-.43c-.27-.85-.65-2.12-1-3.24l-.68.28a6,6,0,0,1-.82.29.53.53,0,1,1-.29-1l.75-.22c.11,0,.38-.13.74-.28l-.2-.61c-.09-.25-.16-.43-.23-.6-.26-.63.76-1,1-.37a5.53,5.53,0,0,1,.22.65l.17.57c.84-.31,1.81-.66,2.5-.86a.68.68,0,0,1,.89.91,4.66,4.66,0,0,1-1.32,2c-.66.58-1.35-.29-.75-.76a2.74,2.74,0,0,0,.82-1C466.68,396,466,396.29,465.37,396.53Z" transform="translate(-387.74 -294.06)"/><path class="cls-2" d="M471.64,399.78a5.75,5.75,0,0,0,3.26-5.12c0-1,.06-1.33,0-1.92a5.92,5.92,0,0,0-.1-1c-.22-.94,1.29-1.08,1.35-.06,0,.5,0,.68,0,1.05s0,.65,0,.88a9.57,9.57,0,0,0,0,1,7.13,7.13,0,0,1-3.85,6.24C471.32,401.37,470.85,400.15,471.64,399.78Zm.39-3.67a9.91,9.91,0,0,0,.06-2.92c0-.23-.09-.47-.15-.7a.68.68,0,1,1,1.32-.25,8.52,8.52,0,0,1,.05,1c0,.47,0,1.07,0,1.54a6.5,6.5,0,0,1-.06,1.39C473.11,397.25,471.83,396.94,472,396.11Z" transform="translate(-387.74 -294.06)"/><path class="cls-2" d="M480.38,400.48c-1,.62-1.9-.58-.8-1.13a5,5,0,0,0,2.85-3.74,3.32,3.32,0,0,0,0-1.09c-.14-.75,1.21-1,1.38-.12a3.48,3.48,0,0,1,0,.49,5.92,5.92,0,0,0,2.05-1.6c.21-.27.24-.42-.21-.39-1.51.06-3.44.32-4,.39a8.24,8.24,0,0,1-1.65.16.63.63,0,1,1,.09-1.25c.51,0,1.08-.06,1.58-.09s2.53-.23,4.46-.34c1.34-.07,1.86.94,1,1.93a7.7,7.7,0,0,1-3,2.3.63.63,0,0,1-.5,0A6.73,6.73,0,0,1,480.38,400.48Z" transform="translate(-387.74 -294.06)"/><path class="cls-2" d="M494.9,393.14l0,1.38h1.48c.71,0,1.13.39,1.13.94,0,.72-1.08,2.06-2.16,3a7.43,7.43,0,0,0,3.68.93.53.53,0,0,1,.5.58.67.67,0,0,1-.72.69,7.9,7.9,0,0,1-4.42-1.45,9.37,9.37,0,0,1-4.58,1.73.59.59,0,0,1-.6-.62.56.56,0,0,1,.56-.59,8.08,8.08,0,0,0,3.68-1.25c-.55-.5-1.58-1.7-1.58-2.18a.57.57,0,0,1,.6-.53.47.47,0,0,1,.44.24,7.39,7.39,0,0,0,1.48,1.78,5.49,5.49,0,0,0,1.64-2.07c0-.11-.09-.18-.27-.18h-1.3c-1,0-2.19,0-3.21,0h0a.5.5,0,0,1-.53-.52.55.55,0,0,1,.57-.56h2.48v-1.39l-3.71,0a.55.55,0,1,1,0-1.1l3.71,0v-1.24a.53.53,0,0,1,.59-.51.55.55,0,0,1,.62.51v1.24l3.76,0a.55.55,0,1,1,0,1.1Z" transform="translate(-387.74 -294.06)"/><path class="cls-2" d="M507.54,396.09c-.08.23-.15.44-.25.66l2.17,0a.76.76,0,0,1,.84.75,1,1,0,0,1-.09.39,4.84,4.84,0,0,1-1,1.37,6.72,6.72,0,0,0,2.13.56.49.49,0,0,1,.46.48.59.59,0,0,1-.64.57,6.66,6.66,0,0,1-2.77-.95,7.44,7.44,0,0,1-2.77,1.08.48.48,0,0,1-.49-.49.45.45,0,0,1,.38-.46,5.94,5.94,0,0,0,2.09-.76,4.41,4.41,0,0,1-.95-1.25c-1,1.75-2.07,2.59-2.52,2.59a.52.52,0,0,1-.51-.42,1.46,1.46,0,0,1-1.37.67c-.71,0-1.09-.16-1.09-.65a.51.51,0,0,1,.47-.55h.1a2.3,2.3,0,0,0,.39.05c.25,0,.49-.09.49-.4v-2.53c-.62.33-.84.45-1.07.45a.57.57,0,0,1-.57-.58.53.53,0,0,1,.34-.49c.48-.21.9-.37,1.3-.57v-1.81h-1a.53.53,0,1,1,0-1h1v-1.87a.56.56,0,0,1,.57-.57.53.53,0,0,1,.55.57v1.87h.75a.53.53,0,1,1,0,1h-.75V395l.42-.27a.44.44,0,0,1,.26-.08.5.5,0,0,1,.48.49c0,.28-.23.49-1.16,1,0,.79,0,1.4,0,1.58s0,1.29.05,1.71c0,.09,0,.2,0,.3a.47.47,0,0,1,.13-.11,6.71,6.71,0,0,0,2.63-3.54h-1.26a.45.45,0,1,1,0-.9h1.51c0-.22.09-.44.13-.66h-1.25a.43.43,0,0,1-.46-.45.44.44,0,0,1,.46-.46h.41a.28.28,0,0,1-.06-.09,1.8,1.8,0,0,0-.39-.63.3.3,0,0,1-.1-.23.5.5,0,0,1,.51-.42c.38,0,.86.72.86,1a.51.51,0,0,1-.18.38h1.16a.35.35,0,0,1-.28-.3,1.93,1.93,0,0,0-.28-.7.27.27,0,0,1-.05-.16c0-.22.26-.36.5-.36.51,0,.75.92.75,1a.51.51,0,0,1-.45.48h.83a6.35,6.35,0,0,0,.69-1.46.4.4,0,0,1,.4-.25c.29,0,.6.19.6.45a4.86,4.86,0,0,1-.65,1.25h.73a.47.47,0,0,1,.51.46.46.46,0,0,1-.51.45H508a5.32,5.32,0,0,1-.14.67h3.25a.45.45,0,1,1,0,.9Zm-2.05-4a.51.51,0,0,1-.55-.51.49.49,0,0,1,.53-.5h0a5.91,5.91,0,0,0,.6,0,20.51,20.51,0,0,0,4.13-.41h.13a.55.55,0,0,1,.56.52c0,.21-.13.4-.46.47A29,29,0,0,1,505.49,392.13Zm3.64,5.48c0-.11-.11-.12-.18-.12s-.88,0-1.54,0a3.63,3.63,0,0,0,1,1.17A2.56,2.56,0,0,0,509.13,397.61Z" transform="translate(-387.74 -294.06)"/><path class="cls-2" d="M514.77,400.73a4.62,4.62,0,0,0-1.47-1.26A.54.54,0,0,1,513,399a.54.54,0,0,1,.57-.53c.42,0,2.33,1.06,2.33,1.87a.66.66,0,0,1-.64.66A.55.55,0,0,1,514.77,400.73Z" transform="translate(-387.74 -294.06)"/><path class="cls-2" d="M520.45,396.63c-.83.55-1.54-.54-.7-1.05a8.69,8.69,0,0,0,2.6-2.78,3.5,3.5,0,0,0,.47-1c.22-.8,1.42-.59,1.28.2a1.66,1.66,0,0,1-.18.53c.58-.09,1.2-.24,1.74-.28.84,0,1.59.54,1.13,1.32-1.93,3.31-3.68,5.63-6.92,6.89-1,.39-1.5-.83-.48-1.17a11.06,11.06,0,0,0,5.88-5.61c.12-.24,0-.29-.17-.29-.48,0-1.44.22-1.92.3A12.4,12.4,0,0,1,520.45,396.63Zm6-4.69c-.6-.25-.13-1,.42-.77a4.16,4.16,0,0,1,1.18.72c.47.49-.23,1.22-.63.76A4.11,4.11,0,0,0,526.5,391.94Zm1.08-1c-.61-.24-.18-1,.39-.78a4,4,0,0,1,1.2.68c.48.48-.2,1.22-.6.77A4.54,4.54,0,0,0,527.58,390.92Z" transform="translate(-387.74 -294.06)"/><path class="cls-2" d="M529.24,397.13a2.58,2.58,0,0,0-.65-.87c-.49-.42.21-1.17.76-.66a4.58,4.58,0,0,1,.85,1A.54.54,0,1,1,529.24,397.13Zm.06,2.39a6.26,6.26,0,0,0,3.44-3.65,1.88,1.88,0,0,0,.09-.57c0-.73,1.14-.79,1.19,0a2.11,2.11,0,0,1-.23,1,7.67,7.67,0,0,1-3.95,4.18C529,400.86,528.64,399.82,529.3,399.52Zm1.48-3a2.87,2.87,0,0,0-.53-1c-.43-.48.36-1.12.84-.54a4.58,4.58,0,0,1,.7,1.13A.54.54,0,1,1,530.78,396.51Z" transform="translate(-387.74 -294.06)"/><path class="cls-2" d="M536.88,399.84c-.89.34-1.5-.79-.47-1.14a10.36,10.36,0,0,0,5.36-4.6c.1-.19,0-.28-.11-.27-.59.06-1.95.45-2.27.52a5.25,5.25,0,0,1-1.21.2.62.62,0,1,1,0-1.23,8.77,8.77,0,0,0,1.06-.13c.43-.08,1.89-.46,2.89-.56s1.55.62,1.15,1.31a15.89,15.89,0,0,1-1.51,2.26,8.33,8.33,0,0,1,3.29,2.28.73.73,0,0,1-.11,1,.6.6,0,0,1-.89-.11,9.69,9.69,0,0,0-3-2.31A11.25,11.25,0,0,1,536.88,399.84Zm7.24-6.7a4.31,4.31,0,0,0-.84-.87c-.55-.35.05-1,.55-.67a3.65,3.65,0,0,1,1,.9C545.24,393.07,544.42,393.67,544.12,393.14Zm1.43-.68a3.86,3.86,0,0,0-.87-.84c-.56-.34,0-1,.52-.7a3.58,3.58,0,0,1,1,.87C546.64,392.35,545.87,393,545.55,392.46Z" transform="translate(-387.74 -294.06)"/><path class="cls-2" d="M547.3,400.39a.53.53,0,0,1,.21-.38,3.8,3.8,0,0,0,1.07-1.43.4.4,0,0,1,.38-.26.59.59,0,0,1,.58.55c0,.35-1,2-1.65,2A.57.57,0,0,1,547.3,400.39Zm2.39-2.27c-.26,0-.53,0-.73,0a1,1,0,0,1-.89-1.08c0-.84,0-1.95,0-3,0-.77,0-1.5,0-2.05a.93.93,0,0,1,.88-1h1.53a1,1,0,0,1,.95,1c0,.67,0,1.5,0,2.33,0,1,0,2,0,2.78C551.41,398,550.76,398.12,549.69,398.12Zm.76-4.21H549v1.15h1.41Zm0-.88c0-.32,0-.61,0-.87s-.2-.38-.67-.38-.67.09-.67.39,0,.52,0,.86Zm-1.38,2.9c0,.34,0,.65,0,.9s.13.36.67.36.65,0,.67-.37,0-.56,0-.89Zm8.21-3.75c-.71,0-1.5,0-2.24,0-.43,0-.84,0-1.2,0s-.44.19-.44.46v1.12h2.9c.6,0,1,.28,1,.92a8.49,8.49,0,0,1-1.28,3.52,4.61,4.61,0,0,0,1.86,1.41.58.58,0,0,1,.37.53.65.65,0,0,1-.65.64c-.4,0-1.24-.46-2.19-1.71a4.54,4.54,0,0,1-2.36,1.78.57.57,0,0,1-.56-.57.54.54,0,0,1,.33-.49,5.35,5.35,0,0,0,2-1.65,8.41,8.41,0,0,1-1.14-3.46h-.27c0,1.95-.22,4.12-1.27,5.69a.57.57,0,0,1-.5.27.53.53,0,0,1-.56-.49v-.05a.59.59,0,0,1-.27.08.43.43,0,0,1-.42-.34,2.81,2.81,0,0,0-.41-.87.44.44,0,0,1-.08-.26.47.47,0,0,1,.48-.42c.44,0,.83.78.95,1.12a.44.44,0,0,1,0,.15,9.06,9.06,0,0,0,1-4.76c0-.87,0-1.72-.05-2.5s.4-1.12,1.23-1.14c.61,0,1.27,0,1.91,0s1.3,0,1.86,0a.52.52,0,1,1,0,1Zm-1.14,2.76c0-.16-.11-.25-.3-.25l-1.29,0a7.72,7.72,0,0,0,.81,2.53A6.5,6.5,0,0,0,556.13,394.94Z" transform="translate(-387.74 -294.06)"/></g><g class="cls-1"><path class="cls-2" d="M388.9,424.87a.6.6,0,0,1-.61-.61.53.53,0,0,1,.51-.54,3,3,0,0,0,3-3.26.52.52,0,0,1,.54-.55.56.56,0,0,1,.6.54,4.22,4.22,0,0,1-3.89,4.41Zm1-4.35a.54.54,0,0,1-.59.5c-.56,0-.56-.44-.56-.88,0-.68.05-1.56,1.28-1.57s2.44,0,3.67,0,2.16,0,3.19,0a1.27,1.27,0,0,1,1.41,1.12c0,.15,0,.31,0,.48,0,.4,0,.9-.61.9a.54.54,0,0,1-.59-.5v0c0-1,0-1-.65-1l-3.27,0-2.59,0c-.65,0-.69.21-.7.52v.48Zm.26-2.58a.48.48,0,1,1,0-.95l2.76,0v-.72h-3.65a.48.48,0,1,1,0-1h3.65v-.66a.59.59,0,0,1,.63-.6.58.58,0,0,1,.62.6v.66h3.63a.48.48,0,0,1,0,1h-3.63V417l2.74,0a.48.48,0,0,1,0,.95Zm4.25,2a.51.51,0,0,1,.55.5c0,.47,0,1.75,0,2.4s.09.82,1.11.82,1.42-.34,1.42-1a.5.5,0,0,1,.55-.51.58.58,0,0,1,.64.59c0,1.69-1.18,2-2.7,2-1.3,0-2.16-.18-2.16-1.4,0-.47,0-2.48,0-2.87A.55.55,0,0,1,394.42,419.91Z" transform="translate(-387.74 -294.06)"/><path class="cls-2" d="M402,424.73a4.62,4.62,0,0,0-1.47-1.26.54.54,0,0,1-.33-.48.54.54,0,0,1,.57-.53c.42,0,2.33,1.06,2.33,1.87a.66.66,0,0,1-.64.66A.55.55,0,0,1,402,424.73Z" transform="translate(-387.74 -294.06)"/><path class="cls-2" d="M412.06,422l-.54,1.43a1.14,1.14,0,0,1-1,.82,1.28,1.28,0,0,1-1.14-.84c-.59-1.35-2.08-5.14-2.64-6.79a.39.39,0,0,0-.34-.29.55.55,0,0,1-.63-.57.56.56,0,0,1,.57-.59h0l.82,0,1,0h0a.58.58,0,0,1,.62.59.55.55,0,0,1-.56.57c-.13,0-.18.08-.18.18a63,63,0,0,0,2.13,5.94c.08.19.14.3.21.3s.31-.33,1.05-2.22c-.57-1.49-1.18-3.06-1.51-3.94-.08-.21-.15-.27-.27-.28a.58.58,0,0,1,0-1.14h1.56c.31,0,.47.3.47.59a.52.52,0,0,1-.36.55.12.12,0,0,0-.13.13c0,.2.55,1.86.8,2.57a26.13,26.13,0,0,0,.8-2.57c0-.09,0-.13-.14-.13a.52.52,0,0,1-.53-.57.53.53,0,0,1,.52-.57h0l.71,0,.89,0h0a.51.51,0,0,1,.51.56.54.54,0,0,1-.43.58.26.26,0,0,0-.26.19l-1.54,4c.8,2.09.94,2.19,1,2.19s.12-.09.18-.25c2.13-5.73,2.15-5.85,2.15-5.92a.22.22,0,0,0-.21-.22.52.52,0,0,1-.52-.57c0-.3.16-.59.48-.59h0l.88,0,1.13,0h0a.52.52,0,0,1,.48.57.53.53,0,0,1-.51.59.31.31,0,0,0-.32.19c-.84,2.2-2.21,5.56-2.69,6.91a1.13,1.13,0,0,1-1,.83,1.22,1.22,0,0,1-1.13-.85Z" transform="translate(-387.74 -294.06)"/><path class="cls-2" d="M422.05,423c1.91,0,2-.05,2.2-.78a.62.62,0,0,1,.6-.47.64.64,0,0,1,.66.64,3.19,3.19,0,0,1-.24.78c-.24.62-.68,1-1.95,1h-2.39c-.58,0-1.11,0-1.56,0a.65.65,0,0,1-.72-.62.62.62,0,0,1,.66-.63h.12c.21,0,.27-.06.28-.24.06-.79.07-3,.07-4.78v-1.27c0-.18,0-.28-.31-.28s-.77-.06-.77-.61a.62.62,0,0,1,.67-.61h.05l1.17,0,2.55,0c1.47,0,1.65.54,1.9,1.44a.85.85,0,0,1,0,.26.62.62,0,0,1-.66.62.61.61,0,0,1-.63-.52c-.09-.44-.23-.6-.83-.6l-1.58,0c-.24,0-.32.05-.33.32,0,.54,0,1.38,0,2.18,0,.12.06.16.16.16.39,0,1,0,1.2,0s.24-.18.24-.38a.62.62,0,0,1,.63-.66.57.57,0,0,1,.59.61v0c0,.28,0,.6,0,.91s0,.74,0,1v.05a.58.58,0,0,1-.62.58.57.57,0,0,1-.6-.58v-.05c0-.05,0-.11,0-.16s0-.25-.26-.25h-1.2c-.14,0-.18.06-.18.19,0,1.09,0,2.09,0,2.36S421.12,423,422.05,423Z" transform="translate(-387.74 -294.06)"/><path class="cls-2" d="M433.22,421.47c0,1.26-.94,2.6-3,2.72l-.8,0c-.66,0-1.26,0-1.92,0h-.68a.62.62,0,0,1-.72-.61.63.63,0,0,1,.7-.62h0c.21,0,.24-.11.25-.27,0-.5,0-1.75,0-3s0-2.5,0-3c0-.19-.05-.28-.22-.28-.35,0-.77-.13-.77-.61a.62.62,0,0,1,.67-.61h.7c.61,0,1.16,0,1.76,0l.72,0c2.12.13,2.74,1.26,2.74,2.14a1.84,1.84,0,0,1-1.43,1.86c-.19,0-.21.08-.21.09s.18.05.2.05A2.09,2.09,0,0,1,433.22,421.47Zm-1.36-.12c0-.71-.48-1.38-1.59-1.47l-.81,0c-1,0-1.13,0-1.13.28,0,2.05,0,2.41,0,2.6s.12.31,1,.31c.32,0,.66,0,.89,0A1.67,1.67,0,0,0,431.86,421.35Zm-2.66-5.05c-.73,0-.82,0-.83.31s0,1.2,0,1.88c0,.21.07.26.86.26.23,0,.48,0,.7,0a1.46,1.46,0,0,0,1.42-1.36c0-.56-.43-1.06-1.51-1.06Z" transform="translate(-387.74 -294.06)"/><path class="cls-2" d="M435.92,419.58c0,1.35,0,3.16-.05,4.87a.55.55,0,0,1-.59.53.53.53,0,0,1-.56-.5v0c.08-2.21.06-6.18.08-8.71,0-1.11.73-1.14,2.07-1.14h1.2a1,1,0,0,1,1.1.92c0,.41,0,.83,0,1.24,0,1.47,0,1.75-2.43,1.75-.33,0-.63,0-.84,0Zm2.21-3.4c0-.13,0-.25,0-.36,0-.35-.15-.36-1.08-.36s-1.08,0-1.1.46c0,.08,0,.16,0,.26Zm-2.21.77v.7c.18,0,.54,0,.91,0,1.19,0,1.27-.05,1.28-.38,0-.1,0-.22,0-.34Zm5.24,4.95v2a.5.5,0,0,1-.53.51.5.5,0,0,1-.53-.51v-2H439a2.63,2.63,0,0,1-2,2.58l-.23,0a.48.48,0,0,1-.5-.49.44.44,0,0,1,.35-.44A1.65,1.65,0,0,0,438,421.9h-.94c-.36,0-.53-.22-.53-.44a.49.49,0,0,1,.53-.47h1v-.19c0-.32,0-.62,0-.89h-.73a.47.47,0,0,1-.53-.45.49.49,0,0,1,.53-.46h4.48a.46.46,0,1,1,0,.91h-.61V421h1a.46.46,0,1,1,0,.91Zm-1.06-2h-1V421h1Zm2.38-1.39c-1.51,0-2.46,0-2.5-1,0-.23,0-.48,0-.73,0-.41,0-.83,0-1.24a1,1,0,0,1,1.08-.92h2.13c.9.05,1.26.5,1.26,1v.89c0,1.8,0,3.76,0,5.3,0,.57,0,1.08,0,1.5,0,.86-.42,1.62-1.78,1.62-.81,0-1.29-.11-1.29-.66a.5.5,0,0,1,.49-.53H442a4.13,4.13,0,0,0,.65.07c.4,0,.67-.14.68-.73s0-1,0-1.59c0-.87,0-1.78,0-2.53v-.5C443.15,418.51,442.83,418.52,442.48,418.52Zm.86-2.34c0-.71,0-.72-1.14-.72s-1.12,0-1.15.37c0,.11,0,.23,0,.35Zm0,.77H441c0,.12,0,.24,0,.34,0,.38.28.38,1.35.38.39,0,.8,0,1,0Z" transform="translate(-387.74 -294.06)"/><path class="cls-2" d="M455.45,421.66l-2.24,0c0,.76,0,1.41,0,1.57,0,.44.4.49,1,.49.77,0,1.14-.19,1.14-.9a.51.51,0,0,1,.55-.54.61.61,0,0,1,.65.66c0,1.41-.8,1.85-2.43,1.85-.65,0-2,0-2-1.39,0-.16,0-.9,0-1.76H450.8c-.22,1.47-1,2.82-3.37,3.31l-.21,0a.58.58,0,0,1-.62-.6.5.5,0,0,1,.43-.53c1.81-.25,2.42-1.11,2.62-2.2l-1.91,0h0a.5.5,0,0,1-.56-.52.56.56,0,0,1,.57-.57h2v-1.4h-.14a.54.54,0,0,1-.51-.28,6,6,0,0,1-2.16,1.15.58.58,0,0,1-.55-.59.55.55,0,0,1,.36-.51,8.29,8.29,0,0,0,3.84-3.19c0-.09-.07-.12-.19-.12l-1.69,0a.48.48,0,0,1-.51-.5.5.5,0,0,1,.51-.52h1.69c.76,0,1.38,0,1.53.68a.47.47,0,0,1,.33.16q.22.27.48.54a6.41,6.41,0,0,0,.88-1,.45.45,0,0,1,.4-.23.65.65,0,0,1,.62.6c0,.41-.92,1.19-1.17,1.39l.57.51a6.83,6.83,0,0,0,1.11-1.11.46.46,0,0,1,.38-.2.67.67,0,0,1,.62.61c0,.26-.39.68-1.26,1.32a9.1,9.1,0,0,0,1.6.85.56.56,0,0,1,.38.51.65.65,0,0,1-.67.62,5.22,5.22,0,0,1-2.19-1.22v0a.53.53,0,0,1-.57.53h-.19c0,.36,0,.86,0,1.4h2.23a.54.54,0,0,1,.58.55.52.52,0,0,1-.57.54Zm-7.32-4.27a5,5,0,0,0-1-.83.41.41,0,0,1-.24-.36.59.59,0,0,1,.6-.53c.48,0,1.48.86,1.51.89a.55.55,0,0,1,.16.37.65.65,0,0,1-.63.63A.47.47,0,0,1,448.13,417.39Zm5.26.73a18.79,18.79,0,0,1-1.78-1.82,12.55,12.55,0,0,1-1.62,1.82Zm-1.29,2.46c0-.54,0-1,0-1.4h-1.26v1.12c0,.1,0,.18,0,.28Z" transform="translate(-387.74 -294.06)"/><path class="cls-2" d="M462.66,416.74a31.84,31.84,0,0,1-2.42,4.6.67.67,0,0,1-.6.36.53.53,0,0,1-.56-.52.72.72,0,0,1,.13-.41,26.14,26.14,0,0,0,2.12-3.5,3.59,3.59,0,0,1-1.51.48c-.79,0-.79-.54-.79-.59a.54.54,0,0,1,.55-.56l.24,0a.47.47,0,0,0,.21,0,4.9,4.9,0,0,0,1.69-.62c0-.29,0-.57,0-.93a.57.57,0,0,1,1.14,0v.25l.14,0a.49.49,0,0,1,.48.49c0,.41-.52.72-.86.91Zm-.34,7.94c-1.09,0-2-.78-2-1.46s1.06-1.38,2.61-1.38l.55,0c-.09-1-.09-1-.09-1.14,0-.78.26-1.48,1.66-2.42a.24.24,0,0,0,.11-.14c0-.07-.11-.07-.16-.07a4.57,4.57,0,0,0-.77.14h-.15a.41.41,0,0,1-.46-.39c0-.32.35-.68,1.6-.68.87,0,1.93.51,1.93,1.06a.62.62,0,0,1-.61.54,2.16,2.16,0,0,0-2.15,2,3.28,3.28,0,0,0,.06.59l.12.74c.74.23,1.91.75,1.91,1.44a.59.59,0,0,1-.56.62.71.71,0,0,1-.49-.24,4.17,4.17,0,0,0-.91-.65A2.36,2.36,0,0,1,462.32,424.68Zm.33-1.92c-.71,0-1.3.24-1.3.46s.41.47.88.47a1.21,1.21,0,0,0,1.23-.83A3.74,3.74,0,0,0,462.65,422.76Z" transform="translate(-387.74 -294.06)"/><path class="cls-2" d="M471.35,419.66c-.51-.28-.62-.67-.62-1.35,0-.19,0-.4,0-.64,0-.56,0-1,0-1.35a5.61,5.61,0,0,0-.08-1.15.44.44,0,0,1,0-.15.52.52,0,0,1,.56-.53c.73,0,.76.69.76,1.5,0,.33,0,.75-.07,1.35,0,.37-.06.67-.06.91,0,.75.49.82.85.82.18,0,.21-.1.35-.15a.63.63,0,0,1,.19,0,.6.6,0,0,1,.6.57.77.77,0,0,1-.44.63c-.41.25-1.37.66-1.92,1-.91.5-1.32,1-1.32,1.46s.53,1,1.76,1a3.3,3.3,0,0,0,1.67-.39,1,1,0,0,1,.56-.19.65.65,0,0,1,.69.61c0,.75-1.41,1.17-2.64,1.17-2.17,0-3.14-1-3.14-2.07,0-.86.66-1.84,2.11-2.66l.4-.23A.76.76,0,0,1,471.35,419.66Zm3.27-1a4.6,4.6,0,0,0-.88-.82.39.39,0,0,1-.24-.34.47.47,0,0,1,.49-.42c.27,0,1.44.72,1.44,1.23a.53.53,0,0,1-.49.53A.36.36,0,0,1,474.62,418.71Zm1.21-.91a4.17,4.17,0,0,0-.9-.78.43.43,0,0,1-.26-.35.49.49,0,0,1,.5-.43c.24,0,1.46.69,1.46,1.21a.53.53,0,0,1-.49.53A.38.38,0,0,1,475.83,417.8Z" transform="translate(-387.74 -294.06)"/><path class="cls-2" d="M479.25,424.73a4.62,4.62,0,0,0-1.47-1.26.54.54,0,0,1-.33-.48.54.54,0,0,1,.57-.53c.42,0,2.33,1.06,2.33,1.87a.66.66,0,0,1-.64.66A.55.55,0,0,1,479.25,424.73Z" transform="translate(-387.74 -294.06)"/><path class="cls-2" d="M487.5,417.27a3.88,3.88,0,0,1-.58-1.35.51.51,0,0,1,.55-.52.72.72,0,0,1,.69.57,5.79,5.79,0,0,0,.44,1l.54-.19a.94.94,0,0,1,.34-.07.55.55,0,0,1,.57.55c0,.46-.33.55-.91.72,1,1.86,1.64,3,1.64,3.72,0,.48-.24.67-.53.67a1,1,0,0,1-.62-.25,6,6,0,0,0-2.77-.65c-1,0-1.44.47-1.44.81,0,.52,1,.88,2.1.88l.57,0h.11c.47,0,.7.27.7.57a.72.72,0,0,1-.78.69c-2.45,0-3.89-.95-3.89-2,0-.59.64-1.91,2.72-1.91a14.34,14.34,0,0,1,2.22.27h.11l0,0a8,8,0,0,0-1.24-2.49,9,9,0,0,1-1.33.2,2.78,2.78,0,0,1-2.56-1.68.55.55,0,0,1,.58-.51.7.7,0,0,1,.56.27,2.08,2.08,0,0,0,1.55.82h.23Z" transform="translate(-387.74 -294.06)"/><path class="cls-2" d="M495.46,424.84c-1,0-2-.66-2-1.53,0-1.12,1.44-1.37,2.34-1.37a5.46,5.46,0,0,1,.9.07v-.21c0-.18,0-.37,0-.58,0-.38-.07-.76-.09-1.17a4,4,0,0,1-.91.12c-.23,0-1.46-.09-1.46-.9,0-.23.1-.62.89-1.32.16-.13.27-.25.27-.38,0-.32-1-.68-1.8-.7-.44,0-.64-.25-.64-.5s.22-.54.65-.54,2.5.44,2.88,1.28v-.56c0-.49,0-1,0-1.35a.55.55,0,0,1,.55-.6.61.61,0,0,1,.63.6v0c-.06.81-.12,1.95-.12,3.09v.32a2.06,2.06,0,0,0,.57-.42.63.63,0,0,1,.43-.2.59.59,0,0,1,.57.58c0,.59-1,1-1.55,1.18,0,.45.05.89.1,1.26s.08.79.09,1.23c.88.32,1.8.88,1.8,1.47a.65.65,0,0,1-.6.67.68.68,0,0,1-.51-.28,3.51,3.51,0,0,0-.83-.69A2.42,2.42,0,0,1,495.46,424.84Zm.15-2c-.84,0-1.11.22-1.11.44s.46.52.87.52a1.23,1.23,0,0,0,1.18-.83A3.8,3.8,0,0,0,495.61,422.86Zm.86-5.13a1.37,1.37,0,0,1-.39.5c-.69.55-.7.73-.7.77s.19.17.33.17a2.93,2.93,0,0,0,.81-.14C496.49,418.6,496.48,418.16,496.47,417.73Z" transform="translate(-387.74 -294.06)"/><path class="cls-2" d="M505.56,417.27a4.17,4.17,0,0,1-.58-1.35.51.51,0,0,1,.55-.52.72.72,0,0,1,.69.57,5.79,5.79,0,0,0,.44,1l.54-.19a.94.94,0,0,1,.34-.07.55.55,0,0,1,.57.55c0,.46-.33.55-.91.72,1,1.86,1.64,3,1.64,3.72,0,.48-.24.67-.53.67a1,1,0,0,1-.62-.25,6,6,0,0,0-2.77-.65c-1,0-1.44.47-1.44.81,0,.52,1,.88,2.1.88l.57,0h.11c.47,0,.7.27.7.57a.72.72,0,0,1-.78.69c-2.45,0-3.89-.95-3.89-2,0-.59.64-1.91,2.72-1.91a14.34,14.34,0,0,1,2.22.27h.11l0,0a8,8,0,0,0-1.24-2.49,9.17,9.17,0,0,1-1.33.2,2.78,2.78,0,0,1-2.56-1.68.55.55,0,0,1,.58-.51.7.7,0,0,1,.56.27,2.08,2.08,0,0,0,1.55.82h.23Zm3.26-.37A4.27,4.27,0,0,0,508,416a.44.44,0,0,1-.23-.35.47.47,0,0,1,.49-.42c.31,0,1.41.81,1.41,1.29a.55.55,0,0,1-.51.54A.36.36,0,0,1,508.82,416.9Zm1.39-.72a4,4,0,0,0-.87-.83.42.42,0,0,1-.24-.35.49.49,0,0,1,.49-.43c.39,0,1.44.78,1.44,1.27a.54.54,0,0,1-.5.53A.37.37,0,0,1,510.21,416.18Z" transform="translate(-387.74 -294.06)"/><path class="cls-2" d="M515.14,424.84c-1,0-2-.66-2-1.53,0-1.12,1.44-1.37,2.34-1.37a5.46,5.46,0,0,1,.9.07v-.21c0-.18,0-.37,0-.58,0-.38-.07-.76-.09-1.17a4,4,0,0,1-.91.12c-.23,0-1.46-.09-1.46-.9,0-.23.1-.62.89-1.32.16-.13.27-.25.27-.38,0-.32-1-.68-1.8-.7-.43,0-.64-.25-.64-.5s.22-.54.65-.54,2.51.44,2.88,1.28v-.56c0-.49,0-1,0-1.35a.55.55,0,0,1,.55-.6.61.61,0,0,1,.63.6v0c-.06.81-.12,1.95-.12,3.09v.32a2.06,2.06,0,0,0,.57-.42.63.63,0,0,1,.43-.2.59.59,0,0,1,.57.58c0,.59-1,1-1.55,1.18,0,.45,0,.89.1,1.26s.08.79.09,1.23c.88.32,1.8.88,1.8,1.47a.65.65,0,0,1-.6.67.68.68,0,0,1-.51-.28,3.51,3.51,0,0,0-.83-.69A2.42,2.42,0,0,1,515.14,424.84Zm.15-2c-.84,0-1.11.22-1.11.44s.46.52.87.52a1.23,1.23,0,0,0,1.18-.83A3.8,3.8,0,0,0,515.29,422.86Zm.86-5.13a1.33,1.33,0,0,1-.38.5c-.7.55-.71.73-.71.77s.19.17.33.17a2.93,2.93,0,0,0,.81-.14C516.17,418.6,516.16,418.16,516.15,417.73Z" transform="translate(-387.74 -294.06)"/><path class="cls-2" d="M525.54,416.74a30.87,30.87,0,0,1-2.42,4.6.67.67,0,0,1-.6.36.53.53,0,0,1-.56-.52.81.81,0,0,1,.13-.41,26.14,26.14,0,0,0,2.12-3.5,3.59,3.59,0,0,1-1.51.48c-.79,0-.79-.54-.79-.59a.54.54,0,0,1,.55-.56l.24,0a.47.47,0,0,0,.21,0,4.9,4.9,0,0,0,1.69-.62c0-.29,0-.57,0-.93a.53.53,0,0,1,.56-.53.55.55,0,0,1,.58.52v.25l.13,0a.49.49,0,0,1,.48.49c0,.41-.52.72-.86.91Zm-.34,7.94c-1.09,0-2-.78-2-1.46s1.06-1.38,2.61-1.38l.55,0c-.09-1-.09-1-.09-1.14,0-.78.26-1.48,1.66-2.42a.24.24,0,0,0,.11-.14c0-.07-.11-.07-.16-.07a4.75,4.75,0,0,0-.77.14H527a.41.41,0,0,1-.46-.39c0-.32.35-.68,1.6-.68.87,0,1.93.51,1.93,1.06a.62.62,0,0,1-.61.54,2.16,2.16,0,0,0-2.15,2,3.28,3.28,0,0,0,.06.59l.12.74c.74.23,1.91.75,1.91,1.44a.59.59,0,0,1-.56.62.71.71,0,0,1-.49-.24,3.94,3.94,0,0,0-.91-.65A2.36,2.36,0,0,1,525.2,424.68Zm.33-1.92c-.7,0-1.3.24-1.3.46s.42.47.88.47a1.21,1.21,0,0,0,1.23-.83A3.74,3.74,0,0,0,525.53,422.76Z" transform="translate(-387.74 -294.06)"/><path class="cls-2" d="M537.08,419.56c-.63,4.28-4,5.24-4.4,5.24a.59.59,0,0,1-.6-.59.57.57,0,0,1,.45-.54,4.59,4.59,0,0,0,3.35-4.11H534.8a.49.49,0,0,1-.52-.49V419c-.54.62-1.39,1.46-1.92,1.46a.63.63,0,0,1-.64-.61.62.62,0,0,1,.32-.52,6.33,6.33,0,0,0,2.37-2.68.62.62,0,0,1,.56-.37.64.64,0,0,1,.64.61,5.9,5.9,0,0,1-1,1.68.76.76,0,0,1,.16,0h3.93a1.2,1.2,0,0,1,1.27,1.32c0,2.33-.07,4.88-2.72,4.88a5.21,5.21,0,0,1-1.19-.16.56.56,0,0,1-.4-.56.59.59,0,0,1,.57-.62l.18,0a3.56,3.56,0,0,0,.94.15c.84,0,1.44-.41,1.44-3.37V420c0-.34-.17-.47-.42-.47Zm-1.56-3.68h0a.57.57,0,0,1,0-1.13l2,0h0a1.39,1.39,0,0,1,1.39.74A8,8,0,0,0,542,419a.65.65,0,0,1,.34.58.72.72,0,0,1-.7.71c-.67,0-2.49-1.72-3.61-4.07a.66.66,0,0,0-.69-.37h-.06Z" transform="translate(-387.74 -294.06)"/><path class="cls-2" d="M546.93,421.54v1.07c.59-.13,1.14-.29,1.63-.45l.15,0a.45.45,0,0,1,.42.47.52.52,0,0,1-.35.48,25.49,25.49,0,0,1-4.64,1.08.53.53,0,0,1-.53-.56.48.48,0,0,1,.45-.51c.63-.06,1.24-.16,1.83-.27v-1.28h-1.54a.43.43,0,0,1-.45-.45.45.45,0,0,1,.46-.48h1.54v-1l-.79,0a1.06,1.06,0,0,1-1.12-1c0-.4,0-.87,0-1.35s0-1,0-1.42a1.09,1.09,0,0,1,1.19-1.12c.43,0,.85,0,1.28,0s.87,0,1.29,0a1,1,0,0,1,1,.91c0,.56.06,1.1.06,1.64s0,.9-.05,1.34c0,.6-.43.94-1.16,1l-.72,0v1h1.53a.44.44,0,0,1,.45.46.46.46,0,0,1-.46.48Zm-1-6c-1,0-1,0-1,1.13h1Zm0,2h-1c0,.28,0,.56,0,.81s.22.37.93.37Zm2-.87c0-.28,0-.53,0-.76s-.2-.37-.92-.37v1.13Zm-1,.87v1.18c.94,0,1,0,1-1.18Zm4,1.71-1.47,0h0a.48.48,0,0,1-.51-.48.49.49,0,0,1,.52-.5h2a.55.55,0,0,1-.1-.11,3.21,3.21,0,0,0-1.14-.83.35.35,0,0,1-.23-.32.58.58,0,0,1,.58-.52,1.83,1.83,0,0,1,.73.3,5.89,5.89,0,0,0,.92-1s0-.06-.08-.06c-.68,0-1.54.06-2.33.09h0a.48.48,0,0,1-.5-.5.49.49,0,0,1,.51-.52l2.14,0h.79c.61,0,1,.33,1,.74,0,.25-.12.69-1.6,1.87l.06.06a.46.46,0,0,1,.13.32.66.66,0,0,1-.28.5h1.28a.92.92,0,0,1,1,.93,4.8,4.8,0,0,1-.69,1.71.78.78,0,0,1-.6.31.52.52,0,0,1-.57-.46.45.45,0,0,1,.1-.27,4.39,4.39,0,0,0,.56-1.08c0-.19-.18-.19-1.08-.19v2.26l0,1.69v0a1.52,1.52,0,0,1-1.73,1.56c-.68,0-1.2-.09-1.2-.69a.49.49,0,0,1,.46-.54h.12a2.81,2.81,0,0,0,.61.09c.38,0,.63-.16.63-.72Z" transform="translate(-387.74 -294.06)"/></g><g class="cls-1"><path class="cls-2" d="M395.25,448.25h-.12c-2.6-.24-4.25-2-4.25-3.89a3.37,3.37,0,0,1,.87-2.19c0-.05.06-.08.06-.11l0,0-.12,0c-1.88,1-2.11,1-2.37,1a.64.64,0,0,1-.18-1.27c.25-.09.93-.29,1.29-.42.57-.21,1.56-.52,2.75-1a9.11,9.11,0,0,1,3.18-.75c.6,0,.81.28.81.59,0,.61-.5.74-1,.74h-.56c-1.86,0-3.68,1.58-3.68,3.19,0,1.44,1.36,2.66,3.25,2.66.6,0,.89.35.89.71S395.8,448.25,395.25,448.25Zm1-4.21a4.76,4.76,0,0,0-1-.74.41.41,0,0,1-.3-.38.51.51,0,0,1,.53-.46c.15,0,1.62.55,1.62,1.17a.58.58,0,0,1-.52.57A.41.41,0,0,1,396.28,444Zm1.38-1a4.13,4.13,0,0,0-1-.7c-.22-.09-.32-.23-.32-.37a.52.52,0,0,1,.53-.48c.19,0,1.63.51,1.63,1.14a.56.56,0,0,1-.5.56A.41.41,0,0,1,397.66,443Z" transform="translate(-387.74 -294.06)"/><path class="cls-2" d="M401.24,443.24a4.68,4.68,0,0,0-1.4-.77.4.4,0,0,1-.3-.4.59.59,0,0,1,.57-.57,4.25,4.25,0,0,1,1.76.71.61.61,0,0,1,.26.5.65.65,0,0,1-.56.66A.53.53,0,0,1,401.24,443.24Zm-.64,5.42a.63.63,0,0,1-.63-.59.61.61,0,0,1,.14-.36,10.88,10.88,0,0,0,1.61-2.85.5.5,0,0,1,.48-.33.58.58,0,0,1,.6.55,10.4,10.4,0,0,1-1.63,3.27A.71.71,0,0,1,400.6,448.66Zm1.17-8.05a5.24,5.24,0,0,0-1.21-1,.44.44,0,0,1-.23-.38.59.59,0,0,1,.6-.53c.2,0,1.84.75,1.84,1.45a.66.66,0,0,1-.61.64A.52.52,0,0,1,401.77,440.61Zm5.25,2.27v1.51l.9,0a1.32,1.32,0,0,1,1.4,1.13c0,.34,0,.7,0,1s0,.55,0,.82c0,.71-.5,1.17-1.41,1.25-.36,0-.9,0-1.44,0-1.82,0-2.81-.06-2.85-1.26,0-.34,0-.69,0-1s0-.56,0-.81a1.25,1.25,0,0,1,1.35-1.18l.89,0v-1.51H403.4a.53.53,0,1,1,0-1.06h2.47v-1.41c-.68.08-1.76.15-1.93.15a.52.52,0,0,1-.55-.55.49.49,0,0,1,.49-.53,15,15,0,0,0,4.48-.64.7.7,0,0,1,.23,0,.54.54,0,0,1,.54.55c0,.44-.23.6-2.11.9v1.57h2.54a.53.53,0,1,1,0,1.06Zm1.13,2.95c0-.49-.25-.49-1.71-.49l-1.12,0c-.55,0-.55.29-.55,1,0,.25,0,.51,0,.73,0,.57.42.57,1.7.57,1.69,0,1.69,0,1.69-1.17C408.17,446.27,408.16,446,408.15,445.83Z" transform="translate(-387.74 -294.06)"/><path class="cls-2" d="M414,446.24l-1.59,0h0a.42.42,0,0,1-.46-.42.44.44,0,0,1,.48-.42H414V445c-1.76,0-1.92,0-1.92-1.7,0-1.48.34-1.49,1.93-1.49v-.49h-1.82a.45.45,0,0,1-.48-.43.44.44,0,0,1,.48-.43H414v-.5c-.68,0-1.26,0-1.5,0a.47.47,0,0,1-.5-.48.45.45,0,0,1,.49-.45h0l.73,0a13.85,13.85,0,0,0,2.95-.34h.12a.49.49,0,0,1,.49.49c0,.36-.24.48-1.82.65l0,.59h1.78a.44.44,0,0,1,.49.43s0,.06,0,.08a.47.47,0,0,1,.27-.07h1V439a.51.51,0,0,1,.55-.53.54.54,0,0,1,.58.53l0,1.87h.9a1.24,1.24,0,0,1,1.29,1.33c0,.35,0,.71,0,1.07,0,2.3-.22,5.29-2.45,5.29a3.4,3.4,0,0,1-1-.18.56.56,0,0,1-.39-.54.54.54,0,0,1,.52-.57,1.11,1.11,0,0,1,.23,0,2.31,2.31,0,0,0,.63.12c.52,0,1.38-.31,1.38-4.26,0-.28,0-.56,0-.82a.41.41,0,0,0-.44-.46h-.64c-.08,2.53-.75,5.25-3,6.79a.67.67,0,0,1-.39.13.57.57,0,0,1-.57-.55.57.57,0,0,1,.28-.47,4.09,4.09,0,0,0,.51-.4,33.55,33.55,0,0,1-4.36.77.48.48,0,0,1-.48-.5.43.43,0,0,1,.42-.47c.65-.05,1.33-.11,2-.2Zm0-2.6h-1c0,.09,0,.16,0,.22,0,.36.14.37,1,.37Zm0-1.18c-.9,0-1,0-1,.43V443h1Zm1,3.75v.59c.55-.1,1-.2,1.5-.31h.1a.39.39,0,0,1,.39.32,7.67,7.67,0,0,0,1.51-4.93h-1a.48.48,0,0,1-.5-.51.88.88,0,0,1,0-.16.54.54,0,0,1-.27.06H415v.48c1.58,0,2,0,2,1.54s-.24,1.66-2,1.66v.46l1.5,0h0a.42.42,0,0,1,.44.41.43.43,0,0,1-.46.41Zm1-3.37c0-.38-.16-.38-1-.38V443h1Zm-1,.8v.59c.76,0,1,0,1-.38,0-.07,0-.13,0-.21Z" transform="translate(-387.74 -294.06)"/><path class="cls-2" d="M427.17,448.36c-2.4,0-2.5-1.39-2.5-2.58,0-1.37.15-3.11.15-4.52a13.25,13.25,0,0,0-.07-1.37s0-.08,0-.12a.6.6,0,0,1,.63-.6.66.66,0,0,1,.67.58c0,.26,0,.55,0,.86,0,1.48-.26,3.36-.26,5,0,1,.05,1.58,1.24,1.58a8.46,8.46,0,0,0,2.87-.62,1,1,0,0,1,.37-.09.56.56,0,0,1,.58.58.82.82,0,0,1-.58.75A9.25,9.25,0,0,1,427.17,448.36Z" transform="translate(-387.74 -294.06)"/><path class="cls-2" d="M438.51,448.25h-.12c-2.6-.24-4.25-2-4.25-3.89a3.37,3.37,0,0,1,.87-2.19c0-.05.06-.08.06-.11l0,0-.12,0c-1.88,1-2.11,1-2.37,1a.64.64,0,0,1-.18-1.27c.25-.09.93-.29,1.29-.42.57-.21,1.56-.52,2.75-1a9.11,9.11,0,0,1,3.18-.75c.6,0,.81.28.81.59,0,.61-.5.74-1,.74h-.56c-1.86,0-3.68,1.58-3.68,3.19,0,1.44,1.36,2.66,3.25,2.66.6,0,.89.35.89.71S439.06,448.25,438.51,448.25Z" transform="translate(-387.74 -294.06)"/><path class="cls-2" d="M448.23,444.23a11.68,11.68,0,0,0,.44,1.11,1.63,1.63,0,0,1,.16.61.63.63,0,0,1-.67.67,1.82,1.82,0,0,1-.54-.1,8.77,8.77,0,0,0-2.11-.32c-.88,0-1.44.34-1.44.65s.52.79,1.87.79a3.37,3.37,0,0,0,.58,0h.15a.55.55,0,0,1,.62.54c0,.53-.5.68-.89.68-1.9,0-3.49-.85-3.49-1.89,0-.44.44-1.67,2.74-1.67.49,0,1,0,1.29.06h.23c.13,0,.25,0,.25-.18a6.48,6.48,0,0,0-.26-.91,5.11,5.11,0,0,1-.78,0c-.23,0-2.52,0-2.52-1.36a1.14,1.14,0,0,1,.47-.89.24.24,0,0,0,.12-.2c0-.24-.72-.64-1.31-.76-.39-.08-.57-.32-.57-.54a.57.57,0,0,1,.62-.52c.76,0,2.59,1.08,2.59,1.8,0,.29-.24.49-.51.64s-.32.21-.32.31.69.44,1.38.44a3.75,3.75,0,0,0,.48,0,17.77,17.77,0,0,0-1.7-3.65.67.67,0,0,1-.12-.35.55.55,0,0,1,.61-.48.72.72,0,0,1,.66.41,35.66,35.66,0,0,1,1.54,3.81l.57-.19.23,0a.51.51,0,0,1,.5.55c0,.47-.33.6-.93.79Z" transform="translate(-387.74 -294.06)"/><path class="cls-2" d="M453.94,448.84c-1,0-2-.66-2-1.53,0-1.12,1.44-1.37,2.34-1.37a5.46,5.46,0,0,1,.9.07v-.21c0-.18,0-.37,0-.58,0-.38-.07-.76-.09-1.17a4,4,0,0,1-.91.12c-.23,0-1.46-.09-1.46-.9,0-.23.1-.62.89-1.32.16-.13.27-.25.27-.38,0-.32-1-.68-1.8-.7-.43,0-.64-.25-.64-.5s.22-.54.65-.54,2.51.44,2.88,1.28v-.56c0-.49,0-1,0-1.35a.55.55,0,0,1,.55-.6.61.61,0,0,1,.63.6v0c-.06.81-.12,1.95-.12,3.09v.32a2.06,2.06,0,0,0,.57-.42.63.63,0,0,1,.43-.2.59.59,0,0,1,.57.58c0,.59-1,1-1.55,1.18,0,.45,0,.89.1,1.26s.08.79.09,1.23c.88.32,1.8.88,1.8,1.47a.65.65,0,0,1-.6.67.68.68,0,0,1-.51-.28,3.51,3.51,0,0,0-.83-.69A2.42,2.42,0,0,1,453.94,448.84Zm.15-2c-.84,0-1.11.22-1.11.44s.46.52.87.52A1.23,1.23,0,0,0,455,447,3.8,3.8,0,0,0,454.09,446.86Zm.86-5.13a1.33,1.33,0,0,1-.38.5c-.7.55-.71.73-.71.77s.19.17.33.17A2.93,2.93,0,0,0,455,443C455,442.6,455,442.16,455,441.73Z" transform="translate(-387.74 -294.06)"/><path class="cls-2" d="M463.29,448.36c-2.4,0-2.5-1.39-2.5-2.58,0-1.37.15-3.11.15-4.52a13.25,13.25,0,0,0-.07-1.37s0-.08,0-.12a.6.6,0,0,1,.63-.6.66.66,0,0,1,.67.58c0,.26,0,.55,0,.86,0,1.48-.26,3.36-.26,5,0,1,.05,1.58,1.24,1.58a8.46,8.46,0,0,0,2.87-.62,1,1,0,0,1,.37-.09.57.57,0,0,1,.59.58.82.82,0,0,1-.59.75A9.25,9.25,0,0,1,463.29,448.36Z" transform="translate(-387.74 -294.06)"/><path class="cls-2" d="M472.88,441.57a58.66,58.66,0,0,1-2.78,6.3.63.63,0,0,1-.58.33.57.57,0,0,1-.62-.51.67.67,0,0,1,.09-.34,36.4,36.4,0,0,0,2.6-5.42l-.13,0a4,4,0,0,1-1,.15c-.12,0-1.05,0-1.05-.65a.57.57,0,0,1,.53-.61.82.82,0,0,1,.36.1.62.62,0,0,0,.31.07,5.32,5.32,0,0,0,1.4-.34,4.49,4.49,0,0,0,.08-.95.6.6,0,0,1,.66-.57.51.51,0,0,1,.57.43,1.41,1.41,0,0,1,0,.21,1.93,1.93,0,0,1,0,.23.37.37,0,0,1,.15,0,.57.57,0,0,1,.57.55c0,.31-.22.53-1.11.93Zm3.66,6.75c-2,0-3.27-1-3.27-1.65a.64.64,0,0,1,.59-.64.56.56,0,0,1,.47.27c.45.61.84.69,2.41.8a.59.59,0,0,1,.61.6C477.35,448.32,476.73,448.32,476.54,448.32Zm.69-4.51a6.89,6.89,0,0,0-2.12-.55,1.32,1.32,0,0,0-.41.05l-.13,0a.47.47,0,0,1-.46-.49c0-.19.06-.63,1.13-.63a6.85,6.85,0,0,1,2.44.54.55.55,0,0,1,.38.52.59.59,0,0,1-.83.54Z" transform="translate(-387.74 -294.06)"/><path class="cls-2" d="M481,449a1.37,1.37,0,1,1,1.36-1.36A1.36,1.36,0,0,1,481,449Zm0-2.26a.89.89,0,0,0-.91.9.91.91,0,1,0,.91-.9Z" transform="translate(-387.74 -294.06)"/></g></g></svg>