<svg id="風船黄" xmlns="http://www.w3.org/2000/svg" width="277.289" height="572.048" viewBox="0 0 277.289 572.048">
  <path id="パス_30" data-name="パス 30" d="M139.841,0C62.609,0,0,68.87,0,153.826S105.335,307.651,139.841,307.651C305.059,285.316,340.306,18.781,139.841,0Z" fill="#f7c600"/>
  <path id="パス_31" data-name="パス 31" d="M136.086,399.226c-1.982-9.629-5.1-18.956-7.746-28.41a127.347,127.347,0,0,1-5-30.68c-.712-23.856,4.952-47.278,10.546-70.293.91-3.746-4.868-5.345-5.779-1.593-4.906,20.182-9.779,40.583-10.681,61.415a129.006,129.006,0,0,0,2.089,30.214c1.982,10.181,5.36,20.007,8.121,29.986,8.543,30.878,7.8,64.458-4.232,94.341a111.312,111.312,0,0,1-30.153,42.65c-2.921,2.529,1.333,6.753,4.238,4.238,24.367-21.1,37.668-52.019,41.024-83.666A157.253,157.253,0,0,0,136.086,399.226Z" transform="translate(13.933 40.183)"/>
</svg>
