<svg id="風船赤" xmlns="http://www.w3.org/2000/svg" width="147.763" height="304.835" viewBox="0 0 147.763 304.835">
  <path id="パス_36" data-name="パス 36" d="M74.519,0C33.363,0,0,36.7,0,81.971s56.131,81.971,74.519,81.971C162.561,152.04,181.344,10.008,74.519,0Z" fill="#f71140"/>
  <path id="パス_37" data-name="パス 37" d="M115.619,337.045c-1.056-5.131-2.717-10.1-4.128-15.139a67.862,67.862,0,0,1-2.664-16.349c-.38-12.712,2.639-25.194,5.62-37.458.485-2-2.594-2.848-3.08-.849-2.614,10.754-5.211,21.626-5.692,32.727a68.744,68.744,0,0,0,1.113,16.1c1.056,5.425,2.856,10.661,4.328,15.979,4.552,16.454,4.157,34.349-2.255,50.273a59.317,59.317,0,0,1-16.068,22.728c-1.557,1.348.71,3.6,2.258,2.258,12.985-11.241,20.072-27.72,21.861-44.584A83.8,83.8,0,0,0,115.619,337.045Z" transform="translate(-35.676 -102.892)"/>
</svg>
