<svg id="レイヤー_1" data-name="レイヤー 1" xmlns="http://www.w3.org/2000/svg" viewBox="0 0 201.87 13.56"><defs><style>.cls-1{isolation:isolate;}.cls-2{fill:#040000;}</style></defs><g id="夢追い人で溢れる鹿児島を創る_" data-name="夢追い人で溢れる鹿児島を創る " class="cls-1"><g class="cls-1"><path class="cls-2" d="M386.84,368.8V369c0,.33-.33.5-.66.5s-.72-.18-.72-.5v-.21H383.6V369c0,.33-.33.5-.66.5s-.7-.18-.7-.5v-.21l-3.32,0a.57.57,0,0,1-.63-.57.62.62,0,0,1,.63-.62l3.32,0v-.48c0-.33.33-.5.67-.5s.69.17.69.5v.48h1.86v-.48c0-.35.35-.51.69-.51s.69.16.69.51v.48l3.44,0a.6.6,0,1,1,0,1.19Zm2.36,7c0-1.29,0-1.33-.93-1.35s-2.24,0-3.48,0a.51.51,0,0,1,.1.29.67.67,0,0,1-.25.48l2.32,0c.81,0,1.17.39,1.17.85a1.25,1.25,0,0,1-.31.75c-1.47,1.7-3.47,3.17-8.28,3.17a.62.62,0,0,1-.65-.64.58.58,0,0,1,.59-.61h0c.26,0,.5,0,.74,0a10.51,10.51,0,0,0,3.15-.46,7.23,7.23,0,0,0-.84-.41.44.44,0,0,1-.32-.41.61.61,0,0,1,.63-.56,7.13,7.13,0,0,1,1.92.76,3.53,3.53,0,0,0,1.52-1.32c0-.07-.06-.09-.12-.09h-.06c-.09,0-2.07,0-2.79,0a8.54,8.54,0,0,1-3.51,1.79.59.59,0,0,1-.63-.57.63.63,0,0,1,.46-.58,10.24,10.24,0,0,0,3.95-2.44c-1,0-2,0-2.82,0s-.93.18-1,.74v.66h0a.63.63,0,0,1-.7.56c-.35,0-.71-.19-.71-.57,0-.2,0-.38,0-.58s0-.4,0-.64c0-.73.59-1.23,1.74-1.24,1.52,0,3.2,0,4.85,0,1.36,0,2.71,0,4,0a1.55,1.55,0,0,1,1.7,1.34c0,.23,0,.44,0,.63,0,.54-.06,1.07-.78,1.07a.64.64,0,0,1-.7-.62Zm-4.31-2.94h-3.48c-1.56,0-1.6-.65-1.6-1.64s.09-1.59,1.54-1.6c1,0,2.25,0,3.48,0s2.45,0,3.42,0c.77,0,1.4.16,1.4,1.6,0,1-.21,1.62-1.52,1.64Zm-2.23-2.31h-.92c-.4,0-.63.13-.63.68s.06.63.63.63l.92,0Zm2.73,0H383.9v1.34h1.49Zm1.24,1.34,1.08,0c.59,0,.62-.28.62-.64s-.08-.67-.65-.67h-1.05Z" transform="translate(-378.29 -366.55)"/><path class="cls-2" d="M393.68,379.87a.9.9,0,0,1-.84-.83.66.66,0,0,1,.38-.57,9.21,9.21,0,0,0,2.1-1.54c0-.68,0-1.26,0-1.83v-.61c0-.36-.15-.41-.69-.41H394c-.32,0-.86,0-.86-.63a.68.68,0,0,1,.66-.72c.54,0,1,0,1.53,0,1,0,1.43.45,1.43,1.41s0,1.9,0,2.86c1,1.19,2.41,1.52,4.51,1.52,1.47,0,3.05-.17,4.22-.26h.07a.71.71,0,0,1,.74.72.76.76,0,0,1-.77.75c-.93.09-2.29.18-3.64.18-4,0-4.85-.82-5.82-1.83C394.87,379.3,394.09,379.87,393.68,379.87Zm1.91-9.76a4.8,4.8,0,0,0-1.55-1.35.54.54,0,0,1-.31-.47.8.8,0,0,1,.79-.72c.39,0,2.4,1.14,2.4,2a.85.85,0,0,1-.79.84A.66.66,0,0,1,395.59,370.11Zm4.62-1.76a8.34,8.34,0,0,0,.19-1,.72.72,0,0,1,.78-.6.77.77,0,0,1,.86.69,3.06,3.06,0,0,1-.24.86c.58,0,1.12,0,1.54,0a1.18,1.18,0,0,1,1.26,1c0,.38.06.8.06,1.17,0,1-.1,1.76-1.54,1.8-.6,0-1.4,0-2.18,0-.51,0-1,0-1.44,0v1c.68,0,1.56,0,2.45,0h1.57c1.08,0,1.5.56,1.52,1.19,0,.24,0,.47,0,.72,0,.43,0,.87,0,1.24a1.22,1.22,0,0,1-1.29,1.05c-.8,0-1.74.06-2.61.06-1.76,0-3,0-3-1.38,0-.69,0-1.44,0-2.19,0-1.5,0-3,0-4.3a1.28,1.28,0,0,1,1.41-1.34Zm1.11,2.85c1.89,0,1.89,0,1.89-.78s0-1-.48-1h-1.88c-1.26,0-1.33,0-1.33.69v1C400,371.2,400.67,371.2,401.32,371.2Zm-1.8,3.6v.84c0,.66.12.69,1.86.69,2,0,2.17,0,2.2-.45a3.94,3.94,0,0,0,0-.51,4.53,4.53,0,0,0,0-.55.47.47,0,0,0-.51-.4h-.81c-.88,0-1.95,0-2.74.05Z" transform="translate(-378.29 -366.55)"/><path class="cls-2" d="M412.73,378a2.8,2.8,0,0,1-1.78-.78,7.84,7.84,0,0,1-2.19-4.52c-.12-.57-.29-1.48-.29-1.6a.74.74,0,0,1,.75-.72.78.78,0,0,1,.75.7c.09.48.12,1,.21,1.47.62,3.5,2,3.63,2.12,3.63s.28-.12.42-.48.24-.79.42-1.27a.58.58,0,0,1,.55-.42.81.81,0,0,1,.8.75s0,.07,0,.12c-.09.49-.39,1.47-.43,1.93A1.25,1.25,0,0,1,412.73,378Zm5.76-3.41a5.31,5.31,0,0,0-2-3,.59.59,0,0,1-.26-.48.65.65,0,0,1,.68-.61,1,1,0,0,1,.63.25c.63.54,2.49,2.19,2.49,3.71a.82.82,0,0,1-.83.85A.75.75,0,0,1,418.49,374.62Z" transform="translate(-378.29 -366.55)"/><path class="cls-2" d="M429.61,370.09a.45.45,0,0,1,0,.12,9.55,9.55,0,0,0,5.49,7.8.78.78,0,0,1,.59.74,1,1,0,0,1-1,.91c-1.28,0-4.44-2.73-5.75-6.15a10,10,0,0,1-5.4,6.24.9.9,0,0,1-.43.1.85.85,0,0,1-.87-.82.82.82,0,0,1,.55-.74c5.12-2.28,5.25-7.54,5.25-8.66,0-.45,0-1-.06-1.41v-.05a.84.84,0,0,1,1.67.05c0,.52,0,1.17-.06,1.81Z" transform="translate(-378.29 -366.55)"/><path class="cls-2" d="M446.11,379.18H446c-3.26-.3-5.31-2.55-5.31-4.86a4.18,4.18,0,0,1,1.08-2.74.35.35,0,0,0,.07-.14,0,0,0,0,0,0,0,.51.51,0,0,0-.15.06c-2.35,1.22-2.64,1.31-3,1.31a.8.8,0,0,1-.22-1.59c.31-.11,1.17-.36,1.62-.53.7-.25,1.95-.64,3.43-1.23a11.57,11.57,0,0,1,4-.93c.75,0,1,.35,1,.74,0,.76-.63.93-1.2.93a2.11,2.11,0,0,1-.35,0h-.36c-2.32,0-4.6,2-4.6,4,0,1.79,1.71,3.33,4.06,3.33.75,0,1.11.43,1.11.88S446.8,379.18,446.11,379.18Zm1.29-5.26a5.19,5.19,0,0,0-1.28-.93.51.51,0,0,1-.37-.47.63.63,0,0,1,.66-.58c.19,0,2,.69,2,1.47a.72.72,0,0,1-.64.7A.52.52,0,0,1,447.4,373.92Zm1.72-1.25a5.31,5.31,0,0,0-1.3-.88.53.53,0,0,1-.39-.47.64.64,0,0,1,.66-.6c.24,0,2,.65,2,1.43a.69.69,0,0,1-.63.7A.56.56,0,0,1,449.12,372.67Z" transform="translate(-378.29 -366.55)"/><path class="cls-2" d="M453.31,372.87a5.75,5.75,0,0,0-1.74-1,.52.52,0,0,1-.38-.5.74.74,0,0,1,.72-.72,5.45,5.45,0,0,1,2.19.89.75.75,0,0,1,.32.63.79.79,0,0,1-.69.82A.6.6,0,0,1,453.31,372.87Zm-1.17,6.8a.76.76,0,0,1-.78-.71.72.72,0,0,1,.16-.46,10.65,10.65,0,0,0,1.86-3.62.66.66,0,0,1,.63-.46.7.7,0,0,1,.72.7,10.85,10.85,0,0,1-1.87,4.15A.86.86,0,0,1,452.14,379.67Zm1.77-10.18a6,6,0,0,0-1.5-1.21.55.55,0,0,1-.29-.47.75.75,0,0,1,.75-.67c.36,0,2.3,1,2.3,1.8a.83.83,0,0,1-.77.81A.65.65,0,0,1,453.91,369.49Zm1.18,10.06a.6.6,0,1,1,0-1.19h.84c0-.94,0-2,0-2.67,0-.87.58-1.31,1.5-1.32.75,0,1.56,0,2.37,0,.6,0,1.18,0,1.75,0a1.37,1.37,0,0,1,1.52,1.33c0,.39,0,.92,0,1.47,0,.39,0,.79,0,1.19h.83a.6.6,0,1,1,0,1.19ZM463.7,371l-2.35,0a8,8,0,0,0,3,2.34.64.64,0,0,1,.39.59.78.78,0,0,1-.75.77c-.65,0-2.67-1.61-4-3.73h-1c-1.19,2.21-3.08,3.85-3.69,3.85a.63.63,0,0,1-.63-.64.65.65,0,0,1,.33-.56A7.43,7.43,0,0,0,457.6,371l-1.85,0h0a.64.64,0,0,1,0-1.27h4.31a16.93,16.93,0,0,0,1-2.22.62.62,0,0,1,.63-.48.81.81,0,0,1,.82.73,9.09,9.09,0,0,1-1,2h2.22a.6.6,0,0,1,.62.64.6.6,0,0,1-.6.63Zm-5.77-1.35a.53.53,0,0,1-.51-.35,4.68,4.68,0,0,0-.89-1.19.54.54,0,0,1-.16-.39.69.69,0,0,1,.7-.63c.69,0,1.64,1.39,1.64,1.81A.8.8,0,0,1,457.93,369.64Zm0,5.76h-.29a.49.49,0,0,0-.52.47c0,.59,0,1.63,0,2.49H458Zm1.9,0-.76,0v3h.76Zm2,3c0-1.76,0-2.15,0-2.49a.51.51,0,0,0-.56-.47H461v3Z" transform="translate(-378.29 -366.55)"/><path class="cls-2" d="M467.36,377a3.49,3.49,0,0,0,.23-.3c.16-.24.28-.46.43-.72a13.55,13.55,0,0,1,1.14-1.62c.2-.34.36-.67.5-1l0-.43a5.82,5.82,0,0,0-1.33.66.88.88,0,0,1-.54.21.61.61,0,0,1-.57-.66c0-.49.12-.65,2.61-1.73.12-1.23.21-2.32.21-3a.66.66,0,0,1,.67-.71.72.72,0,0,1,.75.69c0,.45-.18,1.95-.27,2.72a.6.6,0,0,1,.35.6c1.11-1,2.26-1.92,3.39-1.92a1.6,1.6,0,0,1,1.6,1.78c0,.09,0,.2,0,.3-.11,1-.54,2.57-.71,3.94a3.44,3.44,0,0,0,0,.51c0,.47.16.66.7.66a4.43,4.43,0,0,0,1.67-.47.91.91,0,0,1,.4-.09.66.66,0,0,1,.66.7.85.85,0,0,1-.55.81,5.55,5.55,0,0,1-2.15.47c-1.15,0-2.16-.38-2.16-1.89a4.18,4.18,0,0,1,.06-.68c.21-1.36.62-2.94.68-3.91v-.17c0-.49-.18-.67-.45-.67-.8,0-2.54,1.65-3.75,3.15-.06.79-.11,1.6-.11,2.37a13.68,13.68,0,0,0,.15,2.11.44.44,0,0,1,0,.16.77.77,0,0,1-.8.78c-.79,0-.81-.88-.81-2q0-.78.06-1.71c-.33.54-.64,1.17-.91,1.7a1.26,1.26,0,0,1-1,.77.56.56,0,0,1-.6-.55,1.58,1.58,0,0,1,.45-.87Z" transform="translate(-378.29 -366.55)"/><path class="cls-2" d="M488.66,375.38c0-1.57-1.9-1.57-2-1.57a4.9,4.9,0,0,0-3.58,2,.78.78,0,0,1-1.4-.42.88.88,0,0,1,.3-.61,39.85,39.85,0,0,0,4.35-5s0-.05,0-.05l-.11,0a7.57,7.57,0,0,1-3,1.1.74.74,0,0,1-.78-.74.65.65,0,0,1,.63-.66,14.08,14.08,0,0,0,3.8-1,1.2,1.2,0,0,1,.54-.12,1,1,0,0,1,1,.89,1,1,0,0,1-.35.73c-1,1-2.17,2.25-3.12,3.3a4,4,0,0,1,2.15-.6c1.59,0,3.16,1,3.16,2.64,0,2-2.07,3.93-4.66,3.93-1.8,0-2.75-1-2.75-1.92a1.54,1.54,0,0,1,1.68-1.41,2.13,2.13,0,0,1,2.34,1.88A3,3,0,0,0,488.66,375.38ZM484.57,377c-.51,0-.53.33-.53.39,0,.58,1,.66,1.4.66h.1C485.5,377.4,485.17,377,484.57,377Z" transform="translate(-378.29 -366.55)"/><path class="cls-2" d="M504.52,369.43h-3.44a.38.38,0,0,1,.24.36v.84h1.8c1.31,0,1.46.54,1.46,1.76,0,1-.05,1.68-1.56,1.69h-7.83c-.18,2.54-.92,5.38-2,5.38a.72.72,0,0,1-.73-.71.76.76,0,0,1,.19-.51c1.11-1.34,1.29-4.24,1.29-6.32,0-.93,0-1.69,0-2.1v-.06a1.47,1.47,0,0,1,1.61-1.53h3.09v-.84a.78.78,0,0,1,1.56,0v.84h4.41a.6.6,0,0,1,0,1.2Zm-7.11,7.23v1.5c.64-.15,1.23-.32,1.71-.46a.44.44,0,0,1,.19,0,.57.57,0,0,1,.57.58.67.67,0,0,1-.52.63,25.42,25.42,0,0,1-4.29,1,.67.67,0,0,1-.09-1.33c.37,0,.77-.1,1.12-.16v-3.55a.66.66,0,1,1,1.31,0v.58h1.75a.6.6,0,1,1,0,1.2Zm-.28-6.88a.39.39,0,0,1,.22-.35l-1.44,0c-.49,0-.66.21-.66.58v.6h1.87Zm0,1.92h-1.85c0,.38,0,.84,0,1.3l1.88,0Zm2.93-1.92a.38.38,0,0,1,.24-.36h-2.13a.39.39,0,0,1,.23.36v.84h1.66Zm0,1.92H498.4V373h1.66Zm1.35,6.22c0,.6.29.69,1.14.69,1,0,1.49-.27,1.49-1.11a.57.57,0,0,1,.6-.6.71.71,0,0,1,.75.75c0,1.27-.65,2.19-2.88,2.19-1.14,0-2.4-.13-2.4-1.72,0-.91,0-2.49,0-3.3a.65.65,0,1,1,1.3,0v1a17.39,17.39,0,0,0,2.37-.89.53.53,0,0,1,.27-.06.68.68,0,0,1,.64.69.67.67,0,0,1-.46.63,17.37,17.37,0,0,1-2.84.8Zm-.09-4.88c1.7,0,1.82,0,1.88-.38a2.55,2.55,0,0,0,0-.32c0-.51-.09-.63-.46-.63h-1.43Z" transform="translate(-378.29 -366.55)"/><path class="cls-2" d="M508.38,380a.75.75,0,0,1-.77-.76.66.66,0,0,1,.63-.68c2.46-.26,3.63-1.68,3.75-3.58a.68.68,0,0,1,.7-.69.69.69,0,0,1,.72.69V375A5.3,5.3,0,0,1,508.38,380Zm1-12.25a.73.73,0,0,1,1.44,0l0,5.91c0,.37-.36.57-.72.57s-.72-.2-.72-.57Zm6.48-.47c.69,0,1.38,0,2,0a1.44,1.44,0,0,1,1.5,1.31c0,.63.06,1.51.06,2.32,0,.5,0,1,0,1.32a1.59,1.59,0,0,1-1.59,1.45c-.58.05-1.24.07-1.89.07s-1.39,0-2-.07a1.53,1.53,0,0,1-1.64-1.43c0-.23,0-.49,0-.77,0-.93,0-2.1.06-2.82a1.47,1.47,0,0,1,1.57-1.38C514.49,367.24,515.2,367.24,515.9,367.24ZM513.58,371c0,.4,0,.74,0,.95,0,.57.45.59,2.32.59,1.43,0,2,0,2.07-.62,0-.19,0-.54,0-.92Zm4.44-1.13c0-.35,0-.65,0-.83,0-.61-.32-.63-2.21-.63-.55,0-1.09,0-1.51,0-.68.05-.68.39-.68,1.43Zm-2.81,4.39a.65.65,0,0,1,.71.63c0,.59,0,1.82,0,2.52s0,1,1.41,1,1.8-.33,1.8-1.29a.62.62,0,0,1,.69-.63.72.72,0,0,1,.79.73c0,2.06-1.38,2.51-3.4,2.51-1.4,0-2.73-.06-2.73-1.76,0-.58,0-2.59,0-3.07A.69.69,0,0,1,515.21,374.26Z" transform="translate(-378.29 -366.55)"/><path class="cls-2" d="M526.12,374.29v.11c0,.51.37.55.81.55h.9c1.6,0,4.06,0,5.79.06,1.08,0,1.57.45,1.57,1.23a3.67,3.67,0,0,1-3.75,3.71,7.61,7.61,0,0,1-1.62-.2.57.57,0,0,1-.42-.57.78.78,0,0,1,.12-.4H525c-1.23,0-1.62-.59-1.63-1.31,0-.21,0-.59,0-.81a.66.66,0,0,1,.73-.63.64.64,0,0,1,.7.62h0c0,.13,0,.41,0,.55,0,.53.11.53,1.94.53v-1.59h-.23c-1,0-1.68-.37-1.73-1.48,0-.51,0-1.31,0-2.17,0-1,0-2.17,0-3a1.37,1.37,0,0,1,1.49-1.44c.43,0,.93,0,1.49,0,.07-.28.16-.64.21-.93a.74.74,0,0,1,.79-.57c.41,0,.84.24.84.63a3.08,3.08,0,0,1-.27.87c.77,0,1.5,0,2.07,0,1.29.05,1.56.65,1.62,1.05,0,.21.05.89.05,1.41,0,.95,0,1.88-1.65,1.92-1,0-2.55,0-3.92,0h-1.39c0,.18,0,.41,0,.66H535a.55.55,0,0,1,.57.57.54.54,0,0,1-.57.57Zm0-3.51v.71h1.76c1.21,0,2.49,0,3.31-.06a.49.49,0,0,0,.53-.49c0-.05,0-.11,0-.17Zm5.61-.91c0-.09,0-.15,0-.21a.49.49,0,0,0-.56-.51c-.45,0-1.24,0-2.08,0s-1.71,0-2.34,0c-.41,0-.58.22-.6.63v.09Zm-.18,7.55a1.19,1.19,0,0,1-.82,1.21,5.24,5.24,0,0,0,.76.07,2.11,2.11,0,0,0,2.16-2.17c0-.29-.13-.4-.48-.41h-5v1.62c2,0,2,0,2-.67a1.47,1.47,0,0,0,0-.31v0c0-.35.33-.53.68-.53s.72.2.73.55Z" transform="translate(-378.29 -366.55)"/><path class="cls-2" d="M543.94,375.37a8.05,8.05,0,0,1,0,.83.9.9,0,0,1-.81.91.63.63,0,0,1-.62-.7v-.14a7.22,7.22,0,0,0,.06-1c-.31.16-1.71.9-1.71,1.84,0,.26.12,1.14,1.65,1.14a6.73,6.73,0,0,0,1.89-.32,1.37,1.37,0,0,1,.38-.05.72.72,0,0,1,.78.7c0,.31-.12,1.08-2.69,1.08s-3.36-1.29-3.36-2.38c0-1.83,2.13-3,2.91-3.38-.18-.58-.48-.88-.88-.88a1.47,1.47,0,0,0-.78.27c-.63.7-1,.91-1.34.91a.59.59,0,0,1-.64-.57.82.82,0,0,1,.34-.61,8,8,0,0,0,1.92-2.28,4.88,4.88,0,0,1-.73.05c-1.52,0-1.53-.83-1.53-1a.63.63,0,0,1,.61-.65,1,1,0,0,1,.54.19,1,1,0,0,0,.56.12,5.54,5.54,0,0,0,1.18-.16,5.23,5.23,0,0,0,.27-1.19.59.59,0,0,1,.63-.52.77.77,0,0,1,.81.66,2.74,2.74,0,0,1-.09.55c.45-.22.51-.24.62-.24a.65.65,0,0,1,.64.66c0,.5-.39.79-1.95,1.17a13.93,13.93,0,0,1-.85,1.5,2,2,0,0,1,1.89,1.41,17.35,17.35,0,0,1,3.46-1.21.8.8,0,0,1,.84.78.61.61,0,0,1-.4.58c-.47.19-1,.26-1.74.5s-1.28.43-1.86.67A5.62,5.62,0,0,1,543.94,375.37Z" transform="translate(-378.29 -366.55)"/><path class="cls-2" d="M550.58,379.33a.69.69,0,0,1-.69-.66.78.78,0,0,1,.21-.5,6.13,6.13,0,0,0,1.34-4.34c0-.48,0-.92,0-1.23,0-1,.72-1.25,1.41-1.27h1.26l1.77,0c.9,0,1.44.35,1.49,1.1,0,.28,0,.63,0,1,0,1.56,0,2.14-1.5,2.15-.8,0-1.56,0-2.34,0h-1C552.26,377.67,551.38,379.33,550.58,379.33Zm2.57-8.56a.54.54,0,0,1-.54-.35c-1.34,1.38-1.78,1.41-1.92,1.41a.79.79,0,0,1-.78-.72.67.67,0,0,1,.36-.58,11.32,11.32,0,0,0,2.76-2.72,1.6,1.6,0,0,1,1.32-.76,1.87,1.87,0,0,1,1.41.76,14.28,14.28,0,0,0,2.35,2.19.64.64,0,0,1,.27.5.83.83,0,0,1-.78.78c-.24,0-.43-.07-1.38-1a.53.53,0,0,1-.57.5Zm1.77,9c-1.91,0-2.69,0-2.69-1.46,0-1,0-2,1.19-2.09.48,0,1,0,1.47,0s1,0,1.51,0a1.22,1.22,0,0,1,1.19,1c0,.21,0,.44,0,.68,0,.75,0,1.76-1.24,1.84C555.88,379.78,555.4,379.79,554.92,379.79Zm-2.24-5.86c0,.21,0,.44,0,.68h3a.39.39,0,0,0,.42-.4c0-.08,0-.17,0-.28Zm3.41-.91c0-.11,0-.23,0-.31,0-.25-.18-.35-.42-.35-.44,0-.85,0-1.26,0s-.76,0-1.18,0-.51.24-.51.55V373Zm-.41-3.33c-.31-.36-.63-.72-.88-1-.15-.16-.27-.24-.39-.24s-.24.11-.36.27a11.11,11.11,0,0,1-.76,1Zm-.64,7.6h-1c-.42,0-.45.35-.45.78s0,.56,1.38.56c1.18,0,1.36,0,1.36-.63S556.27,377.29,555,377.29Zm3.61-8.71a.69.69,0,0,1,1.38,0v7.65a.69.69,0,0,1-1.38,0Zm4.1,9.33v0c0,.9-.57,2-2.3,2-1.24,0-1.65-.27-1.65-.86a.69.69,0,0,1,.62-.75.41.41,0,0,1,.15,0,4.76,4.76,0,0,0,.93.16c.4,0,.75-.16.76-.8s0-4.73,0-7.52v-2.37a.72.72,0,0,1,1.44,0v8.31Z" transform="translate(-378.29 -366.55)"/><path class="cls-2" d="M573,375.38c0-1.57-1.9-1.57-2-1.57a4.94,4.94,0,0,0-3.58,2,.77.77,0,0,1-1.39-.42.88.88,0,0,1,.3-.61,39.36,39.36,0,0,0,4.34-5s0-.05,0-.05l-.11,0a7.59,7.59,0,0,1-3,1.1.74.74,0,0,1-.78-.74.64.64,0,0,1,.62-.66,14.08,14.08,0,0,0,3.8-1,1.2,1.2,0,0,1,.54-.12,1,1,0,0,1,1,.89,1,1,0,0,1-.35.73c-1,1-2.17,2.25-3.11,3.3a3.9,3.9,0,0,1,2.14-.6c1.59,0,3.16,1,3.16,2.64,0,2-2.07,3.93-4.66,3.93-1.8,0-2.75-1-2.75-1.92a1.54,1.54,0,0,1,1.68-1.41,2.15,2.15,0,0,1,2.35,1.88A3,3,0,0,0,573,375.38ZM568.87,377c-.51,0-.53.33-.53.39,0,.58,1,.66,1.4.66h.1C569.8,377.4,569.47,377,568.87,377Z" transform="translate(-378.29 -366.55)"/><path class="cls-2" d="M578.46,380.11a1.71,1.71,0,1,1,1.71-1.71A1.71,1.71,0,0,1,578.46,380.11Zm0-2.83a1.12,1.12,0,0,0-1.14,1.12,1.14,1.14,0,1,0,2.27,0A1.12,1.12,0,0,0,578.46,377.28Z" transform="translate(-378.29 -366.55)"/></g></g></svg>