<svg id="レイヤー_1" data-name="レイヤー 1" xmlns="http://www.w3.org/2000/svg" viewBox="0 0 65 23"><defs><style>.cls-1{fill:#040000;}.cls-2{isolation:isolate;}.cls-3{fill:#fff;}</style></defs><rect id="長方形_25" data-name="長方形 25" class="cls-1" width="65" height="23"/><g id="Vision-2" class="cls-2"><g class="cls-2"><path class="cls-3" d="M469.69,367.61a.81.81,0,0,1,.86-.81h.07c.32,0,.66,0,1,0s.89,0,1.29,0h0a.79.79,0,0,1,.89.79.78.78,0,0,1-.83.78.41.41,0,0,0-.43.3c-.93,2.72-2.36,6.77-2.88,8.41a1.36,1.36,0,0,1-1.26,1.09,1.56,1.56,0,0,1-1.4-1.1c-.66-1.66-2.26-6.34-2.88-8.4a.44.44,0,0,0-.43-.3c-.92,0-.93-.7-.93-.79a.77.77,0,0,1,.82-.78h.08c.31,0,.67,0,1.05,0s.93,0,1.33,0h0a.78.78,0,0,1,.87.78.76.76,0,0,1-.79.79h0a.23.23,0,0,0-.2.23c0,.07,1.34,4.61,2.13,7,.06.19.14.32.23.32s.16-.11.25-.37c.39-1.15,2.18-6.95,2.18-6.95a.22.22,0,0,0-.18-.23C469.75,368.4,469.69,367.77,469.69,367.61Z" transform="translate(-452 -361)"/><path class="cls-3" d="M475.8,370.74c1.09,0,1.54.53,1.54,1.61v.06c0,2.07-.06,3.17-.06,3.92a.26.26,0,0,0,.26.29.75.75,0,1,1,0,1.49h0c-.32,0-.84,0-1.31,0s-.67,0-.85,0a.74.74,0,0,1-.86-.74.75.75,0,0,1,.8-.75h.24c.19,0,.25,0,.25-.32,0-.68,0-1.6,0-2.63v-.75c0-.42,0-.59-.42-.59h-.15a.7.7,0,0,1-.69-.76.76.76,0,0,1,.74-.83Zm-.56-3a1,1,0,0,1,1.05-1,1,1,0,1,1,0,2.09A1,1,0,0,1,475.24,367.71Z" transform="translate(-452 -361)"/><path class="cls-3" d="M484.15,371.37c0,.26,0,.46,0,.67s0,.29,0,.44a.64.64,0,0,1-.7.68.69.69,0,0,1-.75-.66v0c0-.52-.89-.52-.95-.52-.52,0-.81.3-.81.63a.84.84,0,0,0,.51.69c.41.21,1.07.49,1.52.74a2.2,2.2,0,0,1-1.08,4.24,2.71,2.71,0,0,1-1.22-.24.42.42,0,0,0-.12,0,.34.34,0,0,0-.12,0,.82.82,0,0,1-.51.16.68.68,0,0,1-.75-.63v-.05a5.16,5.16,0,0,0,0-.53c0-.21,0-.4,0-.66v0a.68.68,0,0,1,.74-.66.71.71,0,0,1,.75.7.25.25,0,0,0,.13.24,1.58,1.58,0,0,0,1,.32c1,0,1.13-.63,1.13-.79,0-.42-.27-.77-2.09-1.58a2,2,0,0,1-1.35-1.86,2.1,2.1,0,0,1,2.28-2,2.36,2.36,0,0,1,.92.18.18.18,0,0,0,.1,0,.39.39,0,0,0,.2-.05.84.84,0,0,1,.42-.1.7.7,0,0,1,.76.69Z" transform="translate(-452 -361)"/><path class="cls-3" d="M486.63,370.74c1.09,0,1.54.53,1.54,1.61v.06c0,2.07-.06,3.17-.06,3.92a.26.26,0,0,0,.26.29.75.75,0,1,1,0,1.49h0c-.32,0-.84,0-1.31,0s-.67,0-.85,0a.74.74,0,0,1-.86-.74.75.75,0,0,1,.8-.75h.24c.19,0,.25,0,.25-.32,0-.68,0-1.6,0-2.63v-.75c0-.42,0-.59-.42-.59h-.15a.7.7,0,0,1-.69-.76.76.76,0,0,1,.74-.83Zm-.56-3a1,1,0,0,1,1.05-1,1,1,0,1,1,0,2.09A1,1,0,0,1,486.07,367.71Z" transform="translate(-452 -361)"/><path class="cls-3" d="M490.23,374.43a3.77,3.77,0,1,1,7.54,0,3.77,3.77,0,1,1-7.54,0Zm6,0a2.26,2.26,0,1,0-2.25,2.4A2.24,2.24,0,0,0,496.26,374.43Z" transform="translate(-452 -361)"/><path class="cls-3" d="M506.43,378.09h-2a.68.68,0,0,1-.81-.69.71.71,0,0,1,.75-.72h.11c.15,0,.22-.06.22-.22,0-.47,0-1,0-1.47,0-.71,0-1.32,0-1.58a1.37,1.37,0,0,0-1.4-1.44,1.85,1.85,0,0,0-1.87,1.61c0,.26,0,.67,0,1.17s0,1.09,0,1.76c0,.17.1.17.25.17a.7.7,0,0,1,.83.69.73.73,0,0,1-.8.72h-2.05a.68.68,0,0,1-.81-.69.71.71,0,0,1,.75-.72h.13c.14,0,.18-.05.18-.21,0-1.53.05-1.78.05-2.35,0-.32,0-.71,0-1.45a.36.36,0,0,0-.36-.37h-.09a.68.68,0,0,1-.67-.75.73.73,0,0,1,.73-.78l.36,0H500a1.5,1.5,0,0,1,1.35.54s0,0,.06,0,.08,0,.15-.1a3.41,3.41,0,0,1,2-.63,2.46,2.46,0,0,1,2.64,2.58c0,.6,0,2.15,0,3.28a.19.19,0,0,0,.2.21.76.76,0,0,1,.84.72.72.72,0,0,1-.81.69Z" transform="translate(-452 -361)"/></g></g></svg>