<svg id="レイヤー_1" data-name="レイヤー 1" xmlns="http://www.w3.org/2000/svg" viewBox="0 0 250.6 292.14"><defs><style>.cls-1{isolation:isolate;}.cls-2{fill:#040000;}</style></defs><g id="はじまりは_ユースのメンバー数人で始めたシェアハウス_大きな一軒家を借り_リビングからは毎日笑い声が聞こえ_暖かい_ほんとうの家族みたいな空間_この一室を使い_ゲストハウスを始めた_世界を旅する人_たくさんの物語を持つ人_県外の学生_など_たくさんの仲間が泊まっていった_" data-name="はじまりは ユースのメンバー数人で始めたシェアハウス 大きな一軒家を借り リビングからは毎日笑い声が聞こえ 暖かい ほんとうの家族みたいな空間 この一室を使い ゲストハウスを始めた 世界を旅する人 たくさんの物語を持つ人 県外の学生 など たくさんの仲間が泊まっていった " class="cls-1"><g class="cls-1"><path class="cls-2" d="M356,237a.74.74,0,0,1-.68-.6,10.17,10.17,0,0,1-.42-3.05,15.41,15.41,0,0,1,.09-1.82c.17-1.57.49-3,.59-3.83a.65.65,0,0,1,.65-.66.71.71,0,0,1,.72.69s0,.07,0,.11c-.1.6-.35,1.59-.55,2.61a14.25,14.25,0,0,0-.3,2.41c0,.52.08.63.11.63s.11-.09.19-.25c.4-.86.62-1,.84-1a.61.61,0,0,1,.59.59.59.59,0,0,1-.07.26,8.58,8.58,0,0,0-1.1,2.76c0,.17,0,.34,0,.5A.68.68,0,0,1,356,237Zm4.55,0a2.08,2.08,0,0,1-2.17-1.76c0-1.06,1.31-1.49,2.59-1.49a6.64,6.64,0,0,1,1.31.14c0-.13,0-.26,0-.4a7.54,7.54,0,0,0,0-.78c-.06-.6-.13-1.64-.17-2.73a5.2,5.2,0,0,0-2.52,1,.67.67,0,0,1-.45.2.68.68,0,0,1-.64-.68c0-.3.19-1,3.58-1.78,0-.58,0-1.14.05-1.59a.59.59,0,0,1,.64-.58.61.61,0,0,1,.66.55v.07c0,.39-.09.84-.1,1.3l.76-.12a.58.58,0,0,1,.18,0,.64.64,0,0,1,.71.61c0,.29-.24.6-.75.67l-.91.12c0,1,.05,2.06.12,2.8a13.63,13.63,0,0,1,.11,1.56v.15a5.88,5.88,0,0,1,1.62,1,.79.79,0,0,1,.26.58.75.75,0,0,1-.71.78.69.69,0,0,1-.51-.25,4.44,4.44,0,0,0-1-.81A3.24,3.24,0,0,1,360.51,237Zm.2-2.18c-1.09,0-1.15.35-1.15.48s.18.52.8.52a2.07,2.07,0,0,0,1.56-.81A4.35,4.35,0,0,0,360.71,234.77Z" transform="translate(-354.06 -225.6)"/><path class="cls-2" d="M371.28,237c-2.8,0-2.91-1.62-2.91-3,0-1.6.16-3.63.16-5.28a12.64,12.64,0,0,0-.08-1.6s0-.1,0-.14a.69.69,0,0,1,.73-.7.76.76,0,0,1,.78.67c0,.31,0,.65,0,1,0,1.72-.29,3.92-.29,5.8,0,1.15.05,1.85,1.44,1.85a9.72,9.72,0,0,0,3.35-.73,1.14,1.14,0,0,1,.43-.1.66.66,0,0,1,.69.68,1,1,0,0,1-.69.88A11,11,0,0,1,371.28,237Zm2.13-7a5.15,5.15,0,0,0-1.23-.89.5.5,0,0,1-.35-.45.62.62,0,0,1,.63-.55c.19,0,1.93.66,1.93,1.4a.67.67,0,0,1-.6.69A.47.47,0,0,1,373.41,230Zm1.48-1.33a5.11,5.11,0,0,0-1.24-.84.49.49,0,0,1-.37-.45.62.62,0,0,1,.63-.57c.13,0,1.95.6,1.95,1.37a.67.67,0,0,1-.6.67A.48.48,0,0,1,374.89,228.68Z" transform="translate(-354.06 -225.6)"/><path class="cls-2" d="M381.56,237.56c-1.18,0-2.34-.77-2.34-1.78,0-1.31,1.68-1.61,2.73-1.61a6.2,6.2,0,0,1,1.05.09V234c0-.21,0-.44,0-.69,0-.43-.08-.88-.11-1.36a4.77,4.77,0,0,1-1.07.14c-.26,0-1.69-.11-1.69-1.05,0-.26.11-.73,1-1.54.18-.15.3-.29.3-.45,0-.38-1.19-.8-2.1-.81-.5,0-.74-.29-.74-.59s.25-.63.76-.63,2.92.52,3.36,1.5v-.66c0-.57,0-1.12,0-1.58a.64.64,0,0,1,.64-.7.71.71,0,0,1,.73.7v.06c-.07.93-.14,2.27-.14,3.6v.37a2.28,2.28,0,0,0,.67-.49.7.7,0,0,1,.51-.23.68.68,0,0,1,.65.68c0,.69-1.16,1.16-1.8,1.37,0,.54.05,1,.11,1.47s.1.93.11,1.45c1,.36,2.1,1,2.1,1.71a.75.75,0,0,1-.7.78.84.84,0,0,1-.6-.32,3.84,3.84,0,0,0-1-.81A2.81,2.81,0,0,1,381.56,237.56Zm.16-2.31c-1,0-1.28.25-1.28.52s.53.6,1,.6a1.46,1.46,0,0,0,1.39-1A4.64,4.64,0,0,0,381.72,235.25Zm1-6a1.53,1.53,0,0,1-.45.59c-.81.65-.82.86-.82.9s.22.2.39.2a3.62,3.62,0,0,0,.94-.16C382.76,230.28,382.75,229.76,382.73,229.25Z" transform="translate(-354.06 -225.6)"/><path class="cls-2" d="M390.32,237.62a.7.7,0,0,1-.72-.69.75.75,0,0,1,.52-.67,5.33,5.33,0,0,0,3.67-5.25,9.3,9.3,0,0,0-.24-2c-.14-.66-.44-.92-.78-.92a1.51,1.51,0,0,0-1,.67,4.85,4.85,0,0,0-.77,3c0,.76-.39,1.1-.74,1.1-.7,0-.7-.93-.7-1.12a11.88,11.88,0,0,1,.56-3c.21-.71.56-1.73.73-2.59a.57.57,0,0,1,.59-.49.79.79,0,0,1,.8.73s0,.09,0,.13a2.52,2.52,0,0,1-.43,1c-.1.15-.11.21-.1.21s.11-.09.21-.18a1.84,1.84,0,0,1,1.26-.61c1.68,0,2.1,2.8,2.1,4.26,0,2.34-1,4.89-4.47,6.39A1,1,0,0,1,390.32,237.62Z" transform="translate(-354.06 -225.6)"/><path class="cls-2" d="M399.64,237a.74.74,0,0,1-.68-.6,10.17,10.17,0,0,1-.42-3.05,15.41,15.41,0,0,1,.09-1.82c.17-1.57.49-3,.59-3.83a.65.65,0,0,1,.65-.66.71.71,0,0,1,.72.69s0,.07,0,.11c-.1.6-.35,1.59-.55,2.61a14.25,14.25,0,0,0-.3,2.41c0,.52.08.63.11.63s.11-.09.19-.25c.4-.86.62-1,.85-1a.61.61,0,0,1,.58.59.48.48,0,0,1-.07.26,8.58,8.58,0,0,0-1.1,2.76c0,.17,0,.34,0,.5A.68.68,0,0,1,399.64,237Zm4.55,0a2.08,2.08,0,0,1-2.17-1.76c0-1.06,1.31-1.49,2.59-1.49a6.56,6.56,0,0,1,1.31.14c0-.13,0-.26,0-.4a7.54,7.54,0,0,0,0-.78c-.06-.6-.13-1.64-.17-2.73a5.2,5.2,0,0,0-2.52,1,.67.67,0,0,1-.45.2.68.68,0,0,1-.64-.68c0-.3.19-1,3.58-1.78,0-.58,0-1.14.05-1.59a.59.59,0,0,1,.64-.58.61.61,0,0,1,.66.55v.07c0,.39-.09.84-.1,1.3l.76-.12a.58.58,0,0,1,.18,0,.64.64,0,0,1,.71.61c0,.29-.24.6-.75.67l-.91.12c0,1,.05,2.06.12,2.8a13.63,13.63,0,0,1,.11,1.56v.15a5.67,5.67,0,0,1,1.61,1,.77.77,0,0,1,.27.58.75.75,0,0,1-.71.78.69.69,0,0,1-.51-.25,4.44,4.44,0,0,0-1-.81A3.24,3.24,0,0,1,404.19,237Zm.2-2.18c-1.09,0-1.15.35-1.15.48s.18.52.8.52a2.05,2.05,0,0,0,1.56-.81A4.35,4.35,0,0,0,404.39,234.77Z" transform="translate(-354.06 -225.6)"/><path class="cls-2" d="M412.76,237.44A5.38,5.38,0,0,0,411,236a.61.61,0,0,1,.28-1.17c.49,0,2.73,1.23,2.73,2.18a.77.77,0,0,1-.76.77A.63.63,0,0,1,412.76,237.44Z" transform="translate(-354.06 -225.6)"/></g><g class="cls-1"><path class="cls-2" d="M360.77,258.82c.07-.36-.14-.42-.41-.39-.69.07-1.27.25-1.82.34a8.43,8.43,0,0,1-1.75.21.71.71,0,1,1,.11-1.42,8,8,0,0,0,1.37-.1l1.7-.23a9.25,9.25,0,0,1,1.4-.19c1.33,0,1.43,1,1.22,1.46a21.66,21.66,0,0,0-1,3.13c.42,0,1.22-.12,1.67-.16a5.61,5.61,0,0,1,1.08,0c.63,0,.82.42.81.78s-.35.7-1.05.72c-.45,0-.63,0-1,0l-1.53.07c-1.65.07-3.3.22-4.47.32a16.11,16.11,0,0,1-2,.11.74.74,0,1,1,.11-1.45,12.75,12.75,0,0,0,1.85,0c.77-.07,1.92-.14,3.07-.21C360.26,260.64,360.64,259.41,360.77,258.82Z" transform="translate(-354.06 -225.6)"/><path class="cls-2" d="M375.86,260.07h-.73c-2.67,0-4.72.13-5.83.17l-1.38,0h-.45a.78.78,0,0,1-.81-.76c0-.35.28-.69.84-.69h.08c.52,0,1.14.05,1.7.05,1.15,0,4.14-.17,6.61-.24h0a.76.76,0,0,1,.85.71c0,.37-.29.73-.9.73Z" transform="translate(-354.06 -225.6)"/><path class="cls-2" d="M379,264.4c-1,.39-1.75-.93-.55-1.33a12.11,12.11,0,0,0,6.26-5.38c.11-.23,0-.32-.12-.31-.69.07-2.29.52-2.65.6a6.2,6.2,0,0,1-1.42.24.72.72,0,1,1,0-1.44,9.94,9.94,0,0,0,1.25-.15c.5-.09,2.19-.54,3.37-.65s1.81.71,1.35,1.53a19.84,19.84,0,0,1-1.77,2.63,9.86,9.86,0,0,1,3.84,2.66.85.85,0,0,1-.13,1.16.69.69,0,0,1-1-.12,11.6,11.6,0,0,0-3.55-2.71A13.1,13.1,0,0,1,379,264.4Z" transform="translate(-354.06 -225.6)"/><path class="cls-2" d="M399.58,259.54a3,3,0,0,0-3.25-2.89h0a.64.64,0,0,1,.39.59v.07c0,1.47-1.44,4-3,5.53a1.52,1.52,0,0,1-1,.48c-1,0-1.89-1.12-1.89-2.65,0-2.53,2.49-5.11,5.64-5.11,2.83,0,4.59,1.88,4.59,4.06a4.34,4.34,0,0,1-.3,1.59c-1.24,3.1-5.05,3.54-5.24,3.54a.74.74,0,0,1-.8-.69c0-.31.24-.6.77-.7C398,262.94,399.58,261.37,399.58,259.54Zm-4.05-2.82a4.59,4.59,0,0,0-3.5,3.88c0,1,.7,1.18.74,1.18a.37.37,0,0,0,.26-.11c.43-.38,2.18-2.45,2.23-4.34A.71.71,0,0,1,395.53,256.72Z" transform="translate(-354.06 -225.6)"/><path class="cls-2" d="M403.84,265.44a.74.74,0,1,1-.66-1.32,12.57,12.57,0,0,0,4.49-3.57,11.35,11.35,0,0,0-1.6-.75c-.9-.32-.31-1.58.8-1.13.52.21,1.09.46,1.66.74a18.64,18.64,0,0,0,1.21-2,5.43,5.43,0,0,0,.52-1.34.8.8,0,0,1,1.57.32,4.83,4.83,0,0,1-.66,1.51c-.45.74-.91,1.47-1.4,2.17a6.61,6.61,0,0,1,1.23,1,.84.84,0,0,1,0,1.15.69.69,0,0,1-1,0,7.74,7.74,0,0,0-1.1-1A14.51,14.51,0,0,1,403.84,265.44Z" transform="translate(-354.06 -225.6)"/><path class="cls-2" d="M417.44,258.87a5.81,5.81,0,0,0-2-1c-.84-.18-.49-1.58.57-1.31a8.09,8.09,0,0,1,2.31.94.8.8,0,0,1,.24,1.13A.75.75,0,0,1,417.44,258.87Zm.6,5.28a3,3,0,0,1-1.34.44c-1.17.1-1.34-1.37-.44-1.47a4.25,4.25,0,0,0,1.08-.35,13.67,13.67,0,0,0,6.22-6.16c.46-.88,1.88-.29,1.26.83A15.88,15.88,0,0,1,418,264.15Z" transform="translate(-354.06 -225.6)"/><path class="cls-2" d="M426.37,261.49a5.85,5.85,0,0,0,3.21-3.23.74.74,0,0,1,1.42.42c-.46,1.74-2.7,3.65-4,4.21A.77.77,0,1,1,426.37,261.49Zm9.73.5a9.3,9.3,0,0,0-3.2-3.22c-.77-.42-.06-1.59.91-1s3.08,2,3.71,3.46a.89.89,0,0,1-.38,1.14A.74.74,0,0,1,436.1,262Zm-1.71-5c-.7-.3-.15-1.14.49-.9a4.74,4.74,0,0,1,1.38.84c.54.57-.27,1.43-.73.88A4.74,4.74,0,0,0,434.39,257Zm1.26-1.19c-.71-.28-.21-1.12.45-.91a4.27,4.27,0,0,1,1.4.79c.56.56-.22,1.42-.7.9A4.66,4.66,0,0,0,435.65,255.76Z" transform="translate(-354.06 -225.6)"/><path class="cls-2" d="M449.36,260.07h-.73c-2.67,0-4.72.13-5.82.17l-1.39,0H441a.78.78,0,0,1-.81-.76c0-.35.28-.69.84-.69h.08c.52,0,1.14.05,1.7.05,1.15,0,4.14-.17,6.61-.24h0a.76.76,0,0,1,.85.71c0,.37-.29.73-.89.73Z" transform="translate(-354.06 -225.6)"/><path class="cls-2" d="M463.33,257.44a10.92,10.92,0,0,1-1.45,4.76,6.52,6.52,0,0,0,2.42,1.9.63.63,0,0,1,.39.59.8.8,0,0,1-.73.8,5.94,5.94,0,0,1-2.83-2.24A6.81,6.81,0,0,1,458,265.6a.7.7,0,0,1-.67-.7.56.56,0,0,1,.17-.42h-.06a.53.53,0,0,1-.34-.11,6.36,6.36,0,0,0-.78-.49,4.43,4.43,0,0,1-3.5,1.6.56.56,0,1,1,0-1.11,3.55,3.55,0,0,0,2.45-.92,6,6,0,0,0-.95-.21l-.06.11a.59.59,0,0,1-.56.33.5.5,0,0,1-.52-.79,10.33,10.33,0,0,0,.77-1.47h-1a.53.53,0,0,1-.57-.53.55.55,0,0,1,.59-.56h1.34a5.52,5.52,0,0,0,.15-.68.49.49,0,0,1,.54-.36h.12a.57.57,0,0,1-.12-.39l0-.84a6.35,6.35,0,0,1-2.4,1.68.65.65,0,0,1-.62-.63.53.53,0,0,1,.35-.49,8.65,8.65,0,0,0,2.26-1.54l-1.57,0h0a.56.56,0,0,1-.61-.55.57.57,0,0,1,.62-.54h2l0-2h0a.59.59,0,0,1,.63-.62.58.58,0,0,1,.61.62h0l0,2h1.71a.54.54,0,0,1,.59.54.55.55,0,0,1-.58.55h0l-1.71,0,0,.56a.47.47,0,0,1,.39-.26,3,3,0,0,1,1.24.61.63.63,0,0,1,.24.49c0,.32-.22.63-.49.63a.45.45,0,0,1-.33-.17,2.9,2.9,0,0,0-1-.65s0-.05-.08-.07V259a.57.57,0,0,1-.63.57h-.05a.3.3,0,0,1,.1.24.2.2,0,0,1,0,.1q0,.22-.12.48h2.63a.54.54,0,0,1,.59.54.55.55,0,0,1-.58.55h-.8a5.7,5.7,0,0,1-.47,1.51c1.08.45,1.15.63,1.15.89a.73.73,0,0,1-.17.44,7.17,7.17,0,0,0,2.56-2.1,11.44,11.44,0,0,1-1.12-3.17c-.24.48-.49.63-.74.63a.55.55,0,0,1-.56-.53.66.66,0,0,1,.1-.34,11,11,0,0,0,1.61-4.69.57.57,0,0,1,.61-.53.67.67,0,0,1,.73.59,14.55,14.55,0,0,1-.53,2.15H464a.59.59,0,0,1,0,1.18Zm-9.66-1.77a6.4,6.4,0,0,0-.74-.94.36.36,0,0,1-.1-.25.67.67,0,0,1,.64-.56c.42,0,1.18.94,1.18,1.33a.68.68,0,0,1-.6.67A.43.43,0,0,1,453.67,255.67Zm1.58,5.72h-.08c-.13.32-.28.64-.42,1a9.89,9.89,0,0,1,1.15.24,4,4,0,0,0,.36-1.19Zm1.72-5.52a.53.53,0,0,1-.54-.46.52.52,0,0,1,.14-.33,5.87,5.87,0,0,0,.66-1,.35.35,0,0,1,.33-.2.74.74,0,0,1,.69.63c0,.14,0,.27-.91,1.19A.47.47,0,0,1,457,255.87Zm3.25,1.55a9.81,9.81,0,0,0,.93,3.62,9.68,9.68,0,0,0,.88-3.6Z" transform="translate(-354.06 -225.6)"/><path class="cls-2" d="M473,256.39s0,.07,0,.11a8.87,8.87,0,0,0,5.12,7.28.72.72,0,0,1,.55.69.89.89,0,0,1-.92.85c-1.19,0-4.15-2.55-5.37-5.74a9.42,9.42,0,0,1-5,5.83.91.91,0,0,1-.41.1.81.81,0,0,1-.81-.77.76.76,0,0,1,.52-.69c4.77-2.13,4.9-7.05,4.9-8.1,0-.42,0-.89-.06-1.31v0a.78.78,0,0,1,1.56,0c0,.49,0,1.09-.06,1.69Z" transform="translate(-354.06 -225.6)"/><path class="cls-2" d="M488.36,264.88h-.14c-3-.29-5-2.39-5-4.54a4,4,0,0,1,1-2.57.22.22,0,0,0,.07-.12s0,0,0,0a.6.6,0,0,0-.14.05c-2.2,1.14-2.47,1.22-2.78,1.22a.79.79,0,0,1-.85-.75.8.8,0,0,1,.64-.73c.3-.1,1.1-.34,1.52-.49.65-.24,1.82-.6,3.2-1.15a10.63,10.63,0,0,1,3.72-.87c.7,0,.95.32.95.69,0,.71-.59.87-1.12.87a1.94,1.94,0,0,1-.33,0h-.33c-2.17,0-4.3,1.85-4.3,3.72,0,1.69,1.6,3.11,3.79,3.11.71,0,1,.41,1,.83S489,264.88,488.36,264.88Zm1.21-4.92a5.44,5.44,0,0,0-1.19-.87.48.48,0,0,1-.35-.43.59.59,0,0,1,.61-.55c.19,0,1.9.64,1.9,1.37a.67.67,0,0,1-.61.66A.5.5,0,0,1,489.57,260Zm1.61-1.16A4.7,4.7,0,0,0,490,258a.49.49,0,0,1-.36-.43.6.6,0,0,1,.61-.57c.23,0,1.91.61,1.91,1.34a.64.64,0,0,1-.59.65A.51.51,0,0,1,491.18,258.8Z" transform="translate(-354.06 -225.6)"/><path class="cls-2" d="M497.38,256.26a1.09,1.09,0,0,1,1.2,1.2,11.39,11.39,0,0,1-.89,4.11c1.26.73,1.3,1,1.3,1.29a.62.62,0,0,1-1.09.49,6.28,6.28,0,0,0-.79-.66c-1.16,2-2.67,2.7-3.14,2.7a.7.7,0,0,1-.71-.68.55.55,0,0,1,.36-.52,5,5,0,0,0,2.43-2.09,7,7,0,0,0-1-.33.81.81,0,0,1-.75.56.56.56,0,0,1-.6-.58,1.09,1.09,0,0,1,.07-.32,27.37,27.37,0,0,0,1.11-4c-.28,0-.56,0-.81,0h0a.56.56,0,0,1-.58-.58.61.61,0,0,1,.58-.64h1.05c.14-.83.25-1.64.32-2.41a.63.63,0,0,1,.66-.57.64.64,0,0,1,.69.6c0,.27-.21,1.62-.34,2.38Zm-1.18,1.18c-.22,1.09-.49,2.2-.81,3.29a8.15,8.15,0,0,1,1.18.34,10.62,10.62,0,0,0,.71-3.38c0-.21-.13-.25-.27-.25Zm3.18,1.75a.67.67,0,0,1-.69-.69.58.58,0,0,1,.59-.61c.18,0,.41,0,.66-.05a24.73,24.73,0,0,0,1.26-3.9.62.62,0,0,1,.65-.49.73.73,0,0,1,.78.65,20.17,20.17,0,0,1-1.29,3.63l2.43-.24a7.4,7.4,0,0,0-.61-.77.54.54,0,0,1-.15-.38.61.61,0,0,1,.63-.56.66.66,0,0,1,.46.2,6.79,6.79,0,0,1,1.84,2.68.76.76,0,0,1-.77.7.65.65,0,0,1-.62-.44,2.48,2.48,0,0,0-.17-.38C502.6,258.85,499.55,259.19,499.38,259.19Zm2.91,6.19c-1.7,0-2.84,0-2.89-1.37,0-.31,0-.65,0-1,0-.57,0-1.15,0-1.58a1.33,1.33,0,0,1,1.39-1.29l1.28,0c.54,0,1,0,1.49,0a1.39,1.39,0,0,1,1.44,1.23c0,.52,0,1.26,0,1.89C505.05,264.82,505,265.38,502.29,265.38Zm1.43-2.75c0-.35,0-.71,0-.95,0-.47-.31-.47-1.52-.47h-.94c-.37,0-.53.22-.54.46s0,.62,0,1,0,.75,0,1c0,.52.52.52,1.52.52s1.45,0,1.48-.61C503.71,263.33,503.72,263,503.72,262.63Z" transform="translate(-354.06 -225.6)"/><path class="cls-2" d="M513,259.75a.56.56,0,0,1,.35.52.58.58,0,0,1-.61.6,1.22,1.22,0,0,1-.55-.16c-1.16,1.28-2.35,2.33-3.29,2.33-.66,0-1-.52-1-1.47a4.57,4.57,0,0,1,1.88-3.36,11.85,11.85,0,0,1-.94-3,.59.59,0,0,1,.6-.63.74.74,0,0,1,.74.7,5.58,5.58,0,0,0,.19,1.12,6.62,6.62,0,0,0,.37,1.14,6.07,6.07,0,0,1,2.58-.78,3.22,3.22,0,0,0,.07-.64,2.72,2.72,0,0,0-.08-.63,1.17,1.17,0,0,1-.06-.35.61.61,0,0,1,.65-.64c.7,0,.85.58.85,1.31a4.14,4.14,0,0,1-.13,1,3.23,3.23,0,0,1,2.88,3.3c0,3.51-4.78,4.77-5.86,4.77a.72.72,0,0,1-.8-.63c0-.26.23-.54.76-.61,2.55-.37,4.52-1.88,4.52-3.59a2.25,2.25,0,0,0-1.83-2.24A9.93,9.93,0,0,1,513,259.75Zm-2.72-.63a3.51,3.51,0,0,0-1.23,2.23c0,.14,0,.29.18.29s.51,0,1.91-1.58A5.52,5.52,0,0,1,510.31,259.12Zm.94-.72a4.2,4.2,0,0,0,.73.73,9.4,9.4,0,0,0,.91-1.31,4.75,4.75,0,0,0-1.61.57Z" transform="translate(-354.06 -225.6)"/><path class="cls-2" d="M524.33,257.07a67,67,0,0,1-3.25,7.36.72.72,0,0,1-.67.39.67.67,0,0,1-.73-.6.81.81,0,0,1,.11-.4,42.91,42.91,0,0,0,3-6.33l-.15.05a4.59,4.59,0,0,1-1.19.18c-.14,0-1.24,0-1.24-.76a.66.66,0,0,1,.62-.71.78.78,0,0,1,.42.11.83.83,0,0,0,.36.08,6,6,0,0,0,1.64-.39,5.29,5.29,0,0,0,.1-1.12.71.71,0,0,1,.77-.66.6.6,0,0,1,.66.51,1.69,1.69,0,0,1,0,.23,2.53,2.53,0,0,1,0,.27,1,1,0,0,1,.18,0,.66.66,0,0,1,.66.65c0,.36-.25.61-1.29,1.07ZM528.6,265c-2.3,0-3.81-1.22-3.81-1.93a.74.74,0,0,1,.69-.75.67.67,0,0,1,.54.31c.54.72,1,.81,2.82.94a.69.69,0,0,1,.71.7C529.55,265,528.83,265,528.6,265Zm.81-5.27a7.87,7.87,0,0,0-2.48-.64,1.78,1.78,0,0,0-.47.05l-.16,0a.55.55,0,0,1-.53-.57c0-.23.07-.74,1.32-.74a7.93,7.93,0,0,1,2.84.63.64.64,0,0,1,.45.61.69.69,0,0,1-.67.69A.8.8,0,0,1,529.41,259.69Z" transform="translate(-354.06 -225.6)"/><path class="cls-2" d="M535,260.56a4.75,4.75,0,0,0-1.74-.71c-.84-.14-.56-1.47.46-1.28a7.27,7.27,0,0,1,2,.72.72.72,0,0,1,.29,1A.71.71,0,0,1,535,260.56Zm-.07,4.32c-1.18.14-1.36-1.32-.46-1.46a4.61,4.61,0,0,0,1.07-.35,15.51,15.51,0,0,0,6.41-6.43c.47-.88,1.87-.27,1.23.84a17.76,17.76,0,0,1-6.89,6.92A3.35,3.35,0,0,1,534.9,264.88Zm1.76-6.81a5,5,0,0,0-1.54-1.08c-.78-.32-.21-1.57.74-1.15A7.59,7.59,0,0,1,537.7,257a.73.73,0,0,1,0,1.08A.71.71,0,0,1,536.66,258.07Z" transform="translate(-354.06 -225.6)"/><path class="cls-2" d="M548.65,260.52a6.21,6.21,0,0,1-.11,2.1l1.9-.13a7.85,7.85,0,0,1,1,0c.52.06.82.44.73.82a.83.83,0,0,1-1,.44,4.33,4.33,0,0,0-.8-.07l-.83,0a31.31,31.31,0,0,0-3.27.24c-.82.08-1.22.15-1.52.15-.89,0-.92-1.25.09-1.22a10.13,10.13,0,0,0,1.34-.05c.41-.05.83-.1,1.24-.13a7.94,7.94,0,0,0,.12-1.32,5.12,5.12,0,0,0-.07-.68v-.1h-.19a9.26,9.26,0,0,1-1.27.09.6.6,0,1,1,.09-1.18c.35,0,.59,0,1,0s1.4-.12,2-.2a6.87,6.87,0,0,1,1-.14c.87,0,1,1.12,0,1.2l-.92.09-.4,0Z" transform="translate(-354.06 -225.6)"/><path class="cls-2" d="M556.32,265.14c-1.22.73-2.22-.67-.94-1.32a5.82,5.82,0,0,0,3.33-4.37,3.86,3.86,0,0,0,0-1.27c-.17-.87,1.42-1.18,1.61-.14a3.15,3.15,0,0,1,0,.57,7,7,0,0,0,2.4-1.86c.24-.32.28-.49-.25-.46-1.77.07-4,.38-4.66.46a9.3,9.3,0,0,1-1.91.18.73.73,0,1,1,.09-1.45c.61,0,1.26-.07,1.85-.12s3-.26,5.21-.39c1.57-.08,2.17,1.09,1.18,2.26a9.13,9.13,0,0,1-3.52,2.69.78.78,0,0,1-.58,0A7.9,7.9,0,0,1,556.32,265.14Z" transform="translate(-354.06 -225.6)"/><path class="cls-2" d="M565.29,261.49a5.85,5.85,0,0,0,3.21-3.23.75.75,0,0,1,1.43.42c-.47,1.74-2.71,3.65-4,4.21A.77.77,0,1,1,565.29,261.49Zm9.74.5a9.25,9.25,0,0,0-3.21-3.22c-.77-.42-.06-1.59.91-1s3.08,2,3.71,3.46a.89.89,0,0,1-.38,1.14A.73.73,0,0,1,575,262Z" transform="translate(-354.06 -225.6)"/><path class="cls-2" d="M581.81,260.18a.83.83,0,0,1-.56,1,.69.69,0,0,1-.87-.64c-.08-.44-.12-.77-.16-1a9,9,0,0,0-.3-.95,2.6,2.6,0,0,0-.91-1.32c-.71-.6.3-1.55,1.09-.94a3,3,0,0,1,.78.91c.36-.05.72-.09,1.07-.15l1-.15a8.1,8.1,0,0,0,0-1.52,1.45,1.45,0,0,0-.12-.42c-.59-1.13,1.44-1.75,1.57-.28,0,.21,0,.45,0,.72s0,.84,0,1.29c.72-.1,1.5-.2,2.23-.26a1.15,1.15,0,0,1,1.23,1.69c-1.38,3-2.8,5.42-6.6,7.07-1.06.46-1.84-.8-.6-1.28a9.65,9.65,0,0,0,5.44-5.57c.14-.36.08-.59-.23-.56-1.09.08-3.63.49-4.42.64A15.47,15.47,0,0,1,581.81,260.18Z" transform="translate(-354.06 -225.6)"/><path class="cls-2" d="M590.24,264.4c-1,.39-1.75-.93-.55-1.33a12.17,12.17,0,0,0,6.27-5.38c.11-.23,0-.32-.13-.31-.69.07-2.28.52-2.65.6a6.12,6.12,0,0,1-1.41.24.72.72,0,1,1,0-1.44,9.72,9.72,0,0,0,1.25-.15c.5-.09,2.2-.54,3.37-.65s1.81.71,1.35,1.53a18.92,18.92,0,0,1-1.77,2.63,9.86,9.86,0,0,1,3.84,2.66.85.85,0,0,1-.12,1.16.7.7,0,0,1-1-.12,11.6,11.6,0,0,0-3.55-2.71A13,13,0,0,1,590.24,264.4Z" transform="translate(-354.06 -225.6)"/><path class="cls-2" d="M603.06,265.74a1.6,1.6,0,1,1,1.6-1.59A1.59,1.59,0,0,1,603.06,265.74Zm0-2.64a1.06,1.06,0,1,0,0,2.11,1.06,1.06,0,1,0,0-2.11Z" transform="translate(-354.06 -225.6)"/></g><g class="cls-1"><path class="cls-2" d="M365.54,286.25l-4.24-.06a8.89,8.89,0,0,0,4.9,5.68.68.68,0,0,1,.44.63.94.94,0,0,1-.89.91c-.77,0-3.84-2.17-5.25-5.66a9.4,9.4,0,0,1-5.23,5.7.81.81,0,0,1-.36.08.76.76,0,0,1-.76-.75.7.7,0,0,1,.48-.65,7.69,7.69,0,0,0,4.81-5.94l-4.29.06h0a.66.66,0,0,1-.7-.67.68.68,0,0,1,.72-.7h4.47c.08-1.25.08-2.12.08-2.23v-.56h0a.67.67,0,0,1,.74-.66.7.7,0,0,1,.77.64v.31c0,.66,0,1.32-.07,2l0,.55h4.44a.67.67,0,0,1,.7.68.66.66,0,0,1-.68.69Z" transform="translate(-354.06 -225.6)"/><path class="cls-2" d="M375.31,288.18a13.7,13.7,0,0,0,.52,1.29,2,2,0,0,1,.18.72.72.72,0,0,1-.78.78,2.09,2.09,0,0,1-.63-.11,9.46,9.46,0,0,0-2.47-.38c-1,0-1.68.39-1.68.76s.62.92,2.19.92a4.61,4.61,0,0,0,.68,0,.52.52,0,0,1,.17,0,.65.65,0,0,1,.73.64c0,.61-.59.79-1,.79-2.22,0-4.07-1-4.07-2.21,0-.52.5-1.95,3.19-1.95.58,0,1.11.05,1.51.07l.27,0c.15,0,.3,0,.3-.21a6.8,6.8,0,0,0-.31-1.07,7.07,7.07,0,0,1-.91.06c-.27,0-3,0-3-1.58a1.35,1.35,0,0,1,.55-1.05.28.28,0,0,0,.14-.23c0-.28-.84-.75-1.53-.9-.46-.08-.67-.36-.67-.63a.67.67,0,0,1,.73-.6c.88,0,3,1.26,3,2.1,0,.34-.28.58-.61.75s-.36.25-.36.36.8.52,1.61.52a5.27,5.27,0,0,0,.56,0,20.6,20.6,0,0,0-2-4.26.74.74,0,0,1-.14-.41c0-.35.35-.56.72-.56a.84.84,0,0,1,.77.48,40.89,40.89,0,0,1,1.79,4.45l.67-.22a.88.88,0,0,1,.27,0,.59.59,0,0,1,.59.64c0,.55-.4.7-1.1.92Z" transform="translate(-354.06 -225.6)"/><path class="cls-2" d="M383.61,284.11a36.49,36.49,0,0,1-2.83,5.36.76.76,0,0,1-.7.42.61.61,0,0,1-.65-.6.89.89,0,0,1,.15-.48,30.8,30.8,0,0,0,2.48-4.09,4.16,4.16,0,0,1-1.77.56c-.92,0-.92-.63-.92-.68a.64.64,0,0,1,.64-.66.9.9,0,0,1,.28,0,.63.63,0,0,0,.24,0,5.71,5.71,0,0,0,2-.73c0-.34,0-.66.05-1.08a.63.63,0,0,1,.66-.62.64.64,0,0,1,.67.61v.29a.9.9,0,0,1,.16,0,.58.58,0,0,1,.56.58c0,.47-.6.84-1,1.06Zm-.4,9.27c-1.28,0-2.34-.91-2.34-1.71s1.23-1.61,3-1.61c.21,0,.43,0,.64,0-.1-1.12-.1-1.18-.1-1.33,0-.91.3-1.74,1.94-2.83a.27.27,0,0,0,.12-.17c0-.09-.12-.09-.18-.09a5.81,5.81,0,0,0-.89.17.68.68,0,0,1-.19,0,.48.48,0,0,1-.53-.46c0-.37.41-.79,1.86-.79,1,0,2.26.59,2.26,1.23a.71.71,0,0,1-.72.63,2.52,2.52,0,0,0-2.5,2.32,4.36,4.36,0,0,0,.07.68c0,.28.1.58.14.87.87.27,2.22.88,2.22,1.68a.69.69,0,0,1-.64.73.79.79,0,0,1-.57-.28,4.81,4.81,0,0,0-1.07-.76A2.76,2.76,0,0,1,383.21,293.38Zm.39-2.24c-.83,0-1.53.28-1.53.53s.49.55,1,.55a1.4,1.4,0,0,0,1.43-1A4.31,4.31,0,0,0,383.6,291.14Z" transform="translate(-354.06 -225.6)"/><path class="cls-2" d="M391.59,288.28a.76.76,0,1,1,0-1.51h10.63a.71.71,0,0,1,.74.74.73.73,0,0,1-.74.77Z" transform="translate(-354.06 -225.6)"/><path class="cls-2" d="M408.48,291.17v1.9a.6.6,0,0,1-.65.6.59.59,0,0,1-.64-.6v-1.9h-2a.56.56,0,1,1,0-1.12h2v-.81c-1.08,0-1.89-.15-1.95-1.18,0-.32,0-.74,0-1.17,0-1.91,0-2.48,2-2.48v-.72l-1.77,0a.56.56,0,1,1,0-1.11l1.77,0v-.92a.6.6,0,0,1,.64-.6.61.61,0,0,1,.65.6v.92l1.78,0a.56.56,0,1,1,0,1.11l-1.78,0v.72h.7a1.16,1.16,0,0,1,1.22,1c0,.41,0,1,0,1.55,0,.39,0,.78,0,1.07,0,.66-.45,1.18-1.93,1.18v.81h2a.56.56,0,1,1,0,1.12Zm-1.22-3.93h-.93c0,.75.05,1,.47,1.05a2.77,2.77,0,0,0,.46,0Zm0-1.86-.41,0c-.42,0-.47.25-.49.51s0,.26,0,.41h.91Zm2,.94c0-.2,0-.38,0-.52s-.13-.38-.45-.4l-.43,0v.94Zm-.89.92v1.07l.4,0c.49,0,.49-.19.49-1.05Zm4.75.51h-2a.59.59,0,0,1-.61-.6.58.58,0,0,1,.61-.6h2v-3.15h-1.57a.6.6,0,1,1,0-1.2h4.61a.61.61,0,0,1,.67.6.6.6,0,0,1-.67.6h-1.71v3.15h2.14a.62.62,0,0,1,.68.61.61.61,0,0,1-.68.59h-2.14l0,5.29a.68.68,0,0,1-1.36,0Z" transform="translate(-354.06 -225.6)"/><path class="cls-2" d="M427,285.89a8.41,8.41,0,0,0,.44,2.07,18.68,18.68,0,0,0,1.75-1.25.56.56,0,0,1,.38-.14.77.77,0,0,1,.75.72.6.6,0,0,1-.31.5A16.3,16.3,0,0,1,428,289a4.83,4.83,0,0,0,2.54,2.28.62.62,0,0,1,.46.59.74.74,0,0,1-.76.71,1,1,0,0,1-.32-.05c-2.34-.86-3.77-4.24-4-6.67h-.6l-.81.63a6.21,6.21,0,0,1,1.92,4.38,2.45,2.45,0,0,1-2.51,2.76c-.87,0-1.34-.24-1.34-.77a.54.54,0,0,1,.57-.56h.17a2.55,2.55,0,0,0,.59.07c.92,0,1.26-.64,1.26-1.73,0-.18,0-.38,0-.58a11.22,11.22,0,0,1-5.34,2.76.56.56,0,0,1-.6-.56.6.6,0,0,1,.53-.61,10.75,10.75,0,0,0,5.14-2.68,4,4,0,0,0-.24-.57,12.7,12.7,0,0,1-4.7,2.14.55.55,0,0,1-.58-.56.57.57,0,0,1,.49-.56,10.53,10.53,0,0,0,4.26-1.85,3.63,3.63,0,0,0-.48-.48,10.37,10.37,0,0,1-3.41,1.33.56.56,0,0,1-.61-.54.61.61,0,0,1,.51-.59,10,10,0,0,0,3.63-1.43l-1.92,0h0a.54.54,0,0,1-.59-.53.56.56,0,0,1,.61-.56H428a.55.55,0,0,1,.6.56.52.52,0,0,1-.57.53h0Zm-1.4-3.17c1.15,0,2.29,0,3.36,0a1.55,1.55,0,0,1,1.56,1.36c0,.19,0,.43,0,.65,0,.49,0,1.06-.74,1.06a.61.61,0,0,1-.67-.57v0c0-1.24,0-1.38-.88-1.4-1.13,0-2.47,0-3.77,0-1.08,0-2.12,0-3,0s-.88.21-.93.7v.74h0a.69.69,0,0,1-1.36,0c0-.16,0-.36,0-.57s0-.42,0-.63a1.45,1.45,0,0,1,1.62-1.3c1.06,0,2.19,0,3.34,0v-.9h0a.65.65,0,0,1,.73-.62.66.66,0,0,1,.73.62h0Z" transform="translate(-354.06 -225.6)"/><path class="cls-2" d="M438.69,289.32a7,7,0,0,1,0,.77.83.83,0,0,1-.75.85.59.59,0,0,1-.58-.66v-.12a8.18,8.18,0,0,0,.06-.94c-.3.15-1.6.84-1.6,1.72,0,.24.11,1.07,1.54,1.07a6.36,6.36,0,0,0,1.77-.3,1.14,1.14,0,0,1,.35,0,.68.68,0,0,1,.73.65c0,.3-.12,1-2.51,1s-3.14-1.2-3.14-2.22c0-1.71,2-2.78,2.72-3.16-.17-.54-.45-.82-.83-.82a1.39,1.39,0,0,0-.73.25c-.59.66-.94.85-1.24.85a.56.56,0,0,1-.61-.53.75.75,0,0,1,.33-.57A7.36,7.36,0,0,0,436,285a4.31,4.31,0,0,1-.69.05c-1.41,0-1.43-.78-1.43-.89a.6.6,0,0,1,.58-.62.93.93,0,0,1,.5.18.91.91,0,0,0,.52.12,5.69,5.69,0,0,0,1.11-.16,5.79,5.79,0,0,0,.25-1.1.55.55,0,0,1,.59-.49.71.71,0,0,1,.75.61,2.58,2.58,0,0,1-.08.52c.42-.21.48-.22.57-.22a.61.61,0,0,1,.61.61c0,.46-.37.74-1.82,1.09a14,14,0,0,1-.8,1.41,1.86,1.86,0,0,1,1.76,1.31,16.63,16.63,0,0,1,3.24-1.13.75.75,0,0,1,.78.73.57.57,0,0,1-.38.54c-.43.18-.89.24-1.62.46s-1.19.41-1.74.63A4.94,4.94,0,0,1,438.69,289.32Z" transform="translate(-354.06 -225.6)"/><path class="cls-2" d="M446.25,286.57c-.72.88-1.08,1.25-1.5,1.25a.64.64,0,0,1-.66-.62.69.69,0,0,1,.24-.49,13.07,13.07,0,0,0,3.19-4.87.6.6,0,0,1,.6-.42.76.76,0,0,1,.78.68,11.37,11.37,0,0,1-1.31,2.58l-.17,8.4a.65.65,0,0,1-.7.64.6.6,0,0,1-.64-.61v0Zm2.55.72a.56.56,0,1,1,0-1.12h1.51v-1.65h-1.19a.56.56,0,1,1,0-1.12h1.19v-1.29a.67.67,0,0,1,1.33,0l0,1.3h1.52v-1.3a.66.66,0,0,1,1.31,0v1.3h1.42a.56.56,0,1,1,0,1.12h-1.42v1.65h1.82a.56.56,0,0,1,.62.54.57.57,0,0,1-.62.58Zm5.18,6.16c-.42,0-1,0-1.48,0s-1.2,0-1.64,0a1.41,1.41,0,0,1-1.5-1.3c0-.2,0-.42,0-.65,0-.75,0-1.61.06-2.18a1.33,1.33,0,0,1,1.44-1.26c.58,0,1.32,0,2,0,.43,0,.85,0,1.17,0a1.46,1.46,0,0,1,1.39,1.16c0,.62,0,1.55,0,2.3,0,.23,0,.43,0,.61A1.46,1.46,0,0,1,454,293.45Zm-3.43-2.3c0,.27,0,.52,0,.7,0,.49.23.53,1.92.53,1.23,0,1.68,0,1.71-.54,0-.17,0-.42,0-.69Zm3.64-1c0-.19,0-.37,0-.51a.55.55,0,0,0-.61-.55h-2.38c-.6,0-.63.42-.63,1.06Zm-1.05-5.61h-1.53v1.65h1.54Z" transform="translate(-354.06 -225.6)"/><path class="cls-2" d="M460.18,293.62a.7.7,0,0,1-.72-.69.75.75,0,0,1,.52-.67,5.33,5.33,0,0,0,3.67-5.25,9.3,9.3,0,0,0-.24-2c-.14-.66-.44-.92-.78-.92a1.51,1.51,0,0,0-1,.67,4.85,4.85,0,0,0-.77,3c0,.76-.39,1.1-.74,1.1-.7,0-.7-.93-.7-1.12a11.88,11.88,0,0,1,.56-3c.21-.71.56-1.73.73-2.59a.57.57,0,0,1,.59-.49.79.79,0,0,1,.8.73s0,.09,0,.13a2.52,2.52,0,0,1-.43,1c-.1.15-.11.21-.1.21s.11-.09.21-.18a1.84,1.84,0,0,1,1.26-.61c1.68,0,2.1,2.8,2.1,4.26,0,2.34-1,4.89-4.47,6.39A1,1,0,0,1,460.18,293.62Z" transform="translate(-354.06 -225.6)"/><path class="cls-2" d="M469.18,293.44a5.38,5.38,0,0,0-1.72-1.48.61.61,0,0,1,.28-1.17c.49,0,2.73,1.23,2.73,2.18a.77.77,0,0,1-.76.77A.63.63,0,0,1,469.18,293.44Z" transform="translate(-354.06 -225.6)"/></g><g class="cls-1"><path class="cls-2" d="M355.3,320.33a6.72,6.72,0,0,0,3.81-6c0-1.12.07-1.56.05-2.24a8.1,8.1,0,0,0-.12-1.17c-.26-1.09,1.5-1.26,1.57-.07a11,11,0,0,1,0,1.24c0,.5,0,.75,0,1s0,.57,0,1.16a8.32,8.32,0,0,1-4.5,7.29C354.93,322.18,354.38,320.76,355.3,320.33Zm.45-4.29a10.89,10.89,0,0,0,.07-3.41,8,8,0,0,0-.17-.82.8.8,0,1,1,1.55-.29c0,.39.05.81.05,1.16,0,.55,0,1.25,0,1.79a9.93,9.93,0,0,1-.07,1.63C357,317.37,355.53,317,355.75,316Z" transform="translate(-354.06 -225.6)"/><path class="cls-2" d="M366.32,317.91c0,.67.27,1,1.1,1.1a8.77,8.77,0,0,0,3.82-.49c1.22-.66,2.1.8.52,1.5a11.15,11.15,0,0,1-4.86.38,2,2,0,0,1-1.95-2.09c0-1.39.08-2.48.15-4.12a7.94,7.94,0,0,0-.08-1.76.79.79,0,1,1,1.57-.06,11.21,11.21,0,0,1-.06,1.75c0,.35,0,.68,0,1a14.5,14.5,0,0,0,2.56-.74,4.61,4.61,0,0,0,1.21-.66c.74-.63,2,.31,1.2,1.13a4.3,4.3,0,0,1-1.43.73,19.66,19.66,0,0,1-3.63,1C366.37,317,366.35,317.4,366.32,317.91Zm4.92-5.06c-.7-.3-.15-1.14.49-.9a4.82,4.82,0,0,1,1.37.84c.55.58-.26,1.43-.73.88A4.68,4.68,0,0,0,371.24,312.85Zm1.26-1.19c-.71-.28-.21-1.12.45-.91a4.12,4.12,0,0,1,1.4.8c.56.56-.22,1.41-.7.89A5.07,5.07,0,0,0,372.5,311.66Z" transform="translate(-354.06 -225.6)"/><path class="cls-2" d="M379.22,314.87a5.81,5.81,0,0,0-2-1c-.84-.18-.49-1.58.57-1.31a8.2,8.2,0,0,1,2.31.94.8.8,0,0,1,.24,1.13A.75.75,0,0,1,379.22,314.87Zm.6,5.28a3,3,0,0,1-1.35.44c-1.16.1-1.33-1.37-.43-1.47a4.38,4.38,0,0,0,1.08-.35,13.72,13.72,0,0,0,6.22-6.16c.46-.88,1.88-.29,1.26.83A15.88,15.88,0,0,1,379.82,320.15Z" transform="translate(-354.06 -225.6)"/><path class="cls-2" d="M390,316.64c-1,.65-1.79-.63-.81-1.21a10.39,10.39,0,0,0,3-3.25,4.62,4.62,0,0,0,.55-1.15.76.76,0,0,1,1.49.24,2,2,0,0,1-.21.61c.68-.11,1.4-.28,2-.32,1-.06,1.84.63,1.31,1.54-2.25,3.87-4.3,6.57-8.08,8-1.21.46-1.75-1-.56-1.36,3-1,5.25-3.51,6.86-6.55.14-.28,0-.34-.19-.34a21.69,21.69,0,0,0-2.24.35A14.53,14.53,0,0,1,390,316.64Zm7.08-5.47c-.7-.3-.16-1.14.49-.9a4.82,4.82,0,0,1,1.37.84c.55.58-.27,1.43-.73.88A4.68,4.68,0,0,0,397.06,311.17Zm1.26-1.19c-.72-.28-.21-1.12.44-.91a4.26,4.26,0,0,1,1.41.8c.56.56-.23,1.41-.7.89A5.07,5.07,0,0,0,398.32,310Z" transform="translate(-354.06 -225.6)"/><path class="cls-2" d="M404.51,315a8,8,0,0,1-1.58.27.61.61,0,0,1-.66-.63.68.68,0,0,1,.7-.7,10.33,10.33,0,0,0,2.32-.33,6,6,0,0,0,.68-2.14.59.59,0,0,1,.63-.5.7.7,0,0,1,.76.64,4.75,4.75,0,0,1-.51,1.7H407c1.59,0,1.63,1.72,1.63,2.36,0,1.25-.05,4.75-2.64,4.75-.8,0-1.84-.36-1.84-1a.75.75,0,0,1,.73-.72.66.66,0,0,1,.3.07,1.86,1.86,0,0,0,.78.21c.91,0,1.33-1,1.33-3.44,0-.57-.08-1-.53-1a.77.77,0,0,0-.25,0l-.23.05c-1.05,2-2.52,4.28-3.42,5.8a.81.81,0,0,1-.72.41.66.66,0,0,1-.72-.6.83.83,0,0,1,.17-.49c.62-.94,2.07-3,3.07-4.74Zm7.76,1.93a4.39,4.39,0,0,0-2.4-2.22.51.51,0,0,1-.38-.48.65.65,0,0,1,.67-.62c.71,0,3.46,1.74,3.46,3a.74.74,0,0,1-.74.74A.66.66,0,0,1,412.27,317Z" transform="translate(-354.06 -225.6)"/><path class="cls-2" d="M418,321.58c-.53,0-.77-.31-.77-.63a.67.67,0,0,1,.64-.66c2.48-.2,4.5-1.66,4.5-2.78a1,1,0,0,0-1.08-.89c-1.08,0-3.07,1.76-3.28,2a1,1,0,0,1-.77.49c-.3,0-1.16-.3-1.16-2.29a6.15,6.15,0,0,1,.25-1.82,6.06,6.06,0,0,0,.14-1.18v-.24c0-.91.42-1.37,1.39-1.9.34-.19.74-.35.74-.52s-.15-.23-.53-.35a.64.64,0,0,1-.52-.58.7.7,0,0,1,.76-.63c.5,0,2.25.83,2.25,1.8,0,.65-.52.75-1.22.86a4,4,0,0,0-.67.28c-.88.41-1,.78-1,1.21,0,.07,0,.15,0,.24v.15a3.87,3.87,0,0,1,0,.56,13,13,0,0,0-.24,1.85s0,.6.17.6a.24.24,0,0,0,.12,0c.28-.17.82-.53,1.43-.88a4.73,4.73,0,0,1,2.26-.76,2.24,2.24,0,0,1,2.42,2c0,.89-.62,2-2.1,2.94A9.23,9.23,0,0,1,418,321.58Z" transform="translate(-354.06 -225.6)"/><path class="cls-2" d="M427.64,321a.74.74,0,0,1-.68-.6,10.17,10.17,0,0,1-.42-3.05,15.41,15.41,0,0,1,.09-1.82c.17-1.57.49-3,.59-3.83a.65.65,0,0,1,.65-.66.72.72,0,0,1,.73.69s0,.07,0,.11c-.1.6-.35,1.59-.55,2.61a14.25,14.25,0,0,0-.3,2.41c0,.52.08.63.11.63s.11-.09.19-.25c.4-.86.62-1,.85-1a.61.61,0,0,1,.58.59.48.48,0,0,1-.07.26,8.58,8.58,0,0,0-1.1,2.76c0,.17,0,.34,0,.5A.68.68,0,0,1,427.64,321Zm4.56,0a2.09,2.09,0,0,1-2.18-1.76c0-1.06,1.31-1.49,2.6-1.49a6.54,6.54,0,0,1,1.3.14c0-.13,0-.26,0-.4a7.54,7.54,0,0,0,0-.78c-.06-.6-.13-1.64-.17-2.73a5.25,5.25,0,0,0-2.52,1,.67.67,0,0,1-.45.2.68.68,0,0,1-.64-.68c0-.3.19-1,3.58-1.78,0-.58,0-1.14.05-1.59a.59.59,0,0,1,.64-.58.61.61,0,0,1,.66.55v.07c0,.39-.09.84-.1,1.3l.76-.12a.58.58,0,0,1,.18,0,.64.64,0,0,1,.71.61c0,.29-.23.6-.75.67l-.91.12c0,1,.05,2.06.12,2.8a13.63,13.63,0,0,1,.11,1.56v.15a5.88,5.88,0,0,1,1.62,1,.79.79,0,0,1,.26.58.75.75,0,0,1-.71.78.69.69,0,0,1-.51-.25,4.44,4.44,0,0,0-1-.81A3.23,3.23,0,0,1,432.2,321Zm.19-2.18c-1.09,0-1.15.35-1.15.48s.18.52.8.52a2.05,2.05,0,0,0,1.56-.81A4.35,4.35,0,0,0,432.39,318.77Z" transform="translate(-354.06 -225.6)"/><path class="cls-2" d="M448.45,319.67a2.61,2.61,0,0,1-2.76,2c-.94,0-1.4-.07-1.4-.67a.61.61,0,0,1,.57-.66H445a3.7,3.7,0,0,0,.74.1,1.26,1.26,0,0,0,1.24-.76l-5,0c-1.11,0-1.6-.48-1.6-1.18a1.78,1.78,0,0,1,.09-.53,12.6,12.6,0,0,0,.29-1.35h-1.32a.58.58,0,0,1-.64-.57.59.59,0,0,1,.64-.6H441c.07-.45.13-.91.2-1.36.15-1.09.54-1.44,1.74-1.48.77,0,1.66-.05,2.56-.05.64,0,1.29,0,1.86,0,1,0,1.56.42,1.58,1.29,0,.21,0,.46,0,.73s0,.54,0,.84h1.45a.59.59,0,1,1,0,1.17h-1.49c0,.66-.1,1.32-.19,1.9l1.33,0a.58.58,0,1,1,0,1.15Zm-6.3-8a11.31,11.31,0,0,1-1.77,1.88.8.8,0,0,1-.54.23.75.75,0,0,1-.75-.68.53.53,0,0,1,.26-.46,8.5,8.5,0,0,0,2.54-3.15.62.62,0,0,1,.58-.38.76.76,0,0,1,.77.67c0,.16,0,.28-.28.66l6.61,0a.64.64,0,1,1,0,1.27Zm1.73,6.84c.1-.6.2-1.27.27-1.95h-2c-.09.58-.18,1.11-.27,1.49,0,0,0,.05,0,.08a.43.43,0,0,0,.47.39Zm.38-3c.06-.67.11-1.3.14-1.86-1.62,0-1.88,0-1.94.56,0,.35-.12.81-.19,1.3Zm1.18,1.09c-.07.69-.17,1.35-.27,1.95h2.19a15.07,15.07,0,0,0,.22-1.94Zm2.18-1.09v-.39c0-1.12,0-1.42-.54-1.43l-1.39,0c0,.56-.08,1.2-.14,1.86Z" transform="translate(-354.06 -225.6)"/><path class="cls-2" d="M460.27,321.17c-.62,0-1.38,0-2.12,0s-1.46,0-2,0a1.66,1.66,0,0,1-1.86-1.7c0-.91-.05-2.43-.05-4,0-1.36,0-2.73.05-3.67s.7-1.48,1.75-1.53l2.34,0,1.94,0A1.7,1.7,0,0,1,462,312c0,.86,0,2.26,0,3.66s0,3.08,0,3.82A1.74,1.74,0,0,1,460.27,321.17Zm.4-6.44c0-.89,0-1.7,0-2.26,0-1-.23-1-2.48-1s-2.56,0-2.6,1c0,.57,0,1.37,0,2.26ZM455.53,316c0,1.17,0,2.3,0,3,0,.91.18,1,2.56,1h1.47c.79,0,1-.39,1.05-1s0-1.81,0-2.93Z" transform="translate(-354.06 -225.6)"/><path class="cls-2" d="M468,311.7a9.12,9.12,0,0,1-1.57,1.88.91.91,0,0,1-.6.25.64.64,0,0,1-.67-.62.87.87,0,0,1,.36-.63,7,7,0,0,0,2.1-3,.65.65,0,0,1,.6-.44.7.7,0,0,1,.7.68c0,.15-.05.28-.28.74h2.05a.55.55,0,0,1,.56.56.56.56,0,0,1-.58.57Zm4.31,5.88a6.54,6.54,0,0,0,4.37,2.68.71.71,0,0,1,.61.66.77.77,0,0,1-.82.74,7.84,7.84,0,0,1-5.15-3.49c-1.4,3.1-5.21,3.62-5.23,3.62a.71.71,0,0,1-.74-.68.64.64,0,0,1,.58-.61c2.32-.58,3.65-1.39,4.27-2.92l-4,0a.61.61,0,0,1-.65-.6.6.6,0,0,1,.65-.6h4.3c.05-.36.09-.76.11-1.18-.18,0-1.7.06-3.36.06a.67.67,0,0,1-.72-.67.59.59,0,0,1,.63-.6h0l1.64,0a35.41,35.41,0,0,0,5.5-.38.53.53,0,0,1-.15-.15,2.67,2.67,0,0,0-.78-.73.44.44,0,0,1-.24-.38.62.62,0,0,1,.64-.56c.39,0,1.44.72,1.44,1.28a.62.62,0,0,1-.23.48.6.6,0,0,1,.54.61.63.63,0,0,1-.52.65,28.42,28.42,0,0,1-3.08.32,10.27,10.27,0,0,1-.12,1.17v.06h4.54a.59.59,0,0,1,.63.6.6.6,0,0,1-.63.6Zm-3-3.88a.53.53,0,0,1-.47-.25,3,3,0,0,0-.66-.67.37.37,0,0,1-.17-.31.67.67,0,0,1,.67-.55c.28,0,1.33.59,1.33,1.17A.67.67,0,0,1,469.29,313.7Zm3.53-2c-.95,1.51-1.36,1.68-1.65,1.68a.63.63,0,0,1-.67-.57.6.6,0,0,1,.21-.45,7.63,7.63,0,0,0,1.79-2.83.54.54,0,0,1,.52-.36.71.71,0,0,1,.71.65c0,.14,0,.2-.29.77h3.14a.57.57,0,1,1,0,1.13Z" transform="translate(-354.06 -225.6)"/><path class="cls-2" d="M483.53,319.8a2.62,2.62,0,0,1-1.66-.73,7.3,7.3,0,0,1-2.05-4.22c-.11-.53-.27-1.39-.27-1.5a.69.69,0,0,1,.7-.67.73.73,0,0,1,.7.66c.09.45.12.92.2,1.37.58,3.27,1.89,3.39,2,3.39s.26-.11.39-.45.22-.74.39-1.19a.55.55,0,0,1,.52-.39.76.76,0,0,1,.74.7s0,.07,0,.11c-.09.47-.37,1.38-.41,1.81A1.16,1.16,0,0,1,483.53,319.8Zm5.38-3.18a4.93,4.93,0,0,0-1.83-2.83.57.57,0,0,1-.24-.45.61.61,0,0,1,.63-.58.92.92,0,0,1,.59.24c.58.51,2.32,2.05,2.32,3.46a.76.76,0,0,1-.77.8A.7.7,0,0,1,488.91,316.62Z" transform="translate(-354.06 -225.6)"/><path class="cls-2" d="M493.18,321.72a.75.75,0,0,1-.76-.68.63.63,0,0,1,.28-.49,4.46,4.46,0,0,0,1.5-3.81c0-.39,0-.77,0-1.1v-.06c0-.6.5-1.06,1.4-1.08s2,0,3.12,0,2.22,0,3.21,0c1.49,0,1.49.7,1.49,1.91s-.23,1.57-1.59,1.59c-1.13,0-2.43.05-3.83.05l-2.52,0C495.12,320.29,493.89,321.72,493.18,321.72Zm1.34-8.07a.56.56,0,1,1,0-1.11H498v-.84l-4.51,0a.56.56,0,1,1,0-1.12H498v-.78a.74.74,0,0,1,1.48,0v.77h4.49a.56.56,0,0,1,0,1.12l-4.49,0v.84h3.42a.56.56,0,1,1,0,1.11Zm3.56,1.87c-.69,0-1.35,0-2,0-.32,0-.55.1-.55.44v1c.89,0,1.74,0,2.54,0Zm1.33,1.45,2.14-.05c.38,0,.51-.15.51-.68,0-.13,0-.25,0-.37-.06-.35-.2-.35-2.62-.35Z" transform="translate(-354.06 -225.6)"/><path class="cls-2" d="M509.73,315a8.19,8.19,0,0,1-1.59.27.61.61,0,0,1-.66-.63.68.68,0,0,1,.7-.7,10.33,10.33,0,0,0,2.32-.33,6,6,0,0,0,.68-2.14.59.59,0,0,1,.63-.5.7.7,0,0,1,.76.64,4.75,4.75,0,0,1-.51,1.7h.12c1.59,0,1.64,1.72,1.64,2.36,0,1.25-.06,4.75-2.65,4.75-.8,0-1.84-.36-1.84-1a.75.75,0,0,1,.73-.72.66.66,0,0,1,.3.07,1.86,1.86,0,0,0,.78.21c.91,0,1.33-1,1.33-3.44,0-.57-.08-1-.53-1a.8.8,0,0,0-.25,0l-.23.05c-1,2-2.52,4.28-3.42,5.8a.81.81,0,0,1-.72.41.66.66,0,0,1-.72-.6.83.83,0,0,1,.17-.49c.62-.94,2.07-3,3.07-4.74Zm7.76,1.93a4.45,4.45,0,0,0-2.41-2.22.51.51,0,0,1-.38-.48.65.65,0,0,1,.67-.62c.71,0,3.46,1.74,3.46,3a.74.74,0,0,1-.74.74A.64.64,0,0,1,517.49,317Zm-.4-3.7a4.65,4.65,0,0,0-1.17-.77.45.45,0,0,1-.35-.42.55.55,0,0,1,.57-.51c.07,0,1.84.5,1.84,1.24a.61.61,0,0,1-.55.62A.44.44,0,0,1,517.09,313.25ZM518.3,312a4.9,4.9,0,0,0-1.19-.72.44.44,0,0,1-.37-.43.57.57,0,0,1,.58-.53A4.17,4.17,0,0,1,519,311a.63.63,0,0,1-.34,1.09A.5.5,0,0,1,518.3,312Z" transform="translate(-354.06 -225.6)"/><path class="cls-2" d="M522.09,315.2c0,1.61,0,3.91-.06,5.91a.64.64,0,0,1-.69.62.61.61,0,0,1-.65-.59v0c.09-2.59.07-7.44.09-10.25,0-1.26,1-1.26,2.44-1.26h1.44a1.14,1.14,0,0,1,1.22,1c0,.44,0,.91,0,1.37,0,1.71,0,1.95-2.95,1.95-.34,0-.66,0-.87,0Zm2.57-3.84c0-.14,0-.28,0-.4,0-.37-.06-.39-1.23-.39s-1.29,0-1.32.5c0,.1,0,.2,0,.29Zm-2.57.84V313h1.06c1.4,0,1.49,0,1.5-.4,0-.13,0-.26,0-.4Zm5.35,7.48c-1.46.23-3.91.47-4,.47a.54.54,0,0,1-.52-.59.51.51,0,0,1,.48-.55c.25,0,.52,0,.77,0v-3.4h-.61a.51.51,0,1,1,0-1h5.79a.51.51,0,1,1,0,1h-.7l0,4.95a.6.6,0,1,1-1.19,0Zm0-4.1h-2.16v.53h2.16Zm0,1.27h-2.16v.55h2.15Zm0,1.29h-2.15v.76c.75-.06,1.46-.13,2.15-.22Zm2.44-4.18c-2,0-3,0-3-1.14,0-.27,0-.53,0-.81,0-.46,0-.93,0-1.37a1.12,1.12,0,0,1,1.19-1h2.61c1.05.06,1.42.56,1.42,1.15v1c0,2.07,0,4.49,0,6.29,0,.67,0,1.26,0,1.75a1.73,1.73,0,0,1-2,1.89c-1.34,0-1.45-.42-1.45-.77a.58.58,0,0,1,.58-.61h.08a5,5,0,0,0,.76.09c.66,0,.67-.24.67-2.8,0-1.08,0-2.23,0-3.11v-.56C530.58,313.94,530.24,314,529.88,314Zm.88-2.6c0-.79,0-.79-1.33-.79-1.14,0-1.32,0-1.35.4,0,.13,0,.25,0,.39Zm0,.84h-2.72c0,.14,0,.27,0,.4,0,.33.06.4,1.57.4h1.14Z" transform="translate(-354.06 -225.6)"/><path class="cls-2" d="M539.39,320.9c-2.9,0-4.45-1.34-4.45-2.14a.76.76,0,0,1,.73-.76.87.87,0,0,1,.63.35,3.27,3.27,0,0,0,2.66,1.07,9.57,9.57,0,0,0,2.38-.35,1.22,1.22,0,0,1,.32,0,.7.7,0,0,1,.76.71.94.94,0,0,1-.79.88A9.1,9.1,0,0,1,539.39,320.9Zm1-7.28a8.75,8.75,0,0,1-3.8-.9.78.78,0,0,1-.46-.71.61.61,0,0,1,.63-.65,1.08,1.08,0,0,1,.4.09,9.31,9.31,0,0,0,3.38.73.71.71,0,0,1,.73.71C541.3,313.25,541,313.62,540.42,313.62Z" transform="translate(-354.06 -225.6)"/><path class="cls-2" d="M549.94,318.82a1,1,0,0,0,1,.92,6.61,6.61,0,0,0,2.34-.52,1,1,0,0,1,.44-.11.67.67,0,0,1,.69.67c0,1-2.1,1.26-3.1,1.26-1.82,0-2.52-.85-2.63-1.76-.07-.55-.21-.77-.42-.77-.45,0-1.18,1.09-2,1.95a1.09,1.09,0,0,1-.86.46c-.68,0-.86-.38-.86-.61a.82.82,0,0,1,.34-.57,47.39,47.39,0,0,0,5.53-5.27l.09-.12a0,0,0,0,0,0,0,1.46,1.46,0,0,0-.18.09,12.68,12.68,0,0,1-3.49,1.16.64.64,0,0,1-.71-.63.68.68,0,0,1,.63-.66,29.64,29.64,0,0,0,3.6-1c.36-.11.36-.16.73-.3a1.21,1.21,0,0,1,.36-.07.91.91,0,0,1,.91.87.94.94,0,0,1-.28.65c-.66.68-2.39,2.42-3.14,3.05C549.63,317.57,549.82,318.31,549.94,318.82Zm.93-6.56c-.84,0-2.66-1.11-2.66-1.72a.61.61,0,0,1,.65-.55.93.93,0,0,1,.6.24,2.59,2.59,0,0,0,1.61.7c.42,0,.6.29.6.57A.77.77,0,0,1,550.87,312.26Z" transform="translate(-354.06 -225.6)"/><path class="cls-2" d="M558.5,321.44a5.38,5.38,0,0,0-1.72-1.48.61.61,0,0,1,.28-1.17c.49,0,2.73,1.23,2.73,2.18a.77.77,0,0,1-.76.77A.63.63,0,0,1,558.5,321.44Z" transform="translate(-354.06 -225.6)"/></g><g class="cls-1"><path class="cls-2" d="M356.44,347.05l-.74,0a1.19,1.19,0,0,1-1.06-1.31c0-1,0-2.34,0-3.6,0-.91,0-1.79,0-2.45a1.12,1.12,0,0,1,1-1.23h1.54a1.18,1.18,0,0,1,1.14,1.18c0,.79,0,1.78,0,2.78,0,1.21,0,2.43,0,3.34C358.33,347,357.47,347.05,356.44,347.05Zm-.65-3.95c0,.9,0,1.78,0,2.39,0,.18,0,.42.66.42s.66-.14.67-.44c0-.66,0-1.5,0-2.37Zm1.4-1.09c0-.77,0-1.51,0-2.09,0-.22,0-.42-.66-.42-.4,0-.67.09-.67.44,0,.52,0,1.27,0,2.07Zm4.64,2c-.1.27-.18.52-.29.78l2.53-.05a.89.89,0,0,1,1,.87,1.14,1.14,0,0,1-.11.46,5.56,5.56,0,0,1-1.13,1.6,7.74,7.74,0,0,0,2.49.66.56.56,0,0,1,.53.56.68.68,0,0,1-.74.66,8,8,0,0,1-3.24-1.11,8.64,8.64,0,0,1-3.23,1.26.56.56,0,0,1-.58-.57.53.53,0,0,1,.45-.54,6.84,6.84,0,0,0,2.44-.88,5,5,0,0,1-1.11-1.47c-1.09,1.93-2.35,3-2.94,3a.61.61,0,0,1-.62-.58.58.58,0,0,1,.33-.51,7.7,7.7,0,0,0,3.06-4.13h-1.47a.51.51,0,0,1-.53-.53.51.51,0,0,1,.53-.52H361c.05-.26.11-.52.15-.77h-1.45a.53.53,0,1,1,0-1.06h.47a.35.35,0,0,1-.07-.12,2.16,2.16,0,0,0-.46-.72.43.43,0,0,1-.11-.27.58.58,0,0,1,.6-.49c.43,0,1,.84,1,1.16a.57.57,0,0,1-.21.45h1.36a.41.41,0,0,1-.32-.35,2.23,2.23,0,0,0-.34-.83.33.33,0,0,1-.05-.18c0-.25.31-.42.59-.42.59,0,.87,1.08.87,1.22a.61.61,0,0,1-.52.56h1a7.74,7.74,0,0,0,.82-1.71.45.45,0,0,1,.46-.29c.33,0,.7.22.7.53a6,6,0,0,1-.76,1.46h.86a.53.53,0,1,1,0,1.06h-3.17a7.82,7.82,0,0,1-.17.78H366a.53.53,0,1,1,0,1Zm-2.39-4.62a.6.6,0,0,1-.65-.6.57.57,0,0,1,.62-.57h.73a22.81,22.81,0,0,0,4.81-.48h.16a.65.65,0,0,1,.66.62c0,.23-.16.46-.55.54A33,33,0,0,1,359.44,339.39Zm4.24,6.4c0-.12-.13-.14-.21-.14s-1,0-1.79,0a4,4,0,0,0,1.13,1.37A3,3,0,0,0,363.68,345.79Z" transform="translate(-354.06 -225.6)"/><path class="cls-2" d="M371.33,343a8,8,0,0,1-1.58.27.61.61,0,0,1-.66-.63.68.68,0,0,1,.7-.7,10.21,10.21,0,0,0,2.31-.33,5.8,5.8,0,0,0,.69-2.14.59.59,0,0,1,.63-.5.7.7,0,0,1,.76.64,4.75,4.75,0,0,1-.51,1.7h.12c1.59,0,1.63,1.72,1.63,2.36,0,1.25-.05,4.75-2.64,4.75-.8,0-1.84-.36-1.84-1a.75.75,0,0,1,.73-.72.59.59,0,0,1,.29.07,1.9,1.9,0,0,0,.79.21c.91,0,1.33-1,1.33-3.44,0-.57-.08-1-.53-1a.77.77,0,0,0-.25,0l-.23.05c-1.05,2-2.52,4.28-3.42,5.8a.81.81,0,0,1-.72.41.66.66,0,0,1-.72-.6.83.83,0,0,1,.17-.49c.62-.94,2.07-3,3.07-4.74Zm7.76,1.93a4.39,4.39,0,0,0-2.4-2.22.51.51,0,0,1-.38-.48.65.65,0,0,1,.67-.62c.71,0,3.46,1.74,3.46,3a.74.74,0,0,1-.74.74A.66.66,0,0,1,379.09,345Z" transform="translate(-354.06 -225.6)"/><path class="cls-2" d="M386.23,347.8a2.67,2.67,0,0,1-1.67-.73,7.34,7.34,0,0,1-2-4.22c-.11-.53-.27-1.39-.27-1.5a.69.69,0,0,1,.7-.67.73.73,0,0,1,.7.66c.09.45.12.92.2,1.37.57,3.27,1.89,3.39,2,3.39s.26-.11.39-.45.22-.74.39-1.19a.55.55,0,0,1,.52-.39.76.76,0,0,1,.74.7s0,.07,0,.11c-.09.47-.37,1.38-.41,1.81A1.16,1.16,0,0,1,386.23,347.8Zm5.38-3.18a5,5,0,0,0-1.84-2.83.59.59,0,0,1-.23-.45.61.61,0,0,1,.63-.58.92.92,0,0,1,.59.24c.58.51,2.32,2.05,2.32,3.46a.76.76,0,0,1-.77.8A.7.7,0,0,1,391.61,344.62Z" transform="translate(-354.06 -225.6)"/><path class="cls-2" d="M397.22,349.44A5.38,5.38,0,0,0,395.5,348a.61.61,0,0,1,.28-1.17c.49,0,2.73,1.23,2.73,2.18a.77.77,0,0,1-.76.77A.63.63,0,0,1,397.22,349.44Z" transform="translate(-354.06 -225.6)"/><path class="cls-2" d="M403.52,348.37a10.66,10.66,0,0,1-.39-2.94,36.64,36.64,0,0,1,.7-5.91.68.68,0,0,1,.7-.58.61.61,0,0,1,.66.58s0,.07,0,.11c-.1.56-.28,1.23-.4,1.91a17.82,17.82,0,0,0-.4,3c0,.24,0,.56.09.56s.08-.06.15-.2.21-.45.32-.67a.69.69,0,0,1,.56-.42.56.56,0,0,1,.54.56.72.72,0,0,1-.09.34,8.94,8.94,0,0,0-1,3c0,.71,0,1.3-.69,1.3A.75.75,0,0,1,403.52,348.37Zm4.2-7.35a.71.71,0,0,1-.38.12.55.55,0,0,1-.54-.59.74.74,0,0,1,.32-.6c.78-.63,3.54-.87,4.44-1.05l.24,0a.64.64,0,0,1,.7.63.68.68,0,0,1-.56.65C410.94,340.41,408.6,340.44,407.72,341Zm1.35,7.77A2.15,2.15,0,0,1,406.8,347c0-1.06,1.33-1.49,2.46-1.49a4.74,4.74,0,0,1,1.07.12c0-.15,0-.32,0-.52-.05-.36-.09-.75-.12-1.15a4.75,4.75,0,0,1-1,.12c-.24,0-1.66,0-1.66-1.1,0-.54.42-1.21.89-1.21a.5.5,0,0,1,.51.49.7.7,0,0,1-.12.36.19.19,0,0,0,0,.11c0,.18.42.18.53.18a3.11,3.11,0,0,0,.77-.11c0-.25,0-.5,0-.74,0-.94,0-1.58.71-1.58a.53.53,0,0,1,.58.54.57.57,0,0,1,0,.13,10.1,10.1,0,0,0-.13,1.22c.33-.16.63-.34.91-.51a.84.84,0,0,1,.42-.12.6.6,0,0,1,.62.57c0,.38-.29.72-1.93,1.35,0,.43.08.86.15,1.33a10.29,10.29,0,0,1,.14,1,7.55,7.55,0,0,1,1.6,1,.69.69,0,0,1,.26.56.68.68,0,0,1-.63.7.66.66,0,0,1-.47-.21,9.24,9.24,0,0,0-.94-.74A2.6,2.6,0,0,1,409.07,348.79Zm-.05-2.27c-.32,0-1,.07-1,.51s.37.64,1,.64a1.37,1.37,0,0,0,1.27-.91A3.45,3.45,0,0,0,409,346.52Z" transform="translate(-354.06 -225.6)"/><path class="cls-2" d="M421.34,348.68c-.7,0-1.9-.21-1.9-1.49a2.73,2.73,0,0,1,.11-.7,3.82,3.82,0,0,0,.24-1.09c0-.32-.11-.43-.31-.43A3.54,3.54,0,0,0,417,347.5c-.35,1.08-.71,1.18-1.09,1.18a.64.64,0,0,1-.69-.63,1.12,1.12,0,0,1,.13-.48,44.31,44.31,0,0,1,2.34-4.14c.78-1.25,1.41-2.44,2-3.52.23-.39.58-.9.72-1.16a.65.65,0,0,1,.6-.38.8.8,0,0,1,.8.76c0,.28-.14.56-.76,1.31a20.88,20.88,0,0,0-1.55,2.15c-.42.65-.76,1.24-1.07,1.69,0,0,0,.06,0,.07h0l.07-.06a2.3,2.3,0,0,1,1.26-.37c.66,0,1.29.3,1.29,1.41v.14a5.26,5.26,0,0,1-.26,1.09.75.75,0,0,0,0,.2c0,.39.31.57.75.57,1.36,0,3-1.48,3.46-3.37a.74.74,0,0,1,.75-.63.75.75,0,0,1,.78.73.87.87,0,0,1,0,.26C425.18,348.15,422.45,348.68,421.34,348.68Z" transform="translate(-354.06 -225.6)"/><path class="cls-2" d="M431.34,343.51c-.6-.32-.73-.78-.73-1.57,0-.22,0-.48,0-.76,0-.64,0-1.14,0-1.56a6.48,6.48,0,0,0-.1-1.35,1.15,1.15,0,0,1,0-.18.6.6,0,0,1,.64-.62c.86,0,.9.82.9,1.75,0,.4,0,.89-.08,1.59,0,.43-.07.78-.07,1.06,0,.87.57.95,1,.95.21,0,.24-.11.41-.16a.59.59,0,0,1,.22-.05.7.7,0,0,1,.7.68.89.89,0,0,1-.52.72c-.47.3-1.59.78-2.24,1.12-1.06.59-1.54,1.2-1.54,1.71S430.6,348,432,348a4,4,0,0,0,1.95-.45,1.15,1.15,0,0,1,.66-.23.75.75,0,0,1,.79.72c0,.87-1.63,1.36-3.08,1.36-2.53,0-3.67-1.21-3.67-2.41,0-1,.77-2.16,2.47-3.11l.47-.27A.81.81,0,0,1,431.34,343.51Z" transform="translate(-354.06 -225.6)"/><path class="cls-2" d="M439.52,349a.63.63,0,0,1,.4-.59c2.58-1.13,3.42-2.76,3.42-4.29,0-.39-.13-2.42-1.21-2.42a2.2,2.2,0,0,0-1.1.44,3.2,3.2,0,0,1-1.47.63.75.75,0,1,1-.07-1.49,2.9,2.9,0,0,0,.95-.35,4.26,4.26,0,0,1,1.78-.45c2.46,0,2.52,3.34,2.52,3.62,0,3.75-3.91,5.64-4.48,5.64A.75.75,0,0,1,439.52,349Zm3.52-9.68a6.44,6.44,0,0,1-2.71-.6.67.67,0,0,1-.38-.58.63.63,0,0,1,.64-.61.93.93,0,0,1,.38.08,3.86,3.86,0,0,0,1.64.31h.55a.64.64,0,0,1,.71.63A.77.77,0,0,1,443,339.35Z" transform="translate(-354.06 -225.6)"/><path class="cls-2" d="M457,343.54a3,3,0,0,0-3.25-2.89h0a.64.64,0,0,1,.39.59v.07c0,1.47-1.44,4-3,5.53a1.52,1.52,0,0,1-1.05.48c-1,0-1.89-1.12-1.89-2.65,0-2.53,2.49-5.11,5.64-5.11,2.83,0,4.6,1.88,4.6,4.06a4.36,4.36,0,0,1-.31,1.59c-1.24,3.1-5.05,3.54-5.24,3.54a.74.74,0,0,1-.8-.69c0-.31.24-.6.77-.7C455.38,346.94,457,345.37,457,343.54Zm-4.05-2.82a4.59,4.59,0,0,0-3.5,3.88c0,1,.7,1.18.74,1.18a.41.41,0,0,0,.27-.11c.42-.38,2.17-2.45,2.22-4.34A.71.71,0,0,1,452.93,340.72Z" transform="translate(-354.06 -225.6)"/><path class="cls-2" d="M468.62,341.89a8.41,8.41,0,0,0,.44,2.07,18.68,18.68,0,0,0,1.75-1.25.56.56,0,0,1,.38-.14.77.77,0,0,1,.75.72.61.61,0,0,1-.3.5,17.12,17.12,0,0,1-2.11,1.21,4.83,4.83,0,0,0,2.54,2.28.62.62,0,0,1,.46.59.74.74,0,0,1-.75.71,1,1,0,0,1-.33-.05c-2.34-.86-3.76-4.24-4-6.67h-.61l-.81.63a6.21,6.21,0,0,1,1.92,4.38,2.45,2.45,0,0,1-2.51,2.76c-.87,0-1.34-.24-1.34-.77a.54.54,0,0,1,.57-.56h.17a2.55,2.55,0,0,0,.59.07c.92,0,1.26-.64,1.26-1.73,0-.18,0-.38,0-.58a11.22,11.22,0,0,1-5.34,2.76.56.56,0,0,1-.6-.56.6.6,0,0,1,.53-.61,10.75,10.75,0,0,0,5.14-2.68,4,4,0,0,0-.24-.57,12.7,12.7,0,0,1-4.7,2.14.55.55,0,0,1-.58-.56.58.58,0,0,1,.49-.56,10.53,10.53,0,0,0,4.26-1.85,3.63,3.63,0,0,0-.48-.48,10.37,10.37,0,0,1-3.41,1.33.56.56,0,0,1-.61-.54.61.61,0,0,1,.51-.59,10,10,0,0,0,3.63-1.43l-1.92,0h0a.54.54,0,0,1-.59-.53.56.56,0,0,1,.61-.56h6.2a.55.55,0,0,1,.6.56.52.52,0,0,1-.57.53h0Zm-1.4-3.17c1.15,0,2.29,0,3.36,0a1.55,1.55,0,0,1,1.56,1.36c0,.19,0,.43,0,.65,0,.49,0,1.06-.74,1.06a.61.61,0,0,1-.67-.57v0c0-1.24,0-1.38-.88-1.4-1.12,0-2.47,0-3.77,0-1.08,0-2.12,0-3,0s-.88.21-.93.7v.74h0a.63.63,0,0,1-.68.58.62.62,0,0,1-.67-.61c0-.16,0-.36,0-.57s0-.42,0-.63a1.44,1.44,0,0,1,1.61-1.3c1.06,0,2.2,0,3.34,0v-.9h0a.65.65,0,0,1,.73-.62.66.66,0,0,1,.73.62h0Z" transform="translate(-354.06 -225.6)"/><path class="cls-2" d="M479,340.65l-1.76,0c0,.41-.06.85-.09,1.3.27,0,.55,0,.8,0,.56,0,1.43,0,1.43,1.24v.08c-.08,2.89-.21,6-2.34,6-.73,0-1.23-.26-1.23-.8a.56.56,0,0,1,.52-.61.63.63,0,0,1,.26.05,1,1,0,0,0,.41.1c.27,0,1.09,0,1.15-4.47a.39.39,0,0,0-.38-.45h-.71c-.24,2.3-.73,4.61-1.95,6.13a.71.71,0,0,1-1.25-.36.57.57,0,0,1,.14-.36c1.53-1.9,1.85-5,2-7.8h-1s-.67,0-.67-.59a.65.65,0,0,1,.66-.64h0l1.4,0v-1.57a.64.64,0,0,1,.68-.65.65.65,0,0,1,.69.65v1.57l1.25,0h0a.56.56,0,0,1,.59.6.6.6,0,0,1-.6.63Zm2.27-.42c-1,1.71-1.23,1.81-1.55,1.81a.63.63,0,0,1-.66-.59.74.74,0,0,1,.17-.42A11.46,11.46,0,0,0,481,337.7a.6.6,0,0,1,.57-.41.64.64,0,0,1,.69.6,5.59,5.59,0,0,1-.4,1.14l4,0a.62.62,0,0,1,0,1.23Zm4.47,5.4-2,0a4.32,4.32,0,0,0,2.51,2.6.64.64,0,0,1,.46.59.68.68,0,0,1-.72.66,4.49,4.49,0,0,1-3-2.73,4.66,4.66,0,0,1-3.2,2.87.65.65,0,0,1-.68-.64.62.62,0,0,1,.46-.59,3.92,3.92,0,0,0,2.55-2.76l-1.91,0h0a.54.54,0,0,1-.58-.55.55.55,0,0,1,.59-.56h2c0-.38,0-1,0-1.44h-.68c-.54.86-.79,1.14-1.16,1.14a.67.67,0,0,1-.68-.57.5.5,0,0,1,.18-.36,5.59,5.59,0,0,0,1.34-2.46.47.47,0,0,1,.49-.32c.34,0,.73.23.73.58a2.37,2.37,0,0,1-.31.87h3a.56.56,0,1,1,0,1.12h-1.58c0,.4-.05,1-.07,1.44h2.25a.53.53,0,0,1,.55.56.52.52,0,0,1-.53.55Z" transform="translate(-354.06 -225.6)"/><path class="cls-2" d="M493.58,349.18a.7.7,0,0,1-.75-.67.69.69,0,0,1,.59-.64,5,5,0,0,0,3-2.22,13.5,13.5,0,0,0-3.33-.94c-1.34,1.74-2,2.05-2.83,2.05a1.6,1.6,0,0,1-1.74-1.5c0-.68.52-1.47,1.91-1.67a10.93,10.93,0,0,1,1.3-.08,8.43,8.43,0,0,1,.86,0,14.67,14.67,0,0,0,1.91-3.42s0-.06,0-.06l-.11,0a3.08,3.08,0,0,1-1.09.24c-.59,0-1.17-.22-1.17-.81a.54.54,0,0,1,.54-.59l.18,0a3.31,3.31,0,0,0,1.25,0,6.91,6.91,0,0,1,1.26-.21c.42,0,.95.2.95.77a1.85,1.85,0,0,1-.29.87c-.48.79-1.28,2.1-2.13,3.32a16.39,16.39,0,0,1,3.09.83,5.08,5.08,0,0,0,.25-1.29.6.6,0,0,1,.63-.56.7.7,0,0,1,.72.71,8.24,8.24,0,0,1-.39,1.64,11.06,11.06,0,0,1,2.41,1.47.78.78,0,0,1,.29.62.75.75,0,0,1-.7.78.7.7,0,0,1-.52-.22,9.48,9.48,0,0,0-2-1.46A6.17,6.17,0,0,1,493.58,349.18Zm-3.83-4c0,.16.16.35.5.35s.6,0,1.44-.89C489.82,344.62,489.75,345.07,489.75,345.16Z" transform="translate(-354.06 -225.6)"/><path class="cls-2" d="M507.11,341.07a67,67,0,0,1-3.25,7.36.72.72,0,0,1-.67.39.67.67,0,0,1-.73-.6.81.81,0,0,1,.11-.4,44,44,0,0,0,3-6.33l-.15.05a4.6,4.6,0,0,1-1.2.18c-.13,0-1.23,0-1.23-.76a.66.66,0,0,1,.62-.71.8.8,0,0,1,.42.11.83.83,0,0,0,.36.08,6,6,0,0,0,1.64-.39,5.29,5.29,0,0,0,.1-1.12.71.71,0,0,1,.77-.66.6.6,0,0,1,.66.51,1.69,1.69,0,0,1,0,.23,2.53,2.53,0,0,1,0,.27.84.84,0,0,1,.18,0,.66.66,0,0,1,.66.65c0,.36-.25.61-1.29,1.07Zm4.27,7.89c-2.3,0-3.81-1.22-3.81-1.93a.74.74,0,0,1,.69-.75.67.67,0,0,1,.54.31c.54.72,1,.81,2.82.94a.69.69,0,0,1,.71.7C512.33,349,511.6,349,511.38,349Zm.81-5.27a7.87,7.87,0,0,0-2.48-.64,1.78,1.78,0,0,0-.47.05l-.16,0a.55.55,0,0,1-.53-.57c0-.23.07-.74,1.32-.74a8,8,0,0,1,2.84.63.64.64,0,0,1,.45.61.69.69,0,0,1-.67.69A.8.8,0,0,1,512.19,343.69Z" transform="translate(-354.06 -225.6)"/><path class="cls-2" d="M519.51,347.8a2.62,2.62,0,0,1-1.66-.73,7.3,7.3,0,0,1-2.05-4.22c-.11-.53-.27-1.39-.27-1.5a.69.69,0,0,1,.7-.67.73.73,0,0,1,.7.66c.09.45.12.92.2,1.37.58,3.27,1.89,3.39,2,3.39s.26-.11.39-.45.22-.74.39-1.19a.55.55,0,0,1,.52-.39.76.76,0,0,1,.74.7s0,.07,0,.11c-.09.47-.37,1.38-.41,1.81A1.16,1.16,0,0,1,519.51,347.8Zm5.38-3.18a4.93,4.93,0,0,0-1.83-2.83.57.57,0,0,1-.24-.45.61.61,0,0,1,.63-.58.92.92,0,0,1,.59.24c.59.51,2.32,2.05,2.32,3.46a.76.76,0,0,1-.77.8A.7.7,0,0,1,524.89,344.62Z" transform="translate(-354.06 -225.6)"/><path class="cls-2" d="M533.13,340.11a37.39,37.39,0,0,1-2.82,5.36.79.79,0,0,1-.7.42.62.62,0,0,1-.66-.6.89.89,0,0,1,.15-.48,30.8,30.8,0,0,0,2.48-4.09,4.16,4.16,0,0,1-1.76.56c-.93,0-.93-.63-.93-.68a.64.64,0,0,1,.65-.66,1,1,0,0,1,.28,0,.58.58,0,0,0,.23,0,5.71,5.71,0,0,0,2-.73c0-.34,0-.66.05-1.08a.63.63,0,0,1,.66-.62.64.64,0,0,1,.68.61v.29a.66.66,0,0,1,.15,0,.58.58,0,0,1,.56.58c0,.47-.6.84-1,1.06Zm-.4,9.27c-1.28,0-2.34-.91-2.34-1.71s1.23-1.61,3-1.61c.21,0,.43,0,.64,0-.09-1.12-.09-1.18-.09-1.33,0-.91.29-1.74,1.93-2.83a.29.29,0,0,0,.13-.17c0-.09-.13-.09-.19-.09a6,6,0,0,0-.89.17.65.65,0,0,1-.19,0,.48.48,0,0,1-.53-.46c0-.37.41-.79,1.86-.79,1,0,2.26.59,2.26,1.23a.71.71,0,0,1-.71.63,2.53,2.53,0,0,0-2.51,2.32,4.36,4.36,0,0,0,.07.68c0,.28.1.58.14.87.87.27,2.23.88,2.23,1.68a.69.69,0,0,1-.65.73.79.79,0,0,1-.57-.28,4.81,4.81,0,0,0-1.07-.76A2.75,2.75,0,0,1,532.73,349.38Zm.39-2.24c-.83,0-1.53.28-1.53.53s.49.55,1,.55a1.39,1.39,0,0,0,1.43-1A4.31,4.31,0,0,0,533.12,347.14Z" transform="translate(-354.06 -225.6)"/><path class="cls-2" d="M541.25,349a.59.59,0,1,1,0-1.18h4.54v-1.92H542.5a.57.57,0,0,1-.63-.57.59.59,0,0,1,.63-.58h7.8a.59.59,0,0,1,.63.58.57.57,0,0,1-.63.57h-3.16v1.92h4.45a.61.61,0,0,1,.62.62.56.56,0,0,1-.62.56Zm6.91-6.92c0,.39.12.44.85.44,1,0,1-.21,1-.37,0-.33.28-.47.56-.47a.81.81,0,0,1,.27.05.54.54,0,0,1-.21-.42v-.05c0-1,0-1.15-.76-1.16-1.12,0-2.55,0-3.94,0-1.13,0-2.24,0-3.09,0-.62,0-.77.2-.79.62v.63a.64.64,0,0,1-.68.61c-.68,0-.69-.52-.69-1.12,0-.8.08-1.86,1.7-1.87,1.07,0,2.18,0,3.3,0v-1a.73.73,0,0,1,1.46,0v1c1.09,0,2.17,0,3.23,0a1.56,1.56,0,0,1,1.64,1.41,4,4,0,0,1,0,.49c0,.55-.06,1-.72,1a.87.87,0,0,1-.28-.05.45.45,0,0,1,.17.34c0,1.33-1.33,1.44-2.26,1.44-1.37,0-2-.11-2-1.4,0-.1,0-.5,0-.89,0-.58,0-1,.6-1,.31,0,.62.17.62.47ZM542,344.24a.68.68,0,0,1-.68-.69.53.53,0,0,1,.46-.54,4.08,4.08,0,0,0,2.95-2.29.58.58,0,0,1,.55-.33.62.62,0,0,1,.65.58.79.79,0,0,1-.1.37A5.58,5.58,0,0,1,542,344.24Z" transform="translate(-354.06 -225.6)"/><path class="cls-2" d="M555.42,349.66a.61.61,0,0,1-.67-.58v0c.1-2.57.07-7,.1-10,0-1.37,1-1.37,2.39-1.37h1.36a1.23,1.23,0,0,1,1.28,1.11c0,.49,0,1,0,1.48,0,1.77,0,2.12-2.78,2.12-.37,0-.72,0-1,0v1.26c0,1.51,0,3.47-.06,5.45A.61.61,0,0,1,555.42,349.66Zm3.25-10.1c0-.15,0-.29,0-.43,0-.4-.1-.44-1.22-.44s-1.25,0-1.28.55c0,.1,0,.21,0,.32Zm-2.52.92v.86h1c1.35,0,1.45-.05,1.47-.44,0-.13,0-.27,0-.43Zm5.43,7.62c-.37,0-.79,0-1.2,0s-.84,0-1.22,0a1.35,1.35,0,0,1-1.39-1.3c0-.19,0-.43,0-.67,0-.63,0-1.36.06-1.92a1.29,1.29,0,0,1,1.31-1.25l1.14,0,1.33,0a1.32,1.32,0,0,1,1.27,1.15c0,.49.06,1.11.06,1.68,0,.37,0,.7,0,1A1.37,1.37,0,0,1,561.58,348.1ZM558.85,346c0,1.09,0,1.1,1.46,1.1,1,0,1.44,0,1.47-.56,0-.15,0-.35,0-.54Zm2.93-1c0-.16,0-.31,0-.43,0-.52-.29-.56-1.25-.56h-1.06a.55.55,0,0,0-.55.56c0,.13,0,.27,0,.42Zm2-2.57c-1.65,0-2.81,0-2.86-1.24,0-.28,0-.59,0-.88,0-.49,0-1,0-1.48a1.19,1.19,0,0,1,1.24-1.11h2.44c1,.05,1.47.62,1.47,1.25V340c0,2.1,0,4.27,0,6,0,.66,0,1.24,0,1.73,0,1-.49,1.87-2.08,1.87-1,0-1.49-.13-1.49-.74a.57.57,0,0,1,.55-.62h.11a5.49,5.49,0,0,0,.74.09c.46,0,.82-.17.83-.86s0-1.16,0-1.79c0-.94,0-1.91,0-2.79v-.57C564.51,342.36,564.15,342.38,563.74,342.38Zm1-2.82c0-.85,0-.87-1.32-.87-1.12,0-1.28,0-1.3.45,0,.13,0,.28,0,.42Zm0,.92H562.1c0,.16,0,.3,0,.43,0,.39,0,.44,1.54.44h1.1Z" transform="translate(-354.06 -225.6)"/><path class="cls-2" d="M569.74,349.74a1.6,1.6,0,1,1,1.6-1.59A1.59,1.59,0,0,1,569.74,349.74Zm0-2.64a1.06,1.06,0,1,0,0,2.11,1.06,1.06,0,1,0,0-2.11Z" transform="translate(-354.06 -225.6)"/></g><g class="cls-1"><path class="cls-2" d="M359.35,404.9c-2.9,0-4.45-1.34-4.45-2.14a.75.75,0,0,1,.73-.76.87.87,0,0,1,.63.35,3.27,3.27,0,0,0,2.66,1.07,9.57,9.57,0,0,0,2.38-.35,1.22,1.22,0,0,1,.32,0,.7.7,0,0,1,.76.71.94.94,0,0,1-.79.88A9.1,9.1,0,0,1,359.35,404.9Zm1-7.28a8.75,8.75,0,0,1-3.8-.9.78.78,0,0,1-.46-.71.61.61,0,0,1,.63-.65,1.08,1.08,0,0,1,.4.09,9.31,9.31,0,0,0,3.38.73.71.71,0,0,1,.73.71C361.26,397.25,361,397.62,360.38,397.62Z" transform="translate(-354.06 -225.6)"/><path class="cls-2" d="M373.82,399.54a3,3,0,0,0-3.25-2.89h0a.64.64,0,0,1,.39.59v.07c0,1.47-1.44,4-3,5.53a1.52,1.52,0,0,1-1.05.48c-1,0-1.89-1.12-1.89-2.65,0-2.53,2.49-5.11,5.64-5.11,2.83,0,4.59,1.88,4.59,4.06a4.34,4.34,0,0,1-.3,1.59c-1.24,3.1-5.05,3.54-5.24,3.54a.74.74,0,0,1-.8-.69c0-.31.24-.6.77-.7C372.22,402.94,373.82,401.37,373.82,399.54Zm-4.05-2.82a4.59,4.59,0,0,0-3.5,3.88c0,1,.7,1.18.74,1.18a.37.37,0,0,0,.26-.11c.42-.38,2.18-2.45,2.23-4.34A.71.71,0,0,1,369.77,396.72Z" transform="translate(-354.06 -225.6)"/><path class="cls-2" d="M378,400.28a.76.76,0,1,1,0-1.51h10.63a.71.71,0,0,1,.74.74.73.73,0,0,1-.74.77Z" transform="translate(-354.06 -225.6)"/><path class="cls-2" d="M392.12,405.29a.59.59,0,1,1,0-1.17h4.57v-1.26l-3.21,0a.57.57,0,1,1,0-1.14l3.2,0v-.56a.68.68,0,1,1,1.35,0v.56l3.09,0a.57.57,0,1,1,0,1.14l-3.09,0v1.26h4.49a.59.59,0,0,1,.6.62.55.55,0,0,1-.6.55Zm5.94-10.5c1.11,0,2.22,0,3.28,0a1.6,1.6,0,0,1,1.58,1.47c0,.21,0,.49,0,.74,0,.53,0,1.18-.76,1.18a.62.62,0,0,1-.67-.62v0c0-1.38,0-1.57-.87-1.59-1.11,0-2.45,0-3.74,0-1.07,0-2.1,0-3,0-.65,0-.82.23-.84.68v1a.7.7,0,0,1-1.4,0c0-.18,0-.41,0-.64s0-.51,0-.73a1.49,1.49,0,0,1,1.63-1.4q1.62,0,3.3,0v-1h0a.74.74,0,0,1,1.46,0h0Zm1.39,3.22c.53.14,2.58,1.36,2.58,2.21a.68.68,0,0,1-.65.69.72.72,0,0,1-.56-.33,4.1,4.1,0,0,0-.5-.59,52.53,52.53,0,0,1-7.26.71.63.63,0,0,1-.68-.64.55.55,0,0,1,.58-.58h.52l1.39,0c.17-.35.4-1,.56-1.44H394a.52.52,0,0,1-.52-.56.51.51,0,0,1,.52-.54h6.69a.51.51,0,0,1,.51.54.52.52,0,0,1-.51.56Zm-2.61,0a13.56,13.56,0,0,1-.63,1.37c1.05-.05,2.09-.14,3.07-.25-.49-.31-.6-.38-.6-.61a.55.55,0,0,1,.45-.51Z" transform="translate(-354.06 -225.6)"/><path class="cls-2" d="M411.11,401.32a7,7,0,0,1,0,.77.83.83,0,0,1-.75.85.59.59,0,0,1-.58-.66v-.12a8.18,8.18,0,0,0,.06-.94c-.3.15-1.6.84-1.6,1.72,0,.24.11,1.07,1.54,1.07a6.36,6.36,0,0,0,1.77-.3,1.14,1.14,0,0,1,.35,0,.68.68,0,0,1,.73.65c0,.3-.12,1-2.51,1s-3.14-1.2-3.14-2.22c0-1.71,2-2.78,2.72-3.16-.17-.54-.45-.82-.83-.82a1.39,1.39,0,0,0-.73.25c-.59.66-.94.85-1.24.85a.56.56,0,0,1-.61-.53.75.75,0,0,1,.33-.57,7.36,7.36,0,0,0,1.79-2.13,4.31,4.31,0,0,1-.69.05c-1.41,0-1.43-.78-1.43-.89a.6.6,0,0,1,.58-.62.93.93,0,0,1,.5.18.91.91,0,0,0,.52.12,5.69,5.69,0,0,0,1.11-.16,5.79,5.79,0,0,0,.25-1.1.55.55,0,0,1,.59-.49.71.71,0,0,1,.75.61,2.58,2.58,0,0,1-.08.52c.42-.21.48-.22.57-.22a.61.61,0,0,1,.61.61c0,.46-.37.74-1.82,1.09a14,14,0,0,1-.8,1.41,1.86,1.86,0,0,1,1.76,1.31,16.63,16.63,0,0,1,3.24-1.13.75.75,0,0,1,.78.73.57.57,0,0,1-.38.54c-.43.18-.89.24-1.62.46s-1.19.41-1.74.63A4.94,4.94,0,0,1,411.11,401.32Z" transform="translate(-354.06 -225.6)"/><path class="cls-2" d="M418.57,405.08l.15-6.52c-1,1.36-1.33,1.43-1.59,1.43a.63.63,0,0,1-.63-.62.72.72,0,0,1,.22-.49,12.87,12.87,0,0,0,3.1-5.11.62.62,0,0,1,.61-.47.74.74,0,0,1,.77.68,10.53,10.53,0,0,1-1.12,2.49l-.17,8.61a.64.64,0,0,1-.68.64.61.61,0,0,1-.66-.62Zm7-8.92V397c.63,0,1.23,0,1.73,0a1.3,1.3,0,0,1,1.38,1,4.93,4.93,0,0,1,0,.67c0,.32,0,.63,0,.86-.06.65-.59,1.1-1.45,1.14-.51,0-1.12.05-1.75.05a6,6,0,0,1-.68,2.25,7.45,7.45,0,0,0,4,1.15.61.61,0,0,1,.64.63.74.74,0,0,1-.83.72,8.55,8.55,0,0,1-4.53-1.53,6.62,6.62,0,0,1-3.25,1.65.67.67,0,0,1-.66-.67.62.62,0,0,1,.53-.59,4.74,4.74,0,0,0,2.42-1.2,9.21,9.21,0,0,1-.67-.77c-.67,1-1,1-1.13,1a.66.66,0,0,1-.65-.61.58.58,0,0,1,.35-.52,3.24,3.24,0,0,0,1.21-1.12.52.52,0,0,1,.45-.23.49.49,0,0,1,.53.44.23.23,0,0,1,0,.11,5.3,5.3,0,0,0,.62.76,4.74,4.74,0,0,0,.43-1.47c-.61,0-1.19,0-1.68-.05a1.21,1.21,0,0,1-1.31-1.13c0-.22,0-.49,0-.74s0-.52,0-.72A1.24,1.24,0,0,1,422.6,397l1.73,0v-.86h-2.75a.6.6,0,1,1,0-1.19h2.75l0-1v0a.61.61,0,0,1,.61-.67.65.65,0,0,1,.65.66c0,.35,0,.69,0,1h3a.6.6,0,1,1,0,1.19Zm-1.26,1.92c-.51,0-1,0-1.36,0s-.48.22-.48.76a3,3,0,0,0,0,.44c0,.35.26.4,1.86.4,0-.58,0-1.08,0-1.43Zm1.26.27c0,.43,0,.89,0,1.36,1.92,0,1.92,0,1.92-.84s0-.79-1.9-.79Z" transform="translate(-354.06 -225.6)"/><path class="cls-2" d="M435.37,403.8a2.67,2.67,0,0,1-1.67-.73,7.34,7.34,0,0,1-2-4.22c-.11-.53-.27-1.39-.27-1.5a.69.69,0,0,1,.7-.67.73.73,0,0,1,.7.66c.09.45.12.92.2,1.37.57,3.27,1.89,3.39,2,3.39s.26-.11.39-.45.22-.74.39-1.19a.55.55,0,0,1,.52-.39.76.76,0,0,1,.74.7s0,.07,0,.11c-.09.47-.37,1.38-.41,1.81A1.16,1.16,0,0,1,435.37,403.8Zm5.38-3.18a5,5,0,0,0-1.83-2.83.57.57,0,0,1-.24-.45.61.61,0,0,1,.63-.58.92.92,0,0,1,.59.24c.58.51,2.32,2.05,2.32,3.46a.76.76,0,0,1-.77.8A.7.7,0,0,1,440.75,400.62Z" transform="translate(-354.06 -225.6)"/><path class="cls-2" d="M446.36,405.44a5.38,5.38,0,0,0-1.72-1.48.61.61,0,0,1,.28-1.17c.49,0,2.73,1.23,2.73,2.18a.77.77,0,0,1-.76.77A.63.63,0,0,1,446.36,405.44Z" transform="translate(-354.06 -225.6)"/><path class="cls-2" d="M458.6,399.19a8.63,8.63,0,0,1-5.09,5.83c-1.2.47-1.79-1-.58-1.36a6.72,6.72,0,0,0,4.17-4.6,1.11,1.11,0,0,0-.1-.64l-1.36.21a6.52,6.52,0,0,1-1.13.1,10.53,10.53,0,0,1-1.71,1.94c-1,.87-1.89-.33-1-1a8.59,8.59,0,0,0,2.38-3.13,2.82,2.82,0,0,0,.28-1.31c0-1,1.5-.87,1.53.08a3.57,3.57,0,0,1-.28,1.21c-.1.26-.23.54-.38.84a3.16,3.16,0,0,0,.32,0c.77-.11,2.44-.37,3.5-.51a9.54,9.54,0,0,1,1.84-.15c.49.07.74.35.7.78a.8.8,0,0,1-.9.66,12.82,12.82,0,0,0-1.64,0l-.57.07A1.9,1.9,0,0,1,458.6,399.19Zm1.76-3.07a5.08,5.08,0,0,0-1-1c-.65-.42,0-1.15.63-.8a4.54,4.54,0,0,1,1.22,1.07C461.68,396,460.71,396.74,460.36,396.12Zm1.77-.74a4.67,4.67,0,0,0-1-1c-.66-.39,0-1.15.6-.83a4.35,4.35,0,0,1,1.25,1C463.43,395.25,462.51,396,462.13,395.38Z" transform="translate(-354.06 -225.6)"/><path class="cls-2" d="M464.1,404.4c-1,.39-1.75-.93-.55-1.33a12.11,12.11,0,0,0,6.26-5.38c.12-.23,0-.32-.12-.31-.69.07-2.29.52-2.65.6a6.12,6.12,0,0,1-1.41.24.72.72,0,1,1,0-1.44,9.72,9.72,0,0,0,1.25-.15c.5-.09,2.19-.54,3.37-.65s1.81.71,1.35,1.53a19.84,19.84,0,0,1-1.77,2.63,9.86,9.86,0,0,1,3.84,2.66.85.85,0,0,1-.13,1.16.69.69,0,0,1-1-.12,11.6,11.6,0,0,0-3.55-2.71A13.1,13.1,0,0,1,464.1,404.4Z" transform="translate(-354.06 -225.6)"/><path class="cls-2" d="M478.59,404.48a.94.94,0,0,1-.76,1.07c-.39,0-.79-.23-.77-.86.09-2.28.12-6.69.06-8.72a6,6,0,0,0-.13-1.18c-.25-1,1.36-1.19,1.49-.22a5,5,0,0,1,0,1.24c0,.56,0,1.37,0,2.31h.24a6.32,6.32,0,0,1,3.3,1.28c.66.71-.3,1.83-1,1.15a5.47,5.47,0,0,0-2.51-1.05C478.53,401.3,478.56,403.24,478.59,404.48Z" transform="translate(-354.06 -225.6)"/><path class="cls-2" d="M485.21,401.49a5.85,5.85,0,0,0,3.21-3.23.75.75,0,0,1,1.43.42c-.47,1.74-2.71,3.65-4.05,4.21A.77.77,0,1,1,485.21,401.49Zm9.74.5a9.41,9.41,0,0,0-3.21-3.22c-.77-.42-.06-1.59.91-1s3.08,2,3.71,3.46a.89.89,0,0,1-.38,1.14A.73.73,0,0,1,495,402Z" transform="translate(-354.06 -225.6)"/><path class="cls-2" d="M501.73,400.18a.83.83,0,0,1-.56,1,.69.69,0,0,1-.87-.64c-.08-.44-.12-.77-.17-1a6.66,6.66,0,0,0-.29-.95,2.73,2.73,0,0,0-.91-1.32c-.71-.6.29-1.55,1.09-.94a2.79,2.79,0,0,1,.77.91c.37-.05.73-.09,1.08-.15l.95-.15a7.4,7.4,0,0,0,0-1.52,1.45,1.45,0,0,0-.12-.42c-.59-1.13,1.44-1.75,1.57-.28,0,.21,0,.45,0,.72s0,.84,0,1.29c.72-.1,1.5-.2,2.23-.26a1.15,1.15,0,0,1,1.23,1.69c-1.39,3-2.8,5.42-6.6,7.07-1.06.46-1.85-.8-.6-1.28a9.65,9.65,0,0,0,5.44-5.57c.14-.36.08-.59-.23-.56-1.09.08-3.63.49-4.42.64A15.47,15.47,0,0,1,501.73,400.18Z" transform="translate(-354.06 -225.6)"/><path class="cls-2" d="M510.16,404.4c-1,.39-1.75-.93-.55-1.33a12.11,12.11,0,0,0,6.26-5.38c.12-.23,0-.32-.12-.31-.69.07-2.29.52-2.65.6a6.12,6.12,0,0,1-1.41.24.72.72,0,1,1,0-1.44,9.72,9.72,0,0,0,1.25-.15c.5-.09,2.2-.54,3.37-.65s1.81.71,1.35,1.53a19.84,19.84,0,0,1-1.77,2.63,9.86,9.86,0,0,1,3.84,2.66.85.85,0,0,1-.13,1.16.69.69,0,0,1-1-.12,11.6,11.6,0,0,0-3.55-2.71A13,13,0,0,1,510.16,404.4Z" transform="translate(-354.06 -225.6)"/><path class="cls-2" d="M527.45,401.32a7,7,0,0,1,0,.77.83.83,0,0,1-.75.85.59.59,0,0,1-.58-.66v-.12a6.41,6.41,0,0,0,.06-.94c-.29.15-1.6.84-1.6,1.72,0,.24.12,1.07,1.54,1.07a6.36,6.36,0,0,0,1.77-.3,1.14,1.14,0,0,1,.35,0,.68.68,0,0,1,.73.65c0,.3-.11,1-2.51,1s-3.14-1.2-3.14-2.22c0-1.71,2-2.78,2.72-3.16-.17-.54-.45-.82-.83-.82a1.33,1.33,0,0,0-.72.25c-.59.66-.94.85-1.25.85a.55.55,0,0,1-.6-.53.74.74,0,0,1,.32-.57,7.36,7.36,0,0,0,1.79-2.13,4.23,4.23,0,0,1-.69.05c-1.41,0-1.42-.78-1.42-.89a.59.59,0,0,1,.57-.62.93.93,0,0,1,.5.18.91.91,0,0,0,.52.12,5.69,5.69,0,0,0,1.11-.16,5.11,5.11,0,0,0,.25-1.1.55.55,0,0,1,.59-.49c.36,0,.76.25.76.61a2.55,2.55,0,0,1-.09.52c.42-.21.48-.22.58-.22a.61.61,0,0,1,.6.61c0,.46-.37.74-1.82,1.09a14,14,0,0,1-.8,1.41,1.86,1.86,0,0,1,1.76,1.31,16.63,16.63,0,0,1,3.24-1.13.75.75,0,0,1,.78.73.57.57,0,0,1-.37.54c-.44.18-.9.24-1.63.46s-1.19.41-1.74.63A4.94,4.94,0,0,1,527.45,401.32Z" transform="translate(-354.06 -225.6)"/><path class="cls-2" d="M537.28,396.26a1.09,1.09,0,0,1,1.2,1.2,11.39,11.39,0,0,1-.89,4.11c1.26.73,1.3,1,1.3,1.29a.62.62,0,0,1-1.09.49,6.28,6.28,0,0,0-.79-.66c-1.16,2-2.67,2.7-3.13,2.7a.7.7,0,0,1-.72-.68.55.55,0,0,1,.36-.52A5,5,0,0,0,536,402.1a7,7,0,0,0-1-.33.81.81,0,0,1-.75.56.56.56,0,0,1-.6-.58,1.09,1.09,0,0,1,.07-.32,27.37,27.37,0,0,0,1.11-4c-.28,0-.56,0-.81,0h0a.56.56,0,0,1-.58-.58.61.61,0,0,1,.58-.64h1c.14-.83.25-1.64.32-2.41a.63.63,0,0,1,.66-.57.64.64,0,0,1,.69.6c0,.27-.21,1.62-.34,2.38Zm-1.18,1.18c-.22,1.09-.49,2.2-.81,3.29a8.15,8.15,0,0,1,1.18.34,10.62,10.62,0,0,0,.71-3.38c0-.21-.13-.25-.27-.25Zm3.18,1.75a.67.67,0,0,1-.69-.69.58.58,0,0,1,.59-.61c.19,0,.41,0,.66-.05a24.73,24.73,0,0,0,1.26-3.9.62.62,0,0,1,.65-.49.73.73,0,0,1,.78.65,20.17,20.17,0,0,1-1.29,3.63l2.43-.24a7.4,7.4,0,0,0-.61-.77.54.54,0,0,1-.15-.38.61.61,0,0,1,.63-.56.66.66,0,0,1,.46.2,6.79,6.79,0,0,1,1.84,2.68.76.76,0,0,1-.77.7.65.65,0,0,1-.62-.44,2.48,2.48,0,0,0-.17-.38C542.5,398.85,539.45,399.19,539.28,399.19Zm2.92,6.19c-1.71,0-2.85,0-2.9-1.37,0-.31,0-.65,0-1,0-.57,0-1.15,0-1.58a1.33,1.33,0,0,1,1.39-1.29l1.29,0c.53,0,1,0,1.48,0a1.39,1.39,0,0,1,1.44,1.23c0,.52,0,1.26,0,1.89C545,404.82,544.91,405.38,542.2,405.38Zm1.42-2.75c0-.35,0-.71,0-.95,0-.47-.31-.47-1.52-.47h-.94c-.37,0-.53.22-.54.46s0,.62,0,1,0,.75,0,1c0,.52.52.52,1.53.52s1.44,0,1.47-.61C543.61,403.33,543.62,403,543.62,402.63Z" transform="translate(-354.06 -225.6)"/><path class="cls-2" d="M552.93,399.75a.56.56,0,0,1,.35.52.58.58,0,0,1-.61.6,1.22,1.22,0,0,1-.55-.16C551,402,549.77,403,548.83,403c-.66,0-1-.52-1-1.47a4.57,4.57,0,0,1,1.88-3.36,11.85,11.85,0,0,1-.94-3,.59.59,0,0,1,.6-.63.74.74,0,0,1,.74.7,5.58,5.58,0,0,0,.19,1.12,6.62,6.62,0,0,0,.37,1.14,6.07,6.07,0,0,1,2.58-.78,3.22,3.22,0,0,0,.07-.64,2.72,2.72,0,0,0-.08-.63,1.17,1.17,0,0,1-.06-.35.61.61,0,0,1,.65-.64c.7,0,.85.58.85,1.31a4.14,4.14,0,0,1-.13,1,3.23,3.23,0,0,1,2.88,3.3c0,3.51-4.78,4.77-5.86,4.77a.72.72,0,0,1-.8-.63c0-.26.23-.54.76-.61,2.55-.37,4.52-1.88,4.52-3.59a2.25,2.25,0,0,0-1.83-2.24A9.93,9.93,0,0,1,552.93,399.75Zm-2.72-.63a3.51,3.51,0,0,0-1.23,2.23c0,.14,0,.29.18.29s.51,0,1.91-1.58A5.52,5.52,0,0,1,550.21,399.12Zm.94-.72a4.58,4.58,0,0,0,.73.73,9.4,9.4,0,0,0,.91-1.31,4.75,4.75,0,0,0-1.61.57Z" transform="translate(-354.06 -225.6)"/><path class="cls-2" d="M564.23,397.07a67,67,0,0,1-3.25,7.36.72.72,0,0,1-.67.39.67.67,0,0,1-.73-.6.81.81,0,0,1,.11-.4,42.91,42.91,0,0,0,3-6.33l-.15.05a4.59,4.59,0,0,1-1.19.18c-.14,0-1.24,0-1.24-.76a.66.66,0,0,1,.62-.71.78.78,0,0,1,.42.11.83.83,0,0,0,.36.08,6,6,0,0,0,1.64-.39,5.29,5.29,0,0,0,.1-1.12.71.71,0,0,1,.77-.66.6.6,0,0,1,.66.51,1.69,1.69,0,0,1,0,.23,2.53,2.53,0,0,1,0,.27,1,1,0,0,1,.18,0,.66.66,0,0,1,.66.65c0,.36-.25.61-1.29,1.07ZM568.5,405c-2.29,0-3.81-1.22-3.81-1.93a.74.74,0,0,1,.69-.75.67.67,0,0,1,.54.31c.54.72,1,.81,2.82.94a.69.69,0,0,1,.71.7C569.45,405,568.73,405,568.5,405Zm.81-5.27a7.87,7.87,0,0,0-2.48-.64,1.78,1.78,0,0,0-.47.05l-.15,0a.55.55,0,0,1-.54-.57c0-.23.07-.74,1.32-.74a7.93,7.93,0,0,1,2.84.63.64.64,0,0,1,.45.61.69.69,0,0,1-.67.69A.8.8,0,0,1,569.31,399.69Z" transform="translate(-354.06 -225.6)"/><path class="cls-2" d="M573.66,405.74a1.6,1.6,0,1,1,1.6-1.59A1.59,1.59,0,0,1,573.66,405.74Zm0-2.64a1.06,1.06,0,1,0,0,2.11,1.06,1.06,0,1,0,0-2.11Z" transform="translate(-354.06 -225.6)"/></g><g class="cls-1"><path class="cls-2" d="M364,426.57c0,.88,0,1.68,0,2.2,0,1.26-1,1.33-2.22,1.33s-2.16-.07-2.17-1.31c0-.54,0-1.34,0-2.22h-1.82c0,.63,0,1.28,0,1.85,0,1,0,1.91,0,2.44,0,.82.47.85,3.51.85,1.22,0,2.54,0,3.63-.07h0a.58.58,0,0,1,.59.62.64.64,0,0,1-.63.67c-1.08.06-2.31.07-3.47.07s-2.13,0-2.94-.05c-1.24-.06-2.13-.55-2.16-1.91,0-.46,0-1,0-1.67,0-.87,0-1.83,0-2.8l-1.61,0a.6.6,0,0,1-.67-.59.64.64,0,0,1,.67-.66h1.61c0-1,0-1.9,0-2.6a.63.63,0,0,1,.71-.6c.35,0,.72.19.72.58v0c0,.68,0,1.61-.05,2.6h1.81c0-1.17,0-2.34,0-3.05a.63.63,0,0,1,.68-.58.59.59,0,0,1,.65.57h0c0,.66,0,1.86,0,3.05h1.79c0-1.08,0-2.17,0-2.88a.6.6,0,0,1,.66-.6.61.61,0,0,1,.67.6c0,.73,0,1.8,0,2.88h2a.63.63,0,0,1,.65.64.6.6,0,0,1-.65.61Zm-3.1,0c0,.79,0,1.47,0,1.91s.23.47.82.47.88-.08.91-.47,0-1.11,0-1.91Z" transform="translate(-354.06 -225.6)"/><path class="cls-2" d="M375.19,429a.62.62,0,0,1,.67-.61H376a18.34,18.34,0,0,1-1.59-1.48,13.58,13.58,0,0,1-1.56,1.49.62.62,0,0,1,.59.64c0,1.63-.69,4.06-4.27,4.66H369a.64.64,0,0,1-.64-.67.56.56,0,0,1,.45-.59c2.45-.33,3.19-1.69,3.25-3.4v0a12.62,12.62,0,0,1-3.26,1.79.65.65,0,0,1-.67-.64.62.62,0,0,1,.43-.59,14.4,14.4,0,0,0,4.29-2.68c-.4,0-.79,0-1.1,0-.56,0-1.87,0-1.91-1.31,0-.43,0-.92,0-1.41s0-.94,0-1.32c0-.6.42-1.23,1.51-1.26.59,0,1.54,0,2.58,0,1.24,0,2.59,0,3.48,0a1.41,1.41,0,0,1,1.45,1.16c0,.34,0,.8,0,1.28s0,1.12,0,1.54a1.45,1.45,0,0,1-1.53,1.32H377c-.32,0-.69,0-1.05,0a16.22,16.22,0,0,0,4.3,2.45.62.62,0,0,1,.42.59.78.78,0,0,1-.78.76,10.55,10.55,0,0,1-3.35-1.89.9.9,0,0,1,0,.19v4a.67.67,0,0,1-1.34,0Zm-1.49-6.38-1.95,0c-.68,0-.71.51-.71,1.08h2.66Zm0,2.11H371c0,.73.06,1.11.73,1.14l1.93,0Zm3.9-1c0-.19,0-.36,0-.52,0-.35-.21-.54-.68-.56l-1.95,0v1.1Zm-2.65,1v1.16l2,0c.69,0,.69-.49.69-1.14Z" transform="translate(-354.06 -225.6)"/><path class="cls-2" d="M388.15,429.32a7,7,0,0,1,0,.77.83.83,0,0,1-.75.85.59.59,0,0,1-.58-.66v-.12a8.18,8.18,0,0,0,.06-.94c-.3.15-1.6.84-1.6,1.72,0,.24.11,1.07,1.54,1.07a6.36,6.36,0,0,0,1.77-.3,1.14,1.14,0,0,1,.35,0,.68.68,0,0,1,.73.65c0,.3-.12,1-2.51,1s-3.14-1.2-3.14-2.22c0-1.71,2-2.78,2.72-3.16-.17-.54-.45-.82-.83-.82a1.39,1.39,0,0,0-.73.25c-.59.66-.94.85-1.24.85a.56.56,0,0,1-.61-.53.75.75,0,0,1,.33-.57,7.36,7.36,0,0,0,1.79-2.13,4.31,4.31,0,0,1-.69.05c-1.41,0-1.43-.78-1.43-.89a.6.6,0,0,1,.58-.62.93.93,0,0,1,.5.18.91.91,0,0,0,.52.12,5.69,5.69,0,0,0,1.11-.16,5.79,5.79,0,0,0,.25-1.1.55.55,0,0,1,.59-.49.71.71,0,0,1,.75.61,2.58,2.58,0,0,1-.08.52c.42-.21.48-.22.57-.22a.61.61,0,0,1,.61.61c0,.46-.37.74-1.82,1.09a14,14,0,0,1-.8,1.41,1.86,1.86,0,0,1,1.76,1.31,16.63,16.63,0,0,1,3.24-1.13.75.75,0,0,1,.78.73.57.57,0,0,1-.38.54c-.43.18-.89.24-1.62.46s-1.19.41-1.74.63A4.94,4.94,0,0,1,388.15,429.32Z" transform="translate(-354.06 -225.6)"/><path class="cls-2" d="M398.79,424.68l-1.77,0c0,.42,0,.87-.07,1.3h.8c.55,0,1.42,0,1.42,1.22a16.14,16.14,0,0,1-.39,4.35,2,2,0,0,1-1.87,1.67c-.39,0-1.22-.11-1.22-.8a.55.55,0,0,1,.51-.6.63.63,0,0,1,.26.05,1,1,0,0,0,.41.1c.71,0,1-1.08,1.07-4.44,0-.45-.27-.45-1.06-.45a11.45,11.45,0,0,1-1.94,6.08.67.67,0,0,1-.52.27.69.69,0,0,1-.7-.63.55.55,0,0,1,.12-.35c1.67-2.17,1.83-5,1.94-7.75l-1,0h0a.58.58,0,0,1-.65-.57.63.63,0,0,1,.65-.65h0l1.4,0v-1.56a.63.63,0,0,1,.68-.64.64.64,0,0,1,.69.64v1.56l1.3,0h0a.58.58,0,0,1,.61.6.6.6,0,0,1-.61.62Zm2.25-.42a14.67,14.67,0,0,1-1,1.47.72.72,0,0,1-.59.32.64.64,0,0,1-.67-.59A.71.71,0,0,1,399,425a11.15,11.15,0,0,0,1.79-3.29.59.59,0,0,1,.59-.4.63.63,0,0,1,.67.6,5.51,5.51,0,0,1-.4,1.12l3.79,0h0a.57.57,0,0,1,.59.6.59.59,0,0,1-.61.62Zm-.56,3-.65.14a.59.59,0,0,1-.55-.63.53.53,0,0,1,.39-.55,18.68,18.68,0,0,0,4.64-1.57.59.59,0,0,1,.28-.06.64.64,0,0,1,.6.65c0,.44-.2.54-1.75,1.11a12.56,12.56,0,0,0,.18,1.67,12.79,12.79,0,0,0,1.56-1,.54.54,0,0,1,.32-.11.72.72,0,0,1,.67.69c0,.29-.12.63-2.3,1.44a5.34,5.34,0,0,0,2.12,3,.68.68,0,0,1,.32.55.78.78,0,0,1-.74.78c-.8,0-3-2.39-3.22-6.62l-.62.2,0,6a.65.65,0,0,1-1.3,0Z" transform="translate(-354.06 -225.6)"/><path class="cls-2" d="M414.05,430.52a2.2,2.2,0,0,1-2-2.27,1.56,1.56,0,0,1,1.61-1.65,2.8,2.8,0,0,1,.64.08c0-.46-.07-.88-.1-1.27a19.5,19.5,0,0,0-5.14,1.11,1.47,1.47,0,0,1-.26.05.69.69,0,0,1-.68-.7.79.79,0,0,1,.66-.75,31.83,31.83,0,0,1,5.37-1v-.45c0-1.23,0-1.89.77-1.89a.73.73,0,0,1,.77.66.3.3,0,0,1,0,.13,10.86,10.86,0,0,0-.18,1.44c1.12-.07,2.26-.1,3.39-.1.59,0,.88.35.88.7a.74.74,0,0,1-.82.7h-.07c-.69,0-1.39-.05-2.09-.05-.43,0-.87,0-1.3,0,0,.95.08,1.83.1,2a2.31,2.31,0,0,1,.74,1.67,2.8,2.8,0,0,1-.45,1.41,6.88,6.88,0,0,1-4.85,3.17.7.7,0,0,1-.77-.67c0-.28.2-.58.67-.67a5.73,5.73,0,0,0,3.3-1.73Zm-.24-2.79a.6.6,0,0,0-.63.63,1,1,0,0,0,.88,1,.62.62,0,0,0,.61-.6c0-.05,0-.08,0-.12a1.67,1.67,0,0,0-.1-.46A.89.89,0,0,0,413.81,427.73Z" transform="translate(-354.06 -225.6)"/><path class="cls-2" d="M428.26,429.33c0-1.47-1.78-1.47-1.9-1.47a4.59,4.59,0,0,0-3.35,1.86.7.7,0,0,1-.56.28.72.72,0,0,1-.74-.67.79.79,0,0,1,.28-.57,37.59,37.59,0,0,0,4.06-4.64,0,0,0,0,0,0,0l-.1,0a7.26,7.26,0,0,1-2.8,1,.69.69,0,0,1-.73-.69.6.6,0,0,1,.59-.61,13.29,13.29,0,0,0,3.54-1,1.2,1.2,0,0,1,.51-.11.88.88,0,0,1,.92.83,1,1,0,0,1-.32.68c-.95.91-2,2.11-2.92,3.09a3.64,3.64,0,0,1,2-.56,2.7,2.7,0,0,1,3,2.46c0,1.88-1.93,3.67-4.35,3.67-1.68,0-2.57-1-2.57-1.79a1.44,1.44,0,0,1,1.57-1.32,2,2,0,0,1,2.19,1.75A2.75,2.75,0,0,0,428.26,429.33Zm-3.82,1.5c-.48,0-.49.31-.49.36,0,.55.95.62,1.3.62h.1C425.31,431.21,425,430.83,424.44,430.83Z" transform="translate(-354.06 -225.6)"/><path class="cls-2" d="M438.66,424.39s0,.07,0,.11a8.87,8.87,0,0,0,5.12,7.28.72.72,0,0,1,.55.69.89.89,0,0,1-.92.85c-1.2,0-4.15-2.55-5.37-5.74a9.42,9.42,0,0,1-5,5.83.91.91,0,0,1-.41.1.81.81,0,0,1-.81-.77.76.76,0,0,1,.52-.69c4.77-2.13,4.9-7.05,4.9-8.1,0-.42,0-.89-.06-1.31v-.05a.78.78,0,0,1,1.56.05c0,.49,0,1.09-.06,1.69Z" transform="translate(-354.06 -225.6)"/><path class="cls-2" d="M447.9,433.44a5.38,5.38,0,0,0-1.72-1.48.61.61,0,0,1,.28-1.17c.49,0,2.73,1.23,2.73,2.18a.77.77,0,0,1-.76.77A.63.63,0,0,1,447.9,433.44Z" transform="translate(-354.06 -225.6)"/></g><g class="cls-1"><path class="cls-2" d="M359,453.07a67,67,0,0,1-3.25,7.36.72.72,0,0,1-.67.39.67.67,0,0,1-.73-.6.81.81,0,0,1,.11-.4,44,44,0,0,0,3-6.33l-.16.05a4.53,4.53,0,0,1-1.19.18c-.14,0-1.23,0-1.23-.76a.66.66,0,0,1,.62-.71.82.82,0,0,1,.42.11.83.83,0,0,0,.36.08,6.16,6.16,0,0,0,1.64-.39,5.29,5.29,0,0,0,.1-1.12.71.71,0,0,1,.77-.66.6.6,0,0,1,.66.51,1.69,1.69,0,0,1,0,.23,2.53,2.53,0,0,1,0,.27.84.84,0,0,1,.18,0,.66.66,0,0,1,.66.65c0,.36-.25.61-1.29,1.07Zm4.27,7.89c-2.3,0-3.81-1.22-3.81-1.93a.74.74,0,0,1,.69-.75.69.69,0,0,1,.54.31c.53.72,1,.81,2.82.94a.69.69,0,0,1,.71.7C364.21,461,363.48,461,363.26,461Zm.81-5.27a7.94,7.94,0,0,0-2.48-.64,1.74,1.74,0,0,0-.47.05l-.16,0a.55.55,0,0,1-.53-.57c0-.23.07-.74,1.32-.74a8,8,0,0,1,2.84.63.64.64,0,0,1,.45.61.69.69,0,0,1-.67.69A.8.8,0,0,1,364.07,455.69Z" transform="translate(-354.06 -225.6)"/><path class="cls-2" d="M372,461.53a.7.7,0,0,1-.66-.46,19.65,19.65,0,0,0-2.82-4.41,2.53,2.53,0,0,1-.66-1.47,2.12,2.12,0,0,1,.55-1.3,34,34,0,0,0,2.62-3.69.66.66,0,0,1,.59-.36.9.9,0,0,1,.88.82.81.81,0,0,1-.12.41c-.57.9-2.13,2.65-2.88,3.54a.83.83,0,0,0-.22.52,1.19,1.19,0,0,0,.34.72c1.42,1.85,2.53,2.9,3.17,4.49a1,1,0,0,1,.08.35A.88.88,0,0,1,372,461.53Z" transform="translate(-354.06 -225.6)"/><path class="cls-2" d="M380.53,452.72a4.48,4.48,0,0,1-.68-1.58.6.6,0,0,1,.64-.6.85.85,0,0,1,.81.67,7.15,7.15,0,0,0,.51,1.19l.63-.22a1.09,1.09,0,0,1,.41-.09.63.63,0,0,1,.65.65c0,.53-.37.64-1.06.84,1.22,2.17,1.92,3.46,1.92,4.34,0,.56-.28.78-.62.78a1.12,1.12,0,0,1-.73-.29,7,7,0,0,0-3.23-.76c-1.12,0-1.68.55-1.68.94,0,.62,1.2,1,2.45,1l.67,0h.13c.54,0,.81.32.81.67a.83.83,0,0,1-.91.8c-2.86,0-4.54-1.11-4.54-2.37,0-.68.74-2.22,3.18-2.22a17.36,17.36,0,0,1,2.59.31h.13s0,0,0,0,0-.56-1.44-2.9a10.26,10.26,0,0,1-1.56.23c-1.62,0-3-1.39-3-2a.62.62,0,0,1,.67-.58.87.87,0,0,1,.66.3,2.39,2.39,0,0,0,1.81,1h.26Z" transform="translate(-354.06 -225.6)"/><path class="cls-2" d="M392.5,460.68c-.7,0-1.9-.21-1.9-1.49a2.73,2.73,0,0,1,.11-.7,3.82,3.82,0,0,0,.24-1.09c0-.32-.11-.43-.31-.43a3.54,3.54,0,0,0-2.45,2.53c-.35,1.08-.71,1.18-1.09,1.18a.64.64,0,0,1-.69-.63,1.12,1.12,0,0,1,.13-.48,44.31,44.31,0,0,1,2.34-4.14c.78-1.25,1.41-2.44,2-3.52.23-.39.58-.9.72-1.16a.65.65,0,0,1,.6-.38.8.8,0,0,1,.8.76c0,.28-.14.56-.76,1.31a20.88,20.88,0,0,0-1.55,2.15c-.42.65-.76,1.24-1.07,1.69,0,0,0,.06,0,.07h0l.07-.06a2.3,2.3,0,0,1,1.26-.37c.66,0,1.29.3,1.29,1.41v.14a5.26,5.26,0,0,1-.26,1.09.75.75,0,0,0,0,.2c0,.39.31.57.75.57,1.36,0,3-1.48,3.46-3.37a.74.74,0,0,1,.75-.63.75.75,0,0,1,.78.73.87.87,0,0,1,0,.26C396.34,460.15,393.61,460.68,392.5,460.68Z" transform="translate(-354.06 -225.6)"/><path class="cls-2" d="M408.82,455.54a3,3,0,0,0-3.25-2.89h0a.64.64,0,0,1,.39.59v.07c0,1.47-1.44,4-3,5.53a1.52,1.52,0,0,1-1.05.48c-1,0-1.89-1.12-1.89-2.65,0-2.53,2.49-5.11,5.64-5.11,2.83,0,4.6,1.88,4.6,4.06a4.36,4.36,0,0,1-.31,1.59c-1.24,3.1-5.05,3.54-5.24,3.54a.74.74,0,0,1-.8-.69c0-.31.24-.6.77-.7C407.22,458.94,408.82,457.37,408.82,455.54Zm-4.05-2.82a4.59,4.59,0,0,0-3.5,3.88c0,1,.7,1.18.74,1.18a.37.37,0,0,0,.26-.11c.43-.38,2.18-2.45,2.23-4.34A.71.71,0,0,1,404.77,452.72Z" transform="translate(-354.06 -225.6)"/><path class="cls-2" d="M414.41,457.36a6.15,6.15,0,0,1-1.69.56.64.64,0,0,1-.66-.66.61.61,0,0,1,.46-.6c.69-.21,1.32-.41,1.91-.62v-2.63l-.75,0c-.35,1.94-.6,2.21-1.16,2.21a.53.53,0,0,1-.59-.48.82.82,0,0,1,.07-.28,10.28,10.28,0,0,0,.73-3.86c0-.35.31-.52.63-.52a.56.56,0,0,1,.63.52c0,.25-.11,1.1-.11,1.15h.56v-2.33a.67.67,0,0,1,1.34,0v2.33h.56a.62.62,0,0,1,0,1.23h-.58v2.11c.3-.12.6-.26.87-.4a.53.53,0,0,1,.23-.06.55.55,0,0,1,.52.58.63.63,0,0,1-.39.57c-.36.2-.78.38-1.23.59l0,4.31a.67.67,0,0,1-1.34,0Zm6-4.55a8.9,8.9,0,0,1-3,5.46,1,1,0,0,1-.57.22.62.62,0,0,1-.65-.58.73.73,0,0,1,.34-.58,6.71,6.71,0,0,0,2.65-4.52h-.59c-.8,1.7-1,1.86-1.46,1.86a.59.59,0,0,1-.64-.53.66.66,0,0,1,.14-.38,12.47,12.47,0,0,0,1.76-4.09.56.56,0,0,1,.59-.43.65.65,0,0,1,.7.59,10.56,10.56,0,0,1-.62,1.85c.66,0,1.64,0,2.5,0h1a1.45,1.45,0,0,1,1.54,1.51c0,.58,0,1.27,0,2,0,3.1-.43,6.27-3.28,6.27a4.81,4.81,0,0,1-1.14-.16.67.67,0,0,1-.51-.67.58.58,0,0,1,.59-.62l.19,0a4,4,0,0,0,.85.13c.58,0,2-.07,2-5.07,0-1.94,0-2.15-.42-2.25-.24,2.6-1.11,6.13-4.4,8a.9.9,0,0,1-.46.14.65.65,0,0,1-.66-.67.55.55,0,0,1,.28-.49,8.39,8.39,0,0,0,4-7Z" transform="translate(-354.06 -225.6)"/><path class="cls-2" d="M426.83,452.71a.56.56,0,0,1-.64-.56.61.61,0,0,1,.64-.62h4a.59.59,0,1,1,0,1.18Zm3,8.57c-.29,0-.71,0-1.12,0s-.8,0-1.08,0a1.09,1.09,0,0,1-1.08-1.11c0-.3,0-.6,0-.91s0-.81,0-1.16a1,1,0,0,1,1.05-1.06c.33,0,.69,0,1.05,0s.89,0,1.22,0a1.15,1.15,0,0,1,1.17,1c0,.32,0,.7,0,1.08s0,.74,0,1.05A1.16,1.16,0,0,1,429.84,461.28Zm-2.55-10.49a.55.55,0,0,1-.61-.55.6.6,0,0,1,.61-.6h2.92a.58.58,0,1,1,0,1.15Zm0,3.74a.56.56,0,0,1-.62-.55.61.61,0,0,1,.62-.6h2.91a.58.58,0,1,1,0,1.15Zm0,1.81a.56.56,0,0,1-.62-.55.61.61,0,0,1,.62-.6h2.91a.55.55,0,0,1,.59.57.56.56,0,0,1-.59.58Zm2.51,2.81c0-.25,0-.5,0-.7,0-.36-.33-.38-1.05-.38-.19,0-.39,0-.6,0-.41,0-.41.26-.41,1.05,0,.25,0,.5,0,.71s.28.34,1,.34,1-.09,1.05-.35S429.83,459.39,429.83,459.15Zm1.94-3.15a.56.56,0,0,1-.6-.56.57.57,0,0,1,.6-.57h1.46c.13-.49.25-1.11.38-1.71h-1a.52.52,0,0,1-.57-.54.59.59,0,0,1,.6-.59h1.22c.08-.41.15-.77.19-1h-1.75a.56.56,0,0,1-.63-.53.59.59,0,0,1,.63-.59h5.24a.56.56,0,1,1,0,1.12h-2.21c-.06.28-.13.63-.21,1h1c.9,0,1.32.42,1.32,1.32,0,.45,0,1,0,1.5h.77a.57.57,0,1,1,0,1.13Zm4.7,5.34c-.38,0-.87,0-1.36,0-1.82,0-2.9,0-3-1.33,0-.28,0-.58,0-.88s0-.75,0-1.07a1.3,1.3,0,0,1,1.34-1.25l1.37,0,1.59,0a1.4,1.4,0,0,1,1.4,1.24c0,.36,0,.78,0,1.19,0,.25,0,.5,0,.74A1.36,1.36,0,0,1,436.47,461.34Zm.08-2.4c0-.82-.06-1-.53-1-.28,0-.66,0-1,0s-.74,0-1,0c-.53,0-.54.25-.54,1.3,0,.21,0,.42,0,.57,0,.47.59.47,1.56.47,1.21,0,1.51-.09,1.54-.47S436.55,459.24,436.55,458.94Zm-.43-4.07c0-.38,0-.77,0-1.1s-.08-.6-.43-.6h-.84c-.14.6-.27,1.22-.39,1.71Z" transform="translate(-354.06 -225.6)"/><path class="cls-2" d="M446.11,457.32a7,7,0,0,1,0,.77.83.83,0,0,1-.75.85.59.59,0,0,1-.58-.66v-.12a8.18,8.18,0,0,0,.06-.94c-.3.15-1.6.84-1.6,1.72,0,.24.11,1.07,1.54,1.07a6.36,6.36,0,0,0,1.77-.3,1.14,1.14,0,0,1,.35,0,.68.68,0,0,1,.73.65c0,.3-.12,1-2.51,1s-3.14-1.2-3.14-2.22c0-1.71,2-2.78,2.72-3.16-.17-.54-.45-.82-.83-.82a1.39,1.39,0,0,0-.73.25c-.58.66-.93.85-1.24.85a.56.56,0,0,1-.61-.53.75.75,0,0,1,.33-.57,7.36,7.36,0,0,0,1.79-2.13,4.31,4.31,0,0,1-.69.05c-1.41,0-1.43-.78-1.43-.89a.6.6,0,0,1,.58-.62.93.93,0,0,1,.5.18.91.91,0,0,0,.52.12,5.69,5.69,0,0,0,1.11-.16,5.79,5.79,0,0,0,.25-1.1.55.55,0,0,1,.59-.49.71.71,0,0,1,.75.61,2.58,2.58,0,0,1-.08.52c.42-.21.48-.22.58-.22a.61.61,0,0,1,.6.61c0,.46-.37.74-1.82,1.09a14,14,0,0,1-.8,1.41,1.86,1.86,0,0,1,1.76,1.31,16.63,16.63,0,0,1,3.24-1.13.75.75,0,0,1,.78.73.57.57,0,0,1-.37.54c-.44.18-.9.24-1.63.46s-1.19.41-1.74.63A4.94,4.94,0,0,1,446.11,457.32Z" transform="translate(-354.06 -225.6)"/><path class="cls-2" d="M453.92,456.91a6.18,6.18,0,0,1-1.47.42.66.66,0,0,1-.69-.67.63.63,0,0,1,.49-.62c.55-.14,1.11-.31,1.67-.47v-2.2h-1.33a.62.62,0,0,1,0-1.24h1.33v-2.24a.64.64,0,0,1,.67-.66.63.63,0,0,1,.66.66v2.24h1a.62.62,0,0,1,0,1.24h-1v1.76c.36-.14.71-.28,1-.42a.51.51,0,0,1,.2,0,.58.58,0,0,1,.51.62c0,.42-.19.5-1.75,1.13V458c0,.22,0,1.5.06,2V460c0,.89-.58,1.57-1.79,1.57-.75,0-1.26-.12-1.26-.76a.58.58,0,0,1,.54-.64h.13a2,2,0,0,0,.45.06c.29,0,.57-.1.57-.46Zm3.1-2.32a.58.58,0,0,1-.62-.58.57.57,0,0,1,.62-.57h2.52v-1.23h-1.89a.57.57,0,1,1,0-1.14h1.87v-1.21a.68.68,0,0,1,1.35,0v1.21H463a.57.57,0,1,1,0,1.14h-2.15v1.23h2.9a.55.55,0,0,1,.59.57.56.56,0,0,1-.59.58Zm5.29,2.36v.91l.06,2v.05c0,.77-.6,1.76-2.27,1.76-.56,0-1.51,0-1.51-.75a.62.62,0,0,1,.61-.66h.14a4.16,4.16,0,0,0,.82.1c.49,0,.85-.17.85-.76V457l-4,0a.58.58,0,0,1-.62-.58.57.57,0,0,1,.62-.57h4l0-.53a.66.66,0,0,1,1.31,0v.53h1.53a.56.56,0,0,1,.59.57.57.57,0,0,1-.59.58ZM459,459.39a3.77,3.77,0,0,0-1.16-1,.48.48,0,0,1-.29-.43.62.62,0,0,1,.64-.59c.36,0,1.93.81,1.93,1.54a.71.71,0,0,1-.64.73A.62.62,0,0,1,459,459.39Z" transform="translate(-354.06 -225.6)"/><path class="cls-2" d="M470,460.47a.78.78,0,0,1-.84-.76.71.71,0,0,1,.7-.68c2.64-.38,5.73-1.78,5.73-3.66a1.91,1.91,0,0,0-2.05-1.76,5.66,5.66,0,0,0-1.76.37c-1.34.47-3,1.47-4.45,2.13a.91.91,0,0,1-.46.11.75.75,0,0,1-.78-.74.77.77,0,0,1,.54-.71c1.35-.53,3.56-1.67,5-2.06a8,8,0,0,1,2.12-.35,3.23,3.23,0,0,1,3.42,3.08,4,4,0,0,1-1.87,3A13,13,0,0,1,470,460.47Z" transform="translate(-354.06 -225.6)"/><path class="cls-2" d="M485.84,452.39s0,.07,0,.11a8.87,8.87,0,0,0,5.12,7.28.72.72,0,0,1,.55.69.89.89,0,0,1-.92.85c-1.19,0-4.15-2.55-5.37-5.74a9.42,9.42,0,0,1-5,5.83.91.91,0,0,1-.41.1.81.81,0,0,1-.81-.77.76.76,0,0,1,.52-.69c4.77-2.13,4.9-7.05,4.9-8.1,0-.42,0-.89-.06-1.31v-.05a.78.78,0,0,1,1.56.05c0,.49,0,1.09-.06,1.69Z" transform="translate(-354.06 -225.6)"/><path class="cls-2" d="M495.08,461.44a5.38,5.38,0,0,0-1.72-1.48.61.61,0,0,1,.28-1.17c.49,0,2.73,1.23,2.73,2.18a.77.77,0,0,1-.76.77A.63.63,0,0,1,495.08,461.44Z" transform="translate(-354.06 -225.6)"/></g><g class="cls-1"><path class="cls-2" d="M355.29,489.35a.68.68,0,0,1-.7-.68.67.67,0,0,1,.5-.65,8.16,8.16,0,0,0,2.57-1.37.57.57,0,0,1,.36-.14.69.69,0,0,1,.65.67.66.66,0,0,1-.23.46A8.37,8.37,0,0,1,355.29,489.35Zm10.27-4.41a.58.58,0,0,1,.63.59.61.61,0,0,1-.65.61c-1,0-2.74,0-4.49,0l0,3h0a.71.71,0,0,1-1.4,0h0l0-3c-1.18,0-2.24,0-2.86,0a1.6,1.6,0,0,1-1.78-1.71c0-.63,0-1.33,0-2.06,0-1,0-2.09,0-3.07a.63.63,0,0,1,.69-.61.64.64,0,0,1,.71.59v0c0,.94,0,2.16,0,3.25,0,2.09,0,2.36.86,2.4s2.25,0,3.76,0c1.75,0,3.57,0,4.45,0Zm-4.47-7.34c.73,0,1.45,0,1.86,0,.93,0,1.46.56,1.49,1.16s0,1.37,0,2.12,0,1.45,0,2a1.42,1.42,0,0,1-1.49,1.25c-.39,0-1,0-1.67,0s-1.61,0-2,0c-1,0-1.43-.55-1.46-1.23s0-1.32,0-2.05,0-1.47,0-2.13.42-1.13,1.47-1.17C359.65,477.6,360.36,477.6,361.09,477.6Zm2.07,2.86H359v.85h4.14Zm0-1c0-.13,0-.26,0-.37,0-.32-.14-.47-.52-.49s-1,0-1.59,0-1.19,0-1.44,0a.51.51,0,0,0-.54.51c0,.11,0,.23,0,.35ZM359,482.29v.45c0,.5.33.52,1.77.52,2.2,0,2.29,0,2.32-.53,0-.14,0-.28,0-.44Zm5.8,6.7a6.91,6.91,0,0,0-2.2-1.31.57.57,0,0,1-.46-.53.65.65,0,0,1,.68-.61c.34,0,3.14.92,3.14,1.94a.71.71,0,0,1-.66.73A.75.75,0,0,1,364.83,489Z" transform="translate(-354.06 -225.6)"/><path class="cls-2" d="M375.82,483.54a13.31,13.31,0,0,1-1.56-1.46h0a12.58,12.58,0,0,1-4.44,7.27,1,1,0,0,1-.6.21.71.71,0,0,1-.76-.67.76.76,0,0,1,.39-.61,9.38,9.38,0,0,0,3.38-4.07,6.13,6.13,0,0,0-1.31-.55.5.5,0,0,1-.4-.5.79.79,0,0,1,.75-.77,4.25,4.25,0,0,1,1.43.57,10.11,10.11,0,0,0,.48-2.35c0-.26-.09-.37-.35-.37h0l-1.25,0a17.84,17.84,0,0,1-2.11,4,.88.88,0,0,1-.71.39A.65.65,0,0,1,368,484a.77.77,0,0,1,.18-.45,13.22,13.22,0,0,0,2.6-5.53.7.7,0,0,1,.68-.59.66.66,0,0,1,.69.65,5.94,5.94,0,0,1-.25,1c.53,0,1.06,0,1.29,0,.77,0,1.34.37,1.34,1.19a7.5,7.5,0,0,1-.13.87.51.51,0,0,1,.23-.07.47.47,0,0,1,.32.16c.28.29.56.54.83.78l-.05-3.78h0a.61.61,0,0,1,.68-.59.64.64,0,0,1,.7.6l0,4.76a19,19,0,0,0,3.09,1.54.65.65,0,0,1,.43.62.75.75,0,0,1-.74.76,10.22,10.22,0,0,1-2.78-1.42l0,4.51c0,.38-.35.56-.69.56s-.69-.18-.69-.56Z" transform="translate(-354.06 -225.6)"/><path class="cls-2" d="M391.46,483.54a3,3,0,0,0-3.25-2.89h0a.64.64,0,0,1,.39.59v.07c0,1.47-1.44,4-3,5.53a1.52,1.52,0,0,1-1,.48c-1,0-1.89-1.12-1.89-2.65,0-2.53,2.49-5.11,5.64-5.11,2.83,0,4.59,1.88,4.59,4.06a4.34,4.34,0,0,1-.3,1.59c-1.24,3.1-5.05,3.54-5.24,3.54a.74.74,0,0,1-.8-.69c0-.31.24-.6.77-.7C389.86,486.94,391.46,485.37,391.46,483.54Zm-4-2.82a4.59,4.59,0,0,0-3.5,3.88c0,1,.7,1.18.74,1.18a.37.37,0,0,0,.26-.11c.42-.38,2.18-2.45,2.23-4.34A.71.71,0,0,1,387.41,480.72Z" transform="translate(-354.06 -225.6)"/><path class="cls-2" d="M402.74,486a4,4,0,0,1,0,.61,2.9,2.9,0,0,1-3,3.17c-1.1,0-1.69-.29-1.69-.84a.65.65,0,0,1,.66-.66.66.66,0,0,1,.23,0,3,3,0,0,0,.92.15c1.57,0,1.57-1.87,1.57-2a2.42,2.42,0,0,0,0-.47l-5.94,0a.61.61,0,0,1-.65-.62.63.63,0,0,1,.64-.65l5.18,0a2.47,2.47,0,0,0-.56-.29c-.3-.1-.42-.28-.42-.46a.69.69,0,0,1,.74-.59,1.75,1.75,0,0,1,.83.28c.36-.24,1.1-.76,1.1-.93s-.05-.08-.15-.08h-.74c-.9,0-2.26,0-3.24.07h0a.59.59,0,0,1-.63-.59.61.61,0,0,1,.65-.59c.6,0,1.35,0,2.1,0,1,0,2,0,2.69,0s1.13.42,1.13.85c0,.69-.74,1.26-2,2.05a2.4,2.4,0,0,1,.19.29l4.18,0a.61.61,0,0,1,.62.65.59.59,0,0,1-.61.61Zm2.31-4.49c0-.58-.31-.68-.88-.7l-3.6,0-2.85,0c-.77,0-.89.21-.93.7v.82h0a.66.66,0,0,1-.72.62.63.63,0,0,1-.67-.63c0-.18,0-.39,0-.62s0-.48,0-.69a1.48,1.48,0,0,1,1.64-1.34h1.17a.88.88,0,0,1-.18-.2,3.93,3.93,0,0,0-1-1,.5.5,0,0,1-.18-.36.7.7,0,0,1,.71-.6,2.45,2.45,0,0,1,1.63,1.55.76.76,0,0,1-.41.62c1.24,0,2.45,0,3.69,0a6.86,6.86,0,0,0,1-1.85.66.66,0,0,1,.63-.45.78.78,0,0,1,.8.69,4.4,4.4,0,0,1-1,1.63h1a1.47,1.47,0,0,1,1.62,1.33c0,.2,0,.49,0,.76a4.1,4.1,0,0,1,0,.52.69.69,0,0,1-.74.61.62.62,0,0,1-.7-.59v-.8Zm-4-1.91a.5.5,0,0,1-.48-.34,3.88,3.88,0,0,0-.83-1.21.48.48,0,0,1-.12-.3c0-.3.35-.55.71-.55.72,0,1.49,1.37,1.49,1.7A.8.8,0,0,1,401.09,479.55Z" transform="translate(-354.06 -225.6)"/><path class="cls-2" d="M409.51,489.13a.6.6,0,0,1-.66-.6.66.66,0,0,1,.66-.68l4.78,0v-2.52h-2.64a.59.59,0,0,1-.65-.6.63.63,0,0,1,.65-.65l2.64,0V482l-2.5,0a15.54,15.54,0,0,1-1.55,2.28.79.79,0,0,1-.62.32A.66.66,0,0,1,409,484a.77.77,0,0,1,.18-.45,12.48,12.48,0,0,0,2.5-4.58.63.63,0,0,1,.64-.47.72.72,0,0,1,.78.64.56.56,0,0,1,0,.21c-.18.49-.38,1-.59,1.43h1.87v-2.49a.72.72,0,1,1,1.44,0v2.49h3.78a.63.63,0,1,1,0,1.25l-3.78,0v2.15l2.83,0a.63.63,0,1,1,0,1.25h-2.83v2.52l4.68,0a.61.61,0,0,1,.63.65.6.6,0,0,1-.63.63Z" transform="translate(-354.06 -225.6)"/><path class="cls-2" d="M424.28,484.38a1,1,0,0,1-1-1,1,1,0,0,1,2,0A1,1,0,0,1,424.28,484.38Zm4.67,0a.93.93,0,0,1-1-1,1,1,0,0,1,2,0A1,1,0,0,1,429,484.38Zm4.66,0a.92.92,0,0,1-1-1,1,1,0,0,1,1-1,1,1,0,0,1,1,1A1.06,1.06,0,0,1,433.61,484.38Z" transform="translate(-354.06 -225.6)"/><path class="cls-2" d="M441.85,480.11a36.49,36.49,0,0,1-2.83,5.36.76.76,0,0,1-.7.42.61.61,0,0,1-.65-.6.89.89,0,0,1,.15-.48,30.8,30.8,0,0,0,2.48-4.09,4.16,4.16,0,0,1-1.77.56c-.92,0-.92-.63-.92-.68a.64.64,0,0,1,.64-.66.9.9,0,0,1,.28,0,.63.63,0,0,0,.24,0,5.71,5.71,0,0,0,2-.73c0-.34,0-.66.05-1.08a.63.63,0,0,1,.66-.62.64.64,0,0,1,.67.61v.29a.9.9,0,0,1,.16,0,.58.58,0,0,1,.56.58c0,.47-.6.84-1,1.06Zm-.4,9.27c-1.28,0-2.34-.91-2.34-1.71s1.23-1.61,3-1.61c.21,0,.43,0,.64,0-.1-1.12-.1-1.18-.1-1.33,0-.91.3-1.74,1.94-2.83a.27.27,0,0,0,.12-.17c0-.09-.12-.09-.18-.09a6,6,0,0,0-.89.17.68.68,0,0,1-.19,0,.48.48,0,0,1-.53-.46c0-.37.41-.79,1.86-.79,1,0,2.26.59,2.26,1.23a.71.71,0,0,1-.72.63,2.52,2.52,0,0,0-2.5,2.32,4.36,4.36,0,0,0,.07.68c0,.28.1.58.14.87.87.27,2.22.88,2.22,1.68a.69.69,0,0,1-.64.73.79.79,0,0,1-.57-.28,4.81,4.81,0,0,0-1.07-.76A2.75,2.75,0,0,1,441.45,489.38Zm.39-2.24c-.83,0-1.53.28-1.53.53s.49.55,1,.55a1.4,1.4,0,0,0,1.43-1A4.31,4.31,0,0,0,441.84,487.14Z" transform="translate(-354.06 -225.6)"/><path class="cls-2" d="M452,483.51c-.6-.32-.73-.78-.73-1.57,0-.22,0-.48,0-.76,0-.64,0-1.14,0-1.56a6.48,6.48,0,0,0-.1-1.35,1.15,1.15,0,0,1,0-.18.6.6,0,0,1,.64-.62c.86,0,.9.82.9,1.75,0,.4,0,.89-.08,1.59,0,.43-.07.78-.07,1.06,0,.87.57.95,1,.95.21,0,.24-.11.41-.16a.59.59,0,0,1,.22-.05.7.7,0,0,1,.7.68.89.89,0,0,1-.52.72c-.47.3-1.59.78-2.24,1.12-1.06.59-1.54,1.2-1.54,1.71s.62,1.17,2.06,1.17a4,4,0,0,0,1.95-.45,1.15,1.15,0,0,1,.66-.23.75.75,0,0,1,.79.72c0,.87-1.63,1.36-3.08,1.36-2.53,0-3.67-1.21-3.67-2.41,0-1,.77-2.16,2.47-3.11l.47-.27A.81.81,0,0,1,452,483.51Zm3.81-1.11a5.15,5.15,0,0,0-1-.95.48.48,0,0,1-.28-.41.55.55,0,0,1,.57-.49c.31,0,1.68.85,1.68,1.45a.62.62,0,0,1-.57.61A.42.42,0,0,1,455.8,482.4Zm1.41-1.06a4.39,4.39,0,0,0-1-.91.47.47,0,0,1-.29-.41.55.55,0,0,1,.57-.5c.28,0,1.71.81,1.71,1.41a.63.63,0,0,1-.57.62A.47.47,0,0,1,457.21,481.34Z" transform="translate(-354.06 -225.6)"/><path class="cls-2" d="M461.2,489.44a5.38,5.38,0,0,0-1.72-1.48.61.61,0,0,1,.28-1.17c.49,0,2.73,1.23,2.73,2.18a.77.77,0,0,1-.76.77A.63.63,0,0,1,461.2,489.44Z" transform="translate(-354.06 -225.6)"/></g><g class="cls-1"><path class="cls-2" d="M359,509.07a67,67,0,0,1-3.25,7.36.72.72,0,0,1-.67.39.67.67,0,0,1-.73-.6.81.81,0,0,1,.11-.4,44,44,0,0,0,3-6.33l-.16.05a4.53,4.53,0,0,1-1.19.18c-.14,0-1.23,0-1.23-.76a.66.66,0,0,1,.62-.71.82.82,0,0,1,.42.11.83.83,0,0,0,.36.08,6.16,6.16,0,0,0,1.64-.39,5.29,5.29,0,0,0,.1-1.12.71.71,0,0,1,.77-.66.6.6,0,0,1,.66.51,1.69,1.69,0,0,1,0,.23,2.53,2.53,0,0,1,0,.27.84.84,0,0,1,.18,0,.66.66,0,0,1,.66.65c0,.36-.25.61-1.29,1.07Zm4.27,7.89c-2.3,0-3.81-1.22-3.81-1.93a.74.74,0,0,1,.69-.75.69.69,0,0,1,.54.31c.53.72,1,.81,2.82.94a.69.69,0,0,1,.71.7C364.21,517,363.48,517,363.26,517Zm.81-5.27a7.94,7.94,0,0,0-2.48-.64,1.74,1.74,0,0,0-.47.05l-.16,0a.55.55,0,0,1-.53-.57c0-.23.07-.74,1.32-.74a8,8,0,0,1,2.84.63.64.64,0,0,1,.45.61.69.69,0,0,1-.67.69A.8.8,0,0,1,364.07,511.69Z" transform="translate(-354.06 -225.6)"/><path class="cls-2" d="M372,517.53a.7.7,0,0,1-.66-.46,19.65,19.65,0,0,0-2.82-4.41,2.53,2.53,0,0,1-.66-1.47,2.12,2.12,0,0,1,.55-1.3,34,34,0,0,0,2.62-3.69.66.66,0,0,1,.59-.36.9.9,0,0,1,.88.82.81.81,0,0,1-.12.41c-.57.9-2.13,2.65-2.88,3.54a.83.83,0,0,0-.22.52,1.19,1.19,0,0,0,.34.72c1.42,1.85,2.53,2.9,3.17,4.49a1,1,0,0,1,.08.35A.88.88,0,0,1,372,517.53Z" transform="translate(-354.06 -225.6)"/><path class="cls-2" d="M380.53,508.72a4.48,4.48,0,0,1-.68-1.58.6.6,0,0,1,.64-.6.85.85,0,0,1,.81.67,7.15,7.15,0,0,0,.51,1.19l.63-.22a1.09,1.09,0,0,1,.41-.09.63.63,0,0,1,.65.65c0,.53-.37.64-1.06.84,1.22,2.17,1.92,3.46,1.92,4.34,0,.56-.28.78-.62.78a1.12,1.12,0,0,1-.73-.29,7,7,0,0,0-3.23-.76c-1.12,0-1.68.55-1.68.94,0,.62,1.2,1,2.45,1l.67,0h.13c.54,0,.81.32.81.67a.83.83,0,0,1-.91.8c-2.86,0-4.54-1.11-4.54-2.37,0-.68.74-2.22,3.18-2.22a17.36,17.36,0,0,1,2.59.31h.13s0,0,0,0,0-.56-1.44-2.9a10.26,10.26,0,0,1-1.56.23c-1.62,0-3-1.39-3-2a.62.62,0,0,1,.67-.58.87.87,0,0,1,.66.3,2.39,2.39,0,0,0,1.81,1h.26Z" transform="translate(-354.06 -225.6)"/><path class="cls-2" d="M392.5,516.68c-.7,0-1.9-.21-1.9-1.49a2.73,2.73,0,0,1,.11-.7,3.82,3.82,0,0,0,.24-1.09c0-.32-.11-.43-.31-.43a3.54,3.54,0,0,0-2.45,2.53c-.35,1.08-.71,1.18-1.09,1.18a.64.64,0,0,1-.69-.63,1.12,1.12,0,0,1,.13-.48,44.31,44.31,0,0,1,2.34-4.14c.78-1.25,1.41-2.44,2-3.52.23-.39.58-.9.72-1.16a.65.65,0,0,1,.6-.38.8.8,0,0,1,.8.76c0,.28-.14.56-.76,1.31a20.88,20.88,0,0,0-1.55,2.15c-.42.65-.76,1.24-1.07,1.69,0,0,0,.06,0,.07h0l.07-.06a2.3,2.3,0,0,1,1.26-.37c.66,0,1.29.3,1.29,1.41v.14a5.26,5.26,0,0,1-.26,1.09.75.75,0,0,0,0,.2c0,.39.31.57.75.57,1.36,0,3-1.48,3.46-3.37a.74.74,0,0,1,.75-.63.75.75,0,0,1,.78.73.87.87,0,0,1,0,.26C396.34,516.15,393.61,516.68,392.5,516.68Z" transform="translate(-354.06 -225.6)"/><path class="cls-2" d="M408.82,511.54a3,3,0,0,0-3.25-2.89h0a.64.64,0,0,1,.39.59v.07c0,1.47-1.44,4-3,5.53a1.52,1.52,0,0,1-1.05.48c-1,0-1.89-1.12-1.89-2.65,0-2.53,2.49-5.11,5.64-5.11,2.83,0,4.6,1.88,4.6,4.06a4.36,4.36,0,0,1-.31,1.59c-1.24,3.1-5.05,3.54-5.24,3.54a.74.74,0,0,1-.8-.69c0-.31.24-.6.77-.7C407.22,514.94,408.82,513.37,408.82,511.54Zm-4.05-2.82a4.59,4.59,0,0,0-3.5,3.88c0,1,.7,1.18.74,1.18a.37.37,0,0,0,.26-.11c.43-.38,2.18-2.45,2.23-4.34A.71.71,0,0,1,404.77,508.72Z" transform="translate(-354.06 -225.6)"/><path class="cls-2" d="M414.05,510.64c-.95,1.12-1.26,1.26-1.57,1.26a.64.64,0,0,1-.66-.63.66.66,0,0,1,.24-.5,12.84,12.84,0,0,0,3.35-4.81.67.67,0,0,1,.63-.45.76.76,0,0,1,.77.71,11,11,0,0,1-1.39,2.6l-.15,8.26a.67.67,0,0,1-.72.64.62.62,0,0,1-.68-.61v0Zm5.45,2.72c-.58,0-1.14,0-1.64-.06A1.45,1.45,0,0,1,416.3,512c0-.37,0-.76,0-1.16s0-1,0-1.39a1.42,1.42,0,0,1,1.53-1.36c.5,0,1.06,0,1.67,0V506.1a.61.61,0,0,1,.67-.6.64.64,0,0,1,.7.6V508c.64,0,1.27,0,1.85,0a1.52,1.52,0,0,1,1.46,1.26c0,.44.07.91.07,1.36a12.1,12.1,0,0,1-.07,1.26,1.54,1.54,0,0,1-1.53,1.37c-.56,0-1.16.05-1.78.06v3.74c0,.38-.35.56-.69.56s-.68-.18-.68-.56Zm0-4.15c-.41,0-.8,0-1.18,0-.69,0-.71.44-.71,1.45s0,1.43.72,1.47l1.17.05Zm1.37,3c1.5,0,1.95,0,2-.63,0-.28,0-.63,0-1s0-.56,0-.79c0-.6-.38-.6-2-.6Z" transform="translate(-354.06 -225.6)"/><path class="cls-2" d="M427.32,517.66a.61.61,0,0,1-.67-.58v0c.1-2.57.07-7,.1-10,0-1.37,1-1.37,2.39-1.37h1.36a1.21,1.21,0,0,1,1.27,1.11c0,.49,0,1,0,1.48,0,1.77,0,2.12-2.79,2.12-.36,0-.71,0-1,0v1.26c0,1.51,0,3.47-.06,5.45A.61.61,0,0,1,427.32,517.66Zm3.25-10.1c0-.15,0-.29,0-.43,0-.4-.1-.44-1.22-.44s-1.25,0-1.28.55c0,.1,0,.21,0,.32Zm-2.52.92v.86h1c1.36,0,1.46-.05,1.48-.44,0-.13,0-.27,0-.43Zm5.43,7.62c-.38,0-.8,0-1.2,0s-.84,0-1.22,0a1.35,1.35,0,0,1-1.39-1.3c0-.19,0-.43,0-.67,0-.63,0-1.36,0-1.92A1.3,1.3,0,0,1,431,511l1.14,0,1.33,0a1.32,1.32,0,0,1,1.27,1.15c0,.49.06,1.11.06,1.68,0,.37,0,.7,0,1A1.37,1.37,0,0,1,433.48,516.1ZM430.75,514c0,1.09,0,1.1,1.46,1.1,1,0,1.44,0,1.47-.56,0-.15,0-.35,0-.54Zm2.93-1c0-.16,0-.31,0-.43,0-.52-.29-.56-1.25-.56h-1.06a.55.55,0,0,0-.55.56c0,.13,0,.27,0,.42Zm2-2.57c-1.65,0-2.82,0-2.86-1.24,0-.28,0-.59,0-.88,0-.49,0-1,0-1.48a1.19,1.19,0,0,1,1.24-1.11h2.44c1,.05,1.47.62,1.47,1.25V508c0,2.1,0,4.27,0,6,0,.66,0,1.24,0,1.73,0,1-.49,1.87-2.08,1.87-1,0-1.49-.13-1.49-.74a.57.57,0,0,1,.55-.62h.11a5.49,5.49,0,0,0,.74.09c.46,0,.81-.17.83-.86s0-1.16,0-1.79c0-.94,0-1.91,0-2.79v-.57C436.41,510.36,436.05,510.38,435.64,510.38Zm1-2.82c0-.85,0-.87-1.31-.87-1.12,0-1.28,0-1.3.45,0,.13,0,.28,0,.42Zm0,.92H434c0,.16,0,.3,0,.43,0,.39.05.44,1.54.44h1.1Z" transform="translate(-354.06 -225.6)"/><path class="cls-2" d="M443.36,511a8,8,0,0,1-1.58.27.61.61,0,0,1-.66-.63.68.68,0,0,1,.7-.7,10.33,10.33,0,0,0,2.32-.33,6,6,0,0,0,.68-2.14.59.59,0,0,1,.63-.5.7.7,0,0,1,.76.64,4.75,4.75,0,0,1-.51,1.7h.12c1.59,0,1.64,1.72,1.64,2.36,0,1.25-.06,4.75-2.65,4.75-.8,0-1.84-.36-1.84-1a.75.75,0,0,1,.73-.72.66.66,0,0,1,.3.07,1.86,1.86,0,0,0,.78.21c.91,0,1.33-1,1.33-3.44,0-.57-.08-1-.53-1a.77.77,0,0,0-.25,0l-.23.05c-1.05,2-2.52,4.28-3.42,5.8a.81.81,0,0,1-.72.41.66.66,0,0,1-.72-.6.83.83,0,0,1,.17-.49c.62-.94,2.07-3,3.07-4.74Zm7.77,1.93a4.45,4.45,0,0,0-2.41-2.22.51.51,0,0,1-.38-.48.65.65,0,0,1,.67-.62c.71,0,3.46,1.74,3.46,3a.74.74,0,0,1-.74.74A.64.64,0,0,1,451.13,513Zm-.4-3.7a4.65,4.65,0,0,0-1.17-.77.44.44,0,0,1-.35-.42.55.55,0,0,1,.57-.51c.07,0,1.84.5,1.84,1.24a.61.61,0,0,1-.55.62A.44.44,0,0,1,450.73,509.25Zm1.21-1.28a4.9,4.9,0,0,0-1.19-.72.44.44,0,0,1-.37-.43.57.57,0,0,1,.58-.53,4.17,4.17,0,0,1,1.64.74.63.63,0,0,1-.34,1.09A.5.5,0,0,1,451.94,508Z" transform="translate(-354.06 -225.6)"/><path class="cls-2" d="M455.92,511.05a5.06,5.06,0,0,0-1.65-.81.5.5,0,0,1-.36-.48.72.72,0,0,1,.7-.69,4.86,4.86,0,0,1,2.08.76.67.67,0,0,1,.32.59.75.75,0,0,1-.68.77A.68.68,0,0,1,455.92,511.05Zm1.14,1.47a.69.69,0,0,1,.7.67A10.71,10.71,0,0,1,455.5,517a.83.83,0,0,1-.64.32.75.75,0,0,1-.76-.71.66.66,0,0,1,.2-.47,12.9,12.9,0,0,0,2.2-3.3A.58.58,0,0,1,457.06,512.52Zm-.51-4.47a5,5,0,0,0-1.5-1.11.46.46,0,0,1-.29-.42.75.75,0,0,1,.76-.67c.4,0,2.25.9,2.25,1.67a.78.78,0,0,1-.73.77A.66.66,0,0,1,456.55,508.05Zm7.33-.43c.89.05,1.58.49,1.61,1.31,0,1.18.07,2.41.07,3.67,0,1.07,0,2.15-.07,3.25,0,.9-.72,1.38-1.72,1.43-.52,0-1.32.06-2.08.06-.6,0-1.17,0-1.59-.05-1.18-.06-1.71-.61-1.74-1.49,0-1.17,0-2.36,0-3.52s0-2.34,0-3.43c0-1.26,1.44-1.26,2.35-1.26a10.18,10.18,0,0,0,.35-1.67.67.67,0,0,1,.73-.59c.41,0,.81.24.81.62a7,7,0,0,1-.49,1.62C462.77,507.57,463.4,507.59,463.88,507.62Zm.32,4c0-.82,0-1.61-.06-2.28s-.11-.6-2.22-.6-2.23,0-2.26.6,0,1.47,0,2.28Zm-4.58,1.17c0,.91,0,1.85,0,2.73,0,.66.14.67,2.51.67,1.71,0,2-.08,2-.66.05-.87.06-1.8.06-2.74Z" transform="translate(-354.06 -225.6)"/><path class="cls-2" d="M471.3,517.56c-1.18,0-2.34-.77-2.34-1.78,0-1.31,1.68-1.61,2.73-1.61a6.2,6.2,0,0,1,1.05.09V514q0-.32,0-.69c0-.43-.08-.88-.11-1.36a4.77,4.77,0,0,1-1.07.14c-.26,0-1.69-.11-1.69-1.05,0-.26.11-.73,1-1.54.18-.15.3-.29.3-.45,0-.38-1.19-.8-2.1-.81-.5,0-.74-.29-.74-.59s.25-.63.76-.63,2.92.52,3.36,1.5v-.66c0-.57,0-1.12,0-1.58a.64.64,0,0,1,.64-.7.71.71,0,0,1,.73.7v.06c-.07.93-.14,2.27-.14,3.6v.37a2.28,2.28,0,0,0,.67-.49.7.7,0,0,1,.51-.23.68.68,0,0,1,.65.68c0,.69-1.16,1.16-1.8,1.37,0,.54.05,1,.11,1.47s.1.93.11,1.45c1,.36,2.1,1,2.1,1.71a.75.75,0,0,1-.7.78.84.84,0,0,1-.6-.32,3.84,3.84,0,0,0-1-.81A2.8,2.8,0,0,1,471.3,517.56Zm.16-2.31c-1,0-1.28.25-1.28.52s.53.6,1,.6a1.46,1.46,0,0,0,1.39-1A4.64,4.64,0,0,0,471.46,515.25Zm1-6a1.53,1.53,0,0,1-.45.59c-.81.65-.82.86-.82.9s.22.2.39.2a3.62,3.62,0,0,0,.94-.16C472.5,510.28,472.49,509.76,472.47,509.25Z" transform="translate(-354.06 -225.6)"/><path class="cls-2" d="M478.76,513.79a.64.64,0,0,1-.65-.64.63.63,0,0,1,.45-.6c.48-.19,1.09-.47,1.72-.75a8.49,8.49,0,0,1,3.24-.93,2.38,2.38,0,0,1,2.54,2.26c0,2.39-4.16,3.63-5.12,3.63a.65.65,0,0,1-.68-.64.6.6,0,0,1,.57-.59c2.34-.32,3.92-1.43,3.92-2.44a1.23,1.23,0,0,0-1.31-1.12,7.06,7.06,0,0,0-2.72.94C479.23,513.7,479,513.79,478.76,513.79Z" transform="translate(-354.06 -225.6)"/><path class="cls-2" d="M496.83,516.88h-.14c-3-.29-4.95-2.39-4.95-4.54a4,4,0,0,1,1-2.57.22.22,0,0,0,.07-.12s0,0,0,0a.6.6,0,0,0-.14.05c-2.2,1.14-2.47,1.22-2.78,1.22a.79.79,0,0,1-.85-.75.8.8,0,0,1,.64-.73c.3-.1,1.09-.34,1.52-.49.65-.24,1.82-.6,3.2-1.15a10.63,10.63,0,0,1,3.72-.87c.7,0,.95.32.95.69,0,.71-.59.87-1.12.87a1.77,1.77,0,0,1-.32,0h-.34c-2.17,0-4.3,1.85-4.3,3.72,0,1.69,1.6,3.11,3.79,3.11.7,0,1,.41,1,.83S497.48,516.88,496.83,516.88Z" transform="translate(-354.06 -225.6)"/><path class="cls-2" d="M505.51,515.8a2.62,2.62,0,0,1-1.66-.73,7.3,7.3,0,0,1-2.05-4.22c-.11-.53-.27-1.39-.27-1.5a.69.69,0,0,1,.71-.67.74.74,0,0,1,.7.66c.08.45.11.92.19,1.37.58,3.27,1.89,3.39,2,3.39s.26-.11.39-.45.22-.74.39-1.19a.55.55,0,0,1,.52-.39.76.76,0,0,1,.74.7s0,.07,0,.11c-.09.47-.37,1.38-.41,1.81A1.16,1.16,0,0,1,505.51,515.8Zm5.38-3.18a4.88,4.88,0,0,0-1.83-2.83.57.57,0,0,1-.24-.45.61.61,0,0,1,.63-.58.92.92,0,0,1,.59.24c.59.51,2.32,2.05,2.32,3.46a.76.76,0,0,1-.77.8A.7.7,0,0,1,510.89,512.62Z" transform="translate(-354.06 -225.6)"/><path class="cls-2" d="M515.86,513.79a.64.64,0,0,1-.65-.64.63.63,0,0,1,.45-.6c.48-.19,1.09-.47,1.72-.75a8.49,8.49,0,0,1,3.24-.93,2.38,2.38,0,0,1,2.54,2.26c0,2.39-4.16,3.63-5.12,3.63a.65.65,0,0,1-.68-.64.6.6,0,0,1,.57-.59c2.34-.32,3.92-1.43,3.92-2.44a1.23,1.23,0,0,0-1.31-1.12,7.06,7.06,0,0,0-2.72.94C516.33,513.7,516.1,513.79,515.86,513.79Z" transform="translate(-354.06 -225.6)"/><path class="cls-2" d="M530.49,509.07a67,67,0,0,1-3.25,7.36.72.72,0,0,1-.67.39.67.67,0,0,1-.73-.6.81.81,0,0,1,.11-.4,42.91,42.91,0,0,0,3-6.33l-.15.05a4.59,4.59,0,0,1-1.19.18c-.15,0-1.24,0-1.24-.76a.66.66,0,0,1,.62-.71.8.8,0,0,1,.42.11.83.83,0,0,0,.36.08,6,6,0,0,0,1.64-.39,5.29,5.29,0,0,0,.1-1.12.71.71,0,0,1,.77-.66.6.6,0,0,1,.66.51,1.69,1.69,0,0,1,0,.23,2.53,2.53,0,0,1,0,.27,1,1,0,0,1,.18,0,.66.66,0,0,1,.66.65c0,.36-.25.61-1.29,1.07Zm4.27,7.89c-2.3,0-3.81-1.22-3.81-1.93a.74.74,0,0,1,.69-.75.67.67,0,0,1,.54.31c.54.72,1,.81,2.82.94a.69.69,0,0,1,.71.7C535.71,517,535,517,534.76,517Zm.81-5.27a7.87,7.87,0,0,0-2.48-.64,1.78,1.78,0,0,0-.47.05l-.16,0a.55.55,0,0,1-.53-.57c0-.23.07-.74,1.32-.74a7.93,7.93,0,0,1,2.84.63.64.64,0,0,1,.45.61.69.69,0,0,1-.67.69A.8.8,0,0,1,535.57,511.69Z" transform="translate(-354.06 -225.6)"/><path class="cls-2" d="M539.92,517.74a1.6,1.6,0,1,1,1.6-1.59A1.59,1.59,0,0,1,539.92,517.74Zm0-2.64a1.06,1.06,0,1,0,0,2.11,1.06,1.06,0,1,0,0-2.11Z" transform="translate(-354.06 -225.6)"/></g></g></svg>