<svg id="レイヤー_1" data-name="レイヤー 1" xmlns="http://www.w3.org/2000/svg" viewBox="0 0 146 57.72"><defs><style>.cls-1{isolation:isolate;}.cls-2{fill:#040000;}.cls-3{fill:none;stroke:#121212;}</style></defs><g id="_コーヒーやろうぜ_" data-name=" コーヒーやろうぜ " class="cls-1"><g class="cls-1"><path class="cls-2" d="M428.7,394.48a.38.38,0,0,1-.37.42.39.39,0,0,1-.37-.41c0-.63,0-1.2,0-1.74,0-.92,0-1.73,0-2.6a1.55,1.55,0,0,1,1.58-1.67h.69c.49,0,.92,0,1.43,0a.36.36,0,1,1,0,.72h-.05c-.09,0-.48,0-1.94,0a1,1,0,0,0-1,1c0,.55,0,1.11,0,1.72s0,1.57,0,2.52Z" transform="translate(-407.35 -343.6)"/><path class="cls-2" d="M441.23,398.62l-1,.05c-.64,0-3.6.37-4.09.43a8.13,8.13,0,0,1-1.3.1c-1,0-1.17-1.43,0-1.43.35,0,.7,0,1.06,0s3.1-.39,4.07-.49c.22-1.23.56-2.83.67-3.36s-.09-.48-.49-.42c-.67.1-3,.43-3.49.53a10.54,10.54,0,0,1-1.64.18.72.72,0,1,1-.07-1.44c.49,0,.93,0,1.43-.08s2.86-.35,3.36-.42a9,9,0,0,1,1.37-.2c1.32,0,1.52,1,1.31,1.49a23.51,23.51,0,0,0-1,3.62C442.33,397.35,442.63,398.54,441.23,398.62Z" transform="translate(-407.35 -343.6)"/><path class="cls-2" d="M454.42,395.57h-.73c-2.68,0-4.72.13-5.83.17l-1.38,0H446a.79.79,0,0,1-.82-.76c0-.35.28-.69.85-.69h.08c.52,0,1.13.05,1.69.05,1.15,0,4.15-.17,6.62-.24h0a.77.77,0,0,1,.86.71c0,.37-.3.73-.9.73Z" transform="translate(-407.35 -343.6)"/><path class="cls-2" d="M459.65,397.41c0,.67.27,1,1.09,1.1a8.8,8.8,0,0,0,3.83-.49c1.22-.66,2.1.8.52,1.5a11.19,11.19,0,0,1-4.87.38,2,2,0,0,1-1.94-2.09c0-1.39.08-2.48.15-4.12a8.65,8.65,0,0,0-.08-1.76.79.79,0,1,1,1.57-.06,12.58,12.58,0,0,1-.06,1.75c0,.35,0,.68-.06,1a14.58,14.58,0,0,0,2.57-.74,4.4,4.4,0,0,0,1.2-.66c.74-.63,2,.31,1.21,1.13a4.3,4.3,0,0,1-1.43.73,19.66,19.66,0,0,1-3.63,1C459.69,396.47,459.68,396.9,459.65,397.41Z" transform="translate(-407.35 -343.6)"/><path class="cls-2" d="M477.1,395.57h-.73c-2.68,0-4.72.13-5.83.17l-1.38,0h-.45a.79.79,0,0,1-.82-.76c0-.35.28-.69.84-.69h.09c.52,0,1.13.05,1.69.05,1.15,0,4.15-.17,6.62-.24h0a.77.77,0,0,1,.86.71c0,.37-.3.73-.9.73Z" transform="translate(-407.35 -343.6)"/><path class="cls-2" d="M480.61,396.72a.79.79,0,0,1-.79-.72c0-.26.18-.51.66-.67a7.37,7.37,0,0,0,1.79-.87c-.58-.81-.72-1.14-.72-1.51a1.06,1.06,0,0,1,.85-1c.25-.07.7-.14,1-.21s.22-.12.22-.25,0-.29-.56-.53c-.31-.13-.43-.32-.43-.53a.59.59,0,0,1,.64-.55c.55,0,1.81.81,1.81,1.72s-1.22,1.17-1.75,1.25c-.2,0-.37.1-.37.27a1.76,1.76,0,0,0,.38.71l1.81-1.25a7.11,7.11,0,0,1,3.64-1.33c.76,0,2.37.35,2.37,1.84,0,1.22-1.1,3.09-4.09,3.09-1,0-1.77-.06-1.77-.78a.68.68,0,0,1,.72-.69l.25,0a3.7,3.7,0,0,0,.85.09c1.94,0,2.62-1,2.62-1.64s-1-.73-1-.73c-1.32,0-2.51.85-4.64,2.38.36.49.76,1,1.15,1.55,1,1.35,2.2,3.06,2.2,3.82a.7.7,0,0,1-.68.75.82.82,0,0,1-.76-.66,23.61,23.61,0,0,0-2.91-4.77A7.61,7.61,0,0,1,480.61,396.72Z" transform="translate(-407.35 -343.6)"/><path class="cls-2" d="M499.72,389.66a.79.79,0,0,1,.85.8,1,1,0,0,1-.32.73c-1,1-2.42,2.57-2.81,2.94a4.75,4.75,0,0,1,2.27-.55,3.24,3.24,0,0,1,3.46,2.93c0,2.77-3.76,4.4-6.66,4.4a.75.75,0,0,1-.81-.73c0-.32.24-.64.77-.66,3.77-.11,5.24-1.9,5.24-3a2,2,0,0,0-2.27-1.78,4.82,4.82,0,0,0-3.54,1.66c-.49.54-.63.9-1,1.32a.83.83,0,0,1-.67.35.76.76,0,0,1-.79-.7c0-.28.14-.48,1.19-1.6.89-.92,4-4.59,4-4.66h0l-.1,0a10.4,10.4,0,0,1-2.74.92.74.74,0,0,1-.77-.74.7.7,0,0,1,.75-.67,17.68,17.68,0,0,0,3-.7c.45-.17.46-.28.93-.28Z" transform="translate(-407.35 -343.6)"/><path class="cls-2" d="M506.59,400.53a.64.64,0,0,1,.41-.59c2.58-1.13,3.42-2.76,3.42-4.29,0-.39-.13-2.42-1.21-2.42a2.2,2.2,0,0,0-1.1.44,3.22,3.22,0,0,1-1.48.63.77.77,0,0,1-.82-.75.77.77,0,0,1,.75-.74,3,3,0,0,0,1-.35,4.26,4.26,0,0,1,1.78-.45c2.46,0,2.52,3.34,2.52,3.62,0,3.75-3.91,5.64-4.49,5.64A.76.76,0,0,1,506.59,400.53Zm3.53-9.68a6.52,6.52,0,0,1-2.72-.6.66.66,0,0,1-.37-.58.63.63,0,0,1,.64-.61,1,1,0,0,1,.38.08,3.86,3.86,0,0,0,1.64.31h.54a.64.64,0,0,1,.72.63A.77.77,0,0,1,510.12,390.85Z" transform="translate(-407.35 -343.6)"/><path class="cls-2" d="M518.21,396c-.25.13-.46.22-.64.32-1.15.59-1.64.91-2.05,1.1a.77.77,0,0,1-.32.07.73.73,0,0,1-.71-.75.79.79,0,0,1,.57-.73c.49-.18,2.06-.84,3-1.26-.23-1.76-.27-2.1-.31-2.39,0,0,0-.09,0-.11a.66.66,0,0,1,.69-.66.75.75,0,0,1,.74.68,13.54,13.54,0,0,1,.11,1.6,2.11,2.11,0,0,0,0,.35,32.09,32.09,0,0,1,3.07-1.1c.07-.43.11-.82.16-1.13.1-.57.09-.51.2-1.1a.68.68,0,0,1,.7-.55.63.63,0,0,1,.69.6c0,.07-.09.47-.31,1.35,0,.15-.07.31-.11.47a13,13,0,0,1,2.27-.26c.61,0,1.3.1,1.3.78a.7.7,0,0,1-.76.69h-.18a5.76,5.76,0,0,0-1-.07,9.81,9.81,0,0,0-1.9.18c-.33,1.66-.74,3.32-1.86,3.32-.75,0-1.23-.93-1.23-1.21a.64.64,0,0,1,.57-.63.57.57,0,0,1,.48.31c.06.1.11.14.17.14s.38-.5.57-1.61a24.86,24.86,0,0,0-2.74,1.05c0,.5.09,1,.12,1.4.13,1.61.46,2.06,1.81,2.06a7.65,7.65,0,0,0,2-.35l.25,0a.71.71,0,0,1,.74.7.68.68,0,0,1-.56.66,7.58,7.58,0,0,1-2.1.28c-2.76,0-3.15-1.26-3.35-3.14Zm7.16-4.48a5.1,5.1,0,0,0-1-1.07.53.53,0,0,1-.28-.42.57.57,0,0,1,.59-.5c.32,0,1.74.92,1.74,1.57a.69.69,0,0,1-.63.67A.45.45,0,0,1,525.37,391.51Zm1.55-1.08a5.09,5.09,0,0,0-1-1,.53.53,0,0,1-.28-.42.57.57,0,0,1,.59-.52c.25,0,1.77.84,1.77,1.53a.68.68,0,0,1-.63.67A.46.46,0,0,1,526.92,390.43Z" transform="translate(-407.35 -343.6)"/><path class="cls-2" d="M532,395.32a.38.38,0,1,1,.75,0c0,.63,0,1.21,0,1.74,0,.93,0,1.74,0,2.61a1.54,1.54,0,0,1-1.58,1.66c-.24,0-.46,0-.69,0-.49,0-.92,0-1.43,0a.34.34,0,0,1-.37-.36.35.35,0,0,1,.36-.37h.06c.08,0,.47,0,1.93,0a.94.94,0,0,0,1-1c0-.55,0-1.11,0-1.73s0-1.56,0-2.52Z" transform="translate(-407.35 -343.6)"/></g></g><line id="線_1" data-name="線 1" class="cls-3" y1="19.1" x2="146" y2="19.1"/><g id="Episode_1_Coffee" data-name="Episode 1 Coffee" class="cls-1"><g class="cls-1"><path class="cls-2" d="M422.84,352.89c2.25,0,2.33-.06,2.58-.91a.72.72,0,0,1,.7-.55.75.75,0,0,1,.77.75,4.12,4.12,0,0,1-.28.91c-.28.72-.8,1.2-2.28,1.2h-2.79c-.67,0-1.3,0-1.82,0a.75.75,0,0,1-.84-.72.73.73,0,0,1,.77-.73h.14c.24,0,.31-.07.32-.28.07-.93.09-3.56.09-5.59v-1.49c0-.21-.06-.32-.37-.32s-.89-.07-.89-.71a.73.73,0,0,1,.78-.72h.06c.37,0,.85,0,1.37,0,1,0,2.23,0,3,0,1.72,0,1.93.63,2.23,1.68a2,2,0,0,1,0,.31.76.76,0,0,1-1.51.11c-.1-.5-.27-.7-1-.7h-1.85c-.28,0-.36.06-.37.36,0,.64,0,1.62-.05,2.55,0,.14.07.19.2.19.45,0,1.16,0,1.4,0s.28-.21.28-.45a.73.73,0,0,1,.73-.77.67.67,0,0,1,.69.72v.05c0,.33,0,.7,0,1.07s0,.87,0,1.17v.06a.68.68,0,0,1-.72.69.67.67,0,0,1-.7-.69V350c0-.05,0-.12,0-.18s0-.29-.29-.29l-1.4,0c-.17,0-.21.07-.21.23,0,1.27,0,2.44,0,2.76S421.77,352.89,422.84,352.89Z" transform="translate(-407.35 -343.6)"/><path class="cls-2" d="M428.13,357.83a.67.67,0,0,1-.05-1.33h.14c.36,0,.4-.16.4-.56s0-.74,0-1.15c0-1.7,0-3.85-.06-5.4,0-.32-.14-.49-.42-.49h-.07a.63.63,0,0,1-.64-.67c0-.55.36-.77,1-.77a1.31,1.31,0,0,1,1.36.79c0,.05,0,.07.06.07s.05,0,.08-.07a2.87,2.87,0,0,1,2.1-.88,3.31,3.31,0,0,1,3.39,3.52A3.35,3.35,0,0,1,432,354.4a2.91,2.91,0,0,1-2-.75.09.09,0,0,0-.07,0s0,0,0,.07c0,.88,0,1.64,0,2.3,0,.29,0,.47.57.47a.63.63,0,0,1,.63.67.68.68,0,0,1-.7.7Zm5.9-6.94a2,2,0,1,0-2,2.24A2,2,0,0,0,434,350.89Z" transform="translate(-407.35 -343.6)"/><path class="cls-2" d="M437.58,347.43c1,0,1.45.49,1.45,1.5V349c0,1.94-.06,3-.06,3.67a.24.24,0,0,0,.24.27.7.7,0,1,1,0,1.38h-2.05a.68.68,0,0,1-.8-.68.7.7,0,0,1,.75-.7h.22c.18,0,.24,0,.24-.3,0-.64,0-1.49,0-2.46v-.7c0-.39-.05-.55-.4-.55h-.14a.65.65,0,0,1-.64-.71.7.7,0,0,1,.69-.77Zm-.51-2.83a.94.94,0,0,1,1-1,1,1,0,0,1,1,1,1,1,0,0,1-1,1A.93.93,0,0,1,437.07,344.6Z" transform="translate(-407.35 -343.6)"/><path class="cls-2" d="M445.38,348c0,.23,0,.43,0,.63s0,.26,0,.4a.6.6,0,0,1-.65.63.64.64,0,0,1-.7-.61v0c0-.49-.83-.49-.89-.49-.49,0-.75.28-.75.59a.77.77,0,0,0,.47.64c.38.2,1,.46,1.42.69a2.05,2.05,0,0,1-1,4,2.67,2.67,0,0,1-1.14-.22.23.23,0,0,0-.11,0,.17.17,0,0,0-.11,0,.8.8,0,0,1-.48.14.63.63,0,0,1-.7-.59v0a4.44,4.44,0,0,0,0-.49c0-.2,0-.38,0-.62v0a.63.63,0,0,1,.69-.61.65.65,0,0,1,.7.65.26.26,0,0,0,.13.23,1.44,1.44,0,0,0,.92.29c.95,0,1.05-.59,1.05-.74,0-.39-.25-.71-2-1.47a1.92,1.92,0,0,1-1.26-1.74,2,2,0,0,1,2.13-1.87,2.23,2.23,0,0,1,.86.16.18.18,0,0,0,.1,0,.44.44,0,0,0,.18,0,.73.73,0,0,1,.39-.1.65.65,0,0,1,.71.64Z" transform="translate(-407.35 -343.6)"/><path class="cls-2" d="M446.78,350.87a3.53,3.53,0,1,1,7.05,0,3.53,3.53,0,1,1-7.05,0Zm5.63,0a2.11,2.11,0,1,0-4.21,0,2.11,2.11,0,1,0,4.21,0Z" transform="translate(-407.35 -343.6)"/><path class="cls-2" d="M460.06,343.76l.47,0c1.07,0,1.42.51,1.42,1.47v.12c0,1.21-.06,3.09-.06,4.77,0,.84,0,1.64,0,2.27,0,.32.15.49.43.49h.07a.63.63,0,0,1,.64.68c0,.46-.23.76-1,.76a1.36,1.36,0,0,1-1.36-.79c0-.05,0-.07-.06-.07s0,0-.07.05a2.82,2.82,0,0,1-2.1.9,3.32,3.32,0,0,1-3.39-3.52,3.35,3.35,0,0,1,3.39-3.51,2.87,2.87,0,0,1,2,.74h0s.07,0,.07-.07,0-1.26,0-2.13c0-.44,0-.71-.45-.71s-.84,0-.84-.69a.75.75,0,0,1,.77-.75Zm.44,7.11a2,2,0,1,0-2,2.22A2,2,0,0,0,460.5,350.87Z" transform="translate(-407.35 -343.6)"/><path class="cls-2" d="M467.25,354.45a3.32,3.32,0,0,1-3.35-3.53,3.41,3.41,0,0,1,3.32-3.62,2.83,2.83,0,0,1,3,2.48,1.21,1.21,0,0,1-1.33,1.22h-3.45c-.08,0-.11.12-.11.27a1.84,1.84,0,0,0,1.91,1.86,2.38,2.38,0,0,0,1.82-.85.61.61,0,0,1,.47-.23.76.76,0,0,1,.74.73.64.64,0,0,1-.21.49A3.51,3.51,0,0,1,467.25,354.45Zm1.54-4.91c0-.19-.29-1-1.55-1a1.83,1.83,0,0,0-1.75,1.22c0,.12.14.12,1.44.12h1.58A.29.29,0,0,0,468.79,349.54Z" transform="translate(-407.35 -343.6)"/><path class="cls-2" d="M480.65,352.74h.06a.76.76,0,1,1,0,1.52h-.06l-1.48,0-1.69,0a.77.77,0,1,1-.07-1.52h.72c.27,0,.32-.08.32-.34,0-1.56,0-3.78,0-5.16,0-.59,0-1,0-1.21,0-.43-.16-.66-.62-.67h-.33a.78.78,0,0,1-.86-.83.74.74,0,0,1,.73-.8h.06l.54,0,.49,0h.13a1.39,1.39,0,0,1,1.48,1.46v0c0,.25,0,.66,0,1.18,0,1.16-.06,2.87-.06,4.66,0,.43,0,.88,0,1.32,0,.21.07.35.3.35Z" transform="translate(-407.35 -343.6)"/><path class="cls-2" d="M503.32,354.46a5.13,5.13,0,0,1-5.35-5.31,5.31,5.31,0,0,1,5.42-5.55,5.14,5.14,0,0,1,2.36.54.8.8,0,0,1,1.5.23v.05c0,.29,0,.61,0,.93s0,.75,0,1v.05a.72.72,0,0,1-.77.73.71.71,0,0,1-.75-.62c-.06-.51-.79-1.45-2.47-1.45a3.73,3.73,0,0,0-3.7,4,3.68,3.68,0,0,0,3.71,3.86,3.38,3.38,0,0,0,2.72-1.19.83.83,0,0,1,.66-.36.94.94,0,0,1,.92.88C507.57,353,505.85,354.46,503.32,354.46Z" transform="translate(-407.35 -343.6)"/><path class="cls-2" d="M508.65,350.87a3.52,3.52,0,1,1,7,0,3.52,3.52,0,1,1-7,0Zm5.63,0a2.12,2.12,0,1,0-4.22,0,2.11,2.11,0,1,0,4.22,0Z" transform="translate(-407.35 -343.6)"/><path class="cls-2" d="M519.61,348.79c-.14,0-.18,0-.18.22,0,0,0,2.48,0,3.81,0,.14.12.15.23.15a.65.65,0,0,1,.77.65.68.68,0,0,1-.74.67H517.8a.64.64,0,0,1-.75-.66.66.66,0,0,1,.7-.66h0c.12,0,.21,0,.21-.15v-.91c0-1.32,0-2.9,0-2.9,0-.2,0-.22-.24-.22h-.49a.62.62,0,0,1-.63-.66.64.64,0,0,1,.63-.69h.51c.14,0,.22,0,.22-.18s0-.3,0-.66a2.56,2.56,0,0,1,2.53-2.88c.49,0,.87.15.87.67a.67.67,0,0,1-.67.7h-.16c-1.12,0-1.14,1.22-1.14,1.66,0,.24,0,.37,0,.55s.1.14.2.14h1.07a.68.68,0,0,1,0,1.35Z" transform="translate(-407.35 -343.6)"/><path class="cls-2" d="M524.89,348.79c-.14,0-.18,0-.18.22,0,0,0,2.48,0,3.81,0,.14.13.15.24.15a.65.65,0,0,1,.77.65.68.68,0,0,1-.74.67h-1.92a.64.64,0,0,1-.75-.66.66.66,0,0,1,.7-.66h.05c.11,0,.21,0,.21-.15v-.91c0-1.32,0-2.9,0-2.9,0-.2,0-.22-.24-.22h-.49a.62.62,0,0,1-.63-.66.64.64,0,0,1,.63-.69h.5c.14,0,.23,0,.23-.18s0-.3,0-.66a2.56,2.56,0,0,1,2.54-2.88c.49,0,.87.15.87.67a.67.67,0,0,1-.67.7h-.16c-1.12,0-1.15,1.22-1.15,1.66a4.53,4.53,0,0,0,0,.55c0,.14.09.14.19.14H526a.68.68,0,0,1,0,1.35Z" transform="translate(-407.35 -343.6)"/><path class="cls-2" d="M530.84,354.45a3.32,3.32,0,0,1-3.35-3.53,3.4,3.4,0,0,1,3.32-3.62,2.84,2.84,0,0,1,3,2.48,1.21,1.21,0,0,1-1.33,1.22h-3.45c-.08,0-.11.12-.11.27a1.84,1.84,0,0,0,1.9,1.86,2.35,2.35,0,0,0,1.82-.85.63.63,0,0,1,.48-.23.76.76,0,0,1,.74.73.64.64,0,0,1-.21.49A3.53,3.53,0,0,1,530.84,354.45Zm1.54-4.91c0-.19-.3-1-1.55-1a1.85,1.85,0,0,0-1.76,1.22c0,.12.14.12,1.45.12h1.58A.29.29,0,0,0,532.38,349.54Z" transform="translate(-407.35 -343.6)"/><path class="cls-2" d="M538.41,354.45a3.32,3.32,0,0,1-3.35-3.53,3.41,3.41,0,0,1,3.32-3.62,2.83,2.83,0,0,1,3,2.48,1.21,1.21,0,0,1-1.33,1.22h-3.45c-.08,0-.11.12-.11.27a1.85,1.85,0,0,0,1.91,1.86,2.38,2.38,0,0,0,1.82-.85.62.62,0,0,1,.47-.23.77.77,0,0,1,.75.73.68.68,0,0,1-.21.49A3.55,3.55,0,0,1,538.41,354.45Zm1.54-4.91c0-.19-.29-1-1.55-1a1.83,1.83,0,0,0-1.75,1.22c0,.12.14.12,1.44.12h1.58A.29.29,0,0,0,540,349.54Z" transform="translate(-407.35 -343.6)"/></g></g></svg>