<svg id="レイヤー_1" data-name="レイヤー 1" xmlns="http://www.w3.org/2000/svg" viewBox="0 0 174.7 56.74"><defs><style>.cls-1{isolation:isolate;}.cls-2{fill:#040000;}.cls-3{fill:none;stroke:#121212;}</style></defs><g id="学生の力を_学生の力で届ける" data-name="学生の力を 学生の力で届ける" class="cls-1"><g class="cls-1"><path class="cls-2" d="M329.28,340.86a4.21,4.21,0,0,1,0,.62,2.89,2.89,0,0,1-3,3.17c-1.09,0-1.68-.3-1.68-.85a.64.64,0,0,1,.66-.65.86.86,0,0,1,.22,0,3.08,3.08,0,0,0,.93.16c1.56,0,1.56-1.88,1.56-2a2.52,2.52,0,0,0,0-.48l-5.94,0a.6.6,0,0,1-.64-.61.62.62,0,0,1,.63-.65l5.18,0a2.12,2.12,0,0,0-.56-.29c-.29-.1-.42-.29-.42-.47a.7.7,0,0,1,.74-.59,1.82,1.82,0,0,1,.83.28c.36-.23,1.11-.75,1.11-.92s-.06-.08-.16-.08a7.22,7.22,0,0,0-.74,0c-.9,0-2.26,0-3.24.07h0a.58.58,0,0,1-.63-.59.61.61,0,0,1,.64-.59c.6,0,1.36,0,2.1,0l2.69,0c.8,0,1.14.43,1.14.86,0,.69-.75,1.26-2,2.05a3,3,0,0,1,.2.29l4.17,0a.61.61,0,0,1,.62.64.59.59,0,0,1-.6.62Zm2.31-4.48c0-.59-.3-.69-.88-.7-1.12,0-2.38,0-3.6,0-1,0-2,0-2.84,0s-.9.21-.94.7v.83a.65.65,0,0,1-.71.61.64.64,0,0,1-.68-.63c0-.18,0-.39,0-.61s0-.48,0-.69a1.47,1.47,0,0,1,1.64-1.34l1.18,0a.55.55,0,0,1-.18-.19,4.11,4.11,0,0,0-1-1,.48.48,0,0,1-.19-.37.71.71,0,0,1,.72-.6,2.47,2.47,0,0,1,1.62,1.56.74.74,0,0,1-.4.61H329a7,7,0,0,0,1-1.85.65.65,0,0,1,.63-.45.76.76,0,0,1,.79.69,4.25,4.25,0,0,1-1,1.62l1,0a1.48,1.48,0,0,1,1.63,1.33c0,.19,0,.49,0,.75s0,.38,0,.52a.7.7,0,0,1-.75.62.63.63,0,0,1-.7-.59v-.8Zm-4-1.92a.5.5,0,0,1-.48-.33,3.86,3.86,0,0,0-.82-1.21.47.47,0,0,1-.13-.31c0-.29.35-.54.72-.54.71,0,1.48,1.37,1.48,1.69A.79.79,0,0,1,327.63,334.46Z" transform="translate(-321.37 -288.03)"/><path class="cls-2" d="M336.05,344a.59.59,0,0,1-.65-.6.64.64,0,0,1,.65-.67h4.78v-2.52l-2.63,0a.6.6,0,0,1-.66-.61.64.64,0,0,1,.66-.64h2.63V336.9h-2.49a16.53,16.53,0,0,1-1.56,2.29.81.81,0,0,1-.61.32.66.66,0,0,1-.68-.63.7.7,0,0,1,.19-.45,12.62,12.62,0,0,0,2.49-4.58.63.63,0,0,1,.64-.48.73.73,0,0,1,.79.65,1,1,0,0,1,0,.21c-.19.49-.38,1-.59,1.43h1.86v-2.49a.72.72,0,0,1,.73-.77.71.71,0,0,1,.71.77v2.49h3.79a.62.62,0,1,1,0,1.24h-3.79V339h2.83a.63.63,0,1,1,0,1.25l-2.83,0v2.52H347a.61.61,0,0,1,.63.64.59.59,0,0,1-.63.63Z" transform="translate(-321.37 -288.03)"/><path class="cls-2" d="M358.6,338.45a3,3,0,0,0-3.25-2.88h0a.63.63,0,0,1,.39.59v.07c0,1.47-1.44,4-3,5.53a1.5,1.5,0,0,1-1.05.48c-1,0-1.89-1.12-1.89-2.65,0-2.54,2.49-5.11,5.64-5.11,2.83,0,4.6,1.87,4.6,4.06a4.27,4.27,0,0,1-.31,1.58c-1.23,3.11-5,3.55-5.24,3.55a.74.74,0,0,1-.8-.69c0-.31.24-.6.77-.7C357,341.86,358.6,340.29,358.6,338.45Zm-4.05-2.81a4.57,4.57,0,0,0-3.5,3.88c0,1.05.7,1.18.74,1.18a.37.37,0,0,0,.27-.12c.42-.37,2.17-2.45,2.23-4.34A.73.73,0,0,1,354.55,335.64Z" transform="translate(-321.37 -288.03)"/><path class="cls-2" d="M371.34,335.11a1.67,1.67,0,0,1,1.86,1.73c0,.37,0,.86,0,1.4,0,3.38-.63,6.13-3.81,6.13a6.45,6.45,0,0,1-1.62-.23.73.73,0,0,1-.55-.71.66.66,0,0,1,.66-.7,1,1,0,0,1,.24,0,4.57,4.57,0,0,0,1.26.2c1,0,2.4-.42,2.4-4.65,0-1.5,0-1.92-.7-1.92h-2.6c-.37,3.46-1.63,6.6-5.35,8.13a1,1,0,0,1-.33.07.76.76,0,0,1-.73-.78.69.69,0,0,1,.46-.64c3.17-1.27,4.2-3.85,4.51-6.76-1.89,0-3.67,0-3.67,0h0a.65.65,0,0,1,0-1.29l3.76,0c0-.69,0-1.4,0-2.1v0a.71.71,0,0,1,.76-.68.66.66,0,0,1,.71.66c0,.71,0,1.41,0,2.13Z" transform="translate(-321.37 -288.03)"/><path class="cls-2" d="M381.9,340.23a7,7,0,0,1,0,.77.84.84,0,0,1-.76.86.58.58,0,0,1-.57-.66v-.13a7.81,7.81,0,0,0,0-.94c-.29.16-1.59.85-1.59,1.73,0,.24.11,1.06,1.54,1.06a6.71,6.71,0,0,0,1.76-.29,1.22,1.22,0,0,1,.35-.06.68.68,0,0,1,.73.66c0,.3-.11,1-2.51,1s-3.14-1.2-3.14-2.23c0-1.71,2-2.77,2.72-3.15-.17-.55-.45-.83-.82-.83a1.35,1.35,0,0,0-.73.26c-.59.65-.94.85-1.25.85a.55.55,0,0,1-.6-.53.77.77,0,0,1,.32-.58,7.13,7.13,0,0,0,1.79-2.12,4.19,4.19,0,0,1-.68,0c-1.42,0-1.43-.78-1.43-.9a.59.59,0,0,1,.57-.61.88.88,0,0,1,.51.18,1,1,0,0,0,.52.11,5.24,5.24,0,0,0,1.1-.15,5.21,5.21,0,0,0,.25-1.11.55.55,0,0,1,.59-.49.71.71,0,0,1,.76.62,2.55,2.55,0,0,1-.09.52c.43-.21.48-.23.58-.23a.61.61,0,0,1,.6.62c0,.46-.36.74-1.82,1.09a15.17,15.17,0,0,1-.8,1.4,1.89,1.89,0,0,1,1.77,1.32,16.08,16.08,0,0,1,3.23-1.14.75.75,0,0,1,.79.73.58.58,0,0,1-.38.55c-.44.18-.9.24-1.63.46s-1.19.41-1.73.63A4.86,4.86,0,0,1,381.9,340.23Z" transform="translate(-321.37 -288.03)"/><path class="cls-2" d="M388.86,344.35a5.36,5.36,0,0,0-1.72-1.47.64.64,0,0,1-.38-.56.63.63,0,0,1,.66-.62c.49,0,2.73,1.24,2.73,2.19a.77.77,0,0,1-.75.77A.65.65,0,0,1,388.86,344.35Z" transform="translate(-321.37 -288.03)"/><path class="cls-2" d="M401.8,340.86a4.21,4.21,0,0,1,.05.62,2.9,2.9,0,0,1-3,3.17c-1.09,0-1.68-.3-1.68-.85a.64.64,0,0,1,.66-.65.86.86,0,0,1,.22,0,3.08,3.08,0,0,0,.93.16c1.56,0,1.56-1.88,1.56-2a2.52,2.52,0,0,0,0-.48l-5.94,0a.6.6,0,0,1-.64-.61.62.62,0,0,1,.63-.65l5.18,0a2.12,2.12,0,0,0-.56-.29c-.29-.1-.42-.29-.42-.47a.7.7,0,0,1,.74-.59,1.82,1.82,0,0,1,.83.28c.36-.23,1.11-.75,1.11-.92s-.06-.08-.16-.08a7.22,7.22,0,0,0-.74,0c-.9,0-2.25,0-3.24.07h0a.58.58,0,0,1-.63-.59.61.61,0,0,1,.64-.59c.6,0,1.36,0,2.1,0l2.69,0c.8,0,1.14.43,1.14.86,0,.69-.75,1.26-2,2.05a3,3,0,0,1,.2.29l4.17,0a.61.61,0,0,1,.62.64.59.59,0,0,1-.6.62Zm2.31-4.48c0-.59-.3-.69-.88-.7-1.12,0-2.38,0-3.6,0-1,0-2,0-2.84,0s-.9.21-.94.7v.83a.65.65,0,0,1-.71.61.64.64,0,0,1-.68-.63c0-.18,0-.39,0-.61s0-.48,0-.69a1.47,1.47,0,0,1,1.64-1.34l1.18,0a.55.55,0,0,1-.18-.19,4.11,4.11,0,0,0-1-1,.48.48,0,0,1-.19-.37.71.71,0,0,1,.72-.6,2.47,2.47,0,0,1,1.62,1.56.74.74,0,0,1-.4.61h3.68a7,7,0,0,0,1-1.85.65.65,0,0,1,.63-.45.76.76,0,0,1,.79.69,4.25,4.25,0,0,1-1,1.62l1,0a1.48,1.48,0,0,1,1.63,1.33c0,.19,0,.49,0,.75s0,.38,0,.52a.7.7,0,0,1-.75.62.63.63,0,0,1-.7-.59v-.8Zm-4-1.92a.5.5,0,0,1-.48-.33,3.86,3.86,0,0,0-.82-1.21.47.47,0,0,1-.13-.31c0-.29.35-.54.72-.54.71,0,1.48,1.37,1.48,1.69A.79.79,0,0,1,400.15,334.46Z" transform="translate(-321.37 -288.03)"/><path class="cls-2" d="M408.58,344a.59.59,0,0,1-.66-.6.65.65,0,0,1,.66-.67h4.77v-2.52l-2.63,0a.6.6,0,0,1-.66-.61.64.64,0,0,1,.66-.64h2.63V336.9h-2.49a16.53,16.53,0,0,1-1.56,2.29.81.81,0,0,1-.61.32.65.65,0,0,1-.67-.63.69.69,0,0,1,.18-.45,12.62,12.62,0,0,0,2.49-4.58.63.63,0,0,1,.64-.48.73.73,0,0,1,.79.65.59.59,0,0,1,0,.21c-.18.49-.38,1-.59,1.43h1.86v-2.49a.72.72,0,0,1,.73-.77.71.71,0,0,1,.71.77v2.49h3.79a.62.62,0,1,1,0,1.24h-3.79V339h2.83a.63.63,0,1,1,0,1.25l-2.83,0v2.52h4.68a.61.61,0,0,1,.63.64.59.59,0,0,1-.63.63Z" transform="translate(-321.37 -288.03)"/><path class="cls-2" d="M431.12,338.45a3,3,0,0,0-3.25-2.88h0a.63.63,0,0,1,.39.59v.07c0,1.47-1.44,4-3,5.53a1.5,1.5,0,0,1-1.05.48c-1,0-1.89-1.12-1.89-2.65,0-2.54,2.49-5.11,5.64-5.11,2.83,0,4.6,1.87,4.6,4.06a4.27,4.27,0,0,1-.31,1.58c-1.23,3.11-5,3.55-5.24,3.55a.74.74,0,0,1-.8-.69c0-.31.24-.6.77-.7C429.52,341.86,431.12,340.29,431.12,338.45Zm-4.05-2.81a4.57,4.57,0,0,0-3.5,3.88c0,1.05.7,1.18.74,1.18a.37.37,0,0,0,.27-.12c.42-.37,2.17-2.45,2.23-4.34A.73.73,0,0,1,427.07,335.64Z" transform="translate(-321.37 -288.03)"/><path class="cls-2" d="M443.86,335.11a1.67,1.67,0,0,1,1.86,1.73c0,.37,0,.86,0,1.4,0,3.38-.64,6.13-3.81,6.13a6.46,6.46,0,0,1-1.63-.23.73.73,0,0,1-.55-.71.66.66,0,0,1,.66-.7,1,1,0,0,1,.24,0,4.57,4.57,0,0,0,1.26.2c1,0,2.4-.42,2.4-4.65,0-1.5,0-1.92-.7-1.92H441c-.37,3.46-1.63,6.6-5.35,8.13a1,1,0,0,1-.33.07.76.76,0,0,1-.73-.78.69.69,0,0,1,.46-.64c3.17-1.27,4.2-3.85,4.51-6.76-1.89,0-3.67,0-3.67,0h0a.65.65,0,0,1,0-1.29l3.76,0c0-.69,0-1.4,0-2.1v0a.71.71,0,0,1,.76-.68.66.66,0,0,1,.71.66c0,.71,0,1.41,0,2.13Z" transform="translate(-321.37 -288.03)"/><path class="cls-2" d="M456.63,343.79h-.14c-3-.28-5-2.38-5-4.54a3.9,3.9,0,0,1,1-2.56c0-.06.07-.1.07-.13l0,0a.39.39,0,0,0-.14,0c-2.2,1.14-2.47,1.22-2.77,1.22a.8.8,0,0,1-.86-.76.79.79,0,0,1,.65-.72c.29-.1,1.09-.34,1.51-.5.66-.23,1.82-.6,3.21-1.14a10.58,10.58,0,0,1,3.71-.87c.7,0,.95.32.95.68,0,.72-.59.87-1.12.87h-.32a1.94,1.94,0,0,0-.34,0c-2.17,0-4.3,1.85-4.3,3.73,0,1.68,1.6,3.11,3.8,3.11.7,0,1,.41,1,.83S457.27,343.79,456.63,343.79Zm1.2-4.92a5,5,0,0,0-1.19-.86.48.48,0,0,1-.35-.44.59.59,0,0,1,.62-.54c.18,0,1.89.64,1.89,1.37a.67.67,0,0,1-.6.66A.48.48,0,0,1,457.83,338.87Zm1.61-1.16a4.75,4.75,0,0,0-1.22-.82.49.49,0,0,1-.36-.44.61.61,0,0,1,.62-.56c.22,0,1.9.6,1.9,1.33a.65.65,0,0,1-.59.66A.55.55,0,0,1,459.44,337.71Z" transform="translate(-321.37 -288.03)"/><path class="cls-2" d="M469.41,338c.62,0,1.23,0,1.81,0,1,0,1.55.6,1.58,1.26s.05,1.46.05,2.2c0,.48,0,.94,0,1.42a1.5,1.5,0,0,1-1.59,1.34c-.84,0-1.64,0-2.43,0s-1.55,0-2.35,0c-1,0-1.54-.57-1.57-1.33,0-.5,0-1,0-1.58,0-.69,0-1.39.05-2s.42-1.25,1.56-1.29c.53,0,1.11,0,1.69,0v-1a.52.52,0,0,1,.37-.53h-4.05v.23c0,2.58-.24,5.21-1.64,7a.86.86,0,0,1-.67.36.7.7,0,0,1-.72-.67.78.78,0,0,1,.19-.48,8.76,8.76,0,0,0,1.45-5.56c0-1.05-.07-2.11-.08-3.19v0a1.4,1.4,0,0,1,1.55-1.44c.89,0,2.12,0,3.35,0s2.5,0,3.41,0c1.21,0,1.48.61,1.54,1,0,.2,0,.67,0,1.07,0,.84-.06,1.62-1.74,1.66l-2.13,0a.53.53,0,0,1,.41.53Zm-5-2.74h2.38c1.59,0,3.11,0,4.16-.05.33,0,.47-.17.49-.34v-.7c0-.27-.2-.35-.52-.36-.77,0-1.74,0-2.72,0-1.19,0-2.38,0-3.22,0-.39,0-.6.16-.6.54Zm3.69,3.75c-.47,0-.93,0-1.37,0-.64,0-.68.29-.68,1.51h2.05Zm0,2.57h-2.05c0,.35,0,.7,0,1.07s.27.55.7.56.88,0,1.36,0Zm1.28,0v1.65c.51,0,1,0,1.49,0s.66-.16.68-.57,0-.71,0-1.06Zm2.16-1c0-.32,0-.63,0-.95,0-.57-.21-.59-2.14-.59v1.54Z" transform="translate(-321.37 -288.03)"/><path class="cls-2" d="M478.31,334.18c0,.42-.15,1.07-.24,1.75a17.81,17.81,0,0,0-.14,2.06,10.46,10.46,0,0,0,.65,3.8.93.93,0,0,1,.05.32.71.71,0,0,1-.73.71.77.77,0,0,1-.72-.54,10.33,10.33,0,0,1-.55-3.69c0-1,.07-1.93.13-2.66s.12-1.23.16-1.8a.7.7,0,0,1,1.39,0Zm4.37,2.75a16.82,16.82,0,0,1-2.32.36.7.7,0,0,1-.75-.68c0-.31.24-.62.75-.62a8.57,8.57,0,0,0,2.49-.32c0-.8-.07-1.39-.11-1.74,0,0,0-.08,0-.11a.62.62,0,0,1,.68-.63.75.75,0,0,1,.79.64,4.27,4.27,0,0,1,0,.53c0,.28,0,.63,0,1a4.51,4.51,0,0,1,1-.15c.48,0,.71.28.71.57a.77.77,0,0,1-.73.72c-.31,0-.63.08-1,.14,0,.47,0,1,.05,1.59,0,.16,0,.31,0,.45a6.14,6.14,0,0,1-3.73,6,1,1,0,0,1-.36.08.7.7,0,0,1-.71-.69.63.63,0,0,1,.44-.58,5,5,0,0,0,3-5c0-.18,0-1.06,0-1.59Z" transform="translate(-321.37 -288.03)"/><path class="cls-2" d="M494.67,340.25c0-1.47-1.78-1.47-1.91-1.47a4.58,4.58,0,0,0-3.35,1.86.69.69,0,0,1-.56.28.72.72,0,0,1-.74-.67.83.83,0,0,1,.28-.58,36.9,36.9,0,0,0,4.06-4.63s0-.05,0-.05l-.1,0a7.09,7.09,0,0,1-2.8,1,.69.69,0,0,1-.73-.68.6.6,0,0,1,.59-.62,13.08,13.08,0,0,0,3.55-.95,1.16,1.16,0,0,1,.5-.11.88.88,0,0,1,.92.82.94.94,0,0,1-.32.69c-.95.91-2,2.1-2.91,3.08a3.67,3.67,0,0,1,2-.56,2.7,2.7,0,0,1,3,2.47c0,1.87-1.94,3.67-4.36,3.67-1.68,0-2.56-1-2.56-1.8a1.44,1.44,0,0,1,1.57-1.31,2,2,0,0,1,2.18,1.75A2.77,2.77,0,0,0,494.67,340.25Zm-3.83,1.5c-.47,0-.49.3-.49.36,0,.55.95.62,1.3.62h.1C491.71,342.12,491.4,341.75,490.84,341.75Z" transform="translate(-321.37 -288.03)"/></g></g><line id="線_2" data-name="線 2" class="cls-3" x1="14.61" y1="19.09" x2="160.61" y2="19.09"/><g id="Episode_3_MEDIA" data-name="Episode 3 MEDIA" class="cls-1"><g class="cls-1"><path class="cls-2" d="M349.32,297.31c2.24,0,2.33-.06,2.58-.91a.72.72,0,0,1,.7-.55.75.75,0,0,1,.77.74,3.82,3.82,0,0,1-.28.91c-.28.73-.8,1.21-2.28,1.21l-2.79,0c-.67,0-1.3,0-1.82,0a.75.75,0,0,1-.84-.73.72.72,0,0,1,.77-.73h.14c.24,0,.31-.07.32-.28.07-.92.09-3.55.09-5.58v-1.49c0-.21-.06-.32-.37-.32s-.9-.07-.9-.72a.73.73,0,0,1,.79-.71h.05c.38,0,.86,0,1.38,0,1,0,2.22,0,3,0,1.72,0,1.93.63,2.22,1.68a1.21,1.21,0,0,1,.06.31.73.73,0,0,1-.77.73.72.72,0,0,1-.74-.62c-.1-.5-.27-.7-1-.7h-1.85c-.28,0-.36.05-.38.36,0,.63,0,1.61,0,2.55,0,.14.07.18.2.18h1.4c.24,0,.28-.21.28-.45a.72.72,0,0,1,.73-.77.66.66,0,0,1,.68.71v.06c0,.32,0,.7,0,1.06s0,.87,0,1.18v.06a.71.71,0,0,1-1.41,0v-.06c0-.05,0-.13,0-.18s0-.3-.29-.3h-1.4c-.17,0-.21.07-.21.22,0,1.28,0,2.44,0,2.76S348.24,297.31,349.32,297.31Z" transform="translate(-321.37 -288.03)"/><path class="cls-2" d="M354.61,302.25a.67.67,0,0,1-.05-1.33h.14c.36,0,.4-.17.4-.56s0-.74,0-1.15c0-1.71-.05-3.85-.06-5.41,0-.32-.14-.49-.42-.49h-.07a.63.63,0,0,1-.64-.67c0-.54.36-.77,1-.77a1.3,1.3,0,0,1,1.36.8s0,.07.06.07.05,0,.08-.07a2.8,2.8,0,0,1,2.1-.88,3.31,3.31,0,0,1,3.39,3.51,3.36,3.36,0,0,1-3.39,3.52,2.87,2.87,0,0,1-2-.76.12.12,0,0,0-.07,0s0,0,0,.06c0,.89,0,1.64,0,2.3,0,.3,0,.48.57.48a.62.62,0,0,1,.63.67.68.68,0,0,1-.7.7Zm5.9-6.95a2,2,0,1,0-2,2.24A2,2,0,0,0,360.51,295.3Z" transform="translate(-321.37 -288.03)"/><path class="cls-2" d="M364.06,291.84c1,0,1.45.49,1.45,1.5v.06c0,1.93-.06,3-.06,3.67a.23.23,0,0,0,.24.26.7.7,0,1,1,0,1.39h-2.05a.68.68,0,0,1-.8-.68.7.7,0,0,1,.74-.71h.23c.18,0,.24,0,.24-.29,0-.64,0-1.5,0-2.46v-.71c0-.39,0-.54-.39-.54h-.14a.65.65,0,0,1-.64-.72.71.71,0,0,1,.68-.77Zm-.52-2.83a1,1,0,0,1,1-.95,1,1,0,0,1,1,.95,1,1,0,0,1-1,1A.94.94,0,0,1,363.54,289Z" transform="translate(-321.37 -288.03)"/><path class="cls-2" d="M371.86,292.43c0,.24,0,.44,0,.63s0,.27,0,.41a.6.6,0,0,1-.66.63.64.64,0,0,1-.7-.62v0c0-.49-.82-.49-.88-.49-.49,0-.75.28-.75.59a.77.77,0,0,0,.47.65c.38.19,1,.46,1.42.68a2.06,2.06,0,0,1-1,4,2.52,2.52,0,0,1-1.14-.23.45.45,0,0,0-.11,0,.18.18,0,0,0-.11.05.8.8,0,0,1-.48.14.63.63,0,0,1-.7-.59v0a4.54,4.54,0,0,0,0-.49c0-.2,0-.38,0-.62v0a.63.63,0,0,1,.69-.62.67.67,0,0,1,.7.66.23.23,0,0,0,.13.22,1.42,1.42,0,0,0,.92.3c1,0,1.05-.59,1.05-.74,0-.4-.25-.72-1.95-1.47a1.91,1.91,0,0,1-1.26-1.74,2,2,0,0,1,2.13-1.88,2.24,2.24,0,0,1,.86.17h.09a.38.38,0,0,0,.19,0,.73.73,0,0,1,.39-.1.66.66,0,0,1,.71.65Z" transform="translate(-321.37 -288.03)"/><path class="cls-2" d="M373.26,295.29a3.53,3.53,0,1,1,7.05,0,3.53,3.53,0,1,1-7.05,0Zm5.63,0a2.11,2.11,0,1,0-2.1,2.24A2.11,2.11,0,0,0,378.89,295.29Z" transform="translate(-321.37 -288.03)"/><path class="cls-2" d="M386.54,288.17H387c1.07,0,1.42.5,1.42,1.47v.11c-.05,1.22-.06,3.1-.06,4.78,0,.84,0,1.64,0,2.27,0,.32.16.49.44.49h.07a.63.63,0,0,1,.64.67c0,.46-.24.77-1,.77a1.37,1.37,0,0,1-1.35-.8s-.05-.07-.06-.07,0,0-.07.06a2.83,2.83,0,0,1-2.1.89,3.31,3.31,0,0,1-3.39-3.51,3.35,3.35,0,0,1,3.39-3.52,2.83,2.83,0,0,1,1.95.75h0s.07,0,.07-.07,0-1.26,0-2.13c0-.45,0-.71-.45-.71s-.84,0-.84-.69a.75.75,0,0,1,.77-.76Zm.44,7.12a2,2,0,1,0-2,2.21A2,2,0,0,0,387,295.29Z" transform="translate(-321.37 -288.03)"/><path class="cls-2" d="M393.73,298.86a3.32,3.32,0,0,1-3.35-3.53,3.4,3.4,0,0,1,3.32-3.61,2.83,2.83,0,0,1,3,2.48,1.21,1.21,0,0,1-1.33,1.22H392c-.08,0-.11.11-.11.27a1.84,1.84,0,0,0,1.9,1.86,2.32,2.32,0,0,0,1.82-.86.65.65,0,0,1,.48-.22.76.76,0,0,1,.74.73.65.65,0,0,1-.21.49A3.52,3.52,0,0,1,393.73,298.86Zm1.54-4.9c0-.2-.29-1-1.55-1a1.85,1.85,0,0,0-1.76,1.21c0,.13.14.13,1.45.13H395A.3.3,0,0,0,395.27,294Z" transform="translate(-321.37 -288.03)"/><path class="cls-2" d="M405.55,292.17a1.27,1.27,0,0,0,1.28-1.43v-.05a1.37,1.37,0,0,0-1.48-1.24,2,2,0,0,0-1.51.73.64.64,0,0,1-.48.21.8.8,0,0,1-.77-.76c0-.57,1.16-1.6,2.83-1.6a2.65,2.65,0,0,1,2.9,2.69,2.27,2.27,0,0,1-1.15,2.08,2.89,2.89,0,0,1,1.7,2.7,3.39,3.39,0,0,1-3.63,3.38c-2.13,0-3.35-1.28-3.35-1.9a.85.85,0,0,1,.81-.82.77.77,0,0,1,.55.26,2.36,2.36,0,0,0,2.06,1,2,2,0,0,0,2-1.92,1.68,1.68,0,0,0-1.86-1.88h-.13l-.21,0a.75.75,0,0,1-.73-.73.71.71,0,0,1,.72-.71Z" transform="translate(-321.37 -288.03)"/><path class="cls-2" d="M434.36,288.19h.25l1.12,0h0a.71.71,0,0,1,.75.74.68.68,0,0,1-.6.72c-.24,0-.25.09-.25.33,0,1.81.25,5.13.38,7.09,0,.15.09.2.28.21h.08a.71.71,0,0,1,.76.71.75.75,0,0,1-.79.75h-.05l-1.07,0c-.4,0-.8,0-1.13,0a.76.76,0,0,1-.84-.73.72.72,0,0,1,.77-.73h.15c.14,0,.24,0,.24-.22v0c-.13-2.31-.18-6.52-.18-6.52,0-.38-.07-.54-.14-.54s-.2.2-.27.5c-.31,1.16-1.75,5.72-2.32,7.24a1.21,1.21,0,0,1-1.08.78,1.06,1.06,0,0,1-1-.77c-.45-1.08-1.68-5.55-2.2-7.2-.07-.25-.16-.39-.23-.39s-.16.4-.18.53c-.08,1.16-.24,6-.24,6.37,0,.2.1.24.38.27h0a.73.73,0,1,1,0,1.46H427l-1.06,0c-.41,0-.8,0-1.14,0A.77.77,0,0,1,424,298a.73.73,0,0,1,.77-.73h.11c.19,0,.27-.07.28-.28.1-2.24.28-5.14.38-7v-.14c0-.15,0-.21-.22-.21-.84,0-.88-.51-.88-.74a.71.71,0,0,1,.74-.74h.08c.21,0,.48,0,.77,0l.63,0h.07a1.55,1.55,0,0,1,1.54,1.14c.27.84.72,2.37,1.14,3.75.85,2.8,1,3.17,1.15,3.17s.11-.06.15-.17c.53-1.29,1.64-5.21,2.2-6.82a1.49,1.49,0,0,1,1.44-1.05Z" transform="translate(-321.37 -288.03)"/><path class="cls-2" d="M441.6,297.31c2.24,0,2.32-.06,2.57-.91a.72.72,0,0,1,.7-.55.75.75,0,0,1,.77.74,3.41,3.41,0,0,1-.28.91c-.28.73-.8,1.21-2.28,1.21l-2.79,0c-.67,0-1.3,0-1.82,0a.75.75,0,0,1-.84-.73.73.73,0,0,1,.77-.73h.14c.24,0,.31-.07.32-.28.07-.92.09-3.55.09-5.58v-1.49c0-.21-.06-.32-.37-.32s-.89-.07-.89-.72a.72.72,0,0,1,.78-.71h.06c.38,0,.85,0,1.37,0,1,0,2.23,0,3,0,1.72,0,1.93.63,2.23,1.68a1.18,1.18,0,0,1,0,.31.76.76,0,0,1-1.51.11c-.1-.5-.27-.7-1-.7h-1.84c-.29,0-.37.05-.38.36,0,.63,0,1.61-.05,2.55,0,.14.08.18.2.18H442c.24,0,.28-.21.28-.45a.73.73,0,0,1,.73-.77.67.67,0,0,1,.69.71v.06c0,.32,0,.7,0,1.06s0,.87,0,1.18v.06a.71.71,0,0,1-1.42,0v-.06c0-.05,0-.13,0-.18s-.05-.3-.3-.3h-1.4c-.17,0-.21.07-.21.22,0,1.28,0,2.44,0,2.76S440.52,297.31,441.6,297.31Z" transform="translate(-321.37 -288.03)"/><path class="cls-2" d="M450.26,298.75c-.8,0-1.51,0-2.32,0h-.77a.73.73,0,0,1-.84-.73.74.74,0,0,1,.81-.74c.31,0,.35,0,.35-1v-.4c0-.62,0-1.36,0-2.12s0-1.51,0-2.15v-.4c0-.51,0-.94,0-1.2s0-.31-.25-.31h-.07a.74.74,0,1,1,0-1.47h.06l.88,0c.81,0,1.54-.06,2.36-.06.32,0,.64,0,1,0a5,5,0,0,1,5,5.25C456.42,298.72,451.8,298.75,450.26,298.75Zm-.12-9.18c-1,0-1,.06-1.06.44s0,1.11,0,2c0,1.84,0,4.25,0,4.8,0,.39.16.48,1.27.48,1.58,0,4.45-.05,4.45-3.9a3.49,3.49,0,0,0-3.52-3.82Z" transform="translate(-321.37 -288.03)"/><path class="cls-2" d="M458.37,297.21h.05c.2,0,.27-.07.27-.3,0-1.37,0-2.81,0-4.23,0-.92,0-1.85,0-2.71,0-.2-.05-.33-.26-.33h0l-.21,0a.76.76,0,0,1-.84-.74.73.73,0,0,1,.77-.75h.07c.29,0,.71,0,1.13,0s1.07,0,1.44,0h0a.75.75,0,1,1,0,1.49h-.25c-.23,0-.3.11-.3.31,0,.89,0,1.83,0,2.8,0,1.34,0,2.74,0,4.13,0,.14,0,.31.22.31l.24,0h0a.76.76,0,0,1,.83.76.74.74,0,0,1-.8.73h-.06c-.36,0-.78,0-1.2,0s-1,0-1.36,0h-.06a.75.75,0,1,1,0-1.49h.06Z" transform="translate(-321.37 -288.03)"/><path class="cls-2" d="M469.47,297.31a.22.22,0,0,0,.21-.23s-.36-1.23-.53-1.73a.23.23,0,0,0-.23-.2h-3.2c-.19,0-.24.06-.3.24-.14.47-.47,1.64-.47,1.64a.32.32,0,0,0,.32.28.71.71,0,0,1,.84.71.7.7,0,0,1-.77.7h-.06c-.35,0-.71,0-1.08,0s-.85,0-1.19,0H463a.71.71,0,0,1-.77-.71.7.7,0,0,1,.75-.7H463c.23,0,.37-.24.42-.42.82-2.54,2.12-6.2,2.68-7.85a1.21,1.21,0,0,1,1.15-.92,1.32,1.32,0,0,1,1.22,1c.74,2.13,2.11,6,2.8,7.81,0,.12.22.42.45.42a.73.73,0,0,1,.82.71.71.71,0,0,1-.78.7h-.06c-.35,0-.71,0-1.08,0s-.85,0-1.19,0a.72.72,0,0,1-.81-.7.71.71,0,0,1,.76-.71h.08Zm-1-3.51c.08,0,.12,0,.12-.07s-1-3.05-1.08-3.4-.15-.36-.22-.36-.15.14-.25.42c-.32.86-1.07,3.33-1.07,3.33s0,.06.14.08Z" transform="translate(-321.37 -288.03)"/></g></g></svg>