<svg id="レイヤー_1" data-name="レイヤー 1" xmlns="http://www.w3.org/2000/svg" viewBox="0 0 179.03 56.63"><defs><style>.cls-1{isolation:isolate;}.cls-2{fill:#040000;}.cls-3{fill:none;stroke:#121212;}</style></defs><g id="GUESTHOUSE_見出し" data-name="GUESTHOUSE 見出し"><g id="家族みたいな存在" class="cls-1"><g class="cls-1"><path class="cls-2" d="M433.9,392.39a8.41,8.41,0,0,0,.44,2.07,16.38,16.38,0,0,0,1.75-1.25.56.56,0,0,1,.38-.14.77.77,0,0,1,.75.72.61.61,0,0,1-.3.5,17,17,0,0,1-2.1,1.21,4.78,4.78,0,0,0,2.53,2.28.62.62,0,0,1,.46.59.74.74,0,0,1-.75.71,1,1,0,0,1-.33-.05c-2.33-.86-3.76-4.24-4-6.67h-.61l-.81.63a6.17,6.17,0,0,1,1.92,4.38,2.45,2.45,0,0,1-2.51,2.76c-.87,0-1.34-.24-1.34-.77a.54.54,0,0,1,.57-.56h.17a2.55,2.55,0,0,0,.59.07c.92,0,1.26-.64,1.26-1.73a4,4,0,0,0,0-.58,11.22,11.22,0,0,1-5.34,2.76.56.56,0,0,1-.6-.56.6.6,0,0,1,.53-.61,10.75,10.75,0,0,0,5.14-2.68,4,4,0,0,0-.24-.57,12.7,12.7,0,0,1-4.7,2.14.55.55,0,0,1-.58-.56.58.58,0,0,1,.49-.56,10.48,10.48,0,0,0,4.26-1.85,3.63,3.63,0,0,0-.48-.48,10.37,10.37,0,0,1-3.41,1.33.56.56,0,0,1-.61-.54.61.61,0,0,1,.51-.59,10,10,0,0,0,3.63-1.43l-1.92,0h0a.53.53,0,0,1-.58-.53.55.55,0,0,1,.6-.56h6.2a.56.56,0,0,1,.61.56.53.53,0,0,1-.58.53h0Zm-1.4-3.17c1.15,0,2.29,0,3.37,0a1.55,1.55,0,0,1,1.55,1.36c0,.19,0,.43,0,.65,0,.49,0,1.06-.74,1.06a.61.61,0,0,1-.67-.57v0c0-1.24,0-1.38-.88-1.4-1.12,0-2.47,0-3.77,0-1.08,0-2.12,0-3,0s-.88.21-.92.7v.74h0a.63.63,0,0,1-.69.58.62.62,0,0,1-.67-.61c0-.16,0-.36,0-.57s0-.42,0-.63a1.44,1.44,0,0,1,1.61-1.3c1.06,0,2.2,0,3.35,0l0-.9h0a.74.74,0,0,1,1.46,0h0Z" transform="translate(-390.96 -343.6)"/><path class="cls-2" d="M444.3,391.15l-1.76,0c0,.41-.06.85-.08,1.3.26,0,.54,0,.79,0,.56,0,1.43,0,1.43,1.24v.08c-.08,2.89-.21,6-2.34,6-.72,0-1.23-.26-1.23-.8a.56.56,0,0,1,.52-.61.71.71,0,0,1,.27.05.94.94,0,0,0,.4.1c.27,0,1.09,0,1.15-4.47a.39.39,0,0,0-.38-.45h-.71c-.24,2.3-.73,4.61-1.95,6.13a.71.71,0,0,1-1.25-.36.63.63,0,0,1,.14-.36c1.53-1.9,1.85-5,2-7.8h-1c-.05,0-.67,0-.67-.59a.65.65,0,0,1,.66-.64h0l1.4,0v-1.57a.69.69,0,0,1,1.37,0V390l1.25,0h0a.56.56,0,0,1,.59.6.6.6,0,0,1-.6.63Zm2.27-.42c-.95,1.71-1.23,1.81-1.55,1.81a.63.63,0,0,1-.66-.59.74.74,0,0,1,.17-.42,11.22,11.22,0,0,0,1.79-3.33.6.6,0,0,1,.58-.41.64.64,0,0,1,.68.6,5.59,5.59,0,0,1-.4,1.14l4,0a.62.62,0,0,1,0,1.23Zm4.47,5.4-2,0a4.28,4.28,0,0,0,2.5,2.6.65.65,0,0,1,.47.59.69.69,0,0,1-.73.66,4.49,4.49,0,0,1-3-2.73,4.66,4.66,0,0,1-3.2,2.87.65.65,0,0,1-.68-.64.62.62,0,0,1,.46-.59,3.92,3.92,0,0,0,2.55-2.76l-1.91,0h0a.53.53,0,0,1-.57-.55.55.55,0,0,1,.58-.56h2c0-.38,0-1,0-1.44h-.67c-.55.86-.8,1.14-1.17,1.14a.67.67,0,0,1-.68-.57.5.5,0,0,1,.18-.36,5.59,5.59,0,0,0,1.34-2.46.47.47,0,0,1,.49-.32c.34,0,.73.23.73.58a2.37,2.37,0,0,1-.31.87h3a.56.56,0,1,1,0,1.12h-1.58c0,.4,0,1-.07,1.44H451a.53.53,0,0,1,.55.56.52.52,0,0,1-.53.55Z" transform="translate(-390.96 -343.6)"/><path class="cls-2" d="M458.87,399.68a.71.71,0,0,1-.76-.67.69.69,0,0,1,.59-.64,5,5,0,0,0,3-2.22,13.38,13.38,0,0,0-3.33-.94c-1.34,1.74-2,2.05-2.83,2.05a1.6,1.6,0,0,1-1.74-1.5c0-.68.52-1.47,1.91-1.67A10.93,10.93,0,0,1,457,394a8.43,8.43,0,0,1,.86,0,14.85,14.85,0,0,0,1.92-3.42s0-.06,0-.06l-.11,0a3.08,3.08,0,0,1-1.09.24c-.59,0-1.16-.22-1.16-.81a.54.54,0,0,1,.53-.59l.18,0a2.79,2.79,0,0,0,.59.05,2.73,2.73,0,0,0,.66-.07,6.91,6.91,0,0,1,1.26-.21c.42,0,1,.2,1,.77a1.85,1.85,0,0,1-.29.87c-.48.79-1.28,2.1-2.13,3.32a16.39,16.39,0,0,1,3.09.83,5.08,5.08,0,0,0,.25-1.29.6.6,0,0,1,.64-.56.69.69,0,0,1,.71.71,8.24,8.24,0,0,1-.39,1.64,11.06,11.06,0,0,1,2.41,1.47.78.78,0,0,1,.29.62.75.75,0,0,1-.7.78.7.7,0,0,1-.52-.22,9.48,9.48,0,0,0-2-1.46A6.18,6.18,0,0,1,458.87,399.68Zm-3.84-4c0,.16.17.35.5.35s.6,0,1.44-.89C455.1,395.12,455,395.57,455,395.66Z" transform="translate(-390.96 -343.6)"/><path class="cls-2" d="M472.39,391.57a67,67,0,0,1-3.25,7.36.72.72,0,0,1-.67.39.67.67,0,0,1-.73-.6.81.81,0,0,1,.11-.4,42.91,42.91,0,0,0,3-6.33l-.15.05a4.59,4.59,0,0,1-1.19.18c-.14,0-1.24,0-1.24-.76a.66.66,0,0,1,.62-.71.78.78,0,0,1,.42.11.83.83,0,0,0,.36.08,6,6,0,0,0,1.64-.39,5.29,5.29,0,0,0,.1-1.12.71.71,0,0,1,.77-.66.6.6,0,0,1,.66.51,1.69,1.69,0,0,1,0,.23,2.53,2.53,0,0,1,0,.27,1,1,0,0,1,.18,0,.66.66,0,0,1,.66.65c0,.36-.25.61-1.29,1.07Zm4.27,7.89c-2.3,0-3.81-1.22-3.81-1.93a.74.74,0,0,1,.69-.75.67.67,0,0,1,.54.31c.54.72,1,.81,2.82.94a.69.69,0,0,1,.71.7C477.61,399.46,476.89,399.46,476.66,399.46Zm.81-5.27a7.88,7.88,0,0,0-2.47-.64,1.82,1.82,0,0,0-.48.05l-.16,0a.55.55,0,0,1-.53-.57c0-.23.07-.74,1.32-.74A7.93,7.93,0,0,1,478,393a.64.64,0,0,1,.45.61.69.69,0,0,1-.67.69A.8.8,0,0,1,477.47,394.19Z" transform="translate(-390.96 -343.6)"/><path class="cls-2" d="M484.79,398.3a2.62,2.62,0,0,1-1.66-.73,7.36,7.36,0,0,1-2.05-4.22c-.11-.53-.27-1.39-.27-1.5a.7.7,0,0,1,.71-.67.74.74,0,0,1,.7.66c.08.45.11.92.19,1.37.58,3.27,1.89,3.39,2,3.39s.26-.11.39-.45.22-.74.39-1.19a.55.55,0,0,1,.52-.39.76.76,0,0,1,.74.7s0,.07,0,.11c-.09.47-.37,1.38-.41,1.81A1.16,1.16,0,0,1,484.79,398.3Zm5.38-3.18a4.88,4.88,0,0,0-1.83-2.83.57.57,0,0,1-.24-.45.61.61,0,0,1,.63-.58.92.92,0,0,1,.59.24c.59.51,2.32,2.05,2.32,3.46a.76.76,0,0,1-.77.8A.7.7,0,0,1,490.17,395.12Z" transform="translate(-390.96 -343.6)"/><path class="cls-2" d="M498.42,390.61a37.47,37.47,0,0,1-2.83,5.36.79.79,0,0,1-.7.42.62.62,0,0,1-.66-.6.89.89,0,0,1,.15-.48,30.8,30.8,0,0,0,2.48-4.09,4.16,4.16,0,0,1-1.76.56c-.93,0-.93-.63-.93-.68a.64.64,0,0,1,.65-.66,1,1,0,0,1,.28,0,.58.58,0,0,0,.23,0,5.71,5.71,0,0,0,2-.73c0-.34,0-.66.06-1.08a.62.62,0,0,1,.65-.62.64.64,0,0,1,.68.61V389a.66.66,0,0,1,.15,0,.58.58,0,0,1,.56.58c0,.47-.6.84-1,1.06Zm-.41,9.27c-1.27,0-2.34-.91-2.34-1.71s1.23-1.61,3-1.61c.21,0,.43,0,.64,0-.09-1.12-.09-1.18-.09-1.33,0-.91.29-1.74,1.93-2.83a.29.29,0,0,0,.13-.17c0-.09-.13-.09-.19-.09a6,6,0,0,0-.89.17.65.65,0,0,1-.19,0,.48.48,0,0,1-.53-.46c0-.37.41-.79,1.87-.79,1,0,2.25.59,2.25,1.23a.71.71,0,0,1-.71.63,2.53,2.53,0,0,0-2.51,2.32,4.36,4.36,0,0,0,.07.68c0,.28.1.58.14.87.87.27,2.23.88,2.23,1.68a.69.69,0,0,1-.65.73.79.79,0,0,1-.57-.28,4.81,4.81,0,0,0-1.07-.76A2.75,2.75,0,0,1,498,399.88Zm.39-2.24c-.82,0-1.52.28-1.52.53s.49.55,1,.55a1.39,1.39,0,0,0,1.43-1A4.31,4.31,0,0,0,498.4,397.64Z" transform="translate(-390.96 -343.6)"/><path class="cls-2" d="M510.58,390.68a15.62,15.62,0,0,1-1.25,2.28l-.15,6.62a.64.64,0,0,1-.69.65.61.61,0,0,1-.65-.62v0l.14-4.79a11,11,0,0,1-1.59,1.48.87.87,0,0,1-.54.19.65.65,0,0,1-.68-.61.69.69,0,0,1,.33-.56,12.35,12.35,0,0,0,3.63-4.61h-2.72a.61.61,0,0,1-.66-.62.62.62,0,0,1,.66-.64h3.23c.16-.44.31-.87.42-1.29a.64.64,0,0,1,.65-.49.72.72,0,0,1,.77.64,7.26,7.26,0,0,1-.37,1.14H517a.6.6,0,0,1,.64.63.62.62,0,0,1-.64.63Zm4.55,5.56a3.82,3.82,0,0,1,0,.59c0,2.84-1.57,3.23-2.44,3.23-.29,0-1.54,0-1.54-.81a.7.7,0,0,1,.65-.73,1.09,1.09,0,0,1,.24,0,2,2,0,0,0,.71.16c.83,0,1.08-1,1.08-2a3.59,3.59,0,0,0,0-.47h-3.54a.55.55,0,0,1-.6-.56.59.59,0,0,1,.6-.62h3.08a.94.94,0,0,0-.42-.28.56.56,0,0,1-.41-.52.62.62,0,0,1,.65-.61,1.34,1.34,0,0,1,.74.3c.06,0,1-.71,1-.95,0,0,0-.07-.15-.07h-.31c-.75,0-2,0-3,.06h0a.59.59,0,0,1-.62-.59.6.6,0,0,1,.62-.6c.63,0,1.42,0,2.16,0s1.22,0,1.69,0c.81,0,1.28.42,1.28.92,0,.8-1.12,1.51-1.94,2a3.24,3.24,0,0,1,.17.32h2.41a.59.59,0,0,1,0,1.18Z" transform="translate(-390.96 -343.6)"/><path class="cls-2" d="M524.4,391.14a15.92,15.92,0,0,1-1,1.72l-.15,6.64a.63.63,0,0,1-.67.63.59.59,0,0,1-.65-.6v0l.13-4.8a10.08,10.08,0,0,1-1.63,1.52.91.91,0,0,1-.54.2.64.64,0,0,1-.66-.62.69.69,0,0,1,.32-.54,11.87,11.87,0,0,0,3.38-4.12h-2.44a.61.61,0,0,1-.66-.6.63.63,0,0,1,.66-.63h3c.22-.56.4-1.14.56-1.69a.64.64,0,0,1,.64-.49.71.71,0,0,1,.76.62,11,11,0,0,1-.53,1.56h6a.6.6,0,0,1,.65.6.62.62,0,0,1-.65.63Zm-.11,8.31a.59.59,0,0,1-.65-.59.63.63,0,0,1,.65-.63h2.62v-2.83h-2a.58.58,0,0,1-.64-.57.61.61,0,0,1,.64-.62h2v-1.93a.62.62,0,0,1,.66-.63.63.63,0,0,1,.67.63v1.93h2a.6.6,0,1,1,0,1.19h-2v2.83h2.7a.6.6,0,0,1,.62.61.58.58,0,0,1-.62.61Z" transform="translate(-390.96 -343.6)"/></g></g><line id="線_5" data-name="線 5" class="cls-3" x1="16.09" y1="19.1" x2="162.09" y2="19.1"/><g id="Episode_5_GUESTHOUSE" data-name="Episode 5 GUESTHOUSE" class="cls-1"><g class="cls-1"><path class="cls-2" d="M394.92,352.89c2.24,0,2.32-.06,2.58-.91a.71.71,0,0,1,.7-.55.75.75,0,0,1,.77.75,4.12,4.12,0,0,1-.28.91c-.28.72-.8,1.2-2.29,1.2h-2.78c-.68,0-1.31,0-1.82,0a.75.75,0,0,1-.84-.72.72.72,0,0,1,.77-.73h.14c.23,0,.3-.07.32-.28.07-.93.08-3.56.08-5.59v-1.49c0-.21,0-.32-.36-.32s-.9-.07-.9-.71a.73.73,0,0,1,.79-.72h.05c.38,0,.86,0,1.37,0,1,0,2.23,0,3,0,1.73,0,1.94.63,2.23,1.68a1.3,1.3,0,0,1,.06.31.77.77,0,0,1-1.52.11c-.09-.5-.26-.7-1-.7h-1.85c-.28,0-.37.06-.38.36,0,.64,0,1.62,0,2.55,0,.14.07.19.19.19.45,0,1.17,0,1.41,0s.28-.21.28-.45a.71.71,0,0,1,.72-.77.67.67,0,0,1,.69.72v.05c0,.33,0,.7,0,1.07s0,.87,0,1.17v.06a.71.71,0,0,1-1.41,0V350c0-.05,0-.12,0-.18s0-.29-.29-.29l-1.41,0c-.16,0-.21.07-.21.23,0,1.27,0,2.44,0,2.76S393.84,352.89,394.92,352.89Z" transform="translate(-390.96 -343.6)"/><path class="cls-2" d="M400.21,357.83a.67.67,0,0,1-.06-1.33h.14c.37,0,.41-.16.41-.56s0-.74,0-1.15c0-1.7,0-3.85,0-5.4,0-.32-.14-.49-.42-.49h-.07a.63.63,0,0,1-.65-.67c0-.55.37-.77,1-.77a1.31,1.31,0,0,1,1.36.79c0,.05,0,.07.05.07s.06,0,.09-.07a2.84,2.84,0,0,1,2.1-.88,3.32,3.32,0,0,1,3.39,3.52,3.35,3.35,0,0,1-3.39,3.51,2.87,2.87,0,0,1-2-.75.09.09,0,0,0-.07,0s0,0,0,.07c0,.88,0,1.64,0,2.3,0,.29,0,.47.58.47a.63.63,0,0,1,.63.67.68.68,0,0,1-.7.7Zm5.9-6.94a2,2,0,1,0-2,2.24A2,2,0,0,0,406.11,350.89Z" transform="translate(-390.96 -343.6)"/><path class="cls-2" d="M409.66,347.43c1,0,1.44.49,1.44,1.5V349c0,1.94-.05,3-.05,3.67a.24.24,0,0,0,.23.27.7.7,0,1,1,0,1.38h-2a.68.68,0,0,1-.8-.68.69.69,0,0,1,.74-.7h.23c.18,0,.23,0,.23-.3,0-.64,0-1.49,0-2.46v-.7c0-.39,0-.55-.39-.55h-.14a.66.66,0,0,1-.65-.71.71.71,0,0,1,.69-.77Zm-.52-2.83a1,1,0,0,1,1-1,1,1,0,1,1,0,1.94A.93.93,0,0,1,409.14,344.6Z" transform="translate(-390.96 -343.6)"/><path class="cls-2" d="M417.46,348c0,.23,0,.43,0,.63s0,.26,0,.4a.6.6,0,0,1-.66.63.64.64,0,0,1-.7-.61v0c0-.49-.83-.49-.88-.49-.49,0-.76.28-.76.59a.79.79,0,0,0,.48.64c.38.2,1,.46,1.41.69a2.05,2.05,0,0,1-1,4,2.62,2.62,0,0,1-1.13-.22.23.23,0,0,0-.11,0,.17.17,0,0,0-.11,0,.8.8,0,0,1-.48.14.63.63,0,0,1-.7-.59v0c0-.19,0-.35,0-.49s0-.38,0-.62v0a.63.63,0,0,1,.69-.61.66.66,0,0,1,.7.65.27.27,0,0,0,.12.23,1.45,1.45,0,0,0,.93.29c.95,0,1.05-.59,1.05-.74,0-.39-.26-.71-1.95-1.47a1.91,1.91,0,0,1-1.26-1.74,2,2,0,0,1,2.13-1.87,2.15,2.15,0,0,1,.85.16.18.18,0,0,0,.1,0,.44.44,0,0,0,.18,0,.74.74,0,0,1,.4-.1.65.65,0,0,1,.71.64Z" transform="translate(-390.96 -343.6)"/><path class="cls-2" d="M418.86,350.87a3.52,3.52,0,1,1,7,0,3.52,3.52,0,1,1-7,0Zm5.63,0a2.12,2.12,0,1,0-4.22,0,2.11,2.11,0,1,0,4.22,0Z" transform="translate(-390.96 -343.6)"/><path class="cls-2" d="M432.13,343.76l.48,0c1.06,0,1.41.51,1.41,1.47v.12c0,1.21,0,3.09,0,4.77,0,.84,0,1.64,0,2.27,0,.32.15.49.44.49h.06a.64.64,0,0,1,.65.68c0,.46-.24.76-1,.76a1.37,1.37,0,0,1-1.36-.79c0-.05,0-.07-.05-.07s0,0-.07.05a2.86,2.86,0,0,1-2.11.9,3.31,3.31,0,0,1-3.38-3.52,3.35,3.35,0,0,1,3.38-3.51,2.85,2.85,0,0,1,2,.74h0c.05,0,.07,0,.07-.07s.05-1.26.05-2.13c0-.44,0-.71-.45-.71s-.84,0-.84-.69a.74.74,0,0,1,.77-.75Zm.45,7.11a2,2,0,1,0-4,0,2,2,0,1,0,4,0Z" transform="translate(-390.96 -343.6)"/><path class="cls-2" d="M439.33,354.45a3.32,3.32,0,0,1-3.35-3.53,3.4,3.4,0,0,1,3.32-3.62,2.83,2.83,0,0,1,3,2.48A1.21,1.21,0,0,1,441,351h-3.44c-.09,0-.11.12-.11.27a1.84,1.84,0,0,0,1.9,1.86,2.38,2.38,0,0,0,1.82-.85.63.63,0,0,1,.48-.23.76.76,0,0,1,.74.73.68.68,0,0,1-.21.49A3.53,3.53,0,0,1,439.33,354.45Zm1.54-4.91c0-.19-.3-1-1.56-1a1.84,1.84,0,0,0-1.75,1.22c0,.12.14.12,1.44.12h1.59A.3.3,0,0,0,440.87,349.54Z" transform="translate(-390.96 -343.6)"/><path class="cls-2" d="M450.68,354.39c-1.61,0-3.07-.79-3.07-1.57a.72.72,0,0,1,1.21-.59,2.86,2.86,0,0,0,1.92.72A2.12,2.12,0,0,0,453,350.8a1.83,1.83,0,0,0-1.95-1.89,3.76,3.76,0,0,0-1.12.2,1.89,1.89,0,0,1-.55.19l-.21,0c-.62,0-1-.28-1-.94,0-.48.43-3.18.49-3.53a1.16,1.16,0,0,1,1.36-1.11h.09c.12,0,.45,0,2.93,0a.7.7,0,0,1,.73.73.69.69,0,0,1-.71.71h-2.71c-.28,0-.39.15-.43.4-.07.49-.28,1.61-.32,1.89,0,0,0,.07,0,.1s.06.17.14.17a1.32,1.32,0,0,0,.32-.07,4.91,4.91,0,0,1,1.05-.1,3.08,3.08,0,0,1,3.39,3.21A3.59,3.59,0,0,1,450.68,354.39Z" transform="translate(-390.96 -343.6)"/><path class="cls-2" d="M477.74,350.23c-.14,0-.85,0-1.62,0a.71.71,0,0,1-.7-.78.64.64,0,0,1,.66-.69h0c.34,0,.77,0,1.19,0l.81,0h.14c1.29,0,1.59.59,1.59,1.77,0,.1,0,1.2,0,2,0,.42,0,.77,0,.9v.09a.74.74,0,0,1-.76.73.7.7,0,0,1-.73-.74v-.15c0-.09,0-.17-.08-.17a.18.18,0,0,0-.14.07,4.53,4.53,0,0,1-3,1.11,5.08,5.08,0,0,1-5.09-5.3,5.25,5.25,0,0,1,5.28-5.5,4.18,4.18,0,0,1,2.31.61.14.14,0,0,0,.09,0s.08,0,.09-.11c0-.31.37-.48.73-.48s.79.21.79.66v.06c0,.29,0,.61,0,.93s0,.75,0,1v.05a.77.77,0,0,1-1.53.11,2.33,2.33,0,0,0-2.45-1.48,3.81,3.81,0,0,0-3.71,4,3.66,3.66,0,0,0,3.67,3.86,2.73,2.73,0,0,0,2.95-2.28c0-.28-.22-.42-.49-.42Z" transform="translate(-390.96 -343.6)"/><path class="cls-2" d="M488.54,345.21a.78.78,0,0,1-.84-.77.71.71,0,0,1,.77-.7h.07c.29,0,.66,0,1,0s.94,0,1.32,0h0a.75.75,0,0,1,.83.75.74.74,0,0,1-.8.72h-.2c-.12,0-.2,0-.2.24,0,.63,0,1.2,0,1.75,0,.9,0,1.75,0,2.76a4.16,4.16,0,0,1-4.23,4.51,4.11,4.11,0,0,1-4.19-4.38V350c0-1,0-2.1,0-3.15,0-.47,0-1,0-1.41,0-.14,0-.24-.18-.24h-.19a.73.73,0,0,1-.84-.74.72.72,0,0,1,.77-.73h.07c.29,0,.65,0,1,0s.94,0,1.31,0h0a.74.74,0,0,1,.81.75.72.72,0,0,1-.78.72h-.31c-.18,0-.21.07-.21.27v.67c0,1.08,0,2.14,0,3.23v.73a2.57,2.57,0,0,0,2.57,2.83A2.74,2.74,0,0,0,489,350c0-1.22,0-2.41,0-3.6v-.9c0-.22,0-.28-.25-.28Z" transform="translate(-390.96 -343.6)"/><path class="cls-2" d="M496.18,352.89c2.24,0,2.32-.06,2.58-.91a.71.71,0,0,1,.7-.55.75.75,0,0,1,.77.75,4.12,4.12,0,0,1-.28.91c-.28.72-.8,1.2-2.29,1.2h-2.78c-.67,0-1.31,0-1.82,0a.75.75,0,0,1-.84-.72.72.72,0,0,1,.77-.73h.14c.23,0,.3-.07.32-.28.07-.93.08-3.56.08-5.59v-1.49c0-.21,0-.32-.36-.32s-.9-.07-.9-.71a.73.73,0,0,1,.79-.72h.05c.38,0,.86,0,1.37,0,1,0,2.23,0,3,0,1.73,0,1.94.63,2.23,1.68a1.3,1.3,0,0,1,.06.31.77.77,0,0,1-1.52.11c-.09-.5-.26-.7-1-.7h-1.85c-.28,0-.37.06-.38.36,0,.64,0,1.62,0,2.55,0,.14.07.19.2.19.44,0,1.16,0,1.4,0s.28-.21.28-.45a.71.71,0,0,1,.72-.77.67.67,0,0,1,.69.72v.05c0,.33,0,.7,0,1.07s0,.87,0,1.17v.06a.71.71,0,0,1-1.41,0V350c0-.05,0-.12,0-.18s0-.29-.29-.29l-1.4,0c-.17,0-.22.07-.22.23,0,1.27,0,2.44,0,2.76S495.1,352.89,496.18,352.89Z" transform="translate(-390.96 -343.6)"/><path class="cls-2" d="M504.62,354.46a4.32,4.32,0,0,1-1.92-.42.21.21,0,0,0-.12,0,.18.18,0,0,0-.14.09.77.77,0,0,1-.62.29.69.69,0,0,1-.74-.69v-.06c0-.24,0-.53,0-.82s0-.76,0-1.05v0a.76.76,0,0,1,1.5,0v.12c0,.79,1.19,1.17,2,1.17,1.43,0,1.94-.91,1.94-1.54a1.88,1.88,0,0,0-1.08-1.58c-.62-.35-1.4-.79-2.15-1.12a2.67,2.67,0,0,1,1.24-5.16,3.69,3.69,0,0,1,1.55.34h.1a.2.2,0,0,0,.13,0,.82.82,0,0,1,.6-.22c.38,0,.75.19.75.59v0c0,.26,0,.53,0,.81s0,.63,0,.88c0,.53-.5.67-.75.67a.67.67,0,0,1-.74-.61V346c0-.05,0-.11,0-.15,0-.41-.64-.88-1.67-.88a1.32,1.32,0,0,0-1.48,1.21,1.49,1.49,0,0,0,.91,1.28c.59.31,1.54.74,2.2,1.09a3.32,3.32,0,0,1,2,2.86A3.28,3.28,0,0,1,504.62,354.46Z" transform="translate(-390.96 -343.6)"/><path class="cls-2" d="M512,345.13c-1.2,0-1.26,0-1.44.63,0,.13-.07.28-.13.45a.75.75,0,0,1-.74.57.73.73,0,0,1-.76-.73,1.27,1.27,0,0,1,.07-.36c.45-1.34.69-2,2.17-2h.27c.44,0,1.15,0,1.92,0,.94,0,2,0,2.59,0h.14c1.11,0,1.7.32,2,1.13.08.23.24.55.34.84a1,1,0,0,1,0,.33.77.77,0,0,1-1.51.18,3,3,0,0,0-.13-.42c-.21-.65-.35-.66-1.09-.66-1.15,0-1.16,0-1.16.31,0,1,0,2.53,0,4,0,1.08,0,2.14,0,3,0,.31.14.33.4.33a.75.75,0,0,1,.81.75.73.73,0,0,1-.77.74H515l-1.13,0-1.23,0a.73.73,0,0,1-.82-.74.72.72,0,0,1,.76-.75h.06c.25,0,.39,0,.39-.31,0-1.14,0-2.85,0-4.57,0-.85,0-1.71,0-2.49C513,345.13,513,345.13,512,345.13Z" transform="translate(-390.96 -343.6)"/><path class="cls-2" d="M528.89,352.83h0a.74.74,0,0,1,.82.75.73.73,0,0,1-.79.72h-.05l-1.14,0-1.23,0a.76.76,0,0,1-.84-.74.72.72,0,0,1,.77-.73h.07l.21,0a.22.22,0,0,0,.24-.24c0-.63,0-1.2,0-1.68s0-.87,0-1.12-.07-.28-.3-.3l-2,0-2.5,0a.25.25,0,0,0-.29.27c0,.34,0,1,0,1.74v1c0,.14,0,.28.23.28h.19a.74.74,0,1,1,0,1.47h0l-1.12,0-1.23,0h-.06a.74.74,0,1,1,0-1.47h.34a.2.2,0,0,0,.15-.22c0-1.41,0-3,0-4.51,0-.93,0-1.79,0-2.56,0-.17,0-.34-.21-.34h-.23a.73.73,0,0,1-.84-.74.72.72,0,0,1,.77-.73h.07c.29,0,.65,0,1,0s.94,0,1.32,0h0a.74.74,0,1,1,0,1.47h-.15c-.17,0-.28.05-.28.28,0,.51,0,1,0,1.38s0,.71,0,.94.13.28.25.28h4.62c.2,0,.26-.1.26-.27s0-.55,0-.95,0-.9,0-1.43c0-.21-.13-.24-.3-.24h-.15a.74.74,0,0,1-.84-.74.72.72,0,0,1,.77-.73h.07c.29,0,.66,0,1.05,0s.94,0,1.32,0h0a.74.74,0,0,1,.82.75.73.73,0,0,1-.79.72h-.14c-.15,0-.28.05-.28.24,0,.94,0,2.08,0,3.22,0,1.39,0,2.81,0,3.9,0,.17,0,.22.24.26Z" transform="translate(-390.96 -343.6)"/><path class="cls-2" d="M530.79,349a5.4,5.4,0,1,1,10.79,0,5.4,5.4,0,1,1-10.79,0Zm9.17,0a3.79,3.79,0,1,0-3.78,4A3.77,3.77,0,0,0,540,349Z" transform="translate(-390.96 -343.6)"/><path class="cls-2" d="M550.11,345.21a.78.78,0,0,1-.84-.77.71.71,0,0,1,.77-.7h.07c.29,0,.66,0,1,0s.93,0,1.31,0h0a.75.75,0,0,1,.83.75.74.74,0,0,1-.8.72h-.2c-.12,0-.19,0-.19.24,0,.63,0,1.2,0,1.75,0,.9,0,1.75,0,2.76a4.16,4.16,0,0,1-4.23,4.51,4.11,4.11,0,0,1-4.19-4.38V350c0-1,0-2.1,0-3.15,0-.47,0-1,0-1.41,0-.14,0-.24-.19-.24h-.19a.73.73,0,0,1-.84-.74.72.72,0,0,1,.77-.73h.07c.29,0,.66,0,1,0s.94,0,1.31,0h0a.74.74,0,0,1,.82.75.73.73,0,0,1-.79.72h-.31c-.18,0-.21.07-.21.27v.67c0,1.08,0,2.14,0,3.23v.73a2.57,2.57,0,0,0,2.57,2.83,2.74,2.74,0,0,0,2.72-2.94c0-1.22,0-2.41,0-3.6v-.9c0-.22,0-.28-.25-.28Z" transform="translate(-390.96 -343.6)"/><path class="cls-2" d="M557.67,354.46a4.29,4.29,0,0,1-1.92-.42.27.27,0,0,0-.13,0,.2.2,0,0,0-.14.09.76.76,0,0,1-.61.29.7.7,0,0,1-.75-.69v-.06c0-.24,0-.53,0-.82s0-.76,0-1.05v0a.69.69,0,0,1,.76-.67.67.67,0,0,1,.74.65v.12c0,.79,1.19,1.17,2,1.17,1.43,0,1.93-.91,1.93-1.54a1.86,1.86,0,0,0-1.08-1.58c-.61-.35-1.4-.79-2.14-1.12a2.79,2.79,0,0,1-1.79-2.52,2.76,2.76,0,0,1,3-2.64,3.74,3.74,0,0,1,1.56.34h.1a.17.17,0,0,0,.12,0,.84.84,0,0,1,.6-.22c.38,0,.76.19.76.59v0c0,.26,0,.53,0,.81s0,.63,0,.88c0,.53-.5.67-.76.67a.67.67,0,0,1-.74-.61V346c0-.05,0-.11,0-.15,0-.41-.65-.88-1.67-.88a1.32,1.32,0,0,0-1.49,1.21,1.49,1.49,0,0,0,.91,1.28c.59.31,1.55.74,2.2,1.09a3.32,3.32,0,0,1,2,2.86A3.27,3.27,0,0,1,557.67,354.46Z" transform="translate(-390.96 -343.6)"/><path class="cls-2" d="M565.94,352.89c2.24,0,2.33-.06,2.58-.91a.71.71,0,0,1,.7-.55.75.75,0,0,1,.77.75,4.12,4.12,0,0,1-.28.91c-.28.72-.8,1.2-2.28,1.2h-2.79c-.67,0-1.3,0-1.82,0a.75.75,0,0,1-.84-.72.72.72,0,0,1,.77-.73h.14c.24,0,.31-.07.32-.28.07-.93.08-3.56.08-5.59v-1.49c0-.21,0-.32-.36-.32s-.9-.07-.9-.71a.73.73,0,0,1,.79-.72h0c.38,0,.86,0,1.38,0,1,0,2.22,0,3,0,1.72,0,1.93.63,2.22,1.68a1.3,1.3,0,0,1,.06.31.73.73,0,0,1-.77.73.72.72,0,0,1-.74-.62c-.1-.5-.27-.7-1-.7h-1.85c-.28,0-.36.06-.38.36,0,.64,0,1.62,0,2.55,0,.14.07.19.2.19.44,0,1.16,0,1.4,0s.28-.21.28-.45a.72.72,0,0,1,.73-.77.67.67,0,0,1,.68.72v.05c0,.33,0,.7,0,1.07s0,.87,0,1.17v.06a.71.71,0,0,1-1.41,0V350c0-.05,0-.12,0-.18s0-.29-.29-.29l-1.4,0c-.17,0-.21.07-.21.23,0,1.27,0,2.44,0,2.76S564.86,352.89,565.94,352.89Z" transform="translate(-390.96 -343.6)"/></g></g></g></svg>