<svg id="レイヤー_1" data-name="レイヤー 1" xmlns="http://www.w3.org/2000/svg" viewBox="0 0 243.66 292.27"><defs><style>.cls-1{isolation:isolate;}.cls-2{fill:#040000;}</style></defs><g id="ユースには_悪いところがある_メンバー皆がユースを好きすぎてしまうこと_ユースのロゴも_このサイトも_すべてこの団体を思う気持ちから生まれた_Tシャツ_ステッカー_トートバッグ_たくさんの愛が_かたちになった_今日もユースは_誰かの愛で_生きている_" data-name="ユースには 悪いところがある メンバー皆がユースを好きすぎてしまうこと ユースのロゴも このサイトも すべてこの団体を思う気持ちから生まれた Tシャツ ステッカー トートバッグ たくさんの愛が かたちになった 今日もユースは 誰かの愛で 生きている " class="cls-1"><g class="cls-1"><path class="cls-2" d="M364.48,230.82c.07-.36-.14-.42-.41-.39-.69.07-1.27.25-1.82.34a8.43,8.43,0,0,1-1.75.21.71.71,0,1,1,.11-1.42,8,8,0,0,0,1.37-.1l1.7-.23a9.25,9.25,0,0,1,1.4-.19c1.33,0,1.43,1,1.22,1.46a24.42,24.42,0,0,0-1,3.13c.42,0,1.22-.12,1.67-.16a5.61,5.61,0,0,1,1.08,0c.63,0,.82.42.81.78s-.35.7-1.05.72c-.45,0-.63,0-1,0l-1.53.07c-1.65.07-3.3.22-4.47.32a16.11,16.11,0,0,1-2,.11.74.74,0,1,1,.11-1.45,12.75,12.75,0,0,0,1.85,0c.77-.07,1.92-.14,3.07-.21C364,232.64,364.35,231.41,364.48,230.82Z" transform="translate(-357.29 -225.47)"/><path class="cls-2" d="M379.57,232.07h-.73c-2.67,0-4.72.13-5.82.17l-1.39,0h-.45a.78.78,0,0,1-.81-.76c0-.35.28-.69.84-.69h.08c.52,0,1.14.05,1.7.05,1.15,0,4.14-.17,6.61-.24h0a.76.76,0,0,1,.85.71c0,.37-.29.73-.9.73Z" transform="translate(-357.29 -225.47)"/><path class="cls-2" d="M382.69,236.4c-1,.39-1.75-.93-.55-1.33a12.11,12.11,0,0,0,6.26-5.38c.12-.23,0-.32-.12-.31-.69.07-2.29.52-2.65.6a6.2,6.2,0,0,1-1.42.24.72.72,0,1,1,0-1.44,9.72,9.72,0,0,0,1.25-.15c.5-.09,2.19-.54,3.37-.65s1.81.71,1.35,1.53a19.84,19.84,0,0,1-1.77,2.63,9.86,9.86,0,0,1,3.84,2.66.85.85,0,0,1-.13,1.16.69.69,0,0,1-1-.12,11.6,11.6,0,0,0-3.55-2.71A13.1,13.1,0,0,1,382.69,236.4Z" transform="translate(-357.29 -225.47)"/><path class="cls-2" d="M395.15,236.43a9,9,0,0,1-.37-2.68,41.57,41.57,0,0,1,.79-5.84.65.65,0,0,1,.67-.67.66.66,0,0,1,.7.61.57.57,0,0,1,0,.12,32.71,32.71,0,0,0-.91,5c0,.52.09.57.14.57a.13.13,0,0,0,.09-.1c.44-.82.54-1,.83-1a.61.61,0,0,1,.58.59.47.47,0,0,1-.07.25,7.1,7.1,0,0,0-1,2.63c0,.13,0,.25,0,.38a.66.66,0,0,1-.7.73A.74.74,0,0,1,395.15,236.43Zm7.79-.09c-2.43,0-4.28-1.44-4.28-2.13a.7.7,0,0,1,.73-.65.82.82,0,0,1,.63.3,3.58,3.58,0,0,0,2.72.94,9.77,9.77,0,0,0,1.19-.08.5.5,0,0,1,.17,0,.65.65,0,0,1,.7.68C404.8,236.1,404.18,236.34,402.94,236.34Zm-1.59-6.15a7.66,7.66,0,0,1-1.89-.21.65.65,0,0,1-.59-.63.66.66,0,0,1,.65-.66.39.39,0,0,1,.14,0,6.41,6.41,0,0,0,1.36.14,13.46,13.46,0,0,0,1.72-.14l.13,0a.65.65,0,0,1,.67.66C403.54,229.91,403.15,230.19,401.35,230.19Z" transform="translate(-357.29 -225.47)"/><path class="cls-2" d="M408.25,237a.74.74,0,0,1-.68-.6,10.17,10.17,0,0,1-.42-3.05,15.41,15.41,0,0,1,.09-1.82c.17-1.57.49-3,.59-3.83a.65.65,0,0,1,.65-.66.72.72,0,0,1,.73.69s0,.07,0,.11c-.1.6-.35,1.59-.54,2.61a13.38,13.38,0,0,0-.31,2.41c0,.52.08.63.11.63s.11-.09.2-.25c.39-.86.61-1,.84-1a.61.61,0,0,1,.58.59.48.48,0,0,1-.07.26,8.58,8.58,0,0,0-1.1,2.76c0,.17,0,.34,0,.5A.68.68,0,0,1,408.25,237Zm4.56,0a2.09,2.09,0,0,1-2.18-1.76c0-1.06,1.31-1.49,2.6-1.49a6.54,6.54,0,0,1,1.3.14c0-.13,0-.26,0-.4a7.54,7.54,0,0,0,0-.78c-.06-.6-.13-1.64-.17-2.73a5.25,5.25,0,0,0-2.52,1,.67.67,0,0,1-.45.2.68.68,0,0,1-.64-.68c0-.3.19-1,3.58-1.78,0-.58,0-1.14.05-1.59a.59.59,0,0,1,.64-.58.61.61,0,0,1,.66.55v.07c0,.39-.09.84-.1,1.3l.76-.12a.58.58,0,0,1,.18,0,.64.64,0,0,1,.71.61c0,.29-.23.6-.75.67l-.91.12c0,1,0,2.06.12,2.8a13.63,13.63,0,0,1,.11,1.56v.15a5.88,5.88,0,0,1,1.62,1,.79.79,0,0,1,.26.58.75.75,0,0,1-.71.78.69.69,0,0,1-.51-.25,4.44,4.44,0,0,0-1-.81A3.23,3.23,0,0,1,412.81,237Zm.19-2.18c-1.09,0-1.15.35-1.15.48s.19.52.8.52a2.05,2.05,0,0,0,1.56-.81A4.35,4.35,0,0,0,413,234.77Z" transform="translate(-357.29 -225.47)"/><path class="cls-2" d="M421.37,237.44a5.38,5.38,0,0,0-1.72-1.48.61.61,0,0,1,.28-1.17c.49,0,2.73,1.23,2.73,2.18a.77.77,0,0,1-.76.77A.63.63,0,0,1,421.37,237.44Z" transform="translate(-357.29 -225.47)"/><path class="cls-2" d="M426.42,236.44a.69.69,0,0,1,.45-.6,3.42,3.42,0,0,0,1.21-1.33.55.55,0,0,1,.54-.41.69.69,0,0,1,.7.65c0,.65-1.29,2.33-2.17,2.33A.69.69,0,0,1,426.42,236.44Zm.73-3.36a.58.58,0,0,1,0-1.16h3.41v-.87c-.45,0-.9,0-1.32,0-1.51,0-1.54-.6-1.54-1.58,0-1.15.12-1.76,1.48-1.78h1.38v-.83l-3,0a.56.56,0,0,1-.57-.58.54.54,0,0,1,.57-.57h9.93a.55.55,0,0,1,.58.57.57.57,0,0,1-.58.58l-3.11,0v.83H436c1.43,0,1.46.86,1.46,1.56,0,1,0,1.79-1.45,1.8-.46,0-1,0-1.57,0v.87h3.53a.58.58,0,1,1,0,1.16Zm3.41-4.32-1,0c-.38,0-.59.08-.59.6s.13.6.62.6l1,0Zm2,8.75c-1.86,0-2.76-.2-2.76-1.66,0-.17,0-1.23,0-1.69a.62.62,0,0,1,.66-.56c.35,0,.69.19.69.54s0,1.4,0,1.57c0,.51.29.63,1.54.63,1.52,0,1.79-.17,1.79-.87a.62.62,0,0,1,.66-.64.65.65,0,0,1,.7.64C435.81,237.27,434.67,237.51,432.53,237.51Zm.65-2.34a5.89,5.89,0,0,0-1.28-1,.44.44,0,0,1-.27-.39.7.7,0,0,1,.69-.62,4.48,4.48,0,0,1,1.79,1.05.66.66,0,0,1,.19.44.74.74,0,0,1-.7.71A.52.52,0,0,1,433.18,235.17Zm.07-8.34h-1.53v.83h1.53Zm0,1.93h-1.53V230h1.53Zm0,2.3h-1.53v.87h1.53Zm1.14-1.06,1.17,0c.53,0,.57-.29.57-.6s0-.6-.6-.6l-1.14,0Zm2.92,6.46A4.84,4.84,0,0,0,436,235a.58.58,0,0,1-.27-.45.67.67,0,0,1,.69-.6c.58,0,2.17,1.36,2.17,2.08a.76.76,0,0,1-.73.76A.63.63,0,0,1,437.31,236.46Z" transform="translate(-357.29 -225.47)"/><path class="cls-2" d="M444.82,235.8a2.62,2.62,0,0,1-1.66-.73,7.3,7.3,0,0,1-2.05-4.22c-.11-.53-.27-1.39-.27-1.5a.69.69,0,0,1,.7-.67.74.74,0,0,1,.71.66c.08.45.11.92.19,1.37.58,3.27,1.89,3.39,2,3.39s.26-.11.39-.45.22-.74.39-1.19a.55.55,0,0,1,.52-.39.76.76,0,0,1,.74.7s0,.07,0,.11c-.09.47-.37,1.38-.41,1.81A1.16,1.16,0,0,1,444.82,235.8Zm5.38-3.18a4.93,4.93,0,0,0-1.83-2.83.57.57,0,0,1-.24-.45.61.61,0,0,1,.63-.58.92.92,0,0,1,.59.24c.59.51,2.32,2.05,2.32,3.46a.76.76,0,0,1-.77.8A.7.7,0,0,1,450.2,232.62Z" transform="translate(-357.29 -225.47)"/><path class="cls-2" d="M456.75,231.51c-.6-.32-.73-.78-.73-1.57,0-.22,0-.48,0-.76,0-.64,0-1.14,0-1.56a6.48,6.48,0,0,0-.1-1.35,1.15,1.15,0,0,1,0-.18.61.61,0,0,1,.65-.62c.85,0,.89.82.89,1.75,0,.4,0,.89-.08,1.59,0,.43-.07.78-.07,1.06,0,.87.57.95,1,.95.21,0,.24-.11.41-.16a.59.59,0,0,1,.22,0,.7.7,0,0,1,.7.68.89.89,0,0,1-.52.72c-.47.3-1.59.78-2.24,1.12-1.06.59-1.54,1.2-1.54,1.71S456,236,457.45,236a4,4,0,0,0,1.95-.45,1.15,1.15,0,0,1,.66-.23.76.76,0,0,1,.8.72c0,.87-1.64,1.36-3.09,1.36-2.53,0-3.67-1.21-3.67-2.41,0-1,.77-2.16,2.47-3.11l.48-.27A.79.79,0,0,1,456.75,231.51Z" transform="translate(-357.29 -225.47)"/><path class="cls-2" d="M468.34,236.9c-2.9,0-4.45-1.34-4.45-2.14a.76.76,0,0,1,.73-.76.87.87,0,0,1,.63.35,3.28,3.28,0,0,0,2.66,1.07,9.57,9.57,0,0,0,2.38-.35,1.27,1.27,0,0,1,.32,0,.7.7,0,0,1,.76.71.94.94,0,0,1-.78.88A9.24,9.24,0,0,1,468.34,236.9Zm1-7.28a8.75,8.75,0,0,1-3.8-.9.78.78,0,0,1-.46-.71.61.61,0,0,1,.63-.65,1.17,1.17,0,0,1,.41.09,9.21,9.21,0,0,0,3.37.73.71.71,0,0,1,.73.71C470.25,229.25,470,229.62,469.37,229.62Z" transform="translate(-357.29 -225.47)"/><path class="cls-2" d="M480.17,226.16a.79.79,0,0,1,.86.8,1.06,1.06,0,0,1-.32.73c-1,1-2.43,2.57-2.82,2.94a4.81,4.81,0,0,1,2.27-.55,3.23,3.23,0,0,1,3.46,2.93c0,2.77-3.75,4.4-6.65,4.4a.76.76,0,0,1-.82-.73c0-.32.24-.64.77-.66,3.77-.11,5.24-1.9,5.24-3a2,2,0,0,0-2.27-1.78,4.83,4.83,0,0,0-3.54,1.66c-.49.54-.63.9-1,1.32a.82.82,0,0,1-.67.35.76.76,0,0,1-.78-.7c0-.28.14-.48,1.19-1.6.88-.92,4-4.59,4-4.66h0a.22.22,0,0,0-.1,0,10.33,10.33,0,0,1-2.75.92.75.75,0,0,1-.77-.74c0-.32.24-.64.76-.67a17.91,17.91,0,0,0,3-.7c.44-.17.46-.28.92-.28Z" transform="translate(-357.29 -225.47)"/><path class="cls-2" d="M488.94,231a8.19,8.19,0,0,1-1.59.27.61.61,0,0,1-.65-.63.67.67,0,0,1,.7-.7,10.28,10.28,0,0,0,2.31-.33,6,6,0,0,0,.68-2.14.59.59,0,0,1,.63-.5.7.7,0,0,1,.76.64,4.86,4.86,0,0,1-.5,1.7h.11c1.59,0,1.64,1.72,1.64,2.36,0,1.25-.06,4.75-2.65,4.75-.8,0-1.84-.36-1.84-1a.75.75,0,0,1,.73-.72.66.66,0,0,1,.3.07,1.86,1.86,0,0,0,.78.21c.91,0,1.33-1,1.33-3.44,0-.57-.08-1-.53-1a.8.8,0,0,0-.25,0l-.23.05c-1.05,2-2.52,4.28-3.41,5.8a.84.84,0,0,1-.73.41.66.66,0,0,1-.72-.6.83.83,0,0,1,.17-.49c.62-.94,2.07-3,3.07-4.74ZM496.7,233a4.45,4.45,0,0,0-2.41-2.22.52.52,0,0,1-.38-.48.66.66,0,0,1,.67-.62c.72,0,3.46,1.74,3.46,3a.74.74,0,0,1-.74.74A.64.64,0,0,1,496.7,233Zm-.4-3.7a4.65,4.65,0,0,0-1.17-.77.45.45,0,0,1-.35-.42.55.55,0,0,1,.57-.51c.07,0,1.84.5,1.84,1.24a.61.61,0,0,1-.55.62A.44.44,0,0,1,496.3,229.25Zm1.21-1.28a4.9,4.9,0,0,0-1.19-.72.44.44,0,0,1-.37-.43.57.57,0,0,1,.58-.53,4.17,4.17,0,0,1,1.64.74.63.63,0,0,1,.21.46.62.62,0,0,1-.55.63A.5.5,0,0,1,497.51,228Z" transform="translate(-357.29 -225.47)"/><path class="cls-2" d="M502.21,235.73a1.67,1.67,0,0,1-1,.36c-.77,0-1.33-.73-1.33-1.71,0-1.37,1.43-3,2.88-3.86,0-.49.07-1,.14-1.48a4.85,4.85,0,0,1-1.1.17c-1,0-1.25-.42-1.25-.8a.6.6,0,0,1,.59-.65.76.76,0,0,1,.28.05,1.65,1.65,0,0,0,.57.11,3.91,3.91,0,0,0,1.15-.23c.13-.49.28-.91.46-1.47a.69.69,0,0,1,.66-.55.64.64,0,0,1,.65.62,2.25,2.25,0,0,1-.31.85c.4-.17.77-.35,1.08-.5a.8.8,0,0,1,.42-.12.6.6,0,0,1,.61.59c0,.48-.32.77-2.53,1.56a10,10,0,0,0-.21,1.22,5.52,5.52,0,0,1,2.22-.49c1.91,0,3.87,1.21,3.87,3.2,0,3-4,4.71-4.61,4.71a.67.67,0,0,1-.73-.62c0-.25.17-.5.59-.67,2.06-.78,3.31-2.24,3.31-3.49a2.33,2.33,0,0,0-2.51-2.08h-.27a1.2,1.2,0,0,1,.17.7,3.75,3.75,0,0,1-1.13,2.27c-.07.08-.16.15-.23.24a.88.88,0,0,1,.16.52.68.68,0,0,1-.63.72.73.73,0,0,1-.55-.29C503.17,235,502.66,235.39,502.21,235.73Zm.59-3.94c-.84.66-1.64,1.56-1.64,2.31,0,.41.17.52.35.52s.35,0,1.6-1.08A7.09,7.09,0,0,1,502.8,231.79Zm1.31.76a2.26,2.26,0,0,0,.68-1.35.56.56,0,0,0,0-.22.86.86,0,0,1,0-.27,6.39,6.39,0,0,0-.81.35,5.41,5.41,0,0,0,.18,1.5Z" transform="translate(-357.29 -225.47)"/><path class="cls-2" d="M519.33,233.33c0-1.47-1.78-1.47-1.9-1.47a4.61,4.61,0,0,0-3.35,1.86.69.69,0,0,1-.56.28.72.72,0,0,1-.74-.67.79.79,0,0,1,.28-.57,36.66,36.66,0,0,0,4.06-4.64s0,0,0,0l-.1,0a7.26,7.26,0,0,1-2.8,1,.69.69,0,0,1-.73-.69.6.6,0,0,1,.59-.61,13.17,13.17,0,0,0,3.54-1,1.2,1.2,0,0,1,.51-.11.88.88,0,0,1,.92.83,1,1,0,0,1-.32.68c-1,.91-2,2.11-2.91,3.09a3.59,3.59,0,0,1,2-.56,2.7,2.7,0,0,1,3,2.46c0,1.88-1.93,3.67-4.35,3.67-1.68,0-2.57-1-2.57-1.79a1.44,1.44,0,0,1,1.57-1.32,2,2,0,0,1,2.19,1.75A2.75,2.75,0,0,0,519.33,233.33Zm-3.82,1.5c-.48,0-.49.31-.49.36,0,.55,1,.62,1.3.62h.1C516.38,235.21,516.07,234.83,515.51,234.83Z" transform="translate(-357.29 -225.47)"/><path class="cls-2" d="M524.45,237.74a1.6,1.6,0,1,1,1.6-1.59A1.59,1.59,0,0,1,524.45,237.74Zm0-2.64a1.06,1.06,0,1,0,0,2.11,1.06,1.06,0,1,0,0-2.11Z" transform="translate(-357.29 -225.47)"/></g><g class="cls-1"><path class="cls-2" d="M358.83,265.44a.74.74,0,1,1-.66-1.32,12.57,12.57,0,0,0,4.49-3.57,11.35,11.35,0,0,0-1.6-.75c-.9-.32-.31-1.58.8-1.13.52.21,1.09.46,1.66.74a18.64,18.64,0,0,0,1.21-2,5.43,5.43,0,0,0,.52-1.34.8.8,0,0,1,1.57.32,4.83,4.83,0,0,1-.66,1.51c-.45.74-.91,1.47-1.4,2.17a6.61,6.61,0,0,1,1.23,1,.84.84,0,0,1,0,1.15.69.69,0,0,1-1,0,7.74,7.74,0,0,0-1.1-1A14.51,14.51,0,0,1,358.83,265.44Z" transform="translate(-357.29 -225.47)"/><path class="cls-2" d="M372.43,258.87a5.81,5.81,0,0,0-2-1c-.84-.18-.49-1.58.57-1.31a8.2,8.2,0,0,1,2.31.94.8.8,0,0,1,.24,1.13A.75.75,0,0,1,372.43,258.87Zm.6,5.28a3,3,0,0,1-1.34.44c-1.17.1-1.34-1.37-.44-1.47a4.25,4.25,0,0,0,1.08-.35,13.72,13.72,0,0,0,6.22-6.16c.46-.88,1.88-.29,1.26.83A15.88,15.88,0,0,1,373,264.15Z" transform="translate(-357.29 -225.47)"/><path class="cls-2" d="M381.36,261.49a5.85,5.85,0,0,0,3.21-3.23.74.74,0,0,1,1.42.42c-.46,1.74-2.7,3.65-4,4.21A.77.77,0,1,1,381.36,261.49Zm9.73.5a9.3,9.3,0,0,0-3.2-3.22c-.78-.42-.06-1.59.91-1s3.08,2,3.71,3.46a.89.89,0,0,1-.38,1.14A.74.74,0,0,1,391.09,262Zm-1.71-5c-.7-.3-.15-1.14.49-.9a4.74,4.74,0,0,1,1.38.84c.54.57-.27,1.43-.73.88A4.74,4.74,0,0,0,389.38,257Zm1.26-1.19c-.71-.28-.21-1.12.45-.91a4.27,4.27,0,0,1,1.4.79c.56.56-.22,1.42-.7.9A4.85,4.85,0,0,0,390.64,255.76Z" transform="translate(-357.29 -225.47)"/><path class="cls-2" d="M404.35,260.07h-.73c-2.67,0-4.72.13-5.82.17l-1.39,0H396a.78.78,0,0,1-.81-.76c0-.35.28-.69.84-.69h.08c.52,0,1.14.05,1.7.05,1.15,0,4.14-.17,6.61-.24h0a.76.76,0,0,1,.85.71c0,.37-.29.73-.89.73Z" transform="translate(-357.29 -225.47)"/><path class="cls-2" d="M410.56,256.05v1.64a21,21,0,0,0,2-.55,1.38,1.38,0,0,1,.26,0,.57.57,0,0,1,.61.53c0,.23-.15.45-.53.58a32.42,32.42,0,0,1-4.82,1.2.65.65,0,0,1-.71-.61.63.63,0,0,1,.6-.62l1.26-.21V253.7a.61.61,0,0,1,.66-.58.59.59,0,0,1,.64.58v1.23h2.17a.56.56,0,1,1,0,1.12Zm5.3,3.89a1.41,1.41,0,0,1,1.44,1.14c0,.48,0,1,0,1.51s0,1,0,1.51a1.45,1.45,0,0,1-1.51,1.31c-.69,0-1.44,0-2.19,0s-1.71,0-2.46-.05c-1,0-1.5-.57-1.54-1.29,0-.46-.05-1-.05-1.45s0-1,.05-1.49.43-1.2,1.51-1.23h1.16a9.21,9.21,0,0,0,.23-.9.56.56,0,0,1,.6-.42.62.62,0,0,1,.68.56,2.37,2.37,0,0,1-.21.76Zm.18,2.16c0-.75,0-1.08-.69-1.09s-1.61,0-2.42,0c-.52,0-1,0-1.43,0-.69,0-.69.37-.69,1.09Zm-5.23,1c0,.23,0,.46,0,.67,0,.57.24.59,2.88.59.58,0,1.14,0,1.66,0,.67,0,.67-.34.67-1.22Zm4.29-5.77c0,.44.18.68,1.23.68,1.35,0,1.56-.36,1.56-1a.55.55,0,0,1,.62-.57.72.72,0,0,1,.77.7c0,1.73-1.52,2-2.88,2s-2.6-.21-2.6-1.63c0-.86,0-3,0-3.75a.65.65,0,0,1,1.3,0h0c0,.4,0,1,0,1.59a18.71,18.71,0,0,0,2.7-1,.53.53,0,0,1,.28-.07.7.7,0,0,1,.68.68.67.67,0,0,1-.47.61,20.66,20.66,0,0,1-3.19.95Z" transform="translate(-357.29 -225.47)"/><path class="cls-2" d="M424.4,259a8.19,8.19,0,0,1-1.59.27.61.61,0,0,1-.66-.63.68.68,0,0,1,.7-.7,10.33,10.33,0,0,0,2.32-.33,6,6,0,0,0,.68-2.14.59.59,0,0,1,.63-.5.7.7,0,0,1,.76.64,4.75,4.75,0,0,1-.51,1.7h.12c1.59,0,1.64,1.72,1.64,2.36,0,1.25-.06,4.75-2.65,4.75-.8,0-1.84-.36-1.84-1a.75.75,0,0,1,.73-.72.66.66,0,0,1,.3.07,1.86,1.86,0,0,0,.78.21c.91,0,1.33-1,1.33-3.44,0-.57-.08-1-.53-1a.77.77,0,0,0-.25,0l-.23.05c-1.05,2-2.52,4.28-3.42,5.8a.81.81,0,0,1-.72.41.66.66,0,0,1-.72-.6.83.83,0,0,1,.17-.49c.62-.94,2.07-3,3.07-4.74Zm7.76,1.93a4.45,4.45,0,0,0-2.41-2.22.51.51,0,0,1-.38-.48.65.65,0,0,1,.67-.62c.71,0,3.46,1.74,3.46,3a.74.74,0,0,1-.74.74A.64.64,0,0,1,432.16,261Zm-.4-3.7a4.65,4.65,0,0,0-1.17-.77.44.44,0,0,1-.35-.42.55.55,0,0,1,.57-.51c.07,0,1.84.5,1.84,1.24a.61.61,0,0,1-.55.62A.44.44,0,0,1,431.76,257.25ZM433,256a4.9,4.9,0,0,0-1.19-.72.44.44,0,0,1-.37-.43.57.57,0,0,1,.58-.53,4.17,4.17,0,0,1,1.64.74.63.63,0,0,1-.34,1.09A.5.5,0,0,1,433,256Z" transform="translate(-357.29 -225.47)"/><path class="cls-2" d="M441.48,258.82c.07-.36-.14-.42-.41-.39-.68.07-1.27.25-1.82.34a8.35,8.35,0,0,1-1.75.21.71.71,0,1,1,.11-1.42,8,8,0,0,0,1.37-.1l1.7-.23a9.25,9.25,0,0,1,1.4-.19c1.33,0,1.43,1,1.22,1.46a24.42,24.42,0,0,0-1,3.13c.42,0,1.22-.12,1.67-.16a5.61,5.61,0,0,1,1.08,0c.63,0,.82.42.81.78s-.35.7-1.05.72c-.45,0-.63,0-1,0l-1.53.07c-1.65.07-3.3.22-4.46.32a16.31,16.31,0,0,1-2,.11.74.74,0,1,1,.11-1.45,12.75,12.75,0,0,0,1.85,0c.77-.07,1.92-.14,3.07-.21C441,260.64,441.35,259.41,441.48,258.82Z" transform="translate(-357.29 -225.47)"/><path class="cls-2" d="M456.57,260.07h-.73c-2.67,0-4.72.13-5.82.17l-1.39,0h-.45a.78.78,0,0,1-.81-.76c0-.35.28-.69.84-.69h.08c.52,0,1.14.05,1.7.05,1.15,0,4.14-.17,6.61-.24h0a.76.76,0,0,1,.85.71c0,.37-.29.73-.89.73Z" transform="translate(-357.29 -225.47)"/><path class="cls-2" d="M459.69,264.4c-1,.39-1.75-.93-.55-1.33a12.11,12.11,0,0,0,6.26-5.38c.12-.23.05-.32-.12-.31-.69.07-2.29.52-2.65.6a6.12,6.12,0,0,1-1.41.24.72.72,0,1,1,0-1.44,9.72,9.72,0,0,0,1.25-.15c.5-.09,2.2-.54,3.37-.65s1.81.71,1.35,1.53a19.84,19.84,0,0,1-1.77,2.63,9.86,9.86,0,0,1,3.84,2.66.85.85,0,0,1-.13,1.16.69.69,0,0,1-1-.12,11.6,11.6,0,0,0-3.55-2.71A13.1,13.1,0,0,1,459.69,264.4Z" transform="translate(-357.29 -225.47)"/><path class="cls-2" d="M477,261.32a7,7,0,0,1,0,.77.83.83,0,0,1-.75.85.59.59,0,0,1-.58-.66v-.12a6.41,6.41,0,0,0,.06-.94c-.29.15-1.6.84-1.6,1.72,0,.24.11,1.07,1.54,1.07a6.36,6.36,0,0,0,1.77-.3,1.14,1.14,0,0,1,.35,0,.68.68,0,0,1,.73.65c0,.3-.12,1-2.51,1s-3.14-1.2-3.14-2.22c0-1.71,2-2.78,2.72-3.16-.17-.54-.45-.82-.83-.82a1.39,1.39,0,0,0-.73.25c-.58.66-.93.85-1.24.85a.55.55,0,0,1-.6-.53.74.74,0,0,1,.32-.57,7.36,7.36,0,0,0,1.79-2.13,4.31,4.31,0,0,1-.69.05c-1.41,0-1.42-.78-1.42-.89a.59.59,0,0,1,.57-.62.93.93,0,0,1,.5.18.91.91,0,0,0,.52.12,5.69,5.69,0,0,0,1.11-.16,5.11,5.11,0,0,0,.25-1.1.55.55,0,0,1,.59-.49c.36,0,.76.25.76.61a2.55,2.55,0,0,1-.09.52c.42-.21.48-.22.58-.22a.61.61,0,0,1,.6.61c0,.46-.37.74-1.82,1.09a14,14,0,0,1-.8,1.41,1.86,1.86,0,0,1,1.76,1.31,16.63,16.63,0,0,1,3.24-1.13.75.75,0,0,1,.78.73.57.57,0,0,1-.37.54c-.44.18-.9.24-1.63.46s-1.19.41-1.74.63A4.94,4.94,0,0,1,477,261.32Z" transform="translate(-357.29 -225.47)"/><path class="cls-2" d="M486.72,256.16a1.15,1.15,0,0,1,1.25,1.29,11.46,11.46,0,0,1-.84,4c1.35.72,1.43,1.15,1.43,1.39a.74.74,0,0,1-.64.78.57.57,0,0,1-.45-.21,9.15,9.15,0,0,0-.91-.8c-1.19,2.08-2.72,2.83-3.17,2.83a.66.66,0,0,1-.67-.66.57.57,0,0,1,.36-.54,5.49,5.49,0,0,0,2.44-2.2,5.27,5.27,0,0,0-1-.27.79.79,0,0,1-.75.59.56.56,0,0,1-.57-.57.93.93,0,0,1,.05-.32,27,27,0,0,0,1-4.12c-.3,0-.58,0-.83,0h0a.55.55,0,0,1-.57-.59.59.59,0,0,1,.57-.63l1.05,0c.1-.77.17-1.52.23-2.25a.59.59,0,0,1,.63-.58.66.66,0,0,1,.7.63c0,.41-.21,1.87-.27,2.2Zm-1.14,1.18c-.2,1.11-.45,2.25-.75,3.37A6.07,6.07,0,0,1,486,261a10.26,10.26,0,0,0,.66-3.41c0-.21-.19-.25-.33-.25Zm7.39,2.77a4.43,4.43,0,0,1,0,.52,13.76,13.76,0,0,1-.21,2.26,2.9,2.9,0,0,1-2.95,2.56c-.88,0-1.56-.18-1.56-.88a.62.62,0,0,1,.6-.66.56.56,0,0,1,.21,0,2.68,2.68,0,0,0,.77.12,1.59,1.59,0,0,0,1.62-1.44,9.22,9.22,0,0,0,.21-1.91c0-.19,0-.4,0-.6H488.5a.59.59,0,0,1-.63-.6.6.6,0,0,1,.63-.6h2.92a2.76,2.76,0,0,0-1.08-1.51.52.52,0,0,1-.27-.41.7.7,0,0,1,.72-.62.9.9,0,0,1,.56.21,6.4,6.4,0,0,0,1-1.19c0-.1-.16-.12-.8-.12s-1.68,0-2.62.07h0a.59.59,0,0,1-.61-.59.62.62,0,0,1,.64-.63c.57,0,1.19,0,1.76,0,.8,0,1.54,0,2.13,0,.76,0,1.15.4,1.15.91a1.52,1.52,0,0,1-.35.88,15.89,15.89,0,0,1-1.47,1.5,4.61,4.61,0,0,1,.61,1.5h1.91a.61.61,0,0,1,.64.61.59.59,0,0,1-.64.59Z" transform="translate(-357.29 -225.47)"/><path class="cls-2" d="M503.91,260.18a11.57,11.57,0,0,0,.51,1.29,2,2,0,0,1,.19.72.73.73,0,0,1-.79.78,2.2,2.2,0,0,1-.63-.11,9.45,9.45,0,0,0-2.46-.38c-1,0-1.69.39-1.69.76s.62.92,2.19.92a4.84,4.84,0,0,0,.69,0,.44.44,0,0,1,.16,0,.65.65,0,0,1,.73.64c0,.61-.59.79-1,.79-2.23,0-4.08-1-4.08-2.21,0-.52.5-1.95,3.19-1.95.58,0,1.11.05,1.52.07l.26,0c.16,0,.3,0,.3-.21a6.8,6.8,0,0,0-.31-1.07,7,7,0,0,1-.91.06c-.27,0-2.94,0-2.94-1.58a1.34,1.34,0,0,1,.54-1.05.28.28,0,0,0,.14-.23c0-.28-.84-.75-1.52-.9-.47-.08-.68-.36-.68-.63a.67.67,0,0,1,.73-.6c.88,0,3,1.26,3,2.1a.93.93,0,0,1-.6.75c-.26.12-.37.25-.37.36s.8.52,1.61.52a5.27,5.27,0,0,0,.56,0,20.6,20.6,0,0,0-2-4.26.84.84,0,0,1-.14-.41c0-.35.35-.56.72-.56a.84.84,0,0,1,.77.48,40.89,40.89,0,0,1,1.79,4.45l.67-.22a.93.93,0,0,1,.27,0,.59.59,0,0,1,.59.64c0,.55-.39.7-1.1.92Z" transform="translate(-357.29 -225.47)"/><path class="cls-2" d="M513.24,262.52a2.2,2.2,0,0,1-2-2.27,1.57,1.57,0,0,1,1.61-1.65,2.8,2.8,0,0,1,.64.08c0-.46-.07-.88-.1-1.27a19.5,19.5,0,0,0-5.14,1.11,1.32,1.32,0,0,1-.26.05.69.69,0,0,1-.68-.7.79.79,0,0,1,.66-.75,31.83,31.83,0,0,1,5.37-1v-.45c0-1.23,0-1.89.77-1.89a.73.73,0,0,1,.77.66.57.57,0,0,1,0,.13,9.34,9.34,0,0,0-.19,1.44c1.12-.07,2.26-.1,3.39-.1.59,0,.89.35.89.7a.75.75,0,0,1-.83.7H518c-.69,0-1.39-.05-2.09-.05-.43,0-.87,0-1.3,0,0,.95.08,1.83.1,2a2.31,2.31,0,0,1,.74,1.67,2.71,2.71,0,0,1-.45,1.41,6.88,6.88,0,0,1-4.85,3.17.7.7,0,0,1-.77-.67c0-.28.2-.58.68-.67a5.74,5.74,0,0,0,3.29-1.73Zm-.24-2.79a.6.6,0,0,0-.63.63,1,1,0,0,0,.89,1,.62.62,0,0,0,.6-.6c0-.05,0-.08,0-.12a1.67,1.67,0,0,0-.1-.46A.89.89,0,0,0,513,259.73Z" transform="translate(-357.29 -225.47)"/><path class="cls-2" d="M527.64,260.18a11.57,11.57,0,0,0,.51,1.29,2,2,0,0,1,.19.72.73.73,0,0,1-.79.78,2.2,2.2,0,0,1-.63-.11,9.45,9.45,0,0,0-2.46-.38c-1.25,0-1.68.48-1.68.76s.72.92,2.18.92a4.84,4.84,0,0,0,.69,0,.44.44,0,0,1,.16,0,.65.65,0,0,1,.73.64c0,.61-.58.79-1,.79-2.23,0-4.08-1-4.08-2.21,0-.52.5-1.95,3.19-1.95.58,0,1.11.05,1.52.07l.26,0c.16,0,.3,0,.3-.21a6.8,6.8,0,0,0-.31-1.07,7,7,0,0,1-.91.06c-.27,0-2.94,0-2.94-1.58a1.34,1.34,0,0,1,.54-1.05.28.28,0,0,0,.14-.23c0-.28-.84-.75-1.52-.9-.47-.08-.68-.36-.68-.63a.67.67,0,0,1,.73-.6c.88,0,3,1.26,3,2.1a.93.93,0,0,1-.6.75c-.26.12-.37.25-.37.36s.8.52,1.61.52a5.27,5.27,0,0,0,.56,0,20.6,20.6,0,0,0-2-4.26.84.84,0,0,1-.14-.41c0-.35.35-.56.72-.56a.84.84,0,0,1,.77.48,40.89,40.89,0,0,1,1.79,4.45l.67-.22a.93.93,0,0,1,.27,0,.59.59,0,0,1,.59.64c0,.55-.39.7-1.09.92Zm.23-3.85a4.92,4.92,0,0,0-1-1,.49.49,0,0,1-.26-.4.55.55,0,0,1,.57-.49c.37,0,1.65.95,1.65,1.51a.64.64,0,0,1-.6.63A.44.44,0,0,1,527.87,256.33Zm1.47-1a4.61,4.61,0,0,0-1-1,.48.48,0,0,1-.28-.41.55.55,0,0,1,.57-.49c.41,0,1.68.94,1.68,1.47a.62.62,0,0,1-.59.62A.46.46,0,0,1,529.34,255.34Z" transform="translate(-357.29 -225.47)"/><path class="cls-2" d="M540,264.88h-.14c-3-.29-5-2.39-5-4.54a3.92,3.92,0,0,1,1-2.57.26.26,0,0,0,.06-.12s0,0,0,0a.6.6,0,0,0-.14.05c-2.2,1.14-2.47,1.22-2.78,1.22a.79.79,0,0,1-.85-.75.81.81,0,0,1,.64-.73c.3-.1,1.1-.34,1.52-.49.65-.24,1.82-.6,3.2-1.15a10.63,10.63,0,0,1,3.72-.87c.7,0,1,.32,1,.69,0,.71-.59.87-1.12.87a1.77,1.77,0,0,1-.32,0h-.34c-2.17,0-4.3,1.85-4.3,3.72,0,1.69,1.6,3.11,3.8,3.11.7,0,1,.41,1,.83A.85.85,0,0,1,540,264.88Z" transform="translate(-357.29 -225.47)"/><path class="cls-2" d="M548.49,265c-2.8,0-2.91-1.62-2.91-3,0-1.6.17-3.63.17-5.28a14.84,14.84,0,0,0-.08-1.6s0-.1,0-.14a.69.69,0,0,1,.73-.7.76.76,0,0,1,.78.67c0,.31.05.65.05,1,0,1.72-.3,3.92-.3,5.8,0,1.15.06,1.85,1.44,1.85a9.65,9.65,0,0,0,3.35-.73,1.14,1.14,0,0,1,.44-.1.66.66,0,0,1,.68.68,1,1,0,0,1-.68.88A11,11,0,0,1,548.49,265Z" transform="translate(-357.29 -225.47)"/><path class="cls-2" d="M558.31,265.56c-1.18,0-2.34-.77-2.34-1.78,0-1.31,1.68-1.61,2.73-1.61a6.2,6.2,0,0,1,1,.09V262q0-.31,0-.69c0-.43-.08-.88-.11-1.36a4.76,4.76,0,0,1-1.06.14c-.27,0-1.7-.11-1.7-1.05,0-.26.11-.73,1-1.54.18-.15.31-.29.31-.45,0-.38-1.2-.8-2.11-.81-.5,0-.74-.29-.74-.59s.25-.63.76-.63,2.93.52,3.36,1.5v-.66c0-.57,0-1.12,0-1.58a.64.64,0,0,1,.64-.7.71.71,0,0,1,.73.7v.06c-.07.93-.14,2.27-.14,3.6v.37a2.28,2.28,0,0,0,.67-.49.67.67,0,0,1,1.17.45c0,.69-1.17,1.16-1.81,1.37,0,.54.06,1,.11,1.47s.1.93.11,1.45c1,.36,2.1,1,2.1,1.71a.75.75,0,0,1-.7.78.84.84,0,0,1-.6-.32,3.79,3.79,0,0,0-1-.81A2.82,2.82,0,0,1,558.31,265.56Zm.17-2.31c-1,0-1.29.25-1.29.52s.53.6,1,.6a1.45,1.45,0,0,0,1.38-1A4.62,4.62,0,0,0,558.48,263.25Zm1-6a1.5,1.5,0,0,1-.44.59c-.82.65-.83.86-.83.9s.22.2.39.2a3.62,3.62,0,0,0,.94-.16C559.51,258.28,559.5,257.76,559.48,257.25Z" transform="translate(-357.29 -225.47)"/><path class="cls-2" d="M567.13,265a.63.63,0,0,1,.4-.59c2.58-1.13,3.42-2.76,3.42-4.29,0-.39-.12-2.42-1.2-2.42a2.19,2.19,0,0,0-1.11.44,3.2,3.2,0,0,1-1.47.63.75.75,0,1,1-.07-1.49,2.9,2.9,0,0,0,.95-.35,4.3,4.3,0,0,1,1.78-.45c2.47,0,2.52,3.34,2.52,3.62,0,3.75-3.91,5.64-4.48,5.64A.76.76,0,0,1,567.13,265Zm3.53-9.68a6.48,6.48,0,0,1-2.72-.6.67.67,0,0,1-.38-.58.63.63,0,0,1,.65-.61.92.92,0,0,1,.37.08,3.86,3.86,0,0,0,1.64.31h.55a.63.63,0,0,1,.71.63A.77.77,0,0,1,570.66,255.35Z" transform="translate(-357.29 -225.47)"/><path class="cls-2" d="M580.49,264.9c-2.91,0-4.46-1.34-4.46-2.14a.76.76,0,0,1,.73-.76.87.87,0,0,1,.63.35,3.28,3.28,0,0,0,2.66,1.07,9.57,9.57,0,0,0,2.38-.35,1.27,1.27,0,0,1,.32,0,.7.7,0,0,1,.76.71.94.94,0,0,1-.78.88A9.16,9.16,0,0,1,580.49,264.9Zm1-7.28a8.8,8.8,0,0,1-3.8-.9.78.78,0,0,1-.46-.71.61.61,0,0,1,.63-.65,1.13,1.13,0,0,1,.41.09,9.21,9.21,0,0,0,3.37.73.71.71,0,0,1,.73.71C582.39,257.25,582.11,257.62,581.51,257.62Z" transform="translate(-357.29 -225.47)"/><path class="cls-2" d="M589.19,259.51c-.6-.32-.73-.78-.73-1.57,0-.22,0-.48,0-.76,0-.64,0-1.14,0-1.56a6.63,6.63,0,0,0-.09-1.35.58.58,0,0,1,0-.18.61.61,0,0,1,.65-.62c.85,0,.89.82.89,1.75,0,.4,0,.89-.08,1.59,0,.43-.07.78-.07,1.06,0,.87.57.95,1,.95.21,0,.24-.11.41-.16a.59.59,0,0,1,.22-.05.7.7,0,0,1,.7.68.9.9,0,0,1-.51.72c-.48.3-1.6.78-2.25,1.12-1.06.59-1.54,1.2-1.54,1.71s.62,1.17,2.06,1.17a4,4,0,0,0,2-.45,1.15,1.15,0,0,1,.66-.23.76.76,0,0,1,.8.72c0,.87-1.64,1.36-3.09,1.36-2.53,0-3.67-1.21-3.67-2.41,0-1,.78-2.16,2.47-3.11l.48-.27A.79.79,0,0,1,589.19,259.51Z" transform="translate(-357.29 -225.47)"/><path class="cls-2" d="M597.11,265.74a1.6,1.6,0,1,1,1.6-1.59A1.59,1.59,0,0,1,597.11,265.74Zm0-2.64a1.06,1.06,0,1,0,0,2.11,1.06,1.06,0,1,0,0-2.11Z" transform="translate(-357.29 -225.47)"/></g><g class="cls-1"><path class="cls-2" d="M364.48,314.82c.07-.36-.14-.42-.41-.39-.69.07-1.27.25-1.82.34a8.43,8.43,0,0,1-1.75.21.71.71,0,1,1,.11-1.42,8,8,0,0,0,1.37-.1l1.7-.23a9.25,9.25,0,0,1,1.4-.19c1.33,0,1.43,1,1.22,1.46a24.42,24.42,0,0,0-1,3.13c.42,0,1.22-.12,1.67-.16a5.61,5.61,0,0,1,1.08,0c.63,0,.82.42.81.78s-.35.7-1.05.72c-.45,0-.63,0-1,0l-1.53.07c-1.65.07-3.3.22-4.47.32a16.11,16.11,0,0,1-2,.11.74.74,0,1,1,.11-1.45,12.75,12.75,0,0,0,1.85,0c.77-.07,1.92-.14,3.07-.21C364,316.64,364.35,315.41,364.48,314.82Z" transform="translate(-357.29 -225.47)"/><path class="cls-2" d="M379.57,316.07h-.73c-2.67,0-4.72.13-5.82.17l-1.39,0h-.45a.78.78,0,0,1-.81-.76c0-.35.28-.69.84-.69h.08c.52,0,1.14.05,1.7.05,1.15,0,4.14-.17,6.61-.24h0a.76.76,0,0,1,.85.71c0,.37-.29.73-.9.73Z" transform="translate(-357.29 -225.47)"/><path class="cls-2" d="M382.69,320.4c-1,.39-1.75-.93-.55-1.33a12.11,12.11,0,0,0,6.26-5.38c.12-.23,0-.32-.12-.31-.69.07-2.29.52-2.65.6a6.2,6.2,0,0,1-1.42.24.72.72,0,1,1,0-1.44,9.72,9.72,0,0,0,1.25-.15c.5-.09,2.19-.54,3.37-.65s1.81.71,1.35,1.53a19.84,19.84,0,0,1-1.77,2.63,9.86,9.86,0,0,1,3.84,2.66.85.85,0,0,1-.13,1.16.69.69,0,0,1-1-.12,11.6,11.6,0,0,0-3.55-2.71A13.1,13.1,0,0,1,382.69,320.4Z" transform="translate(-357.29 -225.47)"/><path class="cls-2" d="M403.29,315.54a3,3,0,0,0-3.25-2.89h0a.64.64,0,0,1,.39.59v.07c0,1.47-1.44,4-3,5.53a1.52,1.52,0,0,1-1.05.48c-1,0-1.89-1.12-1.89-2.65,0-2.53,2.49-5.11,5.64-5.11,2.83,0,4.6,1.88,4.6,4.06a4.36,4.36,0,0,1-.31,1.59c-1.24,3.1-5.05,3.54-5.24,3.54a.74.74,0,0,1-.8-.69c0-.31.24-.6.77-.7C401.69,318.94,403.29,317.37,403.29,315.54Zm-4.05-2.82a4.59,4.59,0,0,0-3.5,3.88c0,1,.7,1.18.74,1.18a.41.41,0,0,0,.27-.11c.42-.38,2.17-2.45,2.22-4.34A.71.71,0,0,1,399.24,312.72Z" transform="translate(-357.29 -225.47)"/><path class="cls-2" d="M414.65,317.6c1,.08,1.41,1.37-.08,1.45l-1,.05c-.64,0-2,.14-2.46.19a8.42,8.42,0,0,1-1.08.09c-.31.68-1.23.72-1.36-.27a22.72,22.72,0,0,0-.38-3.85,3.27,3.27,0,0,0-.83-1.43c-.63-.69.47-1.51,1.14-.91a3,3,0,0,1,.46.54,1.18,1.18,0,0,1,.52-.18c.5,0,1-.08,1.53-.16l1.76-.33a12.31,12.31,0,0,1,1.3-.24,1.29,1.29,0,0,1,1.42,1.63c-.42,1-.66,2.25-1.07,3.42Zm-5.08-2.89a32.18,32.18,0,0,1,.49,3.29,5.89,5.89,0,0,0,.84,0c.41,0,1.4-.14,2.13-.21a23.13,23.13,0,0,0,.77-3.37c.06-.35-.13-.49-.39-.44-.69.09-1.49.35-2,.44a15.34,15.34,0,0,1-1.77.31Z" transform="translate(-357.29 -225.47)"/><path class="cls-2" d="M426,319.12l-1,.05c-.64,0-3.58.37-4.07.43a8.38,8.38,0,0,1-1.32.1c-.95,0-1.16-1.43,0-1.43.35,0,.72,0,1.08,0s3.08-.39,4.05-.49c.22-1.23.56-2.83.67-3.36s-.08-.48-.49-.42c-.67.1-2.95.43-3.49.53a10.41,10.41,0,0,1-1.64.18.72.72,0,1,1,0-1.44c.49,0,.92,0,1.43-.08s2.84-.35,3.35-.42a8.87,8.87,0,0,1,1.37-.2c1.32,0,1.51,1,1.3,1.49a24.71,24.71,0,0,0-1,3.62C427.06,317.85,427.35,319,426,319.12Zm.16-7.9c-.69-.35-.09-1.13.54-.85a4.11,4.11,0,0,1,1.32.94c.5.61-.36,1.4-.78.82A5.6,5.6,0,0,0,426.11,311.22Zm2.7,0a4.59,4.59,0,0,0-1.05-.91c-.67-.36-.06-1.15.56-.85a4.47,4.47,0,0,1,1.3.95C430.11,311,429.22,311.78,428.81,311.21Z" transform="translate(-357.29 -225.47)"/><path class="cls-2" d="M435.67,318.35c0,1,.47,1.59,1.15,1.59.08,0,1.52-.16,1.52-1.42,0-.71-.49-1.67-1.85-2.76a.89.89,0,0,1-.37-.63.62.62,0,0,1,.67-.57,1,1,0,0,1,.59.22c1.66,1.39,2.35,2.71,2.35,3.8a2.93,2.93,0,0,1-3,2.69c-1.27,0-2.34-.94-2.34-2.86v0c0-.35,0-.71,0-1.06-1.1-.31-2.07-.61-2.07-1.63a2.37,2.37,0,0,1,.51-1.33A.72.72,0,0,0,433,314c0-.34-.51-.76-1.33-1.06a.65.65,0,0,1-.49-.57.62.62,0,0,1,.67-.57c.45,0,2.45.87,2.45,2.06a1.8,1.8,0,0,1-.52,1.11.87.87,0,0,0-.27.54c0,.21.19.31.4.37s.37.08.57.14c.14-3,.14-3.49.14-3.86,0-.57,0-1,0-1.48a.62.62,0,0,1,.65-.67c.73,0,.75.66.75,1s-.07,1-.1,1.62c-.06,1.28-.15,2.51-.21,3.74.81.31,1.18.56,1.18,1a.72.72,0,0,1-.66.73.89.89,0,0,1-.56-.24Z" transform="translate(-357.29 -225.47)"/><path class="cls-2" d="M443.77,321.44a5.38,5.38,0,0,0-1.72-1.48.61.61,0,0,1,.28-1.17c.49,0,2.73,1.23,2.73,2.18a.77.77,0,0,1-.76.77A.63.63,0,0,1,443.77,321.44Z" transform="translate(-357.29 -225.47)"/><path class="cls-2" d="M453.92,320.9c-2.9,0-4.45-1.34-4.45-2.14a.76.76,0,0,1,.73-.76.87.87,0,0,1,.63.35,3.28,3.28,0,0,0,2.66,1.07,9.57,9.57,0,0,0,2.38-.35,1.22,1.22,0,0,1,.32,0,.7.7,0,0,1,.76.71.94.94,0,0,1-.78.88A9.24,9.24,0,0,1,453.92,320.9Zm1-7.28a8.75,8.75,0,0,1-3.8-.9.78.78,0,0,1-.46-.71.61.61,0,0,1,.63-.65,1.08,1.08,0,0,1,.4.09,9.31,9.31,0,0,0,3.38.73.71.71,0,0,1,.73.71C455.83,313.25,455.55,313.62,455,313.62Z" transform="translate(-357.29 -225.47)"/><path class="cls-2" d="M468.39,315.54a3,3,0,0,0-3.25-2.89h0a.64.64,0,0,1,.39.59v.07c0,1.47-1.44,4-3,5.53a1.52,1.52,0,0,1-1,.48c-1,0-1.89-1.12-1.89-2.65,0-2.53,2.49-5.11,5.64-5.11,2.83,0,4.6,1.88,4.6,4.06a4.36,4.36,0,0,1-.31,1.59c-1.23,3.1-5,3.54-5.24,3.54a.74.74,0,0,1-.8-.69c0-.31.24-.6.77-.7C466.79,318.94,468.39,317.37,468.39,315.54Zm-4.05-2.82a4.59,4.59,0,0,0-3.5,3.88c0,1,.7,1.18.74,1.18a.41.41,0,0,0,.27-.11c.42-.38,2.17-2.45,2.22-4.34A.74.74,0,0,1,464.34,312.72Z" transform="translate(-357.29 -225.47)"/><path class="cls-2" d="M477,314.81c0,.7.05,1.34,0,1.72,0,1.07-1.55,1.15-1.46.11a15,15,0,0,0,.05-1.72l-1.08.11c-1.14.13-1.67.2-2.1.23a.69.69,0,1,1,0-1.37c.56,0,1.36-.06,1.92-.12l1.15-.1a4.86,4.86,0,0,0-.07-.55c-.05-.38-.12-.73-.17-1a.74.74,0,1,1,1.46-.24c0,.24.06.59.11,1a6.37,6.37,0,0,1,.07.66c.62-.06,1.29-.1,1.94-.14,0-.31,0-.6,0-.91a9.78,9.78,0,0,0-.06-1.43c-.11-1.05,1.49-1.05,1.53-.13a11.37,11.37,0,0,1,0,1.43c0,.31,0,.63-.06.94l.83,0c.73,0,1.32-.1,2-.09,1.12,0,1.25,1.42,0,1.43-.76,0-1.24,0-1.88,0l-1.07,0a7.69,7.69,0,0,1-4.28,6.71c-1.16.56-1.64-.75-.73-1.15a6.11,6.11,0,0,0,3.61-5.51Z" transform="translate(-357.29 -225.47)"/><path class="cls-2" d="M486,318.49c-1.3.8-2-.64-1.07-1.12a15.77,15.77,0,0,0,5.89-5.45,9.2,9.2,0,0,0,.5-1.1c.29-.83,1.93-.41,1.44.63a5.47,5.47,0,0,1-.68,1.22c-.39.51-.77,1-1.15,1.47a.37.37,0,0,1,.12.21c.12.31.12.43.07,1.38s0,3.23,0,4.74a.81.81,0,0,1-.74.94c-.36,0-.75-.23-.74-.84,0-1.5.17-3.35.11-4.68a2.38,2.38,0,0,0,0-.39A17.61,17.61,0,0,1,486,318.49Z" transform="translate(-357.29 -225.47)"/><path class="cls-2" d="M498.12,320.48a.94.94,0,0,1-.75,1.07c-.4,0-.8-.23-.78-.86.09-2.28.12-6.69.06-8.72a6,6,0,0,0-.13-1.18c-.25-1,1.36-1.19,1.49-.22a4.81,4.81,0,0,1,.06,1.24c0,.56,0,1.37,0,2.31h.24a6.38,6.38,0,0,1,3.31,1.28c.65.71-.31,1.83-1,1.15a5.42,5.42,0,0,0-2.51-1.05C498.07,317.3,498.09,319.24,498.12,320.48Z" transform="translate(-357.29 -225.47)"/><path class="cls-2" d="M508.89,318.35c0,1,.47,1.59,1.15,1.59.08,0,1.52-.16,1.52-1.42,0-.71-.49-1.67-1.85-2.76a.89.89,0,0,1-.37-.63.62.62,0,0,1,.67-.57,1,1,0,0,1,.59.22c1.66,1.39,2.35,2.71,2.35,3.8a2.93,2.93,0,0,1-3,2.69c-1.27,0-2.34-.94-2.34-2.86v0c0-.35,0-.71,0-1.06-1.11-.31-2.08-.61-2.08-1.63a2.37,2.37,0,0,1,.51-1.33.72.72,0,0,0,.14-.39c0-.34-.51-.76-1.33-1.06a.65.65,0,0,1-.49-.57.62.62,0,0,1,.67-.57c.45,0,2.45.87,2.45,2.06a1.8,1.8,0,0,1-.52,1.11.87.87,0,0,0-.27.54c0,.21.19.31.4.37s.37.08.57.14c.14-3,.14-3.49.14-3.86,0-.57,0-1,0-1.48a.63.63,0,0,1,.66-.67c.72,0,.74.66.74,1s-.07,1-.1,1.62c-.06,1.28-.15,2.51-.21,3.74.81.31,1.18.56,1.18,1a.72.72,0,0,1-.66.73.89.89,0,0,1-.56-.24Z" transform="translate(-357.29 -225.47)"/><path class="cls-2" d="M516.47,321.74a1.6,1.6,0,1,1,1.6-1.59A1.59,1.59,0,0,1,516.47,321.74Zm0-2.64a1.06,1.06,0,1,0,0,2.11,1.06,1.06,0,1,0,0-2.11Z" transform="translate(-357.29 -225.47)"/></g><g class="cls-1"><path class="cls-2" d="M364,346.52a2.2,2.2,0,0,1-2-2.27,1.56,1.56,0,0,1,1.61-1.65,2.8,2.8,0,0,1,.64.08c0-.46-.07-.88-.1-1.27a19.5,19.5,0,0,0-5.14,1.11,1.47,1.47,0,0,1-.26.05.69.69,0,0,1-.68-.7.79.79,0,0,1,.66-.75,31.83,31.83,0,0,1,5.37-1v-.45c0-1.23,0-1.89.77-1.89a.73.73,0,0,1,.77.66.3.3,0,0,1,0,.13,10.86,10.86,0,0,0-.18,1.44c1.12-.07,2.26-.1,3.39-.1.59,0,.88.35.88.7a.74.74,0,0,1-.82.7h-.07c-.69,0-1.39-.05-2.09-.05-.43,0-.87,0-1.3,0,0,.95.08,1.83.1,2a2.31,2.31,0,0,1,.74,1.67,2.8,2.8,0,0,1-.45,1.41,6.88,6.88,0,0,1-4.85,3.17.7.7,0,0,1-.77-.67c0-.28.2-.58.67-.67a5.73,5.73,0,0,0,3.3-1.73Zm-.24-2.79a.6.6,0,0,0-.63.63,1,1,0,0,0,.88,1,.62.62,0,0,0,.61-.6c0-.05,0-.08,0-.12a1.67,1.67,0,0,0-.1-.46A.89.89,0,0,0,363.76,343.73Z" transform="translate(-357.29 -225.47)"/><path class="cls-2" d="M381.92,348.1a1,1,0,0,1-.46-.12c-1.62-.94-3.91-3.49-5.43-4.78a1.33,1.33,0,0,0-.86-.43,1.29,1.29,0,0,0-.71.29,18.26,18.26,0,0,1-2,1.37,1,1,0,0,1-.43.12.8.8,0,0,1-.81-.75.76.76,0,0,1,.53-.68c.36-.17,1.29-.69,2-1.15a2.66,2.66,0,0,1,1.42-.49,2.62,2.62,0,0,1,1.65.73,55.32,55.32,0,0,0,5.62,4.44.69.69,0,0,1,.33.6A.82.82,0,0,1,381.92,348.1Zm-2.48-5.5a5.29,5.29,0,0,0-1.19-.87.48.48,0,0,1-.35-.43.6.6,0,0,1,.62-.55c.18,0,1.89.65,1.89,1.37a.67.67,0,0,1-.6.66A.48.48,0,0,1,379.44,342.6Zm1.36-1.32a4.75,4.75,0,0,0-1.22-.82.49.49,0,0,1-.36-.44.61.61,0,0,1,.62-.56c.3,0,1.91.63,1.91,1.33a.66.66,0,0,1-.6.66A.48.48,0,0,1,380.8,341.28Z" transform="translate(-357.29 -225.47)"/><path class="cls-2" d="M392.74,348.88h-.14c-3-.29-5-2.39-5-4.54a4,4,0,0,1,1-2.57.22.22,0,0,0,.07-.12s0,0,0,0a.6.6,0,0,0-.14.05c-2.2,1.14-2.47,1.22-2.78,1.22a.79.79,0,0,1-.85-.75.8.8,0,0,1,.64-.73c.3-.1,1.09-.34,1.51-.49.66-.24,1.83-.6,3.21-1.15a10.63,10.63,0,0,1,3.71-.87c.71,0,1,.32,1,.69,0,.71-.59.87-1.12.87a1.94,1.94,0,0,1-.33,0h-.33c-2.17,0-4.3,1.85-4.3,3.72,0,1.69,1.59,3.11,3.79,3.11.7,0,1,.41,1,.83S393.39,348.88,392.74,348.88Z" transform="translate(-357.29 -225.47)"/><path class="cls-2" d="M402.12,348.9c-2.9,0-4.45-1.34-4.45-2.14a.75.75,0,0,1,.73-.76.87.87,0,0,1,.63.35,3.27,3.27,0,0,0,2.66,1.07,9.57,9.57,0,0,0,2.38-.35,1.22,1.22,0,0,1,.32,0,.7.7,0,0,1,.76.71.94.94,0,0,1-.79.88A9.1,9.1,0,0,1,402.12,348.9Zm1-7.28a8.75,8.75,0,0,1-3.8-.9.78.78,0,0,1-.46-.71.61.61,0,0,1,.63-.65,1.08,1.08,0,0,1,.4.09,9.31,9.31,0,0,0,3.38.73.71.71,0,0,1,.73.71C404,341.25,403.75,341.62,403.15,341.62Z" transform="translate(-357.29 -225.47)"/><path class="cls-2" d="M416.59,343.54a3,3,0,0,0-3.25-2.89h0a.64.64,0,0,1,.39.59v.07c0,1.47-1.44,4-3,5.53a1.52,1.52,0,0,1-1.05.48c-1,0-1.89-1.12-1.89-2.65,0-2.53,2.49-5.11,5.64-5.11,2.83,0,4.6,1.88,4.6,4.06a4.36,4.36,0,0,1-.31,1.59c-1.23,3.1-5,3.54-5.24,3.54a.74.74,0,0,1-.8-.69c0-.31.24-.6.77-.7C415,346.94,416.59,345.37,416.59,343.54Zm-4-2.82a4.59,4.59,0,0,0-3.5,3.88c0,1,.7,1.18.74,1.18a.41.41,0,0,0,.27-.11c.42-.38,2.17-2.45,2.22-4.34A.71.71,0,0,1,412.54,340.72Z" transform="translate(-357.29 -225.47)"/><path class="cls-2" d="M430,349.17c-1.24,0-2.52,0-3.81,0s-2.58,0-3.84,0a1.66,1.66,0,0,1-1.86-1.7c0-1.05-.06-2.31-.06-3.61,0-1.58,0-3.21.06-4.58a1.59,1.59,0,0,1,1.75-1.53c1.22,0,2.5,0,3.82,0s2.65,0,4,0a1.6,1.6,0,0,1,1.71,1.6c0,1.43.06,3,.06,4.54,0,1.26,0,2.48-.06,3.54A1.72,1.72,0,0,1,430,349.17Zm.45-5.77c0-1.21,0-2.41-.06-3.49,0-.8-.31-.94-1-1-1.05,0-2.21,0-3.34,0s-2.26,0-3.24,0c-.8,0-1,.24-1,1,0,1.13,0,2.38,0,3.6s0,2.41,0,3.46c0,.8.31.94,1.18.95s2,0,3.07,0l3.32,0c.78,0,1-.39,1.05-1C430.46,345.81,430.48,344.6,430.48,343.4ZM427,342.19h-4a.57.57,0,1,1,0-1.13h4V340a.63.63,0,0,1,1.26,0l0,1.08h1.23a.57.57,0,1,1,0,1.13h-1.23v1.42l0,1.88v0c0,.76-.52,1.74-2.15,1.74-.67,0-1.55-.06-1.55-.77a.67.67,0,0,1,.83-.6,4.63,4.63,0,0,0,.78.1c.46,0,.8-.17.8-.75Zm-2,2.45a4,4,0,0,0-1.24-1,.49.49,0,0,1-.31-.43.64.64,0,0,1,.64-.59c.28,0,2,.76,2,1.56a.7.7,0,0,1-.64.71A.59.59,0,0,1,424.91,344.64Z" transform="translate(-357.29 -225.47)"/><path class="cls-2" d="M442.32,346.68v2.42a.65.65,0,0,1-1.29,0v-2.42h-1.22a.57.57,0,0,1-.63-.56.61.61,0,0,1,.63-.62H441v-.35l0-2.42a13.51,13.51,0,0,1-2.95,4,.69.69,0,0,1-.51.21.65.65,0,0,1-.56-.3l0,2.47a.64.64,0,0,1-.69.65.62.62,0,0,1-.66-.63v0l.14-6.47c-.89,1.17-1.27,1.38-1.58,1.38a.65.65,0,0,1-.66-.62.67.67,0,0,1,.24-.49,12.94,12.94,0,0,0,3.2-5.07.62.62,0,0,1,.6-.45.77.77,0,0,1,.78.69,10.8,10.8,0,0,1-1.2,2.53l-.12,5.42a.86.86,0,0,1,.19-.19,12.78,12.78,0,0,0,3.4-4.36l-2.38,0h0a.57.57,0,0,1-.63-.58.62.62,0,0,1,.64-.64H441v-2.38a.61.61,0,0,1,.66-.6.63.63,0,0,1,.69.6v2.38h3.12a.6.6,0,0,1,.62.62.57.57,0,0,1-.61.6h0l-2.8,0a13.5,13.5,0,0,0,3.67,4,.67.67,0,0,1,.29.56.7.7,0,0,1-.68.7.93.93,0,0,1-.56-.22,14.82,14.82,0,0,1-3.11-3.73l0,2.39v.37h1.24a.59.59,0,1,1,0,1.18Z" transform="translate(-357.29 -225.47)"/><path class="cls-2" d="M453.88,345.32a7,7,0,0,1,0,.77.83.83,0,0,1-.75.85.59.59,0,0,1-.58-.66v-.12a8.18,8.18,0,0,0,.06-.94c-.29.15-1.6.84-1.6,1.72,0,.24.11,1.07,1.54,1.07a6.36,6.36,0,0,0,1.77-.3,1.14,1.14,0,0,1,.35,0,.68.68,0,0,1,.73.65c0,.3-.12,1-2.51,1s-3.14-1.2-3.14-2.22c0-1.71,2-2.78,2.72-3.16-.17-.54-.45-.82-.83-.82a1.39,1.39,0,0,0-.73.25c-.58.66-.93.85-1.24.85a.55.55,0,0,1-.6-.53.74.74,0,0,1,.32-.57,7.36,7.36,0,0,0,1.79-2.13,4.31,4.31,0,0,1-.69.05c-1.41,0-1.42-.78-1.42-.89a.59.59,0,0,1,.57-.62.93.93,0,0,1,.5.18.91.91,0,0,0,.52.12,5.69,5.69,0,0,0,1.11-.16,5.79,5.79,0,0,0,.25-1.1.55.55,0,0,1,.59-.49c.36,0,.76.25.76.61a2.55,2.55,0,0,1-.09.52c.42-.21.48-.22.58-.22a.61.61,0,0,1,.6.61c0,.46-.37.74-1.82,1.09a14,14,0,0,1-.8,1.41,1.86,1.86,0,0,1,1.76,1.31,16.63,16.63,0,0,1,3.24-1.13.75.75,0,0,1,.78.73.57.57,0,0,1-.37.54c-.44.18-.9.24-1.63.46s-1.19.41-1.74.63A4.94,4.94,0,0,1,453.88,345.32Z" transform="translate(-357.29 -225.47)"/><path class="cls-2" d="M459.67,348.19a.76.76,0,0,1,.42-.62,3.78,3.78,0,0,0,1.28-1.54.61.61,0,0,1,.6-.46.67.67,0,0,1,.7.64c0,.75-1.32,2.67-2.23,2.67A.74.74,0,0,1,459.67,348.19ZM466,344c-1,0-2.09,0-3-.06s-1.68-.42-1.72-1.51c0-.48,0-1,0-1.53,0-2.27,0-3.09,1.92-3.16.78,0,1.75,0,2.69,0s1.86,0,2.56,0c1.05,0,1.78.45,1.82,1.58,0,.55,0,1.2,0,1.84,0,1.59-.05,2.67-1.9,2.78C467.64,343.94,466.8,344,466,344Zm-.84-5.21c-.74,0-1.43,0-1.95.05-.67.05-.68.51-.68,1.46h2.63Zm0,2.56h-2.63c0,1,0,1.46.72,1.49l1.91.05Zm.74,8.15c-.35,0-.7,0-1,0-1.07-.1-1.6-.64-1.6-1.64,0-.61,0-1.8,0-2.46a.62.62,0,0,1,.69-.56.59.59,0,0,1,.65.56v0c0,.6,0,1.72,0,2.19,0,.66.56.69,1.44.69,1.32,0,1.74-.28,1.74-1a.62.62,0,0,1,.68-.62.69.69,0,0,1,.76.69C469.2,349.44,467.08,349.46,465.85,349.46Zm.86-3.26a5.15,5.15,0,0,0-1.52-1.07.51.51,0,0,1-.33-.47.62.62,0,0,1,.64-.6c.24,0,2.35.81,2.35,1.65a.72.72,0,0,1-.68.71A.63.63,0,0,1,466.71,346.2Zm2.25-5.94c0-.32,0-.62,0-.87,0-.61-.32-.64-2.59-.64v1.51Zm-2.62,1.05v1.54c.62,0,1.26,0,1.89-.05s.73-.65.73-1.49Zm5.06,7.07a.72.72,0,0,1-.63-.39,4.93,4.93,0,0,0-1.63-1.68.48.48,0,0,1-.25-.4.73.73,0,0,1,.73-.63c.55,0,2.55,1.58,2.55,2.36A.77.77,0,0,1,471.4,348.38Z" transform="translate(-357.29 -225.47)"/><path class="cls-2" d="M475.43,349a.63.63,0,0,1,.4-.59c2.58-1.13,3.42-2.76,3.42-4.29,0-.39-.13-2.42-1.21-2.42a2.2,2.2,0,0,0-1.1.44,3.2,3.2,0,0,1-1.47.63.75.75,0,1,1-.07-1.49,2.9,2.9,0,0,0,1-.35,4.26,4.26,0,0,1,1.78-.45c2.46,0,2.52,3.34,2.52,3.62,0,3.75-3.91,5.64-4.48,5.64A.75.75,0,0,1,475.43,349Zm3.53-9.68a6.48,6.48,0,0,1-2.72-.6.67.67,0,0,1-.38-.58.63.63,0,0,1,.64-.61.93.93,0,0,1,.38.08,3.86,3.86,0,0,0,1.64.31h.55a.64.64,0,0,1,.71.63A.77.77,0,0,1,479,339.35Z" transform="translate(-357.29 -225.47)"/><path class="cls-2" d="M484.93,349.51a.65.65,0,0,1-.64-.65.61.61,0,0,1,.42-.57,9.74,9.74,0,0,0,2.87-1.89c-.44-.26-.88-.48-1.29-.68a.59.59,0,0,1-.37-.53.65.65,0,0,1,.64-.63,7.91,7.91,0,0,1,1.87.9,14.51,14.51,0,0,0,1.12-1.6.64.64,0,0,1,.55-.32.7.7,0,0,1,.7.67c0,.11,0,.43-1.29,1.92,1.5,1,1.61,1.43,1.61,1.67a.75.75,0,0,1-.7.75.65.65,0,0,1-.5-.26,7.41,7.41,0,0,0-1.29-1.19A8.09,8.09,0,0,1,484.93,349.51Zm2.31-9.82c-1.3,2-1.76,2.08-2,2.08a.65.65,0,0,1-.68-.59.65.65,0,0,1,.23-.46,9.15,9.15,0,0,0,2.12-3.22.56.56,0,0,1,.55-.33.71.71,0,0,1,.74.62c0,.1,0,.24-.28.72h6.22a.58.58,0,0,1,.61.58.59.59,0,0,1-.63.61Zm-1.67,3.5a.56.56,0,1,1,0-1.12h6.7a1.42,1.42,0,0,1,1.53,1.34c0,.35,0,.86,0,1.43,0,2.42.8,3.1.92,3.1s.33-.33.42-1.11a.55.55,0,0,1,.58-.5.65.65,0,0,1,.69.64c0,.77-.57,2.44-1.71,2.44-.3,0-2.23-.1-2.23-5.44,0-.38,0-.78-.62-.78Zm1.8-1.82a.5.5,0,0,1-.55-.51.51.51,0,0,1,.55-.52H493a.52.52,0,1,1,0,1Z" transform="translate(-357.29 -225.47)"/><path class="cls-2" d="M499.63,344.91a6.18,6.18,0,0,1-1.47.42.66.66,0,0,1-.69-.67A.63.63,0,0,1,498,344c.55-.14,1.11-.31,1.67-.47v-2.2H498.3a.62.62,0,0,1,0-1.24h1.33v-2.24a.64.64,0,0,1,.67-.66.63.63,0,0,1,.66.66v2.24h1a.62.62,0,0,1,0,1.24h-1v1.76c.36-.14.71-.28,1-.42a.51.51,0,0,1,.2,0,.58.58,0,0,1,.51.62c0,.42-.19.5-1.75,1.13V346c0,.22.05,1.5.06,2V348c0,.89-.57,1.57-1.79,1.57-.75,0-1.26-.12-1.26-.76a.58.58,0,0,1,.54-.64h.13a2,2,0,0,0,.45.06c.29,0,.57-.1.57-.46Zm3.1-2.32a.58.58,0,0,1-.62-.58.57.57,0,0,1,.62-.57h2.52v-1.23h-1.89a.57.57,0,1,1,0-1.14h1.87v-1.21a.68.68,0,0,1,1.35,0v1.21h2.13a.57.57,0,1,1,0,1.14h-2.15v1.23h2.9a.55.55,0,0,1,.59.57.56.56,0,0,1-.59.58ZM508,345l0,.91,0,2v.05c0,.77-.6,1.76-2.27,1.76-.56,0-1.51,0-1.51-.75a.62.62,0,0,1,.62-.66h.14a4,4,0,0,0,.81.1c.49,0,.85-.17.85-.76V345l-4,0a.58.58,0,0,1-.62-.58.57.57,0,0,1,.62-.57h4v-.53a.66.66,0,0,1,1.3,0v.53h1.53a.56.56,0,0,1,.59.57.57.57,0,0,1-.59.58Zm-3.35,2.44a3.77,3.77,0,0,0-1.16-1,.48.48,0,0,1-.29-.43.62.62,0,0,1,.64-.59c.37,0,1.93.81,1.93,1.54a.71.71,0,0,1-.64.73A.62.62,0,0,1,504.67,347.39Z" transform="translate(-357.29 -225.47)"/><path class="cls-2" d="M515.66,339.49a1.15,1.15,0,0,1,.69-.28.57.57,0,0,1,.6.57c0,.44-.43.89-1.71,1.57-.18,1.26-.47,2.92-.49,3.76a5.3,5.3,0,0,1,3.56-1.88c1,0,2.56.56,2.56,2a3.34,3.34,0,0,1-1,2.21,7.36,7.36,0,0,1-4.16,2,.71.71,0,0,1-.79-.67.69.69,0,0,1,.65-.66c2.88-.42,3.88-2.1,3.88-2.77s-.74-.93-1.28-.93a4.74,4.74,0,0,0-3.22,2.2c-.18.3-.15.48-.53.63a.83.83,0,0,1-.29.06.68.68,0,0,1-.72-.71c0-.4.13-1.74.52-4.75a3.59,3.59,0,0,1-.84.11c-.41,0-1.4-.08-1.4-.77a.65.65,0,0,1,.66-.66.8.8,0,0,1,.36.07,1.32,1.32,0,0,0,.42.07,2.4,2.4,0,0,0,1-.24c.25-2.08.33-2.56,1-2.56a.61.61,0,0,1,.66.59,8.39,8.39,0,0,1-.25,1.13Z" transform="translate(-357.29 -225.47)"/><path class="cls-2" d="M525.83,343a8.19,8.19,0,0,1-1.59.27.61.61,0,0,1-.66-.63.68.68,0,0,1,.71-.7,10.28,10.28,0,0,0,2.31-.33,6,6,0,0,0,.68-2.14.59.59,0,0,1,.63-.5.7.7,0,0,1,.76.64,4.86,4.86,0,0,1-.5,1.7h.11c1.59,0,1.64,1.72,1.64,2.36,0,1.25-.06,4.75-2.65,4.75-.8,0-1.84-.36-1.84-1a.75.75,0,0,1,.73-.72.66.66,0,0,1,.3.07,1.86,1.86,0,0,0,.78.21c.91,0,1.33-1,1.33-3.44,0-.57-.08-1-.53-1a.77.77,0,0,0-.25,0l-.23.05c-1,2-2.52,4.28-3.42,5.8a.81.81,0,0,1-.72.41.66.66,0,0,1-.72-.6.83.83,0,0,1,.17-.49c.62-.94,2.07-3,3.07-4.74Zm7.76,1.93a4.45,4.45,0,0,0-2.41-2.22.51.51,0,0,1-.38-.48.65.65,0,0,1,.67-.62c.72,0,3.46,1.74,3.46,3a.74.74,0,0,1-.74.74A.64.64,0,0,1,533.59,345Z" transform="translate(-357.29 -225.47)"/><path class="cls-2" d="M539.35,349.58c-.53,0-.77-.31-.77-.63a.67.67,0,0,1,.64-.66c2.48-.2,4.5-1.66,4.5-2.78a1,1,0,0,0-1.08-.89c-1.08,0-3.06,1.76-3.27,2a1,1,0,0,1-.78.49c-.3,0-1.16-.3-1.16-2.29a6.15,6.15,0,0,1,.25-1.82,6.06,6.06,0,0,0,.14-1.18v-.24c0-.91.42-1.37,1.39-1.9.34-.19.74-.35.74-.52s-.15-.23-.53-.35a.64.64,0,0,1-.52-.58.7.7,0,0,1,.76-.63c.5,0,2.25.83,2.25,1.8,0,.65-.51.75-1.21.86a3.73,3.73,0,0,0-.68.28c-.88.41-1,.78-1,1.21,0,.07,0,.15,0,.24v.15a3.87,3.87,0,0,1,0,.56,13,13,0,0,0-.24,1.85s0,.6.17.6a.24.24,0,0,0,.12,0c.28-.17.82-.53,1.43-.88a4.73,4.73,0,0,1,2.26-.76,2.24,2.24,0,0,1,2.42,2c0,.89-.61,2-2.1,2.94A9.19,9.19,0,0,1,539.35,349.58Z" transform="translate(-357.29 -225.47)"/><path class="cls-2" d="M547.9,349.13a.6.6,0,0,1-.66-.6.66.66,0,0,1,.66-.68l4.78,0v-2.52h-2.63a.59.59,0,0,1-.66-.6.64.64,0,0,1,.66-.65l2.63,0V342l-2.49,0a16.43,16.43,0,0,1-1.56,2.28.79.79,0,0,1-.62.32.66.66,0,0,1-.67-.63.77.77,0,0,1,.18-.45,12.48,12.48,0,0,0,2.5-4.58.63.63,0,0,1,.64-.47.73.73,0,0,1,.79.64.58.58,0,0,1-.05.21c-.18.49-.37,1-.58,1.43h1.86v-2.49a.72.72,0,1,1,1.44,0v2.49h3.78a.63.63,0,1,1,0,1.25l-3.78,0v2.15l2.83,0a.63.63,0,1,1,0,1.25h-2.83v2.52l4.68,0a.61.61,0,0,1,.63.65.6.6,0,0,1-.63.63Z" transform="translate(-357.29 -225.47)"/><path class="cls-2" d="M564.61,349.56c-1.18,0-2.34-.77-2.34-1.78,0-1.31,1.68-1.61,2.73-1.61a6.2,6.2,0,0,1,1,.09V346q0-.31,0-.69c0-.43-.08-.88-.11-1.36a4.77,4.77,0,0,1-1.07.14c-.26,0-1.69-.11-1.69-1.05,0-.26.11-.73,1-1.54.18-.15.31-.29.31-.45,0-.38-1.2-.8-2.11-.81-.5,0-.74-.29-.74-.59s.25-.63.76-.63,2.92.52,3.36,1.5v-.66c0-.57,0-1.12,0-1.58a.64.64,0,0,1,.64-.7.71.71,0,0,1,.73.7v.06c-.07.93-.14,2.27-.14,3.6v.37a2.28,2.28,0,0,0,.67-.49.67.67,0,0,1,1.17.45c0,.69-1.17,1.16-1.81,1.37,0,.54.05,1,.11,1.47s.1.93.11,1.45c1,.36,2.1,1,2.1,1.71a.75.75,0,0,1-.7.78.84.84,0,0,1-.6-.32,3.84,3.84,0,0,0-1-.81A2.8,2.8,0,0,1,564.61,349.56Zm.17-2.31c-1,0-1.29.25-1.29.52s.53.6,1,.6a1.45,1.45,0,0,0,1.38-1A4.62,4.62,0,0,0,564.78,347.25Zm1-6a1.44,1.44,0,0,1-.45.59c-.81.65-.82.86-.82.9s.22.2.39.2a3.62,3.62,0,0,0,.94-.16C565.81,342.28,565.8,341.76,565.78,341.25Z" transform="translate(-357.29 -225.47)"/><path class="cls-2" d="M572.53,346.8s.1-.11.21-.28.26-.43.41-.67a12.5,12.5,0,0,1,1.06-1.51c.18-.33.34-.63.46-.91l0-.4a5.49,5.49,0,0,0-1.24.62.92.92,0,0,1-.51.2.58.58,0,0,1-.53-.62c0-.46.11-.62,2.44-1.62.11-1.15.19-2.16.19-2.78a.61.61,0,0,1,.63-.66.68.68,0,0,1,.71.65c0,.42-.17,1.82-.26,2.53a.58.58,0,0,1,.32.56c1-1,2.12-1.79,3.17-1.79a1.5,1.5,0,0,1,1.5,1.67c0,.08,0,.18,0,.28-.1.91-.51,2.39-.66,3.68a2.9,2.9,0,0,0,0,.48c0,.43.15.61.65.61a4.16,4.16,0,0,0,1.56-.44,1,1,0,0,1,.38-.09.62.62,0,0,1,.61.66.81.81,0,0,1-.52.76,5.24,5.24,0,0,1-2,.43c-1.08,0-2-.35-2-1.76a3.52,3.52,0,0,1,.06-.63c.2-1.28.57-2.75.63-3.66V342c0-.47-.17-.63-.42-.63-.74,0-2.37,1.54-3.5,2.94-.06.74-.1,1.5-.1,2.21a12.13,12.13,0,0,0,.14,2,.36.36,0,0,1,0,.15.73.73,0,0,1-.75.73c-.74,0-.75-.83-.75-1.84,0-.49,0-1,.05-1.59-.31.5-.6,1.09-.85,1.58a1.17,1.17,0,0,1-1,.73.52.52,0,0,1-.56-.52,1.47,1.47,0,0,1,.42-.81Z" transform="translate(-357.29 -225.47)"/><path class="cls-2" d="M589.92,341.07a67,67,0,0,1-3.25,7.36.72.72,0,0,1-.67.39.67.67,0,0,1-.73-.6.81.81,0,0,1,.11-.4,42.91,42.91,0,0,0,3-6.33l-.15.05a4.59,4.59,0,0,1-1.19.18c-.14,0-1.24,0-1.24-.76a.66.66,0,0,1,.62-.71.78.78,0,0,1,.42.11.83.83,0,0,0,.36.08,6,6,0,0,0,1.64-.39,5.29,5.29,0,0,0,.1-1.12.71.71,0,0,1,.77-.66.6.6,0,0,1,.66.51,1.69,1.69,0,0,1,0,.23,2.53,2.53,0,0,1,0,.27,1,1,0,0,1,.18,0,.66.66,0,0,1,.66.65c0,.36-.25.61-1.29,1.07Zm4.27,7.89c-2.3,0-3.81-1.22-3.81-1.93a.74.74,0,0,1,.69-.75.67.67,0,0,1,.54.31c.54.72,1,.81,2.82.94a.69.69,0,0,1,.71.7C595.14,349,594.42,349,594.19,349Zm.81-5.27a7.87,7.87,0,0,0-2.48-.64,1.78,1.78,0,0,0-.47.05l-.16,0a.55.55,0,0,1-.53-.57c0-.23.07-.74,1.32-.74a7.93,7.93,0,0,1,2.84.63.64.64,0,0,1,.45.61.69.69,0,0,1-.67.69A.8.8,0,0,1,595,343.69Z" transform="translate(-357.29 -225.47)"/><path class="cls-2" d="M599.35,349.74a1.6,1.6,0,1,1,1.6-1.59A1.59,1.59,0,0,1,599.35,349.74Zm0-2.64a1.06,1.06,0,1,0,0,2.11,1.06,1.06,0,1,0,0-2.11Z" transform="translate(-357.29 -225.47)"/></g><g class="cls-1"><path class="cls-2" d="M360.36,395.63c-1.21,0-1.26,0-1.44.63-.05.13-.07.28-.13.45a.76.76,0,0,1-.74.57.73.73,0,0,1-.76-.73,1.27,1.27,0,0,1,.07-.36c.45-1.34.69-2,2.17-2h.27c.43,0,1.15,0,1.92,0,.94,0,1.94,0,2.59,0h.14c1.11,0,1.69.32,2,1.13.08.23.24.55.33.84a.83.83,0,0,1,.06.33.77.77,0,0,1-1.51.18l-.13-.42c-.21-.65-.35-.66-1.09-.66-1.15,0-1.16,0-1.16.31,0,1-.05,2.53-.05,4,0,1.08,0,2.14,0,3,0,.31.14.33.39.33a.75.75,0,0,1,.82.75.73.73,0,0,1-.77.74h-.06l-1.13,0-1.24,0a.73.73,0,0,1-.81-.74.72.72,0,0,1,.76-.75h.05c.25,0,.39,0,.39-.31,0-1.14,0-2.85,0-4.57,0-.85,0-1.71,0-2.49C361.32,395.63,361.32,395.63,360.36,395.63Z" transform="translate(-357.29 -225.47)"/><path class="cls-2" d="M370.59,400.56a4.7,4.7,0,0,0-1.73-.71c-.84-.14-.56-1.47.46-1.28a7.21,7.21,0,0,1,2,.72.73.73,0,0,1,.3,1A.72.72,0,0,1,370.59,400.56Zm-.07,4.32c-1.17.14-1.36-1.32-.46-1.46a4.84,4.84,0,0,0,1.08-.35,15.43,15.43,0,0,0,6.4-6.43c.48-.88,1.88-.27,1.23.84a17.76,17.76,0,0,1-6.89,6.92A3.3,3.3,0,0,1,370.52,404.88Zm1.77-6.81a5.13,5.13,0,0,0-1.54-1.08c-.79-.32-.21-1.57.74-1.15a7.54,7.54,0,0,1,1.83,1.16.74.74,0,0,1,.06,1.08A.71.71,0,0,1,372.29,398.07Z" transform="translate(-357.29 -225.47)"/><path class="cls-2" d="M384,400.53c.39,1.28.88,2.78,1.25,3.73a.72.72,0,0,1-.33,1,.64.64,0,0,1-.84-.5c-.3-1-.75-2.48-1.16-3.79l-.8.33a6.59,6.59,0,0,1-.95.33.62.62,0,1,1-.34-1.19c.45-.13.59-.15.87-.25l.87-.32c-.08-.27-.17-.51-.24-.72s-.18-.5-.26-.7c-.31-.74.88-1.18,1.15-.43.09.25.18.5.25.75s.12.42.19.68c1-.37,2.12-.77,2.93-1a.79.79,0,0,1,1,1.06,5.48,5.48,0,0,1-1.54,2.37c-.77.67-1.59-.34-.89-.88a3.24,3.24,0,0,0,1-1.21C385.49,400,384.68,400.25,384,400.53Z" transform="translate(-357.29 -225.47)"/><path class="cls-2" d="M392,399.51a5.38,5.38,0,0,0-1.13-1.51c-.65-.55.28-1.56,1.05-.86a7.58,7.58,0,0,1,1.39,1.67.75.75,0,0,1-.27,1.05A.72.72,0,0,1,392,399.51Zm0,4.2a10.67,10.67,0,0,0,5.82-6.17,2.88,2.88,0,0,0,.16-1,.83.83,0,0,1,1.65,0,3.4,3.4,0,0,1-.36,1.58,12.55,12.55,0,0,1-6.52,6.88C391.62,405.56,391.12,404.12,392,403.71Zm2.53-5.22a5.19,5.19,0,0,0-.89-1.66c-.58-.64.49-1.49,1.16-.7A7.4,7.4,0,0,1,396,398a.73.73,0,0,1-.42,1A.72.72,0,0,1,394.56,398.49Z" transform="translate(-357.29 -225.47)"/><path class="cls-2" d="M402.39,405.44a5.32,5.32,0,0,0-1.73-1.48.63.63,0,0,1-.37-.56.62.62,0,0,1,.65-.61c.49,0,2.74,1.23,2.74,2.18a.77.77,0,0,1-.76.77A.62.62,0,0,1,402.39,405.44Z" transform="translate(-357.29 -225.47)"/><path class="cls-2" d="M408.22,404.4c-1,.39-1.75-.93-.54-1.33a12.11,12.11,0,0,0,6.26-5.38c.11-.23,0-.32-.13-.31-.68.07-2.28.52-2.64.6a6.2,6.2,0,0,1-1.42.24.72.72,0,1,1,0-1.44,9.51,9.51,0,0,0,1.25-.15c.51-.09,2.2-.54,3.38-.65s1.8.71,1.34,1.53a19.77,19.77,0,0,1-1.76,2.63,9.93,9.93,0,0,1,3.84,2.66.86.86,0,0,1-.13,1.16.7.7,0,0,1-1-.12,11.55,11.55,0,0,0-3.54-2.71A13.06,13.06,0,0,1,408.22,404.4Z" transform="translate(-357.29 -225.47)"/><path class="cls-2" d="M426.62,399.8a7.2,7.2,0,0,1-4.59,5.47c-1.36.53-1.64-1-.66-1.33a5.49,5.49,0,0,0,3.77-4.19.94.94,0,0,0-.17-.65.67.67,0,0,1-.1-.21l-2.27.28c-.79.09-1.29.24-1.73.27a.71.71,0,1,1,0-1.41c.51,0,1.15,0,1.77-.1,1.06-.11,3.42-.38,4.87-.51a8.3,8.3,0,0,1,2-.11c.63.09.87.3.86.7s-.33.69-.93.69c-.85,0-1.61-.06-2.41,0l-.47,0A1.91,1.91,0,0,1,426.62,399.8Zm-.21-3.58c-.82,0-1.61.14-2.24.21a10.43,10.43,0,0,1-1.65.12c-.9,0-1.12-1.3,0-1.34a13,13,0,0,0,1.39,0l2.48-.25a4.8,4.8,0,0,0,.64-.13,2.84,2.84,0,0,1,.69-.08c1.06,0,1.28,1.33,0,1.41Z" transform="translate(-357.29 -225.47)"/><path class="cls-2" d="M433.41,401.23a3.26,3.26,0,0,0-.75-1c-.58-.49.23-1.36.88-.77a5.56,5.56,0,0,1,1,1.2A.63.63,0,1,1,433.41,401.23Zm.07,2.79a7.28,7.28,0,0,0,4-4.26,2.18,2.18,0,0,0,.1-.67.7.7,0,0,1,1.39,0,2.53,2.53,0,0,1-.27,1.15,9,9,0,0,1-4.61,4.88C433.16,405.59,432.71,404.37,433.48,404Zm1.72-3.52a3.55,3.55,0,0,0-.61-1.12c-.51-.56.42-1.3,1-.63a5,5,0,0,1,.81,1.32A.63.63,0,1,1,435.2,400.5Z" transform="translate(-357.29 -225.47)"/><path class="cls-2" d="M447.5,398.7a10,10,0,0,1-4.88,6.29c-.92.47-1.85-.69-.7-1.28a8.68,8.68,0,0,0,4.08-4.82l-1,.14a14,14,0,0,1-1.76.19c-1.18,0-1.05-1.39-.14-1.35a12.39,12.39,0,0,0,1.76-.11c.54,0,1-.11,1.53-.17.07-.32.13-.63.17-.94a8,8,0,0,0,0-1.47c0-.91,1.43-.8,1.47,0a8,8,0,0,1-.09,1.34c-.05.28-.09.58-.14.87l1.26-.15a1.5,1.5,0,0,1,1.78,1.71,12.21,12.21,0,0,1-1.15,4.44c-1,1.51-2.65,2-3.87.73-.66-.68.25-1.95,1-1.14.53.58,1.06.35,1.59-.33a9.16,9.16,0,0,0,1-3.51c0-.33,0-.72-.67-.64Z" transform="translate(-357.29 -225.47)"/><path class="cls-2" d="M462.65,400.07h-.73c-2.68,0-4.72.13-5.83.17l-1.38,0h-.45a.79.79,0,0,1-.82-.76c0-.35.28-.69.85-.69h.08c.52,0,1.13.05,1.69.05,1.15,0,4.15-.17,6.62-.24h0a.77.77,0,0,1,.86.71c0,.37-.3.73-.9.73Z" transform="translate(-357.29 -225.47)"/><path class="cls-2" d="M466.93,405.44A5.32,5.32,0,0,0,465.2,404a.63.63,0,0,1-.37-.56.62.62,0,0,1,.65-.61c.49,0,2.74,1.23,2.74,2.18a.77.77,0,0,1-.76.77A.62.62,0,0,1,466.93,405.44Z" transform="translate(-357.29 -225.47)"/><path class="cls-2" d="M475.08,404.48a1,1,0,0,1-.76,1.07c-.39,0-.8-.23-.77-.86.08-2.28.11-6.69.06-8.72a6.82,6.82,0,0,0-.13-1.18c-.25-1,1.36-1.19,1.49-.22a5,5,0,0,1,0,1.24c0,.56,0,1.37,0,2.31h.24a6.35,6.35,0,0,1,3.3,1.28c.66.71-.31,1.83-1,1.15a5.39,5.39,0,0,0-2.5-1.05C475,401.3,475.05,403.24,475.08,404.48Z" transform="translate(-357.29 -225.47)"/><path class="cls-2" d="M490.65,400.07h-.73c-2.68,0-4.72.13-5.83.17l-1.38,0h-.45a.79.79,0,0,1-.82-.76c0-.35.29-.69.85-.69h.08c.52,0,1.13.05,1.69.05,1.15,0,4.15-.17,6.62-.24h0a.77.77,0,0,1,.86.71c0,.37-.3.73-.9.73Z" transform="translate(-357.29 -225.47)"/><path class="cls-2" d="M496.64,404.48a1,1,0,0,1-.76,1.07c-.39,0-.8-.23-.77-.86.09-2.28.11-6.69.06-8.72a6.82,6.82,0,0,0-.13-1.18c-.25-1,1.36-1.19,1.49-.22a5,5,0,0,1,.05,1.24c0,.56,0,1.37,0,2.31h.24a6.32,6.32,0,0,1,3.3,1.28c.66.71-.31,1.83-1,1.15a5.47,5.47,0,0,0-2.51-1.05C496.58,401.3,496.61,403.24,496.64,404.48Z" transform="translate(-357.29 -225.47)"/><path class="cls-2" d="M503.21,401.49a5.82,5.82,0,0,0,3.21-3.23.75.75,0,0,1,1.43.42c-.46,1.74-2.7,3.65-4.05,4.21A.76.76,0,1,1,503.21,401.49Zm9.74.5a9.25,9.25,0,0,0-3.21-3.22c-.77-.42-.05-1.59.91-1s3.08,2,3.72,3.46a.9.9,0,0,1-.38,1.14A.74.74,0,0,1,513,402Zm-1.71-5c-.7-.3-.15-1.14.49-.9a4.56,4.56,0,0,1,1.37.84c.55.57-.26,1.43-.72.88A4.94,4.94,0,0,0,511.24,397Zm1.26-1.19c-.71-.28-.21-1.12.45-.91a4.27,4.27,0,0,1,1.4.79c.56.56-.22,1.42-.7.9A5.07,5.07,0,0,0,512.5,395.76Z" transform="translate(-357.29 -225.47)"/><path class="cls-2" d="M518,401.23a3.26,3.26,0,0,0-.75-1c-.58-.49.24-1.36.88-.77a5.56,5.56,0,0,1,1,1.2A.63.63,0,1,1,518,401.23ZM518,404a7.28,7.28,0,0,0,4-4.26,2.18,2.18,0,0,0,.1-.67.7.7,0,0,1,1.39,0,2.3,2.3,0,0,1-.27,1.15,9,9,0,0,1-4.61,4.88C517.72,405.59,517.27,404.37,518,404Zm1.73-3.52a3.56,3.56,0,0,0-.62-1.12c-.5-.56.42-1.3,1-.63a5,5,0,0,1,.81,1.32A.63.63,0,1,1,519.77,400.5Z" transform="translate(-357.29 -225.47)"/><path class="cls-2" d="M527.59,400.64c-1,.65-1.79-.63-.81-1.21a10.39,10.39,0,0,0,3-3.25,4.24,4.24,0,0,0,.54-1.15c.26-.94,1.66-.69,1.5.24a2.33,2.33,0,0,1-.21.61c.67-.11,1.4-.28,2-.32,1-.06,1.85.63,1.32,1.54-2.25,3.87-4.3,6.57-8.08,8-1.21.46-1.75-1-.56-1.36,2.95-1,5.25-3.51,6.86-6.55.14-.28,0-.34-.19-.34a21.46,21.46,0,0,0-2.25.35A14.49,14.49,0,0,1,527.59,400.64Zm7.07-5.47c-.7-.3-.15-1.14.49-.9a4.74,4.74,0,0,1,1.38.84c.54.58-.27,1.43-.73.88A4.74,4.74,0,0,0,534.66,395.17Zm1.26-1.19c-.71-.28-.21-1.12.45-.91a4.12,4.12,0,0,1,1.4.8c.56.56-.22,1.41-.7.89A4.66,4.66,0,0,0,535.92,394Z" transform="translate(-357.29 -225.47)"/><path class="cls-2" d="M540.47,400.38a1,1,0,0,1-1-1,1,1,0,0,1,2,0A1,1,0,0,1,540.47,400.38Zm4.66,0a.93.93,0,0,1-1-1,1,1,0,0,1,2,0A1,1,0,0,1,545.13,400.38Zm4.67,0a.93.93,0,0,1-1-1,1,1,0,0,1,2,0A1,1,0,0,1,549.8,400.38Z" transform="translate(-357.29 -225.47)"/><path class="cls-2" d="M554.47,405.74a1.6,1.6,0,1,1,1.6-1.59A1.6,1.6,0,0,1,554.47,405.74Zm0-2.64a1.06,1.06,0,1,0,1.06,1A1,1,0,0,0,554.47,403.1Z" transform="translate(-357.29 -225.47)"/></g><g class="cls-1"><path class="cls-2" d="M362.7,425.07a67,67,0,0,1-3.25,7.36.72.72,0,0,1-.67.39.67.67,0,0,1-.73-.6.81.81,0,0,1,.11-.4,44,44,0,0,0,3-6.33l-.16.05a4.53,4.53,0,0,1-1.19.18c-.14,0-1.23,0-1.23-.76a.66.66,0,0,1,.62-.71.82.82,0,0,1,.42.11.83.83,0,0,0,.36.08,6.07,6.07,0,0,0,1.64-.39,5.29,5.29,0,0,0,.1-1.12.71.71,0,0,1,.77-.66.6.6,0,0,1,.66.51,1.69,1.69,0,0,1,0,.23,2.53,2.53,0,0,1,0,.27.84.84,0,0,1,.18,0,.66.66,0,0,1,.66.65c0,.36-.25.61-1.29,1.07ZM367,433c-2.3,0-3.81-1.22-3.81-1.93a.74.74,0,0,1,.69-.75.67.67,0,0,1,.54.31c.54.72,1,.81,2.82.94a.69.69,0,0,1,.71.7C367.92,433,367.19,433,367,433Zm.81-5.27a7.94,7.94,0,0,0-2.48-.64,1.78,1.78,0,0,0-.47.05l-.16,0a.55.55,0,0,1-.53-.57c0-.23.07-.74,1.32-.74a8,8,0,0,1,2.84.63.64.64,0,0,1,.45.61.69.69,0,0,1-.67.69A.8.8,0,0,1,367.78,427.69Z" transform="translate(-357.29 -225.47)"/><path class="cls-2" d="M375.75,433.53a.7.7,0,0,1-.66-.46,19.65,19.65,0,0,0-2.82-4.41,2.53,2.53,0,0,1-.66-1.47,2.12,2.12,0,0,1,.55-1.3,34,34,0,0,0,2.62-3.69.67.67,0,0,1,.59-.36.9.9,0,0,1,.88.82.81.81,0,0,1-.12.41c-.57.9-2.13,2.65-2.88,3.54a.83.83,0,0,0-.22.52,1.19,1.19,0,0,0,.34.72c1.42,1.85,2.53,2.9,3.18,4.49a1.21,1.21,0,0,1,.07.35A.88.88,0,0,1,375.75,433.53Z" transform="translate(-357.29 -225.47)"/><path class="cls-2" d="M384.24,424.72a4.48,4.48,0,0,1-.68-1.58.6.6,0,0,1,.64-.6.85.85,0,0,1,.81.67,7.15,7.15,0,0,0,.51,1.19l.63-.22a1.09,1.09,0,0,1,.41-.09.63.63,0,0,1,.65.65c0,.53-.37.64-1.06.84,1.22,2.17,1.92,3.46,1.92,4.34,0,.56-.28.78-.62.78a1.12,1.12,0,0,1-.73-.29,7,7,0,0,0-3.23-.76c-1.12,0-1.68.55-1.68.94,0,.62,1.2,1,2.45,1l.67,0h.13c.54,0,.81.32.81.67a.83.83,0,0,1-.91.8c-2.86,0-4.54-1.11-4.54-2.37,0-.68.74-2.22,3.18-2.22a17.36,17.36,0,0,1,2.59.31h.13s0,0,0,0,0-.56-1.44-2.9a10.26,10.26,0,0,1-1.56.23c-1.62,0-3-1.39-3-2a.62.62,0,0,1,.67-.58.87.87,0,0,1,.66.3,2.39,2.39,0,0,0,1.81,1h.26Z" transform="translate(-357.29 -225.47)"/><path class="cls-2" d="M396.21,432.68c-.7,0-1.9-.21-1.9-1.49a2.73,2.73,0,0,1,.11-.7,3.82,3.82,0,0,0,.24-1.09c0-.32-.11-.43-.31-.43a3.54,3.54,0,0,0-2.45,2.53c-.35,1.08-.71,1.18-1.09,1.18a.64.64,0,0,1-.69-.63,1.12,1.12,0,0,1,.13-.48,44.31,44.31,0,0,1,2.34-4.14c.78-1.25,1.41-2.44,2-3.52.23-.39.58-.9.72-1.16a.65.65,0,0,1,.6-.38.8.8,0,0,1,.8.76c0,.28-.14.56-.76,1.31a20.88,20.88,0,0,0-1.55,2.15c-.42.65-.76,1.24-1.07,1.69,0,0,0,.06,0,.07h0l.07-.06a2.3,2.3,0,0,1,1.26-.37c.66,0,1.29.3,1.29,1.41v.14a5.26,5.26,0,0,1-.26,1.09.75.75,0,0,0,0,.2c0,.39.31.57.76.57,1.35,0,3-1.48,3.45-3.37a.77.77,0,0,1,1.53.1.87.87,0,0,1,0,.26C400.05,432.15,397.32,432.68,396.21,432.68Z" transform="translate(-357.29 -225.47)"/><path class="cls-2" d="M412.53,427.54a3,3,0,0,0-3.25-2.89h0a.64.64,0,0,1,.39.59v.07c0,1.47-1.44,4-3,5.53a1.52,1.52,0,0,1-1.05.48c-1,0-1.89-1.12-1.89-2.65,0-2.53,2.49-5.11,5.64-5.11,2.83,0,4.6,1.88,4.6,4.06a4.36,4.36,0,0,1-.31,1.59c-1.23,3.1-5,3.54-5.24,3.54a.74.74,0,0,1-.8-.69c0-.31.24-.6.77-.7C410.93,430.94,412.53,429.37,412.53,427.54Zm-4-2.82a4.59,4.59,0,0,0-3.5,3.88c0,1,.7,1.18.74,1.18a.41.41,0,0,0,.27-.11c.42-.38,2.17-2.45,2.22-4.34A.71.71,0,0,1,408.48,424.72Z" transform="translate(-357.29 -225.47)"/><path class="cls-2" d="M427.23,432.13a.56.56,0,0,1,.57.59c0,.67-.67.69-1.15.69a9.83,9.83,0,0,1-4.37-.94,10.82,10.82,0,0,1-4,1.16.6.6,0,0,1-.61-.61.55.55,0,0,1,.6-.56,8.13,8.13,0,0,0,2.9-.71,4.62,4.62,0,0,1-1.08-1.14,10.34,10.34,0,0,1-3.3,2,.56.56,0,0,1-.58-.56.62.62,0,0,1,.41-.56,11.44,11.44,0,0,0,3.85-2.9.83.83,0,0,1,.21-.17c-.67-.16-.91-.59-.91-1.35,0-.09,0-.36,0-.65,0-.58,0-1,.6-1a.55.55,0,0,1,.61.49c0,.38,0,.84,0,1,0,.36.11.5,1,.5,1.2,0,1.45-.08,1.45-.71a.49.49,0,0,1,.54-.49.59.59,0,0,1,.65.52c0,1.52-.65,1.75-2.66,1.75a4.43,4.43,0,0,1-.52,0,.47.47,0,0,1,.19.37.47.47,0,0,1-.07.25l2.43,0c.76,0,1.12.4,1.12.85s-.12.67-1.56,1.75a11.52,11.52,0,0,0,3.34.42h.37Zm-9.63-5.68a.61.61,0,0,1-.67.57c-.64,0-.66-.46-.66-1,0-.79.05-1.81,1.49-1.82.4,0,.82,0,1.26,0a3.09,3.09,0,0,0-.37-.64.41.41,0,0,1,.17-.56l-.81,0h0a.64.64,0,0,1-.7-.6.55.55,0,0,1,.62-.52,52,52,0,0,0,7.44-.57.44.44,0,0,1,.16,0,.58.58,0,0,1,.62.58c0,.46-.28.5-1,.6a.51.51,0,0,1,.21.39,4.39,4.39,0,0,1-.51,1.32c.45,0,.9,0,1.32,0,.76,0,1.6.38,1.63,1.27,0,.16,0,.35,0,.55,0,.53-.06,1-.73,1a.6.6,0,0,1-.66-.56v0c0-1,0-1.16-.74-1.18-1,0-2.27,0-3.56,0,.37.22,1.11.83,1.11,1.27a.65.65,0,0,1-.6.64.44.44,0,0,1-.4-.24,4.47,4.47,0,0,0-.82-1,.35.35,0,0,1-.14-.28.53.53,0,0,1,.31-.44c-1.17,0-2.3,0-3.13,0s-.78.25-.8.61v.63Zm-.75,1.73a.69.69,0,0,1,.42-.59,2.84,2.84,0,0,0,1.09-1.24.54.54,0,0,1,.52-.39.6.6,0,0,1,.63.57c0,.64-1.14,2.23-2,2.23A.6.6,0,0,1,416.85,428.18Zm2.73-5.25c.11.11.66.74.66,1.09,0,0,0,.07,0,.1h1.22a3.89,3.89,0,0,0-.36-.86.42.42,0,0,1,0-.18.35.35,0,0,1,.15-.29l-1.67.09Zm3.77,7.26c0-.06-.07-.09-.13-.09h-.05c-.07,0-1.27,0-2.11,0a4.27,4.27,0,0,0,1.19,1C422.94,430.7,423.35,430.3,423.35,430.19Zm.24-6.17a4.76,4.76,0,0,0,.5-1.41.16.16,0,0,1,0-.09l-2.15.2a2.19,2.19,0,0,1,.63,1.22.52.52,0,0,1,0,.17h1A.38.38,0,0,1,423.59,424Zm2.28,4.09a5.29,5.29,0,0,0-1.14-1.38.58.58,0,0,1-.22-.42.57.57,0,0,1,.6-.51c.49,0,2,1.36,2,2a.7.7,0,0,1-.67.7A.61.61,0,0,1,425.87,428.11Z" transform="translate(-357.29 -225.47)"/><path class="cls-2" d="M433.08,427a8.19,8.19,0,0,1-1.59.27.61.61,0,0,1-.66-.63.68.68,0,0,1,.7-.7,10.33,10.33,0,0,0,2.32-.33,6,6,0,0,0,.68-2.14.59.59,0,0,1,.63-.5.7.7,0,0,1,.76.64,4.75,4.75,0,0,1-.51,1.7h.12c1.59,0,1.64,1.72,1.64,2.36,0,1.25-.06,4.75-2.65,4.75-.8,0-1.84-.36-1.84-1a.75.75,0,0,1,.73-.72.66.66,0,0,1,.3.07,1.86,1.86,0,0,0,.78.21c.91,0,1.33-1,1.33-3.44,0-.57-.08-1-.53-1a.77.77,0,0,0-.25,0l-.23.05c-1.05,2-2.52,4.28-3.42,5.8a.81.81,0,0,1-.72.41.66.66,0,0,1-.72-.6.83.83,0,0,1,.17-.49c.62-.94,2.07-3,3.07-4.74Zm7.76,1.93a4.45,4.45,0,0,0-2.41-2.22.51.51,0,0,1-.38-.48.65.65,0,0,1,.67-.62c.72,0,3.46,1.74,3.46,3a.74.74,0,0,1-.74.74A.64.64,0,0,1,440.84,429Zm-.4-3.7a4.65,4.65,0,0,0-1.17-.77.44.44,0,0,1-.35-.42.55.55,0,0,1,.57-.51c.07,0,1.84.5,1.84,1.24a.61.61,0,0,1-.55.62A.44.44,0,0,1,440.44,425.25Zm1.21-1.28a4.9,4.9,0,0,0-1.19-.72.44.44,0,0,1-.37-.43.57.57,0,0,1,.58-.53,4.17,4.17,0,0,1,1.64.74.63.63,0,0,1-.34,1.09A.5.5,0,0,1,441.65,424Z" transform="translate(-357.29 -225.47)"/><path class="cls-2" d="M445,433.44a5.38,5.38,0,0,0-1.72-1.48.61.61,0,0,1,.28-1.17c.49,0,2.73,1.23,2.73,2.18a.77.77,0,0,1-.76.77A.63.63,0,0,1,445,433.44Z" transform="translate(-357.29 -225.47)"/><path class="cls-2" d="M453.17,427a8.19,8.19,0,0,1-1.59.27.61.61,0,0,1-.66-.63.68.68,0,0,1,.7-.7,10.33,10.33,0,0,0,2.32-.33,6,6,0,0,0,.68-2.14.59.59,0,0,1,.63-.5.7.7,0,0,1,.76.64,4.75,4.75,0,0,1-.51,1.7h.12c1.59,0,1.64,1.72,1.64,2.36,0,1.25-.06,4.75-2.65,4.75-.8,0-1.84-.36-1.84-1a.75.75,0,0,1,.73-.72.66.66,0,0,1,.3.07,1.86,1.86,0,0,0,.78.21c.91,0,1.33-1,1.33-3.44,0-.57-.08-1-.53-1a.77.77,0,0,0-.25,0l-.23.05c-1,2-2.52,4.28-3.42,5.8a.81.81,0,0,1-.72.41.66.66,0,0,1-.72-.6.83.83,0,0,1,.17-.49c.62-.94,2.07-3,3.07-4.74Zm7.76,1.93a4.45,4.45,0,0,0-2.41-2.22.51.51,0,0,1-.38-.48.65.65,0,0,1,.67-.62c.71,0,3.46,1.74,3.46,3a.74.74,0,0,1-.74.74A.64.64,0,0,1,460.93,429Z" transform="translate(-357.29 -225.47)"/><path class="cls-2" d="M468.4,425.07a67,67,0,0,1-3.25,7.36.72.72,0,0,1-.67.39.67.67,0,0,1-.73-.6.81.81,0,0,1,.11-.4,42.91,42.91,0,0,0,3-6.33l-.15.05a4.59,4.59,0,0,1-1.19.18c-.14,0-1.24,0-1.24-.76a.66.66,0,0,1,.62-.71.8.8,0,0,1,.42.11.83.83,0,0,0,.36.08,6,6,0,0,0,1.64-.39,5.29,5.29,0,0,0,.1-1.12.71.71,0,0,1,.77-.66.6.6,0,0,1,.66.51,1.69,1.69,0,0,1,0,.23,2.53,2.53,0,0,1,0,.27.84.84,0,0,1,.18,0,.66.66,0,0,1,.66.65c0,.36-.25.61-1.29,1.07Zm4.27,7.89c-2.3,0-3.81-1.22-3.81-1.93a.74.74,0,0,1,.69-.75.67.67,0,0,1,.54.31c.54.72,1,.81,2.82.94a.69.69,0,0,1,.71.7C473.62,433,472.9,433,472.67,433Zm.81-5.27a7.87,7.87,0,0,0-2.48-.64,1.78,1.78,0,0,0-.47.05l-.16,0a.55.55,0,0,1-.53-.57c0-.23.07-.74,1.32-.74a7.93,7.93,0,0,1,2.84.63.64.64,0,0,1,.45.61.69.69,0,0,1-.67.69A.8.8,0,0,1,473.48,427.69Z" transform="translate(-357.29 -225.47)"/><path class="cls-2" d="M480.38,423.49a1.15,1.15,0,0,1,.69-.28.57.57,0,0,1,.6.57c0,.44-.43.89-1.71,1.57-.18,1.26-.47,2.92-.49,3.76a5.3,5.3,0,0,1,3.56-1.88c1,0,2.56.56,2.56,2a3.34,3.34,0,0,1-1,2.21,7.36,7.36,0,0,1-4.16,2,.71.71,0,0,1-.79-.67.69.69,0,0,1,.65-.66c2.88-.42,3.88-2.1,3.88-2.77s-.74-.93-1.28-.93a4.74,4.74,0,0,0-3.22,2.2c-.18.3-.15.48-.53.63a.83.83,0,0,1-.29.06.68.68,0,0,1-.72-.71c0-.4.13-1.74.52-4.75a3.59,3.59,0,0,1-.84.11c-.41,0-1.4-.08-1.4-.77a.65.65,0,0,1,.66-.66.8.8,0,0,1,.36.07,1.32,1.32,0,0,0,.42.07,2.4,2.4,0,0,0,1-.24c.25-2.08.33-2.56,1-2.56a.61.61,0,0,1,.66.59,8.39,8.39,0,0,1-.25,1.13Z" transform="translate(-357.29 -225.47)"/><path class="cls-2" d="M488.53,432.43a8.94,8.94,0,0,1-.36-2.68,41.94,41.94,0,0,1,.78-5.84.65.65,0,0,1,.67-.67.66.66,0,0,1,.7.61.57.57,0,0,1,0,.12,32.71,32.71,0,0,0-.91,5c0,.52.1.57.14.57s.07,0,.1-.1c.43-.82.53-1,.82-1a.61.61,0,0,1,.58.59.47.47,0,0,1-.07.25,7.1,7.1,0,0,0-1.05,2.63c0,.13,0,.25,0,.38a.66.66,0,0,1-.7.73A.75.75,0,0,1,488.53,432.43Zm7.79-.09c-2.43,0-4.28-1.44-4.28-2.13a.7.7,0,0,1,.73-.65.82.82,0,0,1,.63.3,3.58,3.58,0,0,0,2.72.94,9.64,9.64,0,0,0,1.19-.08.5.5,0,0,1,.17,0,.65.65,0,0,1,.7.68C498.18,432.1,497.56,432.34,496.32,432.34Zm-1.59-6.15a7.66,7.66,0,0,1-1.89-.21.65.65,0,0,1-.59-.63.66.66,0,0,1,.65-.66.39.39,0,0,1,.14,0,6.41,6.41,0,0,0,1.36.14,13.31,13.31,0,0,0,1.72-.14l.13,0a.65.65,0,0,1,.67.66C496.92,425.91,496.53,426.19,494.73,426.19Z" transform="translate(-357.29 -225.47)"/><path class="cls-2" d="M504.93,424.11a38.51,38.51,0,0,1-2.83,5.36.79.79,0,0,1-.7.42.62.62,0,0,1-.66-.6.89.89,0,0,1,.15-.48,30.8,30.8,0,0,0,2.48-4.09,4.16,4.16,0,0,1-1.76.56c-.93,0-.93-.63-.93-.68a.64.64,0,0,1,.65-.66,1,1,0,0,1,.28,0,.58.58,0,0,0,.23,0,5.71,5.71,0,0,0,2-.73c0-.34,0-.66.06-1.08a.62.62,0,0,1,.65-.62.64.64,0,0,1,.68.61v.29a.66.66,0,0,1,.15,0,.58.58,0,0,1,.56.58c0,.47-.6.84-1,1.06Zm-.41,9.27c-1.27,0-2.34-.91-2.34-1.71s1.23-1.61,3-1.61c.21,0,.43,0,.64,0-.09-1.12-.09-1.18-.09-1.33,0-.91.29-1.74,1.93-2.83a.29.29,0,0,0,.13-.17c0-.09-.13-.09-.19-.09a6,6,0,0,0-.89.17.65.65,0,0,1-.19,0,.48.48,0,0,1-.53-.46c0-.37.41-.79,1.87-.79,1,0,2.25.59,2.25,1.23a.71.71,0,0,1-.71.63,2.53,2.53,0,0,0-2.51,2.32,4.36,4.36,0,0,0,.07.68c0,.28.1.58.14.87.87.27,2.23.88,2.23,1.68a.69.69,0,0,1-.65.73.79.79,0,0,1-.57-.28,4.81,4.81,0,0,0-1.07-.76A2.75,2.75,0,0,1,504.52,433.38Zm.39-2.24c-.83,0-1.53.28-1.53.53s.5.55,1,.55a1.39,1.39,0,0,0,1.43-1A4.31,4.31,0,0,0,504.91,431.14Z" transform="translate(-357.29 -225.47)"/><path class="cls-2" d="M512.71,429.79a.65.65,0,0,1-.65-.64.63.63,0,0,1,.45-.6c.48-.19,1.1-.47,1.73-.75a8.39,8.39,0,0,1,3.23-.93,2.38,2.38,0,0,1,2.54,2.26c0,2.39-4.16,3.63-5.12,3.63a.65.65,0,0,1-.68-.64.6.6,0,0,1,.57-.59c2.34-.32,3.92-1.43,3.92-2.44a1.23,1.23,0,0,0-1.31-1.12,7.06,7.06,0,0,0-2.72.94C513.18,429.7,513,429.79,512.71,429.79Z" transform="translate(-357.29 -225.47)"/><path class="cls-2" d="M527.34,425.07a67,67,0,0,1-3.25,7.36.72.72,0,0,1-.67.39.67.67,0,0,1-.73-.6.81.81,0,0,1,.11-.4,42.91,42.91,0,0,0,3-6.33l-.15.05a4.59,4.59,0,0,1-1.19.18c-.14,0-1.24,0-1.24-.76a.66.66,0,0,1,.62-.71.78.78,0,0,1,.42.11.83.83,0,0,0,.36.08,6,6,0,0,0,1.64-.39,5.29,5.29,0,0,0,.1-1.12.71.71,0,0,1,.77-.66.6.6,0,0,1,.66.51,1.69,1.69,0,0,1,0,.23,2.53,2.53,0,0,1,0,.27,1,1,0,0,1,.18,0,.66.66,0,0,1,.66.65c0,.36-.25.61-1.29,1.07Zm4.27,7.89c-2.29,0-3.81-1.22-3.81-1.93a.74.74,0,0,1,.69-.75.7.7,0,0,1,.55.31c.53.72,1,.81,2.81.94a.69.69,0,0,1,.71.7C532.56,433,531.84,433,531.61,433Zm.81-5.27a7.88,7.88,0,0,0-2.47-.64,1.82,1.82,0,0,0-.48.05l-.15,0a.55.55,0,0,1-.54-.57c0-.23.07-.74,1.32-.74a7.93,7.93,0,0,1,2.84.63.64.64,0,0,1,.45.61.69.69,0,0,1-.67.69A.8.8,0,0,1,532.42,427.69Z" transform="translate(-357.29 -225.47)"/><path class="cls-2" d="M536.77,433.74a1.6,1.6,0,1,1,1.6-1.59A1.59,1.59,0,0,1,536.77,433.74Zm0-2.64a1.06,1.06,0,1,0,0,2.11,1.06,1.06,0,1,0,0-2.11Z" transform="translate(-357.29 -225.47)"/></g><g class="cls-1"><path class="cls-2" d="M369.28,483.29a.88.88,0,0,1-.5-.17,31.4,31.4,0,0,1-4.29-3.95.6.6,0,0,0-.42-.27c-.13,0-.24.09-.39.27a29.89,29.89,0,0,1-4.22,4.2,1.11,1.11,0,0,1-.7.27.73.73,0,0,1-.76-.72.81.81,0,0,1,.43-.66,19.71,19.71,0,0,0,4.25-4,1.64,1.64,0,0,1,1.28-.68,2,2,0,0,1,1.38.68,24.71,24.71,0,0,0,4.33,3.61.8.8,0,0,1,.45.69A.83.83,0,0,1,369.28,483.29ZM368,484.8c0,1.71-2.95,4.68-4.06,4.68a.78.78,0,0,1-.81-.69.68.68,0,0,1,.48-.6c1.3-.6,2.78-2.41,2.78-3,0-.15-.12-.21-.25-.21l-5.63,0h0a.57.57,0,0,1-.61-.6.63.63,0,0,1,.61-.66h6.1C367.52,483.78,368,484.15,368,484.8Zm-5.7-2.34a.61.61,0,1,1,0-1.22H366a.61.61,0,1,1,0,1.22Z" transform="translate(-357.29 -225.47)"/><path class="cls-2" d="M379.42,489.17c-.62,0-1.38,0-2.12,0s-1.46,0-2,0a1.66,1.66,0,0,1-1.86-1.7c0-.91-.05-2.43-.05-4,0-1.36,0-2.73.05-3.67s.7-1.48,1.75-1.53l2.34,0,1.94,0a1.7,1.7,0,0,1,1.71,1.64c0,.86,0,2.26,0,3.66s0,3.08,0,3.82A1.74,1.74,0,0,1,379.42,489.17Zm.4-6.44c0-.89,0-1.7,0-2.26,0-1-.23-1-2.48-1s-2.56,0-2.6,1c0,.57,0,1.37,0,2.26ZM374.68,484c0,1.17,0,2.3,0,3,0,.91.18,1,2.56,1h1.47c.79,0,1-.39,1.05-1s0-1.81,0-2.93Z" transform="translate(-357.29 -225.47)"/><path class="cls-2" d="M388.91,486.35c0,1,.47,1.59,1.15,1.59.08,0,1.52-.16,1.52-1.42,0-.71-.49-1.67-1.85-2.76a.91.91,0,0,1-.38-.63.63.63,0,0,1,.68-.57,1,1,0,0,1,.59.22c1.66,1.39,2.35,2.71,2.35,3.8a2.93,2.93,0,0,1-3,2.69c-1.28,0-2.34-.94-2.34-2.86v0c0-.35,0-.71,0-1.06-1.1-.31-2.07-.61-2.07-1.63a2.43,2.43,0,0,1,.5-1.33.66.66,0,0,0,.15-.39c0-.34-.51-.76-1.34-1.06a.67.67,0,0,1-.49-.57.63.63,0,0,1,.68-.57c.44,0,2.45.87,2.45,2.06a1.8,1.8,0,0,1-.52,1.11.87.87,0,0,0-.27.54c0,.21.19.31.4.37s.37.08.57.14c.14-3,.14-3.49.14-3.86,0-.57,0-1,0-1.48a.62.62,0,0,1,.65-.67c.73,0,.75.66.75,1s-.07,1-.1,1.62c-.06,1.28-.16,2.51-.21,3.74.81.31,1.18.56,1.18,1a.72.72,0,0,1-.66.73.89.89,0,0,1-.56-.24Z" transform="translate(-357.29 -225.47)"/><path class="cls-2" d="M401.58,482.82c.07-.36-.14-.42-.41-.39-.69.07-1.27.25-1.82.34a8.35,8.35,0,0,1-1.75.21.71.71,0,1,1,.11-1.42,8,8,0,0,0,1.37-.1l1.7-.23a9.25,9.25,0,0,1,1.4-.19c1.33,0,1.43,1,1.22,1.46a24.42,24.42,0,0,0-1,3.13c.42,0,1.22-.12,1.67-.16a5.61,5.61,0,0,1,1.08,0c.63,0,.82.42.81.78s-.35.7-1.05.72c-.45,0-.63,0-1,0l-1.53.07c-1.65.07-3.3.22-4.47.32a16.11,16.11,0,0,1-2,.11.74.74,0,1,1,.11-1.45,12.75,12.75,0,0,0,1.85,0c.77-.07,1.92-.14,3.07-.21C401.07,484.64,401.45,483.41,401.58,482.82Z" transform="translate(-357.29 -225.47)"/><path class="cls-2" d="M416.67,484.07h-.73c-2.67,0-4.72.13-5.82.17l-1.39,0h-.45a.78.78,0,0,1-.81-.76c0-.35.28-.69.84-.69h.08c.52,0,1.14.05,1.7.05,1.15,0,4.14-.17,6.61-.24h0a.76.76,0,0,1,.85.71c0,.37-.29.73-.89.73Z" transform="translate(-357.29 -225.47)"/><path class="cls-2" d="M419.79,488.4c-1,.39-1.75-.93-.55-1.33a12.11,12.11,0,0,0,6.26-5.38c.12-.23.05-.32-.12-.31-.69.07-2.29.52-2.65.6a6.12,6.12,0,0,1-1.41.24.72.72,0,1,1,0-1.44,9.72,9.72,0,0,0,1.25-.15c.5-.09,2.2-.54,3.37-.65s1.81.71,1.35,1.53a19.84,19.84,0,0,1-1.77,2.63,9.86,9.86,0,0,1,3.84,2.66.85.85,0,0,1-.13,1.16.69.69,0,0,1-1-.12,11.6,11.6,0,0,0-3.55-2.71A13.1,13.1,0,0,1,419.79,488.4Z" transform="translate(-357.29 -225.47)"/><path class="cls-2" d="M432.89,489a.74.74,0,0,1-.68-.6,10.17,10.17,0,0,1-.42-3.05,15.41,15.41,0,0,1,.09-1.82c.17-1.57.49-3,.59-3.83a.65.65,0,0,1,.65-.66.72.72,0,0,1,.73.69s0,.07,0,.11c-.1.6-.35,1.59-.54,2.61a13.38,13.38,0,0,0-.31,2.41c0,.52.08.63.11.63s.11-.09.2-.25c.39-.86.61-1,.84-1a.61.61,0,0,1,.58.59.48.48,0,0,1-.07.26,8.58,8.58,0,0,0-1.1,2.76c0,.17,0,.34,0,.5A.68.68,0,0,1,432.89,489Zm4.56,0a2.09,2.09,0,0,1-2.18-1.76c0-1.06,1.31-1.49,2.6-1.49a6.54,6.54,0,0,1,1.3.14c0-.13,0-.26,0-.4a7.54,7.54,0,0,0,0-.78c-.06-.6-.13-1.64-.17-2.73a5.25,5.25,0,0,0-2.52,1,.67.67,0,0,1-.45.2.68.68,0,0,1-.64-.68c0-.3.19-1,3.58-1.78,0-.58,0-1.14.05-1.59a.59.59,0,0,1,.64-.58.61.61,0,0,1,.66.55v.07c0,.39-.09.84-.1,1.3l.76-.12a.58.58,0,0,1,.18,0,.64.64,0,0,1,.71.61c0,.29-.23.6-.75.67l-.91.12c0,1,.05,2.06.12,2.8a13.63,13.63,0,0,1,.11,1.56v.15a5.88,5.88,0,0,1,1.62,1,.79.79,0,0,1,.26.58.75.75,0,0,1-.71.78.69.69,0,0,1-.51-.25,4.44,4.44,0,0,0-1-.81A3.23,3.23,0,0,1,437.45,489Zm.19-2.18c-1.09,0-1.15.35-1.15.48s.18.52.8.52a2.05,2.05,0,0,0,1.56-.81A4.35,4.35,0,0,0,437.64,486.77Z" transform="translate(-357.29 -225.47)"/><path class="cls-2" d="M446,489.44a5.38,5.38,0,0,0-1.72-1.48.61.61,0,0,1,.28-1.17c.49,0,2.73,1.23,2.73,2.18a.77.77,0,0,1-.76.77A.63.63,0,0,1,446,489.44Z" transform="translate(-357.29 -225.47)"/></g><g class="cls-1"><path class="cls-2" d="M358.41,508.76a.57.57,0,1,1,0-1.14h4a.57.57,0,1,1,0,1.14Zm2.89,8.59c-.3,0-.65,0-1,0s-.67,0-.95,0a1.07,1.07,0,0,1-1-1.1c0-.37,0-.73,0-1.08s0-.69,0-1a1,1,0,0,1,1-1.06c.26,0,.57,0,.89,0s.79,0,1.11,0a1.1,1.1,0,0,1,1.12,1c0,.32,0,.7,0,1.08s0,.74,0,1.05A1.13,1.13,0,0,1,361.3,517.35ZM359,506.85a.57.57,0,0,1,0-1.13h2.87a.57.57,0,1,1,0,1.13Zm0,3.74a.54.54,0,0,1-.56-.56.55.55,0,0,1,.56-.57h2.87a.56.56,0,0,1,.58.57.55.55,0,0,1-.58.56Zm0,1.8a.56.56,0,0,1,0-1.12h2.87a.56.56,0,1,1,0,1.12Zm2.3,2.83c0-.26,0-.53,0-.73s-.27-.37-.93-.37h-.54c-.4,0-.4.27-.4,1.08,0,.26,0,.53,0,.74s.24.34.88.34.95-.12,1-.35S361.31,515.47,361.31,515.22Zm8.43.83a.58.58,0,1,1,0,1.16c-.68,0-1.41,0-2.15,0-.91,0-1.84,0-2.69,0a1.28,1.28,0,0,1-1.4-1.4v-.86c0-1.38,0-3,.05-4.4a.66.66,0,0,1-.42.14.55.55,0,0,1-.46-1,10.32,10.32,0,0,0,2-3.8.61.61,0,0,1,.61-.43.66.66,0,0,1,.7.6,6.08,6.08,0,0,1-.79,2h1.33a15.58,15.58,0,0,0,.72-2.07.57.57,0,0,1,.59-.48.71.71,0,0,1,.75.65,9.13,9.13,0,0,1-.82,1.9h1.86a.56.56,0,0,1,0,1.11h-2v1.61h1.67a.51.51,0,0,1,0,1h-1.67v1.43h1.67a.52.52,0,0,1,0,1h-1.67v1.82l2.19,0Zm-3.44-4.25h-1.56v1.43h1.56Zm0,2.46h-1.56c0,.42,0,.82,0,1.2,0,.6.26.62,1.54.62Zm0-5.09h-1.1c-.42,0-.42.42-.42,1.07,0,.18,0,.36,0,.54h1.53Z" transform="translate(-357.29 -225.47)"/><path class="cls-2" d="M375,511a8,8,0,0,1-1.58.27.61.61,0,0,1-.66-.63.68.68,0,0,1,.7-.7,10.33,10.33,0,0,0,2.32-.33,6,6,0,0,0,.68-2.14.59.59,0,0,1,.63-.5.7.7,0,0,1,.76.64,4.75,4.75,0,0,1-.51,1.7h.12c1.59,0,1.64,1.72,1.64,2.36,0,1.25-.06,4.75-2.65,4.75-.8,0-1.84-.36-1.84-1a.75.75,0,0,1,.73-.72.66.66,0,0,1,.3.07,1.86,1.86,0,0,0,.78.21c.91,0,1.33-1,1.33-3.44,0-.57-.08-1-.53-1a.77.77,0,0,0-.25,0l-.23.05c-1,2-2.52,4.28-3.42,5.8a.81.81,0,0,1-.72.41.66.66,0,0,1-.72-.6.83.83,0,0,1,.17-.49c.62-.94,2.07-3,3.07-4.74Zm7.77,1.93a4.45,4.45,0,0,0-2.41-2.22.51.51,0,0,1-.38-.48.65.65,0,0,1,.67-.62c.71,0,3.46,1.74,3.46,3a.74.74,0,0,1-.74.74A.64.64,0,0,1,382.81,513Z" transform="translate(-357.29 -225.47)"/><path class="cls-2" d="M394.75,511.54a3,3,0,0,0-3.25-2.89h0a.64.64,0,0,1,.39.59v.07c0,1.47-1.44,4-3,5.53a1.52,1.52,0,0,1-1.05.48c-1,0-1.89-1.12-1.89-2.65,0-2.53,2.49-5.11,5.64-5.11,2.83,0,4.6,1.88,4.6,4.06a4.36,4.36,0,0,1-.31,1.59c-1.24,3.1-5.05,3.54-5.24,3.54a.74.74,0,0,1-.8-.69c0-.31.24-.6.77-.7C393.15,514.94,394.75,513.37,394.75,511.54Zm-4.05-2.82a4.59,4.59,0,0,0-3.5,3.88c0,1,.7,1.18.74,1.18a.41.41,0,0,0,.27-.11c.42-.38,2.17-2.45,2.22-4.34A.71.71,0,0,1,390.7,508.72Z" transform="translate(-357.29 -225.47)"/><path class="cls-2" d="M409.45,516.13a.56.56,0,0,1,.57.59c0,.67-.67.69-1.15.69a9.83,9.83,0,0,1-4.37-.94,10.82,10.82,0,0,1-4.05,1.16.6.6,0,0,1-.61-.61.55.55,0,0,1,.6-.56,8.13,8.13,0,0,0,2.9-.71,4.62,4.62,0,0,1-1.08-1.14,10.34,10.34,0,0,1-3.3,2,.56.56,0,0,1-.58-.56.62.62,0,0,1,.41-.56,11.53,11.53,0,0,0,3.85-2.9.83.83,0,0,1,.21-.17c-.67-.16-.91-.59-.91-1.35,0-.09,0-.36,0-.65,0-.58,0-1,.6-1a.55.55,0,0,1,.61.49c0,.38,0,.84,0,1,0,.36.11.5,1,.5,1.2,0,1.45-.08,1.45-.71a.49.49,0,0,1,.54-.49.59.59,0,0,1,.65.52c0,1.52-.65,1.75-2.66,1.75a4.43,4.43,0,0,1-.52,0,.47.47,0,0,1,.19.37.47.47,0,0,1-.07.25l2.43,0c.76,0,1.12.4,1.12.85s-.12.67-1.56,1.75a11.52,11.52,0,0,0,3.34.42h.37Zm-9.63-5.68a.61.61,0,0,1-.67.57c-.64,0-.66-.46-.66-1,0-.79.05-1.81,1.49-1.82.4,0,.82,0,1.26,0a3.09,3.09,0,0,0-.37-.64.41.41,0,0,1,.17-.56l-.81,0h0a.64.64,0,0,1-.7-.6.55.55,0,0,1,.62-.52,52,52,0,0,0,7.44-.57.44.44,0,0,1,.16,0,.58.58,0,0,1,.62.58c0,.46-.28.5-1,.6a.51.51,0,0,1,.21.39,4.39,4.39,0,0,1-.51,1.32c.45,0,.9,0,1.32,0,.76,0,1.6.38,1.63,1.27,0,.16,0,.35,0,.55,0,.53-.06,1-.73,1a.6.6,0,0,1-.66-.56v0c0-1,0-1.16-.74-1.18-1,0-2.27,0-3.56,0,.37.22,1.11.83,1.11,1.27a.65.65,0,0,1-.6.64.44.44,0,0,1-.4-.24,4.47,4.47,0,0,0-.82-1,.35.35,0,0,1-.14-.28.53.53,0,0,1,.31-.44c-1.17,0-2.3,0-3.13,0s-.78.25-.8.61v.63Zm-.75,1.73a.69.69,0,0,1,.42-.59,2.84,2.84,0,0,0,1.09-1.24.54.54,0,0,1,.52-.39.6.6,0,0,1,.63.57c0,.64-1.14,2.23-2,2.23A.6.6,0,0,1,399.07,512.18Zm2.73-5.25c.11.11.66.74.66,1.09,0,0,0,.07,0,.1h1.22a3.89,3.89,0,0,0-.36-.86.42.42,0,0,1,0-.18.35.35,0,0,1,.15-.29l-1.67.09Zm3.77,7.26c0-.06-.07-.09-.13-.09h-.06c-.07,0-1.26,0-2.1,0a4.27,4.27,0,0,0,1.19,1C405.16,514.7,405.57,514.3,405.57,514.19Zm.24-6.17a4.76,4.76,0,0,0,.5-1.41.16.16,0,0,1,0-.09l-2.15.2a2.19,2.19,0,0,1,.63,1.22.52.52,0,0,1,0,.17h1A.38.38,0,0,1,405.81,508Zm2.28,4.09a5.29,5.29,0,0,0-1.14-1.38.58.58,0,0,1-.22-.42.57.57,0,0,1,.6-.51c.49,0,2,1.36,2,2a.7.7,0,0,1-.67.7A.6.6,0,0,1,408.09,512.11Z" transform="translate(-357.29 -225.47)"/><path class="cls-2" d="M420.25,516.88h-.14c-3-.29-4.95-2.39-4.95-4.54a4,4,0,0,1,1-2.57.22.22,0,0,0,.07-.12s0,0,0,0a.6.6,0,0,0-.14.05c-2.2,1.14-2.47,1.22-2.78,1.22a.79.79,0,0,1-.85-.75.8.8,0,0,1,.64-.73c.3-.1,1.09-.34,1.52-.49.65-.24,1.82-.6,3.2-1.15a10.63,10.63,0,0,1,3.71-.87c.71,0,1,.32,1,.69,0,.71-.59.87-1.12.87a1.94,1.94,0,0,1-.33,0h-.33c-2.17,0-4.3,1.85-4.3,3.72,0,1.69,1.59,3.11,3.79,3.11.7,0,1,.41,1,.83S420.9,516.88,420.25,516.88Zm1.21-4.92a5.44,5.44,0,0,0-1.19-.87.48.48,0,0,1-.35-.43.59.59,0,0,1,.61-.55c.19,0,1.9.64,1.9,1.37a.67.67,0,0,1-.61.66A.5.5,0,0,1,421.46,512Zm1.61-1.16a4.7,4.7,0,0,0-1.22-.83.49.49,0,0,1-.36-.43.6.6,0,0,1,.61-.57c.23,0,1.91.61,1.91,1.34a.64.64,0,0,1-.59.65A.51.51,0,0,1,423.07,510.8Z" transform="translate(-357.29 -225.47)"/><path class="cls-2" d="M426.41,517.44a5.38,5.38,0,0,0-1.72-1.48.61.61,0,0,1,.28-1.17c.49,0,2.73,1.23,2.73,2.18a.77.77,0,0,1-.76.77A.63.63,0,0,1,426.41,517.44Z" transform="translate(-357.29 -225.47)"/><path class="cls-2" d="M432.12,517.13a.6.6,0,0,1-.66-.6.66.66,0,0,1,.66-.68l4.78,0v-2.52h-2.64a.59.59,0,0,1-.65-.6.63.63,0,0,1,.65-.65l2.64,0V510l-2.5,0a15.54,15.54,0,0,1-1.55,2.28.79.79,0,0,1-.62.32.66.66,0,0,1-.67-.63.77.77,0,0,1,.18-.45,12.48,12.48,0,0,0,2.5-4.58.63.63,0,0,1,.64-.47.73.73,0,0,1,.79.64.58.58,0,0,1-.05.21c-.18.49-.37,1-.59,1.43h1.87v-2.49a.72.72,0,1,1,1.44,0v2.49h3.78a.63.63,0,1,1,0,1.25l-3.78,0v2.15l2.83,0a.63.63,0,1,1,0,1.25h-2.83v2.52l4.68,0a.61.61,0,0,1,.63.65.6.6,0,0,1-.63.63Z" transform="translate(-357.29 -225.47)"/><path class="cls-2" d="M452.52,512.18a13.7,13.7,0,0,0,.52,1.29,2,2,0,0,1,.18.72.72.72,0,0,1-.78.78,2.09,2.09,0,0,1-.63-.11,9.46,9.46,0,0,0-2.47-.38c-1,0-1.68.39-1.68.76s.62.92,2.19.92a4.61,4.61,0,0,0,.68,0,.52.52,0,0,1,.17,0,.65.65,0,0,1,.73.64c0,.61-.59.79-1,.79-2.22,0-4.07-1-4.07-2.21,0-.52.5-2,3.19-2,.58,0,1.11,0,1.51.07l.27,0c.16,0,.3,0,.3-.21a6.8,6.8,0,0,0-.31-1.07,7.07,7.07,0,0,1-.91.06c-.27,0-2.95,0-2.95-1.58a1.35,1.35,0,0,1,.55-1.05.28.28,0,0,0,.14-.23c0-.28-.84-.75-1.53-.9-.46-.08-.67-.36-.67-.63a.67.67,0,0,1,.73-.6c.88,0,3,1.26,3,2.1,0,.34-.28.58-.61.75s-.36.25-.36.36.8.52,1.61.52a5.27,5.27,0,0,0,.56,0,20.6,20.6,0,0,0-2-4.26.74.74,0,0,1-.14-.41c0-.35.35-.56.72-.56a.84.84,0,0,1,.77.48,40.89,40.89,0,0,1,1.79,4.45l.67-.22a.88.88,0,0,1,.27,0,.59.59,0,0,1,.59.64c0,.55-.4.7-1.1.92Z" transform="translate(-357.29 -225.47)"/><path class="cls-2" d="M464,516.88h-.14c-3-.29-4.95-2.39-4.95-4.54a4,4,0,0,1,1-2.57.22.22,0,0,0,.07-.12s0,0,0,0a.6.6,0,0,0-.14.05c-2.2,1.14-2.47,1.22-2.78,1.22a.79.79,0,0,1-.85-.75.8.8,0,0,1,.64-.73c.3-.1,1.09-.34,1.52-.49.65-.24,1.82-.6,3.2-1.15a10.63,10.63,0,0,1,3.72-.87c.7,0,1,.32,1,.69,0,.71-.59.87-1.12.87a1.94,1.94,0,0,1-.33,0h-.33c-2.17,0-4.3,1.85-4.3,3.72,0,1.69,1.59,3.11,3.79,3.11.7,0,1,.41,1,.83S464.65,516.88,464,516.88Z" transform="translate(-357.29 -225.47)"/><path class="cls-2" d="M472.68,515.8a2.62,2.62,0,0,1-1.66-.73,7.3,7.3,0,0,1-2-4.22c-.11-.53-.27-1.39-.27-1.5a.69.69,0,0,1,.7-.67.73.73,0,0,1,.7.66c.09.45.12.92.2,1.37.58,3.27,1.89,3.39,2,3.39s.26-.11.39-.45.22-.74.39-1.19a.55.55,0,0,1,.52-.39.76.76,0,0,1,.74.7s0,.07,0,.11c-.09.47-.37,1.38-.41,1.81A1.16,1.16,0,0,1,472.68,515.8Zm5.38-3.18a5,5,0,0,0-1.83-2.83.57.57,0,0,1-.24-.45.61.61,0,0,1,.63-.58.92.92,0,0,1,.59.24c.58.51,2.32,2.05,2.32,3.46a.76.76,0,0,1-.77.8A.7.7,0,0,1,478.06,512.62Z" transform="translate(-357.29 -225.47)"/><path class="cls-2" d="M489,513.33c0-1.47-1.78-1.47-1.9-1.47a4.59,4.59,0,0,0-3.35,1.86.69.69,0,0,1-.56.28.72.72,0,0,1-.74-.67.79.79,0,0,1,.28-.57,37.59,37.59,0,0,0,4.06-4.64s0,0,0,0l-.1,0a7.26,7.26,0,0,1-2.8,1,.69.69,0,0,1-.73-.69.6.6,0,0,1,.59-.61,13.29,13.29,0,0,0,3.54-1,1.2,1.2,0,0,1,.51-.11.88.88,0,0,1,.92.83,1,1,0,0,1-.32.68c-.95.91-2,2.11-2.92,3.09a3.64,3.64,0,0,1,2-.56,2.7,2.7,0,0,1,3,2.46c0,1.88-1.93,3.67-4.35,3.67-1.68,0-2.57-1-2.57-1.79a1.44,1.44,0,0,1,1.57-1.32,2,2,0,0,1,2.19,1.75A2.75,2.75,0,0,0,489,513.33Zm-3.82,1.5c-.48,0-.49.31-.49.36,0,.55.95.62,1.3.62h.1C486,515.21,485.69,514.83,485.13,514.83Z" transform="translate(-357.29 -225.47)"/><path class="cls-2" d="M494.07,517.74a1.6,1.6,0,1,1,1.6-1.59A1.59,1.59,0,0,1,494.07,517.74Zm0-2.64a1.06,1.06,0,1,0,0,2.11,1.06,1.06,0,1,0,0-2.11Z" transform="translate(-357.29 -225.47)"/></g></g></svg>