<svg id="レイヤー_1" data-name="レイヤー 1" xmlns="http://www.w3.org/2000/svg" viewBox="0 0 570.23 145.91"><defs><style>.cls-1{fill:#d6d6d6;}.cls-2{isolation:isolate;}.cls-3{fill:#040000;}</style></defs><g id="ユース紹介文"><rect id="長方形_5" data-name="長方形 5" class="cls-1" width="570.23" height="145.91"/><g id="YOUTH_SENSE_は_夢追い人で溢れる鹿児島を創る_をビジョンに掲げ活動する学生団体です_2018年に発足し_その後カフェ_バーの経営_キャリア支援_グッズ販売_WEB開発など_さまざまな分野で活動してきました_" data-name="YOUTH SENSE は 夢追い人で溢れる鹿児島を創る をビジョンに掲げ活動する学生団体です 2018年に発足し その後カフェ バーの経営 キャリア支援 グッズ販売 WEB開発など さまざまな分野で活動してきました " class="cls-2"><g class="cls-2"><path class="cls-3" d="M63.38,316.53h0a.59.59,0,1,1,0,1.17h0l-.94,0-1,0a.56.56,0,0,1-.66-.58.59.59,0,0,1,.62-.59h.17c.13,0,.18-.1.18-.22,0-.61,0-1.21,0-1.9a.45.45,0,0,0-.12-.37c-.71-1.08-1.67-2.52-2.26-3.4a.31.31,0,0,0-.29-.14c-.2,0-.7,0-.7-.56a.57.57,0,0,1,.61-.58H59l.84,0,1.06,0h0a.56.56,0,0,1,.63.53.66.66,0,0,1-.68.61c-.09,0-.15,0-.15.08a.22.22,0,0,0,0,.1c1.43,2.2,1.49,2.28,1.56,2.28a13.59,13.59,0,0,0,1.6-2.38c0-.06-.06-.08-.14-.08a.6.6,0,0,1-.65-.57.58.58,0,0,1,.63-.57h0l.8,0,1,0c.15,0,.68,0,.68.58a.57.57,0,0,1-.63.56h0c-.13,0-.17,0-.25.14-.59.91-1.61,2.47-2.23,3.34a.56.56,0,0,0-.15.44c0,.5,0,1.21,0,1.9,0,.15,0,.2.19.2Z" transform="translate(-25.05 -275.04)"/><path class="cls-3" d="M66.3,313.55a4.26,4.26,0,1,1,4.25,4.28A4.09,4.09,0,0,1,66.3,313.55Zm7.24,0a3,3,0,1,0-3,3.15A3,3,0,0,0,73.54,313.55Z" transform="translate(-25.05 -275.04)"/><path class="cls-3" d="M81.54,310.53a.62.62,0,0,1-.66-.61.56.56,0,0,1,.6-.55h.06l.82,0,1,0h0a.59.59,0,0,1,.65.59.58.58,0,0,1-.63.57h-.15c-.1,0-.16,0-.16.19,0,.5,0,1,0,1.38,0,.71,0,1.38,0,2.18a3.28,3.28,0,0,1-3.33,3.55,3.24,3.24,0,0,1-3.31-3.45v-.06c0-.82,0-1.66,0-2.48,0-.38,0-.76,0-1.12,0-.11,0-.19-.14-.19h-.16a.59.59,0,0,1-.66-.58.58.58,0,0,1,.61-.58h0l.83,0,1,0h0a.58.58,0,0,1,.64.59.57.57,0,0,1-.61.57h-.25c-.14,0-.16.06-.16.21v.53c0,.85,0,1.69,0,2.55v.58a2,2,0,0,0,2,2.23,2.16,2.16,0,0,0,2.14-2.32c0-1,0-1.9,0-2.84v-.71c0-.17,0-.22-.2-.22Z" transform="translate(-25.05 -275.04)"/><path class="cls-3" d="M86.89,310.47c-1,0-1,0-1.13.49,0,.1-.06.22-.1.36a.61.61,0,0,1-.59.45.58.58,0,0,1-.6-.57,1.07,1.07,0,0,1,.06-.29c.35-1.06.54-1.55,1.71-1.55h.21l1.51,0,2.05,0h.11c.87,0,1.34.26,1.57.9.06.17.19.43.26.66a.62.62,0,0,1,0,.25.59.59,0,0,1-.61.59.6.6,0,0,1-.59-.44,2.17,2.17,0,0,0-.1-.33c-.16-.51-.27-.52-.86-.52-.9,0-.91,0-.91.24,0,.82,0,2,0,3.17,0,.85,0,1.69,0,2.39,0,.24.11.25.31.25a.59.59,0,0,1,.64.6.58.58,0,0,1-.6.58h-.05l-.89,0-1,0a.59.59,0,1,1,0-1.18h0c.19,0,.31,0,.31-.24,0-.9,0-2.25,0-3.6,0-.68,0-1.35,0-2C87.66,310.47,87.66,310.47,86.89,310.47Z" transform="translate(-25.05 -275.04)"/><path class="cls-3" d="M100.18,316.54h0a.58.58,0,0,1,.64.59.57.57,0,0,1-.62.57h0l-.9,0-1,0a.6.6,0,0,1-.66-.58.58.58,0,0,1,.61-.58h.22a.17.17,0,0,0,.19-.18c0-.5,0-.95,0-1.33s0-.69,0-.88-.06-.22-.24-.24l-1.61,0-2,0a.21.21,0,0,0-.23.21c0,.27,0,.76,0,1.37v.82c0,.11,0,.22.19.22h.14a.59.59,0,0,1,.65.59.58.58,0,0,1-.63.57h0l-.88,0-1,0h0a.58.58,0,1,1,0-1.16h.27a.16.16,0,0,0,.12-.17c0-1.12,0-2.38,0-3.56,0-.73,0-1.42,0-2,0-.14,0-.27-.17-.27h-.19a.59.59,0,0,1-.66-.58.58.58,0,0,1,.61-.58h0l.82,0,1,0h0a.59.59,0,0,1,.65.59.58.58,0,0,1-.63.57h-.12c-.13,0-.22,0-.22.22,0,.4,0,.77,0,1.09s0,.56,0,.74.1.22.2.22h3.65c.15,0,.2-.08.2-.21s0-.43,0-.75,0-.71,0-1.13c0-.17-.1-.19-.24-.19h-.12a.59.59,0,0,1-.66-.58.58.58,0,0,1,.61-.58h0l.83,0,1,0h0a.58.58,0,0,1,.64.59.57.57,0,0,1-.62.57h-.11c-.12,0-.22,0-.22.19,0,.74,0,1.64,0,2.54,0,1.09,0,2.21,0,3.07,0,.13,0,.18.19.21Z" transform="translate(-25.05 -275.04)"/><path class="cls-3" d="M107.42,317.82a3.3,3.3,0,0,1-1.51-.33l-.1,0s-.08,0-.11.08a.63.63,0,0,1-.49.22.55.55,0,0,1-.59-.54v-.05a6.46,6.46,0,0,0,0-.65c0-.29,0-.6,0-.83v0a.6.6,0,0,1,1.19,0v.09c0,.63.94.92,1.59.92,1.12,0,1.52-.71,1.52-1.21a1.47,1.47,0,0,0-.85-1.25c-.48-.27-1.1-.62-1.69-.88a2.1,2.1,0,0,1,1-4.07,2.87,2.87,0,0,1,1.23.27h.08a.19.19,0,0,0,.1,0,.6.6,0,0,1,.47-.18c.3,0,.6.15.6.46v0c0,.21,0,.42,0,.64s0,.49,0,.69c0,.42-.4.53-.6.53a.52.52,0,0,1-.58-.48v0s0-.09,0-.12c0-.32-.51-.7-1.32-.7a1,1,0,0,0-1.17,1,1.16,1.16,0,0,0,.72,1c.46.24,1.21.59,1.73.86a2.61,2.61,0,0,1,1.57,2.26A2.58,2.58,0,0,1,107.42,317.82Z" transform="translate(-25.05 -275.04)"/><path class="cls-3" d="M114,316.59c1.76,0,1.83,0,2-.72a.56.56,0,0,1,.55-.43.59.59,0,0,1,.61.58,2.87,2.87,0,0,1-.22.72c-.22.58-.63.95-1.8.95h-2.2c-.53,0-1,0-1.44,0a.59.59,0,0,1-.66-.57.58.58,0,0,1,.61-.58h.11c.18,0,.24-.05.25-.22.06-.73.07-2.8.07-4.41v-1.17c0-.16,0-.25-.29-.25s-.71-.06-.71-.56a.58.58,0,0,1,.62-.57h0l1.08,0,2.34,0c1.36,0,1.53.5,1.76,1.33a1.09,1.09,0,0,1,0,.24.58.58,0,0,1-.61.58.57.57,0,0,1-.58-.49c-.08-.4-.21-.55-.76-.55h-1.46c-.22,0-.29,0-.3.28,0,.5,0,1.27,0,2,0,.11,0,.15.15.15h1.11c.18,0,.22-.17.22-.36a.56.56,0,0,1,.57-.6.52.52,0,0,1,.54.56v0c0,.26,0,.56,0,.84s0,.69,0,.93v0a.54.54,0,0,1-.56.55.53.53,0,0,1-.55-.55v0s0-.1,0-.14,0-.23-.23-.23l-1.11,0c-.13,0-.16.06-.16.18,0,1,0,1.92,0,2.18S113.09,316.59,114,316.59Z" transform="translate(-25.05 -275.04)"/><path class="cls-3" d="M123.46,317.22c-.77-1.24-2.85-5-3.44-6.05-.09-.15-.16-.22-.2-.22s-.09.26-.09.58c0,.87,0,3.27.06,4.74a.24.24,0,0,0,.26.27h0a.58.58,0,1,1,0,1.15h0l-.86,0-.94,0a.6.6,0,0,1-.66-.57.58.58,0,0,1,.61-.58h.16c.12,0,.22,0,.22-.25,0-.92,0-1.89,0-2.84s0-1.84,0-2.63c0-.23,0-.29-.21-.29s-.73,0-.73-.58a.58.58,0,0,1,.61-.59h.92a1.84,1.84,0,0,1,1.62.94c.82,1.38,2.39,4.31,3.15,5.45.07.1.13.16.19.16s.09-.11.09-.5c0-.84,0-3.19-.06-4.57,0-.26-.07-.31-.28-.31h-.09a.6.6,0,0,1-.67-.57.58.58,0,0,1,.61-.58h.06c.23,0,.5,0,.79,0s.72,0,1,0a.57.57,0,0,1,.66.57.58.58,0,0,1-.64.58h0c-.2,0-.21.14-.21.25,0,.66,0,1.42,0,2.21,0,1.34,0,2.72,0,3.7v0a1,1,0,0,1-1,1A1.13,1.13,0,0,1,123.46,317.22Z" transform="translate(-25.05 -275.04)"/><path class="cls-3" d="M129.8,317.82a3.3,3.3,0,0,1-1.51-.33l-.1,0c-.05,0-.08,0-.11.08a.63.63,0,0,1-.49.22.54.54,0,0,1-.58-.54v-.05c0-.19,0-.42,0-.65s0-.6,0-.83v0a.59.59,0,0,1,1.18,0v.09c0,.63.94.92,1.59.92,1.13,0,1.52-.71,1.52-1.21a1.47,1.47,0,0,0-.85-1.25c-.48-.27-1.1-.62-1.69-.88a2.1,2.1,0,0,1,1-4.07,2.81,2.81,0,0,1,1.23.27H131a.17.17,0,0,0,.1,0,.62.62,0,0,1,.47-.18c.3,0,.6.15.6.46v0c0,.21,0,.42,0,.64s0,.49,0,.69c0,.42-.4.53-.6.53a.52.52,0,0,1-.58-.48v0s0-.09,0-.12c0-.32-.51-.7-1.32-.7a1,1,0,0,0-1.17,1,1.16,1.16,0,0,0,.72,1c.46.24,1.22.59,1.73.86a2.61,2.61,0,0,1,1.57,2.26A2.57,2.57,0,0,1,129.8,317.82Z" transform="translate(-25.05 -275.04)"/><path class="cls-3" d="M136.33,316.59c1.76,0,1.83,0,2-.72a.56.56,0,0,1,.55-.43.59.59,0,0,1,.61.58,2.87,2.87,0,0,1-.22.72c-.22.58-.63.95-1.8.95h-2.2c-.53,0-1,0-1.44,0a.59.59,0,0,1-.66-.57.58.58,0,0,1,.61-.58h.11c.19,0,.24-.05.25-.22.06-.73.07-2.8.07-4.41v-1.17c0-.16-.05-.25-.29-.25s-.71-.06-.71-.56a.58.58,0,0,1,.62-.57h0l1.08,0,2.34,0c1.36,0,1.53.5,1.76,1.33a1.09,1.09,0,0,1,0,.24.58.58,0,0,1-.61.58.57.57,0,0,1-.58-.49c-.08-.4-.21-.55-.76-.55h-1.46c-.22,0-.29,0-.3.28,0,.5,0,1.27,0,2,0,.11.05.15.15.15h1.11c.18,0,.22-.17.22-.36a.56.56,0,0,1,.57-.6.52.52,0,0,1,.54.56v0c0,.26,0,.56,0,.84s0,.69,0,.93v0a.56.56,0,0,1-1.11,0v0s0-.1,0-.14,0-.23-.23-.23l-1.11,0c-.13,0-.16.06-.16.18,0,1,0,1.92,0,2.18S135.48,316.59,136.33,316.59Z" transform="translate(-25.05 -275.04)"/><path class="cls-3" d="M145,317.83a.58.58,0,0,1-.54-.47,8.16,8.16,0,0,1-.33-2.41,11.22,11.22,0,0,1,.08-1.43c.13-1.24.38-2.34.46-3a.51.51,0,0,1,.51-.52.56.56,0,0,1,.57.54s0,.06,0,.09c-.07.47-.27,1.25-.43,2.05a11.07,11.07,0,0,0-.24,1.9c0,.41.07.5.09.5s.09-.06.15-.2c.31-.67.49-.79.67-.79a.48.48,0,0,1,.46.46.37.37,0,0,1-.06.21,6.84,6.84,0,0,0-.87,2.18c0,.13,0,.26,0,.4A.53.53,0,0,1,145,317.83Zm3.59,0a1.63,1.63,0,0,1-1.71-1.38c0-.84,1-1.18,2-1.18a5.15,5.15,0,0,1,1,.11c0-.1,0-.2,0-.31s0-.39,0-.62c0-.47-.1-1.29-.13-2.15a4.14,4.14,0,0,0-2,.8.5.5,0,0,1-.86-.37c0-.24.15-.81,2.83-1.4,0-.47,0-.91,0-1.26a.47.47,0,0,1,.51-.46.48.48,0,0,1,.52.43v.06a10.28,10.28,0,0,0-.08,1l.6-.1h.14a.5.5,0,0,1,.56.47c0,.23-.19.48-.59.53l-.72.1c0,.82,0,1.63.1,2.21,0,.41.09.82.09,1.23v.12a4.58,4.58,0,0,1,1.27.77.63.63,0,0,1,.21.45.59.59,0,0,1-.57.62.5.5,0,0,1-.39-.2,4.16,4.16,0,0,0-.8-.64A2.54,2.54,0,0,1,148.57,317.81Zm.16-1.71c-.86,0-.91.28-.91.38s.15.4.63.4a1.62,1.62,0,0,0,1.23-.64A4,4,0,0,0,148.73,316.1Z" transform="translate(-25.05 -275.04)"/><path class="cls-3" d="M155.33,318.2A4.16,4.16,0,0,0,154,317a.5.5,0,0,1-.3-.44.49.49,0,0,1,.52-.49c.39,0,2.16,1,2.16,1.72a.61.61,0,0,1-.6.61A.48.48,0,0,1,155.33,318.2Z" transform="translate(-25.05 -275.04)"/><path class="cls-3" d="M162,313.11a.29.29,0,0,1-.28.33.31.31,0,0,1-.3-.32c0-.5,0-.95,0-1.37,0-.73,0-1.37,0-2.06a1.21,1.21,0,0,1,1.25-1.31h.54l1.13,0a.27.27,0,0,1,.29.29.27.27,0,0,1-.28.28h0c-.06,0-.37,0-1.52,0a.76.76,0,0,0-.79.82c0,.43,0,.87,0,1.36s0,1.23,0,2Z" transform="translate(-25.05 -275.04)"/><path class="cls-3" d="M172.44,310.11v.16c0,.24-.25.36-.49.36s-.53-.13-.53-.36v-.16h-1.37v.16c0,.24-.24.36-.49.36s-.52-.13-.52-.36v-.16H166.6a.42.42,0,0,1-.46-.42.44.44,0,0,1,.46-.45H169v-.35c0-.24.25-.37.5-.37s.51.13.51.37v.35h1.37v-.35c0-.26.25-.38.51-.38s.51.12.51.38v.35H175a.44.44,0,1,1,0,.87Zm1.73,5.17c0-.95,0-1-.69-1l-2.56,0a.32.32,0,0,1,.08.21.5.5,0,0,1-.19.35l1.71,0c.6,0,.87.28.87.63a.92.92,0,0,1-.24.55c-1.08,1.25-2.55,2.33-6.09,2.33a.46.46,0,0,1-.48-.48.42.42,0,0,1,.43-.44h.58a7.66,7.66,0,0,0,2.32-.34c-.2-.11-.41-.21-.62-.3a.32.32,0,0,1-.24-.3.45.45,0,0,1,.47-.41,5.28,5.28,0,0,1,1.41.56,2.68,2.68,0,0,0,1.12-1c0-.06-.05-.07-.09-.07h0c-.07,0-1.53,0-2.06,0a6.33,6.33,0,0,1-2.58,1.32.44.44,0,0,1-.47-.42.45.45,0,0,1,.34-.42,7.58,7.58,0,0,0,2.91-1.8l-2.08,0c-.59,0-.68.13-.71.54v.49h0c0,.26-.27.41-.52.41s-.52-.14-.52-.42,0-.28,0-.42,0-.3,0-.48c0-.54.43-.9,1.28-.92l3.57,0,2.92,0a1.15,1.15,0,0,1,1.25,1c0,.16,0,.32,0,.46,0,.4,0,.79-.57.79a.47.47,0,0,1-.52-.46ZM171,313.12h-2.56c-1.15,0-1.19-.48-1.19-1.21s.07-1.17,1.14-1.18l2.57,0,2.51,0c.57,0,1,.12,1,1.18,0,.76-.15,1.2-1.11,1.21Zm-1.65-1.7h-.67c-.3,0-.46.09-.46.49s0,.47.46.47h.67Zm2,0h-1.09v1h1.09Zm.92,1h.8c.43,0,.45-.21.45-.48s-.06-.48-.48-.48h-.77Z" transform="translate(-25.05 -275.04)"/><path class="cls-3" d="M177.47,318.27a.66.66,0,0,1-.62-.61.47.47,0,0,1,.28-.42,6.77,6.77,0,0,0,1.54-1.14c0-.5,0-.93,0-1.35v-.45c0-.27-.11-.3-.5-.3h-.49c-.23,0-.63,0-.63-.46a.5.5,0,0,1,.49-.53h1.12c.72,0,1,.33,1,1s0,1.4,0,2.11c.71.87,1.78,1.11,3.33,1.11,1.08,0,2.24-.12,3.1-.19h.05a.53.53,0,0,1,.55.54.57.57,0,0,1-.57.55c-.68.06-1.69.13-2.68.13-2.93,0-3.57-.61-4.29-1.35C178.34,317.85,177.77,318.27,177.47,318.27Zm1.4-7.2a3.6,3.6,0,0,0-1.14-1,.4.4,0,0,1-.23-.34.59.59,0,0,1,.59-.53c.28,0,1.76.84,1.76,1.48a.62.62,0,0,1-.58.62A.49.49,0,0,1,178.87,311.07Zm3.4-1.29a6.5,6.5,0,0,0,.15-.72.51.51,0,0,1,.57-.44.57.57,0,0,1,.63.51,2,2,0,0,1-.18.64h1.14a.86.86,0,0,1,.93.73c0,.28,0,.59,0,.86,0,.73-.07,1.29-1.13,1.33l-1.61,0-1.06,0v.74l1.8,0h1.16c.8,0,1.11.41,1.12.87,0,.18,0,.35,0,.53s0,.64,0,.92a.9.9,0,0,1-.95.77c-.59,0-1.28,0-1.92,0-1.3,0-2.2,0-2.22-1,0-.51,0-1.06,0-1.61,0-1.11,0-2.24,0-3.18a.93.93,0,0,1,1-1Zm.82,2.1c1.39,0,1.39,0,1.39-.57s0-.71-.35-.71h-1.38c-.93,0-1,0-1,.51v.76C182.12,311.88,182.62,311.88,183.09,311.88Zm-1.32,2.65v.62c0,.49.08.51,1.36.51,1.47,0,1.61,0,1.63-.33,0-.1,0-.25,0-.38s0-.3,0-.41a.35.35,0,0,0-.38-.28h-.59c-.66,0-1.44,0-2,0Z" transform="translate(-25.05 -275.04)"/><path class="cls-3" d="M191.49,316.91a2.06,2.06,0,0,1-1.31-.58,5.77,5.77,0,0,1-1.62-3.32c-.08-.42-.21-1.1-.21-1.18a.55.55,0,0,1,.56-.54.58.58,0,0,1,.55.52c.07.36.09.73.15,1.09.46,2.57,1.5,2.67,1.56,2.67s.21-.09.31-.35.18-.59.31-.94a.43.43,0,0,1,.41-.31.59.59,0,0,1,.58.55s0,.06,0,.09c-.06.36-.28,1.08-.32,1.42A.91.91,0,0,1,191.49,316.91Zm4.24-2.51a3.87,3.87,0,0,0-1.44-2.23.42.42,0,0,1-.19-.36.48.48,0,0,1,.5-.45.73.73,0,0,1,.46.19c.46.4,1.83,1.61,1.83,2.73a.6.6,0,0,1-.6.63A.56.56,0,0,1,195.73,314.4Z" transform="translate(-25.05 -275.04)"/><path class="cls-3" d="M203.91,311.06a.13.13,0,0,1,0,.09,7,7,0,0,0,4,5.75.56.56,0,0,1,.43.54.7.7,0,0,1-.73.67c-.94,0-3.27-2-4.23-4.53a7.45,7.45,0,0,1-4,4.6.77.77,0,0,1-.32.07.63.63,0,0,1-.64-.6.59.59,0,0,1,.41-.54,6.79,6.79,0,0,0,3.87-6.39c0-.33,0-.71-.05-1v0a.62.62,0,0,1,1.23,0c0,.39,0,.86-.05,1.34Z" transform="translate(-25.05 -275.04)"/><path class="cls-3" d="M216.06,317.76H216c-2.4-.22-3.91-1.88-3.91-3.58a3.1,3.1,0,0,1,.8-2,.29.29,0,0,0,0-.1l0,0-.11,0c-1.74.89-1.95,1-2.19,1a.59.59,0,0,1-.16-1.17c.23-.08.86-.27,1.19-.39.52-.19,1.43-.47,2.53-.9a8.46,8.46,0,0,1,2.93-.69c.55,0,.75.26.75.54,0,.57-.47.69-.89.69h-.52c-1.71,0-3.39,1.45-3.39,2.93a2.74,2.74,0,0,0,3,2.46c.55,0,.81.32.81.65S216.57,317.76,216.06,317.76Zm.95-3.88a4.07,4.07,0,0,0-.94-.69.35.35,0,0,1-.27-.34.47.47,0,0,1,.48-.43c.15,0,1.49.51,1.49,1.08a.52.52,0,0,1-.47.52A.38.38,0,0,1,217,313.88Zm1.27-.92a4.05,4.05,0,0,0-1-.65c-.2-.08-.29-.21-.29-.34a.48.48,0,0,1,.49-.44c.18,0,1.5.47,1.5,1.05a.51.51,0,0,1-.46.52A.42.42,0,0,1,218.28,313Z" transform="translate(-25.05 -275.04)"/><path class="cls-3" d="M221.36,313.11a4,4,0,0,0-1.28-.71.38.38,0,0,1-.28-.36.55.55,0,0,1,.53-.54,3.9,3.9,0,0,1,1.61.66.56.56,0,0,1,.24.46.59.59,0,0,1-.51.61A.51.51,0,0,1,221.36,313.11Zm-.86,5a.57.57,0,0,1-.58-.53.56.56,0,0,1,.12-.33,7.91,7.91,0,0,0,1.37-2.67.49.49,0,0,1,.47-.33.51.51,0,0,1,.53.5,8,8,0,0,1-1.38,3.06A.66.66,0,0,1,220.5,318.12Zm1.3-7.5a4.36,4.36,0,0,0-1.1-.89.4.4,0,0,1-.21-.35.55.55,0,0,1,.55-.49c.26,0,1.69.7,1.69,1.32a.62.62,0,0,1-.56.6A.48.48,0,0,1,221.8,310.62Zm.87,7.41a.44.44,0,1,1,0-.88h.62c0-.69,0-1.49,0-2,0-.64.43-1,1.11-1h3a1,1,0,0,1,1.11,1c0,.29,0,.68,0,1.09s0,.58,0,.87h.61a.44.44,0,1,1,0,.88Zm6.35-6.3-1.74,0a5.78,5.78,0,0,0,2.19,1.73.47.47,0,0,1,.28.44.57.57,0,0,1-.55.56c-.47,0-2-1.18-2.91-2.75h-.75c-.88,1.64-2.27,2.84-2.72,2.84a.47.47,0,0,1-.22-.88,5.56,5.56,0,0,0,1.92-1.94l-1.36,0h0a.47.47,0,1,1,0-.94h3.17a13.8,13.8,0,0,0,.71-1.64.45.45,0,0,1,.46-.35.6.6,0,0,1,.61.54,7,7,0,0,1-.73,1.45H229a.47.47,0,0,1,0,.94Zm-4.26-1a.4.4,0,0,1-.37-.25,3.52,3.52,0,0,0-.66-.89.39.39,0,0,1-.12-.28.52.52,0,0,1,.52-.47c.51,0,1.21,1,1.21,1.34A.59.59,0,0,1,224.76,310.73Zm0,4.24h-.21a.36.36,0,0,0-.38.35c0,.44,0,1.2,0,1.83h.6Zm1.41,0h-.57v2.19h.57Zm1.49,2.18c0-1.29,0-1.58,0-1.83a.38.38,0,0,0-.41-.35H227v2.18Z" transform="translate(-25.05 -275.04)"/><path class="cls-3" d="M231.71,316.12l.16-.22c.12-.18.21-.34.32-.53a9.51,9.51,0,0,1,.84-1.19c.14-.26.27-.5.37-.72l0-.31a3.88,3.88,0,0,0-1,.49.71.71,0,0,1-.4.15.44.44,0,0,1-.42-.48c0-.37.09-.49,1.92-1.29.09-.9.15-1.7.15-2.18a.48.48,0,0,1,.5-.52.53.53,0,0,1,.55.51c0,.33-.13,1.43-.19,2a.45.45,0,0,1,.25.44,4.18,4.18,0,0,1,2.5-1.42,1.18,1.18,0,0,1,1.18,1.32,1.77,1.77,0,0,1,0,.22c-.08.72-.4,1.89-.52,2.9a3.08,3.08,0,0,0,0,.38c0,.34.13.49.52.49a3.39,3.39,0,0,0,1.23-.36.89.89,0,0,1,.3-.06.48.48,0,0,1,.48.51.63.63,0,0,1-.4.6,4.05,4.05,0,0,1-1.58.34c-.85,0-1.59-.27-1.59-1.39a2.85,2.85,0,0,1,0-.49c.15-1,.45-2.17.5-2.89v-.12c0-.36-.14-.5-.33-.5-.59,0-1.87,1.22-2.77,2.32,0,.59-.07,1.19-.07,1.75a9.47,9.47,0,0,0,.11,1.56.45.45,0,0,1,0,.12.57.57,0,0,1-.59.57c-.58,0-.59-.65-.59-1.45,0-.38,0-.8,0-1.25-.24.39-.48.86-.67,1.24a.93.93,0,0,1-.78.58.41.41,0,0,1-.44-.41,1.12,1.12,0,0,1,.33-.64Z" transform="translate(-25.05 -275.04)"/><path class="cls-3" d="M247.39,315c0-1.16-1.41-1.16-1.51-1.16a3.65,3.65,0,0,0-2.64,1.47.53.53,0,0,1-.44.22.56.56,0,0,1-.58-.53.62.62,0,0,1,.22-.45,29,29,0,0,0,3.2-3.66,0,0,0,0,0,0,0l-.08,0a5.66,5.66,0,0,1-2.21.81.54.54,0,0,1-.57-.54.47.47,0,0,1,.46-.49,10.72,10.72,0,0,0,2.8-.75.82.82,0,0,1,.39-.09.7.7,0,0,1,.73.65.73.73,0,0,1-.25.54c-.75.72-1.6,1.66-2.3,2.43a3,3,0,0,1,1.58-.44,2.13,2.13,0,0,1,2.33,2,3.27,3.27,0,0,1-3.43,2.89c-1.33,0-2-.76-2-1.41a1.14,1.14,0,0,1,1.24-1,1.57,1.57,0,0,1,1.72,1.38A2.17,2.17,0,0,0,247.39,315Zm-3,1.18c-.37,0-.39.25-.39.29,0,.43.76.49,1,.49h.08C245.06,316.44,244.81,316.14,244.37,316.14Z" transform="translate(-25.05 -275.04)"/><path class="cls-3" d="M259.06,310.58h-2.53a.28.28,0,0,1,.18.26v.62H258c1,0,1.07.4,1.07,1.29,0,.73,0,1.24-1.14,1.25h-5.77c-.13,1.87-.68,4-1.5,4a.54.54,0,0,1-.54-.53.6.6,0,0,1,.14-.38c.82-1,1-3.11,1-4.65,0-.68,0-1.25,0-1.55v0a1.07,1.07,0,0,1,1.18-1.13h2.27v-.62a.58.58,0,0,1,1.15,0v.62h3.25a.45.45,0,0,1,0,.89Zm-5.24,5.32V317c.48-.11.91-.24,1.26-.35a.41.41,0,0,1,.15,0,.42.42,0,0,1,.42.43.49.49,0,0,1-.39.47,18.84,18.84,0,0,1-3.16.76.47.47,0,0,1-.5-.49.47.47,0,0,1,.43-.48l.83-.12v-2.62a.48.48,0,1,1,1,0V315h1.3a.44.44,0,1,1,0,.88Zm-.21-5.07a.28.28,0,0,1,.17-.25h-1.06c-.37,0-.49.15-.49.43v.44h1.37Zm0,1.42h-1.36c0,.28,0,.61,0,1l1.38,0Zm2.17-1.42a.28.28,0,0,1,.18-.26h-1.57a.28.28,0,0,1,.16.26v.62h1.23Zm0,1.42h-1.23v1h1.23Zm1,4.58c0,.44.21.51.84.51s1.1-.2,1.1-.82a.41.41,0,0,1,.44-.44.52.52,0,0,1,.55.55c0,.94-.47,1.61-2.12,1.61-.84,0-1.77-.1-1.77-1.27,0-.66,0-1.83,0-2.43a.46.46,0,0,1,.48-.48.47.47,0,0,1,.49.47h0l0,.75a12,12,0,0,0,1.75-.66.48.48,0,0,1,.2,0,.51.51,0,0,1,.47.51.49.49,0,0,1-.34.46,13.83,13.83,0,0,1-2.09.6Zm-.06-3.59c1.25,0,1.33,0,1.38-.29a1.29,1.29,0,0,0,0-.23c0-.38-.07-.46-.34-.46h-1.05Z" transform="translate(-25.05 -275.04)"/><path class="cls-3" d="M261.89,318.33a.55.55,0,0,1-.56-.56.48.48,0,0,1,.46-.5,2.74,2.74,0,0,0,2.77-2.64.5.5,0,0,1,.51-.51.51.51,0,0,1,.53.51v.05A3.9,3.9,0,0,1,261.89,318.33Zm.78-9a.48.48,0,0,1,.53-.46.49.49,0,0,1,.53.46l0,4.35c0,.28-.26.42-.53.42s-.53-.14-.53-.42Zm4.77-.35c.51,0,1,0,1.43,0a1.06,1.06,0,0,1,1.11,1c0,.46,0,1.11,0,1.71,0,.36,0,.71,0,1a1.17,1.17,0,0,1-1.17,1.07c-.43,0-.92.05-1.39.05s-1,0-1.47-.05a1.12,1.12,0,0,1-1.2-1.06c0-.16,0-.35,0-.56,0-.69,0-1.55.05-2.08a1.07,1.07,0,0,1,1.16-1C266.4,309,266.92,309,267.44,309Zm-1.71,2.78c0,.28,0,.54,0,.69,0,.42.33.43,1.71.43,1.05,0,1.5,0,1.52-.45a6.15,6.15,0,0,0,0-.67Zm3.27-.84c0-.26,0-.48,0-.61,0-.45-.23-.46-1.62-.46-.41,0-.81,0-1.12,0-.49,0-.49.28-.49,1Zm-2.07,3.23a.48.48,0,0,1,.52.47c0,.43,0,1.33,0,1.85s0,.73,1,.73,1.32-.24,1.32-.95a.45.45,0,0,1,.51-.46.53.53,0,0,1,.59.54c0,1.51-1,1.85-2.51,1.85-1,0-2-.05-2-1.3,0-.43,0-1.91,0-2.26A.52.52,0,0,1,266.93,314.13Z" transform="translate(-25.05 -275.04)"/><path class="cls-3" d="M275,314.16v.07c0,.38.27.41.59.41h.67c1.18,0,3,0,4.26.05.8,0,1.16.33,1.16.9a2.69,2.69,0,0,1-2.76,2.73,5.19,5.19,0,0,1-1.19-.14.41.41,0,0,1-.31-.42.64.64,0,0,1,.08-.3h-3.31c-.91,0-1.19-.43-1.2-1,0-.16,0-.43,0-.6a.48.48,0,0,1,.53-.46.47.47,0,0,1,.52.45h0c0,.1,0,.3,0,.41,0,.39.07.39,1.42.39v-1.17h-.17c-.7,0-1.23-.28-1.28-1.1,0-.37,0-1,0-1.59s0-1.6,0-2.2a1,1,0,0,1,1.11-1.06l1.09,0c.06-.21.12-.47.16-.68a.54.54,0,0,1,.58-.42c.3,0,.62.17.62.46a2.1,2.1,0,0,1-.2.64l1.53,0c.95,0,1.15.48,1.19.78,0,.15,0,.65,0,1,0,.7,0,1.39-1.21,1.42l-2.89,0h-1c0,.13,0,.3,0,.49h6.52a.4.4,0,0,1,.42.42.4.4,0,0,1-.42.42Zm0-2.59v.52h1.29c.89,0,1.83,0,2.44,0a.36.36,0,0,0,.39-.37s0-.07,0-.12Zm4.13-.67c0-.07,0-.11,0-.16,0-.24-.13-.36-.41-.37s-.92,0-1.54,0-1.26,0-1.72,0c-.3,0-.43.16-.44.46v.07Zm-.13,5.56a.89.89,0,0,1-.61.89,3.87,3.87,0,0,0,.56,0,1.56,1.56,0,0,0,1.59-1.6c0-.21-.1-.28-.35-.3h-3.68v1.2c1.45,0,1.46,0,1.46-.5a1.41,1.41,0,0,0,0-.22v0c0-.26.24-.39.5-.39a.49.49,0,0,1,.54.41Z" transform="translate(-25.05 -275.04)"/><path class="cls-3" d="M288.08,315a4.36,4.36,0,0,1,0,.61.65.65,0,0,1-.59.67.46.46,0,0,1-.46-.52v-.1a4.84,4.84,0,0,0,.05-.74c-.23.13-1.26.67-1.26,1.36,0,.19.09.84,1.21.84a5.16,5.16,0,0,0,1.4-.23,1,1,0,0,1,.27,0,.53.53,0,0,1,.58.52c0,.23-.09.79-2,.79s-2.48-.95-2.48-1.76c0-1.34,1.57-2.18,2.15-2.48-.13-.43-.36-.65-.65-.65a1,1,0,0,0-.58.2c-.46.52-.74.67-1,.67a.44.44,0,0,1-.48-.42.6.6,0,0,1,.26-.45,5.91,5.91,0,0,0,1.41-1.68,3.53,3.53,0,0,1-.54,0c-1.12,0-1.13-.62-1.13-.7a.47.47,0,0,1,.46-.49.67.67,0,0,1,.39.14.73.73,0,0,0,.41.09,4.3,4.3,0,0,0,.88-.12,4.7,4.7,0,0,0,.19-.87.44.44,0,0,1,.47-.39.57.57,0,0,1,.6.49,2.06,2.06,0,0,1-.07.4c.33-.16.37-.17.45-.17a.48.48,0,0,1,.48.48c0,.37-.29.59-1.44.87-.17.34-.39.71-.63,1.1a1.46,1.46,0,0,1,1.39,1,13.16,13.16,0,0,1,2.55-.9.59.59,0,0,1,.62.58.45.45,0,0,1-.3.43c-.34.14-.7.19-1.28.36s-.94.32-1.37.5A3,3,0,0,1,288.08,315Z" transform="translate(-25.05 -275.04)"/><path class="cls-3" d="M293,317.87a.5.5,0,0,1-.5-.49.52.52,0,0,1,.15-.36,4.57,4.57,0,0,0,1-3.21c0-.35,0-.67,0-.9,0-.7.53-.92,1-.93h.93l1.3,0c.67,0,1.06.26,1.1.81,0,.21,0,.46,0,.73,0,1.15,0,1.58-1.11,1.59h-2.45C294.2,316.64,293.55,317.87,293,317.87Zm1.89-6.31a.39.39,0,0,1-.39-.25c-1,1-1.32,1-1.42,1a.57.57,0,0,1-.57-.53.52.52,0,0,1,.26-.43,8.45,8.45,0,0,0,2-2,1.17,1.17,0,0,1,1-.56,1.39,1.39,0,0,1,1,.56,10.44,10.44,0,0,0,1.73,1.62.46.46,0,0,1,.2.36.61.61,0,0,1-.57.58c-.18,0-.33-.05-1-.74a.39.39,0,0,1-.42.36Zm1.31,6.65c-1.41,0-2,0-2-1.08,0-.75,0-1.48.87-1.54.36,0,.72,0,1.09,0s.75,0,1.11,0a.88.88,0,0,1,.87.73,4,4,0,0,1,0,.5c0,.55,0,1.3-.92,1.36Zm-1.65-4.32c0,.16,0,.32,0,.5h2.21a.28.28,0,0,0,.31-.29c0-.07,0-.13,0-.21Zm2.51-.67c0-.08,0-.17,0-.22s-.13-.27-.31-.27h-1.8c-.31,0-.38.18-.38.41v.08Zm-.3-2.46-.65-.76a.41.41,0,0,0-.29-.17c-.1,0-.18.07-.26.19a7.7,7.7,0,0,1-.57.74Zm-.47,5.61h-.78c-.31,0-.33.25-.33.57s0,.41,1,.41,1,0,1-.46S297.15,316.37,296.25,316.37Zm2.66-6.42a.51.51,0,0,1,1,0v5.63a.51.51,0,0,1-1,0Zm3,6.87v0c0,.66-.42,1.45-1.69,1.45-.91,0-1.21-.2-1.21-.63a.49.49,0,0,1,.45-.55h.11a4,4,0,0,0,.69.12c.3,0,.55-.12.56-.6s0-3.48,0-5.53v-1.75a.5.5,0,0,1,.53-.51.5.5,0,0,1,.53.51v6.12Z" transform="translate(-25.05 -275.04)"/><path class="cls-3" d="M309.44,315c0-1.16-1.4-1.16-1.5-1.16a3.61,3.61,0,0,0-2.64,1.47.54.54,0,0,1-.44.22.57.57,0,0,1-.59-.53.66.66,0,0,1,.22-.45,29.49,29.49,0,0,0,3.21-3.66s0,0,0,0l-.07,0a5.66,5.66,0,0,1-2.21.81.55.55,0,0,1-.58-.54.48.48,0,0,1,.47-.49,10.74,10.74,0,0,0,2.79-.75.86.86,0,0,1,.4-.09.7.7,0,0,1,.73.65.75.75,0,0,1-.26.54c-.75.72-1.6,1.66-2.29,2.43a3,3,0,0,1,1.58-.44,2.13,2.13,0,0,1,2.33,2,3.28,3.28,0,0,1-3.44,2.89c-1.32,0-2-.76-2-1.41a1.13,1.13,0,0,1,1.24-1,1.57,1.57,0,0,1,1.72,1.38A2.16,2.16,0,0,0,309.44,315Zm-3,1.18c-.38,0-.39.25-.39.29,0,.43.75.49,1,.49h.07C307.11,316.44,306.87,316.14,306.43,316.14Z" transform="translate(-25.05 -275.04)"/><path class="cls-3" d="M314.87,313.77a.3.3,0,0,1,.29-.33.31.31,0,0,1,.3.32c0,.5,0,.95,0,1.37,0,.73,0,1.37,0,2.05a1.23,1.23,0,0,1-1.25,1.32h-.54l-1.13,0a.28.28,0,0,1-.3-.29.28.28,0,0,1,.29-.29h0a14.73,14.73,0,0,0,1.53,0,.76.76,0,0,0,.78-.82c0-.43,0-.88,0-1.36s0-1.24,0-2Z" transform="translate(-25.05 -275.04)"/><path class="cls-3" d="M323.63,315c0,.19,0,.39,0,.61a.65.65,0,0,1-.6.67.46.46,0,0,1-.45-.52v-.1a6.46,6.46,0,0,0,0-.74c-.23.13-1.26.67-1.26,1.36,0,.19.09.84,1.22.84a5.08,5.08,0,0,0,1.39-.23,1,1,0,0,1,.28,0,.53.53,0,0,1,.57.52c0,.23-.09.79-2,.79s-2.47-.95-2.47-1.76c0-1.34,1.57-2.18,2.14-2.48-.13-.43-.35-.65-.65-.65a1,1,0,0,0-.57.2c-.47.52-.74.67-1,.67a.44.44,0,0,1-.47-.42.58.58,0,0,1,.25-.45,5.77,5.77,0,0,0,1.42-1.68,3.65,3.65,0,0,1-.55,0c-1.11,0-1.12-.62-1.12-.7a.47.47,0,0,1,.45-.49.72.72,0,0,1,.4.14.71.71,0,0,0,.41.09,4.24,4.24,0,0,0,.87-.12,4.66,4.66,0,0,0,.2-.87.43.43,0,0,1,.46-.39.57.57,0,0,1,.6.49,1.51,1.51,0,0,1-.07.4c.33-.16.38-.17.46-.17a.48.48,0,0,1,.47.48c0,.37-.29.59-1.43.87-.17.34-.39.71-.63,1.1a1.48,1.48,0,0,1,1.39,1,12.69,12.69,0,0,1,2.55-.9.59.59,0,0,1,.62.58.45.45,0,0,1-.3.43c-.34.14-.71.19-1.28.36s-.94.32-1.37.5A4.52,4.52,0,0,1,323.63,315Z" transform="translate(-25.05 -275.04)"/><path class="cls-3" d="M330.26,315.42c0,.53.21.78.87.87a6.83,6.83,0,0,0,3-.39c1-.52,1.66.63.41,1.18a8.66,8.66,0,0,1-3.83.3,1.59,1.59,0,0,1-1.54-1.64c0-1.1.07-2,.12-3.25a6.36,6.36,0,0,0-.06-1.39.62.62,0,1,1,1.23-.05,9,9,0,0,1,0,1.38c0,.28,0,.53,0,.76a11.89,11.89,0,0,0,2-.58,3.4,3.4,0,0,0,.95-.52c.58-.5,1.57.24.95.9a3.62,3.62,0,0,1-1.13.57,15.47,15.47,0,0,1-2.86.77C330.3,314.68,330.29,315,330.26,315.42Zm3.88-4c-.55-.23-.12-.9.39-.71a3.7,3.7,0,0,1,1.08.66c.43.46-.21,1.13-.57.7A3.9,3.9,0,0,0,334.14,311.43Zm1-.94c-.57-.22-.17-.89.35-.72a3.48,3.48,0,0,1,1.1.63c.45.44-.17,1.12-.55.71A3.79,3.79,0,0,0,335.14,310.49Z" transform="translate(-25.05 -275.04)"/><path class="cls-3" d="M340.13,314.35a4.05,4.05,0,0,0-1.37-.56c-.67-.11-.45-1.16.36-1a5.42,5.42,0,0,1,1.61.56.57.57,0,0,1,.23.82A.55.55,0,0,1,340.13,314.35Zm-.06,3.41c-.93.11-1.07-1-.36-1.15a3.84,3.84,0,0,0,.85-.28,12.21,12.21,0,0,0,5.05-5.07c.37-.69,1.47-.21,1,.66a13.93,13.93,0,0,1-5.44,5.46A2.59,2.59,0,0,1,340.07,317.76Zm1.39-5.37a4,4,0,0,0-1.21-.85c-.62-.26-.17-1.24.58-.91a5.73,5.73,0,0,1,1.45.92.58.58,0,0,1,0,.85A.56.56,0,0,1,341.46,312.39Zm2.36-2c-.56-.23-.13-.89.38-.71a3.53,3.53,0,0,1,1.08.67c.44.45-.2,1.12-.57.69A3.92,3.92,0,0,0,343.82,310.4Zm1-.94c-.56-.22-.17-.88.35-.72a3.64,3.64,0,0,1,1.11.63c.44.44-.18,1.12-.55.71A4.06,4.06,0,0,0,344.81,309.46Z" transform="translate(-25.05 -275.04)"/><path class="cls-3" d="M352.76,316.31c0,.24-.21.44-.6.48l-.54,0c-.35,0-2.05.22-2.33.25a3.29,3.29,0,0,1-.77.05c-.62-.06-.65-.92.11-.88a3.27,3.27,0,0,0,.54,0l2.25-.27c.05-.26.11-.55.17-.84l-.12,0-.54.06c-.35,0-.8.13-1.06.17a3.91,3.91,0,0,1-.76.07c-.6,0-.71-.85,0-.86a5.09,5.09,0,0,0,.55,0c.29-.05.82-.11,1.17-.16.2,0,.43-.08.63-.1a.44.44,0,0,1,.26.05c.06-.27.1-.48.13-.59s0-.22-.2-.2c-.38.06-1.63.24-1.93.3a4.45,4.45,0,0,1-.95.1c-.59,0-.69-.86,0-.9a4.63,4.63,0,0,0,.74,0l1.85-.22a6.67,6.67,0,0,1,.78-.12c.79,0,.94.62.79.93a10.46,10.46,0,0,0-.4,1.36c-.07.32-.14.65-.21.92C352.62,316,352.76,316.12,352.76,316.31Z" transform="translate(-25.05 -275.04)"/><path class="cls-3" d="M357.77,313a4.54,4.54,0,0,0-1.57-.75c-.66-.15-.39-1.25.45-1a6.7,6.7,0,0,1,1.83.74.64.64,0,0,1,.19.89A.6.6,0,0,1,357.77,313Zm.48,4.16a2.47,2.47,0,0,1-1.07.36c-.91.07-1.05-1.09-.34-1.16a4.22,4.22,0,0,0,.85-.28,10.88,10.88,0,0,0,4.91-4.86c.36-.7,1.48-.23,1,.65A12.43,12.43,0,0,1,358.25,317.18Z" transform="translate(-25.05 -275.04)"/><path class="cls-3" d="M365.86,317.4a7.07,7.07,0,0,1-.28-2.11,33.87,33.87,0,0,1,.61-4.6.55.55,0,0,1,1.09-.05.28.28,0,0,1,0,.09,25.64,25.64,0,0,0-.72,3.95c0,.4.08.45.11.45s0,0,.08-.08c.34-.65.42-.78.65-.78a.48.48,0,0,1,.45.46.37.37,0,0,1,0,.2A5.54,5.54,0,0,0,367,317c0,.1,0,.2,0,.29a.52.52,0,0,1-.55.58A.59.59,0,0,1,365.86,317.4Zm6.14-.06c-1.91,0-3.36-1.14-3.36-1.68a.55.55,0,0,1,.57-.52.68.68,0,0,1,.5.24,2.81,2.81,0,0,0,2.14.74,7.54,7.54,0,0,0,.94-.06h.13a.5.5,0,0,1,.55.53C373.47,317.15,373,317.34,372,317.34Zm-1.24-4.85a6.25,6.25,0,0,1-1.49-.17c-.34-.07-.47-.28-.47-.49a.51.51,0,0,1,.51-.52h.11a5.72,5.72,0,0,0,1.07.11,11.52,11.52,0,0,0,1.36-.11h.1a.51.51,0,0,1,.53.52C372.48,312.27,372.17,312.49,370.76,312.49Z" transform="translate(-25.05 -275.04)"/><path class="cls-3" d="M376.24,314.55c-.7.38-.79.41-1,.41a.52.52,0,0,1-.52-.53.5.5,0,0,1,.32-.45c.42-.18.81-.34,1.17-.52v-1.67h-.88a.47.47,0,0,1-.49-.5.46.46,0,0,1,.48-.47h.88V309.1a.5.5,0,0,1,.52-.52.49.49,0,0,1,.5.52v1.72h.57a.49.49,0,1,1,0,1h-.57v1.14l.46-.3a.41.41,0,0,1,.65.39c0,.24-.06.34-1.11,1v1.45c0,.18,0,1.18,0,1.57v0a1.2,1.2,0,0,1-1.37,1.24c-.73,0-1-.2-1-.6a.46.46,0,0,1,.42-.51.2.2,0,0,1,.1,0,1.86,1.86,0,0,0,.34,0c.24,0,.45-.08.45-.37Zm3.6,1.27c0,.38.16.45.82.45s1.09-.19,1.09-.7a.39.39,0,0,1,.42-.39.48.48,0,0,1,.54.47c0,1.28-1.1,1.41-2.07,1.41-1.26,0-1.71-.33-1.71-1.09,0-.37,0-.85,0-1.24a2.89,2.89,0,0,1-1.16.67.49.49,0,0,1-.49-.46.41.41,0,0,1,.22-.35,5.56,5.56,0,0,0,2.16-2l-.05,0c-1.09-.07-1.1-.65-1.1-1.39,0-.41,0-.85,0-1.21a1,1,0,0,1,1.1-1l1.3,0,1.34,0a1.09,1.09,0,0,1,1.07.89c0,.26,0,.56,0,.87s0,.6,0,.88c0,.57-.46.91-1.11.93s-1.08.05-1.58.05c-.11.19-.22.36-.34.55h2.92a1,1,0,0,1,1.09,1.1c0,1.88-.05,4.06-2.37,4.06a4.16,4.16,0,0,1-1-.14.49.49,0,0,1-.38-.47.52.52,0,0,1,.52-.52,1,1,0,0,1,.17,0,3.79,3.79,0,0,0,.8.12c.72,0,1.24-.37,1.24-2.8v-.15c0-.28-.14-.39-.36-.39h-3.27l-.08.09a.38.38,0,0,1,.26.37v.42a15.22,15.22,0,0,0,1.7-.61.3.3,0,0,1,.17,0,.44.44,0,0,1,.43.45.41.41,0,0,1-.32.4,13.84,13.84,0,0,1-2,.56Zm2.53-4.68h-2.88c0,.1,0,.2,0,.29,0,.36.23.37,1.36.37,1.34,0,1.49,0,1.51-.38Zm0-.77c0-.07,0-.12,0-.18,0-.43-.06-.43-1.39-.43l-1.07,0c-.32,0-.39.21-.4.42v.17Z" transform="translate(-25.05 -275.04)"/><path class="cls-3" d="M387.91,310.18c0,.33-.12.84-.18,1.38a12.23,12.23,0,0,0-.11,1.62,8.56,8.56,0,0,0,.5,3,.59.59,0,0,1,.05.25.57.57,0,0,1-.58.57.62.62,0,0,1-.57-.44,8.07,8.07,0,0,1-.43-2.9c0-.77.05-1.53.1-2.1s.1-1,.13-1.43a.51.51,0,0,1,.54-.47.51.51,0,0,1,.55.51Zm3.45,2.16a13.35,13.35,0,0,1-1.83.29.55.55,0,0,1-.59-.54.52.52,0,0,1,.59-.49,6.58,6.58,0,0,0,2-.25c0-.63-.05-1.09-.08-1.37,0,0,0-.07,0-.09a.49.49,0,0,1,.53-.5.6.6,0,0,1,.63.51,2.68,2.68,0,0,1,0,.42c0,.22,0,.5,0,.82a3.83,3.83,0,0,1,.78-.12c.37,0,.55.22.55.45a.6.6,0,0,1-.57.57c-.25,0-.5.06-.76.11,0,.37,0,.78,0,1.25,0,.13,0,.25,0,.36a4.83,4.83,0,0,1-2.94,4.7.65.65,0,0,1-.29.07.56.56,0,0,1-.56-.54.5.5,0,0,1,.35-.46,3.92,3.92,0,0,0,2.39-4c0-.14,0-.84,0-1.26Zm1.8-2.27a4.56,4.56,0,0,0-.59-.93.43.43,0,0,1-.15-.3.4.4,0,0,1,.42-.35c.42,0,1.15,1,1.15,1.34a.51.51,0,0,1-.5.49A.35.35,0,0,1,393.16,310.07Zm1.32-.53a4,4,0,0,0-.64-.91.36.36,0,0,1,.27-.65c.44,0,1.17,1,1.17,1.3a.5.5,0,0,1-.48.49A.33.33,0,0,1,394.48,309.54Z" transform="translate(-25.05 -275.04)"/><path class="cls-3" d="M397.58,313.14a4.69,4.69,0,0,0-1.3-.71.35.35,0,0,1-.27-.36.54.54,0,0,1,.53-.53,4.07,4.07,0,0,1,1.62.65.55.55,0,0,1,.23.46.59.59,0,0,1-.51.61A.43.43,0,0,1,397.58,313.14Zm-.59,5a.58.58,0,0,1-.59-.54.53.53,0,0,1,.14-.33,10,10,0,0,0,1.48-2.63.46.46,0,0,1,.44-.3.53.53,0,0,1,.55.51,9.65,9.65,0,0,1-1.5,3A.63.63,0,0,1,397,318.13Zm1.07-7.41a4.78,4.78,0,0,0-1.11-.91.38.38,0,0,1-.21-.34.55.55,0,0,1,.55-.49c.19,0,1.7.69,1.7,1.33a.62.62,0,0,1-.56.6A.48.48,0,0,1,398.06,310.72Zm4.84,2.09v1.39l.83,0a1.21,1.21,0,0,1,1.29,1c0,.31,0,.64,0,1s0,.51,0,.75c0,.66-.46,1.09-1.3,1.15a12.63,12.63,0,0,1-1.33.05c-1.68,0-2.58-.06-2.63-1.16,0-.32,0-.64,0-.95s0-.52,0-.75a1.16,1.16,0,0,1,1.25-1.09l.82,0v-1.39h-2.28a.49.49,0,1,1,0-1h2.28v-1.31c-.63.08-1.62.15-1.78.15a.49.49,0,0,1-.51-.51.46.46,0,0,1,.46-.49,14,14,0,0,0,4.13-.59.52.52,0,0,1,.21,0,.49.49,0,0,1,.49.51c0,.41-.21.55-1.94.83v1.45h2.34a.49.49,0,1,1,0,1Zm1,2.72c-.05-.46-.23-.46-1.57-.46-.4,0-.78,0-1,0-.51,0-.51.26-.51.91,0,.23,0,.48,0,.68,0,.53.39.53,1.57.53,1.56,0,1.56,0,1.56-1.09C404,315.93,404,315.72,403.94,315.53Z" transform="translate(-25.05 -275.04)"/><path class="cls-3" d="M409.29,315.9l-1.47,0h0a.38.38,0,0,1-.43-.38.4.4,0,0,1,.44-.39h1.47v-.43c-1.62,0-1.77,0-1.77-1.57,0-1.36.31-1.37,1.78-1.37v-.45h-1.68a.4.4,0,1,1,0-.8h1.68v-.46c-.63,0-1.16,0-1.38,0a.43.43,0,0,1-.46-.44.42.42,0,0,1,.45-.42h0l.68,0a12.74,12.74,0,0,0,2.71-.31h.11a.46.46,0,0,1,.46.46c0,.33-.22.44-1.68.59v.54h1.63a.42.42,0,0,1,.46.4s0,.06,0,.08a.44.44,0,0,1,.26-.07h.9v-1.72a.48.48,0,0,1,.51-.49.49.49,0,0,1,.53.49v1.72h.83a1.14,1.14,0,0,1,1.18,1.23c0,.32,0,.65,0,1,0,2.12-.2,4.87-2.25,4.87a3.11,3.11,0,0,1-1-.16.52.52,0,0,1-.35-.5.48.48,0,0,1,.47-.52l.21,0a2,2,0,0,0,.59.11c.47,0,1.27-.28,1.27-3.92,0-.26,0-.52,0-.76a.37.37,0,0,0-.4-.42h-.59c-.08,2.33-.7,4.84-2.77,6.25a.6.6,0,0,1-.37.12.51.51,0,0,1-.52-.5.54.54,0,0,1,.26-.44,5.82,5.82,0,0,0,.47-.36,30.81,30.81,0,0,1-4,.71.44.44,0,0,1-.44-.47.4.4,0,0,1,.39-.43c.59,0,1.22-.1,1.83-.19Zm0-2.38h-.9c0,.07,0,.14,0,.19,0,.34.13.35.89.35Zm0-1.1c-.83,0-.88,0-.9.4v.11h.9Zm.91,3.46v.54c.51-.09,1-.19,1.38-.29h.1a.35.35,0,0,1,.35.3,7,7,0,0,0,1.39-4.54h-.9a.45.45,0,0,1-.47-.47.8.8,0,0,1,0-.15.53.53,0,0,1-.26.06H410.2v.44c1.44,0,1.8,0,1.8,1.41s-.22,1.54-1.8,1.54v.42l1.38,0h0a.38.38,0,0,1,.41.37.39.39,0,0,1-.42.38Zm.89-3.1c0-.36-.14-.36-.9-.36v.51h.9Zm-.9.74v.54c.69,0,.89,0,.9-.36,0-.06,0-.12,0-.18Z" transform="translate(-25.05 -275.04)"/><path class="cls-3" d="M422.9,315.9a1.74,1.74,0,0,1-1.62-1.79,1.24,1.24,0,0,1,1.27-1.3,2.16,2.16,0,0,1,.51.06c0-.36-.05-.69-.08-1a15.82,15.82,0,0,0-4.05.87.91.91,0,0,1-.21.05.55.55,0,0,1-.53-.56.62.62,0,0,1,.52-.59,24.35,24.35,0,0,1,4.23-.75v-.36c0-1,0-1.49.61-1.49a.57.57,0,0,1,.61.52.18.18,0,0,1,0,.1,8.25,8.25,0,0,0-.14,1.14c.88-.06,1.78-.08,2.67-.08.47,0,.7.28.7.55a.59.59,0,0,1-.65.56h-.06c-.54,0-1.09-.05-1.64-.05-.35,0-.69,0-1,0,0,.75.07,1.45.08,1.59a1.82,1.82,0,0,1,.58,1.32,2.18,2.18,0,0,1-.35,1.11,5.4,5.4,0,0,1-3.82,2.5.55.55,0,0,1-.61-.53c0-.22.15-.45.53-.53a4.53,4.53,0,0,0,2.6-1.36Zm-.19-2.2a.47.47,0,0,0-.5.5.79.79,0,0,0,.7.81.48.48,0,0,0,.47-.48s0,0,0-.09a1.49,1.49,0,0,0-.07-.36A.71.71,0,0,0,422.71,313.7Z" transform="translate(-25.05 -275.04)"/><path class="cls-3" d="M434.1,315c0-1.16-1.4-1.16-1.5-1.16a3.61,3.61,0,0,0-2.64,1.47.54.54,0,0,1-.44.22.57.57,0,0,1-.59-.53.63.63,0,0,1,.23-.45,29,29,0,0,0,3.2-3.66,0,0,0,0,0,0,0l-.08,0a5.66,5.66,0,0,1-2.21.81.55.55,0,0,1-.58-.54.48.48,0,0,1,.47-.49,10.74,10.74,0,0,0,2.79-.75.89.89,0,0,1,.4-.09.7.7,0,0,1,.73.65.77.77,0,0,1-.25.54c-.76.72-1.61,1.66-2.3,2.43a3,3,0,0,1,1.58-.44,2.13,2.13,0,0,1,2.33,2,3.28,3.28,0,0,1-3.44,2.89c-1.32,0-2-.76-2-1.41a1.13,1.13,0,0,1,1.24-1,1.57,1.57,0,0,1,1.72,1.38A2.16,2.16,0,0,0,434.1,315Zm-3,1.18c-.38,0-.39.25-.39.29,0,.43.75.49,1,.49h.08C431.77,316.44,431.53,316.14,431.09,316.14Z" transform="translate(-25.05 -275.04)"/><path class="cls-3" d="M443.24,315.45a3.75,3.75,0,0,1,0,.48,2.29,2.29,0,0,1-2.39,2.5c-.86,0-1.32-.23-1.32-.66a.51.51,0,0,1,.52-.52.52.52,0,0,1,.17,0,2.42,2.42,0,0,0,.73.12c1.24,0,1.24-1.48,1.24-1.57a2.22,2.22,0,0,0,0-.37l-4.69,0A.48.48,0,0,1,437,315a.49.49,0,0,1,.5-.5l4.09,0a1.67,1.67,0,0,0-.44-.23c-.24-.08-.34-.22-.34-.37a.55.55,0,0,1,.59-.46,1.36,1.36,0,0,1,.65.22c.29-.19.88-.6.88-.73s-.05-.07-.13-.07h-.58c-.71,0-1.78,0-2.55.06h0a.46.46,0,0,1-.49-.47.47.47,0,0,1,.5-.46c.48,0,1.08,0,1.66,0l2.12,0c.63,0,.9.33.9.67,0,.54-.59,1-1.58,1.62a1.82,1.82,0,0,1,.15.23l3.29,0a.48.48,0,0,1,.49.5.46.46,0,0,1-.47.49Zm1.82-3.54c0-.46-.24-.54-.7-.55l-2.84,0-2.24,0c-.61,0-.71.17-.74.55v.66a.52.52,0,0,1-.56.48.49.49,0,0,1-.53-.5c0-.14,0-.3,0-.48s0-.38,0-.54a1.16,1.16,0,0,1,1.29-1.06h.93a.58.58,0,0,1-.15-.16,2.9,2.9,0,0,0-.77-.79.38.38,0,0,1-.14-.29.56.56,0,0,1,.56-.48,1.94,1.94,0,0,1,1.28,1.23.59.59,0,0,1-.32.49c1,0,1.93,0,2.91,0a5.48,5.48,0,0,0,.78-1.45.52.52,0,0,1,.5-.36.61.61,0,0,1,.63.54,3.56,3.56,0,0,1-.81,1.29h.77a1.17,1.17,0,0,1,1.29,1c0,.15,0,.38,0,.59s0,.3,0,.41a.56.56,0,0,1-.59.49.49.49,0,0,1-.55-.47v-.63Zm-3.13-1.51a.38.38,0,0,1-.37-.27,3.23,3.23,0,0,0-.66-.95.39.39,0,0,1-.1-.24c0-.23.28-.43.57-.43.56,0,1.17,1.08,1.17,1.34A.62.62,0,0,1,441.93,310.4Z" transform="translate(-25.05 -275.04)"/><path class="cls-3" d="M448.58,318a.47.47,0,0,1-.52-.48.52.52,0,0,1,.52-.53h3.76v-2h-2.07a.47.47,0,0,1-.52-.47.51.51,0,0,1,.52-.51h2.07v-1.69h-2a12.73,12.73,0,0,1-1.23,1.8.62.62,0,0,1-.48.26.52.52,0,0,1-.54-.5.56.56,0,0,1,.15-.35,10,10,0,0,0,2-3.62.49.49,0,0,1,.5-.37.57.57,0,0,1,.62.51.5.5,0,0,1,0,.16c-.14.39-.3.77-.46,1.13h1.46v-2a.57.57,0,1,1,1.14,0v2h3a.49.49,0,1,1,0,1h-3V314h2.23a.49.49,0,1,1,0,1h-2.23v2h3.69a.49.49,0,0,1,.5.51.48.48,0,0,1-.5.5Z" transform="translate(-25.05 -275.04)"/><path class="cls-3" d="M467,318c-1,0-2,0-3,0s-2,0-3,0a1.31,1.31,0,0,1-1.47-1.34c0-.83,0-1.82,0-2.85,0-1.25,0-2.53,0-3.61a1.25,1.25,0,0,1,1.38-1.2c1,0,2,0,3,0s2.08,0,3.12,0a1.25,1.25,0,0,1,1.35,1.26c0,1.12,0,2.37,0,3.57,0,1,0,2,0,2.8A1.36,1.36,0,0,1,467,318Zm.35-4.55c0-.95,0-1.9,0-2.75,0-.63-.24-.74-.78-.75-.83,0-1.75,0-2.64,0s-1.78,0-2.56,0-.8.18-.81.75c0,.89,0,1.88,0,2.84s0,1.9,0,2.72c0,.63.24.75.92.76l2.42,0,2.62,0c.62,0,.81-.31.83-.79C467.36,315.34,467.37,314.39,467.37,313.44Zm-2.78-.95h-3.14a.45.45,0,1,1,0-.9h3.13v-.85a.45.45,0,0,1,.5-.44.44.44,0,0,1,.49.44v.85h1a.45.45,0,1,1,0,.9h-1l0,1.11,0,1.48v0c0,.59-.41,1.37-1.69,1.37-.53,0-1.23-.05-1.23-.61a.48.48,0,0,1,.51-.49h.14a2.85,2.85,0,0,0,.62.08c.37,0,.63-.13.63-.58Zm-1.6,1.93a3,3,0,0,0-1-.77.4.4,0,0,1-.24-.34.5.5,0,0,1,.51-.47c.22,0,1.59.6,1.59,1.23a.55.55,0,0,1-.51.56A.48.48,0,0,1,463,314.42Z" transform="translate(-25.05 -275.04)"/><path class="cls-3" d="M476.71,316v1.91a.51.51,0,0,1-1,0V316h-1a.44.44,0,0,1-.5-.44.48.48,0,0,1,.5-.48h1v-.28l0-1.91a10.44,10.44,0,0,1-2.33,3.14.54.54,0,0,1-.4.16.54.54,0,0,1-.44-.24l0,1.95a.51.51,0,0,1-.54.51.48.48,0,0,1-.52-.5h0l.11-5.1c-.71.92-1,1.08-1.25,1.08a.5.5,0,0,1-.52-.48A.54.54,0,0,1,470,313a10.21,10.21,0,0,0,2.52-4,.49.49,0,0,1,.47-.35.6.6,0,0,1,.62.54,8.7,8.7,0,0,1-.95,2l-.09,4.27a.71.71,0,0,1,.15-.15,10.12,10.12,0,0,0,2.68-3.44l-1.88,0h0a.46.46,0,0,1-.5-.47.5.5,0,0,1,.51-.5h2.16V309.1a.48.48,0,0,1,.52-.48.5.5,0,0,1,.54.48V311h2.46a.48.48,0,0,1,.49.49.46.46,0,0,1-.48.48h0l-2.21,0a10.65,10.65,0,0,0,2.9,3.14.55.55,0,0,1,.23.44.55.55,0,0,1-.54.55.75.75,0,0,1-.45-.17,12,12,0,0,1-2.45-2.94l0,1.89v.29h1a.46.46,0,1,1,0,.92Z" transform="translate(-25.05 -275.04)"/><path class="cls-3" d="M487.58,317.76h-.11c-2.4-.22-3.91-1.88-3.91-3.58a3.13,3.13,0,0,1,.79-2c0-.05.06-.08.06-.1l0,0-.11,0c-1.74.89-1.95,1-2.19,1a.59.59,0,0,1-.17-1.17c.24-.08.87-.27,1.2-.39.52-.19,1.43-.47,2.53-.9a8.4,8.4,0,0,1,2.92-.69c.56,0,.76.26.76.54,0,.57-.47.69-.89.69h-.52c-1.71,0-3.39,1.45-3.39,2.93a2.73,2.73,0,0,0,3,2.46c.56,0,.82.32.82.65S488.09,317.76,487.58,317.76Zm.95-3.88a4.07,4.07,0,0,0-.94-.69.36.36,0,0,1-.28-.34.47.47,0,0,1,.49-.43c.14,0,1.49.51,1.49,1.08a.52.52,0,0,1-.47.52A.38.38,0,0,1,488.53,313.88Zm1.27-.92a4.05,4.05,0,0,0-1-.65c-.2-.08-.29-.21-.29-.34a.48.48,0,0,1,.49-.44c.17,0,1.5.47,1.5,1.05a.51.51,0,0,1-.46.52A.42.42,0,0,1,489.8,313Z" transform="translate(-25.05 -275.04)"/><path class="cls-3" d="M496.32,315.9a1.74,1.74,0,0,1-1.61-1.79,1.24,1.24,0,0,1,1.27-1.3,2.22,2.22,0,0,1,.51.06c0-.36-.06-.69-.08-1a15.82,15.82,0,0,0-4.05.87,1,1,0,0,1-.21.05.55.55,0,0,1-.53-.56.62.62,0,0,1,.52-.59,24.35,24.35,0,0,1,4.23-.75v-.36c0-1,0-1.49.61-1.49a.57.57,0,0,1,.6.52.34.34,0,0,1,0,.1,8.25,8.25,0,0,0-.14,1.14c.88-.06,1.78-.08,2.67-.08.47,0,.7.28.7.55a.59.59,0,0,1-.65.56h-.06c-.54,0-1.09-.05-1.64-.05-.35,0-.69,0-1,0a15.33,15.33,0,0,0,.08,1.59,1.82,1.82,0,0,1,.58,1.32,2.18,2.18,0,0,1-.35,1.11,5.4,5.4,0,0,1-3.82,2.5.55.55,0,0,1-.61-.53c0-.22.15-.45.53-.53a4.47,4.47,0,0,0,2.59-1.36Zm-.18-2.2a.47.47,0,0,0-.5.5.79.79,0,0,0,.69.81.48.48,0,0,0,.48-.48s0,0,0-.09a1.18,1.18,0,0,0-.08-.36A.68.68,0,0,0,496.14,313.7Z" transform="translate(-25.05 -275.04)"/><path class="cls-3" d="M501.52,318.44a1.26,1.26,0,1,1,1.26-1.26A1.26,1.26,0,0,1,501.52,318.44Zm0-2.09a.84.84,0,1,0,.84.83A.84.84,0,0,0,501.52,316.35Z" transform="translate(-25.05 -275.04)"/></g><g class="cls-2"><path class="cls-3" d="M64.12,360.78a1.43,1.43,0,0,1-1.54,1.08h-.11l-1.43,0c-.62,0-1.24,0-1.75,0h0a.66.66,0,0,1-.31-1.26,2.16,2.16,0,0,0,.42-.34c3.29-3.47,3.35-4,3.35-4.56a1.16,1.16,0,0,0-1.18-1.2,1.54,1.54,0,0,0-1.31.85.61.61,0,0,1-.55.32.6.6,0,0,1-.63-.56,2.48,2.48,0,0,1,2.48-1.7A2.3,2.3,0,0,1,64,355.59a3.64,3.64,0,0,1-.84,2.14,35.62,35.62,0,0,1-2.71,2.92s0,.05,0,.07,0,0,.09,0c.39,0,1.26,0,1.78,0s.7-.35.86-.86a.64.64,0,0,1,.62-.5.61.61,0,0,1,.62.6.56.56,0,0,1,0,.23Z" transform="translate(-25.05 -275.04)"/><path class="cls-3" d="M65.42,359.14a13.26,13.26,0,0,1-.07-1.4c0-.43,0-.86.05-1.32.16-1.92,1.21-3,2.71-3s2.52,1,2.7,2.85c0,.49.07,1,.07,1.45,0,1.07,0,4.26-2.77,4.26C66.64,362,65.59,361,65.42,359.14Zm4.13,0a12.79,12.79,0,0,0,.1-1.56,11.61,11.61,0,0,0-.06-1.2c-.11-1.16-.68-1.85-1.48-1.85s-1.38.7-1.49,1.9c0,.37-.06.76-.06,1.14a13.93,13.93,0,0,0,.09,1.45c.14,1.13.73,1.8,1.46,1.8S69.39,360.23,69.55,359.18Z" transform="translate(-25.05 -275.04)"/><path class="cls-3" d="M76,360.63h0a.61.61,0,1,1,0,1.21h0c-.3,0-.73,0-1.17,0s-1,0-1.33,0a.61.61,0,1,1-.05-1.21H74c.21,0,.25-.06.25-.26,0-1.24,0-3,0-4.08,0-.46,0-.8,0-.95,0-.34-.12-.52-.48-.53h-.27a.61.61,0,0,1-.67-.65.58.58,0,0,1,.57-.63h1a1.09,1.09,0,0,1,1.17,1.15v0c0,.2,0,.52,0,.93,0,.92,0,2.26,0,3.68,0,.34,0,.69,0,1,0,.16.06.27.23.27Z" transform="translate(-25.05 -275.04)"/><path class="cls-3" d="M84.26,359.43c0,1.88-1.54,2.57-2.93,2.57a2.6,2.6,0,0,1-2.86-2.57,2.4,2.4,0,0,1,1.39-2.18,1.92,1.92,0,0,1-1-1.69,2.53,2.53,0,0,1,5,0,1.92,1.92,0,0,1-1,1.69A2.28,2.28,0,0,1,84.26,359.43Zm-2.9-1.57a1.53,1.53,0,1,0,1.72,1.57A1.51,1.51,0,0,0,81.36,357.86Zm0-3.37A1.23,1.23,0,0,0,80,355.61c0,.8.6,1.14,1.31,1.14,1.31,0,1.37-.88,1.37-1.14A1.21,1.21,0,0,0,81.36,354.49Z" transform="translate(-25.05 -275.04)"/><path class="cls-3" d="M91.2,359.92v2.21a.54.54,0,0,1-1.07,0v-2.21H86a.47.47,0,0,1-.53-.47.52.52,0,0,1,.53-.52h1.52c0-.36,0-.77,0-1.56a1.07,1.07,0,0,1,1.22-1.06h1.41V355H88.37A9.86,9.86,0,0,1,87,356.72a.68.68,0,0,1-.47.21.54.54,0,0,1-.55-.52.48.48,0,0,1,.19-.38,8.44,8.44,0,0,0,2-3,.5.5,0,0,1,.48-.33.61.61,0,0,1,.63.54,2.27,2.27,0,0,1-.36.86h4.88a.49.49,0,1,1,0,1H91.2v1.27h2a.52.52,0,0,1,.56.5.49.49,0,0,1-.55.48h0c-.64,0-1.34,0-2,0v1.66h3.27a.49.49,0,0,1,.51.51.48.48,0,0,1-.51.48Zm-1.07-2.64H89.06c-.38,0-.48.19-.49.42s0,.82,0,1.23h1.59Z" transform="translate(-25.05 -275.04)"/><path class="cls-3" d="M97.26,361.57a7.08,7.08,0,0,1-.29-2.11,33.92,33.92,0,0,1,.62-4.61.53.53,0,0,1,.53-.53.52.52,0,0,1,.55.49.31.31,0,0,1,0,.09,27.06,27.06,0,0,0-.71,3.94c0,.41.07.45.11.45s0,0,.07-.07c.35-.65.42-.79.66-.79a.48.48,0,0,1,.45.47.33.33,0,0,1-.06.2,5.7,5.7,0,0,0-.83,2.07c0,.1,0,.2,0,.3a.53.53,0,0,1-.56.58A.6.6,0,0,1,97.26,361.57Zm6.14-.07c-1.91,0-3.37-1.13-3.37-1.67a.56.56,0,0,1,.58-.52.62.62,0,0,1,.49.24,2.83,2.83,0,0,0,2.15.74,6,6,0,0,0,.94-.07h.13a.51.51,0,0,1,.55.53C104.87,361.32,104.39,361.5,103.4,361.5Zm-1.25-4.84a6.37,6.37,0,0,1-1.49-.17.51.51,0,0,1,0-1h.11a5,5,0,0,0,1.07.11,9.85,9.85,0,0,0,1.36-.11h.1a.51.51,0,0,1,.53.52C103.88,356.43,103.57,356.66,102.15,356.66Z" transform="translate(-25.05 -275.04)"/><path class="cls-3" d="M114.6,359.54l-2.07,0c0,.7,0,1.3,0,1.44,0,.41.38.46.92.46.71,0,1-.18,1-.83a.47.47,0,0,1,.51-.5.56.56,0,0,1,.59.61c0,1.3-.74,1.7-2.24,1.7-.59,0-1.85,0-1.85-1.28,0-.15,0-.83,0-1.62h-1.2a3.41,3.41,0,0,1-3.1,3.05l-.19,0a.54.54,0,0,1-.57-.56.46.46,0,0,1,.4-.48c1.66-.24,2.23-1,2.4-2l-1.75,0h0a.46.46,0,0,1-.51-.48.51.51,0,0,1,.52-.53h1.83v-1.29h-.13a.51.51,0,0,1-.47-.25,5.75,5.75,0,0,1-2,1.06.53.53,0,0,1-.51-.54.51.51,0,0,1,.33-.48,7.57,7.57,0,0,0,3.53-2.94c0-.07-.06-.11-.17-.11l-1.56,0a.47.47,0,0,1,0-.93h1.56c.7,0,1.27,0,1.41.61a.41.41,0,0,1,.3.16l.44.5a6,6,0,0,0,.82-1,.42.42,0,0,1,.36-.21.61.61,0,0,1,.58.56c0,.37-.85,1.09-1.08,1.28.17.16.34.31.53.46a6.86,6.86,0,0,0,1-1,.41.41,0,0,1,.36-.19.61.61,0,0,1,.57.56c0,.25-.36.63-1.16,1.22a8,8,0,0,0,1.47.78.52.52,0,0,1,.35.47.6.6,0,0,1-.62.57,4.82,4.82,0,0,1-2-1.13v0a.47.47,0,0,1-.52.48h-.17c0,.33,0,.8,0,1.29h2a.5.5,0,0,1,.53.51.49.49,0,0,1-.52.5Zm-6.74-3.93a4.35,4.35,0,0,0-1-.77.39.39,0,0,1-.22-.33.53.53,0,0,1,.55-.48c.44,0,1.36.78,1.39.81a.54.54,0,0,1,.15.35.6.6,0,0,1-.58.57A.42.42,0,0,1,107.86,355.61Zm4.84.67a17.05,17.05,0,0,1-1.64-1.68,11.17,11.17,0,0,1-1.49,1.68Zm-1.18,2.26c0-.49,0-1,0-1.29h-1.16v1c0,.09,0,.17,0,.25Z" transform="translate(-25.05 -275.04)"/><path class="cls-3" d="M122.69,359.32v1.95a7,7,0,0,0,1.39.11c.76,0,1.54-.06,2.26-.11h0a.51.51,0,0,1,.52.51.54.54,0,0,1-.55.54,18.6,18.6,0,0,1-2,.12c-1.87,0-3.62-.42-4.55-2.12-.53,1.22-1.62,2.28-2.12,2.28a.55.55,0,0,1-.54-.55.45.45,0,0,1,.23-.4,4.2,4.2,0,0,0,1.9-3.39.52.52,0,0,1,.53-.51.51.51,0,0,1,.52.51,5.37,5.37,0,0,1-.1.71,2.84,2.84,0,0,0,1.36,1.91V357.1c-.56,0-1.11,0-1.58,0a1.15,1.15,0,0,1-1.25-1.13c0-.2,0-.43,0-.66s0-.61,0-.82a1.11,1.11,0,0,1,1.23-1.11c.64,0,1.34,0,2.07,0s1.48,0,2.21,0a1.15,1.15,0,0,1,1.17,1,6.45,6.45,0,0,1,0,.67c0,.31,0,.63,0,.88a1.2,1.2,0,0,1-1.22,1.16c-.5,0-1,0-1.54,0v1.24h2.53a.5.5,0,1,1,0,1Zm1.71-4.16c0-.57,0-.9-.54-.91s-1.06,0-1.61,0-1.35,0-1.93,0-.52.31-.52.94c0,.8.1.94.53.95l1.74,0,1.82,0C124.37,356.11,124.4,355.8,124.4,355.16Z" transform="translate(-25.05 -275.04)"/><path class="cls-3" d="M131.64,362c-2.21,0-2.3-1.28-2.3-2.37,0-1.26.13-2.86.13-4.17a9.45,9.45,0,0,0-.07-1.26s0-.07,0-.11a.55.55,0,0,1,.58-.55.61.61,0,0,1,.62.53c0,.24,0,.51,0,.8,0,1.36-.23,3.09-.23,4.57,0,.91,0,1.46,1.14,1.46a7.55,7.55,0,0,0,2.64-.58.94.94,0,0,1,.34-.07.52.52,0,0,1,.54.53.76.76,0,0,1-.54.69A8.57,8.57,0,0,1,131.64,362Z" transform="translate(-25.05 -275.04)"/><path class="cls-3" d="M138.26,362.37a4.16,4.16,0,0,0-1.36-1.16.5.5,0,0,1-.3-.45.49.49,0,0,1,.52-.48c.39,0,2.16,1,2.16,1.72a.61.61,0,0,1-.6.61A.51.51,0,0,1,138.26,362.37Z" transform="translate(-25.05 -275.04)"/><path class="cls-3" d="M147.57,362.41c-.66,0-3.27-1.31-3.27-3.35a1.57,1.57,0,0,1,.32-1,.41.41,0,0,0,.06-.11h0a8.72,8.72,0,0,0-.9.51.79.79,0,0,1-.39.11.64.64,0,0,1-.66-.56c0-.19.14-.4.49-.57a3.92,3.92,0,0,0,1.23-.84,22.18,22.18,0,0,0,1.77-2.41s0,0,0,0a.13.13,0,0,0-.08,0,5,5,0,0,1-1.63.54.53.53,0,0,1-.57-.53.49.49,0,0,1,.49-.49,7.92,7.92,0,0,0,1.87-.44,1.29,1.29,0,0,1,.48-.15.71.71,0,0,1,.75.68,1.16,1.16,0,0,1-.24.65,20.31,20.31,0,0,1-1.81,2.16c-.06.06-.08.09-.08.11h.1a10.16,10.16,0,0,1,3-.82.6.6,0,0,1,.63.6c0,.27-.16.56-.91.58a7.18,7.18,0,0,0-1.27.18,2.37,2.37,0,0,0-1.32.68,1.24,1.24,0,0,0-.38.9,2.65,2.65,0,0,0,2.31,2.24.75.75,0,0,1,.69.71A.62.62,0,0,1,147.57,362.41Z" transform="translate(-25.05 -275.04)"/><path class="cls-3" d="M157.78,357.72a2.34,2.34,0,0,0-2.56-2.28h0a.49.49,0,0,1,.31.46V356c0,1.16-1.14,3.17-2.35,4.36a1.2,1.2,0,0,1-.83.38c-.79,0-1.49-.89-1.49-2.09a4.39,4.39,0,0,1,4.45-4,3.32,3.32,0,0,1,3.62,3.2,3.51,3.51,0,0,1-.24,1.25c-1,2.45-4,2.8-4.13,2.8a.58.58,0,0,1-.63-.55c0-.24.18-.47.6-.55C156.53,360.4,157.78,359.16,157.78,357.72Zm-3.19-2.22a3.6,3.6,0,0,0-2.76,3.05c0,.83.55.93.59.93a.3.3,0,0,0,.21-.09,6.07,6.07,0,0,0,1.75-3.42A.56.56,0,0,1,154.59,355.5Z" transform="translate(-25.05 -275.04)"/><path class="cls-3" d="M161.72,358.12c-.75.61-.91.69-1.08.69a.55.55,0,0,1-.53-.55.49.49,0,0,1,.27-.44,7.73,7.73,0,0,0,2.57-2.66.49.49,0,0,1,.42-.25.6.6,0,0,1,.57.56.51.51,0,0,1-.1.3,12.09,12.09,0,0,1-1.07,1.34l-.12,5a.51.51,0,0,1-.55.5.47.47,0,0,1-.51-.48v0Zm-.95-1.94a.52.52,0,0,1-.55-.5.65.65,0,0,1,.37-.52,6,6,0,0,0,2.12-2.14.51.51,0,0,1,.44-.28.56.56,0,0,1,.55.55.59.59,0,0,1-.11.33C162.7,354.91,161.33,356.18,160.77,356.18Zm5.65,1.92,1.41,0a.73.73,0,0,1,.83.71,4,4,0,0,1-1.07,1.86,4.87,4.87,0,0,0,2.14.74.46.46,0,0,1,.41.48.56.56,0,0,1-.58.57,5.13,5.13,0,0,1-2.66-1.14,5.79,5.79,0,0,1-2.79,1.29.51.51,0,0,1-.53-.51.45.45,0,0,1,.4-.44,5.25,5.25,0,0,0,2.21-1,5,5,0,0,1-.72-1.1c-.51.66-1.48,1.58-1.9,1.58a.51.51,0,0,1-.51-.49.39.39,0,0,1,.2-.34,6.74,6.74,0,0,0,2.3-2.57c-.38,0-1.22.11-1.72.11a.43.43,0,0,1-.42-.47.42.42,0,0,1,.41-.45c.37,0,.73,0,1.1,0h0a9.59,9.59,0,0,0,.75-.61,5.45,5.45,0,0,0-1.47-1.09.43.43,0,0,1-.26-.4.46.46,0,0,1,.47-.45,1.27,1.27,0,0,1,.51.19,5.49,5.49,0,0,0,1-1.49.4.4,0,0,1,.38-.24.61.61,0,0,1,.61.51,4.51,4.51,0,0,1-1.25,1.69,7,7,0,0,1,.7.61,12.55,12.55,0,0,0,1.2-1.51.47.47,0,0,1,.42-.22.53.53,0,0,1,.57.47c0,.54-1.86,2.18-2.22,2.46.69-.05,1.35-.14,2-.23l-.24-.21a.44.44,0,0,1-.18-.32.47.47,0,0,1,.49-.41c.44,0,1.78,1.26,1.78,1.77a.55.55,0,0,1-.53.54.48.48,0,0,1-.44-.26,3,3,0,0,0-.27-.42c-.73.14-1.56.27-2.42.37a.51.51,0,0,1,0,.17.42.42,0,0,1-.09.27Zm1.07.89c0-.1-.09-.13-.17-.13h0c-.08,0-.69,0-1.19,0a4.34,4.34,0,0,0,.74,1.1A3.2,3.2,0,0,0,167.49,359Z" transform="translate(-25.05 -275.04)"/><path class="cls-3" d="M176.27,357.05a7.88,7.88,0,0,1-3.85,5c-.73.38-1.46-.54-.55-1a6.92,6.92,0,0,0,3.22-3.8l-.79.11a13.32,13.32,0,0,1-1.39.14c-.93,0-.83-1.09-.11-1.06a10,10,0,0,0,1.39-.09c.42,0,.82-.09,1.21-.13,0-.25.09-.5.13-.74a7.56,7.56,0,0,0,0-1.16c0-.72,1.13-.63,1.16,0a6.67,6.67,0,0,1-.08,1.06c0,.22-.07.46-.11.69q.5-.07,1-.12a1.18,1.18,0,0,1,1.41,1.34,9.46,9.46,0,0,1-.91,3.51c-.77,1.19-2.09,1.56-3.05.57-.52-.53.2-1.54.79-.89.42.45.84.27,1.26-.27a7.42,7.42,0,0,0,.77-2.76c0-.27,0-.58-.53-.51Z" transform="translate(-25.05 -275.04)"/><path class="cls-3" d="M181.76,360.88a9,9,0,0,0,4.71-4.82c.08-.19-.05-.27-.2-.26-.85.05-2.32.29-3.08.38a6.64,6.64,0,0,1-1.39.12.6.6,0,1,1,.08-1.18,10,10,0,0,0,1.35-.06c.93-.06,2.43-.31,3.67-.38.93-.06,1.36.55,1,1.22-1.16,2.37-2.58,4.8-5.67,6.07C181.19,362.41,180.8,361.23,181.76,360.88Z" transform="translate(-25.05 -275.04)"/><path class="cls-3" d="M192.32,358.49a4.86,4.86,0,0,1-.09,1.66l1.51-.1a3.22,3.22,0,0,1,.76,0c.41,0,.65.34.57.64s-.44.43-.81.35a3.35,3.35,0,0,0-.63-.05H193c-.89,0-1.95.12-2.58.18s-1,.13-1.19.13a.49.49,0,1,1,.06-1,7.57,7.57,0,0,0,1.06,0c.32,0,.65-.08,1-.1a5.3,5.3,0,0,0,.1-1c0-.25,0-.36,0-.54v-.08h-.16a5.56,5.56,0,0,1-1,.07.47.47,0,1,1,.07-.93,6.31,6.31,0,0,0,.75,0c.37,0,1.1-.09,1.58-.15a4.19,4.19,0,0,1,.78-.11c.69,0,.82.88,0,.95l-.73.06-.31,0Z" transform="translate(-25.05 -275.04)"/><path class="cls-3" d="M199.29,358.76a1.17,1.17,0,1,1,1.17-1.17A1.16,1.16,0,0,1,199.29,358.76Z" transform="translate(-25.05 -275.04)"/><path class="cls-3" d="M203.32,359.25a4.57,4.57,0,0,0,2.53-2.54A.58.58,0,0,1,207,357a6.4,6.4,0,0,1-3.19,3.32A.61.61,0,1,1,203.32,359.25Zm7.68.4a7.41,7.41,0,0,0-2.53-2.54c-.61-.33-.05-1.25.71-.82a7.8,7.8,0,0,1,2.93,2.73.68.68,0,0,1-.3.89A.57.57,0,0,1,211,359.65Zm-1.35-4c-.55-.23-.12-.89.38-.71a3.92,3.92,0,0,1,1.09.67c.43.45-.21,1.12-.58.69A3.92,3.92,0,0,0,209.65,355.67Zm1-.94c-.56-.22-.16-.88.36-.72a3.6,3.6,0,0,1,1.1.63c.44.45-.18,1.12-.55.71A4.43,4.43,0,0,0,210.64,354.73Z" transform="translate(-25.05 -275.04)"/><path class="cls-3" d="M221.45,358.14h-.57c-2.11,0-3.73.09-4.6.13l-1.09,0h-.36a.62.62,0,0,1-.64-.6c0-.27.23-.54.67-.54h.06c.41,0,.9,0,1.34,0,.91,0,3.27-.14,5.21-.19h0a.6.6,0,0,1,.67.56c0,.29-.23.58-.71.58Z" transform="translate(-25.05 -275.04)"/><path class="cls-3" d="M231,357.72a2.34,2.34,0,0,0-2.56-2.28h0a.51.51,0,0,1,.31.46V356c0,1.16-1.14,3.17-2.36,4.36a1.17,1.17,0,0,1-.83.38c-.78,0-1.49-.89-1.49-2.09a4.4,4.4,0,0,1,4.46-4,3.32,3.32,0,0,1,3.62,3.2,3.51,3.51,0,0,1-.24,1.25c-1,2.45-4,2.8-4.14,2.8a.59.59,0,0,1-.63-.55c0-.24.19-.47.61-.55C229.73,360.4,231,359.16,231,357.72Zm-3.19-2.22a3.6,3.6,0,0,0-2.76,3.05c0,.83.55.93.58.93a.27.27,0,0,0,.21-.09,6.07,6.07,0,0,0,1.76-3.42A.56.56,0,0,1,227.8,355.5Z" transform="translate(-25.05 -275.04)"/><path class="cls-3" d="M233.88,361.78a.44.44,0,0,1-.48-.42.64.64,0,0,1,.09-.3,5.11,5.11,0,0,0,.66-1.9.42.42,0,0,1,.44-.38.49.49,0,0,1,.51.48,6.57,6.57,0,0,1-.73,2.26A.58.58,0,0,1,233.88,361.78Zm1.46.23,0-3.84c-.11,0-1.23.16-1.39.16a.42.42,0,0,1-.41-.44.38.38,0,0,1,.36-.41l.49,0a9.23,9.23,0,0,0,.67-.83,10.64,10.64,0,0,0-1.25-1,.44.44,0,0,1-.21-.37.43.43,0,0,1,.43-.43.6.6,0,0,1,.32.11,7.67,7.67,0,0,0,.84-1.89.41.41,0,0,1,.43-.31.52.52,0,0,1,.56.45,9,9,0,0,1-1.11,2.26l.49.43a10.31,10.31,0,0,0,.84-1.58.43.43,0,0,1,.41-.28.53.53,0,0,1,.55.49,12.34,12.34,0,0,1-1.76,2.85c.36,0,.7-.08,1-.11-.2-.35-.22-.39-.22-.46a.4.4,0,0,1,.42-.37c.22,0,.45.16.8.88A.52.52,0,0,1,238,357a6.4,6.4,0,0,0,1.78-.75,3.31,3.31,0,0,1-1.09-1.46.51.51,0,0,1,.52-.46.36.36,0,0,1,.32.17,4.07,4.07,0,0,0,1,1.16,3.61,3.61,0,0,0,1-1.42c0-.1-.11-.15-.18-.15h-.44l-2.46,0h0a.47.47,0,0,1,0-.92h1.38l2,0c.64,0,.87.33.87.71a4.39,4.39,0,0,1-1.36,2.26,6,6,0,0,0,1.71.54.5.5,0,0,1,.42.49.55.55,0,0,1-.58.54,5.84,5.84,0,0,1-2.33-.92,6.87,6.87,0,0,1-2.4,1.1.56.56,0,0,1-.3-.09.22.22,0,0,1,0,.11.54.54,0,0,1-.5.54c-.18,0-.33-.11-.39-.36a1.42,1.42,0,0,0-.05-.22l-.53.08,0,4a.51.51,0,0,1-.53.52.48.48,0,0,1-.51-.51Zm1.66-1.5a4.32,4.32,0,0,0-.37-1.33.49.49,0,0,1,0-.19.38.38,0,0,1,.39-.35.49.49,0,0,1,.41.21,3.69,3.69,0,0,1,.56,1.55.53.53,0,0,1-.52.53A.41.41,0,0,1,237,360.51Zm.71,1.61a.45.45,0,0,1-.49-.46.46.46,0,0,1,.49-.48l2.23,0,0-1.37h-1.39a.45.45,0,0,1-.47-.47.45.45,0,0,1,.47-.47h1.39V358a.48.48,0,0,1,.51-.49.49.49,0,0,1,.53.49v.87h1.36a.47.47,0,1,1,0,.94h-1.36v1.37l2,0a.47.47,0,0,1,.51.48.46.46,0,0,1-.51.46Z" transform="translate(-25.05 -275.04)"/><path class="cls-3" d="M246.23,356.74a.52.52,0,0,1-.57.48.51.51,0,0,1-.54-.49c0-.14,0-.31,0-.48s0-.38,0-.54a1.14,1.14,0,0,1,1.28-1h.93a.56.56,0,0,1-.14-.16,3.14,3.14,0,0,0-.76-.78.4.4,0,0,1-.15-.29.55.55,0,0,1,.57-.47c.43,0,1.25.88,1.25,1.2a.6.6,0,0,1-.32.5c1,0,2,0,3,0a5.58,5.58,0,0,0,.78-1.44.51.51,0,0,1,.49-.35.6.6,0,0,1,.62.53c0,.33-.69,1.14-.8,1.28h.8a1.26,1.26,0,0,1,1.25,1.09c0,.16,0,.37,0,.56,0,.39,0,.85-.61.85-.28,0-.55-.15-.55-.45v0c0-1,0-1.14-.69-1.15l-2.87,0-2.27,0c-.59,0-.68.17-.71.55v.63Zm3.47,2.65c.74,0,1.5,0,2.22,0a1,1,0,0,1,1,.76c0,.17,0,.37,0,.58s0,.42,0,.63a1,1,0,0,1-1.08.88c-.86,0-1.69,0-2.47,0s-1.52,0-2.21,0-1.08-.38-1.1-.87c0-.15,0-.32,0-.48s0-.47,0-.66c0-.4.31-.83,1.09-.84.48,0,1,0,1.56,0,.07-.22.13-.46.17-.65h-1.06c-1.07,0-1.08-.68-1.08-1.25,0-.18,0-.36,0-.52,0-.39.3-.78,1-.8l1.66,0,1.77,0a.94.94,0,0,1,1,.73c0,.15,0,.32,0,.49s0,.35,0,.51a1,1,0,0,1-1,.84l-1.28,0A3.14,3.14,0,0,1,249.7,359.39Zm-.26,2h2c.4,0,.47-.16.47-.6s0-.59-.48-.6l-2,0-1.88,0c-.44,0-.46.21-.46.61s0,.57.47.59Zm1.8-3.94a1.7,1.7,0,0,0,0-.22c0-.3-.19-.3-1.54-.3H248.2c-.39,0-.45.19-.45.51,0,.07,0,.13,0,.21,0,.32.09.32,1.72.32s1.74,0,1.75-.32A1.55,1.55,0,0,0,251.24,357.45Zm-1.61-2.86a.4.4,0,0,1-.38-.27,3,3,0,0,0-.64-.92.4.4,0,0,1-.09-.24c0-.24.28-.44.56-.44.49,0,1.15,1,1.15,1.34A.6.6,0,0,1,249.63,354.59Z" transform="translate(-25.05 -275.04)"/><path class="cls-3" d="M257.29,362.37a4.16,4.16,0,0,0-1.36-1.16.5.5,0,0,1-.3-.45.49.49,0,0,1,.52-.48c.39,0,2.16,1,2.16,1.72a.61.61,0,0,1-.6.61A.52.52,0,0,1,257.29,362.37Z" transform="translate(-25.05 -275.04)"/><path class="cls-3" d="M262.26,357.51a.53.53,0,0,1-.56-.52c0-.26.19-.52.65-.56a7,7,0,0,0,1.8-.36c-.1-.33-.2-.62-.27-.87a3,3,0,0,0-.35-.74.52.52,0,0,1-.08-.28.59.59,0,0,1,.62-.53c.46,0,.63.39.83,1.25.05.24.14.55.24.89a8.19,8.19,0,0,0,1.18-.39,2,2,0,0,1,.71-.18c.38,0,.6.22.6.46s-.2.49-.63.6-.65.19-1,.3l-.55.16c.11.38.23.77.36,1.16l.62-.17a15.51,15.51,0,0,1,1.89-.51h.18a.53.53,0,0,1,.58.53.62.62,0,0,1-.6.63c-1.83.34-2.22.46-2.35.49.34,1,.67,1.95.91,2.62a1.41,1.41,0,0,1,.07.36.58.58,0,0,1-.54.63c-.25,0-.49-.17-.6-.55-.21-.71-.52-1.71-.84-2.75l-1.37.49a8.48,8.48,0,0,1-1.58.45.57.57,0,0,1-.6-.57.61.61,0,0,1,.56-.59c.37-.07.95-.2,1.34-.32l1.35-.43-.37-1.18a10.29,10.29,0,0,1-2.17.49Z" transform="translate(-25.05 -275.04)"/><path class="cls-3" d="M273.89,358.5c.31,1,.69,2.19,1,2.94a.56.56,0,0,1-.25.77.51.51,0,0,1-.67-.4c-.24-.78-.59-1.95-.91-3l-.63.25a4.64,4.64,0,0,1-.75.27.49.49,0,1,1-.27-.94c.35-.1.46-.12.69-.2l.68-.25c-.07-.21-.13-.4-.19-.56a4.21,4.21,0,0,0-.21-.56c-.24-.58.7-.92.91-.34.08.2.14.4.2.6s.1.33.15.53c.78-.29,1.67-.61,2.31-.8a.63.63,0,0,1,.82.84,4.23,4.23,0,0,1-1.22,1.87c-.6.53-1.24-.27-.69-.7a2.51,2.51,0,0,0,.76-.95C275.1,358.05,274.46,358.28,273.89,358.5Z" transform="translate(-25.05 -275.04)"/><path class="cls-3" d="M279.66,361.49a5.32,5.32,0,0,0,3-4.71c0-.89.05-1.23,0-1.77a5.12,5.12,0,0,0-.09-.92c-.21-.86,1.18-1,1.24,0,0,.46,0,.63,0,1s0,.6,0,.81,0,.45,0,.91a6.59,6.59,0,0,1-3.55,5.75C279.36,363,278.93,361.84,279.66,361.49Zm.36-3.38a9,9,0,0,0,.05-2.69c0-.21-.08-.43-.13-.64a.63.63,0,1,1,1.21-.24,7.49,7.49,0,0,1,.05.92c0,.43,0,1,0,1.42a6.9,6.9,0,0,1-.06,1.28C281,359.16,279.84,358.88,280,358.11Z" transform="translate(-25.05 -275.04)"/><path class="cls-3" d="M287.7,362.13c-1,.58-1.75-.53-.74-1a4.61,4.61,0,0,0,2.63-3.45,3.41,3.41,0,0,0,0-1c-.13-.68,1.11-.92,1.27-.11a3,3,0,0,1,0,.46,5.64,5.64,0,0,0,1.89-1.47c.19-.26.22-.39-.2-.37-1.39.06-3.17.3-3.67.37a8.31,8.31,0,0,1-1.51.14.58.58,0,1,1,.08-1.15,14.3,14.3,0,0,0,1.46-.09c.48,0,2.33-.21,4.11-.31,1.23-.06,1.71.87.92,1.78a7,7,0,0,1-2.77,2.12.57.57,0,0,1-.46,0A6.18,6.18,0,0,1,287.7,362.13Z" transform="translate(-25.05 -275.04)"/><path class="cls-3" d="M301.06,355.37v1.27h1.36c.65,0,1,.37,1,.88,0,.66-1,1.89-2,2.78a6.81,6.81,0,0,0,3.39.86.48.48,0,0,1,.46.53.62.62,0,0,1-.66.64,7.28,7.28,0,0,1-4.07-1.33,8.65,8.65,0,0,1-4.22,1.59.56.56,0,0,1-.56-.58.52.52,0,0,1,.52-.54,7.41,7.41,0,0,0,3.39-1.15c-.5-.46-1.45-1.57-1.45-2a.52.52,0,0,1,.55-.48.45.45,0,0,1,.41.22,6.39,6.39,0,0,0,1.36,1.63,5,5,0,0,0,1.51-1.9c0-.1-.09-.16-.26-.16h-1.19c-.92,0-2,0-3,0h0a.46.46,0,0,1-.49-.48.5.5,0,0,1,.52-.51H300v-1.29l-3.42,0a.51.51,0,0,1-.54-.51.51.51,0,0,1,.54-.51l3.42,0v-1.15a.48.48,0,0,1,.54-.46c.29,0,.57.15.57.46v1.15l3.47,0a.5.5,0,0,1,.53.51.5.5,0,0,1-.53.51Z" transform="translate(-25.05 -275.04)"/><path class="cls-3" d="M312.7,358.09c-.08.21-.14.41-.23.61l2,0a.69.69,0,0,1,.77.68.83.83,0,0,1-.09.36,4.32,4.32,0,0,1-.89,1.26,5.88,5.88,0,0,0,2,.52.45.45,0,0,1,.42.45.53.53,0,0,1-.58.52,6.17,6.17,0,0,1-2.55-.88,6.76,6.76,0,0,1-2.56,1,.45.45,0,0,1-.45-.46.42.42,0,0,1,.36-.42,5.51,5.51,0,0,0,1.92-.69,4.1,4.1,0,0,1-.88-1.16c-.91,1.61-1.91,2.38-2.32,2.38a.47.47,0,0,1-.47-.38,1.33,1.33,0,0,1-1.26.62c-.65,0-1-.15-1-.6a.47.47,0,0,1,.44-.51h.1a1.73,1.73,0,0,0,.35.05c.23,0,.45-.08.45-.37v-2.33c-.57.3-.77.41-1,.41a.53.53,0,0,1-.53-.53.49.49,0,0,1,.32-.45c.44-.19.83-.35,1.19-.52V356h-.93a.49.49,0,0,1,0-1h.93v-1.73a.51.51,0,0,1,.53-.52.49.49,0,0,1,.51.52V355h.68a.49.49,0,1,1,0,1h-.68v1.13l.39-.25a.39.39,0,0,1,.23-.07.46.46,0,0,1,.44.45c0,.25-.21.45-1.06.94,0,.73,0,1.29,0,1.46s0,1.18,0,1.56a2.62,2.62,0,0,1,0,.28l.12-.1a6.07,6.07,0,0,0,2.42-3.26h-1.16a.42.42,0,1,1,0-.83H312c.05-.2.09-.4.13-.6H311a.42.42,0,1,1,0-.84h.37a.26.26,0,0,1-.05-.09,2,2,0,0,0-.37-.58.32.32,0,0,1-.09-.21c0-.21.25-.38.48-.38s.78.66.78.92a.46.46,0,0,1-.16.35H313a.33.33,0,0,1-.26-.28,1.71,1.71,0,0,0-.26-.65.27.27,0,0,1,0-.14c0-.2.24-.33.46-.33.46,0,.68.85.68,1a.48.48,0,0,1-.4.44H314a6.48,6.48,0,0,0,.64-1.35.35.35,0,0,1,.36-.23c.27,0,.56.18.56.42a4.93,4.93,0,0,1-.6,1.15h.67a.42.42,0,1,1,0,.84h-2.49c0,.2-.08.41-.14.61h3a.42.42,0,1,1,0,.83Zm-1.89-3.64a.48.48,0,0,1-.51-.48.45.45,0,0,1,.49-.45h.57a18,18,0,0,0,3.8-.38h.13a.51.51,0,0,1,.51.49c0,.19-.12.36-.43.43A26.74,26.74,0,0,1,310.81,354.45Zm3.35,5c0-.1-.1-.11-.17-.11s-.8,0-1.41,0a3.29,3.29,0,0,0,.89,1.08A2.34,2.34,0,0,0,314.16,359.49Z" transform="translate(-25.05 -275.04)"/><path class="cls-3" d="M319.34,362.37a4.12,4.12,0,0,0-1.35-1.16.5.5,0,0,1-.3-.45.49.49,0,0,1,.52-.48c.38,0,2.15,1,2.15,1.72a.61.61,0,0,1-.6.61A.53.53,0,0,1,319.34,362.37Z" transform="translate(-25.05 -275.04)"/><path class="cls-3" d="M324.57,358.59c-.76.51-1.42-.5-.64-1a8.13,8.13,0,0,0,2.4-2.57,3.87,3.87,0,0,0,.43-.9.6.6,0,0,1,1.18.19,1.63,1.63,0,0,1-.17.48c.53-.09,1.11-.22,1.6-.25.78-.05,1.46.5,1,1.21-1.78,3-3.39,5.18-6.37,6.34-1,.37-1.38-.76-.44-1.07a10.15,10.15,0,0,0,5.41-5.17c.11-.22,0-.26-.16-.26-.44,0-1.32.2-1.76.27A11.49,11.49,0,0,1,324.57,358.59Zm5.58-4.32c-.56-.23-.12-.9.38-.71a3.88,3.88,0,0,1,1.09.66c.43.46-.21,1.13-.58.7A3.64,3.64,0,0,0,330.15,354.27Zm1-.94c-.56-.22-.16-.88.36-.72a3.6,3.6,0,0,1,1.1.63c.44.44-.18,1.12-.55.71A4.06,4.06,0,0,0,331.14,353.33Z" transform="translate(-25.05 -275.04)"/><path class="cls-3" d="M332.66,359.05a2.42,2.42,0,0,0-.59-.8c-.46-.39.18-1.08.69-.61a4.12,4.12,0,0,1,.79.95A.5.5,0,1,1,332.66,359.05Zm.06,2.2a5.77,5.77,0,0,0,3.17-3.36,1.88,1.88,0,0,0,.07-.53.55.55,0,0,1,1.1,0,1.94,1.94,0,0,1-.21.91,7,7,0,0,1-3.64,3.84C332.46,362.49,332.11,361.53,332.72,361.25Zm1.36-2.77a2.84,2.84,0,0,0-.49-.89c-.4-.44.33-1,.77-.49a3.64,3.64,0,0,1,.64,1A.49.49,0,1,1,334.08,358.48Z" transform="translate(-25.05 -275.04)"/><path class="cls-3" d="M339.68,361.55c-.81.31-1.38-.73-.43-1.05a9.49,9.49,0,0,0,4.94-4.24c.09-.18,0-.26-.1-.25-.54.06-1.8.41-2.09.48a4.87,4.87,0,0,1-1.11.19.57.57,0,1,1,0-1.14,7.29,7.29,0,0,0,1-.12c.4-.07,1.74-.42,2.66-.51s1.43.56,1.07,1.2a15.14,15.14,0,0,1-1.4,2.08,7.83,7.83,0,0,1,3,2.1.69.69,0,0,1-.1.92.56.56,0,0,1-.82-.1,9.12,9.12,0,0,0-2.79-2.14A10.32,10.32,0,0,1,339.68,361.55Zm6.68-6.18a4.16,4.16,0,0,0-.78-.79c-.5-.33.05-.9.51-.62a3.23,3.23,0,0,1,1,.83C347.38,355.31,346.63,355.86,346.36,355.37Zm1.31-.63a3.85,3.85,0,0,0-.79-.77c-.52-.31,0-.89.47-.64a3.19,3.19,0,0,1,1,.81C348.68,354.64,348,355.22,347.67,354.74Z" transform="translate(-25.05 -275.04)"/><path class="cls-3" d="M349.28,362.06a.46.46,0,0,1,.19-.36,3.36,3.36,0,0,0,1-1.31.38.38,0,0,1,.35-.24.53.53,0,0,1,.53.5c0,.32-.9,1.88-1.51,1.88A.52.52,0,0,1,349.28,362.06Zm2.2-2.1-.68,0a.91.91,0,0,1-.81-1c0-.77,0-1.8,0-2.77,0-.71,0-1.38,0-1.89a.85.85,0,0,1,.8-.95h1.42a.91.91,0,0,1,.87.91c0,.61,0,1.38,0,2.14,0,.93,0,1.85,0,2.56C353.06,359.87,352.46,360,351.48,360Zm.69-3.88h-1.29v1.06h1.29Zm0-.81c0-.29,0-.56,0-.8s-.19-.34-.62-.34-.62.07-.62.35,0,.48,0,.79ZM350.89,358c0,.31,0,.59,0,.83s.12.33.62.33.6,0,.62-.35,0-.51,0-.81Zm7.57-3.46-2.07,0-1.1,0c-.33,0-.41.18-.41.43v1h2.67c.56,0,.92.25.92.85a7.8,7.8,0,0,1-1.18,3.23,4.23,4.23,0,0,0,1.71,1.31.52.52,0,0,1,.34.48.59.59,0,0,1-.59.59c-.38,0-1.15-.42-2-1.57a4.13,4.13,0,0,1-2.17,1.64A.52.52,0,0,1,354,362a.5.5,0,0,1,.3-.46,4.78,4.78,0,0,0,1.82-1.52,8,8,0,0,1-1.05-3.18h-.24A9.91,9.91,0,0,1,353.7,362a.54.54,0,0,1-.47.26.51.51,0,0,1-.52-.45v-.05a.42.42,0,0,1-.24.07.4.4,0,0,1-.39-.31,2.33,2.33,0,0,0-.37-.81.36.36,0,0,1-.08-.23.43.43,0,0,1,.44-.39c.41,0,.77.72.88,1a.35.35,0,0,1,0,.14,8.37,8.37,0,0,0,.93-4.38c0-.81,0-1.59-.05-2.31s.37-1,1.13-1l1.77,0,1.71,0a.48.48,0,1,1,0,.95Zm-1,2.54c0-.14-.1-.23-.28-.23h-1.19a7.38,7.38,0,0,0,.75,2.33A6,6,0,0,0,357.41,357Z" transform="translate(-25.05 -275.04)"/><path class="cls-3" d="M361.09,362.5a.55.55,0,0,1-.56-.56.48.48,0,0,1,.46-.5,2.73,2.73,0,0,0,2.73-3,.48.48,0,0,1,.5-.5.51.51,0,0,1,.55.49,3.88,3.88,0,0,1-3.58,4.07Zm.93-4a.49.49,0,0,1-.54.46c-.52,0-.52-.41-.52-.81,0-.62,0-1.44,1.18-1.45s2.25,0,3.38,0,2,0,2.94,0c.6,0,1.27.31,1.29,1a3,3,0,0,1,0,.44c0,.36,0,.83-.57.83a.5.5,0,0,1-.54-.47v0c0-.88,0-.94-.6-.95l-3,0-2.39,0c-.59,0-.63.19-.64.48v.44Zm.24-2.38a.44.44,0,1,1,0-.87h2.55v-.66h-3.37a.44.44,0,1,1,0-.88h3.37v-.61a.57.57,0,0,1,1.14,0v.61h3.35a.44.44,0,0,1,0,.88H366v.66h2.52a.44.44,0,0,1,0,.87Zm3.91,1.82a.46.46,0,0,1,.51.46c0,.43,0,1.61,0,2.21s.09.75,1,.75,1.3-.31,1.3-1a.46.46,0,0,1,.51-.46.53.53,0,0,1,.59.54c0,1.56-1.09,1.84-2.49,1.84-1.19,0-2-.16-2-1.29,0-.43,0-2.29,0-2.64A.51.51,0,0,1,366.17,357.93Z" transform="translate(-25.05 -275.04)"/><path class="cls-3" d="M373.12,362.37a4.26,4.26,0,0,0-1.36-1.16.5.5,0,0,1-.3-.45.49.49,0,0,1,.52-.48c.39,0,2.15,1,2.15,1.72a.6.6,0,0,1-.59.61A.51.51,0,0,1,373.12,362.37Z" transform="translate(-25.05 -275.04)"/><path class="cls-3" d="M382.41,359.84c-.22.57-.39,1-.5,1.31a1.05,1.05,0,0,1-1,.75,1.17,1.17,0,0,1-1.05-.77c-.54-1.24-1.91-4.73-2.43-6.25a.37.37,0,0,0-.31-.27c-.42,0-.59-.24-.59-.53a.51.51,0,0,1,.53-.54h0l.75,0,.94,0h0a.53.53,0,0,1,.57.54.5.5,0,0,1-.52.53c-.12,0-.16.08-.16.17s.11.56,2,5.47c.06.17.12.27.18.27s.29-.3,1-2c-.54-1.37-1.1-2.82-1.4-3.63-.07-.19-.14-.25-.25-.26a.47.47,0,0,1-.4-.52c0-.27.14-.53.43-.53h1.44c.29,0,.43.28.43.54a.49.49,0,0,1-.33.51.12.12,0,0,0-.12.12,22.53,22.53,0,0,0,.74,2.37,24.33,24.33,0,0,0,.74-2.37c0-.08,0-.12-.14-.12a.48.48,0,0,1-.48-.52.48.48,0,0,1,.47-.53h0l.65,0,.81,0h0a.46.46,0,0,1,.46.52.49.49,0,0,1-.4.53c-.11,0-.17,0-.23.18-.41,1.06-.94,2.46-1.42,3.71.74,1.92.87,2,.94,2s.11-.09.16-.23c2-5.28,2-5.39,2-5.46a.21.21,0,0,0-.2-.2.47.47,0,0,1-.47-.53c0-.28.14-.54.44-.54h0l.82,0,1,0h0a.47.47,0,0,1,.44.53.48.48,0,0,1-.46.54.27.27,0,0,0-.3.18c-.78,2-2,5.11-2.48,6.36a1,1,0,0,1-1,.76,1.13,1.13,0,0,1-1-.78Z" transform="translate(-25.05 -275.04)"/><path class="cls-3" d="M391.59,360.75c1.77,0,1.84,0,2-.71a.56.56,0,0,1,.55-.44.6.6,0,0,1,.61.59,3.08,3.08,0,0,1-.23.72c-.22.57-.63.95-1.8.95h-2.2c-.53,0-1,0-1.43,0a.59.59,0,0,1-.66-.58.57.57,0,0,1,.6-.57h.11c.19,0,.25-.05.26-.22.05-.73.06-2.81.06-4.41v-1.17c0-.17,0-.25-.28-.25s-.71-.06-.71-.57a.57.57,0,0,1,.62-.56h0l1.09,0,2.34,0c1.36,0,1.52.5,1.75,1.33a.69.69,0,0,1,0,.24.58.58,0,0,1-.61.57.56.56,0,0,1-.58-.48c-.08-.4-.21-.56-.77-.56H391c-.22,0-.28.05-.29.29,0,.5,0,1.27,0,2,0,.11.06.15.16.15.35,0,.91,0,1.1,0s.22-.16.22-.35a.58.58,0,0,1,.58-.61.53.53,0,0,1,.54.57v0c0,.25,0,.55,0,.84s0,.68,0,.93v0a.56.56,0,0,1-1.12,0v0c0-.05,0-.1,0-.15s0-.23-.23-.23h-1.1c-.13,0-.17.06-.17.18,0,1,0,1.92,0,2.17S390.74,360.75,391.59,360.75Z" transform="translate(-25.05 -275.04)"/><path class="cls-3" d="M401.87,359.36a2.61,2.61,0,0,1-2.77,2.51l-.73,0c-.61,0-1.16,0-1.77,0H396a.57.57,0,0,1-.66-.56.58.58,0,0,1,.64-.58h0c.19,0,.22-.1.24-.24,0-.47,0-1.61,0-2.76s0-2.31,0-2.81c0-.18-.05-.25-.2-.25-.32,0-.71-.13-.71-.57a.57.57,0,0,1,.62-.56h.64c.56,0,1.07,0,1.62,0l.67,0c1.95.12,2.52,1.16,2.52,2a1.7,1.7,0,0,1-1.32,1.71c-.18,0-.19.07-.19.08s.17,0,.18,0A1.93,1.93,0,0,1,401.87,359.36Zm-1.24-.11c0-.65-.45-1.27-1.47-1.35l-.74,0c-.89,0-1,0-1,.25,0,1.89,0,2.22,0,2.4s.11.29.93.29l.82,0A1.56,1.56,0,0,0,400.63,359.25Zm-2.46-4.65c-.67,0-.75,0-.76.29s0,1.1,0,1.73c0,.19.06.23.79.23h.64a1.36,1.36,0,0,0,1.32-1.26c0-.5-.4-1-1.39-1Z" transform="translate(-25.05 -275.04)"/><path class="cls-3" d="M404.36,357.63c0,1.23,0,2.9-.05,4.48a.5.5,0,0,1-.54.49.49.49,0,0,1-.52-.47v0c.08-2,.06-5.7.08-8,0-1,.67-1.05,1.9-1.05h1.1a1,1,0,0,1,1,.85c0,.38,0,.77,0,1.14,0,1.36,0,1.61-2.24,1.61l-.77,0Zm2-3.14c0-.12,0-.23,0-.33,0-.32-.15-.33-1-.33s-1,0-1,.42c0,.07,0,.15,0,.24Zm-2,.71v.65h.84c1.09,0,1.17,0,1.18-.34,0-.1,0-.21,0-.32Zm4.82,4.56v1.8a.49.49,0,0,1-1,0v-1.8h-1a2.4,2.4,0,0,1-1.81,2.37.59.59,0,0,1-.21,0,.45.45,0,0,1-.47-.46.39.39,0,0,1,.32-.4,1.51,1.51,0,0,0,1.22-1.55h-.86c-.34,0-.49-.2-.49-.41a.46.46,0,0,1,.49-.43h.89v-.18c0-.28,0-.56,0-.81h-.67c-.34,0-.49-.2-.49-.41a.46.46,0,0,1,.49-.43h4.13a.42.42,0,1,1,0,.84h-.57v1h.89a.42.42,0,1,1,0,.84Zm-1-1.83h-.95v1h.95Zm2.19-1.29c-1.39,0-2.27,0-2.3-.93,0-.21,0-.45,0-.68s0-.76,0-1.14a.94.94,0,0,1,1-.85h2c.83,0,1.16.47,1.16.95v.82c0,1.66,0,3.47,0,4.88,0,.53,0,1,0,1.38,0,.8-.39,1.5-1.64,1.5-.75,0-1.19-.1-1.19-.61a.46.46,0,0,1,.45-.49H410a3.46,3.46,0,0,0,.6.07c.36,0,.61-.13.63-.67s0-1,0-1.47c0-.8,0-1.64,0-2.33v-.46Zm.79-2.15c0-.65,0-.66-1.05-.66s-1,0-1.06.34c0,.1,0,.21,0,.32Zm0,.71h-2.15c0,.11,0,.22,0,.32,0,.34.26.34,1.24.34h.9Z" transform="translate(-25.05 -275.04)"/><path class="cls-3" d="M422.33,359.54l-2.06,0c0,.7,0,1.3,0,1.44,0,.41.37.46.91.46.71,0,1.05-.18,1.05-.83a.48.48,0,0,1,.51-.5.57.57,0,0,1,.6.61c0,1.3-.74,1.7-2.24,1.7-.6,0-1.86,0-1.86-1.28,0-.15,0-.83,0-1.62h-1.19a3.43,3.43,0,0,1-3.11,3.05l-.18,0a.55.55,0,0,1-.58-.56.46.46,0,0,1,.4-.48c1.67-.24,2.23-1,2.41-2l-1.76,0h0a.46.46,0,0,1-.51-.48.51.51,0,0,1,.52-.53h1.84v-1.29h-.14a.49.49,0,0,1-.46-.25,5.77,5.77,0,0,1-2,1.06.53.53,0,0,1-.51-.54.51.51,0,0,1,.33-.48,7.63,7.63,0,0,0,3.54-2.94c0-.07-.07-.11-.18-.11l-1.56,0a.47.47,0,0,1,0-.93h1.56c.71,0,1.27,0,1.42.61a.38.38,0,0,1,.29.16l.45.5a5.46,5.46,0,0,0,.81-1,.44.44,0,0,1,.37-.21.6.6,0,0,1,.57.56c0,.37-.85,1.09-1.08,1.28.18.16.34.31.53.46a6.51,6.51,0,0,0,1-1,.41.41,0,0,1,.35-.19.6.6,0,0,1,.57.56c0,.25-.36.63-1.16,1.22a8.28,8.28,0,0,0,1.47.78.51.51,0,0,1,.36.47.61.61,0,0,1-.62.57,4.76,4.76,0,0,1-2-1.13v0a.48.48,0,0,1-.52.48h-.18c0,.33,0,.8,0,1.29h2.05a.51.51,0,0,1,.54.51.49.49,0,0,1-.52.5Zm-6.73-3.93a4.36,4.36,0,0,0-1-.77.39.39,0,0,1-.22-.33A.54.54,0,0,1,415,354c.44,0,1.36.78,1.39.81a.52.52,0,0,1,.14.35.6.6,0,0,1-.57.57A.42.42,0,0,1,415.6,355.61Zm4.83.67a16.89,16.89,0,0,1-1.63-1.68,11.76,11.76,0,0,1-1.49,1.68Zm-1.18,2.26c0-.49,0-1,0-1.29H418.1v1c0,.09,0,.17,0,.25Z" transform="translate(-25.05 -275.04)"/><path class="cls-3" d="M429,355a29.75,29.75,0,0,1-2.23,4.23.62.62,0,0,1-.55.33.49.49,0,0,1-.52-.47.67.67,0,0,1,.12-.38,24.47,24.47,0,0,0,1.95-3.22,3.53,3.53,0,0,1-1.39.44c-.73,0-.73-.5-.73-.54a.5.5,0,0,1,.51-.52l.22,0a.58.58,0,0,0,.19,0,4.62,4.62,0,0,0,1.56-.57c0-.27,0-.52,0-.85a.49.49,0,0,1,.52-.49.5.5,0,0,1,.53.48v.23l.12,0a.45.45,0,0,1,.44.45c0,.37-.47.66-.78.84Zm-.32,7.31c-1,0-1.85-.72-1.85-1.35s1-1.27,2.4-1.27a4.36,4.36,0,0,1,.51,0c-.08-.89-.08-.93-.08-1.05,0-.72.23-1.37,1.53-2.23.06-.05.1-.1.1-.14s-.1-.06-.15-.06a3.68,3.68,0,0,0-.7.13h-.15a.38.38,0,0,1-.42-.36c0-.29.32-.62,1.47-.62.81,0,1.78.46,1.78,1a.57.57,0,0,1-.56.5,2,2,0,0,0-2,1.82,3.74,3.74,0,0,0,.05.54c0,.22.08.45.11.68.69.21,1.76.7,1.76,1.33a.55.55,0,0,1-.51.58.65.65,0,0,1-.45-.23,3.46,3.46,0,0,0-.84-.59A2.18,2.18,0,0,1,428.65,362.32Zm.31-1.77c-.65,0-1.21.23-1.21.42s.39.44.82.44a1.12,1.12,0,0,0,1.13-.77A3.74,3.74,0,0,0,429,360.55Z" transform="translate(-25.05 -275.04)"/><path class="cls-3" d="M437,357.69c-.47-.25-.57-.61-.57-1.23,0-.18,0-.38,0-.6,0-.51,0-.91,0-1.24a5.72,5.72,0,0,0-.07-1.06.71.71,0,0,1,0-.14.47.47,0,0,1,.5-.49c.68,0,.71.64.71,1.38,0,.31,0,.7-.07,1.25,0,.34-.05.62-.05.84,0,.69.45.75.78.75.17,0,.19-.09.32-.13l.18,0a.55.55,0,0,1,.55.53.72.72,0,0,1-.41.57c-.37.23-1.25.61-1.76.88-.84.47-1.22.94-1.22,1.35s.49.92,1.63.92a3.08,3.08,0,0,0,1.53-.35.91.91,0,0,1,.52-.18.6.6,0,0,1,.63.56c0,.69-1.29,1.07-2.43,1.07-2,0-2.89-.95-2.89-1.9,0-.79.6-1.7,1.94-2.45,0,0,.29-.15.38-.21A.65.65,0,0,1,437,357.69Zm3-.87a3.63,3.63,0,0,0-.81-.75.39.39,0,0,1-.22-.32.43.43,0,0,1,.45-.39c.25,0,1.33.67,1.33,1.14a.49.49,0,0,1-.45.49A.35.35,0,0,1,440,356.82Zm1.11-.84a3.59,3.59,0,0,0-.83-.72.39.39,0,0,1-.23-.32.44.44,0,0,1,.46-.4c.22,0,1.34.65,1.34,1.12a.49.49,0,0,1-.45.49A.38.38,0,0,1,441.08,356Z" transform="translate(-25.05 -275.04)"/><path class="cls-3" d="M444.23,362.37a4.26,4.26,0,0,0-1.36-1.16.5.5,0,0,1-.3-.45.49.49,0,0,1,.52-.48c.39,0,2.15,1,2.15,1.72a.6.6,0,0,1-.59.61A.51.51,0,0,1,444.23,362.37Z" transform="translate(-25.05 -275.04)"/></g><g class="cls-2"><path class="cls-3" d="M62.49,377.58a3.84,3.84,0,0,1-.54-1.25.47.47,0,0,1,.51-.47.67.67,0,0,1,.64.53,5.93,5.93,0,0,0,.4.94l.5-.18a.81.81,0,0,1,.32-.07.5.5,0,0,1,.51.51c0,.42-.29.51-.83.66,1,1.71,1.51,2.73,1.51,3.43,0,.44-.22.62-.49.62a.85.85,0,0,1-.57-.24,5.55,5.55,0,0,0-2.55-.59c-.89,0-1.33.43-1.33.74,0,.48,1,.82,1.93.82.18,0,.36,0,.53,0h.1c.43,0,.64.26.64.53a.66.66,0,0,1-.71.63c-2.26,0-3.58-.87-3.58-1.86,0-.55.58-1.76,2.5-1.76a15.25,15.25,0,0,1,2.05.24h.1s0,0,0,0A7.09,7.09,0,0,0,63,378.49a7.79,7.79,0,0,1-1.22.17,2.56,2.56,0,0,1-2.36-1.54.5.5,0,0,1,.53-.47.68.68,0,0,1,.52.24,1.9,1.9,0,0,0,1.43.77h.21Z" transform="translate(-25.05 -275.04)"/><path class="cls-3" d="M69.81,384.55c-.93,0-1.84-.61-1.84-1.4,0-1,1.32-1.27,2.15-1.27a5.79,5.79,0,0,1,.83.06v-.19c0-.16,0-.34,0-.54s-.07-.69-.09-1.07a3.88,3.88,0,0,1-.84.11c-.21,0-1.34-.09-1.34-.83,0-.21.09-.57.82-1.21.15-.12.24-.23.24-.35,0-.3-.93-.63-1.65-.65-.4,0-.59-.23-.59-.46a.53.53,0,0,1,.6-.5c.48,0,2.31.41,2.65,1.19v-.52c0-.46,0-.89,0-1.25a.5.5,0,0,1,.51-.55.55.55,0,0,1,.57.55v0c0,.74-.11,1.79-.11,2.84v.3a1.78,1.78,0,0,0,.53-.39.58.58,0,0,1,.4-.18.54.54,0,0,1,.52.54c0,.54-.92.91-1.42,1.08,0,.42,0,.82.08,1.16s.08.73.09,1.14c.81.28,1.66.8,1.66,1.34a.59.59,0,0,1-.55.62.63.63,0,0,1-.48-.25,3.19,3.19,0,0,0-.76-.64A2.22,2.22,0,0,1,69.81,384.55Zm.14-1.82c-.78,0-1,.2-1,.41s.42.47.79.47a1.15,1.15,0,0,0,1.1-.76A3.31,3.31,0,0,0,70,382.73Zm.79-4.73a1.34,1.34,0,0,1-.35.46c-.64.51-.65.68-.65.71s.17.15.3.15a2.83,2.83,0,0,0,.75-.12C70.76,378.81,70.75,378.4,70.74,378Z" transform="translate(-25.05 -275.04)"/><path class="cls-3" d="M79.11,377.58a3.55,3.55,0,0,1-.54-1.25.47.47,0,0,1,.51-.47.67.67,0,0,1,.64.53,5.12,5.12,0,0,0,.4.94l.49-.18a.81.81,0,0,1,.32-.07.5.5,0,0,1,.52.51c0,.42-.3.51-.84.66,1,1.71,1.52,2.73,1.52,3.43,0,.44-.22.62-.49.62a.85.85,0,0,1-.57-.24,5.56,5.56,0,0,0-2.56-.59c-.88,0-1.32.43-1.32.74,0,.48,1,.82,1.93.82.18,0,.36,0,.53,0h.1c.43,0,.64.26.64.53a.66.66,0,0,1-.72.63c-2.25,0-3.58-.87-3.58-1.86,0-.55.59-1.76,2.51-1.76a15.45,15.45,0,0,1,2.05.24h.1s0,0,0,0a7.09,7.09,0,0,0-1.14-2.28,7.67,7.67,0,0,1-1.23.17,2.54,2.54,0,0,1-2.35-1.54.5.5,0,0,1,.53-.47.68.68,0,0,1,.52.24,1.88,1.88,0,0,0,1.43.77h.21Zm3-.34a3.88,3.88,0,0,0-.77-.8.42.42,0,0,1-.21-.32.44.44,0,0,1,.45-.39c.29,0,1.31.76,1.31,1.2a.51.51,0,0,1-.48.49A.34.34,0,0,1,82.1,377.24Zm1.29-.67a4.13,4.13,0,0,0-.8-.76.39.39,0,0,1-.22-.32.45.45,0,0,1,.45-.4c.36,0,1.33.72,1.33,1.17a.49.49,0,0,1-.47.49A.32.32,0,0,1,83.39,376.57Z" transform="translate(-25.05 -275.04)"/><path class="cls-3" d="M87.92,384.55c-.93,0-1.84-.61-1.84-1.4,0-1,1.32-1.27,2.15-1.27a5.79,5.79,0,0,1,.83.06v-.19c0-.16,0-.34,0-.54s-.07-.69-.09-1.07a3.88,3.88,0,0,1-.84.11c-.21,0-1.34-.09-1.34-.83,0-.21.09-.57.82-1.21.14-.12.24-.23.24-.35,0-.3-.94-.63-1.65-.65-.4,0-.59-.23-.59-.46a.53.53,0,0,1,.6-.5c.48,0,2.31.41,2.65,1.19v-.52c0-.46,0-.89,0-1.25a.5.5,0,0,1,.51-.55.55.55,0,0,1,.57.55v0c0,.74-.11,1.79-.11,2.84v.3a1.78,1.78,0,0,0,.53-.39.58.58,0,0,1,.4-.18.54.54,0,0,1,.52.54c0,.54-.92.91-1.43,1.08,0,.42.05.82.09,1.16s.08.73.09,1.14c.81.28,1.66.8,1.66,1.34a.59.59,0,0,1-.55.62.63.63,0,0,1-.48-.25,3.19,3.19,0,0,0-.76-.64A2.22,2.22,0,0,1,87.92,384.55Zm.13-1.82c-.77,0-1,.2-1,.41s.42.47.79.47a1.16,1.16,0,0,0,1.1-.76A3.33,3.33,0,0,0,88.05,382.73Zm.8-4.73a1.34,1.34,0,0,1-.35.46c-.64.51-.66.68-.66.71s.18.15.31.15a2.7,2.7,0,0,0,.74-.12C88.87,378.81,88.86,378.4,88.85,378Z" transform="translate(-25.05 -275.04)"/><path class="cls-3" d="M97.5,377.09a28.84,28.84,0,0,1-2.24,4.23.61.61,0,0,1-.55.34.5.5,0,0,1-.52-.48.79.79,0,0,1,.12-.38,23.54,23.54,0,0,0,2-3.22,3.37,3.37,0,0,1-1.39.44c-.73,0-.73-.5-.73-.54a.5.5,0,0,1,.51-.52l.22,0a.36.36,0,0,0,.18,0,4.39,4.39,0,0,0,1.56-.58c0-.26,0-.52,0-.85a.49.49,0,0,1,.52-.49.51.51,0,0,1,.53.48v.23l.12,0a.45.45,0,0,1,.44.45c0,.38-.48.67-.78.84Zm-.33,7.32c-1,0-1.84-.72-1.84-1.35s1-1.27,2.4-1.27l.51,0c-.08-.88-.08-.93-.08-1.05,0-.72.23-1.37,1.52-2.23a.18.18,0,0,0,.1-.13c0-.07-.1-.07-.14-.07a4.59,4.59,0,0,0-.71.13h-.14a.37.37,0,0,1-.42-.36c0-.29.32-.62,1.47-.62.8,0,1.78.46,1.78,1a.57.57,0,0,1-.57.5,2,2,0,0,0-2,1.82,3.5,3.5,0,0,0,0,.54c0,.22.08.46.11.69.69.21,1.76.7,1.76,1.32a.55.55,0,0,1-.51.58.66.66,0,0,1-.45-.22,3.78,3.78,0,0,0-.84-.6A2.19,2.19,0,0,1,97.17,384.41Zm.31-1.77c-.65,0-1.2.22-1.2.42s.39.43.82.43a1.09,1.09,0,0,0,1.12-.76A3.06,3.06,0,0,0,97.48,382.64Z" transform="translate(-25.05 -275.04)"/><path class="cls-3" d="M108.11,379.69a5.39,5.39,0,0,1-4.06,4.83.55.55,0,0,1-.55-.54.52.52,0,0,1,.42-.5,4.21,4.21,0,0,0,3.08-3.79h-1a.45.45,0,0,1-.48-.45v-.07c-.49.57-1.28,1.35-1.77,1.35a.59.59,0,0,1-.59-.57.57.57,0,0,1,.3-.47,5.85,5.85,0,0,0,2.18-2.47.58.58,0,0,1,.51-.35.6.6,0,0,1,.6.57,5.21,5.21,0,0,1-.9,1.54l.15,0h3.62A1.1,1.1,0,0,1,110.8,380c0,2.14-.06,4.49-2.51,4.49a4.38,4.38,0,0,1-1.09-.15.52.52,0,0,1-.38-.51.54.54,0,0,1,.53-.57l.17,0a3.33,3.33,0,0,0,.86.13c.78,0,1.33-.38,1.33-3.1v-.17c0-.31-.16-.43-.39-.43Zm-1.44-3.39h0a.5.5,0,0,1-.52-.52.49.49,0,0,1,.52-.52l1.81,0h0a1.29,1.29,0,0,1,1.29.68,7.37,7.37,0,0,0,2.8,3.24.6.6,0,0,1,.32.53.66.66,0,0,1-.65.65c-.62,0-2.29-1.58-3.32-3.75a.62.62,0,0,0-.63-.34h-.06Z" transform="translate(-25.05 -275.04)"/><path class="cls-3" d="M117.17,381.51v1c.54-.13,1-.27,1.5-.41a.7.7,0,0,1,.14,0,.41.41,0,0,1,.38.44.48.48,0,0,1-.32.44,23.28,23.28,0,0,1-4.27,1,.49.49,0,0,1-.49-.51.44.44,0,0,1,.42-.47c.57-.06,1.14-.15,1.68-.24v-1.19H114.8a.4.4,0,0,1-.42-.42.42.42,0,0,1,.43-.44h1.41v-.89l-.73,0a1,1,0,0,1-1-.91c0-.38,0-.81,0-1.25s0-.91,0-1.31a1,1,0,0,1,1.1-1c.4,0,.78,0,1.18,0s.8,0,1.18,0a.92.92,0,0,1,1,.84c0,.51.06,1,.06,1.51s0,.83,0,1.24-.4.86-1.08.91l-.66,0v.88h1.41a.4.4,0,0,1,.41.42.42.42,0,0,1-.42.44Zm-.93-5.48c-.88,0-.88,0-.88,1h.88Zm0,1.85h-.88c0,.25,0,.51,0,.74s.21.34.86.34Zm1.79-.81c0-.25,0-.49,0-.69,0-.35-.19-.35-.85-.35v1Zm-.88.81V379c.87,0,.88,0,.88-1.08Zm3.7,1.57-1.36,0h0A.43.43,0,0,1,119,379a.45.45,0,0,1,.47-.47h1.81a.47.47,0,0,1-.09-.1,2.85,2.85,0,0,0-1-.76.33.33,0,0,1-.2-.3.53.53,0,0,1,.53-.47,1.72,1.72,0,0,1,.67.27,5.88,5.88,0,0,0,.85-.91s0-.06-.08-.06c-.63,0-1.41.06-2.14.08h0a.45.45,0,0,1-.47-.47.46.46,0,0,1,.48-.47l2,0h.73c.57,0,.9.31.9.68s-.11.64-1.47,1.73c0,0,0,0,0,.05a.44.44,0,0,1,.13.3.6.6,0,0,1-.27.45H123a.86.86,0,0,1,1,.86,4.31,4.31,0,0,1-.64,1.57.68.68,0,0,1-.55.29.48.48,0,0,1-.52-.42.37.37,0,0,1,.09-.25,3.77,3.77,0,0,0,.52-1c0-.18-.17-.18-1-.18v2.09l0,1.56v0a1.4,1.4,0,0,1-1.59,1.44c-.63,0-1.11-.08-1.11-.63a.45.45,0,0,1,.42-.5h.11a2.43,2.43,0,0,0,.56.08c.36,0,.59-.14.59-.66Z" transform="translate(-25.05 -275.04)"/><path class="cls-3" d="M131.64,384h-.11c-2.4-.22-3.91-1.88-3.91-3.58a3.13,3.13,0,0,1,.79-2c0-.05.06-.08.06-.1l0,0-.12,0c-1.73.89-1.94,1-2.18,1a.59.59,0,1,1-.17-1.17c.23-.08.86-.26,1.19-.39.52-.18,1.44-.47,2.53-.9a8.46,8.46,0,0,1,2.93-.69c.55,0,.75.26.75.54,0,.57-.46.69-.88.69H132c-1.71,0-3.39,1.46-3.39,2.94a2.73,2.73,0,0,0,3,2.45c.56,0,.82.32.82.65S132.15,384,131.64,384Zm1-3.88a4.26,4.26,0,0,0-.94-.68.38.38,0,0,1-.28-.35.47.47,0,0,1,.49-.43c.14,0,1.49.51,1.49,1.08a.52.52,0,0,1-.47.52A.38.38,0,0,1,132.59,380.13Zm1.27-.92a4.27,4.27,0,0,0-1-.65.38.38,0,0,1-.29-.34.48.48,0,0,1,.49-.44c.17,0,1.5.47,1.5,1.05a.52.52,0,0,1-.47.52A.42.42,0,0,1,133.86,379.21Z" transform="translate(-25.05 -275.04)"/><path class="cls-3" d="M137.14,379.39a4.51,4.51,0,0,0-1.29-.71.35.35,0,0,1-.27-.36.55.55,0,0,1,.53-.53,4.07,4.07,0,0,1,1.62.65.55.55,0,0,1,.23.46.59.59,0,0,1-.51.61A.45.45,0,0,1,137.14,379.39Zm-.58,5a.58.58,0,0,1-.59-.54.53.53,0,0,1,.14-.33,10,10,0,0,0,1.48-2.63.45.45,0,0,1,.44-.3.53.53,0,0,1,.55.51,9.65,9.65,0,0,1-1.5,3A.63.63,0,0,1,136.56,384.38Zm1.07-7.41a4.46,4.46,0,0,0-1.11-.9.41.41,0,0,1-.21-.35.55.55,0,0,1,.55-.49c.19,0,1.7.69,1.7,1.33a.62.62,0,0,1-.56.6A.48.48,0,0,1,137.63,377Zm4.84,2.09v1.39l.83,0a1.22,1.22,0,0,1,1.29,1c0,.31,0,.64,0,1s0,.51,0,.75c0,.66-.46,1.09-1.3,1.15a12.63,12.63,0,0,1-1.33.05c-1.68,0-2.58-.06-2.63-1.16,0-.32,0-.64,0-.95s0-.52,0-.75a1.17,1.17,0,0,1,1.25-1.09l.82,0v-1.39h-2.28a.49.49,0,1,1,0-1h2.28v-1.31c-.63.08-1.62.15-1.78.15a.49.49,0,0,1-.51-.51.46.46,0,0,1,.46-.49,14,14,0,0,0,4.13-.59.52.52,0,0,1,.21,0,.49.49,0,0,1,.49.51c0,.41-.21.55-1.94.83v1.45h2.34a.49.49,0,1,1,0,1Zm1,2.72c0-.46-.23-.46-1.57-.46-.4,0-.79,0-1,0-.51,0-.51.26-.51.91,0,.24,0,.48,0,.68,0,.53.39.53,1.57.53,1.56,0,1.56,0,1.56-1.09C143.53,382.19,143.52,382,143.51,381.78Z" transform="translate(-25.05 -275.04)"/><path class="cls-3" d="M148.86,382.15l-1.47,0h0a.39.39,0,0,1-.43-.39.4.4,0,0,1,.44-.39h1.47V381c-1.62,0-1.77,0-1.77-1.57,0-1.36.31-1.37,1.78-1.37v-.45h-1.68a.4.4,0,1,1,0-.8h1.68v-.46c-.63,0-1.16,0-1.38,0a.43.43,0,0,1-.46-.44.42.42,0,0,1,.45-.42h0l.68,0a12.74,12.74,0,0,0,2.71-.31H151a.46.46,0,0,1,.46.46c0,.33-.22.44-1.68.59v.54h1.63a.41.41,0,0,1,.45.4s0,.06,0,.08a.44.44,0,0,1,.26-.07h.9v-1.72a.48.48,0,0,1,.51-.49.49.49,0,0,1,.53.49v1.72h.83a1.14,1.14,0,0,1,1.18,1.23c0,.32,0,.65,0,1,0,2.12-.2,4.87-2.25,4.87a3.11,3.11,0,0,1-1-.16.51.51,0,0,1-.36-.5.5.5,0,0,1,.48-.52.56.56,0,0,1,.21,0,2.34,2.34,0,0,0,.58.11c.48,0,1.27-.29,1.27-3.93,0-.26,0-.52,0-.76a.38.38,0,0,0-.41-.42H154c-.08,2.33-.7,4.84-2.77,6.25a.62.62,0,0,1-.37.13.52.52,0,0,1-.52-.51.51.51,0,0,1,.26-.43,5.9,5.9,0,0,0,.47-.37,31.1,31.1,0,0,1-4,.71.44.44,0,0,1-.44-.47A.4.4,0,0,1,147,383c.59,0,1.22-.1,1.83-.18Zm0-2.38H148c0,.07,0,.14,0,.19,0,.34.13.35.89.35Zm0-1.1c-.83,0-.88,0-.9.4v.11h.9Zm.91,3.46v.54c.51-.09,1-.19,1.38-.29h.1a.36.36,0,0,1,.35.3,7,7,0,0,0,1.39-4.54h-.9a.45.45,0,0,1-.47-.47.4.4,0,0,1,0-.15.53.53,0,0,1-.26.06h-1.63V378c1.44,0,1.8,0,1.8,1.41s-.22,1.54-1.8,1.54v.42l1.38,0h0a.38.38,0,0,1,.41.37.39.39,0,0,1-.42.38Zm.89-3.1c0-.36-.14-.36-.9-.36v.51h.9Zm-.9.74v.54c.69,0,.89,0,.9-.36,0-.06,0-.12,0-.18Z" transform="translate(-25.05 -275.04)"/><path class="cls-3" d="M161,384.11c-2.21,0-2.3-1.28-2.3-2.38,0-1.26.13-2.86.13-4.16a11.44,11.44,0,0,0-.06-1.26s0-.08,0-.11a.53.53,0,0,1,.57-.55.6.6,0,0,1,.62.53c0,.24,0,.5,0,.79,0,1.36-.23,3.09-.23,4.57,0,.91,0,1.46,1.14,1.46a7.62,7.62,0,0,0,2.64-.57.79.79,0,0,1,.34-.08.52.52,0,0,1,.54.53.76.76,0,0,1-.54.7A8.57,8.57,0,0,1,161,384.11Z" transform="translate(-25.05 -275.04)"/><path class="cls-3" d="M171.44,384h-.11c-2.39-.22-3.91-1.88-3.91-3.58a3.1,3.1,0,0,1,.8-2,.29.29,0,0,0,.05-.1l0,0-.11,0c-1.73.89-1.94,1-2.19,1a.59.59,0,0,1-.16-1.17c.23-.08.86-.26,1.19-.39.52-.18,1.44-.47,2.53-.9a8.46,8.46,0,0,1,2.93-.69c.55,0,.75.26.75.54,0,.57-.46.69-.88.69h-.52c-1.72,0-3.4,1.46-3.4,2.94a2.74,2.74,0,0,0,3,2.45c.55,0,.82.32.82.65S172,384,171.44,384Z" transform="translate(-25.05 -275.04)"/><path class="cls-3" d="M180.39,380.31a7.25,7.25,0,0,0,.41,1,1.82,1.82,0,0,1,.14.57.58.58,0,0,1-.62.62,2,2,0,0,1-.5-.09,7.57,7.57,0,0,0-1.94-.3c-.81,0-1.33.31-1.33.6s.49.73,1.73.73a4.26,4.26,0,0,0,.54,0H179a.51.51,0,0,1,.58.5c0,.48-.47.63-.82.63-1.76,0-3.22-.79-3.22-1.75,0-.41.4-1.53,2.52-1.53.46,0,.88,0,1.2.05h.21c.12,0,.23,0,.23-.16a5.43,5.43,0,0,0-.25-.84,5.63,5.63,0,0,1-.71,0c-.21,0-2.32,0-2.32-1.25a1,1,0,0,1,.43-.82.26.26,0,0,0,.11-.18c0-.22-.67-.6-1.21-.71-.36-.06-.53-.29-.53-.5a.53.53,0,0,1,.58-.47c.69,0,2.38,1,2.38,1.66a.72.72,0,0,1-.47.58c-.2.1-.29.2-.29.29s.63.41,1.27.41a2.12,2.12,0,0,0,.44,0,16.39,16.39,0,0,0-1.56-3.35.61.61,0,0,1-.12-.32.51.51,0,0,1,.57-.45.67.67,0,0,1,.61.38,32.11,32.11,0,0,1,1.41,3.51l.53-.17a.56.56,0,0,1,.21,0,.47.47,0,0,1,.46.51c0,.43-.31.55-.86.73Z" transform="translate(-25.05 -275.04)"/><path class="cls-3" d="M185.64,384.55c-.93,0-1.84-.61-1.84-1.4,0-1,1.32-1.27,2.15-1.27a5.79,5.79,0,0,1,.83.06v-.19c0-.16,0-.34,0-.54s-.07-.69-.09-1.07a3.88,3.88,0,0,1-.84.11c-.21,0-1.34-.09-1.34-.83,0-.21.09-.57.82-1.21.14-.12.24-.23.24-.35,0-.3-.94-.63-1.65-.65-.4,0-.59-.23-.59-.46a.53.53,0,0,1,.6-.5c.48,0,2.31.41,2.65,1.19v-.52c0-.46,0-.89,0-1.25a.5.5,0,0,1,.51-.55.55.55,0,0,1,.57.55v0c0,.74-.11,1.79-.11,2.84v.3a1.78,1.78,0,0,0,.53-.39.58.58,0,0,1,.4-.18.54.54,0,0,1,.52.54c0,.54-.92.91-1.42,1.08,0,.42,0,.82.08,1.16s.08.73.09,1.14c.81.28,1.66.8,1.66,1.34a.6.6,0,0,1-.55.62.63.63,0,0,1-.48-.25,3.19,3.19,0,0,0-.76-.64A2.22,2.22,0,0,1,185.64,384.55Zm.13-1.82c-.77,0-1,.2-1,.41s.42.47.79.47a1.16,1.16,0,0,0,1.1-.76A3.33,3.33,0,0,0,185.77,382.73Zm.8-4.73a1.34,1.34,0,0,1-.35.46c-.64.51-.66.68-.66.71s.18.15.31.15a2.7,2.7,0,0,0,.74-.12C186.59,378.81,186.58,378.4,186.57,378Z" transform="translate(-25.05 -275.04)"/><path class="cls-3" d="M194.24,384.11c-2.21,0-2.29-1.28-2.29-2.38,0-1.26.13-2.86.13-4.16a9.25,9.25,0,0,0-.07-1.26s0-.08,0-.11a.54.54,0,0,1,.58-.55.59.59,0,0,1,.61.53,6.41,6.41,0,0,1,0,.79c0,1.36-.23,3.09-.23,4.57,0,.91,0,1.46,1.13,1.46a7.56,7.56,0,0,0,2.64-.57.87.87,0,0,1,.35-.08.52.52,0,0,1,.54.53.77.77,0,0,1-.54.7A8.65,8.65,0,0,1,194.24,384.11Z" transform="translate(-25.05 -275.04)"/><path class="cls-3" d="M203.07,377.86a53.69,53.69,0,0,1-2.57,5.8.56.56,0,0,1-.53.3.52.52,0,0,1-.57-.47.57.57,0,0,1,.09-.31,34.57,34.57,0,0,0,2.39-5l-.12,0a3.35,3.35,0,0,1-.94.14c-.11,0-1,0-1-.59a.53.53,0,0,1,.49-.57.75.75,0,0,1,.33.09.57.57,0,0,0,.29.07,5,5,0,0,0,1.29-.31,4.56,4.56,0,0,0,.08-.88.55.55,0,0,1,.6-.52.46.46,0,0,1,.52.39,1.21,1.21,0,0,1,0,.19,1.55,1.55,0,0,1,0,.21l.15,0a.52.52,0,0,1,.52.51c0,.28-.2.48-1,.85Zm3.37,6.22c-1.82,0-3-1-3-1.53A.59.59,0,0,1,204,382a.52.52,0,0,1,.43.25c.42.56.78.64,2.22.74a.55.55,0,0,1,.57.55C207.19,384.08,206.61,384.08,206.44,384.08Zm.64-4.16a6.22,6.22,0,0,0-2-.51,1.11,1.11,0,0,0-.37,0l-.13,0a.44.44,0,0,1-.42-.45c0-.18.06-.59,1-.59a6.36,6.36,0,0,1,2.25.5.51.51,0,0,1,.35.48.54.54,0,0,1-.53.54A.59.59,0,0,1,207.08,379.92Z" transform="translate(-25.05 -275.04)"/><path class="cls-3" d="M210.51,384.69a1.26,1.26,0,0,1,0-2.52,1.26,1.26,0,1,1,0,2.52Zm0-2.08a.82.82,0,0,0-.84.82.84.84,0,1,0,.84-.82Z" transform="translate(-25.05 -275.04)"/></g></g></g></svg>