<svg id="レイヤー_1" data-name="レイヤー 1" xmlns="http://www.w3.org/2000/svg" viewBox="0 0 195.88 202.78"><defs><style>.cls-1{isolation:isolate;}.cls-2{fill:#040000;}</style></defs><g id="nextstage_文章" data-name="nextstage 文章" class="cls-1"><g class="cls-1"><path class="cls-2" d="M419.48,274.85h-.93a.46.46,0,0,1-.49-.48.5.5,0,0,1,.49-.52h.93V272h-1.06a.46.46,0,0,1-.49-.48.5.5,0,0,1,.49-.53h3.12a.51.51,0,0,1,0,1h-1v1.85h.83a.5.5,0,0,1,0,1h-.83V277c.32-.12.63-.25.9-.38a.57.57,0,0,1,.28-.06.49.49,0,0,1,.5.47.57.57,0,0,1-.38.49,18.54,18.54,0,0,1-3.6,1.33.52.52,0,0,1-.53-.55.53.53,0,0,1,.41-.53c.46-.12.91-.25,1.37-.39ZM420.6,281h-.15a.56.56,0,0,1-.62-.55.53.53,0,0,1,.48-.53c1.87-.25,2.85-.95,3.21-2.05a.59.59,0,0,1,1.17.11.79.79,0,0,1,0,.2C424,279.64,422.86,280.62,420.6,281Zm6.79-2.35a.46.46,0,0,1,.5-.48.54.54,0,0,1,.57.58c0,1.31-.31,2-1.88,2-1.25,0-1.45-.6-1.45-1.38s0-1.41,0-2.07c-.49,0-1,0-1.38,0a1.14,1.14,0,0,1-1.27-1.16c0-.73,0-1.54,0-2.34s0-1.33,0-2,.37-1.08,1.29-1.13c.34,0,.8,0,1.24,0s.91,0,1.27,0a1.23,1.23,0,0,1,1.3,1.12c0,.69,0,1.42,0,2.17s0,1.46,0,2.16a1.28,1.28,0,0,1-1.32,1.17h0c0,.73,0,1.42,0,2,0,.31.11.46.48.46s.69-.05.69-.95v-.12Zm-.87-6.57c0-.49-.18-.5-1.53-.5-.36,0-.7,0-.92,0a.46.46,0,0,0-.48.48v.46h2.95Zm0,1.4h-3v.93h3Zm-3,1.86c0,.19,0,.38,0,.57,0,.39.13.49,1.29.49,1.39,0,1.61,0,1.64-.5,0-.19,0-.37,0-.56Z" transform="translate(-382.13 -270.28)"/><path class="cls-2" d="M433.85,273.2a14,14,0,0,1-.83,1.47l-.13,5.69a.54.54,0,0,1-.57.54.51.51,0,0,1-.55-.52v0l.1-4.12a8.53,8.53,0,0,1-1.39,1.31.76.76,0,0,1-.47.17.55.55,0,0,1-.56-.53.6.6,0,0,1,.28-.47,10.1,10.1,0,0,0,2.89-3.52h-2.09a.52.52,0,0,1-.56-.52.54.54,0,0,1,.56-.54h2.57c.19-.48.34-1,.48-1.44a.54.54,0,0,1,.55-.42.61.61,0,0,1,.65.53,9.14,9.14,0,0,1-.46,1.33h5.11a.52.52,0,0,1,.55.52.53.53,0,0,1-.55.54Zm-.09,7.11a.5.5,0,0,1-.55-.5.53.53,0,0,1,.55-.54H436v-2.42h-1.72a.5.5,0,0,1-.55-.5.52.52,0,0,1,.55-.52H436v-1.66a.53.53,0,0,1,.56-.54.54.54,0,0,1,.58.54v1.66h1.73a.51.51,0,0,1,.56.51.52.52,0,0,1-.56.51h-1.73v2.42h2.31a.51.51,0,0,1,.53.52.5.5,0,0,1-.53.52Z" transform="translate(-382.13 -270.28)"/><path class="cls-2" d="M443.41,280.73a4.55,4.55,0,0,0-1.48-1.26.53.53,0,0,1,.24-1c.42,0,2.34,1.06,2.34,1.87a.66.66,0,0,1-.65.66A.53.53,0,0,1,443.41,280.73Z" transform="translate(-382.13 -270.28)"/><path class="cls-2" d="M452.91,275a8.57,8.57,0,0,1-4.18,5.39c-.79.4-1.58-.59-.6-1.1a7.38,7.38,0,0,0,3.49-4.12l-.85.12a13.21,13.21,0,0,1-1.51.16c-1,0-.9-1.19-.12-1.16a10.15,10.15,0,0,0,1.51-.09c.46,0,.89-.1,1.31-.15a6.59,6.59,0,0,0,.16-2.06c0-.78,1.22-.68,1.26,0a8.38,8.38,0,0,1-.09,1.16c0,.24-.07.49-.12.74.36-.05.72-.1,1.08-.13a1.28,1.28,0,0,1,1.52,1.46,10.09,10.09,0,0,1-1,3.8c-.84,1.3-2.27,1.71-3.31.63-.56-.58.22-1.67.85-1,.46.49.91.3,1.37-.29a7.77,7.77,0,0,0,.84-3c0-.29,0-.62-.58-.55Z" transform="translate(-382.13 -270.28)"/><path class="cls-2" d="M458.89,279.11a9.72,9.72,0,0,0,5.1-5.23c.09-.2-.05-.29-.21-.27-.92,0-2.52.31-3.35.4a7.14,7.14,0,0,1-1.51.14.65.65,0,1,1,.09-1.29,10.21,10.21,0,0,0,1.47-.06c1-.07,2.64-.33,4-.42,1-.06,1.48.6,1.12,1.33-1.26,2.57-2.8,5.21-6.15,6.59C458.26,280.78,457.84,279.5,458.89,279.11Z" transform="translate(-382.13 -270.28)"/><path class="cls-2" d="M470.36,276.52a5.19,5.19,0,0,1-.1,1.8l1.63-.11a5.75,5.75,0,0,1,.83,0c.44.05.71.37.62.7a.7.7,0,0,1-.88.38,3.22,3.22,0,0,0-.69-.06h-.71c-1,0-2.12.14-2.8.21s-1.05.13-1.3.13c-.77,0-.79-1.07.07-1a11.37,11.37,0,0,0,1.16-.05c.34,0,.7-.09,1.05-.11a7.66,7.66,0,0,0,.11-1.13c0-.27,0-.39-.06-.59v-.08h-.17a5.6,5.6,0,0,1-1.08.07.51.51,0,1,1,.07-1,5.65,5.65,0,0,0,.82,0c.41,0,1.2-.09,1.71-.16a4.24,4.24,0,0,1,.86-.12c.74,0,.88,1,0,1-.29,0-.5,0-.79.07l-.34,0Z" transform="translate(-382.13 -270.28)"/><path class="cls-2" d="M477.93,276.82a1.27,1.27,0,1,1,1.27-1.27A1.26,1.26,0,0,1,477.93,276.82Z" transform="translate(-382.13 -270.28)"/><path class="cls-2" d="M482.31,277.35a5,5,0,0,0,2.75-2.76.64.64,0,0,1,1.22.36,6.91,6.91,0,0,1-3.47,3.6A.65.65,0,1,1,482.31,277.35Zm8.34.43A7.9,7.9,0,0,0,487.9,275c-.66-.36,0-1.35.78-.89a8.5,8.5,0,0,1,3.18,3,.76.76,0,0,1-.33,1A.62.62,0,0,1,490.65,277.78Zm-1.47-4.32c-.6-.25-.13-1,.42-.77a4.16,4.16,0,0,1,1.18.72c.47.5-.23,1.23-.63.76A4.11,4.11,0,0,0,489.18,273.46Zm1.08-1c-.61-.24-.18-1,.39-.78a3.85,3.85,0,0,1,1.2.69c.48.48-.2,1.21-.6.76A4.54,4.54,0,0,0,490.26,272.44Z" transform="translate(-382.13 -270.28)"/><path class="cls-2" d="M502,276.14h-.62c-2.29,0-4,.1-5,.14l-1.19,0-.38,0a.66.66,0,0,1-.7-.64c0-.3.24-.59.72-.59h.07c.45,0,1,0,1.45,0,1,0,3.55-.15,5.66-.21h0a.65.65,0,0,1,.73.61c0,.32-.25.63-.77.63Z" transform="translate(-382.13 -270.28)"/><path class="cls-2" d="M512.38,275.68a2.54,2.54,0,0,0-2.78-2.47h0a.54.54,0,0,1,.34.5v.06c0,1.26-1.24,3.45-2.56,4.74a1.29,1.29,0,0,1-.9.41c-.85,0-1.62-1-1.62-2.27a4.78,4.78,0,0,1,4.84-4.38,3.61,3.61,0,0,1,3.93,3.48,3.68,3.68,0,0,1-.26,1.36c-1.06,2.66-4.32,3-4.49,3a.63.63,0,0,1-.68-.59c0-.26.2-.51.66-.59C511,278.6,512.38,277.25,512.38,275.68Zm-3.47-2.41a3.92,3.92,0,0,0-3,3.32c0,.9.59,1,.63,1a.3.3,0,0,0,.23-.1,6.56,6.56,0,0,0,1.9-3.71A.64.64,0,0,1,508.91,273.27Z" transform="translate(-382.13 -270.28)"/><path class="cls-2" d="M516.83,275.58c0,1.35,0,3.16,0,4.87a.55.55,0,0,1-.59.53.52.52,0,0,1-.56-.5v0c.08-2.21.06-6.18.08-8.71,0-1.12.73-1.14,2.09-1.14H519a1,1,0,0,1,1,.92c0,.41,0,.83,0,1.24,0,1.53,0,1.75-2.41,1.75-.34,0-.65,0-.87,0Zm2.21-3.4c0-.13,0-.25,0-.36,0-.35-.16-.36-1.08-.36s-1.08,0-1.1.46c0,.08,0,.16,0,.26Zm-2.21.77v.7c.18,0,.54,0,.92,0,1.18,0,1.27-.05,1.28-.38,0-.1,0-.22,0-.34Zm4.9,5.84v.06a1.31,1.31,0,0,1-1.5,1.36c-1.06,0-1.12-.36-1.12-.61a.47.47,0,0,1,.45-.51h.11a2.35,2.35,0,0,0,.54.08c.28,0,.46-.13.46-.6v-1.39a6.39,6.39,0,0,1-3,2.17.51.51,0,0,1-.54-.51.55.55,0,0,1,.36-.51,8.25,8.25,0,0,0,2.59-1.81h-2a.47.47,0,1,1,0-.93h2.53V275h0a.46.46,0,0,1,.5-.44.48.48,0,0,1,.53.45v.65h1.42a.45.45,0,0,1,.46.47.43.43,0,0,1-.45.46h-1.4l0,1.39Zm1.64-4.27c-1.56,0-2.43,0-2.47-1,0-.23,0-.48,0-.73,0-.41,0-.83,0-1.24a1,1,0,0,1,1-.92h2.19c.9.05,1.26.5,1.26,1v.89c0,1.8,0,3.76,0,5.3,0,.57,0,1.08,0,1.5,0,.86-.42,1.62-1.77,1.62-.82,0-1.3-.11-1.3-.66a.5.5,0,0,1,.49-.53h.1a4.13,4.13,0,0,0,.65.07c.39,0,.67-.14.68-.73s0-1,0-1.59c0-.87,0-1.78,0-2.53v-.5C524.07,274.51,523.73,274.52,523.37,274.52Zm.89-2.34c0-.71,0-.72-1.14-.72s-1.13,0-1.15.37c0,.11,0,.23,0,.35Zm0,.77H522c0,.12,0,.24,0,.34,0,.38.27.38,1.34.38.4,0,.8,0,1,0Z" transform="translate(-382.13 -270.28)"/><path class="cls-2" d="M536.68,272.87c-.91,0-2.82,0-4.42,0h-2.2c-.42,0-.58.22-.58.55,0,2.2.15,5.14-1.21,6.86a.65.65,0,0,1-.54.29.62.62,0,0,1-.63-.55.5.5,0,0,1,.1-.28,7.37,7.37,0,0,0,1.16-4.66c0-.59,0-1.18,0-1.73v0c0-1,.47-1.47,1.56-1.48l2.15,0v-.87a.62.62,0,0,1,1.24,0v.89l3.41,0a.51.51,0,0,1,.56.52.52.52,0,0,1-.56.52Zm-3,2.7v1.32c.57,0,1.12,0,1.59,0a1.18,1.18,0,0,1,1.21,1c0,.24,0,.48,0,.72s0,.49,0,.76a1.25,1.25,0,0,1-1.27,1.18c-.65,0-1.32,0-2,0s-1.27,0-1.83,0a1.19,1.19,0,0,1-1.3-1.16c0-.25,0-.47,0-.65s0-.49,0-.76a1.15,1.15,0,0,1,1.27-1.12c.34,0,.74,0,1.18,0l0-3.28a.51.51,0,0,1,.57-.51.54.54,0,0,1,.59.51l0,.93h2.89a.52.52,0,1,1,0,1Zm1.7,3.17c0-.62,0-.86-.54-.88l-1.4,0-1.73,0c-.45,0-.52.29-.52.89,0,.13,0,.26,0,.41,0,.49.23.49,2.14.49,1.7,0,2,0,2-.49A3.17,3.17,0,0,0,535.4,278.74Z" transform="translate(-382.13 -270.28)"/><path class="cls-2" d="M541,280.73a4.55,4.55,0,0,0-1.48-1.26.53.53,0,0,1,.24-1c.42,0,2.34,1.06,2.34,1.87a.66.66,0,0,1-.65.66A.53.53,0,0,1,541,280.73Z" transform="translate(-382.13 -270.28)"/></g><g class="cls-1"><path class="cls-2" d="M441.5,300a5.45,5.45,0,0,1-3.76,4.68c-1.22.42-1.5-.92-.62-1.13a4.08,4.08,0,0,0,3.18-3.5v-.14c-.69.06-1.29.14-1.84.2a16.09,16.09,0,0,1-1.83.13c-.82,0-.83-1.18.12-1.14a13,13,0,0,0,1.64,0c.51-.06,1.19-.12,1.91-.18a1.62,1.62,0,0,0,0-.32,2.45,2.45,0,0,0-.16-.8.56.56,0,0,1-.08-.26,10.72,10.72,0,0,1-2.27.4.57.57,0,1,1,0-1.12,9,9,0,0,0,3.15-.64,3.17,3.17,0,0,0,.83-.51c.57-.45,1.52.23.92.83a2.45,2.45,0,0,1-1,.54l-.54.18a.69.69,0,0,1,.23.35,3.09,3.09,0,0,1,.13.92,1.94,1.94,0,0,1,0,.33l.51-.05a21.05,21.05,0,0,1,2.14-.15c.57.05.79.32.76.68s-.36.53-.88.51a17.34,17.34,0,0,0-2,0l-.49,0Z" transform="translate(-382.13 -270.28)"/><path class="cls-2" d="M454.61,300.14H454c-2.29,0-4.05.1-5,.14l-1.19,0-.38,0a.66.66,0,0,1-.7-.64c0-.3.24-.59.72-.59h.07c.45,0,1,0,1.45,0,1,0,3.55-.15,5.66-.21h0a.65.65,0,0,1,.73.61c0,.32-.25.63-.77.63Z" transform="translate(-382.13 -270.28)"/><path class="cls-2" d="M459,303.81a9.42,9.42,0,0,1-1.87.32.67.67,0,1,1,0-1.33,4.75,4.75,0,0,0,.51,0,30.31,30.31,0,0,0,1.71-4.42,7,7,0,0,0,.27-1.5.73.73,0,1,1,1.45.08,5.7,5.7,0,0,1-.39,1.43,40.17,40.17,0,0,1-1.64,4.2c.86-.17,2.17-.43,3.29-.71a9.76,9.76,0,0,0-.95-1c-.58-.48.22-1.34.9-.74a8,8,0,0,1,2.29,2.83.7.7,0,0,1-.41.87.58.58,0,0,1-.81-.36,4.29,4.29,0,0,0-.29-.56C461.63,303.27,459.92,303.58,459,303.81Z" transform="translate(-382.13 -270.28)"/><path class="cls-2" d="M474.34,299.68a2.54,2.54,0,0,0-2.78-2.47h0a.54.54,0,0,1,.34.5v.06c0,1.26-1.24,3.45-2.56,4.74a1.29,1.29,0,0,1-.9.41c-.85,0-1.62-1-1.62-2.27a4.78,4.78,0,0,1,4.84-4.38,3.61,3.61,0,0,1,3.93,3.48,3.68,3.68,0,0,1-.26,1.36c-1.06,2.66-4.32,3-4.49,3a.63.63,0,0,1-.68-.59c0-.26.2-.51.66-.59C473,302.6,474.34,301.25,474.34,299.68Zm-3.47-2.41a3.93,3.93,0,0,0-3,3.32c0,.9.6,1,.64,1a.3.3,0,0,0,.23-.1,6.56,6.56,0,0,0,1.9-3.71A.64.64,0,0,1,470.87,297.27Z" transform="translate(-382.13 -270.28)"/><path class="cls-2" d="M478,301.7a.55.55,0,0,1-.36.13.56.56,0,0,1-.57-.51.49.49,0,0,1,.24-.39,8.42,8.42,0,0,0,2.08-2.38,8.72,8.72,0,0,0-.31-1c-1,1-1.23,1-1.41,1a.56.56,0,0,1-.57-.51.48.48,0,0,1,.27-.4,7.7,7.7,0,0,0,1.29-1.08,5.24,5.24,0,0,0-.7-1,.54.54,0,0,1,.37-.94c.21,0,.52.12,1.11,1.09a6.41,6.41,0,0,0,.55-.8.47.47,0,0,1,.41-.24.58.58,0,0,1,.58.52c0,.15-.06.4-1.06,1.51a11.8,11.8,0,0,1,.84,4.3c0,2.84-1.07,3.61-2.3,3.61-.94,0-1.11-.25-1.11-.63a.53.53,0,0,1,.48-.57l.15,0a1.65,1.65,0,0,0,.47.08,1,1,0,0,0,1-.75,5.8,5.8,0,0,0,.28-1.88,8.35,8.35,0,0,0-.06-1A10.66,10.66,0,0,1,478,301.7Zm5.66-.72-1.22,0a1.2,1.2,0,0,1-1.26-1.14c0-.26,0-.6,0-.95s0-.78,0-1.09a1.19,1.19,0,0,1,1.24-1.14c.38,0,.81,0,1.24,0v-1.65a.52.52,0,0,1,.57-.5.54.54,0,0,1,.58.5v1.65c.47,0,.94,0,1.38,0a1.17,1.17,0,0,1,1.18,1.06c0,.31,0,.69,0,1.09s0,.69,0,1a1.29,1.29,0,0,1-1.24,1.16c-.42,0-.87.05-1.33.05v1.93l1.22-.22-.49-.54a.43.43,0,0,1-.17-.33.53.53,0,0,1,.56-.48.59.59,0,0,1,.4.17,4.78,4.78,0,0,1,1.6,2.4.66.66,0,0,1-.65.62.51.51,0,0,1-.5-.4,5.81,5.81,0,0,0-.23-.6,30.92,30.92,0,0,1-5.2.85.54.54,0,0,1-.52-.58.46.46,0,0,1,.44-.52c.78,0,1.61-.09,2.41-.2Zm0-3.39c-1.4,0-1.41,0-1.41,1.2,0,.24,0,.5,0,.69,0,.48.31.49,1.4.54Zm1.13,2.43c1.21,0,1.46,0,1.5-.56,0-.16,0-.37,0-.57,0-1.07,0-1.26-.56-1.27-.29,0-.63,0-.95,0Z" transform="translate(-382.13 -270.28)"/><path class="cls-2" d="M489.82,304.32a.55.55,0,1,1,0-1.1h4.8a26.61,26.61,0,0,0,1.44-4.69.55.55,0,0,1,.56-.46.66.66,0,0,1,.7.62,30,30,0,0,1-1.54,4.53h3.37a.55.55,0,0,1,.56.56.52.52,0,0,1-.56.54Zm.73-6.57a.53.53,0,0,1-.55-.55.52.52,0,0,1,.55-.54l3.34,0v-1.62a.58.58,0,0,1,.63-.56.59.59,0,0,1,.64.56v1.62l3.25,0a.55.55,0,1,1,0,1.09Zm2.15,4.43a12.84,12.84,0,0,0-1-3.14.46.46,0,0,1-.06-.25.6.6,0,0,1,.62-.55.55.55,0,0,1,.54.35,16.77,16.77,0,0,1,1.15,3.44.65.65,0,0,1-.64.68A.57.57,0,0,1,492.7,302.18Z" transform="translate(-382.13 -270.28)"/><path class="cls-2" d="M506.31,301.2a5.09,5.09,0,0,1,0,.66.72.72,0,0,1-.64.74.51.51,0,0,1-.5-.57v-.11a5.72,5.72,0,0,0,.05-.8c-.25.13-1.36.72-1.36,1.48,0,.2.09.91,1.31.91a5.49,5.49,0,0,0,1.52-.26,1.08,1.08,0,0,1,.3,0,.58.58,0,0,1,.62.56c0,.25-.1.86-2.15.86s-2.68-1-2.68-1.9c0-1.47,1.7-2.38,2.32-2.7-.14-.47-.38-.71-.7-.71a1.14,1.14,0,0,0-.63.22c-.5.56-.8.73-1.07.73a.48.48,0,0,1-.51-.46.66.66,0,0,1,.27-.49A6.06,6.06,0,0,0,504,297.5a4.4,4.4,0,0,1-.59.05c-1.21,0-1.22-.68-1.22-.77a.51.51,0,0,1,.49-.53.74.74,0,0,1,.43.16.86.86,0,0,0,.45.09,4.56,4.56,0,0,0,.94-.13,4.44,4.44,0,0,0,.22-.95.47.47,0,0,1,.5-.42.62.62,0,0,1,.65.53,2.54,2.54,0,0,1-.07.44c.36-.18.41-.19.49-.19a.52.52,0,0,1,.52.53c0,.4-.32.64-1.56.94a12,12,0,0,1-.69,1.2,1.6,1.6,0,0,1,1.51,1.12,14,14,0,0,1,2.77-1,.64.64,0,0,1,.68.63.48.48,0,0,1-.33.46c-.37.16-.77.21-1.39.4s-1,.35-1.49.54A3.51,3.51,0,0,1,506.31,301.2Z" transform="translate(-382.13 -270.28)"/><path class="cls-2" d="M511.57,304.09a.48.48,0,0,1-.53-.45.68.68,0,0,1,.11-.33,5.65,5.65,0,0,0,.71-2.06.45.45,0,0,1,.47-.42.53.53,0,0,1,.56.53,7.12,7.12,0,0,1-.8,2.45A.61.61,0,0,1,511.57,304.09Zm1.58.26,0-4.18c-.12,0-1.35.18-1.51.18a.45.45,0,0,1-.45-.48.41.41,0,0,1,.39-.44l.54,0a11.3,11.3,0,0,0,.72-.9,11.52,11.52,0,0,0-1.36-1.1.47.47,0,0,1-.23-.4.46.46,0,0,1,.47-.46.68.68,0,0,1,.35.12,8.59,8.59,0,0,0,.91-2,.45.45,0,0,1,.47-.34.56.56,0,0,1,.61.49,10,10,0,0,1-1.21,2.45c.19.15.37.31.54.47a14,14,0,0,0,.91-1.72.45.45,0,0,1,.44-.3.58.58,0,0,1,.6.53,13.42,13.42,0,0,1-1.92,3.09c.4,0,.77-.08,1.06-.12-.22-.38-.24-.42-.24-.5a.43.43,0,0,1,.45-.4c.24,0,.5.17.88,1a.57.57,0,0,1,.38-.29,6.79,6.79,0,0,0,1.93-.81,3.62,3.62,0,0,1-1.17-1.58.56.56,0,0,1,.56-.51.41.41,0,0,1,.35.19,4.32,4.32,0,0,0,1.09,1.26,3.84,3.84,0,0,0,1.06-1.54c0-.11-.12-.16-.19-.16h-.48l-2.68,0h0a.44.44,0,0,1-.43-.49.45.45,0,0,1,.42-.5h1.5l2.2,0c.7,0,1,.36,1,.77a4.82,4.82,0,0,1-1.47,2.46,6.6,6.6,0,0,0,1.84.59.52.52,0,0,1,.46.52.59.59,0,0,1-.63.59,6.5,6.5,0,0,1-2.53-1,7.34,7.34,0,0,1-2.6,1.18.53.53,0,0,1-.32-.09.45.45,0,0,1,0,.12.58.58,0,0,1-.54.58.43.43,0,0,1-.42-.39,1.68,1.68,0,0,0-.06-.24l-.58.09,0,4.35a.55.55,0,0,1-.58.56.53.53,0,0,1-.55-.55Zm1.8-1.64a4.61,4.61,0,0,0-.4-1.43.73.73,0,0,1-.06-.22.41.41,0,0,1,.44-.37.53.53,0,0,1,.44.23,3.92,3.92,0,0,1,.6,1.68.57.57,0,0,1-.56.57A.44.44,0,0,1,515,302.71Zm.78,1.76a.51.51,0,0,1-.54-.51.5.5,0,0,1,.54-.51h2.41V302h-1.51a.49.49,0,0,1-.52-.5.5.5,0,0,1,.52-.52l1.51,0v-1a.51.51,0,0,1,.55-.53.53.53,0,0,1,.57.53v1l1.48,0a.53.53,0,0,1,.56.52.51.51,0,0,1-.56.5h-1.48v1.49h2.23a.5.5,0,0,1,.55.51.51.51,0,0,1-.55.51Z" transform="translate(-382.13 -270.28)"/><path class="cls-2" d="M530.34,304.25h-.12c-2.6-.24-4.24-2-4.24-3.89a3.4,3.4,0,0,1,.86-2.19c0-.05.06-.08.06-.11l0,0a.28.28,0,0,0-.12,0c-1.88,1-2.11,1-2.38,1a.64.64,0,0,1-.18-1.27c.26-.09.94-.29,1.3-.42.56-.21,1.56-.52,2.75-1a9.05,9.05,0,0,1,3.17-.75c.6,0,.82.28.82.59,0,.61-.5.74-1,.74h-.56c-1.86,0-3.69,1.58-3.69,3.19,0,1.44,1.37,2.66,3.25,2.66.6,0,.89.35.89.71S530.9,304.25,530.34,304.25Z" transform="translate(-382.13 -270.28)"/><path class="cls-2" d="M535.21,304.73a4.55,4.55,0,0,0-1.48-1.26.53.53,0,0,1,.24-1c.42,0,2.34,1.06,2.34,1.87a.66.66,0,0,1-.65.66A.54.54,0,0,1,535.21,304.73Z" transform="translate(-382.13 -270.28)"/></g><g class="cls-1"><path class="cls-2" d="M405.26,323.07c.06-.31-.12-.36-.35-.34-.59.06-1.09.22-1.56.29a6.6,6.6,0,0,1-1.5.18A.61.61,0,1,1,402,322a7.76,7.76,0,0,0,1.17-.08l1.45-.21a6.91,6.91,0,0,1,1.2-.15c1.14,0,1.22.84,1,1.24a21.06,21.06,0,0,0-.88,2.68l1.42-.13a4.9,4.9,0,0,1,.93,0c.54,0,.71.36.69.67s-.3.6-.9.61c-.38,0-.54,0-.86,0l-1.31.06c-1.41.06-2.83.19-3.82.28a16.6,16.6,0,0,1-1.75.09.63.63,0,1,1,.09-1.25,10.58,10.58,0,0,0,1.59,0c.66-.06,1.64-.12,2.62-.18C404.82,324.63,405.15,323.57,405.26,323.07Z" transform="translate(-382.13 -270.28)"/><path class="cls-2" d="M418.19,324.14h-.62c-2.29,0-4.05.1-5,.14l-1.19,0-.38,0a.66.66,0,0,1-.7-.64c0-.3.24-.59.72-.59h.07c.45,0,1,0,1.45,0,1,0,3.55-.15,5.66-.21h0a.65.65,0,0,1,.73.61c0,.32-.25.63-.77.63Z" transform="translate(-382.13 -270.28)"/><path class="cls-2" d="M420.87,327.84c-.89.34-1.5-.79-.47-1.14a10.32,10.32,0,0,0,5.36-4.6c.1-.19,0-.28-.1-.27-.59.06-2,.45-2.27.52a5.25,5.25,0,0,1-1.21.2.62.62,0,1,1,0-1.23,8.7,8.7,0,0,0,1.07-.13c.43-.08,1.88-.46,2.89-.56s1.54.62,1.15,1.31a17.78,17.78,0,0,1-1.51,2.26,8.29,8.29,0,0,1,3.28,2.28.72.72,0,0,1-.1,1,.6.6,0,0,1-.89-.11,9.86,9.86,0,0,0-3-2.31A11.16,11.16,0,0,1,420.87,327.84Z" transform="translate(-382.13 -270.28)"/><path class="cls-2" d="M434.84,323c1.06-.44,2.23-.92,2.89-1.15,1-.36,1.81.26,1.41,1.11a8.24,8.24,0,0,1-1.81,2.49c-.78.72-1.59-.22-.93-.83a7.71,7.71,0,0,0,1.23-1.33c.13-.21.05-.24-.14-.18-.51.17-1.69.66-2.73,1.11,0,.55,0,1.08-.08,1.68s.25.86.95,1a4.91,4.91,0,0,0,2.61-.4c1.06-.57,1.83.66.46,1.25a6.79,6.79,0,0,1-3.52.33,1.75,1.75,0,0,1-1.67-1.8c0-.5,0-1,0-1.49-.25.11-.45.21-.55.24a8.18,8.18,0,0,1-1.68.67.63.63,0,1,1-.21-1.23c.58-.15.92-.34,1.44-.51a10.71,10.71,0,0,0,1.05-.42l0-.91a7.52,7.52,0,0,0-.06-1.57c-.17-1,1.39-1.08,1.38-.07,0,.5-.06,1-.1,1.58Z" transform="translate(-382.13 -270.28)"/><path class="cls-2" d="M444.23,323.11a5,5,0,0,0-1.7-.82c-.72-.16-.42-1.36.49-1.13a7.19,7.19,0,0,1,2,.81.69.69,0,0,1,.2,1A.65.65,0,0,1,444.23,323.11Zm.52,4.52a2.7,2.7,0,0,1-1.15.38c-1,.08-1.14-1.18-.37-1.26a3.8,3.8,0,0,0,.92-.3,11.71,11.71,0,0,0,5.32-5.28c.4-.75,1.61-.25,1.08.71A13.51,13.51,0,0,1,444.75,327.63Z" transform="translate(-382.13 -270.28)"/><path class="cls-2" d="M452.43,327.84c-.89.34-1.5-.79-.47-1.14a10.32,10.32,0,0,0,5.36-4.6c.1-.19,0-.28-.1-.27-.59.06-2,.45-2.27.52a5.25,5.25,0,0,1-1.21.2.62.62,0,1,1,0-1.23,8.7,8.7,0,0,0,1.07-.13c.43-.08,1.88-.46,2.89-.56s1.54.62,1.15,1.31a16.78,16.78,0,0,1-1.51,2.26,8.29,8.29,0,0,1,3.28,2.28.72.72,0,0,1-.1,1,.6.6,0,0,1-.89-.11,9.86,9.86,0,0,0-3-2.31A11.16,11.16,0,0,1,452.43,327.84Z" transform="translate(-382.13 -270.28)"/><path class="cls-2" d="M463.66,328.33a.63.63,0,0,1-.59-.51,8.91,8.91,0,0,1-.36-2.62,13.47,13.47,0,0,1,.09-1.56c.14-1.34.42-2.53.5-3.27a.55.55,0,0,1,.55-.56.62.62,0,0,1,.63.58s0,.07,0,.1c-.09.52-.3,1.36-.47,2.23a11.22,11.22,0,0,0-.27,2.06c0,.45.08.54.1.54s.1-.07.17-.21c.33-.73.53-.87.72-.87a.52.52,0,0,1,.5.51.49.49,0,0,1-.06.23,7.49,7.49,0,0,0-1,2.36c0,.14,0,.29,0,.43A.59.59,0,0,1,463.66,328.33Zm3.9,0a1.78,1.78,0,0,1-1.86-1.5c0-.91,1.12-1.28,2.22-1.28a6.28,6.28,0,0,1,1.12.12c0-.11,0-.22,0-.34a5.56,5.56,0,0,0,0-.67c-.05-.51-.11-1.4-.14-2.34a4.46,4.46,0,0,0-2.16.88.56.56,0,0,1-.38.16.58.58,0,0,1-.56-.57c0-.26.17-.88,3.07-1.52,0-.51,0-1,0-1.37a.51.51,0,0,1,.55-.49.51.51,0,0,1,.57.46v.07c0,.33-.08.71-.09,1.11l.65-.11h.15a.55.55,0,0,1,.62.52c0,.25-.21.51-.65.57l-.78.11c0,.89.05,1.76.11,2.4a11.88,11.88,0,0,1,.09,1.33V326a4.94,4.94,0,0,1,1.38.84.66.66,0,0,1,.23.49.64.64,0,0,1-.61.67.54.54,0,0,1-.43-.21,4.24,4.24,0,0,0-.87-.7A2.76,2.76,0,0,1,467.56,328.31Zm.17-1.86c-.94,0-1,.3-1,.41s.16.44.69.44a1.74,1.74,0,0,0,1.33-.69A3.8,3.8,0,0,0,467.73,326.45Z" transform="translate(-382.13 -270.28)"/><path class="cls-2" d="M475.58,326.26c-.58.71-1.5,1.62-1.92,1.62a.53.53,0,0,1-.54-.5.5.5,0,0,1,.29-.44,8,8,0,0,0,2.1-1.9l-1.56,0h0a.47.47,0,0,1-.5-.47.45.45,0,0,1,.5-.46h1.65v-.53h0a.49.49,0,0,1,1,0h0v.53h1.5a.45.45,0,0,1,.44.48.43.43,0,0,1-.44.45h0l-1.5,0v.44a.43.43,0,0,1,.23-.08,4,4,0,0,1,1.3.64.51.51,0,0,1,.2.4.57.57,0,0,1-.53.57.42.42,0,0,1-.31-.13,5.2,5.2,0,0,0-.89-.66l0,2.25a.5.5,0,0,1-1,0Zm-1.83-3.18a.45.45,0,0,1-.47-.47.45.45,0,0,1,.47-.45H475a.62.62,0,0,1-.15-.24,2.53,2.53,0,0,0-.37-.73.43.43,0,0,1-.1-.26.5.5,0,0,1,.52-.43c.52,0,.92,1,.92,1.23a.52.52,0,0,1-.21.43h.56a8.9,8.9,0,0,0,.51-1.33.44.44,0,0,1,.44-.37.57.57,0,0,1,.59.52,4,4,0,0,1-.53,1.18h1.1a.44.44,0,0,1,.48.45.45.45,0,0,1-.48.47Zm.34-2.72a.46.46,0,0,1-.51-.46.46.46,0,0,1,.51-.46h1.44v-.69a.55.55,0,0,1,1.1,0v.69H478a.45.45,0,0,1,.49.45.46.46,0,0,1-.49.47Zm7.17,2.55h-1.21c-.05,1.93-.27,4-1.34,5.5a.73.73,0,0,1-.58.31.6.6,0,0,1-.62-.53.43.43,0,0,1,.13-.32,7.76,7.76,0,0,0,1.36-5.09c0-.6,0-1.19-.05-1.75v-.14c0-.81.3-1.15,1.1-1.39.47-.15,1.63-.63,2.08-.84a.67.67,0,0,1,.3-.08.62.62,0,0,1,.61.6.57.57,0,0,1-.39.53c-.39.18-1.73.61-2.06.71a.62.62,0,0,0-.53.67v.82l3.43,0a.53.53,0,0,1,.58.52.53.53,0,0,1-.58.52h-1.14l0,5.5a.52.52,0,0,1-.57.5.51.51,0,0,1-.55-.5Z" transform="translate(-382.13 -270.28)"/><path class="cls-2" d="M492.38,326.37v2.07a.56.56,0,0,1-1.11,0v-2.07h-1a.48.48,0,0,1-.54-.48.52.52,0,0,1,.54-.53h1v-.3l0-2.07a11.73,11.73,0,0,1-2.53,3.4.61.61,0,0,1-.43.18.56.56,0,0,1-.48-.26l0,2.12a.55.55,0,0,1-.59.55.52.52,0,0,1-.56-.54h0l.12-5.54c-.77,1-1.09,1.17-1.36,1.17a.54.54,0,0,1-.56-.52.59.59,0,0,1,.2-.42,11.08,11.08,0,0,0,2.74-4.34.53.53,0,0,1,.51-.39.66.66,0,0,1,.68.59,9.21,9.21,0,0,1-1,2.17l-.09,4.64a.59.59,0,0,1,.15-.17,10.87,10.87,0,0,0,2.92-3.73l-2,0h0a.49.49,0,0,1-.54-.5.53.53,0,0,1,.55-.54h2.34v-2a.52.52,0,0,1,.56-.52.54.54,0,0,1,.59.52v2h2.67a.51.51,0,0,1,.53.52.49.49,0,0,1-.51.52h0l-2.39,0a11.43,11.43,0,0,0,3.14,3.41.58.58,0,0,1,.25.48.6.6,0,0,1-.59.6.82.82,0,0,1-.48-.19,13,13,0,0,1-2.66-3.19l0,2.05v.31h1.06a.51.51,0,1,1,0,1Z" transform="translate(-382.13 -270.28)"/><path class="cls-2" d="M499.7,324.66c-.79,0-1,0-1,.46v.58c0,.51,0,1.12,0,1.57h0a.5.5,0,0,1-.52.5.49.49,0,0,1-.52-.5c0-.32,0-.74,0-1.18s0-.86,0-1.18c0-1.12.68-1.12,2-1.12V323h-1.95a.45.45,0,0,1-.49-.46.46.46,0,0,1,.49-.46h1.95v-1h-1c-.26.49-.47.75-.79.75a.52.52,0,0,1-.55-.46.44.44,0,0,1,.08-.26,4.49,4.49,0,0,0,.84-1.73.44.44,0,0,1,.46-.32.52.52,0,0,1,.56.45,3.29,3.29,0,0,1-.19.65h.6v-1.23a.55.55,0,0,1,1.09,0v1.23h1.56a.46.46,0,0,1,.5.45.46.46,0,0,1-.5.47h-1.56v1h2a.45.45,0,0,1,.49.46.45.45,0,0,1-.49.46h-2v.84h.91c.79,0,1.14.39,1.14,1.13,0,.35,0,1,0,1.38v.07c0,.7-.27,1.22-1.11,1.22-.57,0-.77-.14-.77-.52s.12-.48.35-.48h.06l.16,0c.16,0,.29-.07.29-.37,0,0,0-.8,0-1.15s-.29-.46-1-.46v3.61a.55.55,0,1,1-1.09,0Zm4.09-4.88a.52.52,0,0,1,.55-.54.53.53,0,0,1,.56.54v6.07a.56.56,0,0,1-1.11,0Zm3.38,7.39v0c0,.72-.48,1.55-1.94,1.55-1,0-1.39-.16-1.39-.68a.55.55,0,0,1,.51-.6h.13a4.14,4.14,0,0,0,.82.13c.36,0,.67-.13.68-.63s0-3.74,0-5.94v-1.88a.53.53,0,0,1,.57-.54.54.54,0,0,1,.58.54v6.57Z" transform="translate(-382.13 -270.28)"/><path class="cls-2" d="M510.15,327.87a7.67,7.67,0,0,1-.31-2.29,35.69,35.69,0,0,1,.67-5,.59.59,0,0,1,1.18,0,.16.16,0,0,1,0,.09,29.85,29.85,0,0,0-.78,4.28c0,.45.09.5.12.5s.06,0,.09-.09c.37-.71.45-.85.71-.85a.52.52,0,0,1,.49.5.35.35,0,0,1-.06.22,6.23,6.23,0,0,0-.9,2.25c0,.11,0,.22,0,.33a.56.56,0,0,1-.6.62A.64.64,0,0,1,510.15,327.87Zm6.67-.08c-2.08,0-3.66-1.23-3.66-1.82a.6.6,0,0,1,.63-.56.69.69,0,0,1,.53.26,3.06,3.06,0,0,0,2.33.81,7.12,7.12,0,0,0,1-.08h.14a.56.56,0,0,1,.6.58C518.41,327.59,517.89,327.79,516.82,327.79Zm-1.36-5.26a6.94,6.94,0,0,1-1.62-.18.56.56,0,0,1-.5-.54.56.56,0,0,1,.55-.56H514a6,6,0,0,0,1.17.12,11.51,11.51,0,0,0,1.47-.12h.11a.54.54,0,0,1,.57.56C517.33,322.29,517,322.53,515.46,322.53Z" transform="translate(-382.13 -270.28)"/><path class="cls-2" d="M525.76,320.65a9.55,9.55,0,0,0,4.35,6.63.62.62,0,0,1,.36.55.8.8,0,0,1-.79.76.76.76,0,0,1-.43-.14,10.77,10.77,0,0,1-4-5.34,9.18,9.18,0,0,1-4.4,5.55.78.78,0,0,1-.38.09.68.68,0,0,1-.69-.66.65.65,0,0,1,.41-.58,8.47,8.47,0,0,0,4.44-6.9c0-.45-.07-.62-.4-.62h0l-1.71.08h0a.59.59,0,0,1,0-1.17c.48,0,1,0,1.56,0h.38a1.18,1.18,0,0,1,1.31,1.06,5.37,5.37,0,0,0,.06.67h0Z" transform="translate(-382.13 -270.28)"/><path class="cls-2" d="M538.11,325.22c0-1.26-1.53-1.26-1.63-1.26a3.92,3.92,0,0,0-2.87,1.59.6.6,0,0,1-.48.24.63.63,0,0,1-.64-.57.75.75,0,0,1,.24-.5,30.46,30.46,0,0,0,3.48-4,0,0,0,0,0,0,0l-.09,0a6,6,0,0,1-2.4.88.59.59,0,0,1-.62-.59.52.52,0,0,1,.5-.53,11.94,11.94,0,0,0,3-.81,1,1,0,0,1,.43-.1.76.76,0,0,1,.79.71.86.86,0,0,1-.27.59c-.82.78-1.74,1.8-2.5,2.64a3.14,3.14,0,0,1,1.72-.49,2.32,2.32,0,0,1,2.53,2.12c0,1.6-1.66,3.14-3.73,3.14-1.44,0-2.2-.83-2.2-1.54a1.23,1.23,0,0,1,1.35-1.12,1.71,1.71,0,0,1,1.87,1.49A2.36,2.36,0,0,0,538.11,325.22Zm-3.28,1.28c-.4,0-.42.26-.42.31,0,.47.82.53,1.12.53h.08C535.58,326.82,535.31,326.5,534.83,326.5Z" transform="translate(-382.13 -270.28)"/><path class="cls-2" d="M545.64,328.27c-2.48,0-3.81-1.15-3.81-1.83a.65.65,0,0,1,.62-.65.72.72,0,0,1,.54.3,2.82,2.82,0,0,0,2.28.91,8,8,0,0,0,2-.3l.28,0a.6.6,0,0,1,.65.61.8.8,0,0,1-.68.75A7.54,7.54,0,0,1,545.64,328.27Zm.88-6.23a7.55,7.55,0,0,1-3.25-.77.67.67,0,0,1-.4-.61.53.53,0,0,1,.54-.55,1,1,0,0,1,.35.07,7.8,7.8,0,0,0,2.89.62.62.62,0,0,1,.63.61C547.28,321.73,547,322,546.52,322Z" transform="translate(-382.13 -270.28)"/><path class="cls-2" d="M553.11,323.66c-.52-.28-.62-.67-.62-1.35,0-.19,0-.4,0-.64,0-.56,0-1,0-1.35a5.47,5.47,0,0,0-.09-1.15.86.86,0,0,1,0-.15.51.51,0,0,1,.55-.53c.73,0,.77.69.77,1.5,0,.33,0,.75-.07,1.35,0,.37-.06.67-.06.91,0,.75.49.82.85.82.18,0,.2-.1.35-.15a.63.63,0,0,1,.19,0,.6.6,0,0,1,.6.57.77.77,0,0,1-.45.63c-.4.25-1.36.66-1.91,1-.92.5-1.32,1-1.32,1.46s.52,1,1.76,1a3.3,3.3,0,0,0,1.67-.39,1,1,0,0,1,.56-.19.64.64,0,0,1,.68.61c0,.75-1.4,1.17-2.63,1.17-2.18,0-3.15-1-3.15-2.07,0-.86.66-1.84,2.11-2.66l.41-.23A.69.69,0,0,1,553.11,323.66Z" transform="translate(-382.13 -270.28)"/><path class="cls-2" d="M563.73,325.2c0,.21,0,.42,0,.66a.73.73,0,0,1-.65.74.5.5,0,0,1-.49-.57v-.11a7.64,7.64,0,0,0,0-.8c-.25.13-1.36.72-1.36,1.48,0,.2.09.91,1.32.91a5.48,5.48,0,0,0,1.51-.26,1.08,1.08,0,0,1,.3,0,.58.58,0,0,1,.62.56c0,.25-.1.86-2.15.86s-2.68-1-2.68-1.9c0-1.47,1.7-2.38,2.32-2.7-.14-.47-.38-.71-.7-.71a1.14,1.14,0,0,0-.63.22c-.5.56-.8.73-1.07.73a.48.48,0,0,1-.51-.46.65.65,0,0,1,.28-.49,6.19,6.19,0,0,0,1.53-1.82,4.4,4.4,0,0,1-.59.05c-1.21,0-1.22-.68-1.22-.77a.51.51,0,0,1,.49-.53.74.74,0,0,1,.43.16.86.86,0,0,0,.45.09,4.56,4.56,0,0,0,.94-.13,4.44,4.44,0,0,0,.22-.95.47.47,0,0,1,.5-.42.61.61,0,0,1,.65.53,2.54,2.54,0,0,1-.07.44c.36-.18.41-.19.49-.19a.52.52,0,0,1,.52.53c0,.4-.32.64-1.56.94a12,12,0,0,1-.69,1.2,1.6,1.6,0,0,1,1.51,1.12,13.74,13.74,0,0,1,2.78-1,.64.64,0,0,1,.67.63.48.48,0,0,1-.33.46c-.37.16-.76.21-1.39.4s-1,.35-1.48.54A5.24,5.24,0,0,1,563.73,325.2Z" transform="translate(-382.13 -270.28)"/></g><g class="cls-1"><path class="cls-2" d="M454.78,347.3a5.17,5.17,0,0,0-1.49-.82.4.4,0,0,1-.3-.39.59.59,0,0,1,.58-.58,4.85,4.85,0,0,1,1.85.76.6.6,0,0,1,.25.5.63.63,0,0,1-.55.66A.54.54,0,0,1,454.78,347.3Zm-.9,5.36a.62.62,0,0,1-.62-.58.55.55,0,0,1,.12-.35,11.2,11.2,0,0,0,1.52-2.9.51.51,0,0,1,.49-.35.56.56,0,0,1,.58.56,11.18,11.18,0,0,1-1.5,3.27A.7.7,0,0,1,453.88,352.66Zm1.48-8a5.63,5.63,0,0,0-1.3-1,.47.47,0,0,1-.23-.37.61.61,0,0,1,.6-.54c.21,0,1.93.79,1.93,1.5a.67.67,0,0,1-.61.65A.5.5,0,0,1,455.36,344.68Zm8,3.76-3.15,0a5.56,5.56,0,0,0,3.32,3.14.58.58,0,0,1,.41.56.68.68,0,0,1-.67.67c-.58,0-2.62-1.15-3.78-3.46a5.87,5.87,0,0,1-3.92,3.6.61.61,0,0,1-.59-.61.52.52,0,0,1,.39-.5,4.8,4.8,0,0,0,3.28-3.4l-2.21,0h0a.53.53,0,0,1,0-1.06h2.4a11,11,0,0,0,.05-1.32c0-.3,0-.59,0-.86h-1.7a.49.49,0,0,1-.52-.52.51.51,0,0,1,.53-.52h1.68c0-.42,0-.83,0-1.2v0a.53.53,0,0,1,.56-.57.56.56,0,0,1,.6.56v1.23h1.13c.8,0,1.26.45,1.27,1,0,.37,0,.81,0,1.26s0,.62,0,.92h.91a.53.53,0,0,1,0,1.06Zm-2-1.06c0-.35,0-.71,0-1.05,0-.88,0-1.11-.52-1.12H460v.8a11.63,11.63,0,0,1-.08,1.38Z" transform="translate(-382.13 -270.28)"/><path class="cls-2" d="M465.5,350.94a.63.63,0,0,1-.66-.6.75.75,0,0,1,.21-.49,6,6,0,0,0,1.34-2.41A.57.57,0,0,1,467,347a.62.62,0,0,1,.65.58,7.65,7.65,0,0,1-1.48,3.06A.82.82,0,0,1,465.5,350.94Zm5.08,1.83c-1.23,0-2.31-.16-2.31-1.59s.06-3.67.09-5.51a.57.57,0,0,1,.62-.57.56.56,0,0,1,.61.54v0c-.06,1.84-.11,4-.12,5.34,0,.52.42.64,1.19.64,1,0,1.67-.08,1.67-1.39a.56.56,0,0,1,.59-.61.64.64,0,0,1,.69.69C473.61,352.77,471.83,352.77,470.58,352.77Zm.66-7.93a7.5,7.5,0,0,0-2.22-1.08.43.43,0,0,1-.33-.43.66.66,0,0,1,.63-.64,8.37,8.37,0,0,1,2.72,1.12.62.62,0,0,1,.25.49.69.69,0,0,1-.66.68A.74.74,0,0,1,471.24,344.84Zm3.49,5a8.59,8.59,0,0,0-2-2.06.54.54,0,0,1-.24-.43.59.59,0,0,1,.61-.55.65.65,0,0,1,.38.12c1.38.89,2.5,2,2.5,2.53a.72.72,0,0,1-.7.7A.63.63,0,0,1,474.73,349.79Z" transform="translate(-382.13 -270.28)"/><path class="cls-2" d="M480.78,352.36c-2.39,0-2.49-1.39-2.49-2.58,0-1.37.14-3.11.14-4.52a10.94,10.94,0,0,0-.07-1.37s0-.08,0-.12a.59.59,0,0,1,.62-.6.65.65,0,0,1,.67.58,7.64,7.64,0,0,1,0,.86c0,1.48-.25,3.36-.25,5,0,1,.05,1.58,1.23,1.58a8.46,8.46,0,0,0,2.87-.62,1,1,0,0,1,.37-.09.57.57,0,0,1,.59.58.82.82,0,0,1-.59.75A9.18,9.18,0,0,1,480.78,352.36Z" transform="translate(-382.13 -270.28)"/><path class="cls-2" d="M489.2,352.84c-1,0-2-.66-2-1.53,0-1.12,1.44-1.37,2.34-1.37a5.46,5.46,0,0,1,.9.07v-.21c0-.18,0-.37,0-.58,0-.38-.07-.76-.1-1.17a3.86,3.86,0,0,1-.91.12c-.23,0-1.45-.09-1.45-.9,0-.23.1-.62.89-1.32.15-.13.26-.25.26-.38,0-.32-1-.68-1.8-.7-.43,0-.63-.25-.63-.5a.56.56,0,0,1,.64-.54c.53,0,2.51.44,2.88,1.28v-.56c0-.49,0-1,0-1.35a.54.54,0,0,1,.55-.6.6.6,0,0,1,.62.6v0c-.06.81-.12,1.95-.12,3.09v.32a2.11,2.11,0,0,0,.58-.42.61.61,0,0,1,.43-.2.58.58,0,0,1,.56.58c0,.59-1,1-1.54,1.18,0,.45,0,.89.09,1.26s.09.79.1,1.23c.87.32,1.8.88,1.8,1.47a.65.65,0,0,1-.6.67.72.72,0,0,1-.52-.28,3.32,3.32,0,0,0-.83-.69A2.4,2.4,0,0,1,489.2,352.84Zm.14-2c-.84,0-1.1.22-1.1.44s.45.52.86.52a1.25,1.25,0,0,0,1.19-.83A3.88,3.88,0,0,0,489.34,350.86Zm.86-5.13a1.33,1.33,0,0,1-.38.5c-.69.55-.71.73-.71.77s.19.17.34.17a2.87,2.87,0,0,0,.8-.14C490.23,346.6,490.22,346.16,490.2,345.73Z" transform="translate(-382.13 -270.28)"/><path class="cls-2" d="M498.54,352.36c-2.39,0-2.49-1.39-2.49-2.58,0-1.37.14-3.11.14-4.52a10.94,10.94,0,0,0-.07-1.37s0-.08,0-.12a.59.59,0,0,1,.62-.6.65.65,0,0,1,.67.58,7.64,7.64,0,0,1,0,.86c0,1.48-.25,3.36-.25,5,0,1,.05,1.58,1.23,1.58a8.46,8.46,0,0,0,2.87-.62,1,1,0,0,1,.37-.09.57.57,0,0,1,.59.58.82.82,0,0,1-.59.75A9.18,9.18,0,0,1,498.54,352.36Z" transform="translate(-382.13 -270.28)"/><path class="cls-2" d="M508.13,345.57a56.7,56.7,0,0,1-2.78,6.3.63.63,0,0,1-.58.33.57.57,0,0,1-.62-.51.6.6,0,0,1,.1-.34,37.44,37.44,0,0,0,2.6-5.42l-.13,0a4,4,0,0,1-1,.15c-.12,0-1.06,0-1.06-.65a.57.57,0,0,1,.53-.61.76.76,0,0,1,.36.1.64.64,0,0,0,.31.07,5.3,5.3,0,0,0,1.41-.34,5.27,5.27,0,0,0,.08-.95.6.6,0,0,1,.66-.57.5.5,0,0,1,.56.43,1.41,1.41,0,0,1,0,.21,1.93,1.93,0,0,1,0,.23.41.41,0,0,1,.16,0,.57.57,0,0,1,.56.55c0,.31-.21.53-1.1.93Zm3.66,6.75c-2,0-3.26-1-3.26-1.65a.63.63,0,0,1,.59-.64.56.56,0,0,1,.46.27c.46.61.84.69,2.41.8a.6.6,0,0,1,.62.6C512.61,352.32,512,352.32,511.79,352.32Zm.7-4.51a7,7,0,0,0-2.13-.55,1.29,1.29,0,0,0-.4.05l-.14,0a.47.47,0,0,1-.45-.49c0-.19.06-.63,1.13-.63a6.81,6.81,0,0,1,2.43.54.53.53,0,0,1,.38.52.59.59,0,0,1-.57.59A.53.53,0,0,1,512.49,347.81Z" transform="translate(-382.13 -270.28)"/><path class="cls-2" d="M516.22,353a1.37,1.37,0,1,1,1.37-1.36A1.36,1.36,0,0,1,516.22,353Zm0-2.26a.9.9,0,0,0-.91.9.91.91,0,0,0,1.82,0A.89.89,0,0,0,516.22,350.73Z" transform="translate(-382.13 -270.28)"/></g><g class="cls-1"><path class="cls-2" d="M411.94,376.78c-.72,0-3.55-1.43-3.55-3.64a1.7,1.7,0,0,1,.35-1.08.27.27,0,0,0,.06-.12h0s-.8.43-1,.55a.71.71,0,0,1-.42.12.69.69,0,0,1-.72-.6c0-.21.16-.44.53-.62a4.21,4.21,0,0,0,1.34-.91,23.59,23.59,0,0,0,1.92-2.62s0,0-.05,0l-.08,0a5.26,5.26,0,0,1-1.76.59.58.58,0,0,1-.63-.57.55.55,0,0,1,.53-.54,8.65,8.65,0,0,0,2-.47,1.28,1.28,0,0,1,.52-.17.77.77,0,0,1,.81.75,1.17,1.17,0,0,1-.26.69,20.2,20.2,0,0,1-2,2.35c-.06.06-.08.1-.08.12h.1a11.23,11.23,0,0,1,3.3-.89.65.65,0,0,1,.69.65c0,.29-.17.61-1,.63a7.61,7.61,0,0,0-1.38.2,2.59,2.59,0,0,0-1.42.73,1.34,1.34,0,0,0-.42,1,2.88,2.88,0,0,0,2.5,2.44.81.81,0,0,1,.76.77A.68.68,0,0,1,411.94,376.78Z" transform="translate(-382.13 -270.28)"/><path class="cls-2" d="M416.07,374.48s.08-.1.18-.24.23-.38.35-.58a10.91,10.91,0,0,1,.91-1.3,7.24,7.24,0,0,0,.4-.78l0-.33a4.57,4.57,0,0,0-1.07.53.72.72,0,0,1-.43.16.48.48,0,0,1-.45-.52c0-.4.09-.53,2.08-1.39.1-1,.17-1.85.17-2.38a.52.52,0,0,1,.54-.56.57.57,0,0,1,.6.55c0,.36-.14,1.56-.22,2.17a.49.49,0,0,1,.28.48,4.55,4.55,0,0,1,2.71-1.54,1.28,1.28,0,0,1,1.28,1.43,2,2,0,0,1,0,.24c-.08.78-.43,2.05-.56,3.16a2,2,0,0,0,0,.4c0,.38.13.53.57.53a3.5,3.5,0,0,0,1.33-.38.84.84,0,0,1,.32-.07.53.53,0,0,1,.53.56.7.7,0,0,1-.44.65,4.47,4.47,0,0,1-1.72.37c-.92,0-1.73-.3-1.73-1.51a3.5,3.5,0,0,1,.05-.54c.17-1.09.49-2.35.54-3.13v-.13c0-.4-.14-.54-.36-.54-.63,0-2,1.32-3,2.51-.05.64-.08,1.29-.08,1.9a9.8,9.8,0,0,0,.12,1.69.57.57,0,0,1,0,.13.62.62,0,0,1-.63.63c-.64,0-.65-.71-.65-1.57,0-.42,0-.88.05-1.37-.27.43-.52.93-.74,1.35a1,1,0,0,1-.84.63.45.45,0,0,1-.48-.45,1.28,1.28,0,0,1,.36-.69Z" transform="translate(-382.13 -270.28)"/><path class="cls-2" d="M428.38,376.33a.63.63,0,0,1-.59-.51,8.91,8.91,0,0,1-.36-2.62,13.47,13.47,0,0,1,.09-1.56c.14-1.34.42-2.53.5-3.27a.55.55,0,0,1,.55-.56.62.62,0,0,1,.63.58s0,.07,0,.1c-.09.52-.3,1.36-.47,2.23a11.22,11.22,0,0,0-.27,2.06c0,.45.08.54.1.54s.1-.07.17-.21c.33-.73.53-.87.72-.87a.52.52,0,0,1,.5.51.49.49,0,0,1-.06.23,7.49,7.49,0,0,0-.95,2.36c0,.14,0,.29,0,.43A.59.59,0,0,1,428.38,376.33Zm3.9,0a1.78,1.78,0,0,1-1.86-1.5c0-.91,1.12-1.28,2.22-1.28a6.08,6.08,0,0,1,1.11.12,1.88,1.88,0,0,0,0-.34c0-.2,0-.42,0-.67-.05-.51-.11-1.4-.14-2.34a4.46,4.46,0,0,0-2.16.88.57.57,0,0,1-.39.16.58.58,0,0,1-.55-.57c0-.26.17-.88,3.07-1.52,0-.51,0-1,0-1.37a.56.56,0,0,1,1.11,0v.07c0,.33-.07.71-.08,1.11l.65-.11h.15a.55.55,0,0,1,.62.52c0,.25-.21.51-.65.57l-.78.11c0,.89.05,1.76.11,2.4,0,.44.09.89.09,1.33V374a4.94,4.94,0,0,1,1.38.84.66.66,0,0,1,.23.49.64.64,0,0,1-.61.67.54.54,0,0,1-.43-.21,4.24,4.24,0,0,0-.87-.7A2.76,2.76,0,0,1,432.28,376.31Zm.17-1.86c-.94,0-1,.3-1,.41s.16.44.69.44a1.74,1.74,0,0,0,1.33-.69A3.8,3.8,0,0,0,432.45,374.45Z" transform="translate(-382.13 -270.28)"/><path class="cls-2" d="M440.91,371.2a.33.33,0,0,1-.31.36.34.34,0,0,1-.33-.35c0-.54,0-1,0-1.48,0-.8,0-1.49,0-2.23a1.33,1.33,0,0,1,1.36-1.43h.59l1.22,0a.31.31,0,1,1,0,.62h0c-.07,0-.4,0-1.65,0a.81.81,0,0,0-.85.88c0,.47,0,.95,0,1.48s0,1.34,0,2.16Z" transform="translate(-382.13 -270.28)"/><path class="cls-2" d="M447.34,373.71c0,.57.23.85.94,1a7.58,7.58,0,0,0,3.27-.42c1-.57,1.8.68.44,1.28a9.51,9.51,0,0,1-4.16.32,1.71,1.71,0,0,1-1.66-1.78c0-1.19.07-2.13.13-3.53a8.08,8.08,0,0,0-.07-1.51.68.68,0,1,1,1.34,0,9.29,9.29,0,0,1-.05,1.5c0,.3,0,.57,0,.83a12.07,12.07,0,0,0,2.2-.64,3.7,3.7,0,0,0,1-.56c.64-.54,1.7.26,1,1a3.6,3.6,0,0,1-1.22.62,17.41,17.41,0,0,1-3.11.84C447.38,372.9,447.37,373.28,447.34,373.71Zm4.21-4.33c-.6-.25-.13-1,.42-.77a4.07,4.07,0,0,1,1.18.72c.46.49-.23,1.22-.63.76A3.85,3.85,0,0,0,451.55,369.38Zm1.08-1c-.61-.24-.18-1,.38-.78a3.79,3.79,0,0,1,1.2.68c.48.48-.19,1.21-.6.77A4.24,4.24,0,0,0,452.63,368.36Z" transform="translate(-382.13 -270.28)"/><path class="cls-2" d="M456.09,373.35a5,5,0,0,0,2.75-2.76.64.64,0,0,1,1.22.36,6.87,6.87,0,0,1-3.47,3.6A.65.65,0,1,1,456.09,373.35Zm8.34.43a7.9,7.9,0,0,0-2.75-2.76c-.66-.36-.05-1.35.78-.89a8.5,8.5,0,0,1,3.18,3,.76.76,0,0,1-.33,1A.62.62,0,0,1,464.43,373.78ZM463,369.46c-.6-.25-.13-1,.42-.77a4.3,4.3,0,0,1,1.18.72c.47.5-.23,1.23-.63.76A4.11,4.11,0,0,0,463,369.46Zm1.08-1c-.61-.24-.18-1,.39-.78a3.85,3.85,0,0,1,1.2.69c.48.48-.2,1.21-.6.76A4.54,4.54,0,0,0,464,368.44Z" transform="translate(-382.13 -270.28)"/><path class="cls-2" d="M469.83,375.57c-.86.35-1.33-.18-1.16-.77a21.17,21.17,0,0,0,.31-4.09,3.57,3.57,0,0,0-.1-.74.84.84,0,0,1,0-.6.76.76,0,0,1,1.35.12,3.47,3.47,0,0,1,.07,1.16c0,.49-.17,2.45-.18,2.87s0,.45.34.26a13.26,13.26,0,0,0,4.5-4,.66.66,0,1,1,1.12.71A15.83,15.83,0,0,1,469.83,375.57Z" transform="translate(-382.13 -270.28)"/><path class="cls-2" d="M478.94,373.13a2.87,2.87,0,0,0-.65-.87c-.49-.42.2-1.17.76-.66a4.58,4.58,0,0,1,.85,1A.54.54,0,1,1,478.94,373.13Zm.06,2.39a6.26,6.26,0,0,0,3.44-3.65,1.87,1.87,0,0,0,.08-.57.6.6,0,0,1,1.19,0,2.11,2.11,0,0,1-.23,1,7.65,7.65,0,0,1-3.94,4.18C478.72,376.86,478.34,375.82,479,375.52Zm1.47-3a2.87,2.87,0,0,0-.53-1c-.43-.48.36-1.12.84-.54a4.3,4.3,0,0,1,.7,1.13A.54.54,0,1,1,480.47,372.51Z" transform="translate(-382.13 -270.28)"/><path class="cls-2" d="M488.18,372.56a4.38,4.38,0,0,0-1.49-.62c-.72-.11-.48-1.25.4-1.09a6.52,6.52,0,0,1,1.75.61.63.63,0,0,1,.25.89A.61.61,0,0,1,488.18,372.56Zm-.06,3.69c-1,.12-1.16-1.13-.4-1.25a4,4,0,0,0,.93-.3,13.32,13.32,0,0,0,5.48-5.5c.41-.76,1.6-.23,1.05.72a15.06,15.06,0,0,1-5.9,5.92A2.73,2.73,0,0,1,488.12,376.25Zm1.51-5.83a4.37,4.37,0,0,0-1.32-.92c-.67-.28-.18-1.34.64-1a6.61,6.61,0,0,1,1.57,1,.63.63,0,0,1,.05.92A.62.62,0,0,1,489.63,370.42Zm2.55-2.16c-.6-.25-.13-1,.42-.76a4,4,0,0,1,1.18.71c.47.5-.23,1.23-.62.76A4.39,4.39,0,0,0,492.18,368.26Zm1.08-1c-.61-.24-.18-1,.39-.78a3.85,3.85,0,0,1,1.2.69c.48.48-.19,1.21-.6.77A4.57,4.57,0,0,0,493.26,367.24Z" transform="translate(-382.13 -270.28)"/><path class="cls-2" d="M498.54,371.58c0,1.35,0,3.16-.05,4.87a.55.55,0,0,1-.59.53.52.52,0,0,1-.56-.5v0c.08-2.21.06-6.18.08-8.71,0-1.11.73-1.14,2.06-1.14h1.2a1,1,0,0,1,1.11.92c0,.41,0,.83,0,1.24,0,1.47,0,1.75-2.44,1.75-.32,0-.62,0-.83,0Zm2.2-3.4c0-.13,0-.25,0-.36,0-.35-.16-.36-1.08-.36s-1.08,0-1.1.46c0,.08,0,.16,0,.26Zm-2.2.77v.7c.17,0,.53,0,.91,0,1.18,0,1.27-.05,1.28-.38,0-.1,0-.22,0-.34Zm5.24,4.95v2a.5.5,0,0,1-.53.51.5.5,0,0,1-.53-.51v-2h-1.07a2.62,2.62,0,0,1-2,2.58l-.23,0a.47.47,0,0,1-.5-.49.43.43,0,0,1,.34-.44,1.63,1.63,0,0,0,1.32-1.68h-.93c-.36,0-.53-.22-.53-.44a.49.49,0,0,1,.53-.47h1v-.19c0-.32,0-.62,0-.89h-.73a.47.47,0,0,1-.53-.45.5.5,0,0,1,.53-.46h4.49a.46.46,0,1,1,0,.91h-.61V373h1a.46.46,0,1,1,0,.91Zm-1.06-2h-1V373h1Zm2.38-1.39c-1.52,0-2.46,0-2.5-1,0-.23,0-.48,0-.73,0-.41,0-.83,0-1.24a1,1,0,0,1,1.08-.92h2.14c.9.05,1.26.5,1.26,1v.89c0,1.8,0,3.76,0,5.3,0,.57,0,1.08,0,1.5,0,.86-.42,1.62-1.77,1.62-.82,0-1.3-.11-1.3-.66a.5.5,0,0,1,.49-.53h.1a4.13,4.13,0,0,0,.65.07c.39,0,.67-.14.68-.73s0-1,0-1.59c0-.87,0-1.78,0-2.53v-.5C505.77,370.51,505.44,370.52,505.1,370.52Zm.86-2.34c0-.71,0-.72-1.14-.72s-1.13,0-1.15.37c0,.11,0,.23,0,.35Zm0,.77h-2.32c0,.12,0,.24,0,.34,0,.38.27.38,1.34.38.4,0,.8,0,1,0Z" transform="translate(-382.13 -270.28)"/><path class="cls-2" d="M518.07,373.66l-2.25,0c0,.76,0,1.41,0,1.57,0,.44.41.49,1,.49.77,0,1.14-.19,1.14-.9a.51.51,0,0,1,.55-.54.61.61,0,0,1,.65.66c0,1.41-.81,1.85-2.44,1.85-.65,0-2,0-2-1.39,0-.16,0-.9,0-1.76h-1.3c-.21,1.47-1,2.82-3.37,3.31l-.2,0a.58.58,0,0,1-.62-.6.5.5,0,0,1,.43-.53c1.81-.25,2.42-1.11,2.61-2.2l-1.9,0h0a.5.5,0,0,1-.55-.52.55.55,0,0,1,.57-.57h2v-1.4h-.15a.52.52,0,0,1-.5-.28,6.21,6.21,0,0,1-2.16,1.15.58.58,0,0,1-.55-.59.55.55,0,0,1,.36-.51,8.35,8.35,0,0,0,3.84-3.19c0-.09-.08-.12-.2-.12l-1.69,0a.48.48,0,0,1-.5-.5.49.49,0,0,1,.5-.52H513c.77,0,1.38,0,1.54.68a.43.43,0,0,1,.32.16c.16.18.31.36.48.54a6,6,0,0,0,.89-1,.45.45,0,0,1,.4-.23.65.65,0,0,1,.62.6c0,.41-.92,1.19-1.18,1.39l.58.51a6.74,6.74,0,0,0,1.1-1.11.47.47,0,0,1,.39-.2.67.67,0,0,1,.62.61c0,.26-.4.68-1.26,1.32a8.76,8.76,0,0,0,1.6.85.56.56,0,0,1,.38.51.65.65,0,0,1-.67.62,5.3,5.3,0,0,1-2.2-1.22v0a.52.52,0,0,1-.56.53h-.19c0,.36,0,.86,0,1.4h2.23a.53.53,0,0,1,.57.55.52.52,0,0,1-.56.54Zm-7.32-4.27a5,5,0,0,0-1-.83.41.41,0,0,1-.24-.36.59.59,0,0,1,.6-.53c.48,0,1.47.86,1.51.89a.54.54,0,0,1,.15.37.65.65,0,0,1-.62.63A.47.47,0,0,1,510.75,369.39Zm5.25.73a18.62,18.62,0,0,1-1.77-1.82,12.55,12.55,0,0,1-1.62,1.82Zm-1.28,2.46c0-.54,0-1,0-1.4h-1.26v1.12c0,.1,0,.18,0,.28Z" transform="translate(-382.13 -270.28)"/><path class="cls-2" d="M523.73,371.92a.32.32,0,1,1,.64,0c0,.54,0,1,0,1.49,0,.79,0,1.48,0,2.23a1.32,1.32,0,0,1-1.36,1.42,5.72,5.72,0,0,1-.58,0c-.42,0-.8,0-1.23,0a.29.29,0,0,1-.32-.31.3.3,0,0,1,.31-.31h.05c.07,0,.41,0,1.65,0a.81.81,0,0,0,.85-.88c0-.47,0-.95,0-1.48s0-1.34,0-2.16Z" transform="translate(-382.13 -270.28)"/><path class="cls-2" d="M535.14,376.25H535c-2.6-.24-4.24-2-4.24-3.89a3.4,3.4,0,0,1,.86-2.19c0-.05.06-.08.06-.11a0,0,0,0,0,0,0,.28.28,0,0,0-.12,0c-1.89,1-2.11,1-2.38,1a.64.64,0,0,1-.18-1.27c.25-.09.94-.29,1.3-.42.56-.21,1.56-.52,2.74-1a9.16,9.16,0,0,1,3.18-.75c.6,0,.82.28.82.59,0,.61-.5.74-1,.74h-.56c-1.86,0-3.69,1.58-3.69,3.19,0,1.44,1.37,2.66,3.25,2.66.6,0,.89.35.89.71S535.7,376.25,535.14,376.25Zm1-4.21a4.46,4.46,0,0,0-1-.74.41.41,0,0,1-.3-.38.5.5,0,0,1,.52-.46c.16,0,1.62.55,1.62,1.17a.58.58,0,0,1-.51.57A.43.43,0,0,1,536.17,372Zm1.38-1a4,4,0,0,0-1-.7c-.22-.09-.31-.23-.31-.37a.52.52,0,0,1,.53-.48c.19,0,1.63.51,1.63,1.14a.56.56,0,0,1-.51.56A.45.45,0,0,1,537.55,371Z" transform="translate(-382.13 -270.28)"/><path class="cls-2" d="M544.65,374.24a1.88,1.88,0,0,1-1.75-1.95,1.34,1.34,0,0,1,1.38-1.41,2.08,2.08,0,0,1,.55.07c0-.4-.06-.76-.08-1.09a16.85,16.85,0,0,0-4.41.95.93.93,0,0,1-.22,0,.59.59,0,0,1-.58-.6.67.67,0,0,1,.56-.64,26.73,26.73,0,0,1,4.6-.82v-.38c0-1.06,0-1.62.66-1.62a.62.62,0,0,1,.66.56.22.22,0,0,1,0,.11,8.11,8.11,0,0,0-.15,1.23c1-.06,1.93-.08,2.9-.08.5,0,.76.3.76.6a.65.65,0,0,1-.71.6h-.06c-.59,0-1.19-.05-1.79-.05-.37,0-.74,0-1.11,0,0,.81.07,1.57.08,1.72a2,2,0,0,1,.64,1.43,2.42,2.42,0,0,1-.39,1.21,5.88,5.88,0,0,1-4.15,2.71.6.6,0,0,1-.66-.57c0-.24.17-.5.58-.58a4.91,4.91,0,0,0,2.82-1.47Zm-.2-2.39a.51.51,0,0,0-.54.54.85.85,0,0,0,.75.87.52.52,0,0,0,.52-.51s0-.06,0-.1a1.5,1.5,0,0,0-.09-.39A.76.76,0,0,0,544.45,371.85Z" transform="translate(-382.13 -270.28)"/><path class="cls-2" d="M550.3,377a1.37,1.37,0,1,1,1.37-1.36A1.36,1.36,0,0,1,550.3,377Zm0-2.26a.9.9,0,0,0-.91.9.91.91,0,1,0,1.82,0A.89.89,0,0,0,550.3,374.73Z" transform="translate(-382.13 -270.28)"/></g><g class="cls-1"><path class="cls-2" d="M412.07,416v.17c0,.26-.26.39-.53.39s-.57-.14-.57-.39V416h-1.49v.17c0,.26-.26.39-.53.39s-.56-.14-.56-.39V416h-2.65a.45.45,0,0,1-.51-.45.49.49,0,0,1,.51-.49h2.65v-.39c0-.26.26-.39.54-.39s.55.13.55.39V415H411v-.39c0-.27.27-.4.55-.4s.55.13.55.4V415h2.75a.46.46,0,0,1,.49.46.47.47,0,0,1-.49.48Zm1.88,5.61c0-1,0-1.06-.74-1.08l-2.78,0a.38.38,0,0,1,.08.23.53.53,0,0,1-.2.38l1.86,0c.64,0,.93.31.93.68a1,1,0,0,1-.25.6c-1.18,1.35-2.77,2.53-6.62,2.53a.5.5,0,0,1-.52-.52.46.46,0,0,1,.47-.48h0a5.82,5.82,0,0,0,.59,0,8.41,8.41,0,0,0,2.51-.37,7,7,0,0,0-.67-.33.35.35,0,0,1-.25-.32.5.5,0,0,1,.5-.46,6,6,0,0,1,1.54.61,2.84,2.84,0,0,0,1.21-1.05c0-.06,0-.07-.09-.07h-.05c-.07,0-1.66,0-2.23,0a6.87,6.87,0,0,1-2.81,1.43.47.47,0,0,1-.5-.46.49.49,0,0,1,.37-.45,8.27,8.27,0,0,0,3.15-2l-2.25,0c-.65,0-.75.15-.78.59v.53h0c0,.29-.29.45-.57.45a.5.5,0,0,1-.56-.46c0-.16,0-.3,0-.46s0-.32,0-.51c0-.59.47-1,1.39-1l3.88,0,3.17,0a1.24,1.24,0,0,1,1.36,1.08c0,.18,0,.35,0,.51,0,.43-.05.85-.62.85a.52.52,0,0,1-.57-.49Zm-3.44-2.35h-2.78c-1.25,0-1.28-.51-1.28-1.31s.07-1.27,1.23-1.28l2.78,0,2.74,0c.61,0,1.11.13,1.11,1.28,0,.83-.16,1.3-1.21,1.31Zm-1.79-1.84H408c-.32,0-.5.09-.5.54s.05.5.5.5h.73Zm2.19,0h-1.19v1.06h1.19Zm1,1.06h.87c.46,0,.49-.23.49-.51s-.06-.53-.52-.53h-.84Z" transform="translate(-382.13 -270.28)"/><path class="cls-2" d="M417.55,424.8a.71.71,0,0,1-.67-.66.5.5,0,0,1,.29-.45,7.55,7.55,0,0,0,1.68-1.24c0-.54,0-1,0-1.46v-.49c0-.29-.12-.33-.55-.33h-.53c-.25,0-.69,0-.69-.5a.55.55,0,0,1,.53-.58c.43,0,.83,0,1.23,0,.78,0,1.13.35,1.13,1.12s0,1.53,0,2.29c.77,1,1.93,1.21,3.61,1.21,1.18,0,2.44-.13,3.37-.2H427a.58.58,0,0,1,.59.58.61.61,0,0,1-.61.6c-.75.07-1.84.14-2.92.14-3.18,0-3.87-.66-4.65-1.46C418.49,424.35,417.87,424.8,417.55,424.8Zm1.52-7.81a3.82,3.82,0,0,0-1.24-1.07.44.44,0,0,1-.25-.38.63.63,0,0,1,.64-.57c.31,0,1.92.91,1.92,1.6a.69.69,0,0,1-.64.68A.55.55,0,0,1,419.07,417Zm3.69-1.4a7.65,7.65,0,0,0,.16-.78.57.57,0,0,1,.62-.48.62.62,0,0,1,.69.55,2.66,2.66,0,0,1-.19.7h1.23a1,1,0,0,1,1,.79c0,.3.05.64.05.94,0,.79-.09,1.4-1.24,1.44l-1.74,0-1.15,0v.8l2,0h1.25c.87,0,1.2.44,1.22.95,0,.19,0,.38,0,.57,0,.35,0,.7,0,1a1,1,0,0,1-1,.84c-.64,0-1.39,0-2.09,0-1.4,0-2.38,0-2.41-1.11,0-.55,0-1.15,0-1.75,0-1.2,0-2.42,0-3.44a1,1,0,0,1,1.13-1.07Zm.89,2.28c1.51,0,1.51,0,1.51-.62s0-.77-.38-.77h-1.5c-1,0-1.07,0-1.07.55v.83C422.6,417.87,423.14,417.87,423.65,417.87Zm-1.44,2.88v.67c0,.53.1.55,1.49.55,1.59,0,1.74,0,1.76-.36,0-.11,0-.26,0-.41s0-.32,0-.44a.38.38,0,0,0-.41-.31h-.64c-.71,0-1.56,0-2.2,0Z" transform="translate(-382.13 -270.28)"/><path class="cls-2" d="M432.78,423.33a2.27,2.27,0,0,1-1.42-.63,6.24,6.24,0,0,1-1.75-3.61c-.1-.45-.23-1.18-.23-1.28a.59.59,0,0,1,.6-.58.64.64,0,0,1,.6.57c.07.38.09.79.17,1.17.49,2.8,1.62,2.91,1.69,2.91s.23-.1.33-.39.19-.63.34-1a.45.45,0,0,1,.44-.33.65.65,0,0,1,.64.6s0,.06,0,.09c-.08.4-.32,1.18-.35,1.55A1,1,0,0,1,432.78,423.33Zm4.61-2.73a4.27,4.27,0,0,0-1.57-2.42.46.46,0,0,1-.2-.38.52.52,0,0,1,.54-.49.8.8,0,0,1,.5.2c.5.43,2,1.75,2,3a.66.66,0,0,1-.66.69A.6.6,0,0,1,437.39,420.6Z" transform="translate(-382.13 -270.28)"/><path class="cls-2" d="M446.28,417a.16.16,0,0,1,0,.1,7.57,7.57,0,0,0,4.39,6.23.62.62,0,0,1,.46.59.76.76,0,0,1-.79.73c-1,0-3.55-2.18-4.59-4.91a8.07,8.07,0,0,1-4.32,5,.77.77,0,0,1-.35.08.69.69,0,0,1-.69-.66.66.66,0,0,1,.44-.59c4.09-1.82,4.2-6,4.2-6.93,0-.36,0-.77-.05-1.13v0a.67.67,0,0,1,1.33,0c0,.42,0,.94-.05,1.45Z" transform="translate(-382.13 -270.28)"/><path class="cls-2" d="M459.48,424.25h-.12c-2.6-.24-4.24-2-4.24-3.89a3.4,3.4,0,0,1,.86-2.19c0-.05.06-.08.06-.11l0,0a.24.24,0,0,0-.12,0c-1.89,1-2.11,1-2.38,1a.64.64,0,0,1-.18-1.27c.25-.09.94-.29,1.3-.42.56-.21,1.56-.52,2.74-1a9.16,9.16,0,0,1,3.18-.75c.6,0,.82.28.82.59,0,.61-.51.74-1,.74h-.57c-1.85,0-3.68,1.58-3.68,3.19,0,1.44,1.37,2.66,3.25,2.66.6,0,.89.35.89.71S460,424.25,459.48,424.25Zm1-4.21a4.46,4.46,0,0,0-1-.74.41.41,0,0,1-.3-.38.5.5,0,0,1,.52-.46c.16,0,1.62.55,1.62,1.17a.58.58,0,0,1-.51.57A.43.43,0,0,1,460.51,420Zm1.38-1a4,4,0,0,0-1-.7c-.22-.09-.31-.23-.31-.37a.52.52,0,0,1,.53-.48c.19,0,1.63.51,1.63,1.14a.56.56,0,0,1-.51.56A.45.45,0,0,1,461.89,419Z" transform="translate(-382.13 -270.28)"/><path class="cls-2" d="M465.25,419.2a4.87,4.87,0,0,0-1.39-.77.4.4,0,0,1-.3-.39.58.58,0,0,1,.57-.58,4.38,4.38,0,0,1,1.75.71.6.6,0,0,1,.25.5.63.63,0,0,1-.55.66A.45.45,0,0,1,465.25,419.2Zm-.94,5.45a.61.61,0,0,1-.62-.58.53.53,0,0,1,.13-.36,8.8,8.8,0,0,0,1.49-2.9.51.51,0,0,1,.5-.36.56.56,0,0,1,.58.55,8.65,8.65,0,0,1-1.5,3.32A.71.71,0,0,1,464.31,424.65Zm1.42-8.15a5.34,5.34,0,0,0-1.2-1,.43.43,0,0,1-.23-.37.6.6,0,0,1,.6-.54c.29,0,1.83.77,1.83,1.44a.67.67,0,0,1-.61.65A.5.5,0,0,1,465.73,416.5Zm.94,8.05a.48.48,0,1,1,0-1h.67c0-.74,0-1.62,0-2.13,0-.7.47-1,1.2-1.06h3.29a1.11,1.11,0,0,1,1.22,1.07c0,.31,0,.73,0,1.17s0,.64,0,.95h.66a.48.48,0,1,1,0,1Zm6.89-6.85-1.89,0a6.4,6.4,0,0,0,2.38,1.87.51.51,0,0,1,.31.48.62.62,0,0,1-.6.61c-.51,0-2.13-1.29-3.16-3h-.82c-.95,1.78-2.46,3.08-2.95,3.08a.5.5,0,0,1-.5-.51.52.52,0,0,1,.26-.45,5.89,5.89,0,0,0,2.09-2.09l-1.48,0h0a.48.48,0,0,1-.5-.5.48.48,0,0,1,.51-.52h3.44a11.89,11.89,0,0,0,.77-1.77.51.51,0,0,1,.51-.39.65.65,0,0,1,.65.59,6.8,6.8,0,0,1-.79,1.57h1.78a.49.49,0,0,1,.49.52.48.48,0,0,1-.48.5Zm-4.62-1.08a.44.44,0,0,1-.41-.27,3.77,3.77,0,0,0-.7-1,.44.44,0,0,1-.14-.31.56.56,0,0,1,.57-.51c.55,0,1.3,1.12,1.3,1.45A.63.63,0,0,1,468.94,416.62Zm0,4.61h-.22a.39.39,0,0,0-.42.37c0,.48,0,1.31,0,2H469Zm1.53,0h-.61v2.37h.61Zm1.62,2.36c0-1.4,0-1.71,0-2a.4.4,0,0,0-.44-.37h-.24v2.36Z" transform="translate(-382.13 -270.28)"/><path class="cls-2" d="M476.49,422.48s.08-.1.18-.24.23-.38.35-.58a10.91,10.91,0,0,1,.91-1.3,7.24,7.24,0,0,0,.4-.78l0-.33a4.57,4.57,0,0,0-1.07.53.72.72,0,0,1-.43.16.48.48,0,0,1-.45-.52c0-.4.09-.53,2.08-1.39.1-1,.17-1.85.17-2.38a.52.52,0,0,1,.54-.56.57.57,0,0,1,.6.55c0,.36-.14,1.56-.22,2.17a.49.49,0,0,1,.28.48,4.55,4.55,0,0,1,2.71-1.54,1.28,1.28,0,0,1,1.28,1.43,2,2,0,0,1,0,.24c-.08.78-.43,2.05-.56,3.16a2,2,0,0,0,0,.4c0,.38.14.53.57.53a3.5,3.5,0,0,0,1.33-.38.84.84,0,0,1,.32-.07.53.53,0,0,1,.53.56.7.7,0,0,1-.44.65,4.47,4.47,0,0,1-1.72.37c-.92,0-1.73-.3-1.73-1.51a3.5,3.5,0,0,1,0-.54c.17-1.09.49-2.35.54-3.13v-.13c0-.4-.14-.54-.36-.54-.63,0-2,1.32-3,2.51,0,.64-.08,1.29-.08,1.9a10.92,10.92,0,0,0,.12,1.69.57.57,0,0,1,0,.13.62.62,0,0,1-.63.63c-.64,0-.65-.71-.65-1.57,0-.42,0-.88,0-1.37-.27.43-.52.93-.74,1.35a1,1,0,0,1-.84.63.45.45,0,0,1-.48-.45,1.28,1.28,0,0,1,.36-.69Z" transform="translate(-382.13 -270.28)"/><path class="cls-2" d="M493.53,421.22c0-1.26-1.53-1.26-1.63-1.26a3.92,3.92,0,0,0-2.87,1.59.6.6,0,0,1-.48.24.63.63,0,0,1-.64-.57.75.75,0,0,1,.24-.5,30.46,30.46,0,0,0,3.48-4,0,0,0,0,0,0,0l-.09,0a6,6,0,0,1-2.4.88.59.59,0,0,1-.62-.59.52.52,0,0,1,.5-.53,11.94,11.94,0,0,0,3-.81,1,1,0,0,1,.43-.1.76.76,0,0,1,.79.71.86.86,0,0,1-.27.59c-.82.78-1.74,1.8-2.5,2.64a3.14,3.14,0,0,1,1.72-.49,2.32,2.32,0,0,1,2.53,2.12c0,1.6-1.66,3.14-3.73,3.14-1.44,0-2.2-.83-2.2-1.54a1.23,1.23,0,0,1,1.34-1.12,1.71,1.71,0,0,1,1.88,1.49A2.36,2.36,0,0,0,493.53,421.22Zm-3.28,1.28c-.41,0-.42.26-.42.31,0,.47.82.53,1.12.53H491C491,422.82,490.73,422.5,490.25,422.5Z" transform="translate(-382.13 -270.28)"/><path class="cls-2" d="M506.21,416.46c-.9,0-1.82,0-2.75,0a.32.32,0,0,1,.2.29v.67h1.43c1.05,0,1.17.44,1.17,1.41,0,.79,0,1.34-1.25,1.35h-6.26c-.14,2-.73,4.31-1.63,4.31a.59.59,0,0,1-.59-.58.62.62,0,0,1,.16-.4c.88-1.07,1-3.39,1-5.05,0-.75,0-1.36,0-1.68v0A1.17,1.17,0,0,1,499,415.5c.76,0,1.6,0,2.47,0v-.67a.62.62,0,0,1,1.24,0v.67c1.19,0,2.39,0,3.53,0a.46.46,0,0,1,.47.47.46.46,0,0,1-.46.49Zm-5.69,5.78v1.19c.52-.12,1-.25,1.37-.37a.47.47,0,0,1,.16,0,.46.46,0,0,1,.45.47.52.52,0,0,1-.42.5,19.56,19.56,0,0,1-3.43.83.53.53,0,0,1-.07-1.06c.3,0,.61-.08.9-.13v-2.84a.52.52,0,0,1,.53-.54.51.51,0,0,1,.51.54v.47h1.41a.48.48,0,1,1,0,1Zm-.22-5.51a.29.29,0,0,1,.18-.27h-1.15c-.4,0-.53.16-.53.46v.48h1.49Zm0,1.54h-1.48c0,.31,0,.67,0,1l1.5,0Zm2.35-1.54a.31.31,0,0,1,.19-.29h-1.7a.34.34,0,0,1,.18.29v.67h1.33Zm0,1.54h-1.33v1.07h1.33Zm1.08,5c0,.48.23.55.91.55.83,0,1.19-.21,1.19-.88a.45.45,0,0,1,.48-.48.57.57,0,0,1,.6.6c0,1-.52,1.75-2.31,1.75-.91,0-1.92-.11-1.92-1.38,0-.72,0-2,0-2.64a.5.5,0,0,1,.51-.53.51.51,0,0,1,.53.52h0v.82a14.88,14.88,0,0,0,1.89-.72.47.47,0,0,1,.22-.05.55.55,0,0,1,.52.55.53.53,0,0,1-.38.5,12.92,12.92,0,0,1-2.26.65Zm-.07-3.9c1.35,0,1.45,0,1.49-.31a.76.76,0,0,0,0-.25c0-.41-.08-.5-.38-.5h-1.13Z" transform="translate(-382.13 -270.28)"/><path class="cls-2" d="M509.3,424.87a.59.59,0,0,1-.61-.61.52.52,0,0,1,.5-.54,3,3,0,0,0,3-2.86.55.55,0,0,1,.56-.56.56.56,0,0,1,.58.56v0A4.24,4.24,0,0,1,509.3,424.87Zm.84-9.79a.58.58,0,0,1,1.15,0l0,4.72c0,.3-.28.46-.57.46s-.58-.16-.58-.46Zm5.18-.38c.55,0,1.1,0,1.56,0a1.16,1.16,0,0,1,1.2,1c0,.5,0,1.21,0,1.86,0,.4,0,.77,0,1.06a1.28,1.28,0,0,1-1.27,1.16c-.47,0-1,0-1.51,0s-1.12,0-1.6,0a1.22,1.22,0,0,1-1.3-1.15c0-.18,0-.39,0-.61,0-.75,0-1.68,0-2.26a1.17,1.17,0,0,1,1.26-1.1C514.19,414.7,514.76,414.7,515.32,414.7Zm-1.86,3c0,.32,0,.59,0,.76,0,.45.36.47,1.86.47,1.14,0,1.63,0,1.66-.49,0-.16,0-.44,0-.74Zm3.55-.91c0-.27,0-.51,0-.66,0-.49-.26-.5-1.77-.5-.44,0-.87,0-1.21,0-.54,0-.54.31-.54,1.14Zm-2.24,3.52a.5.5,0,0,1,.56.5c0,.47,0,1.45,0,2s0,.8,1.12.8,1.44-.27,1.44-1a.51.51,0,0,1,.56-.51.57.57,0,0,1,.63.59c0,1.64-1.1,2-2.72,2-1.12,0-2.18-.05-2.18-1.4,0-.47,0-2.08,0-2.46A.55.55,0,0,1,514.77,420.32Z" transform="translate(-382.13 -270.28)"/><path class="cls-2" d="M523.49,420.34v.08c0,.41.3.45.65.45h.72c1.28,0,3.25,0,4.63.05.86,0,1.26.36,1.26,1a2.93,2.93,0,0,1-3,3,6.17,6.17,0,0,1-1.29-.15.46.46,0,0,1-.34-.46.6.6,0,0,1,.1-.32h-3.6c-1,0-1.3-.47-1.31-1.05,0-.17,0-.46,0-.64a.53.53,0,0,1,.58-.51.51.51,0,0,1,.56.49v0c0,.1,0,.32,0,.44,0,.42.08.42,1.55.42v-1.27h-.18c-.77,0-1.35-.3-1.39-1.19,0-.41,0-1,0-1.73,0-.84,0-1.74,0-2.38a1.09,1.09,0,0,1,1.2-1.15c.33,0,.74,0,1.18,0,.06-.23.13-.51.17-.74a.61.61,0,0,1,.64-.46c.32,0,.67.19.67.51a2.43,2.43,0,0,1-.22.69c.61,0,1.2,0,1.66,0,1,0,1.24.51,1.29.83a10.69,10.69,0,0,1,0,1.13c0,.76,0,1.5-1.32,1.54l-3.13,0h-1.12c0,.14,0,.33,0,.53h7.08a.46.46,0,0,1,0,.91Zm0-2.81v.57h1.4c1,0,2,0,2.65-.05a.39.39,0,0,0,.42-.39s0-.09,0-.14Zm4.48-.73c0-.07,0-.12,0-.17,0-.26-.15-.39-.44-.4s-1,0-1.67,0-1.37,0-1.87,0c-.33,0-.47.18-.48.5v.07Zm-.14,6.05a1,1,0,0,1-.66,1,4.49,4.49,0,0,0,.61.06,1.7,1.7,0,0,0,1.73-1.74c0-.23-.11-.31-.39-.33h-4v1.3c1.57,0,1.58,0,1.58-.54a1.77,1.77,0,0,0,0-.24v0c0-.28.26-.42.54-.42a.53.53,0,0,1,.59.44Z" transform="translate(-382.13 -270.28)"/><path class="cls-2" d="M537.75,421.2a5.09,5.09,0,0,1,0,.66.72.72,0,0,1-.64.74.51.51,0,0,1-.5-.57v-.11a5.72,5.72,0,0,0,0-.8c-.25.13-1.37.72-1.37,1.48,0,.2.1.91,1.32.91a5.49,5.49,0,0,0,1.52-.26,1.08,1.08,0,0,1,.3,0,.58.58,0,0,1,.62.56c0,.25-.1.86-2.15.86s-2.68-1-2.68-1.9c0-1.47,1.7-2.38,2.32-2.7-.14-.47-.38-.71-.71-.71a1.14,1.14,0,0,0-.62.22c-.5.56-.8.73-1.07.73a.48.48,0,0,1-.51-.46.66.66,0,0,1,.27-.49,6.2,6.2,0,0,0,1.54-1.82,4.4,4.4,0,0,1-.59.05c-1.21,0-1.22-.68-1.22-.77a.51.51,0,0,1,.49-.53.74.74,0,0,1,.43.16.84.84,0,0,0,.44.09,4.54,4.54,0,0,0,.95-.13,4.44,4.44,0,0,0,.22-.95.47.47,0,0,1,.5-.42.62.62,0,0,1,.65.53,2.54,2.54,0,0,1-.07.44c.36-.18.41-.19.49-.19a.52.52,0,0,1,.51.53c0,.4-.31.64-1.55.94a12,12,0,0,1-.69,1.2,1.6,1.6,0,0,1,1.51,1.12,14,14,0,0,1,2.77-1,.64.64,0,0,1,.68.63.48.48,0,0,1-.33.46c-.37.16-.77.21-1.39.4s-1,.35-1.49.54A3.51,3.51,0,0,1,537.75,421.2Z" transform="translate(-382.13 -270.28)"/><path class="cls-2" d="M543.07,424.37a.54.54,0,0,1-.55-.53.55.55,0,0,1,.16-.39,5,5,0,0,0,1.07-3.48c0-.39,0-.73,0-1,0-.76.57-1,1.13-1h1l1.42,0c.72,0,1.15.28,1.19.88,0,.22,0,.5,0,.79,0,1.24,0,1.71-1.2,1.72-.63,0-1.25,0-1.87,0h-.79C544.41,423,543.7,424.37,543.07,424.37Zm2-6.85a.43.43,0,0,1-.43-.27c-1.07,1.1-1.43,1.12-1.54,1.12a.62.62,0,0,1-.62-.57.54.54,0,0,1,.29-.47,9.06,9.06,0,0,0,2.2-2.17,1.27,1.27,0,0,1,1.06-.61,1.49,1.49,0,0,1,1.13.61,11,11,0,0,0,1.88,1.75.5.5,0,0,1,.21.4.65.65,0,0,1-.62.62c-.19,0-.35-.05-1.1-.8a.43.43,0,0,1-.46.39Zm1.41,7.22c-1.52,0-2.14,0-2.14-1.17,0-.82,0-1.61.94-1.67.39,0,.78,0,1.18,0s.82,0,1.21,0a1,1,0,0,1,.95.79c0,.17,0,.35,0,.54,0,.6,0,1.42-1,1.48Zm-1.78-4.69c0,.17,0,.35,0,.54h2.4a.31.31,0,0,0,.34-.31c0-.07,0-.14,0-.23Zm2.72-.73c0-.08,0-.18,0-.24a.3.3,0,0,0-.34-.29h-2c-.34,0-.41.2-.41.45v.08Zm-.32-2.66c-.26-.29-.51-.58-.71-.83a.47.47,0,0,0-.31-.19c-.11,0-.2.08-.29.21s-.39.54-.61.81Zm-.52,6.08h-.84c-.34,0-.36.28-.36.63s0,.44,1.1.44,1.1,0,1.1-.51S547.61,422.74,546.63,422.74Zm2.89-7a.53.53,0,0,1,.55-.54.52.52,0,0,1,.55.54v6.12a.55.55,0,0,1-1.1,0Zm3.27,7.46v0c0,.72-.45,1.58-1.83,1.58-1,0-1.32-.22-1.32-.69a.55.55,0,0,1,.49-.6h.12a3.68,3.68,0,0,0,.75.14c.32,0,.59-.14.61-.65s0-3.78,0-6v-1.89a.58.58,0,0,1,1.15,0v6.64Z" transform="translate(-382.13 -270.28)"/><path class="cls-2" d="M561,421.22c0-1.26-1.53-1.26-1.63-1.26a3.92,3.92,0,0,0-2.87,1.59.6.6,0,0,1-.48.24.63.63,0,0,1-.64-.57.75.75,0,0,1,.24-.5,30.46,30.46,0,0,0,3.48-4,0,0,0,0,0,0,0l-.09,0a6,6,0,0,1-2.4.88.59.59,0,0,1-.62-.59.52.52,0,0,1,.5-.53,11.94,11.94,0,0,0,3-.81,1,1,0,0,1,.43-.1.76.76,0,0,1,.79.71.86.86,0,0,1-.27.59c-.82.78-1.74,1.8-2.5,2.64a3.14,3.14,0,0,1,1.72-.49,2.32,2.32,0,0,1,2.53,2.12c0,1.6-1.66,3.14-3.73,3.14-1.44,0-2.2-.83-2.2-1.54a1.23,1.23,0,0,1,1.34-1.12,1.71,1.71,0,0,1,1.88,1.49A2.36,2.36,0,0,0,561,421.22Zm-3.28,1.28c-.4,0-.42.26-.42.31,0,.47.82.53,1.12.53h.08C558.44,422.82,558.17,422.5,557.69,422.5Z" transform="translate(-382.13 -270.28)"/><path class="cls-2" d="M565.36,425a1.37,1.37,0,1,1,1.37-1.36A1.36,1.36,0,0,1,565.36,425Zm0-2.26a.9.9,0,0,0-.91.9.91.91,0,1,0,1.82,0A.89.89,0,0,0,565.36,422.73Z" transform="translate(-382.13 -270.28)"/></g><g class="cls-1"><path class="cls-2" d="M428,448.27c-2.48,0-3.81-1.15-3.81-1.83a.65.65,0,0,1,.62-.65.72.72,0,0,1,.54.3,2.82,2.82,0,0,0,2.28.91,8.05,8.05,0,0,0,2-.3l.28,0a.6.6,0,0,1,.64.61.79.79,0,0,1-.67.75A7.54,7.54,0,0,1,428,448.27Zm.88-6.23a7.55,7.55,0,0,1-3.25-.77.67.67,0,0,1-.4-.61.52.52,0,0,1,.54-.55,1,1,0,0,1,.35.07,7.8,7.8,0,0,0,2.89.62.61.61,0,0,1,.62.61C429.61,441.73,429.37,442,428.86,442Z" transform="translate(-382.13 -270.28)"/><path class="cls-2" d="M440.38,443.68a2.54,2.54,0,0,0-2.78-2.47h0a.54.54,0,0,1,.34.5v.06c0,1.26-1.24,3.45-2.56,4.74a1.29,1.29,0,0,1-.9.41c-.85,0-1.62-1-1.62-2.27a4.78,4.78,0,0,1,4.84-4.38,3.61,3.61,0,0,1,3.93,3.48,3.68,3.68,0,0,1-.26,1.36c-1.06,2.66-4.32,3-4.49,3a.63.63,0,0,1-.68-.59c0-.26.2-.51.66-.59C439,446.6,440.38,445.25,440.38,443.68Zm-3.47-2.41a3.93,3.93,0,0,0-3,3.32c0,.9.6,1,.64,1a.3.3,0,0,0,.23-.1,6.56,6.56,0,0,0,1.9-3.71A.64.64,0,0,1,436.91,441.27Z" transform="translate(-382.13 -270.28)"/><path class="cls-2" d="M445.48,445.71c0,.57.23.85.94,1a7.58,7.58,0,0,0,3.27-.42c1-.57,1.8.68.44,1.28a9.51,9.51,0,0,1-4.16.32,1.71,1.71,0,0,1-1.66-1.78c0-1.19.07-2.13.13-3.53a8.08,8.08,0,0,0-.07-1.51.68.68,0,1,1,1.34,0,9.29,9.29,0,0,1,0,1.5c0,.3,0,.57-.05.83a12.3,12.3,0,0,0,2.2-.64,3.7,3.7,0,0,0,1-.56c.64-.54,1.7.26,1,1a3.69,3.69,0,0,1-1.22.62,17.41,17.41,0,0,1-3.11.84C445.52,444.9,445.5,445.28,445.48,445.71Zm4.21-4.33c-.6-.25-.13-1,.42-.77a4.07,4.07,0,0,1,1.18.72c.46.49-.23,1.22-.63.76A3.85,3.85,0,0,0,449.69,441.38Zm1.08-1c-.61-.24-.18-1,.38-.78a3.79,3.79,0,0,1,1.2.68c.48.48-.19,1.21-.6.77A4.24,4.24,0,0,0,450.77,440.36Z" transform="translate(-382.13 -270.28)"/><path class="cls-2" d="M456.2,444.56a4.38,4.38,0,0,0-1.49-.62c-.72-.11-.48-1.25.4-1.09a6.52,6.52,0,0,1,1.75.61.63.63,0,0,1,.25.89A.61.61,0,0,1,456.2,444.56Zm-.06,3.69c-1,.12-1.17-1.13-.4-1.25a4,4,0,0,0,.93-.3,13.32,13.32,0,0,0,5.48-5.5c.4-.76,1.6-.23,1.05.72a15.06,15.06,0,0,1-5.9,5.92A2.73,2.73,0,0,1,456.14,448.25Zm1.51-5.83a4.37,4.37,0,0,0-1.32-.92c-.67-.28-.18-1.34.64-1a6.61,6.61,0,0,1,1.57,1,.63.63,0,0,1,0,.92A.6.6,0,0,1,457.65,442.42Zm2.55-2.16c-.6-.25-.13-1,.42-.76a4.12,4.12,0,0,1,1.18.71c.47.5-.23,1.23-.63.76A4.11,4.11,0,0,0,460.2,440.26Zm1.08-1c-.61-.24-.18-1,.39-.78a3.85,3.85,0,0,1,1.2.69c.48.48-.2,1.21-.6.77A4.57,4.57,0,0,0,461.28,439.24Z" transform="translate(-382.13 -270.28)"/><path class="cls-2" d="M469.92,446.68c0,.26-.22.48-.64.52l-.59,0c-.39,0-2.23.24-2.53.28a4.68,4.68,0,0,1-.84.05c-.67-.06-.71-1,.12-.95.2,0,.37,0,.59,0l2.44-.3c0-.28.12-.6.18-.91l-.13,0-.59.06c-.37,0-.86.14-1.15.19a4.43,4.43,0,0,1-.81.07c-.66,0-.78-.92,0-.93.19,0,.41,0,.6,0l1.27-.17c.22,0,.47-.09.68-.11a.54.54,0,0,1,.29.05c.06-.29.11-.52.13-.64s0-.24-.21-.21c-.41.06-1.77.26-2.09.32a5.31,5.31,0,0,1-1,.11c-.65,0-.76-.94,0-1a5.36,5.36,0,0,0,.8,0c.3-.05,1.71-.19,2-.24a8.13,8.13,0,0,1,.84-.13c.87,0,1,.67.87,1a10.28,10.28,0,0,0-.43,1.47c-.09.35-.16.71-.23,1A.45.45,0,0,1,469.92,446.68Z" transform="translate(-382.13 -270.28)"/><path class="cls-2" d="M475.37,443.11a5,5,0,0,0-1.7-.82c-.72-.16-.42-1.36.49-1.13a7.19,7.19,0,0,1,2,.81.69.69,0,0,1,.2,1A.65.65,0,0,1,475.37,443.11Zm.52,4.52a2.7,2.7,0,0,1-1.15.38c-1,.08-1.14-1.18-.37-1.26a3.8,3.8,0,0,0,.92-.3,11.71,11.71,0,0,0,5.32-5.28c.4-.75,1.61-.25,1.08.71A13.51,13.51,0,0,1,475.89,447.63Z" transform="translate(-382.13 -270.28)"/><path class="cls-2" d="M484.17,447.87a7.67,7.67,0,0,1-.31-2.29,35.69,35.69,0,0,1,.67-5,.59.59,0,0,1,1.18,0,.16.16,0,0,1,0,.09,29.85,29.85,0,0,0-.78,4.28c0,.45.09.5.12.5s.06,0,.09-.09c.37-.71.45-.85.71-.85a.52.52,0,0,1,.49.5.35.35,0,0,1-.06.22,6.23,6.23,0,0,0-.9,2.25c0,.11,0,.22,0,.33a.56.56,0,0,1-.6.62A.64.64,0,0,1,484.17,447.87Zm6.67-.08c-2.08,0-3.66-1.23-3.66-1.82a.6.6,0,0,1,.62-.56.7.7,0,0,1,.54.26,3.06,3.06,0,0,0,2.33.81,7.12,7.12,0,0,0,1-.08h.14a.56.56,0,0,1,.6.58C492.43,447.59,491.91,447.79,490.84,447.79Zm-1.36-5.26a6.94,6.94,0,0,1-1.62-.18.55.55,0,0,1,.05-1.1H488a6,6,0,0,0,1.17.12,11.51,11.51,0,0,0,1.47-.12h.11a.54.54,0,0,1,.57.56C491.35,442.29,491,442.53,489.48,442.53Z" transform="translate(-382.13 -270.28)"/><path class="cls-2" d="M503.88,447.2v0c0,.71-.59,1.59-2.23,1.59-.75,0-1.44-.09-1.44-.69a.53.53,0,0,1,.55-.53h.16a4.35,4.35,0,0,0,.79.09c.53,0,1-.16,1-.7,0-4,0-4.84,0-5.06,0-.68-.26-.8-.85-.82l-2.6,0-2.52,0c-.68,0-.88.21-.89.82,0,1.09,0,2.18,0,3.26v3.26a.6.6,0,0,1-1.19,0v0c0-2.23,0-4.71.07-7.07a1.36,1.36,0,0,1,1.5-1.31l1.74,0a10.57,10.57,0,0,0,.37-1.44c0-.27.31-.39.6-.39s.71.18.71.53a4.94,4.94,0,0,1-.45,1.29c1.08,0,2.19,0,3.27,0a1.43,1.43,0,0,1,1.46,1.4c0,1.36,0,2.68.05,4ZM497,444.34c0-.36,0-.73,0-1a1,1,0,0,1,1-1c.29,0,.65,0,1,0s.92,0,1.3,0a1.07,1.07,0,0,1,1.08,1c0,.3,0,.67,0,1s0,.73,0,1a1.13,1.13,0,0,1-1.11,1.12c-.34,0-.75,0-1.14,0s-.79,0-1.13,0a1.06,1.06,0,0,1-1-1.11C497,445,497,444.69,497,444.34Zm3.34.12c0-.31,0-.66,0-.86,0-.4-.34-.4-1.05-.4h-.85c-.38,0-.39.29-.39,1,0,.31,0,.64,0,.83s.15.37,1.2.37c.8,0,1.06-.05,1.08-.38C500.31,444.92,500.31,444.7,500.31,444.46Z" transform="translate(-382.13 -270.28)"/><path class="cls-2" d="M508.58,443.24a6.69,6.69,0,0,1-1.36.22.52.52,0,0,1-.56-.54.57.57,0,0,1,.6-.59,8.85,8.85,0,0,0,2-.28,5.11,5.11,0,0,0,.59-1.84.5.5,0,0,1,.54-.43.6.6,0,0,1,.64.55,4.12,4.12,0,0,1-.43,1.46h.1c1.36,0,1.4,1.47,1.4,2,0,1.07-.05,4.07-2.27,4.07-.68,0-1.57-.31-1.57-.89a.65.65,0,0,1,.63-.62.61.61,0,0,1,.25.06,1.6,1.6,0,0,0,.67.18c.78,0,1.14-.84,1.14-2.94,0-.49-.07-.85-.46-.85a.82.82,0,0,0-.21,0l-.19.05c-.9,1.69-2.16,3.66-2.93,5a.71.71,0,0,1-.62.35.56.56,0,0,1-.62-.51.72.72,0,0,1,.15-.42c.53-.81,1.77-2.56,2.62-4.06Zm6.64,1.65a3.79,3.79,0,0,0-2.06-1.9.43.43,0,0,1-.32-.41.56.56,0,0,1,.57-.53c.61,0,3,1.49,3,2.59a.64.64,0,0,1-.63.64A.56.56,0,0,1,515.22,444.89Z" transform="translate(-382.13 -270.28)"/><path class="cls-2" d="M518.69,445.61a.55.55,0,0,1-.55-.55.55.55,0,0,1,.39-.52c.4-.15.93-.39,1.47-.63a7.33,7.33,0,0,1,2.77-.8,2,2,0,0,1,2.17,1.94c0,2-3.56,3.1-4.37,3.1a.55.55,0,0,1-.59-.55.51.51,0,0,1,.49-.5c2-.28,3.36-1.22,3.36-2.09a1.06,1.06,0,0,0-1.13-1,6.14,6.14,0,0,0-2.33.81C519.1,445.53,518.9,445.61,518.69,445.61Z" transform="translate(-382.13 -270.28)"/><path class="cls-2" d="M534.18,448.25h-.12c-2.6-.24-4.24-2-4.24-3.89a3.4,3.4,0,0,1,.86-2.19c0-.05.06-.08.06-.11l0,0a.28.28,0,0,0-.12,0c-1.89,1-2.11,1-2.38,1a.64.64,0,0,1-.18-1.27c.25-.09.94-.29,1.3-.42.56-.21,1.56-.52,2.74-1a9.16,9.16,0,0,1,3.18-.75c.6,0,.82.28.82.59,0,.61-.5.74-1,.74h-.56c-1.86,0-3.69,1.58-3.69,3.19,0,1.44,1.37,2.66,3.25,2.66.6,0,.89.35.89.71S534.74,448.25,534.18,448.25Z" transform="translate(-382.13 -270.28)"/><path class="cls-2" d="M539.05,448.73a4.55,4.55,0,0,0-1.48-1.26.53.53,0,0,1,.24-1c.42,0,2.34,1.06,2.34,1.87a.66.66,0,0,1-.65.66A.53.53,0,0,1,539.05,448.73Z" transform="translate(-382.13 -270.28)"/></g><g class="cls-1"><path class="cls-2" d="M385.71,472.41a.6.6,0,0,1-1.18,0v0l.05-3.91a12.54,12.54,0,0,1-1.38,1.82.65.65,0,0,1-.45.21.61.61,0,0,1-.62-.56.52.52,0,0,1,.21-.41,11.14,11.14,0,0,0,2.25-3v-.15l-1.52,0h0a.5.5,0,0,1-.53-.52.51.51,0,0,1,.54-.52h1.51l0-1.14a8.15,8.15,0,0,1-1.19.18.53.53,0,0,1-.55-.54.51.51,0,0,1,.48-.52,10,10,0,0,0,3-.71l.19,0a.55.55,0,0,1,.54.55c0,.43-.48.57-1.29.8,0,.27,0,.79,0,1.41H387a.51.51,0,0,1,.54.52.5.5,0,0,1-.53.52h0l-1.34,0v.7h.12c.44,0,1.43.86,1.49.94a.56.56,0,0,1,.16.4.58.58,0,0,1-.52.58.5.5,0,0,1-.39-.2,4,4,0,0,0-.86-.78c0,1.8.06,4.31.06,4.31Zm1.16,0a.57.57,0,0,1-.51-.63.49.49,0,0,1,.44-.54l.7,0a64.4,64.4,0,0,0,1.63-7.95.56.56,0,0,1,.6-.52.67.67,0,0,1,.7.63,74.39,74.39,0,0,1-1.79,7.7c.84-.1,1.66-.25,2.45-.42a10.33,10.33,0,0,0-.73-1.24.68.68,0,0,1-.11-.34.53.53,0,0,1,.57-.49.65.65,0,0,1,.53.29,7.54,7.54,0,0,1,1.54,3.14.68.68,0,0,1-.68.69.59.59,0,0,1-.59-.52,3.65,3.65,0,0,0-.14-.57A28.14,28.14,0,0,1,386.87,472.41Z" transform="translate(-382.13 -270.28)"/><path class="cls-2" d="M398.39,465.57a56.7,56.7,0,0,1-2.78,6.3.63.63,0,0,1-.58.33.57.57,0,0,1-.62-.51.6.6,0,0,1,.1-.34,37.44,37.44,0,0,0,2.6-5.42l-.13,0a4,4,0,0,1-1,.15c-.12,0-1.06,0-1.06-.65a.57.57,0,0,1,.53-.61.76.76,0,0,1,.36.1.64.64,0,0,0,.31.07,5.13,5.13,0,0,0,1.4-.34,4.44,4.44,0,0,0,.09-.95.6.6,0,0,1,.66-.57.5.5,0,0,1,.56.43,1.41,1.41,0,0,1,0,.21,1.93,1.93,0,0,1,0,.23.41.41,0,0,1,.16,0,.57.57,0,0,1,.56.55c0,.31-.21.53-1.1.93Zm3.66,6.75c-2,0-3.26-1-3.26-1.65a.63.63,0,0,1,.59-.64.56.56,0,0,1,.46.27c.46.61.84.69,2.41.8a.6.6,0,0,1,.62.6C402.87,472.32,402.24,472.32,402.05,472.32Zm.7-4.51a7,7,0,0,0-2.13-.55,1.29,1.29,0,0,0-.4.05l-.14,0a.47.47,0,0,1-.45-.49c0-.19.06-.63,1.13-.63a6.81,6.81,0,0,1,2.43.54.53.53,0,0,1,.38.52.59.59,0,0,1-.57.59A.53.53,0,0,1,402.75,467.81Z" transform="translate(-382.13 -270.28)"/><path class="cls-2" d="M408.66,464.21a1.05,1.05,0,0,1,.59-.24.49.49,0,0,1,.52.5c0,.37-.37.75-1.47,1.34-.15,1.08-.4,2.49-.42,3.21a4.55,4.55,0,0,1,3.05-1.6c.84,0,2.2.48,2.2,1.74a2.84,2.84,0,0,1-.86,1.89,6.28,6.28,0,0,1-3.56,1.7.57.57,0,1,1-.12-1.14c2.47-.36,3.32-1.79,3.32-2.37s-.63-.79-1.09-.79a4,4,0,0,0-2.76,1.88c-.15.25-.13.41-.45.54a.66.66,0,0,1-.25.05.57.57,0,0,1-.61-.61c0-.34.1-1.49.44-4.07a3.12,3.12,0,0,1-.72.1c-.35,0-1.2-.07-1.2-.66a.56.56,0,0,1,.56-.57,1,1,0,0,1,.32.06.93.93,0,0,0,.36.06,2.11,2.11,0,0,0,.82-.2c.22-1.79.29-2.19.88-2.19a.52.52,0,0,1,.56.5,8,8,0,0,1-.21,1Z" transform="translate(-382.13 -270.28)"/><path class="cls-2" d="M416.2,472.33a.63.63,0,0,1-.59-.51,8.91,8.91,0,0,1-.36-2.62,13.47,13.47,0,0,1,.09-1.56c.14-1.34.42-2.53.5-3.27a.55.55,0,0,1,.55-.56.62.62,0,0,1,.63.58s0,.07,0,.1c-.09.52-.3,1.36-.47,2.23a11.22,11.22,0,0,0-.27,2.06c0,.45.08.54.1.54s.1-.07.17-.21c.33-.73.53-.87.72-.87a.52.52,0,0,1,.5.51.49.49,0,0,1-.06.23,7.49,7.49,0,0,0-.95,2.36c0,.14,0,.29,0,.43A.59.59,0,0,1,416.2,472.33Zm3.9,0a1.78,1.78,0,0,1-1.86-1.5c0-.91,1.12-1.28,2.22-1.28a6.28,6.28,0,0,1,1.12.12c0-.11,0-.22,0-.34a5.56,5.56,0,0,0,0-.67c-.05-.51-.11-1.4-.14-2.34a4.46,4.46,0,0,0-2.16.88.57.57,0,0,1-.39.16.58.58,0,0,1-.55-.57c0-.26.17-.88,3.07-1.52,0-.51,0-1,0-1.37a.56.56,0,0,1,1.11,0v.07c0,.33-.07.71-.08,1.11l.65-.11h.15a.55.55,0,0,1,.62.52c0,.25-.21.51-.65.57l-.78.11c0,.89.05,1.76.11,2.4,0,.44.09.89.09,1.33V470a4.94,4.94,0,0,1,1.38.84.66.66,0,0,1,.23.49.64.64,0,0,1-.61.67.54.54,0,0,1-.43-.21,4.24,4.24,0,0,0-.87-.7A2.76,2.76,0,0,1,420.1,472.31Zm.17-1.86c-.94,0-1,.3-1,.41s.16.44.69.44a1.74,1.74,0,0,0,1.33-.69A3.8,3.8,0,0,0,420.27,470.45Z" transform="translate(-382.13 -270.28)"/><path class="cls-2" d="M428.66,472.84c-1,0-2-.66-2-1.53,0-1.12,1.44-1.37,2.34-1.37a5.46,5.46,0,0,1,.9.07v-.21c0-.18,0-.37,0-.58,0-.38-.07-.76-.1-1.17a3.86,3.86,0,0,1-.91.12c-.23,0-1.45-.09-1.45-.9,0-.23.1-.62.89-1.32.15-.13.26-.25.26-.38,0-.32-1-.68-1.8-.7-.43,0-.63-.25-.63-.5a.56.56,0,0,1,.64-.54c.53,0,2.51.44,2.88,1.28v-.56c0-.49,0-1,0-1.35a.54.54,0,0,1,.55-.6.6.6,0,0,1,.62.6v0c-.06.81-.12,1.95-.12,3.09v.32a2.11,2.11,0,0,0,.58-.42.61.61,0,0,1,.43-.2.58.58,0,0,1,.56.58c0,.59-1,1-1.54,1.18,0,.45,0,.89.09,1.26s.09.79.1,1.23c.87.32,1.8.88,1.8,1.47a.65.65,0,0,1-.6.67.72.72,0,0,1-.52-.28,3.32,3.32,0,0,0-.83-.69A2.4,2.4,0,0,1,428.66,472.84Zm.14-2c-.84,0-1.1.22-1.1.44s.45.52.86.52a1.25,1.25,0,0,0,1.19-.83A3.88,3.88,0,0,0,428.8,470.86Zm.86-5.13a1.33,1.33,0,0,1-.38.5c-.7.55-.71.73-.71.77s.2.17.34.17a2.87,2.87,0,0,0,.8-.14C429.69,466.6,429.68,466.16,429.66,465.73Z" transform="translate(-382.13 -270.28)"/><path class="cls-2" d="M438.83,465.57a56.7,56.7,0,0,1-2.78,6.3.63.63,0,0,1-.58.33.57.57,0,0,1-.62-.51.6.6,0,0,1,.1-.34,37.44,37.44,0,0,0,2.6-5.42l-.13,0a4,4,0,0,1-1,.15c-.12,0-1.06,0-1.06-.65a.57.57,0,0,1,.53-.61.76.76,0,0,1,.36.1.64.64,0,0,0,.31.07,5.13,5.13,0,0,0,1.4-.34,4.44,4.44,0,0,0,.09-.95.6.6,0,0,1,.66-.57.5.5,0,0,1,.56.43,1.41,1.41,0,0,1,0,.21,1.93,1.93,0,0,1,0,.23.41.41,0,0,1,.16,0,.57.57,0,0,1,.56.55c0,.31-.21.53-1.1.93Zm3.66,6.75c-2,0-3.26-1-3.26-1.65a.63.63,0,0,1,.59-.64.56.56,0,0,1,.46.27c.46.61.84.69,2.41.8a.6.6,0,0,1,.62.6C443.31,472.32,442.68,472.32,442.49,472.32Zm.7-4.51a7,7,0,0,0-2.13-.55,1.29,1.29,0,0,0-.4.05l-.14,0a.47.47,0,0,1-.45-.49c0-.19.06-.63,1.13-.63a6.81,6.81,0,0,1,2.43.54.53.53,0,0,1,.38.52.59.59,0,0,1-.57.59A.53.53,0,0,1,443.19,467.81Z" transform="translate(-382.13 -270.28)"/><path class="cls-2" d="M448,470.26c-.58.71-1.5,1.62-1.92,1.62a.53.53,0,0,1-.54-.5.5.5,0,0,1,.29-.44A8,8,0,0,0,448,469l-1.56,0h0a.47.47,0,0,1-.5-.47.45.45,0,0,1,.5-.46h1.65v-.53h0a.49.49,0,0,1,1,0h0v.53h1.5a.45.45,0,0,1,.44.48.43.43,0,0,1-.44.45h0l-1.5,0v.44a.43.43,0,0,1,.23-.08,4,4,0,0,1,1.3.64.51.51,0,0,1,.2.4.57.57,0,0,1-.53.57.42.42,0,0,1-.31-.13,5.2,5.2,0,0,0-.89-.66l0,2.25a.5.5,0,0,1-1,0Zm-1.83-3.18a.45.45,0,0,1-.47-.47.45.45,0,0,1,.47-.45h1.22a.62.62,0,0,1-.15-.24,2.53,2.53,0,0,0-.37-.73.43.43,0,0,1-.1-.26.5.5,0,0,1,.52-.43c.52,0,.92,1,.92,1.23a.52.52,0,0,1-.21.43h.56a8.9,8.9,0,0,0,.51-1.33.44.44,0,0,1,.44-.37.57.57,0,0,1,.59.52,4,4,0,0,1-.53,1.18h1.1a.44.44,0,0,1,.48.45.45.45,0,0,1-.48.47Zm.34-2.72a.46.46,0,0,1-.51-.46.46.46,0,0,1,.51-.46H448v-.69a.55.55,0,0,1,1.1,0v.69h1.36a.45.45,0,0,1,.49.45.46.46,0,0,1-.49.47Zm7.17,2.55h-1.21c-.05,1.93-.27,4-1.34,5.5a.73.73,0,0,1-.58.31.6.6,0,0,1-.62-.53.43.43,0,0,1,.13-.32,7.76,7.76,0,0,0,1.36-5.09c0-.6,0-1.19,0-1.75v-.14c0-.81.3-1.15,1.1-1.39.47-.15,1.63-.63,2.08-.84a.67.67,0,0,1,.3-.08.62.62,0,0,1,.61.6.57.57,0,0,1-.39.53c-.39.18-1.73.61-2.06.71a.62.62,0,0,0-.53.67v.82l3.43,0a.53.53,0,0,1,.58.52.53.53,0,0,1-.58.52h-1.14l0,5.5a.52.52,0,0,1-.57.5.51.51,0,0,1-.55-.5Z" transform="translate(-382.13 -270.28)"/><path class="cls-2" d="M461.28,472.36c-2.39,0-2.49-1.39-2.49-2.58,0-1.37.14-3.11.14-4.52a10.94,10.94,0,0,0-.07-1.37s0-.08,0-.12a.59.59,0,0,1,.62-.6.66.66,0,0,1,.68.58c0,.26,0,.55,0,.86,0,1.48-.25,3.36-.25,5,0,1,.05,1.58,1.23,1.58a8.46,8.46,0,0,0,2.87-.62,1,1,0,0,1,.37-.09.57.57,0,0,1,.59.58.82.82,0,0,1-.59.75A9.18,9.18,0,0,1,461.28,472.36Z" transform="translate(-382.13 -270.28)"/><path class="cls-2" d="M469.87,471.33a2.27,2.27,0,0,1-1.43-.63,6.24,6.24,0,0,1-1.75-3.61c-.1-.45-.23-1.18-.23-1.28a.59.59,0,0,1,.6-.58.64.64,0,0,1,.6.57c.07.38.09.79.17,1.17.49,2.8,1.62,2.91,1.69,2.91s.23-.1.33-.39.19-.63.34-1a.45.45,0,0,1,.44-.33.65.65,0,0,1,.64.6s0,.06,0,.09c-.08.4-.32,1.18-.35,1.55A1,1,0,0,1,469.87,471.33Zm4.6-2.73a4.27,4.27,0,0,0-1.57-2.42.48.48,0,0,1-.2-.38.52.52,0,0,1,.54-.49.8.8,0,0,1,.5.2c.5.43,2,1.75,2,3a.66.66,0,0,1-.66.69A.6.6,0,0,1,474.47,468.6Z" transform="translate(-382.13 -270.28)"/><path class="cls-2" d="M478.3,468.32a.65.65,0,1,1,0-1.3h9.11a.6.6,0,0,1,.63.64.62.62,0,0,1-.63.66Z" transform="translate(-382.13 -270.28)"/><path class="cls-2" d="M495.57,466.77v2.4a1.63,1.63,0,0,1-1.81,1.57c-.56,0-1.14-.08-1.14-.61a.52.52,0,0,1,.49-.55h.12a2.75,2.75,0,0,0,.59.08c.36,0,.59-.15.59-.68v-2.22H490.3a.49.49,0,0,1-.51-.52.48.48,0,0,1,.51-.5h1.39v-1.88a.59.59,0,0,1,1.18,0v1.88h1.53v-3a.56.56,0,0,1,.58-.59.57.57,0,0,1,.6.59v.81h2.53a.52.52,0,0,1,0,1h-2.53v1.12h3.93a.46.46,0,0,1,.47.5.47.47,0,0,1-.47.52Zm-5,3.35a.64.64,0,0,1-.66-.62.54.54,0,0,1,.39-.49,5.06,5.06,0,0,0,2.09-1.59.48.48,0,0,1,.4-.21.65.65,0,0,1,.62.62.56.56,0,0,1-.12.32A6.09,6.09,0,0,1,490.57,470.12Zm.5,2.95-.49,0a.56.56,0,0,1-.53-.61.49.49,0,0,1,.46-.55h.82c2.82,0,4.71-.62,5.59-2.73a.47.47,0,0,1,.45-.3.62.62,0,0,1,.63.57.54.54,0,0,1,0,.22C496.9,472,494.71,473.07,491.07,473.07Zm7.94-3.52a6.57,6.57,0,0,0-2.15-1.28.5.5,0,0,1-.37-.46.56.56,0,0,1,.58-.52,6.68,6.68,0,0,1,2.72,1.34.62.62,0,0,1,.19.45.63.63,0,0,1-.57.65A.54.54,0,0,1,499,469.55Z" transform="translate(-382.13 -270.28)"/><path class="cls-2" d="M506.67,469.2a5.09,5.09,0,0,1,0,.66.72.72,0,0,1-.64.74.51.51,0,0,1-.5-.57v-.11a5.72,5.72,0,0,0,.05-.8c-.25.13-1.36.72-1.36,1.48,0,.2.09.91,1.31.91a5.49,5.49,0,0,0,1.52-.26,1.08,1.08,0,0,1,.3,0,.58.58,0,0,1,.62.56c0,.25-.1.86-2.15.86s-2.68-1-2.68-1.9c0-1.47,1.7-2.38,2.32-2.7-.14-.47-.38-.71-.71-.71a1.14,1.14,0,0,0-.62.22c-.5.56-.8.73-1.07.73a.48.48,0,0,1-.51-.46.66.66,0,0,1,.27-.49,6.06,6.06,0,0,0,1.54-1.82,4.4,4.4,0,0,1-.59.05c-1.21,0-1.22-.68-1.22-.77a.51.51,0,0,1,.49-.53.74.74,0,0,1,.43.16.86.86,0,0,0,.45.09,4.56,4.56,0,0,0,.94-.13,4.44,4.44,0,0,0,.22-.95.47.47,0,0,1,.5-.42.62.62,0,0,1,.65.53,2.54,2.54,0,0,1-.07.44c.36-.18.41-.19.49-.19a.52.52,0,0,1,.52.53c0,.4-.32.64-1.56.94a12,12,0,0,1-.69,1.2,1.6,1.6,0,0,1,1.51,1.12,14,14,0,0,1,2.77-1,.64.64,0,0,1,.68.63.48.48,0,0,1-.33.46c-.37.16-.77.21-1.39.4s-1,.35-1.49.54A3.51,3.51,0,0,1,506.67,469.2Z" transform="translate(-382.13 -270.28)"/><path class="cls-2" d="M513.77,466.37c-1.37,0-1.63-.22-1.63-1.82,0-.26,0-.5,0-.74a1,1,0,0,1,1-1c.26,0,.57,0,.87,0s.75,0,1,0a1,1,0,0,1,1.07.89c0,.25,0,.51,0,.79s0,.52,0,.79a1.09,1.09,0,0,1-1.13,1h-.19v1.12h1a.46.46,0,0,1,.47.49.47.47,0,0,1-.47.49h-1v1.82c.42-.18.83-.36,1.19-.54a.57.57,0,0,1,.25-.06.45.45,0,0,1,.41.5.5.5,0,0,1-.24.44,17.64,17.64,0,0,1-4.33,1.73.57.57,0,0,1-.57-.58c0-.37.23-.44.66-.56v-3.34a.47.47,0,0,1,.5-.46.46.46,0,0,1,.5.46v3l.57-.21Zm.51-2.58c-.27,0-.54,0-.73,0-.39,0-.39.31-.39.81,0,.17,0,.33,0,.48s.09.31,1,.31,1,0,1-.8S515.11,463.79,514.28,463.79Zm1.67,3a.39.39,0,0,1,.21-.35,3.83,3.83,0,0,0,1.5-1.86c0-.05-.06-.07-.11-.07l-.79,0h0a.38.38,0,0,1-.4-.4.41.41,0,0,1,.4-.43c.26,0,.6,0,.91,0s1,0,1,.66a1.13,1.13,0,0,1-.06.36,3.81,3.81,0,0,1-2.11,2.59A.52.52,0,0,1,516,466.83Zm4.25,5.84c-.3,0-.65,0-1,0s-.83,0-1.16,0a1.17,1.17,0,0,1-1.24-1.1c0-.22,0-.46,0-.7,0-.57,0-1.19,0-1.64a1.12,1.12,0,0,1,1.2-1.07l1.13,0,1.11,0a1.16,1.16,0,0,1,1.13,1c0,.48,0,1.17,0,1.76,0,.23,0,.45,0,.64A1.22,1.22,0,0,1,520.2,472.67Zm-1.45-9.88a.46.46,0,0,1,.92,0v.59a6.19,6.19,0,0,0,.47,1,5.2,5.2,0,0,0,1-.82.4.4,0,0,1,.31-.15.57.57,0,0,1,.53.55c0,.26-.36.62-1.3,1.14a5.26,5.26,0,0,0,1.43,1.24.52.52,0,0,1,.28.45.56.56,0,0,1-.55.55c-.54,0-1.54-1.15-2.12-2.22l.07,1.37v.08a1.22,1.22,0,0,1-1.37,1.27c-.83,0-1-.21-1-.52a.47.47,0,0,1,.42-.51h.11a2.79,2.79,0,0,0,.48.09c.25,0,.39-.13.39-.58Zm1.63,7.1c0-.16,0-.29,0-.41,0-.42-.19-.47-1.14-.47h-.92c-.52,0-.53.47-.53.87Zm-2.6.86c0,.22,0,.41,0,.56,0,.44.34.45,1.39.45,1.2,0,1.21,0,1.21-1Z" transform="translate(-382.13 -270.28)"/><path class="cls-2" d="M528.16,472.51a.61.61,0,0,1-.65-.57.59.59,0,0,1,.51-.55,4.27,4.27,0,0,0,2.56-1.9,11.35,11.35,0,0,0-2.85-.8c-1.15,1.49-1.72,1.75-2.42,1.75a1.37,1.37,0,0,1-1.49-1.28c0-.59.44-1.26,1.63-1.43a8.11,8.11,0,0,1,1.12-.07c.24,0,.48,0,.73,0a12.54,12.54,0,0,0,1.64-2.93s0,0,0,0l-.09,0a2.56,2.56,0,0,1-.94.2c-.5,0-1-.19-1-.69a.45.45,0,0,1,.45-.5l.16,0a2.66,2.66,0,0,0,.5.05,3.32,3.32,0,0,0,.57-.06,5,5,0,0,1,1.08-.18c.36,0,.81.17.81.66a1.54,1.54,0,0,1-.25.74c-.41.67-1.09,1.8-1.82,2.84a15,15,0,0,1,2.65.71,4.55,4.55,0,0,0,.21-1.1.51.51,0,0,1,.54-.48.59.59,0,0,1,.61.61,7,7,0,0,1-.33,1.4,9.85,9.85,0,0,1,2.06,1.26.67.67,0,0,1,.25.53.64.64,0,0,1-.6.67.62.62,0,0,1-.44-.19,8.22,8.22,0,0,0-1.75-1.25A5.27,5.27,0,0,1,528.16,472.51Zm-3.28-3.44c0,.13.14.3.43.3s.51,0,1.23-.77C524.93,468.6,524.88,469,524.88,469.07Z" transform="translate(-382.13 -270.28)"/><path class="cls-2" d="M540.26,467.56c-.68,0-1.33,0-1.91,0a1.4,1.4,0,0,1-1.52-1.54c0-.32,0-.68,0-1.06s0-.72,0-1a.56.56,0,0,1,.6-.56.57.57,0,0,1,.61.54v0c0,.35,0,.73,0,1.1s0,.51,0,.71c0,.79.25.81,2.23.81v-3.59a.56.56,0,0,1,.61-.53.57.57,0,0,1,.63.53v3.59l1.55,0c.75,0,.79-.49.79-1.39,0-.4,0-.81,0-1.15v0a.53.53,0,0,1,.59-.52.59.59,0,0,1,.64.55c0,.3,0,.64,0,1s0,.71,0,1.05a1.55,1.55,0,0,1-1.63,1.56c-.6,0-1.25,0-1.9,0v3.89c.74,0,1.46,0,2,0,.71,0,.79-.43.79-1.45,0-.46,0-.94,0-1.28v0a.53.53,0,0,1,.59-.52.57.57,0,0,1,.63.55c0,.3,0,.69,0,1.09s0,.8,0,1.14a1.55,1.55,0,0,1-1.63,1.58c-.83,0-1.94.05-3,.05s-2.16,0-2.91-.05a1.42,1.42,0,0,1-1.52-1.56c0-.32,0-.73,0-1.15s0-.82,0-1.14a.56.56,0,0,1,.6-.56.57.57,0,0,1,.61.54v0c0,.35,0,.8,0,1.22,0,1.24,0,1.52.73,1.55.54,0,1.24,0,2,0Z" transform="translate(-382.13 -270.28)"/><path class="cls-2" d="M551.28,472.36c-2.39,0-2.49-1.39-2.49-2.58,0-1.37.14-3.11.14-4.52a10.94,10.94,0,0,0-.07-1.37s0-.08,0-.12a.59.59,0,0,1,.62-.6.65.65,0,0,1,.67.58,7.64,7.64,0,0,1,0,.86c0,1.48-.25,3.36-.25,5,0,1,.05,1.58,1.23,1.58a8.46,8.46,0,0,0,2.87-.62,1,1,0,0,1,.37-.09.57.57,0,0,1,.59.58.82.82,0,0,1-.59.75A9.18,9.18,0,0,1,551.28,472.36Z" transform="translate(-382.13 -270.28)"/><path class="cls-2" d="M559.7,472.84c-1,0-2-.66-2-1.53,0-1.12,1.44-1.37,2.34-1.37a5.46,5.46,0,0,1,.9.07v-.21c0-.18,0-.37,0-.58,0-.38-.07-.76-.1-1.17a3.86,3.86,0,0,1-.91.12c-.23,0-1.45-.09-1.45-.9,0-.23.1-.62.89-1.32.15-.13.26-.25.26-.38,0-.32-1-.68-1.8-.7-.43,0-.63-.25-.63-.5a.56.56,0,0,1,.64-.54c.53,0,2.51.44,2.88,1.28v-.56c0-.49,0-1,0-1.35a.54.54,0,0,1,.55-.6.6.6,0,0,1,.62.6v0c-.06.81-.12,1.95-.12,3.09v.32a2.11,2.11,0,0,0,.58-.42.61.61,0,0,1,.43-.2.58.58,0,0,1,.56.58c0,.59-1,1-1.54,1.18,0,.45,0,.89.09,1.26s.09.79.1,1.23c.87.32,1.8.88,1.8,1.47a.65.65,0,0,1-.6.67.72.72,0,0,1-.52-.28,3.32,3.32,0,0,0-.83-.69A2.4,2.4,0,0,1,559.7,472.84Zm.14-2c-.84,0-1.1.22-1.1.44s.45.52.86.52a1.25,1.25,0,0,0,1.19-.83A3.88,3.88,0,0,0,559.84,470.86Zm.87-5.13a1.48,1.48,0,0,1-.39.5c-.69.55-.71.73-.71.77s.2.17.34.17a2.87,2.87,0,0,0,.8-.14C560.73,466.6,560.72,466.16,560.71,465.73Z" transform="translate(-382.13 -270.28)"/><path class="cls-2" d="M571,470.24a1.88,1.88,0,0,1-1.75-1.95,1.34,1.34,0,0,1,1.38-1.41,2.08,2.08,0,0,1,.55.07c0-.4-.06-.76-.09-1.09a16.86,16.86,0,0,0-4.4.95.93.93,0,0,1-.22,0,.59.59,0,0,1-.58-.6.67.67,0,0,1,.56-.64,26.73,26.73,0,0,1,4.6-.82v-.38c0-1.06,0-1.62.66-1.62a.62.62,0,0,1,.66.56.22.22,0,0,1,0,.11,8.11,8.11,0,0,0-.15,1.23c1-.06,1.93-.08,2.9-.08.5,0,.76.3.76.6a.65.65,0,0,1-.71.6h-.06c-.59,0-1.19-.05-1.79-.05-.37,0-.74,0-1.11,0,0,.81.07,1.57.08,1.72a2,2,0,0,1,.64,1.43,2.42,2.42,0,0,1-.39,1.21,5.88,5.88,0,0,1-4.15,2.71.6.6,0,0,1-.66-.57c0-.24.17-.5.58-.58a4.91,4.91,0,0,0,2.82-1.47Zm-.2-2.39a.51.51,0,0,0-.54.54.85.85,0,0,0,.75.87.52.52,0,0,0,.52-.51s0-.06,0-.1a1.5,1.5,0,0,0-.09-.39A.76.76,0,0,0,570.79,467.85Z" transform="translate(-382.13 -270.28)"/><path class="cls-2" d="M576.64,473a1.37,1.37,0,1,1,1.37-1.36A1.36,1.36,0,0,1,576.64,473Zm0-2.26a.9.9,0,0,0-.91.9.91.91,0,0,0,1.82,0A.89.89,0,0,0,576.64,470.73Z" transform="translate(-382.13 -270.28)"/></g></g></svg>