<svg id="レイヤー_1" data-name="レイヤー 1" xmlns="http://www.w3.org/2000/svg" viewBox="0 0 278 184"><defs><style>.cls-1{fill:#d6d6d6;}.cls-2{isolation:isolate;}.cls-3{fill:#040000;}</style></defs><g id="トップ_ユース紹介文" data-name="トップ ユース紹介文"><rect id="長方形_5" data-name="長方形 5" class="cls-1" width="278" height="184"/><g id="YOUTH_SENSE_は_夢追い人で溢れる鹿児島を創る_をビジョンに掲げ活動する学生団体です_2018年に発足し_その後カフェ_バーの経営_キャリア支援_グッズ販売_WEB開発など_さまざまな分野で活動してきました_" data-name="YOUTH SENSE は 夢追い人で溢れる鹿児島を創る をビジョンに掲げ活動する学生団体です 2018年に発足し その後カフェ バーの経営 キャリア支援 グッズ販売 WEB開発など さまざまな分野で活動してきました " class="cls-2"><g class="cls-2"><path class="cls-3" d="M184.88,353.36h0a.64.64,0,1,1,0,1.27h0l-1,0c-.42,0-.83,0-1.12,0A.61.61,0,0,1,182,354a.63.63,0,0,1,.67-.63h.2c.14,0,.19-.11.19-.24,0-.66,0-1.32,0-2.06a.51.51,0,0,0-.13-.41c-.77-1.16-1.81-2.73-2.45-3.68a.35.35,0,0,0-.32-.16c-.22,0-.76,0-.76-.61a.61.61,0,0,1,.66-.62h.06l.91,0,1.15,0h0c.46,0,.68.27.68.57a.71.71,0,0,1-.73.66c-.09,0-.16,0-.16.09a.19.19,0,0,0,0,.1c1.55,2.39,1.62,2.49,1.69,2.49a14.86,14.86,0,0,0,1.74-2.59c0-.06-.07-.09-.15-.09a.65.65,0,0,1-.71-.62.63.63,0,0,1,.68-.61h.06l.87,0,1.09,0c.15,0,.73,0,.73.62a.62.62,0,0,1-.68.61h0c-.14,0-.19,0-.28.16-.63,1-1.75,2.67-2.42,3.62a.6.6,0,0,0-.15.48c0,.54,0,1.31,0,2.06,0,.16,0,.22.21.22Z" transform="translate(-158.23 -328.55)"/><path class="cls-3" d="M188.06,350.12a4.63,4.63,0,1,1,4.62,4.65A4.45,4.45,0,0,1,188.06,350.12Zm7.85,0a3.24,3.24,0,1,0-3.23,3.42A3.22,3.22,0,0,0,195.91,350.12Z" transform="translate(-158.23 -328.55)"/><path class="cls-3" d="M204.62,346.85a.68.68,0,0,1-.72-.66.61.61,0,0,1,.66-.6h.06l.88,0,1.13,0h0a.63.63,0,1,1,0,1.26h-.05l-.12,0c-.11,0-.17,0-.17.21,0,.54,0,1,0,1.5,0,.76,0,1.5,0,2.36a3.56,3.56,0,0,1-3.62,3.86,3.51,3.51,0,0,1-3.58-3.75V351c0-.89,0-1.8,0-2.7,0-.41,0-.82,0-1.21,0-.12,0-.21-.16-.21h0l-.15,0a.64.64,0,0,1-.72-.64.62.62,0,0,1,.66-.62h.06l.9,0,1.13,0h0a.62.62,0,0,1,.69.63.63.63,0,0,1-.67.63h0l-.17,0h0c-.16,0-.18.06-.18.23v.58c0,.92,0,1.83,0,2.77V351a2.2,2.2,0,0,0,2.2,2.42,2.34,2.34,0,0,0,2.33-2.51c0-1.05,0-2.07,0-3.09v-.76c0-.2,0-.24-.21-.24Z" transform="translate(-158.23 -328.55)"/><path class="cls-3" d="M210.44,346.77c-1,0-1.08,0-1.24.54,0,.11-.06.24-.11.39a.65.65,0,0,1-.63.49.62.62,0,0,1-.65-.63.94.94,0,0,1,.06-.31c.38-1.15.59-1.68,1.86-1.68H210c.37,0,1,0,1.64,0s1.67,0,2.22,0h.12c.95,0,1.45.28,1.7,1,.07.19.21.46.29.72a.68.68,0,0,1,0,.27.64.64,0,0,1-.66.64.65.65,0,0,1-.64-.48,2.57,2.57,0,0,0-.11-.36c-.17-.55-.3-.57-.93-.57-1,0-1,0-1,.27,0,.89,0,2.17,0,3.44,0,.92,0,1.83,0,2.59,0,.26.12.28.34.28a.63.63,0,0,1,.69.64.62.62,0,0,1-.66.64h0c-.3,0-.64,0-1,0s-.78,0-1,0a.63.63,0,0,1-.7-.64.62.62,0,0,1,.65-.64h.05c.21,0,.33,0,.33-.27,0-1,0-2.43,0-3.91,0-.73,0-1.46,0-2.13C211.26,346.77,211.26,346.77,210.44,346.77Z" transform="translate(-158.23 -328.55)"/><path class="cls-3" d="M224.87,353.37h0a.63.63,0,0,1,.7.64.62.62,0,0,1-.67.62h0l-1,0c-.4,0-.77,0-1.06,0a.66.66,0,0,1-.72-.64.62.62,0,0,1,.66-.62H223a.19.19,0,0,0,.21-.2c0-.54,0-1,0-1.44s0-.74,0-1-.06-.24-.26-.25c-.41,0-1.06,0-1.75,0s-1.66,0-2.13,0c-.1,0-.25,0-.25.23s0,.81,0,1.48v.89c0,.12,0,.24.2.24h.16a.63.63,0,1,1,0,1.26h-.05c-.31,0-.63,0-1,0s-.77,0-1,0h-.05a.63.63,0,1,1,0-1.26h.29a.17.17,0,0,0,.13-.19c0-1.21,0-2.58,0-3.86,0-.8,0-1.54,0-2.2,0-.14,0-.29-.18-.29h0l-.18,0a.64.64,0,0,1-.72-.64.61.61,0,0,1,.66-.62h.06l.88,0,1.13,0h0a.63.63,0,1,1,0,1.26h-.13c-.15,0-.24,0-.24.24,0,.43,0,.82,0,1.17s0,.61,0,.8.1.24.21.24c.3,0,1.07,0,1.87,0s1.66,0,2.09,0c.17,0,.22-.08.22-.22s0-.47,0-.82,0-.77,0-1.22c0-.18-.11-.21-.26-.21l-.13,0a.64.64,0,0,1-.72-.64.62.62,0,0,1,.66-.62h.06l.9,0,1.13,0h0a.63.63,0,1,1,0,1.26h-.12c-.13,0-.24,0-.24.2,0,.8,0,1.77,0,2.76,0,1.19,0,2.4,0,3.33,0,.15,0,.19.2.23Z" transform="translate(-158.23 -328.55)"/><path class="cls-3" d="M232.74,354.76a3.61,3.61,0,0,1-1.64-.36.26.26,0,0,0-.11,0,.17.17,0,0,0-.12.08.68.68,0,0,1-.52.24.59.59,0,0,1-.64-.59v-.05c0-.2,0-.45,0-.7s0-.65,0-.9v0a.58.58,0,0,1,.65-.57.58.58,0,0,1,.63.56v.1c0,.68,1,1,1.73,1,1.22,0,1.66-.78,1.66-1.32a1.61,1.61,0,0,0-.93-1.35c-.53-.3-1.2-.67-1.83-1a2.28,2.28,0,0,1,1-4.41,3.11,3.11,0,0,1,1.33.28.13.13,0,0,0,.09,0,.25.25,0,0,0,.11,0,.7.7,0,0,1,.51-.19c.33,0,.65.17.65.5v0c0,.23,0,.45,0,.69s0,.54,0,.76c0,.45-.43.57-.65.57a.56.56,0,0,1-.63-.52v-.05s0-.1,0-.13c0-.35-.55-.76-1.43-.76a1.13,1.13,0,0,0-1.27,1.05,1.28,1.28,0,0,0,.78,1.09c.5.26,1.32.63,1.88.93a2.83,2.83,0,0,1,1.7,2.45A2.8,2.8,0,0,1,232.74,354.76Z" transform="translate(-158.23 -328.55)"/><path class="cls-3" d="M239.84,353.42c1.92,0,2-.05,2.2-.78a.61.61,0,0,1,.6-.47.64.64,0,0,1,.66.64,3.19,3.19,0,0,1-.24.78c-.24.62-.68,1-1.95,1l-2.39,0c-.57,0-1.11,0-1.56,0a.65.65,0,0,1-.72-.62.62.62,0,0,1,.66-.63h.12c.21,0,.27-.06.28-.24.06-.79.07-3,.07-4.78v-1.27c0-.18,0-.28-.31-.28s-.77-.06-.77-.61a.62.62,0,0,1,.67-.61h.05l1.18,0,2.54,0c1.47,0,1.65.54,1.9,1.44a.85.85,0,0,1,0,.26.62.62,0,0,1-.66.62.61.61,0,0,1-.63-.52c-.09-.44-.23-.6-.83-.6l-1.58,0c-.24,0-.31.05-.33.32,0,.54,0,1.37,0,2.18,0,.12.06.15.17.15h1.19c.21,0,.24-.18.24-.38a.62.62,0,0,1,.63-.66.57.57,0,0,1,.59.61v0c0,.27,0,.6,0,.91s0,.74,0,1V351a.58.58,0,0,1-.62.58.57.57,0,0,1-.6-.58V351c0-.05,0-.11,0-.16s0-.25-.26-.25H239c-.15,0-.18.06-.18.19,0,1.09,0,2.09,0,2.36S238.91,353.42,239.84,353.42Z" transform="translate(-158.23 -328.55)"/><path class="cls-3" d="M250.18,354.1c-.84-1.34-3.1-5.47-3.74-6.56-.1-.17-.17-.24-.22-.24s-.09.28-.09.63c0,.94,0,3.55.06,5.14,0,.22.11.3.28.3h0a.63.63,0,0,1,.7.62.63.63,0,0,1-.68.63h-.05l-.93,0c-.37,0-.73,0-1,0a.65.65,0,0,1-.72-.63.62.62,0,0,1,.66-.62h.18c.13,0,.24-.05.24-.27,0-1,0-2.05,0-3.09s0-2,0-2.85c0-.25,0-.31-.23-.31s-.79,0-.79-.64a.62.62,0,0,1,.66-.63h1a2,2,0,0,1,1.77,1c.88,1.49,2.59,4.67,3.41,5.91.08.11.15.18.21.18s.09-.12.09-.55c0-.92,0-3.46-.06-5,0-.28-.07-.33-.3-.33h-.1a.65.65,0,0,1-.72-.63.61.61,0,0,1,.66-.62h.06l.86,0,1.1,0c.33,0,.72.12.72.61a.64.64,0,0,1-.69.64h0c-.21,0-.23.14-.23.26,0,.72,0,1.55,0,2.4,0,1.46,0,3,0,4v0a1.08,1.08,0,0,1-1.08,1.13A1.18,1.18,0,0,1,250.18,354.1Z" transform="translate(-158.23 -328.55)"/><path class="cls-3" d="M257.07,354.76a3.55,3.55,0,0,1-1.64-.36l-.11,0a.14.14,0,0,0-.12.08.7.7,0,0,1-.53.24.6.6,0,0,1-.64-.59v-.05c0-.2,0-.45,0-.7s0-.65,0-.9v0a.59.59,0,0,1,.65-.57.58.58,0,0,1,.64.56v.1c0,.68,1,1,1.72,1,1.23,0,1.66-.78,1.66-1.32a1.62,1.62,0,0,0-.92-1.35c-.53-.3-1.2-.67-1.84-1a2.39,2.39,0,0,1-1.53-2.16,2.36,2.36,0,0,1,2.59-2.25,3.17,3.17,0,0,1,1.33.28.11.11,0,0,0,.08,0,.18.18,0,0,0,.11,0,.71.71,0,0,1,.52-.19c.32,0,.64.17.64.5v0c0,.23,0,.45,0,.69s0,.54,0,.76c0,.45-.43.57-.64.57s-.64-.17-.64-.52v-.05s0-.1,0-.13c0-.35-.55-.76-1.43-.76a1.13,1.13,0,0,0-1.27,1.05,1.28,1.28,0,0,0,.78,1.09c.51.26,1.32.63,1.89.93a2.62,2.62,0,0,1-1.31,5.05Z" transform="translate(-158.23 -328.55)"/><path class="cls-3" d="M264.16,353.42c1.92,0,2-.05,2.21-.78a.6.6,0,0,1,.6-.47.65.65,0,0,1,.66.64,3.7,3.7,0,0,1-.24.78c-.24.62-.69,1-2,1l-2.39,0c-.57,0-1.11,0-1.55,0a.64.64,0,0,1-.72-.62.62.62,0,0,1,.66-.63h.12c.2,0,.26-.06.27-.24.06-.79.07-3,.07-4.78v-1.27c0-.18,0-.28-.31-.28s-.77-.06-.77-.61a.62.62,0,0,1,.68-.61h0l1.18,0,2.54,0c1.48,0,1.66.54,1.91,1.44a1.32,1.32,0,0,1,0,.26.62.62,0,0,1-.66.62.61.61,0,0,1-.64-.52c-.08-.44-.23-.6-.83-.6l-1.58,0c-.24,0-.31.05-.32.32,0,.54,0,1.37,0,2.18,0,.12.06.15.17.15h1.2c.2,0,.24-.18.24-.38a.62.62,0,0,1,.62-.66.57.57,0,0,1,.59.61v0c0,.27,0,.6,0,.91s0,.74,0,1V351a.61.61,0,0,1-1.21,0V351c0-.05,0-.11,0-.16s0-.25-.25-.25h-1.2c-.15,0-.18.06-.18.19,0,1.09,0,2.09,0,2.36S263.24,353.42,264.16,353.42Z" transform="translate(-158.23 -328.55)"/><path class="cls-3" d="M273.57,354.77a.63.63,0,0,1-.59-.51,8.91,8.91,0,0,1-.36-2.62,13.47,13.47,0,0,1,.08-1.56c.15-1.34.42-2.53.51-3.27a.54.54,0,0,1,.55-.56.6.6,0,0,1,.62.58s0,.06,0,.1c-.08.52-.3,1.35-.47,2.23a12.06,12.06,0,0,0-.26,2.06c0,.45.07.54.1.54s.09-.07.16-.21c.34-.73.53-.87.72-.87a.53.53,0,0,1,.51.51.65.65,0,0,1-.06.23,7.15,7.15,0,0,0-.95,2.36c0,.14,0,.29,0,.43A.59.59,0,0,1,273.57,354.77Zm3.9,0a1.77,1.77,0,0,1-1.86-1.5c0-.91,1.11-1.28,2.22-1.28a6.08,6.08,0,0,1,1.11.12c0-.11,0-.22,0-.34s0-.42,0-.67c-.05-.52-.11-1.4-.15-2.34a4.36,4.36,0,0,0-2.16.88.55.55,0,0,1-.38.16.57.57,0,0,1-.55-.57c0-.27.17-.88,3.07-1.52,0-.51,0-1,0-1.37a.5.5,0,0,1,.55-.49.51.51,0,0,1,.56.46v.06c0,.34-.07.72-.08,1.12l.64-.11h.16a.54.54,0,0,1,.61.51c0,.26-.2.52-.65.58l-.78.11c0,.89.05,1.76.11,2.4a11.73,11.73,0,0,1,.1,1.33v.13a4.71,4.71,0,0,1,1.38.84.68.68,0,0,1,.23.49.64.64,0,0,1-.62.67.6.6,0,0,1-.43-.21,3.88,3.88,0,0,0-.86-.7A2.79,2.79,0,0,1,277.47,354.75Zm.16-1.86c-.93,0-1,.3-1,.41s.16.44.68.44a1.76,1.76,0,0,0,1.34-.69A3.81,3.81,0,0,0,277.63,352.89Z" transform="translate(-158.23 -328.55)"/><path class="cls-3" d="M284.81,355.17a4.62,4.62,0,0,0-1.47-1.26.54.54,0,0,1-.33-.48.54.54,0,0,1,.57-.53c.42,0,2.34,1.06,2.34,1.87a.66.66,0,0,1-.65.66A.55.55,0,0,1,284.81,355.17Z" transform="translate(-158.23 -328.55)"/><path class="cls-3" d="M292.09,349.64a.32.32,0,0,1-.31.36.34.34,0,0,1-.32-.35c0-.54,0-1,0-1.49,0-.79,0-1.48,0-2.23a1.32,1.32,0,0,1,1.36-1.42,5.72,5.72,0,0,1,.58,0c.42,0,.79,0,1.23,0a.31.31,0,1,1,0,.62h0c-.07,0-.41,0-1.66,0a.82.82,0,0,0-.85.88c0,.47,0,.95,0,1.48s0,1.34,0,2.16Z" transform="translate(-158.23 -328.55)"/><path class="cls-3" d="M303.4,346.39v.17c0,.26-.27.39-.53.39s-.58-.14-.58-.39v-.17h-1.48v.17c0,.26-.27.39-.53.39s-.56-.14-.56-.39v-.17h-2.65a.46.46,0,0,1-.51-.45.5.5,0,0,1,.51-.5l2.65,0v-.39c0-.26.26-.39.54-.39s.55.13.55.39v.39h1.48v-.39c0-.27.28-.4.56-.4s.55.13.55.4v.39l2.74,0a.48.48,0,1,1,0,.95Zm1.88,5.61c0-1,0-1.06-.74-1.08l-2.79,0a.39.39,0,0,1,.09.23.51.51,0,0,1-.21.38l1.86,0c.65,0,.94.31.94.68a1,1,0,0,1-.25.6c-1.18,1.35-2.77,2.53-6.62,2.53a.5.5,0,0,1-.52-.52.46.46,0,0,1,.47-.48h0c.21,0,.4,0,.59,0a8.2,8.2,0,0,0,2.52-.38,6.9,6.9,0,0,0-.67-.32.35.35,0,0,1-.25-.32.49.49,0,0,1,.5-.46,6.09,6.09,0,0,1,1.54.61,3,3,0,0,0,1.21-1.05c0-.06-.05-.08-.1-.08h-.05c-.07,0-1.65,0-2.23,0a6.87,6.87,0,0,1-2.8,1.43.47.47,0,0,1-.51-.46.5.5,0,0,1,.38-.46,8.31,8.31,0,0,0,3.15-2l-2.26,0c-.64,0-.74.15-.78.59V352h0c0,.29-.28.44-.56.44s-.56-.14-.56-.45,0-.3,0-.46,0-.32,0-.51c0-.59.47-1,1.39-1l3.87,0,3.18,0a1.25,1.25,0,0,1,1.36,1.08c0,.18,0,.35,0,.5,0,.44-.05.86-.63.86a.51.51,0,0,1-.56-.49Zm-3.44-2.35h-2.78c-1.25,0-1.29-.52-1.29-1.31s.07-1.27,1.24-1.28l2.78,0,2.74,0c.61,0,1.11.13,1.11,1.28,0,.83-.17,1.3-1.21,1.31Zm-1.79-1.84h-.73c-.32,0-.5.09-.5.54s0,.5.5.5h.73Zm2.18,0h-1.18v1.06h1.18Zm1,1.06h.86c.47,0,.49-.23.49-.51s-.05-.53-.51-.53h-.84Z" transform="translate(-158.23 -328.55)"/><path class="cls-3" d="M308.87,355.24a.72.72,0,0,1-.67-.66.52.52,0,0,1,.3-.45,7.55,7.55,0,0,0,1.68-1.24c0-.54,0-1,0-1.46v-.49c0-.29-.13-.33-.56-.33h-.52c-.26,0-.69,0-.69-.5a.54.54,0,0,1,.53-.58h1.22c.78,0,1.14.36,1.14,1.13s0,1.52,0,2.29c.77,1,1.93,1.21,3.61,1.21,1.17,0,2.43-.13,3.37-.2h.06a.58.58,0,0,1,.59.58.62.62,0,0,1-.62.6c-.74.07-1.83.14-2.91.14-3.18,0-3.87-.66-4.65-1.46C309.82,354.79,309.2,355.24,308.87,355.24Zm1.53-7.81a4,4,0,0,0-1.24-1.08.42.42,0,0,1-.25-.37.63.63,0,0,1,.63-.57c.32,0,1.92.91,1.92,1.6a.69.69,0,0,1-.63.68A.53.53,0,0,1,310.4,347.43Zm3.69-1.4c.06-.23.12-.52.16-.78a.56.56,0,0,1,.62-.48.61.61,0,0,1,.68.55,2.23,2.23,0,0,1-.19.7h1.24a.92.92,0,0,1,1,.79c0,.3,0,.64,0,.94,0,.79-.08,1.4-1.23,1.44l-1.74,0-1.15,0v.8l2,0h1.26c.86,0,1.2.44,1.21.95,0,.19,0,.38,0,.57,0,.35,0,.7,0,1a1,1,0,0,1-1,.84c-.64,0-1.39,0-2.09,0-1.4,0-2.39,0-2.41-1.1,0-.55,0-1.15,0-1.75,0-1.2,0-2.42,0-3.44a1,1,0,0,1,1.13-1.07Zm.89,2.28c1.51,0,1.51,0,1.51-.62s0-.77-.38-.77h-1.5c-1,0-1.07,0-1.07.55v.82C313.92,348.31,314.46,348.31,315,348.31Zm-1.44,2.88v.67c0,.53.09.55,1.49.55,1.59,0,1.74,0,1.76-.36,0-.11,0-.26,0-.41s0-.32,0-.44a.38.38,0,0,0-.41-.31h-.65c-.7,0-1.56,0-2.19,0Z" transform="translate(-158.23 -328.55)"/><path class="cls-3" d="M324.11,353.77a2.29,2.29,0,0,1-1.43-.63,6.3,6.3,0,0,1-1.75-3.61c-.09-.45-.22-1.18-.22-1.28a.59.59,0,0,1,.6-.58.64.64,0,0,1,.6.57c.07.38.09.79.16,1.17.49,2.8,1.62,2.9,1.69,2.9s.23-.09.34-.38.19-.63.34-1a.45.45,0,0,1,.44-.33.64.64,0,0,1,.63.6s0,.05,0,.09c-.07.4-.31,1.18-.34,1.55A1,1,0,0,1,324.11,353.77Zm4.61-2.73a4.27,4.27,0,0,0-1.57-2.42.47.47,0,0,1-.21-.38.52.52,0,0,1,.54-.49.81.81,0,0,1,.51.2c.5.43,2,1.75,2,3a.67.67,0,0,1-.66.69A.6.6,0,0,1,328.72,351Z" transform="translate(-158.23 -328.55)"/><path class="cls-3" d="M337.61,347.42a.31.31,0,0,1,0,.1,7.61,7.61,0,0,0,4.39,6.23.61.61,0,0,1,.47.59.76.76,0,0,1-.79.73c-1,0-3.55-2.18-4.6-4.91a8.05,8.05,0,0,1-4.31,5,.93.93,0,0,1-.35.08.7.7,0,0,1-.7-.66.67.67,0,0,1,.45-.59c4.09-1.82,4.2-6,4.2-6.93,0-.36,0-.77-.05-1.13v0a.61.61,0,0,1,.67-.6.62.62,0,0,1,.66.63c0,.42,0,.94-.05,1.45Z" transform="translate(-158.23 -328.55)"/><path class="cls-3" d="M350.81,354.69h-.12c-2.6-.24-4.25-2-4.25-3.89a3.37,3.37,0,0,1,.87-2.19.41.41,0,0,0,.06-.11s0,0,0,0l-.12,0c-1.88,1-2.11,1.05-2.37,1.05a.64.64,0,0,1-.18-1.27c.25-.09.93-.29,1.29-.42.57-.21,1.56-.52,2.75-1a9.33,9.33,0,0,1,3.18-.74c.6,0,.82.28.82.59,0,.61-.51.74-1,.74h-.57c-1.86,0-3.68,1.58-3.68,3.19,0,1.44,1.37,2.66,3.25,2.66.6,0,.89.35.89.71S351.36,354.69,350.81,354.69Zm1-4.21a4.44,4.44,0,0,0-1-.74.42.42,0,0,1-.3-.38.5.5,0,0,1,.53-.46c.16,0,1.62.55,1.62,1.17a.58.58,0,0,1-.52.57A.41.41,0,0,1,351.84,350.48Zm1.38-1a4.13,4.13,0,0,0-1-.7.42.42,0,0,1-.31-.38.5.5,0,0,1,.52-.47c.19,0,1.63.51,1.63,1.13a.56.56,0,0,1-.5.57A.43.43,0,0,1,353.22,349.48Z" transform="translate(-158.23 -328.55)"/><path class="cls-3" d="M356.57,349.64a4.75,4.75,0,0,0-1.39-.77.41.41,0,0,1-.3-.39.59.59,0,0,1,.58-.58,4.44,4.44,0,0,1,1.75.71.6.6,0,0,1,.25.5.63.63,0,0,1-.55.66A.49.49,0,0,1,356.57,349.64Zm-.93,5.45a.62.62,0,0,1-.63-.58.55.55,0,0,1,.14-.36,8.79,8.79,0,0,0,1.48-2.9.53.53,0,0,1,.51-.36.56.56,0,0,1,.57.55,8.72,8.72,0,0,1-1.5,3.32A.68.68,0,0,1,355.64,355.09Zm1.41-8.15a4.94,4.94,0,0,0-1.2-1,.45.45,0,0,1-.22-.37.59.59,0,0,1,.6-.54c.28,0,1.83.77,1.83,1.44a.67.67,0,0,1-.61.65A.52.52,0,0,1,357.05,346.94ZM358,355a.48.48,0,1,1,0-1h.67c0-.74,0-1.62,0-2.13,0-.7.47-1,1.2-1.06h3.3a1.09,1.09,0,0,1,1.21,1.07c0,.31,0,.73,0,1.17s0,.64,0,.95h.65a.48.48,0,1,1,0,1Zm6.88-6.85-1.88,0a6.32,6.32,0,0,0,2.38,1.88.51.51,0,0,1,.31.48.62.62,0,0,1-.6.61c-.52,0-2.14-1.29-3.17-3h-.81c-.95,1.78-2.46,3.08-2.95,3.08a.51.51,0,0,1-.24-1,5.8,5.8,0,0,0,2.08-2.1l-1.47,0h0a.48.48,0,0,1-.51-.5.49.49,0,0,1,.52-.52H362a13,13,0,0,0,.77-1.77.5.5,0,0,1,.5-.39.65.65,0,0,1,.66.59,7,7,0,0,1-.79,1.57h1.77a.49.49,0,0,1,.5.52.48.48,0,0,1-.48.5Zm-4.61-1.08a.43.43,0,0,1-.41-.27,3.55,3.55,0,0,0-.71-1,.47.47,0,0,1-.13-.32.55.55,0,0,1,.56-.5c.56,0,1.31,1.12,1.31,1.45A.63.63,0,0,1,360.27,347.06Zm0,4.61h-.23a.39.39,0,0,0-.42.37c0,.48,0,1.31,0,2h.66Zm1.52,0-.61,0V354h.61Zm1.62,2.36c0-1.4,0-1.72,0-2a.4.4,0,0,0-.44-.37h-.24V354Z" transform="translate(-158.23 -328.55)"/></g><g class="cls-2"><path class="cls-3" d="M180.67,376.91s.08-.09.18-.24.22-.37.34-.57a12.66,12.66,0,0,1,.91-1.3,8.31,8.31,0,0,0,.4-.78l0-.33a4.39,4.39,0,0,0-1.07.53.74.74,0,0,1-.43.16.49.49,0,0,1-.46-.52c0-.4.1-.53,2.09-1.4.09-1,.17-1.84.17-2.37a.52.52,0,0,1,.54-.56.58.58,0,0,1,.6.55c0,.36-.15,1.56-.22,2.17a.49.49,0,0,1,.28.48,4.53,4.53,0,0,1,2.71-1.54,1.28,1.28,0,0,1,1.28,1.43,2,2,0,0,1,0,.24c-.09.78-.43,2.05-.57,3.16a3,3,0,0,0,0,.4c0,.37.13.53.56.53a3.64,3.64,0,0,0,1.33-.38.88.88,0,0,1,.33-.08.53.53,0,0,1,.52.57.7.7,0,0,1-.44.65,4.46,4.46,0,0,1-1.71.37c-.93,0-1.73-.3-1.73-1.51a2.59,2.59,0,0,1,.05-.54c.16-1.09.49-2.35.54-3.13v-.14c0-.39-.15-.53-.36-.53-.64,0-2,1.31-3,2.51,0,.64-.09,1.29-.09,1.9a10.92,10.92,0,0,0,.12,1.69.3.3,0,0,1,0,.13.63.63,0,0,1-.64.63c-.63,0-.65-.71-.65-1.58,0-.42,0-.87,0-1.36-.26.43-.51.93-.73,1.35a1,1,0,0,1-.84.63.45.45,0,0,1-.48-.45,1.21,1.21,0,0,1,.36-.69Z" transform="translate(-158.23 -328.55)"/><path class="cls-3" d="M197.7,375.65c0-1.25-1.52-1.25-1.63-1.25a3.91,3.91,0,0,0-2.86,1.59.63.63,0,0,1-1.12-.34.71.71,0,0,1,.24-.49,30.46,30.46,0,0,0,3.48-4s0,0,0,0l-.08,0a6,6,0,0,1-2.4.88.59.59,0,0,1-.62-.59.52.52,0,0,1,.5-.53,11.72,11.72,0,0,0,3-.81.91.91,0,0,1,.44-.1.75.75,0,0,1,.79.71.87.87,0,0,1-.28.59c-.81.77-1.74,1.79-2.49,2.63a3.16,3.16,0,0,1,1.71-.48,2.32,2.32,0,0,1,2.53,2.12c0,1.6-1.65,3.14-3.73,3.14-1.44,0-2.19-.83-2.19-1.54a1.23,1.23,0,0,1,1.34-1.13,1.72,1.72,0,0,1,1.87,1.5A2.34,2.34,0,0,0,197.7,375.65Zm-3.27,1.29c-.41,0-.42.26-.42.31,0,.47.81.53,1.11.53h.09C195.17,377.26,194.91,376.94,194.43,376.94Z" transform="translate(-158.23 -328.55)"/><path class="cls-3" d="M210.39,370.89h-2.75a.31.31,0,0,1,.19.29v.67h1.44c1,0,1.16.43,1.16,1.41,0,.79,0,1.34-1.24,1.35h-6.26c-.15,2-.74,4.31-1.64,4.31a.58.58,0,0,1-.58-.58.65.65,0,0,1,.15-.41c.89-1.06,1-3.38,1-5.05,0-.74,0-1.35,0-1.67v0a1.17,1.17,0,0,1,1.28-1.23h2.47v-.67a.63.63,0,0,1,1.25,0v.67h3.53a.48.48,0,0,1,0,1Zm-5.69,5.78v1.2c.52-.12,1-.25,1.37-.37a.44.44,0,0,1,.15,0,.46.46,0,0,1,.46.47.53.53,0,0,1-.42.5,19.56,19.56,0,0,1-3.43.83.53.53,0,0,1-.07-1.06c.3,0,.61-.08.9-.13v-2.84a.52.52,0,1,1,1,0v.47h1.4a.46.46,0,0,1,.5.47.47.47,0,0,1-.5.48Zm-.23-5.5a.32.32,0,0,1,.18-.28l-1.15,0c-.39,0-.53.16-.53.46v.05l0,.43h1.48Zm0,1.53H203c0,.32,0,.68,0,1.05l1.5,0Zm2.35-1.53a.32.32,0,0,1,.2-.29h-1.71a.32.32,0,0,1,.18.29v.67h1.33Zm0,1.53h-1.33v1.08h1.33Zm1.08,5c0,.48.23.55.91.55s1.19-.21,1.19-.88a.45.45,0,0,1,.48-.48.57.57,0,0,1,.6.6c0,1-.51,1.75-2.3,1.75-.91,0-1.92-.11-1.92-1.38,0-.72,0-2,0-2.64a.51.51,0,0,1,.52-.53.51.51,0,0,1,.53.52h0V376a15.48,15.48,0,0,0,1.89-.72.42.42,0,0,1,.22-.05.55.55,0,0,1,.51.55.54.54,0,0,1-.37.5,14,14,0,0,1-2.27.65Zm-.07-3.9c1.36,0,1.45,0,1.5-.31a1.49,1.49,0,0,0,0-.25c0-.41-.07-.5-.37-.5l-1.14,0Z" transform="translate(-158.23 -328.55)"/><path class="cls-3" d="M213.47,379.31a.6.6,0,0,1-.61-.61.53.53,0,0,1,.51-.54,3,3,0,0,0,3-2.86.54.54,0,0,1,.56-.56.55.55,0,0,1,.57.56v0A4.24,4.24,0,0,1,213.47,379.31Zm.84-9.8a.59.59,0,0,1,1.16,0l0,4.73c0,.3-.29.46-.58.46a.51.51,0,0,1-.57-.46Zm5.19-.37c.55,0,1.1,0,1.55,0a1.15,1.15,0,0,1,1.2,1c0,.5.05,1.21.05,1.86,0,.39,0,.77,0,1.05a1.28,1.28,0,0,1-1.27,1.17c-.47,0-1,0-1.51,0s-1.12,0-1.6,0a1.24,1.24,0,0,1-1.31-1.15c0-.18,0-.39,0-.62,0-.74,0-1.67,0-2.25a1.17,1.17,0,0,1,1.26-1.1C218.37,369.14,218.93,369.14,219.5,369.14Zm-1.86,3c0,.31,0,.59,0,.76,0,.45.36.47,1.86.47,1.14,0,1.63,0,1.65-.5a7.21,7.21,0,0,0,0-.73Zm3.55-.91c0-.27,0-.51,0-.66,0-.49-.25-.5-1.76-.5-.44,0-.88,0-1.21,0-.54,0-.54.31-.54,1.14Zm-2.25,3.52a.51.51,0,0,1,.57.5c0,.47,0,1.45,0,2s0,.8,1.13.8,1.44-.27,1.44-1a.5.5,0,0,1,.55-.5.58.58,0,0,1,.64.59c0,1.64-1.11,2-2.73,2-1.11,0-2.18-.05-2.18-1.4,0-.47,0-2.08,0-2.46A.54.54,0,0,1,218.94,374.76Z" transform="translate(-158.23 -328.55)"/><path class="cls-3" d="M227.67,374.78v.08c0,.41.3.45.65.45H229c1.28,0,3.25,0,4.63,0,.86,0,1.26.37,1.26,1a2.93,2.93,0,0,1-3,3,6.25,6.25,0,0,1-1.3-.15.45.45,0,0,1-.33-.46.59.59,0,0,1,.09-.32h-3.6c-1,0-1.29-.47-1.3-1.05,0-.17,0-.47,0-.65a.52.52,0,0,1,.57-.5.52.52,0,0,1,.57.49h0c0,.11,0,.33,0,.45,0,.42.08.42,1.54.42v-1.27H228c-.76,0-1.34-.3-1.39-1.19,0-.41,0-1,0-1.73,0-.84,0-1.74,0-2.38a1.11,1.11,0,0,1,1.2-1.16l1.19,0c.06-.23.13-.52.17-.74a.59.59,0,0,1,.63-.46c.33,0,.67.19.67.5a2.41,2.41,0,0,1-.21.7l1.65,0c1,0,1.25.52,1.3.84s0,.71,0,1.13c0,.76,0,1.5-1.31,1.54l-3.14,0h-1.11c0,.14,0,.32,0,.53h7.07a.44.44,0,0,1,.46.45.43.43,0,0,1-.46.46Zm0-2.81v.57h1.4c1,0,2,0,2.66-.05a.38.38,0,0,0,.41-.4s0-.08,0-.13Zm4.49-.73c0-.07,0-.12,0-.17,0-.26-.14-.39-.44-.4s-1,0-1.67,0-1.36,0-1.87,0c-.32,0-.46.18-.48.5v.07Zm-.15,6.05a1,1,0,0,1-.66,1,4.63,4.63,0,0,0,.62.06,1.69,1.69,0,0,0,1.72-1.74c0-.23-.11-.32-.38-.33h-4v1.3c1.58,0,1.59,0,1.59-.54a1.7,1.7,0,0,0,0-.24v0c0-.27.26-.42.54-.42a.53.53,0,0,1,.58.45Z" transform="translate(-158.23 -328.55)"/><path class="cls-3" d="M241.92,375.64c0,.21,0,.42,0,.66a.71.71,0,0,1-.65.73.5.5,0,0,1-.49-.56v-.11a5.81,5.81,0,0,0,.05-.8c-.25.13-1.37.72-1.37,1.47,0,.21.1.92,1.32.92a5.48,5.48,0,0,0,1.51-.26,1.18,1.18,0,0,1,.3,0,.57.57,0,0,1,.62.56c0,.25-.09.86-2.14.86s-2.69-1-2.69-1.9c0-1.47,1.7-2.38,2.33-2.7-.15-.47-.39-.71-.71-.71a1.11,1.11,0,0,0-.62.22c-.51.56-.81.73-1.07.73a.48.48,0,0,1-.52-.46.68.68,0,0,1,.28-.49,6.3,6.3,0,0,0,1.53-1.82,4,4,0,0,1-.58,0c-1.21,0-1.23-.67-1.23-.76a.51.51,0,0,1,.5-.53.77.77,0,0,1,.43.16.82.82,0,0,0,.44.09,4.54,4.54,0,0,0,1-.13,4.47,4.47,0,0,0,.21-.95.48.48,0,0,1,.51-.42.62.62,0,0,1,.65.53,1.82,1.82,0,0,1-.08.44c.36-.18.41-.19.5-.19a.52.52,0,0,1,.51.53c0,.4-.31.64-1.56.94-.18.37-.42.77-.68,1.19a1.61,1.61,0,0,1,1.51,1.13,13.76,13.76,0,0,1,2.77-1,.64.64,0,0,1,.67.62.49.49,0,0,1-.32.47c-.37.16-.77.21-1.39.4s-1,.35-1.49.54A5.24,5.24,0,0,1,241.92,375.64Z" transform="translate(-158.23 -328.55)"/><path class="cls-3" d="M247.24,378.81a.54.54,0,0,1-.55-.53.57.57,0,0,1,.17-.39,5,5,0,0,0,1.07-3.48c0-.39,0-.73,0-1,0-.75.58-1,1.13-1l1,0,1.41,0c.72,0,1.16.27,1.19.87,0,.23,0,.51,0,.8,0,1.24,0,1.71-1.2,1.72h-2.67C248.59,377.48,247.88,378.81,247.24,378.81Zm2-6.85a.44.44,0,0,1-.43-.27c-1.07,1.1-1.42,1.12-1.53,1.12a.63.63,0,0,1-.63-.57.56.56,0,0,1,.29-.47,9.13,9.13,0,0,0,2.21-2.17,1.26,1.26,0,0,1,1.05-.61,1.48,1.48,0,0,1,1.13.61,12.32,12.32,0,0,0,1.88,1.75.49.49,0,0,1,.22.4.66.66,0,0,1-.62.62c-.2,0-.35-.05-1.11-.81a.42.42,0,0,1-.45.4Zm1.42,7.22c-1.52,0-2.15,0-2.15-1.17,0-.82,0-1.61.95-1.67.38,0,.78,0,1.18,0s.81,0,1.21,0a1,1,0,0,1,.94.79,4.63,4.63,0,0,1,0,.54c0,.6,0,1.42-1,1.48Zm-1.79-4.69c0,.17,0,.35,0,.54h2.4a.3.3,0,0,0,.33-.31c0-.07,0-.14,0-.23Zm2.72-.73c0-.08,0-.18,0-.24a.29.29,0,0,0-.33-.29h-2c-.33,0-.41.19-.41.45v.08Zm-.32-2.66-.71-.83c-.12-.13-.21-.19-.31-.19s-.19.08-.29.21a8.58,8.58,0,0,1-.61.81Zm-.51,6.08H250c-.34,0-.36.28-.36.62s0,.45,1.1.45,1.09,0,1.09-.51S251.79,377.18,250.81,377.18Zm2.89-7a.52.52,0,0,1,.55-.54.53.53,0,0,1,.55.54v6.12a.51.51,0,0,1-.55.51.51.51,0,0,1-.55-.51Zm3.27,7.46v0c0,.72-.46,1.58-1.84,1.58-1,0-1.31-.22-1.31-.69a.55.55,0,0,1,.49-.6h.12a3.59,3.59,0,0,0,.74.14c.32,0,.6-.14.61-.65s0-3.78,0-6v-1.9a.58.58,0,0,1,1.16,0v6.65Z" transform="translate(-158.23 -328.55)"/><path class="cls-3" d="M265.14,375.65c0-1.25-1.52-1.25-1.63-1.25a3.91,3.91,0,0,0-2.86,1.59.63.63,0,0,1-1.12-.34.71.71,0,0,1,.24-.49,30.46,30.46,0,0,0,3.48-4s0,0,0,0l-.08,0a6,6,0,0,1-2.4.88.59.59,0,0,1-.62-.59.52.52,0,0,1,.5-.53,11.72,11.72,0,0,0,3-.81.91.91,0,0,1,.44-.1.75.75,0,0,1,.79.71.87.87,0,0,1-.28.59c-.81.77-1.74,1.79-2.49,2.63a3.16,3.16,0,0,1,1.71-.48,2.32,2.32,0,0,1,2.53,2.12c0,1.6-1.65,3.14-3.73,3.14-1.44,0-2.19-.83-2.19-1.54a1.23,1.23,0,0,1,1.34-1.13,1.72,1.72,0,0,1,1.87,1.5A2.34,2.34,0,0,0,265.14,375.65Zm-3.27,1.29c-.41,0-.42.26-.42.31,0,.47.81.53,1.11.53h.09C262.61,377.26,262.35,376.94,261.87,376.94Z" transform="translate(-158.23 -328.55)"/><path class="cls-3" d="M271.05,374.36a.33.33,0,0,1,.31-.36.33.33,0,0,1,.33.35c0,.54,0,1,0,1.48,0,.8,0,1.49,0,2.24a1.31,1.31,0,0,1-1.35,1.42h-.59l-1.22,0a.3.3,0,0,1-.33-.31.3.3,0,0,1,.31-.31h.05c.07,0,.41,0,1.66,0a.81.81,0,0,0,.85-.88c0-.47,0-.95,0-1.48s0-1.34,0-2.16Z" transform="translate(-158.23 -328.55)"/><path class="cls-3" d="M280.56,375.64c0,.21,0,.42,0,.66a.71.71,0,0,1-.65.73.5.5,0,0,1-.49-.56v-.11a5.81,5.81,0,0,0,.05-.8c-.25.13-1.37.72-1.37,1.47,0,.21.1.92,1.32.92a5.48,5.48,0,0,0,1.51-.26,1.18,1.18,0,0,1,.3,0,.57.57,0,0,1,.62.56c0,.25-.09.86-2.14.86s-2.69-1-2.69-1.9c0-1.47,1.7-2.38,2.33-2.7-.15-.47-.39-.71-.71-.71a1.14,1.14,0,0,0-.62.22c-.51.56-.81.73-1.07.73a.48.48,0,0,1-.52-.46.68.68,0,0,1,.28-.49,6.48,6.48,0,0,0,1.54-1.82,4.27,4.27,0,0,1-.59,0c-1.21,0-1.23-.67-1.23-.76a.51.51,0,0,1,.5-.53.77.77,0,0,1,.43.16.82.82,0,0,0,.44.09,4.54,4.54,0,0,0,1-.13,4.47,4.47,0,0,0,.21-.95.48.48,0,0,1,.51-.42.62.62,0,0,1,.65.53,1.82,1.82,0,0,1-.08.44c.36-.18.41-.19.5-.19a.52.52,0,0,1,.51.53c0,.4-.31.64-1.56.94-.18.37-.42.77-.68,1.19A1.61,1.61,0,0,1,280.3,374a13.76,13.76,0,0,1,2.77-1,.64.64,0,0,1,.67.62.49.49,0,0,1-.32.47c-.37.16-.77.21-1.39.4s-1,.35-1.49.54A5.24,5.24,0,0,1,280.56,375.64Z" transform="translate(-158.23 -328.55)"/><path class="cls-3" d="M287.78,376.15c0,.57.23.85.93.94a7.46,7.46,0,0,0,3.28-.42c1-.56,1.8.69.44,1.29a9.54,9.54,0,0,1-4.16.32,1.73,1.73,0,0,1-1.67-1.79c0-1.18.07-2.12.13-3.52a6.58,6.58,0,0,0-.07-1.51.68.68,0,1,1,1.35,0,12.32,12.32,0,0,1-.05,1.5c0,.3,0,.57,0,.83a14.14,14.14,0,0,0,2.19-.64,3.62,3.62,0,0,0,1-.56c.63-.54,1.7.26,1,1a3.72,3.72,0,0,1-1.23.62,17.31,17.31,0,0,1-3.1.84C287.81,375.34,287.8,375.72,287.78,376.15Zm4.21-4.33c-.6-.26-.14-1,.42-.77a3.9,3.9,0,0,1,1.17.72c.47.49-.23,1.22-.62.75A4.29,4.29,0,0,0,292,371.82Zm1.08-1c-.61-.24-.18-1,.38-.78a4,4,0,0,1,1.2.68c.48.48-.19,1.21-.6.77A4.15,4.15,0,0,0,293.07,370.8Z" transform="translate(-158.23 -328.55)"/><path class="cls-3" d="M298.49,375a4.25,4.25,0,0,0-1.48-.62c-.72-.12-.48-1.26.39-1.09a6.08,6.08,0,0,1,1.75.61.63.63,0,0,1,.26.89A.62.62,0,0,1,298.49,375Zm-.06,3.69c-1,.12-1.16-1.13-.39-1.25a3.8,3.8,0,0,0,.92-.3,13.2,13.2,0,0,0,5.48-5.5c.41-.76,1.61-.23,1.06.72a15.12,15.12,0,0,1-5.9,5.92A2.73,2.73,0,0,1,298.43,378.69Zm1.52-5.83a4.63,4.63,0,0,0-1.32-.92c-.68-.28-.18-1.35.63-1a6.23,6.23,0,0,1,1.57,1,.62.62,0,0,1,.05.92A.6.6,0,0,1,300,372.86Zm2.55-2.16c-.6-.25-.13-1,.42-.77a4.3,4.3,0,0,1,1.18.72c.46.5-.23,1.23-.63.76A4.11,4.11,0,0,0,302.5,370.7Zm1.08-1c-.61-.24-.18-1,.38-.78a3.63,3.63,0,0,1,1.2.69c.48.48-.19,1.21-.6.76A4.24,4.24,0,0,0,303.58,369.68Z" transform="translate(-158.23 -328.55)"/><path class="cls-3" d="M312.22,377.12c0,.26-.23.48-.65.51l-.59.05c-.38,0-2.23.24-2.53.28a4.63,4.63,0,0,1-.84.05c-.67-.06-.7-1,.12-.95a5.81,5.81,0,0,0,.59,0l2.45-.3c.05-.28.12-.6.18-.92a.31.31,0,0,1-.13,0l-.59.06c-.37.05-.86.14-1.15.19a4.54,4.54,0,0,1-.82.07c-.66,0-.78-.92,0-.93a4.06,4.06,0,0,0,.6,0l1.27-.16c.21,0,.47-.09.68-.11a.56.56,0,0,1,.29.05c.06-.29.11-.52.13-.64s0-.24-.22-.21c-.4.06-1.76.26-2.08.32a5.39,5.39,0,0,1-1,.11.49.49,0,1,1,0-1,7.32,7.32,0,0,0,.81,0c.3-.05,1.71-.19,2-.24a5.87,5.87,0,0,1,.84-.13c.86,0,1,.67.86,1a11.79,11.79,0,0,0-.43,1.47c-.08.35-.15.71-.23,1C312.06,376.76,312.22,376.91,312.22,377.12Z" transform="translate(-158.23 -328.55)"/><path class="cls-3" d="M317.67,373.54a4.92,4.92,0,0,0-1.7-.81c-.72-.16-.42-1.36.49-1.13a7.62,7.62,0,0,1,2,.8.7.7,0,0,1,.2,1A.65.65,0,0,1,317.67,373.54Zm.52,4.53a2.74,2.74,0,0,1-1.16.38c-1,.08-1.13-1.18-.37-1.26a4,4,0,0,0,.93-.3,11.71,11.71,0,0,0,5.32-5.28c.4-.75,1.61-.25,1.08.71A13.62,13.62,0,0,1,318.19,378.07Z" transform="translate(-158.23 -328.55)"/><path class="cls-3" d="M326.47,378.31a7.72,7.72,0,0,1-.31-2.29,35.69,35.69,0,0,1,.67-5,.59.59,0,0,1,1.17,0,.31.31,0,0,1,0,.09,28.53,28.53,0,0,0-.78,4.28c0,.45.08.49.12.49s.06,0,.09-.08c.37-.71.45-.85.7-.85a.52.52,0,0,1,.49.5.35.35,0,0,1-.06.22,6.29,6.29,0,0,0-.9,2.25c0,.11,0,.22,0,.33a.56.56,0,0,1-.6.62A.64.64,0,0,1,326.47,378.31Zm6.67-.08c-2.08,0-3.66-1.23-3.66-1.82a.6.6,0,0,1,.62-.56.71.71,0,0,1,.54.26,3.08,3.08,0,0,0,2.33.8,7.19,7.19,0,0,0,1-.07h.14a.56.56,0,0,1,.6.58C334.73,378,334.2,378.23,333.14,378.23ZM331.78,373a6.88,6.88,0,0,1-1.62-.18c-.36-.09-.5-.31-.5-.54a.56.56,0,0,1,.55-.56h.12a5.86,5.86,0,0,0,1.16.12,11.52,11.52,0,0,0,1.48-.12h.11a.54.54,0,0,1,.57.56C333.65,372.73,333.32,373,331.78,373Z" transform="translate(-158.23 -328.55)"/><path class="cls-3" d="M337.75,375.21c-.77.41-.87.44-1.06.44a.57.57,0,0,1-.56-.57.54.54,0,0,1,.35-.49c.45-.19.87-.37,1.27-.57v-1.81h-1a.51.51,0,0,1-.53-.54.5.5,0,0,1,.52-.51h1v-1.87a.55.55,0,1,1,1.1,0v1.87h.62a.53.53,0,1,1,0,1h-.62v1.24l.5-.33a.41.41,0,0,1,.25-.08.49.49,0,0,1,.46.5c0,.27-.07.38-1.21,1.07v1.57c0,.19,0,1.29.05,1.71v0a1.31,1.31,0,0,1-1.49,1.35c-.79,0-1.07-.22-1.07-.65a.5.5,0,0,1,.46-.55h.1a2.32,2.32,0,0,0,.38.05c.26,0,.49-.09.49-.4Zm3.91,1.38c0,.41.17.48.88.48.88,0,1.19-.2,1.19-.76a.42.42,0,0,1,.46-.41.5.5,0,0,1,.57.5c0,1.39-1.18,1.53-2.24,1.53-1.37,0-1.86-.36-1.86-1.18,0-.4,0-.93,0-1.35a3.16,3.16,0,0,1-1.26.73.53.53,0,0,1-.53-.5.42.42,0,0,1,.24-.38,6.07,6.07,0,0,0,2.34-2.2h-.05c-1.19-.08-1.2-.71-1.2-1.51,0-.44,0-.92,0-1.32a1.12,1.12,0,0,1,1.18-1.06l1.42,0,1.45,0a1.18,1.18,0,0,1,1.16,1,9.18,9.18,0,0,1,0,.94c0,.33,0,.65,0,.95a1.09,1.09,0,0,1-1.2,1c-.63,0-1.18,0-1.72,0l-.37.6h3.17a1.1,1.1,0,0,1,1.18,1.19c0,2.05-.06,4.41-2.58,4.41a4.91,4.91,0,0,1-1.1-.15.52.52,0,0,1-.41-.51.56.56,0,0,1,.57-.56l.18,0a3.33,3.33,0,0,0,.86.13c.79,0,1.35-.39,1.35-3V375c0-.3-.15-.42-.39-.42h-3.55l-.08.1a.41.41,0,0,1,.27.4v.45a15.3,15.3,0,0,0,1.85-.66.45.45,0,0,1,.66.43.48.48,0,0,1-.35.45,18,18,0,0,1-2.17.6Zm2.74-5.08h-3.13c0,.1,0,.21,0,.31,0,.39.25.41,1.47.41,1.45,0,1.62,0,1.64-.42Zm0-.84c0-.08,0-.14,0-.2,0-.46-.07-.46-1.51-.46l-1.16,0c-.35,0-.42.23-.43.46v.18Z" transform="translate(-158.23 -328.55)"/></g><g class="cls-2"><path class="cls-3" d="M182.19,394.46c0,.36-.13.91-.21,1.5a14.42,14.42,0,0,0-.11,1.76,9,9,0,0,0,.55,3.25,1,1,0,0,1,0,.28.6.6,0,0,1-.62.61.66.66,0,0,1-.62-.47,8.76,8.76,0,0,1-.47-3.15c0-.84.06-1.66.11-2.28s.11-1,.14-1.55a.6.6,0,0,1,1.19,0Zm3.74,2.35a13.58,13.58,0,0,1-2,.31.6.6,0,0,1-.64-.58c0-.27.21-.53.64-.53a6.91,6.91,0,0,0,2.13-.28c0-.68-.06-1.18-.09-1.48,0,0,0-.08,0-.1a.52.52,0,0,1,.57-.54.65.65,0,0,1,.69.55c0,.13,0,.28,0,.46s0,.54,0,.89a4.16,4.16,0,0,1,.84-.14c.4,0,.6.24.6.49a.66.66,0,0,1-.63.62l-.81.12c0,.4,0,.85,0,1.36,0,.14,0,.27,0,.39a5.26,5.26,0,0,1-3.19,5.11.87.87,0,0,1-.31.07.61.61,0,0,1-.61-.59.55.55,0,0,1,.38-.5,4.26,4.26,0,0,0,2.59-4.3c0-.15,0-.91,0-1.36Zm2-2.47a4.7,4.7,0,0,0-.65-1,.43.43,0,0,1-.16-.32.44.44,0,0,1,.46-.38c.45,0,1.25,1.09,1.25,1.45a.56.56,0,0,1-.54.54A.38.38,0,0,1,187.89,394.34Zm1.42-.57a3.92,3.92,0,0,0-.69-1,.41.41,0,0,1-.17-.31.45.45,0,0,1,.47-.4c.48,0,1.27,1.08,1.27,1.42a.55.55,0,0,1-.53.53A.36.36,0,0,1,189.31,393.77Z" transform="translate(-158.23 -328.55)"/><path class="cls-3" d="M192.69,397.68a4.47,4.47,0,0,0-1.4-.77.4.4,0,0,1-.3-.4.59.59,0,0,1,.57-.57,4.34,4.34,0,0,1,1.77.71.6.6,0,0,1,.25.5.64.64,0,0,1-.55.66A.54.54,0,0,1,192.69,397.68Zm-.64,5.42a.63.63,0,0,1-.63-.59.61.61,0,0,1,.14-.36,10.88,10.88,0,0,0,1.61-2.85.51.51,0,0,1,.48-.33.58.58,0,0,1,.6.55,10.4,10.4,0,0,1-1.63,3.27A.71.71,0,0,1,192.05,403.1Zm1.17-8.05a5,5,0,0,0-1.21-1,.44.44,0,0,1-.23-.38.6.6,0,0,1,.6-.54c.2,0,1.85.76,1.85,1.46a.66.66,0,0,1-.62.64A.52.52,0,0,1,193.22,395.05Zm5.25,2.27v1.51l.9,0a1.32,1.32,0,0,1,1.4,1.13c0,.33,0,.69,0,1s0,.55,0,.82c0,.71-.51,1.17-1.42,1.25-.36,0-.9,0-1.44,0-1.82,0-2.81-.06-2.85-1.26,0-.34,0-.69,0-1s0-.56,0-.81a1.25,1.25,0,0,1,1.35-1.18l.89,0v-1.51h-2.47a.53.53,0,0,1-.58-.53.53.53,0,0,1,.58-.53h2.47v-1.41c-.68.08-1.76.15-1.93.15a.52.52,0,0,1-.55-.55.49.49,0,0,1,.49-.53,14.72,14.72,0,0,0,4.48-.65l.23,0a.53.53,0,0,1,.54.55c0,.44-.23.6-2.11.9v1.57H201a.54.54,0,0,1,.6.53.55.55,0,0,1-.6.53Zm1.13,2.95c0-.5-.25-.5-1.7-.5-.44,0-.86,0-1.13,0-.55,0-.55.29-.55,1,0,.26,0,.52,0,.74,0,.57.42.57,1.7.57,1.69,0,1.69,0,1.69-1.17C199.62,400.71,199.61,400.48,199.6,400.27Z" transform="translate(-158.23 -328.55)"/><path class="cls-3" d="M205.42,400.67l-1.59,0h0a.42.42,0,0,1-.46-.42.44.44,0,0,1,.48-.42h1.59v-.47c-1.76,0-1.92,0-1.92-1.7,0-1.48.34-1.49,1.93-1.49v-.49H203.6a.45.45,0,0,1-.48-.43.44.44,0,0,1,.48-.43h1.82v-.51c-.68,0-1.26,0-1.5,0a.47.47,0,0,1-.5-.48.46.46,0,0,1,.49-.46h0c.24,0,.48,0,.73,0a13.85,13.85,0,0,0,2.95-.34h.12a.49.49,0,0,1,.49.49c0,.36-.24.48-1.82.65l0,.59h1.78a.44.44,0,0,1,.49.43s0,.06,0,.08a.49.49,0,0,1,.28-.07h1v-1.87a.51.51,0,0,1,.55-.53.54.54,0,0,1,.58.53l0,1.87h.9a1.23,1.23,0,0,1,1.29,1.33c0,.35,0,.71,0,1.07,0,2.3-.22,5.29-2.45,5.29a3.4,3.4,0,0,1-1-.18.57.57,0,0,1-.39-.54.54.54,0,0,1,.52-.57,1.11,1.11,0,0,1,.23,0,2.31,2.31,0,0,0,.63.12c.52,0,1.38-.31,1.38-4.26,0-.29,0-.56,0-.83a.41.41,0,0,0-.44-.45H211c-.08,2.53-.75,5.25-3,6.79a.67.67,0,0,1-.39.13.57.57,0,0,1-.57-.55.57.57,0,0,1,.28-.47,5.31,5.31,0,0,0,.51-.4,33.55,33.55,0,0,1-4.36.77.48.48,0,0,1-.48-.5.43.43,0,0,1,.42-.47c.65-.05,1.33-.11,2-.21Zm0-2.59h-1c0,.09,0,.16,0,.22,0,.36.14.37,1,.37Zm0-1.18c-.9,0-1,0-1,.43v.12h1Zm1,3.75v.59c.55-.1,1.05-.21,1.5-.31a.18.18,0,0,1,.1,0,.4.4,0,0,1,.39.33,7.67,7.67,0,0,0,1.51-4.93h-1a.49.49,0,0,1-.51-.51.45.45,0,0,1,0-.16.61.61,0,0,1-.28.06H206.4v.48c1.58,0,2,0,2,1.53s-.24,1.67-2,1.67v.46l1.5,0h0a.42.42,0,0,1,.44.41.43.43,0,0,1-.46.41Zm1-3.37c0-.38-.16-.38-1-.38v.55h1Zm-1,.8v.59c.76,0,1,0,1-.38,0-.07,0-.13,0-.21Z" transform="translate(-158.23 -328.55)"/><path class="cls-3" d="M220.2,400.67a1.88,1.88,0,0,1-1.75-1.94,1.35,1.35,0,0,1,1.38-1.41,2.08,2.08,0,0,1,.55.07c0-.4-.06-.76-.08-1.09a17.17,17.17,0,0,0-4.4.94.74.74,0,0,1-.23.05.59.59,0,0,1-.58-.6.67.67,0,0,1,.57-.64,26.61,26.61,0,0,1,4.59-.82v-.38c0-1.06,0-1.62.66-1.62a.61.61,0,0,1,.66.56.41.41,0,0,1,0,.11,9.5,9.5,0,0,0-.16,1.23c1-.06,1.93-.08,2.91-.08.5,0,.75.3.75.6a.64.64,0,0,1-.71.6h-.06c-.58,0-1.18-.05-1.78-.05-.38,0-.75,0-1.12,0a16.68,16.68,0,0,0,.09,1.72,2,2,0,0,1,.63,1.43,2.4,2.4,0,0,1-.38,1.21,5.9,5.9,0,0,1-4.15,2.71.6.6,0,0,1-.66-.57.62.62,0,0,1,.57-.58,4.81,4.81,0,0,0,2.82-1.48Zm-.2-2.38a.51.51,0,0,0-.54.54.85.85,0,0,0,.76.87.52.52,0,0,0,.51-.51s0-.06,0-.1a1.41,1.41,0,0,0-.08-.39A.76.76,0,0,0,220,398.29Z" transform="translate(-158.23 -328.55)"/><path class="cls-3" d="M232.38,399.65c0-1.25-1.52-1.25-1.63-1.25a3.91,3.91,0,0,0-2.86,1.59.63.63,0,0,1-1.12-.34.71.71,0,0,1,.24-.49,30.46,30.46,0,0,0,3.48-4s0,0,0,0l-.08,0a6,6,0,0,1-2.4.88.59.59,0,0,1-.62-.59.52.52,0,0,1,.5-.53,11.72,11.72,0,0,0,3-.81.91.91,0,0,1,.44-.1.75.75,0,0,1,.79.71.87.87,0,0,1-.28.59c-.81.77-1.74,1.79-2.49,2.63a3.16,3.16,0,0,1,1.71-.48,2.32,2.32,0,0,1,2.53,2.12c0,1.6-1.65,3.14-3.73,3.14-1.44,0-2.19-.83-2.19-1.54a1.23,1.23,0,0,1,1.34-1.13,1.72,1.72,0,0,1,1.87,1.5A2.34,2.34,0,0,0,232.38,399.65Zm-3.27,1.29c-.41,0-.42.26-.42.31,0,.47.81.53,1.11.53h.09C229.85,401.26,229.59,400.94,229.11,400.94Z" transform="translate(-158.23 -328.55)"/><path class="cls-3" d="M242.31,400.18a4.58,4.58,0,0,1,0,.53,2.47,2.47,0,0,1-2.59,2.71c-.93,0-1.44-.25-1.44-.72a.56.56,0,0,1,.57-.56.65.65,0,0,1,.19,0,2.47,2.47,0,0,0,.79.13c1.34,0,1.34-1.6,1.34-1.7a2.73,2.73,0,0,0,0-.41l-5.09,0a.52.52,0,0,1-.55-.53.53.53,0,0,1,.54-.55l4.44,0a2.42,2.42,0,0,0-.48-.25c-.25-.08-.36-.24-.36-.4a.59.59,0,0,1,.63-.5,1.46,1.46,0,0,1,.71.24c.31-.2,1-.65,1-.79s-.05-.07-.13-.07a5.37,5.37,0,0,0-.64,0c-.77,0-1.93,0-2.77.06h0a.5.5,0,0,1-.54-.5.51.51,0,0,1,.55-.5c.52,0,1.16,0,1.8,0,.87,0,1.75,0,2.3,0s1,.36,1,.73c0,.59-.63,1.08-1.71,1.75l.17.25,3.57,0a.52.52,0,0,1,.53.55.5.5,0,0,1-.52.52Zm2-3.83c0-.51-.27-.59-.76-.6-1,0-2,0-3.08,0-.85,0-1.69,0-2.44,0s-.76.18-.8.6V397h0a.56.56,0,0,1-.61.53A.54.54,0,0,1,236,397c0-.16,0-.34,0-.53s0-.41,0-.58a1.28,1.28,0,0,1,1.41-1.16h1a.43.43,0,0,1-.15-.17,3.44,3.44,0,0,0-.84-.86.41.41,0,0,1-.16-.31.6.6,0,0,1,.61-.52,2.12,2.12,0,0,1,1.4,1.33.65.65,0,0,1-.35.53h3.15a5.88,5.88,0,0,0,.85-1.58.57.57,0,0,1,.54-.39.66.66,0,0,1,.69.59,3.69,3.69,0,0,1-.88,1.39h.84a1.27,1.27,0,0,1,1.39,1.14c0,.17,0,.42,0,.65s0,.32,0,.44a.59.59,0,0,1-.63.53c-.32,0-.6-.17-.6-.5v-.68Zm-3.4-1.65a.42.42,0,0,1-.41-.29,3.41,3.41,0,0,0-.7-1,.42.42,0,0,1-.11-.26c0-.25.3-.47.61-.47.61,0,1.27,1.18,1.27,1.45A.67.67,0,0,1,240.89,394.7Z" transform="translate(-158.23 -328.55)"/><path class="cls-3" d="M248.12,402.9a.5.5,0,0,1-.56-.51.56.56,0,0,1,.56-.58l4.09,0v-2.16H250a.51.51,0,0,1-.56-.52.54.54,0,0,1,.56-.55h2.26v-1.83h-2.14a13.81,13.81,0,0,1-1.33,2,.69.69,0,0,1-.53.27.56.56,0,0,1-.57-.54.64.64,0,0,1,.15-.38,10.78,10.78,0,0,0,2.14-3.92.54.54,0,0,1,.55-.41.56.56,0,0,1,.64.73c-.16.42-.33.83-.51,1.22l1.6,0v-2.14a.62.62,0,1,1,1.23,0v2.14l3.24,0a.54.54,0,0,1,.58.54.53.53,0,0,1-.58.53h-3.24v1.83h2.43a.53.53,0,0,1,.57.54.53.53,0,0,1-.57.53h-2.43v2.16l4,0a.53.53,0,0,1,.54.56.51.51,0,0,1-.54.53Z" transform="translate(-158.23 -328.55)"/><path class="cls-3" d="M268.15,402.94c-1,0-2.15,0-3.26,0s-2.2,0-3.28,0a1.42,1.42,0,0,1-1.6-1.45c0-.9-.05-2-.05-3.09,0-1.36,0-2.75.05-3.93a1.36,1.36,0,0,1,1.5-1.3c1,0,2.15,0,3.27,0s2.27,0,3.4,0a1.36,1.36,0,0,1,1.46,1.36c0,1.23.05,2.58.05,3.89,0,1.08,0,2.12-.05,3A1.47,1.47,0,0,1,268.15,402.94Zm.39-4.94c0-1,0-2.06-.05-3,0-.68-.26-.8-.85-.81-.9,0-1.9,0-2.87,0s-1.93,0-2.77,0c-.68,0-.87.2-.89.81,0,1,0,2,0,3.09s0,2.06,0,3c0,.68.27.8,1,.81s1.7,0,2.63,0l2.84,0c.67,0,.88-.33.9-.85C268.53,400.06,268.54,399,268.54,398Zm-3-1h-3.41a.49.49,0,1,1,0-1h3.39v-.93a.5.5,0,0,1,.54-.48.49.49,0,0,1,.54.48l0,.93h1a.49.49,0,1,1,0,1h-1v1.21l0,1.61v0c0,.65-.44,1.49-1.83,1.49-.58,0-1.34-.05-1.34-.66a.53.53,0,0,1,.56-.53h.15a3.44,3.44,0,0,0,.67.09c.4,0,.69-.15.69-.64Zm-1.74,2.1a3.42,3.42,0,0,0-1.07-.84.43.43,0,0,1-.26-.37.54.54,0,0,1,.55-.51c.24,0,1.72.65,1.72,1.33a.61.61,0,0,1-.55.62A.53.53,0,0,1,263.78,399.07Z" transform="translate(-158.23 -328.55)"/><path class="cls-3" d="M278.69,400.81v2.07a.56.56,0,0,1-1.1,0v-2.07h-1a.48.48,0,0,1-.54-.48.52.52,0,0,1,.54-.53h1v-.3l0-2.08a11.3,11.3,0,0,1-2.53,3.41.59.59,0,0,1-.91-.08l0,2.12a.55.55,0,0,1-.59.55.53.53,0,0,1-.57-.54h0l.12-5.54c-.76,1-1.09,1.17-1.35,1.17a.55.55,0,0,1-.56-.52.57.57,0,0,1,.2-.42,11.1,11.1,0,0,0,2.73-4.35.54.54,0,0,1,.52-.38.66.66,0,0,1,.67.59,9.49,9.49,0,0,1-1,2.17l-.1,4.64a.85.85,0,0,1,.16-.17,10.72,10.72,0,0,0,2.91-3.73l-2,0h0a.49.49,0,0,1-.54-.51.53.53,0,0,1,.56-.53h2.33v-2a.53.53,0,0,1,.57-.52.54.54,0,0,1,.59.52v2h2.67a.51.51,0,0,1,.53.52.49.49,0,0,1-.52.52h0l-2.4,0a11.56,11.56,0,0,0,3.14,3.41.59.59,0,0,1,.26.48.61.61,0,0,1-.59.6.8.8,0,0,1-.48-.19,12.6,12.6,0,0,1-2.66-3.19l0,2.05v.31h1.07a.48.48,0,0,1,.51.5.49.49,0,0,1-.51.51Z" transform="translate(-158.23 -328.55)"/><path class="cls-3" d="M290.5,402.69h-.12c-2.6-.24-4.25-2-4.25-3.89a3.37,3.37,0,0,1,.87-2.19.41.41,0,0,0,.06-.11l0,0-.12,0c-1.88,1-2.11,1.05-2.37,1.05a.64.64,0,0,1-.18-1.27c.25-.09.93-.29,1.29-.42.57-.21,1.56-.52,2.75-1a9.33,9.33,0,0,1,3.18-.74c.6,0,.81.28.81.59,0,.61-.5.74-1,.74h-.56c-1.86,0-3.68,1.58-3.68,3.19,0,1.44,1.37,2.66,3.25,2.66.6,0,.89.35.89.71S291.05,402.69,290.5,402.69Zm1-4.21a4.44,4.44,0,0,0-1-.74.41.41,0,0,1-.3-.38.5.5,0,0,1,.53-.46c.15,0,1.62.55,1.62,1.17a.58.58,0,0,1-.52.57A.41.41,0,0,1,291.53,398.48Zm1.38-1a4.13,4.13,0,0,0-1-.7c-.22-.09-.32-.23-.32-.38a.51.51,0,0,1,.53-.47c.19,0,1.63.51,1.63,1.13a.56.56,0,0,1-.5.57A.43.43,0,0,1,292.91,397.48Z" transform="translate(-158.23 -328.55)"/><path class="cls-3" d="M300,400.67a1.88,1.88,0,0,1-1.75-1.94,1.35,1.35,0,0,1,1.38-1.41,2.08,2.08,0,0,1,.55.07c0-.4-.06-.76-.08-1.09a17.17,17.17,0,0,0-4.4.94.74.74,0,0,1-.23.05.58.58,0,0,1-.57-.6.66.66,0,0,1,.56-.64,26.61,26.61,0,0,1,4.59-.82v-.38c0-1.06,0-1.62.66-1.62a.61.61,0,0,1,.66.56.41.41,0,0,1,0,.11,9.5,9.5,0,0,0-.16,1.23c1-.06,1.93-.08,2.91-.08.5,0,.75.3.75.6a.64.64,0,0,1-.71.6h-.06c-.58,0-1.18-.05-1.78-.05-.37,0-.75,0-1.12,0a16.68,16.68,0,0,0,.09,1.72,2,2,0,0,1,.63,1.43,2.4,2.4,0,0,1-.38,1.21,5.9,5.9,0,0,1-4.15,2.71.6.6,0,0,1-.66-.57.62.62,0,0,1,.57-.58,4.81,4.81,0,0,0,2.82-1.48Zm-.2-2.38a.51.51,0,0,0-.54.54.86.86,0,0,0,.76.87.52.52,0,0,0,.51-.51s0-.06,0-.1a1.41,1.41,0,0,0-.08-.39A.76.76,0,0,0,299.8,398.29Z" transform="translate(-158.23 -328.55)"/><path class="cls-3" d="M305.66,403.43a1.37,1.37,0,1,1,1.37-1.36A1.36,1.36,0,0,1,305.66,403.43Zm0-2.26a.9.9,0,0,0-.91.9.91.91,0,1,0,1.82,0A.9.9,0,0,0,305.66,401.17Z" transform="translate(-158.23 -328.55)"/></g><g class="cls-2"><path class="cls-3" d="M185.68,425.44a1.53,1.53,0,0,1-1.67,1.18h-.12c-.49,0-1,0-1.54,0-.69,0-1.36,0-1.91.05h-.05a.72.72,0,0,1-.76-.71.74.74,0,0,1,.42-.66,1.92,1.92,0,0,0,.46-.37c3.56-3.76,3.63-4.32,3.63-4.95a1.26,1.26,0,0,0-1.28-1.3,1.69,1.69,0,0,0-1.43.93.66.66,0,0,1-.58.35.67.67,0,0,1-.69-.62,2.68,2.68,0,0,1,2.69-1.84,2.49,2.49,0,0,1,2.69,2.35,3.93,3.93,0,0,1-.92,2.31,36.9,36.9,0,0,1-3,3.18.11.11,0,0,0,0,.07s0,.05.09.05c.42,0,1.37,0,1.93-.05s.76-.38.94-.93a.69.69,0,0,1,.67-.54.65.65,0,0,1,.67.64.87.87,0,0,1,0,.26Z" transform="translate(-158.23 -328.55)"/><path class="cls-3" d="M187.1,423.67c0-.52-.07-1-.07-1.53s0-.93.06-1.42c.16-2.09,1.3-3.24,2.93-3.24s2.74,1.09,2.93,3.09c.05.53.09,1.06.09,1.57,0,1.17,0,4.63-3,4.63C188.43,426.77,187.29,425.68,187.1,423.67Zm4.48.05a11.7,11.7,0,0,0,.11-1.71c0-.44,0-.89-.06-1.29-.12-1.26-.74-2-1.61-2s-1.49.77-1.61,2.06c0,.41-.06.83-.06,1.24a13.69,13.69,0,0,0,.09,1.58c.15,1.23.79,2,1.58,2S191.42,424.85,191.58,423.72Z" transform="translate(-158.23 -328.55)"/><path class="cls-3" d="M198.6,425.29h.05a.65.65,0,1,1,0,1.3h-.05l-1.27,0-1.44,0a.64.64,0,0,1-.76-.64.65.65,0,0,1,.7-.66h.62c.22,0,.27-.07.27-.29,0-1.34,0-3.24,0-4.43,0-.5,0-.87,0-1,0-.37-.14-.56-.53-.57h-.29a.66.66,0,0,1-.73-.71.62.62,0,0,1,.62-.68h1.05a1.18,1.18,0,0,1,1.27,1.24v0c0,.21,0,.56,0,1,0,1-.05,2.46-.05,4,0,.37,0,.76,0,1.13,0,.18.06.3.25.3Z" transform="translate(-158.23 -328.55)"/><path class="cls-3" d="M207.57,424c0,2-1.67,2.79-3.18,2.79a2.82,2.82,0,0,1-3.11-2.79,2.59,2.59,0,0,1,1.51-2.36,2.12,2.12,0,0,1-1.08-1.84c0-1.57,1.34-2.31,2.71-2.31s2.72.74,2.72,2.31a2.12,2.12,0,0,1-1.08,1.84A2.47,2.47,0,0,1,207.57,424Zm-3.15-1.7a1.66,1.66,0,1,0,1.88,1.7A1.65,1.65,0,0,0,204.42,422.28Zm0-3.66a1.33,1.33,0,0,0-1.45,1.21c0,.87.65,1.25,1.42,1.25,1.43,0,1.49-1,1.49-1.25A1.32,1.32,0,0,0,204.42,418.62Z" transform="translate(-158.23 -328.55)"/><path class="cls-3" d="M215.11,424.52v2.4a.52.52,0,0,1-.58.49.53.53,0,0,1-.58-.49v-2.4h-4.53a.52.52,0,0,1-.58-.52.56.56,0,0,1,.58-.56h1.64c0-.4,0-.84,0-1.69a1.15,1.15,0,0,1,1.32-1.15H214v-1.38H212a10.63,10.63,0,0,1-1.46,1.82.75.75,0,0,1-.5.23.6.6,0,0,1-.6-.57.59.59,0,0,1,.2-.42,9,9,0,0,0,2.17-3.28.56.56,0,0,1,.53-.36.65.65,0,0,1,.68.59,2.28,2.28,0,0,1-.39.93H218a.53.53,0,1,1,0,1.06h-2.86v1.38h2.2a.55.55,0,0,1,.6.54.52.52,0,0,1-.59.51h0l-2.2,0v1.8h3.56a.54.54,0,0,1,.55.55.52.52,0,0,1-.55.53ZM214,421.65h-1.16c-.41,0-.52.21-.53.46s0,.89,0,1.33H214Z" transform="translate(-158.23 -328.55)"/><path class="cls-3" d="M221.71,426.31a7.73,7.73,0,0,1-.32-2.29,37.28,37.28,0,0,1,.67-5,.59.59,0,0,1,1.18,0,.31.31,0,0,1,0,.09,28.53,28.53,0,0,0-.78,4.28c0,.45.08.49.12.49s.06,0,.08-.08c.37-.71.46-.85.71-.85a.52.52,0,0,1,.49.5.35.35,0,0,1-.06.22,6.36,6.36,0,0,0-.9,2.25c0,.11,0,.22,0,.33a.55.55,0,0,1-.59.62A.62.62,0,0,1,221.71,426.31Zm6.66-.08c-2.07,0-3.65-1.23-3.65-1.82a.59.59,0,0,1,.62-.56.71.71,0,0,1,.54.26,3.06,3.06,0,0,0,2.33.81,7.23,7.23,0,0,0,1-.08h.14a.56.56,0,0,1,.6.58C230,426,229.44,426.23,228.37,426.23ZM227,421a6.88,6.88,0,0,1-1.62-.18c-.36-.09-.5-.31-.5-.54a.55.55,0,0,1,.55-.56h.12a5.86,5.86,0,0,0,1.16.12,11.52,11.52,0,0,0,1.48-.12h.1a.55.55,0,0,1,.58.56C228.89,420.73,228.55,421,227,421Z" transform="translate(-158.23 -328.55)"/><path class="cls-3" d="M240.54,424.1l-2.24,0c0,.76,0,1.41,0,1.57,0,.44.4.49,1,.49.77,0,1.14-.19,1.14-.9a.52.52,0,0,1,.55-.54.61.61,0,0,1,.65.66c0,1.41-.8,1.85-2.43,1.85-.65,0-2,0-2-1.4,0-.15,0-.89,0-1.75h-1.29a3.74,3.74,0,0,1-3.37,3.31l-.21,0a.58.58,0,0,1-.62-.6.5.5,0,0,1,.43-.53c1.81-.25,2.42-1.11,2.62-2.2l-1.91,0h0a.5.5,0,0,1-.55-.52.55.55,0,0,1,.56-.57h2v-1.4h-.14a.54.54,0,0,1-.51-.28,6,6,0,0,1-2.16,1.15.58.58,0,0,1-.55-.59.55.55,0,0,1,.36-.51,8.29,8.29,0,0,0,3.84-3.19c0-.09-.07-.12-.19-.12l-1.69,0a.48.48,0,0,1-.51-.5.49.49,0,0,1,.51-.52h1.69c.77,0,1.38,0,1.53.67a.45.45,0,0,1,.33.17q.22.27.48.54a6.41,6.41,0,0,0,.88-1,.46.46,0,0,1,.4-.23.65.65,0,0,1,.62.6c0,.41-.92,1.19-1.17,1.39l.57.51a6.83,6.83,0,0,0,1.11-1.11.47.47,0,0,1,.38-.2.67.67,0,0,1,.62.61c0,.26-.39.68-1.25,1.32a8.67,8.67,0,0,0,1.59.85.56.56,0,0,1,.38.5.65.65,0,0,1-.67.63,5.26,5.26,0,0,1-2.19-1.23v0a.53.53,0,0,1-.57.53h-.19c0,.36,0,.86,0,1.4h2.23a.54.54,0,0,1,.58.55.53.53,0,0,1-.57.54Zm-7.31-4.27a5.27,5.27,0,0,0-1-.83.41.41,0,0,1-.24-.36.59.59,0,0,1,.6-.53c.48,0,1.48.86,1.51.89a.55.55,0,0,1,.16.37.65.65,0,0,1-.63.63A.44.44,0,0,1,233.23,419.83Zm5.25.73a18.79,18.79,0,0,1-1.78-1.82,12.55,12.55,0,0,1-1.62,1.82ZM237.19,423c0-.54,0-1,0-1.4H236v1.12c0,.1,0,.18,0,.28Z" transform="translate(-158.23 -328.55)"/><path class="cls-3" d="M249.34,423.86V426a7.4,7.4,0,0,0,1.51.12c.82,0,1.67-.07,2.45-.12h0a.55.55,0,0,1,.57.55.6.6,0,0,1-.6.59c-.71.07-1.43.13-2.14.13-2,0-3.93-.45-4.94-2.3-.57,1.32-1.76,2.47-2.3,2.47a.6.6,0,0,1-.59-.6.5.5,0,0,1,.25-.43,4.6,4.6,0,0,0,2.07-3.68.56.56,0,0,1,.57-.55.54.54,0,0,1,.56.55,6.25,6.25,0,0,1-.1.78,3.06,3.06,0,0,0,1.47,2.06v-4.1c-.61,0-1.2,0-1.71,0a1.26,1.26,0,0,1-1.36-1.23c0-.22,0-.47,0-.71s0-.67,0-.9a1.2,1.2,0,0,1,1.33-1.2c.7,0,1.47,0,2.26,0s1.6,0,2.4,0a1.26,1.26,0,0,1,1.27,1.09c0,.21,0,.46,0,.73s0,.69,0,1a1.32,1.32,0,0,1-1.33,1.26c-.54,0-1.11,0-1.67,0v1.35h2.75a.52.52,0,0,1,.55.54.51.51,0,0,1-.55.53Zm1.86-4.51c0-.62,0-1-.59-1l-1.75,0-2.1,0c-.5,0-.56.34-.56,1,0,.88.1,1,.57,1s1.23,0,1.9,0,1.36,0,2,0S251.2,420.05,251.2,419.35Z" transform="translate(-158.23 -328.55)"/><path class="cls-3" d="M259.06,426.8c-2.4,0-2.5-1.39-2.5-2.58,0-1.37.15-3.11.15-4.52a13.25,13.25,0,0,0-.07-1.37s0-.08,0-.12a.59.59,0,0,1,.63-.6.65.65,0,0,1,.67.58c0,.26,0,.55,0,.86,0,1.47-.26,3.36-.26,5,0,1,.05,1.58,1.24,1.58a8.14,8.14,0,0,0,2.87-.63,1.12,1.12,0,0,1,.37-.08.57.57,0,0,1,.59.58.82.82,0,0,1-.59.75A9.25,9.25,0,0,1,259.06,426.8Z" transform="translate(-158.23 -328.55)"/><path class="cls-3" d="M266.26,427.17a4.62,4.62,0,0,0-1.47-1.26.54.54,0,0,1-.33-.48.54.54,0,0,1,.57-.53c.42,0,2.33,1.06,2.33,1.87a.66.66,0,0,1-.64.66A.55.55,0,0,1,266.26,427.17Z" transform="translate(-158.23 -328.55)"/><path class="cls-3" d="M276.38,427.22c-.72,0-3.56-1.43-3.56-3.64a1.77,1.77,0,0,1,.35-1.08.19.19,0,0,0,.06-.12h0s-.8.43-1,.55a.75.75,0,0,1-.42.12.69.69,0,0,1-.72-.6c0-.21.15-.44.53-.62a4.33,4.33,0,0,0,1.34-.91,23.59,23.59,0,0,0,1.92-2.62s0,0-.05,0l-.08,0a5.24,5.24,0,0,1-1.77.59.58.58,0,0,1-.62-.57.54.54,0,0,1,.53-.54,9.32,9.32,0,0,0,2-.47,1.18,1.18,0,0,1,.51-.17.77.77,0,0,1,.82.74,1.19,1.19,0,0,1-.27.7,19.3,19.3,0,0,1-2,2.35q-.09.09-.09.12h.11a11.23,11.23,0,0,1,3.3-.89.65.65,0,0,1,.68.65c0,.29-.17.61-1,.62a7.43,7.43,0,0,0-1.38.21,2.56,2.56,0,0,0-1.43.73,1.34,1.34,0,0,0-.42,1,2.88,2.88,0,0,0,2.51,2.44.81.81,0,0,1,.75.77A.67.67,0,0,1,276.38,427.22Z" transform="translate(-158.23 -328.55)"/><path class="cls-3" d="M287.47,422.12a2.54,2.54,0,0,0-2.78-2.47h0a.53.53,0,0,1,.33.5v.06c0,1.26-1.23,3.45-2.55,4.74a1.29,1.29,0,0,1-.9.41c-.85,0-1.62-1-1.62-2.27a4.77,4.77,0,0,1,4.83-4.38c2.43,0,3.94,1.61,3.94,3.48a3.7,3.7,0,0,1-.27,1.36c-1.05,2.66-4.31,3-4.48,3a.64.64,0,0,1-.69-.59c0-.26.21-.51.66-.6C286.11,425,287.47,423.69,287.47,422.12ZM284,419.71a3.92,3.92,0,0,0-3,3.32c0,.9.6,1,.64,1a.28.28,0,0,0,.22-.1,6.66,6.66,0,0,0,1.91-3.71A.63.63,0,0,1,284,419.71Z" transform="translate(-158.23 -328.55)"/><path class="cls-3" d="M291.76,422.56c-.81.66-1,.75-1.17.75a.6.6,0,0,1-.58-.6.55.55,0,0,1,.29-.48,8.39,8.39,0,0,0,2.79-2.88.55.55,0,0,1,.46-.28.67.67,0,0,1,.62.62.54.54,0,0,1-.11.32,13.15,13.15,0,0,1-1.16,1.45l-.13,5.41a.56.56,0,0,1-.6.54.51.51,0,0,1-.55-.52v0Zm-1-2.11a.57.57,0,0,1-.6-.54.69.69,0,0,1,.4-.56,6.67,6.67,0,0,0,2.3-2.33.57.57,0,0,1,.48-.3.61.61,0,0,1,.6.59.67.67,0,0,1-.12.36C292.82,419.07,291.33,420.45,290.73,420.45Zm6.13,2.09,1.53,0a.79.79,0,0,1,.9.77,4.43,4.43,0,0,1-1.16,2,5.47,5.47,0,0,0,2.33.8.49.49,0,0,1,.44.52.61.61,0,0,1-.63.62,5.58,5.58,0,0,1-2.88-1.23,6.4,6.4,0,0,1-3,1.39.55.55,0,0,1-.57-.55.49.49,0,0,1,.43-.48,5.55,5.55,0,0,0,2.4-1.12,5.07,5.07,0,0,1-.78-1.19c-.55.71-1.61,1.72-2.06,1.72a.56.56,0,0,1-.56-.54.42.42,0,0,1,.22-.37,7.16,7.16,0,0,0,2.49-2.79c-.4,0-1.32.12-1.86.12a.47.47,0,0,1-.45-.51.45.45,0,0,1,.44-.49c.4,0,.79,0,1.19,0h0c.27-.2.54-.41.82-.66a6.06,6.06,0,0,0-1.6-1.19.46.46,0,0,1-.28-.43.5.5,0,0,1,.51-.49,1.41,1.41,0,0,1,.55.2,6.06,6.06,0,0,0,1.1-1.61.41.41,0,0,1,.4-.26.65.65,0,0,1,.66.55,5,5,0,0,1-1.35,1.84,6,6,0,0,1,.75.66,12.86,12.86,0,0,0,1.31-1.64.54.54,0,0,1,.46-.24.58.58,0,0,1,.62.51c0,.59-2,2.36-2.41,2.68.74-.06,1.46-.16,2.15-.26l-.27-.22a.48.48,0,0,1-.19-.35.5.5,0,0,1,.53-.44c.48,0,1.93,1.36,1.93,1.91a.6.6,0,0,1-.58.59.51.51,0,0,1-.46-.29l-.3-.45c-.8.15-1.69.3-2.63.41a.58.58,0,0,1,0,.18.56.56,0,0,1-.1.3Zm1.16,1c0-.11-.09-.13-.18-.13h0l-1.3,0a4.7,4.7,0,0,0,.81,1.2A3.37,3.37,0,0,0,298,423.5Z" transform="translate(-158.23 -328.55)"/><path class="cls-3" d="M307.56,421.4a8.55,8.55,0,0,1-4.17,5.39c-.79.4-1.58-.59-.6-1.1a7.38,7.38,0,0,0,3.49-4.12l-.85.12a13.46,13.46,0,0,1-1.51.15c-1,0-.9-1.18-.12-1.15a10.23,10.23,0,0,0,1.51-.09c.45,0,.89-.1,1.31-.15.06-.27.1-.54.14-.8a7.6,7.6,0,0,0,0-1.26c0-.78,1.23-.68,1.26,0a7.87,7.87,0,0,1-.08,1.15c0,.25-.07.5-.12.75.36-.05.72-.1,1.08-.13a1.28,1.28,0,0,1,1.52,1.46,10.33,10.33,0,0,1-1,3.8c-.84,1.3-2.27,1.71-3.31.63-.57-.58.21-1.67.85-1,.45.5.91.3,1.37-.28a8.14,8.14,0,0,0,.84-3c0-.29,0-.63-.58-.55Z" transform="translate(-158.23 -328.55)"/><path class="cls-3" d="M313.54,425.55a9.71,9.71,0,0,0,5.11-5.23c.09-.2-.06-.29-.21-.27-.93,0-2.52.31-3.35.4a6.52,6.52,0,0,1-1.51.13.65.65,0,1,1,.08-1.28,10.35,10.35,0,0,0,1.48-.06c1-.07,2.64-.33,4-.42,1-.06,1.47.6,1.11,1.33-1.25,2.57-2.79,5.21-6.15,6.59C312.92,427.22,312.5,425.93,313.54,425.55Z" transform="translate(-158.23 -328.55)"/><path class="cls-3" d="M325,423a5.42,5.42,0,0,1-.09,1.8l1.63-.11a5.75,5.75,0,0,1,.83,0c.44.05.7.37.62.7a.72.72,0,0,1-.89.38,3.13,3.13,0,0,0-.68-.06h-.71a26.18,26.18,0,0,0-2.81.21c-.69.07-1,.13-1.29.13-.77,0-.79-1.07.07-1a8.9,8.9,0,0,0,1.15,0c.35,0,.71-.09,1.06-.11a6.24,6.24,0,0,0,.1-1.13,4.32,4.32,0,0,0-.06-.59V423h-.16a5.71,5.71,0,0,1-1.08.07.51.51,0,1,1,.07-1,5.51,5.51,0,0,0,.81,0c.41,0,1.2-.09,1.72-.16a4.15,4.15,0,0,1,.85-.12c.75,0,.89,1,0,1-.29,0-.51,0-.79.07l-.34,0Z" transform="translate(-158.23 -328.55)"/><path class="cls-3" d="M332.58,423.26a1.27,1.27,0,1,1,1.28-1.27A1.27,1.27,0,0,1,332.58,423.26Z" transform="translate(-158.23 -328.55)"/></g><g class="cls-2"><path class="cls-3" d="M180.37,447.79a5,5,0,0,0,2.74-2.76.64.64,0,0,1,1.23.36,6.94,6.94,0,0,1-3.47,3.6A.65.65,0,1,1,180.37,447.79Zm8.33.43a8,8,0,0,0-2.74-2.76c-.66-.36-.05-1.35.77-.89a8.5,8.5,0,0,1,3.18,3,.76.76,0,0,1-.32,1A.63.63,0,0,1,188.7,448.22Zm-1.46-4.32c-.6-.25-.13-1,.42-.77a4.11,4.11,0,0,1,1.17.72c.47.5-.22,1.23-.62.76A4.33,4.33,0,0,0,187.24,443.9Zm1.08-1c-.61-.24-.18-1,.38-.78a3.63,3.63,0,0,1,1.2.69c.48.48-.19,1.21-.6.76A4.47,4.47,0,0,0,188.32,442.88Z" transform="translate(-158.23 -328.55)"/><path class="cls-3" d="M200.07,446.58h-.63c-2.29,0-4,.1-5,.14l-1.18,0-.39,0a.66.66,0,0,1-.69-.64c0-.3.24-.59.72-.59H193c.44,0,1,0,1.45,0,1,0,3.55-.14,5.66-.2h0a.66.66,0,0,1,.74.61.68.68,0,0,1-.77.63Z" transform="translate(-158.23 -328.55)"/><path class="cls-3" d="M210.43,446.12a2.54,2.54,0,0,0-2.78-2.47h0a.53.53,0,0,1,.33.5v.06c0,1.26-1.23,3.45-2.55,4.74a1.29,1.29,0,0,1-.9.41c-.85,0-1.62-1-1.62-2.27a4.77,4.77,0,0,1,4.83-4.38c2.43,0,3.94,1.61,3.94,3.48a3.7,3.7,0,0,1-.27,1.36c-1,2.66-4.31,3-4.48,3a.64.64,0,0,1-.69-.59c0-.26.21-.51.66-.6C209.07,449,210.43,447.69,210.43,446.12ZM207,443.71a3.92,3.92,0,0,0-3,3.32c0,.9.6,1,.63,1a.28.28,0,0,0,.23-.1,6.66,6.66,0,0,0,1.91-3.71A.64.64,0,0,1,207,443.71Z" transform="translate(-158.23 -328.55)"/><path class="cls-3" d="M213.58,450.53a.49.49,0,0,1-.52-.45.65.65,0,0,1,.1-.33,5.36,5.36,0,0,0,.71-2.06.46.46,0,0,1,.48-.42.52.52,0,0,1,.55.53,7.28,7.28,0,0,1-.79,2.45A.62.62,0,0,1,213.58,450.53Zm1.59.26,0-4.18c-.12,0-1.34.18-1.51.18a.45.45,0,0,1-.44-.48.41.41,0,0,1,.38-.44l.54,0a8.09,8.09,0,0,0,.72-.9,11.52,11.52,0,0,0-1.36-1.1.49.49,0,0,1-.22-.4.46.46,0,0,1,.46-.46.63.63,0,0,1,.35.12,7.87,7.87,0,0,0,.91-2,.45.45,0,0,1,.47-.34.56.56,0,0,1,.61.49,9.66,9.66,0,0,1-1.21,2.45c.19.15.37.31.54.47a12.73,12.73,0,0,0,.91-1.72.46.46,0,0,1,.45-.3.59.59,0,0,1,.6.53,13.78,13.78,0,0,1-1.92,3.09c.39,0,.77-.08,1.05-.12-.21-.38-.24-.42-.24-.5a.44.44,0,0,1,.46-.4c.24,0,.49.17.87,1a.54.54,0,0,1,.39-.29,6.92,6.92,0,0,0,1.93-.81,3.68,3.68,0,0,1-1.18-1.58.56.56,0,0,1,.57-.51.42.42,0,0,1,.35.19,4.18,4.18,0,0,0,1.09,1.26,3.88,3.88,0,0,0,1-1.54c0-.11-.12-.16-.19-.16h-.48l-2.67,0h0a.45.45,0,0,1-.43-.49.46.46,0,0,1,.42-.5H220l2.21,0c.69,0,1,.36,1,.77a4.86,4.86,0,0,1-1.48,2.46,6.64,6.64,0,0,0,1.85.58.53.53,0,0,1,.45.53.59.59,0,0,1-.62.59,6.42,6.42,0,0,1-2.53-1,7.24,7.24,0,0,1-2.6,1.19.56.56,0,0,1-.33-.09.45.45,0,0,1,0,.12.57.57,0,0,1-.54.58.43.43,0,0,1-.42-.39,1.69,1.69,0,0,0-.05-.24l-.58.09,0,4.35a.54.54,0,0,1-.57.56.52.52,0,0,1-.55-.55Zm1.79-1.64a4.28,4.28,0,0,0-.39-1.43.52.52,0,0,1-.06-.22.4.4,0,0,1,.43-.37.5.5,0,0,1,.44.23A3.92,3.92,0,0,1,218,449a.57.57,0,0,1-.56.57A.45.45,0,0,1,217,449.15Zm.78,1.76a.5.5,0,0,1-.53-.51.49.49,0,0,1,.53-.51h2.42l0-1.49h-1.51a.48.48,0,0,1-.51-.5.49.49,0,0,1,.51-.52l1.51,0v-.95a.52.52,0,0,1,.55-.53.54.54,0,0,1,.58.53v.95l1.47,0a.54.54,0,0,1,.57.52.52.52,0,0,1-.57.5h-1.47l0,1.49h2.24a.5.5,0,0,1,.55.51.51.51,0,0,1-.55.51Z" transform="translate(-158.23 -328.55)"/><path class="cls-3" d="M227,445.06a.56.56,0,0,1-.61.52.55.55,0,0,1-.59-.53c0-.15,0-.33,0-.52s0-.41,0-.59a1.24,1.24,0,0,1,1.39-1.13h1a.66.66,0,0,1-.16-.17,3.06,3.06,0,0,0-.83-.85.43.43,0,0,1-.15-.31.59.59,0,0,1,.61-.51,2.16,2.16,0,0,1,1.37,1.3.66.66,0,0,1-.35.54h3.25a6.34,6.34,0,0,0,.85-1.58.55.55,0,0,1,.53-.37.65.65,0,0,1,.67.58c0,.35-.74,1.23-.86,1.38H234a1.36,1.36,0,0,1,1.36,1.19c0,.17,0,.39,0,.61,0,.42,0,.92-.66.92a.54.54,0,0,1-.6-.49v0c0-1.13,0-1.24-.75-1.25l-3.11,0-2.46,0c-.65,0-.75.18-.78.6v.68Zm3.76,2.88c.81,0,1.64,0,2.41,0a1,1,0,0,1,1.12.82c0,.19,0,.41,0,.64s0,.45,0,.68a1.08,1.08,0,0,1-1.18.95c-.93,0-1.83,0-2.68,0s-1.64,0-2.4,0-1.16-.41-1.19-.94c0-.16,0-.34,0-.52s0-.51,0-.72c0-.44.34-.9,1.18-.91.53,0,1.1,0,1.7,0,.07-.24.13-.5.18-.7-.43,0-.83,0-1.15,0-1.16,0-1.18-.74-1.18-1.35a5.15,5.15,0,0,1,0-.57c0-.43.32-.85,1.14-.87l1.79,0,1.94,0a1,1,0,0,1,1.09.79c0,.17,0,.35,0,.54s0,.37,0,.55a1.06,1.06,0,0,1-1.14.91c-.45,0-.91,0-1.39,0A4.07,4.07,0,0,1,230.76,447.94Zm-.27,2.17h2.18c.43,0,.5-.18.5-.66s0-.63-.51-.65l-2.18,0-2,0c-.48,0-.51.23-.51.66s0,.63.52.65Zm1.95-4.28a2.09,2.09,0,0,0,0-.24c0-.32-.2-.32-1.68-.32h-1.6c-.44,0-.5.2-.5.55,0,.07,0,.15,0,.23,0,.35.09.35,1.85.35s1.9,0,1.91-.35A1.85,1.85,0,0,0,232.44,445.83Zm-1.75-3.1a.43.43,0,0,1-.41-.29,3.47,3.47,0,0,0-.69-1,.38.38,0,0,1-.1-.25.58.58,0,0,1,.6-.48c.54,0,1.25,1.14,1.25,1.45A.66.66,0,0,1,230.69,442.73Z" transform="translate(-158.23 -328.55)"/><path class="cls-3" d="M239,451.17a4.62,4.62,0,0,0-1.47-1.26.54.54,0,0,1-.33-.48.54.54,0,0,1,.57-.53c.42,0,2.34,1.06,2.34,1.87a.66.66,0,0,1-.65.66A.55.55,0,0,1,239,451.17Z" transform="translate(-158.23 -328.55)"/><path class="cls-3" d="M244.42,445.89a.57.57,0,0,1-.61-.56c0-.28.22-.57.71-.6a7.68,7.68,0,0,0,1.95-.4c-.11-.36-.21-.67-.28-.94a3.4,3.4,0,0,0-.39-.81.59.59,0,0,1-.08-.3.63.63,0,0,1,.67-.57c.5,0,.68.42.9,1.35.06.27.15.6.26,1a9.44,9.44,0,0,0,1.29-.43,2,2,0,0,1,.76-.19c.41,0,.65.24.65.5s-.22.53-.68.65l-1.11.32a6.2,6.2,0,0,1-.6.18c.12.41.26.83.4,1.26l.67-.19a18.23,18.23,0,0,1,2-.55h.19a.58.58,0,0,1,.64.57c0,.32-.17.6-.66.69a25.64,25.64,0,0,0-2.54.54c.36,1.08.72,2.11,1,2.84a1.18,1.18,0,0,1,.07.38.62.62,0,0,1-.58.69.7.7,0,0,1-.65-.59c-.23-.78-.57-1.86-.91-3-.54.18-1,.36-1.49.53a9.08,9.08,0,0,1-1.72.49.62.62,0,0,1-.64-.62.66.66,0,0,1,.6-.64c.4-.08,1-.21,1.46-.34l1.46-.47c-.14-.45-.27-.88-.41-1.29a9.83,9.83,0,0,1-2.35.53Z" transform="translate(-158.23 -328.55)"/><path class="cls-3" d="M257.06,447c.33,1.09.75,2.38,1.06,3.19a.61.61,0,0,1-.27.84.54.54,0,0,1-.72-.43c-.27-.85-.65-2.12-1-3.24l-.68.28a5.53,5.53,0,0,1-.82.29.53.53,0,1,1-.28-1l.74-.22c.11,0,.38-.13.74-.28l-.2-.61c-.09-.25-.16-.43-.23-.6-.26-.63.76-1,1-.37a5.53,5.53,0,0,1,.22.65l.17.57c.84-.31,1.81-.66,2.5-.86a.68.68,0,0,1,.89.91,4.66,4.66,0,0,1-1.32,2c-.66.57-1.35-.29-.75-.76a2.87,2.87,0,0,0,.83-1C258.38,446.48,257.68,446.73,257.06,447Z" transform="translate(-158.23 -328.55)"/><path class="cls-3" d="M263.33,450.22a5.78,5.78,0,0,0,3.27-5.12c0-1,.06-1.33,0-1.92a6,6,0,0,0-.09-1c-.23-.94,1.28-1.08,1.34-.06a9.72,9.72,0,0,1,0,1.05c0,.43,0,.65,0,.88a9.57,9.57,0,0,0,0,1,7.13,7.13,0,0,1-3.85,6.24C263,451.81,262.54,450.59,263.33,450.22Zm.39-3.67a9.58,9.58,0,0,0,.06-2.92c0-.23-.09-.47-.15-.7a.68.68,0,1,1,1.32-.25,8.52,8.52,0,0,1,.05,1c0,.47,0,1.07,0,1.54a6.5,6.5,0,0,1-.06,1.39C264.8,447.69,263.53,447.38,263.72,446.55Z" transform="translate(-158.23 -328.55)"/><path class="cls-3" d="M272.07,450.92c-1,.62-1.9-.58-.8-1.13a5,5,0,0,0,2.85-3.74,3.32,3.32,0,0,0,0-1.09c-.14-.75,1.21-1,1.38-.12a3.48,3.48,0,0,1,0,.49,5.92,5.92,0,0,0,2.05-1.6c.21-.27.24-.42-.21-.39-1.51.06-3.44.32-4,.39a8.17,8.17,0,0,1-1.65.16.63.63,0,1,1,.09-1.25c.51,0,1.08-.06,1.58-.09s2.53-.23,4.46-.34c1.35-.07,1.86.94,1,1.93a7.7,7.7,0,0,1-3,2.3.63.63,0,0,1-.5,0A6.73,6.73,0,0,1,272.07,450.92Z" transform="translate(-158.23 -328.55)"/><path class="cls-3" d="M286.59,443.58V445h1.47c.71,0,1.13.39,1.13.94,0,.72-1.08,2.06-2.16,3a7.43,7.43,0,0,0,3.68.93.53.53,0,0,1,.51.58.68.68,0,0,1-.72.69,7.91,7.91,0,0,1-4.43-1.45,9.37,9.37,0,0,1-4.58,1.73.59.59,0,0,1-.6-.62.56.56,0,0,1,.56-.59,8.08,8.08,0,0,0,3.68-1.25c-.55-.5-1.58-1.7-1.58-2.18a.57.57,0,0,1,.6-.53.47.47,0,0,1,.44.24,7.15,7.15,0,0,0,1.48,1.77,5.41,5.41,0,0,0,1.64-2.06c0-.11-.09-.18-.27-.18h-1.3c-1,0-2.19,0-3.21,0h0a.5.5,0,0,1-.52-.52.55.55,0,0,1,.56-.56h2.48v-1.39l-3.71,0a.55.55,0,1,1,0-1.1l3.71,0v-1.24a.53.53,0,0,1,.59-.51.55.55,0,0,1,.62.51v1.24l3.76,0a.55.55,0,1,1,0,1.1Z" transform="translate(-158.23 -328.55)"/><path class="cls-3" d="M299.24,446.53c-.09.23-.16.44-.26.66l2.17,0a.76.76,0,0,1,.84.75,1,1,0,0,1-.09.39,4.84,4.84,0,0,1-1,1.37,6.72,6.72,0,0,0,2.13.56.49.49,0,0,1,.46.48.59.59,0,0,1-.64.57,6.66,6.66,0,0,1-2.77-.95,7.44,7.44,0,0,1-2.77,1.08.48.48,0,0,1-.49-.49.45.45,0,0,1,.38-.46,5.94,5.94,0,0,0,2.09-.76,4.31,4.31,0,0,1-.95-1.26c-1,1.76-2.07,2.6-2.52,2.6a.53.53,0,0,1-.51-.42,1.45,1.45,0,0,1-1.37.67c-.71,0-1.09-.16-1.09-.65a.5.5,0,0,1,.47-.55h.1a2.3,2.3,0,0,0,.39.05c.25,0,.49-.09.49-.4v-2.53c-.62.33-.84.45-1.07.45a.58.58,0,0,1-.57-.58.53.53,0,0,1,.34-.49c.48-.21.9-.37,1.3-.57v-1.81h-1a.53.53,0,1,1,0-1h1v-1.87a.56.56,0,0,1,.57-.57.54.54,0,0,1,.56.57v1.87h.74a.53.53,0,1,1,0,1h-.74v1.23l.42-.27a.39.39,0,0,1,.25-.08.5.5,0,0,1,.48.49c0,.28-.23.49-1.15,1,0,.79,0,1.4,0,1.58s0,1.29.05,1.71c0,.09,0,.2,0,.3a.69.69,0,0,1,.13-.11,6.71,6.71,0,0,0,2.63-3.54H297a.45.45,0,1,1,0-.9h1.51c0-.23.1-.44.13-.66h-1.25a.46.46,0,1,1,0-.91h.41a.28.28,0,0,1-.06-.09,1.8,1.8,0,0,0-.39-.63.3.3,0,0,1-.1-.23.51.51,0,0,1,.52-.42c.37,0,.85.72.85,1a.48.48,0,0,1-.18.38h1.16a.33.33,0,0,1-.27-.3,2.1,2.1,0,0,0-.29-.7.27.27,0,0,1-.05-.16c0-.22.26-.36.5-.36.51,0,.75.92.75,1a.51.51,0,0,1-.45.48h.83a6.81,6.81,0,0,0,.7-1.46.38.38,0,0,1,.39-.25c.29,0,.6.19.6.45a4.86,4.86,0,0,1-.65,1.25h.74a.46.46,0,1,1,0,.91h-2.71c0,.22-.09.44-.15.67h3.25a.45.45,0,1,1,0,.9Zm-2.06-4a.51.51,0,0,1-.55-.52.48.48,0,0,1,.53-.49h0a5.91,5.91,0,0,0,.6,0,20.44,20.44,0,0,0,4.13-.41H302a.55.55,0,0,1,.57.52c0,.21-.14.4-.47.47A29,29,0,0,1,297.18,442.57Zm3.64,5.48c0-.11-.11-.12-.18-.12s-.88,0-1.54,0a3.54,3.54,0,0,0,1,1.17A2.59,2.59,0,0,0,300.82,448.05Z" transform="translate(-158.23 -328.55)"/><path class="cls-3" d="M306.46,451.17a4.62,4.62,0,0,0-1.47-1.26.54.54,0,0,1-.33-.48.54.54,0,0,1,.57-.53c.42,0,2.34,1.06,2.34,1.87a.66.66,0,0,1-.65.66A.55.55,0,0,1,306.46,451.17Z" transform="translate(-158.23 -328.55)"/><path class="cls-3" d="M312.14,447.07c-.83.55-1.54-.54-.7-1.05a8.58,8.58,0,0,0,2.6-2.78,3.5,3.5,0,0,0,.47-1c.22-.8,1.42-.59,1.29.2a2.37,2.37,0,0,1-.18.53c.57-.1,1.2-.24,1.74-.28.83,0,1.58.54,1.12,1.32-1.93,3.31-3.68,5.63-6.92,6.89-1,.39-1.5-.83-.48-1.17a11.06,11.06,0,0,0,5.88-5.61c.12-.24,0-.29-.17-.29-.48,0-1.44.22-1.92.3A12.4,12.4,0,0,1,312.14,447.07Zm6.05-4.69c-.6-.25-.13-1,.42-.77a3.83,3.83,0,0,1,1.18.72c.47.49-.23,1.22-.62.76A4.1,4.1,0,0,0,318.19,442.38Zm1.08-1c-.61-.24-.18-1,.39-.78a4,4,0,0,1,1.2.68c.48.48-.19,1.21-.6.77A4.54,4.54,0,0,0,319.27,441.36Z" transform="translate(-158.23 -328.55)"/><path class="cls-3" d="M320.93,447.57a2.69,2.69,0,0,0-.64-.87c-.5-.42.2-1.17.75-.66a4.33,4.33,0,0,1,.85,1A.54.54,0,1,1,320.93,447.57ZM321,450a6.3,6.3,0,0,0,3.45-3.65,1.91,1.91,0,0,0,.08-.57.6.6,0,0,1,1.19,0,2.11,2.11,0,0,1-.23,1,7.67,7.67,0,0,1-4,4.18C320.72,451.3,320.33,450.26,321,450Zm1.48-3a2.87,2.87,0,0,0-.53-1c-.43-.48.36-1.12.84-.54a4.58,4.58,0,0,1,.7,1.13A.54.54,0,1,1,322.47,447Z" transform="translate(-158.23 -328.55)"/><path class="cls-3" d="M328.57,450.28c-.89.34-1.5-.79-.47-1.14a10.32,10.32,0,0,0,5.36-4.6c.1-.19,0-.28-.11-.27-.59.06-2,.45-2.26.52a5.42,5.42,0,0,1-1.22.2.62.62,0,1,1,0-1.23,8.77,8.77,0,0,0,1.06-.13c.44-.08,1.89-.46,2.89-.56s1.55.62,1.16,1.31a16.86,16.86,0,0,1-1.52,2.26,8.33,8.33,0,0,1,3.29,2.28.73.73,0,0,1-.11,1,.59.59,0,0,1-.88-.11,9.86,9.86,0,0,0-3-2.31A11.25,11.25,0,0,1,328.57,450.28Zm7.24-6.7a4.31,4.31,0,0,0-.84-.87c-.55-.36,0-1,.55-.67a3.65,3.65,0,0,1,1,.9C336.93,443.51,336.11,444.11,335.81,443.58Zm1.43-.69a4.57,4.57,0,0,0-.86-.84c-.57-.33,0-1,.51-.69a3.43,3.43,0,0,1,1,.87C338.33,442.79,337.56,443.41,337.24,442.89Z" transform="translate(-158.23 -328.55)"/><path class="cls-3" d="M339,450.83a.51.51,0,0,1,.2-.38,3.7,3.7,0,0,0,1.07-1.43.41.41,0,0,1,.38-.26.59.59,0,0,1,.58.55c0,.35-1,2-1.65,2A.56.56,0,0,1,339,450.83Zm2.38-2.28-.73,0a1,1,0,0,1-.89-1.08c0-.84,0-1.95,0-3,0-.77,0-1.5,0-2.05s.3-1,.88-1h1.53a1,1,0,0,1,.95,1c0,.67,0,1.5,0,2.33,0,1,0,2,0,2.78C343.1,448.46,342.45,448.55,341.38,448.55Zm.76-4.2h-1.4v1.15h1.4Zm0-.88c0-.32,0-.61,0-.88s-.2-.37-.67-.37-.67.09-.67.39,0,.52,0,.86Zm-1.38,2.9c0,.34,0,.65,0,.9s.13.36.67.36.65,0,.67-.37,0-.56,0-.89Zm8.21-3.75c-.71,0-1.5,0-2.24,0-.43,0-.84,0-1.2,0s-.44.19-.44.46v1.12H348c.6,0,1,.27,1,.92a8.39,8.39,0,0,1-1.28,3.52,4.61,4.61,0,0,0,1.86,1.41.57.57,0,0,1,.37.53.65.65,0,0,1-.65.64c-.4,0-1.24-.46-2.19-1.71a4.54,4.54,0,0,1-2.36,1.78.56.56,0,0,1-.55-.57.53.53,0,0,1,.32-.49,5.35,5.35,0,0,0,2-1.65,8.41,8.41,0,0,1-1.14-3.46h-.27c0,1.95-.22,4.12-1.27,5.69a.57.57,0,0,1-.5.27.53.53,0,0,1-.56-.49v-.05a.56.56,0,0,1-.27.08.43.43,0,0,1-.42-.34,2.87,2.87,0,0,0-.41-.88.46.46,0,0,1-.08-.25.47.47,0,0,1,.48-.42c.44,0,.83.78,1,1.12a.44.44,0,0,1,0,.15,9,9,0,0,0,1-4.76c0-.87,0-1.72,0-2.5s.4-1.12,1.23-1.14c.61,0,1.27,0,1.92,0s1.29,0,1.85,0a.52.52,0,1,1,0,1Zm-1.14,2.76c0-.16-.1-.25-.3-.25l-1.29,0a7.79,7.79,0,0,0,.81,2.53A6.5,6.5,0,0,0,347.82,445.38Z" transform="translate(-158.23 -328.55)"/></g><g class="cls-2"><path class="cls-3" d="M180.59,475.31a.6.6,0,0,1-.61-.61.53.53,0,0,1,.51-.54,3,3,0,0,0,3-3.26.52.52,0,0,1,.54-.55.56.56,0,0,1,.6.54,4.22,4.22,0,0,1-3.89,4.41Zm1-4.35a.54.54,0,0,1-.59.5c-.56,0-.56-.44-.56-.88,0-.68.05-1.56,1.28-1.58s2.44,0,3.67,0c1.08,0,2.16,0,3.19,0,.65,0,1.38.34,1.41,1.13,0,.15,0,.31,0,.48,0,.4,0,.9-.61.9a.54.54,0,0,1-.59-.5v0c0-1,0-1-.65-1l-3.27,0-2.59,0c-.65,0-.69.21-.7.52V471Zm.27-2.58a.48.48,0,1,1,0-.95l2.75,0v-.72H181a.48.48,0,1,1,0-1h3.65v-.66a.59.59,0,0,1,.63-.6.58.58,0,0,1,.62.6v.66h3.64a.48.48,0,0,1,0,1h-3.64v.72l2.74,0a.48.48,0,0,1,0,.95Zm4.24,2a.51.51,0,0,1,.55.5c0,.47,0,1.75,0,2.4s.09.82,1.11.82,1.42-.34,1.42-1a.5.5,0,0,1,.55-.51.58.58,0,0,1,.64.59c0,1.69-1.18,2-2.7,2-1.3,0-2.16-.18-2.16-1.4,0-.47,0-2.48,0-2.87A.55.55,0,0,1,186.11,470.35Z" transform="translate(-158.23 -328.55)"/><path class="cls-3" d="M193.66,475.17a4.62,4.62,0,0,0-1.47-1.26.54.54,0,0,1-.33-.48.54.54,0,0,1,.57-.53c.42,0,2.34,1.06,2.34,1.87a.66.66,0,0,1-.65.66A.55.55,0,0,1,193.66,475.17Z" transform="translate(-158.23 -328.55)"/><path class="cls-3" d="M203.75,472.42l-.54,1.43a1.14,1.14,0,0,1-1,.82,1.28,1.28,0,0,1-1.14-.84c-.59-1.35-2.08-5.14-2.64-6.79a.39.39,0,0,0-.34-.29.58.58,0,1,1-.06-1.16h0l.82,0,1,0h0a.58.58,0,0,1,.62.58.55.55,0,0,1-.56.58c-.13,0-.18.08-.18.18a63,63,0,0,0,2.13,5.94c.08.19.14.3.21.3s.31-.33,1-2.22c-.57-1.49-1.18-3.06-1.51-3.94-.08-.21-.15-.27-.27-.28a.58.58,0,0,1,0-1.14H203a.6.6,0,0,1,.11,1.14.12.12,0,0,0-.13.13,26.18,26.18,0,0,0,.8,2.56c.49-1.36.81-2.5.81-2.56s-.05-.13-.15-.13a.52.52,0,0,1-.53-.57.53.53,0,0,1,.52-.57h0l.7,0,.89,0h0a.51.51,0,0,1,.51.56.54.54,0,0,1-.43.58.26.26,0,0,0-.26.19l-1.54,4c.8,2.09.94,2.19,1,2.19s.12-.09.18-.25c2.13-5.73,2.16-5.85,2.16-5.92a.22.22,0,0,0-.22-.22.59.59,0,0,1,0-1.16h0l.88,0,1.13,0h0a.52.52,0,0,1,.48.57.53.53,0,0,1-.51.59.31.31,0,0,0-.32.19c-.84,2.2-2.21,5.56-2.69,6.91a1.13,1.13,0,0,1-1.05.83,1.23,1.23,0,0,1-1.13-.85Z" transform="translate(-158.23 -328.55)"/><path class="cls-3" d="M213.74,473.42c1.92,0,2-.05,2.2-.78a.62.62,0,0,1,.6-.47.64.64,0,0,1,.66.64,3.19,3.19,0,0,1-.24.78c-.24.62-.68,1-2,1h-2.39c-.57,0-1.11,0-1.56,0a.65.65,0,0,1-.72-.62.62.62,0,0,1,.66-.63h.12c.21,0,.27-.06.28-.24.06-.79.07-3,.07-4.78v-1.27c0-.18-.05-.28-.31-.28s-.77-.06-.77-.61a.62.62,0,0,1,.67-.61h.05l1.18,0,2.54,0c1.47,0,1.65.54,1.91,1.44a1.27,1.27,0,0,1,0,.26.62.62,0,0,1-.66.62.61.61,0,0,1-.63-.52c-.09-.44-.23-.6-.83-.6l-1.58,0c-.24,0-.31.05-.33.32,0,.54,0,1.37,0,2.18,0,.12.06.15.17.15h1.19c.21,0,.24-.18.24-.38a.62.62,0,0,1,.63-.66.57.57,0,0,1,.59.61v0c0,.27,0,.6,0,.91s0,.74,0,1V471a.58.58,0,0,1-.62.58.57.57,0,0,1-.6-.58V471c0-.05,0-.11,0-.16s0-.25-.26-.25h-1.19c-.15,0-.18.06-.18.19,0,1.09,0,2.09,0,2.36S212.81,473.42,213.74,473.42Z" transform="translate(-158.23 -328.55)"/><path class="cls-3" d="M224.91,471.91c0,1.26-.94,2.6-3,2.72l-.8,0c-.66,0-1.25,0-1.91,0h-.69a.62.62,0,0,1-.72-.61.64.64,0,0,1,.7-.63h0c.21,0,.24-.1.25-.26,0-.5,0-1.75,0-3s0-2.5,0-3c0-.2-.05-.28-.22-.28-.35,0-.77-.13-.77-.61a.62.62,0,0,1,.67-.61h.7c.61,0,1.16,0,1.76,0l.72,0c2.13.13,2.74,1.26,2.74,2.14a1.84,1.84,0,0,1-1.43,1.86c-.19,0-.2.08-.2.09s.18,0,.19,0A2.11,2.11,0,0,1,224.91,471.91Zm-1.36-.12c0-.71-.48-1.38-1.59-1.47l-.81,0c-1,0-1.12,0-1.12.27,0,2.06,0,2.41,0,2.61s.12.31,1,.31c.32,0,.66,0,.89,0A1.68,1.68,0,0,0,223.55,471.79Zm-2.66-5.05c-.73,0-.82,0-.83.31s0,1.2,0,1.88c0,.21.07.25.86.25h.7a1.46,1.46,0,0,0,1.42-1.36c0-.56-.43-1.06-1.51-1.06Z" transform="translate(-158.23 -328.55)"/><path class="cls-3" d="M227.61,470c0,1.35,0,3.16-.05,4.87a.55.55,0,0,1-.59.53.53.53,0,0,1-.56-.5v0c.08-2.22.06-6.18.08-8.72,0-1.1.74-1.13,2.07-1.13h1.2a1,1,0,0,1,1.1.92c0,.41,0,.83,0,1.24,0,1.47,0,1.75-2.43,1.75-.32,0-.62,0-.84,0Zm2.21-3.4c0-.13,0-.25,0-.36,0-.35-.15-.36-1.08-.36s-1.07,0-1.1.45c0,.09,0,.17,0,.27Zm-2.21.77v.7c.18,0,.54,0,.91,0,1.19,0,1.27-.05,1.28-.38,0-.1,0-.22,0-.34Zm5.24,4.95v2a.5.5,0,0,1-.53.51.5.5,0,0,1-.53-.51v-2h-1.06a2.61,2.61,0,0,1-2,2.58l-.23,0a.48.48,0,0,1-.5-.49.44.44,0,0,1,.35-.44,1.66,1.66,0,0,0,1.32-1.68h-.94c-.36,0-.53-.22-.53-.44a.49.49,0,0,1,.53-.47h1v-.19c0-.32,0-.62,0-.89H229a.47.47,0,0,1-.53-.45.49.49,0,0,1,.53-.46h4.48a.46.46,0,1,1,0,.91h-.61v1.08h1a.46.46,0,1,1,0,.91Zm-1.06-2h-1v1.08h1Zm2.38-1.39c-1.51,0-2.46,0-2.49-1,0-.23,0-.48,0-.73,0-.41,0-.83,0-1.24a1,1,0,0,1,1.08-.92h2.13c.9,0,1.26.5,1.26,1V467c0,1.79,0,3.76,0,5.3,0,.57,0,1.08,0,1.5,0,.86-.42,1.62-1.78,1.62-.81,0-1.29-.11-1.29-.66a.5.5,0,0,1,.49-.53h.09a4.13,4.13,0,0,0,.65.07c.4,0,.67-.14.69-.73s0-1,0-1.59c0-.87,0-1.78,0-2.54v-.49C234.84,469,234.52,469,234.17,469Zm.86-2.34c0-.71,0-.72-1.14-.72s-1.12,0-1.15.37c0,.11,0,.23,0,.35Zm0,.77h-2.33c0,.12,0,.24,0,.34,0,.38.28.38,1.35.38.39,0,.8,0,1,0Z" transform="translate(-158.23 -328.55)"/><path class="cls-3" d="M247.14,472.1l-2.24,0c0,.76,0,1.41,0,1.57,0,.44.4.49,1,.49.77,0,1.14-.19,1.14-.9a.52.52,0,0,1,.55-.54.61.61,0,0,1,.65.66c0,1.41-.8,1.85-2.43,1.85-.65,0-2,0-2-1.4,0-.15,0-.89,0-1.75h-1.29a3.74,3.74,0,0,1-3.37,3.31l-.21,0a.58.58,0,0,1-.62-.6.5.5,0,0,1,.43-.53c1.81-.25,2.42-1.11,2.62-2.2l-1.91,0h0a.5.5,0,0,1-.55-.52.55.55,0,0,1,.56-.57h2v-1.4h-.14a.54.54,0,0,1-.51-.28,6,6,0,0,1-2.16,1.15.58.58,0,0,1-.55-.59.55.55,0,0,1,.36-.51,8.29,8.29,0,0,0,3.84-3.19c0-.09-.07-.12-.19-.12l-1.69,0a.48.48,0,0,1-.51-.5.49.49,0,0,1,.51-.52h1.69c.77,0,1.38,0,1.53.67a.45.45,0,0,1,.33.17q.23.27.48.54a6.41,6.41,0,0,0,.88-1,.46.46,0,0,1,.4-.23.65.65,0,0,1,.62.6c0,.41-.92,1.19-1.17,1.39l.57.51a6.83,6.83,0,0,0,1.11-1.11.47.47,0,0,1,.38-.2.67.67,0,0,1,.62.61c0,.26-.39.68-1.25,1.32a8.67,8.67,0,0,0,1.59.85.56.56,0,0,1,.38.51.65.65,0,0,1-.67.62,5.15,5.15,0,0,1-2.19-1.23v0a.53.53,0,0,1-.57.53h-.19c0,.36,0,.86,0,1.4h2.23a.54.54,0,0,1,.58.55.53.53,0,0,1-.57.54Zm-7.31-4.27a5.27,5.27,0,0,0-1.05-.83.41.41,0,0,1-.24-.36.59.59,0,0,1,.6-.53c.48,0,1.48.86,1.51.89a.55.55,0,0,1,.16.37.65.65,0,0,1-.62.63A.44.44,0,0,1,239.83,467.83Zm5.25.73a18.79,18.79,0,0,1-1.78-1.82,12.55,12.55,0,0,1-1.62,1.82ZM243.79,471c0-.54,0-1,0-1.4h-1.26v1.12c0,.1,0,.18,0,.28Z" transform="translate(-158.23 -328.55)"/><path class="cls-3" d="M254.35,467.18a30,30,0,0,1-2.42,4.6.66.66,0,0,1-.6.35.52.52,0,0,1-.56-.51.81.81,0,0,1,.13-.41,26.14,26.14,0,0,0,2.12-3.5,3.59,3.59,0,0,1-1.51.48c-.79,0-.79-.54-.79-.59a.54.54,0,0,1,.55-.56l.24,0a.47.47,0,0,0,.21,0,4.75,4.75,0,0,0,1.69-.63c0-.28,0-.56.05-.92A.53.53,0,0,1,254,465a.55.55,0,0,1,.58.52v.25l.13,0a.49.49,0,0,1,.48.49c0,.41-.52.72-.86.91Zm-.34,7.94c-1.09,0-2-.78-2-1.46s1.06-1.38,2.61-1.38l.55,0c-.09-1-.09-1-.09-1.14,0-.78.26-1.48,1.66-2.42a.24.24,0,0,0,.11-.14c0-.07-.11-.07-.16-.07a3.83,3.83,0,0,0-.77.14h-.15a.41.41,0,0,1-.46-.39c0-.32.35-.68,1.6-.68.87,0,1.93.51,1.93,1.06a.62.62,0,0,1-.61.54,2.16,2.16,0,0,0-2.15,2,3.28,3.28,0,0,0,.06.59l.12.74c.74.23,1.91.75,1.91,1.44a.59.59,0,0,1-.55.62.71.71,0,0,1-.5-.24,3.94,3.94,0,0,0-.91-.65A2.36,2.36,0,0,1,254,475.12Zm.33-1.92c-.7,0-1.3.24-1.3.46s.42.47.88.47a1.21,1.21,0,0,0,1.23-.83A3.74,3.74,0,0,0,254.34,473.2Z" transform="translate(-158.23 -328.55)"/><path class="cls-3" d="M263,470.1c-.51-.28-.62-.68-.62-1.35,0-.19,0-.4,0-.64,0-.56,0-1,0-1.35a5.61,5.61,0,0,0-.08-1.15.44.44,0,0,1,0-.15.52.52,0,0,1,.56-.53c.73,0,.76.69.76,1.5,0,.33,0,.75-.07,1.35,0,.37-.06.67-.06.91,0,.75.49.82.85.82.18,0,.21-.1.35-.15a.63.63,0,0,1,.19,0,.6.6,0,0,1,.6.57.77.77,0,0,1-.44.63c-.41.25-1.37.66-1.92,1-.91.5-1.32,1-1.32,1.46s.53,1,1.76,1a3.39,3.39,0,0,0,1.67-.39,1,1,0,0,1,.56-.19.65.65,0,0,1,.69.61c0,.75-1.41,1.17-2.64,1.17-2.17,0-3.14-1-3.14-2.07,0-.86.66-1.84,2.11-2.66l.41-.23A1,1,0,0,1,263,470.1Zm3.27-1a4.3,4.3,0,0,0-.88-.82.39.39,0,0,1-.24-.34.47.47,0,0,1,.49-.42c.27,0,1.44.72,1.44,1.23a.53.53,0,0,1-.49.53A.36.36,0,0,1,266.31,469.15Zm1.21-.91a4,4,0,0,0-.9-.78.41.41,0,0,1-.25-.35.47.47,0,0,1,.49-.43c.24,0,1.46.69,1.46,1.21a.53.53,0,0,1-.49.53A.38.38,0,0,1,267.52,468.24Z" transform="translate(-158.23 -328.55)"/><path class="cls-3" d="M270.94,475.17a4.62,4.62,0,0,0-1.47-1.26.54.54,0,0,1-.33-.48.54.54,0,0,1,.57-.53c.42,0,2.33,1.06,2.33,1.87a.66.66,0,0,1-.64.66A.55.55,0,0,1,270.94,475.17Z" transform="translate(-158.23 -328.55)"/><path class="cls-3" d="M279.2,467.71a4,4,0,0,1-.59-1.36.51.51,0,0,1,.55-.51.73.73,0,0,1,.7.57,5.66,5.66,0,0,0,.43,1l.54-.19a.94.94,0,0,1,.34-.07.55.55,0,0,1,.57.55c0,.46-.33.55-.91.72,1,1.86,1.64,3,1.64,3.72,0,.48-.24.67-.53.67a1,1,0,0,1-.62-.25,6,6,0,0,0-2.77-.65c-1,0-1.44.47-1.44.81,0,.52,1,.88,2.1.88l.57,0h.11c.47,0,.7.27.7.57a.72.72,0,0,1-.78.69c-2.45,0-3.89-.95-3.89-2,0-.59.64-1.91,2.72-1.91a14.34,14.34,0,0,1,2.22.27H281s0,0,0,0a8,8,0,0,0-1.24-2.49,8,8,0,0,1-1.33.19,2.76,2.76,0,0,1-2.55-1.67.54.54,0,0,1,.57-.51.7.7,0,0,1,.56.27,2.08,2.08,0,0,0,1.55.82h.23Z" transform="translate(-158.23 -328.55)"/><path class="cls-3" d="M287.15,475.28c-1,0-2-.66-2-1.53,0-1.12,1.44-1.37,2.34-1.37a5.46,5.46,0,0,1,.9.07v-.21c0-.18,0-.37,0-.58,0-.38-.07-.76-.09-1.17a4.65,4.65,0,0,1-.91.12c-.23,0-1.46-.09-1.46-.9,0-.23.1-.62.89-1.32.16-.13.27-.25.27-.38,0-.32-1-.68-1.8-.7-.43,0-.64-.25-.64-.5s.22-.54.65-.54,2.51.44,2.88,1.28V467c0-.49,0-1,0-1.36a.54.54,0,0,1,.55-.59.6.6,0,0,1,.63.59v.05c-.06.81-.12,1.95-.12,3.08v.33a2.06,2.06,0,0,0,.57-.42.64.64,0,0,1,.43-.21.6.6,0,0,1,.57.59c0,.59-1,1-1.55,1.18,0,.45.05.89.1,1.26s.08.79.09,1.23c.88.32,1.8.88,1.8,1.47a.65.65,0,0,1-.6.67.68.68,0,0,1-.51-.28,3.51,3.51,0,0,0-.83-.69A2.4,2.4,0,0,1,287.15,475.28Zm.15-2c-.84,0-1.11.21-1.11.44s.46.52.87.52a1.23,1.23,0,0,0,1.18-.83A3.8,3.8,0,0,0,287.3,473.3Zm.86-5.13a1.33,1.33,0,0,1-.38.5c-.7.55-.71.73-.71.77s.19.16.33.16a2.88,2.88,0,0,0,.81-.13C288.18,469,288.17,468.6,288.16,468.17Z" transform="translate(-158.23 -328.55)"/><path class="cls-3" d="M297.26,467.71a4,4,0,0,1-.59-1.36.51.51,0,0,1,.55-.51.73.73,0,0,1,.7.57,5.66,5.66,0,0,0,.43,1l.54-.19a1,1,0,0,1,.35-.07.55.55,0,0,1,.56.55c0,.46-.33.55-.91.72,1,1.86,1.64,3,1.64,3.72,0,.48-.24.67-.53.67a1,1,0,0,1-.62-.25,6,6,0,0,0-2.77-.65c-1,0-1.44.47-1.44.81,0,.52,1,.88,2.1.88l.57,0H298c.47,0,.7.27.7.57a.72.72,0,0,1-.78.69c-2.45,0-3.89-.95-3.89-2,0-.59.64-1.91,2.72-1.91a14.34,14.34,0,0,1,2.22.27H299s0,0,0,0a8,8,0,0,0-1.24-2.49,8,8,0,0,1-1.33.19,2.76,2.76,0,0,1-2.55-1.67.54.54,0,0,1,.57-.51.73.73,0,0,1,.57.27,2.05,2.05,0,0,0,1.54.82h.23Zm3.25-.37a4.6,4.6,0,0,0-.84-.87.41.41,0,0,1-.23-.34.47.47,0,0,1,.49-.42c.31,0,1.42.81,1.42,1.29a.55.55,0,0,1-.52.54A.36.36,0,0,1,300.51,467.34Zm1.39-.72a3.82,3.82,0,0,0-.87-.83.44.44,0,0,1-.24-.35.49.49,0,0,1,.5-.43c.38,0,1.44.78,1.44,1.27a.54.54,0,0,1-.51.53A.37.37,0,0,1,301.9,466.62Z" transform="translate(-158.23 -328.55)"/><path class="cls-3" d="M306.83,475.28c-1,0-2-.66-2-1.53,0-1.12,1.44-1.37,2.34-1.37a5.46,5.46,0,0,1,.9.07v-.21c0-.18,0-.37,0-.58,0-.38-.07-.76-.09-1.17a4.65,4.65,0,0,1-.91.12c-.23,0-1.45-.09-1.45-.9,0-.23.09-.62.88-1.32.16-.13.27-.25.27-.38,0-.32-1-.68-1.8-.7-.43,0-.64-.25-.64-.5s.22-.54.65-.54,2.51.44,2.88,1.28V467c0-.49,0-1,0-1.36a.54.54,0,0,1,.55-.59.6.6,0,0,1,.63.59v.05c-.06.81-.12,1.95-.12,3.08v.33a1.92,1.92,0,0,0,.57-.42.65.65,0,0,1,.44-.21.59.59,0,0,1,.56.59c0,.59-1,1-1.55,1.18,0,.45.05.89.1,1.26s.08.79.09,1.23c.88.32,1.8.88,1.8,1.47a.65.65,0,0,1-.6.67.72.72,0,0,1-.51-.28,3.51,3.51,0,0,0-.83-.69A2.4,2.4,0,0,1,306.83,475.28Zm.15-2c-.84,0-1.11.21-1.11.44s.46.52.87.52a1.23,1.23,0,0,0,1.18-.83A3.8,3.8,0,0,0,307,473.3Zm.86-5.13a1.33,1.33,0,0,1-.38.5c-.7.55-.71.73-.71.77s.19.16.33.16a2.88,2.88,0,0,0,.81-.13C307.86,469,307.85,468.6,307.84,468.17Z" transform="translate(-158.23 -328.55)"/><path class="cls-3" d="M317.24,467.18a31,31,0,0,1-2.43,4.6.66.66,0,0,1-.6.35.52.52,0,0,1-.56-.51.81.81,0,0,1,.13-.41,26.26,26.26,0,0,0,2.13-3.5,3.63,3.63,0,0,1-1.52.48c-.79,0-.79-.54-.79-.59a.54.54,0,0,1,.55-.56l.24,0a.49.49,0,0,0,.21,0,4.75,4.75,0,0,0,1.69-.63c0-.28,0-.56,0-.92a.53.53,0,0,1,.56-.53.55.55,0,0,1,.58.52v.25l.13,0a.49.49,0,0,1,.48.49c0,.41-.52.72-.85.91Zm-.35,7.94c-1.09,0-2-.78-2-1.46s1.05-1.38,2.6-1.38l.55,0c-.08-1-.08-1-.08-1.14,0-.78.25-1.48,1.65-2.42a.24.24,0,0,0,.11-.14c0-.07-.11-.07-.16-.07a3.77,3.77,0,0,0-.76.14h-.16a.41.41,0,0,1-.46-.39c0-.32.35-.68,1.6-.68.87,0,1.93.51,1.93,1.06a.61.61,0,0,1-.61.54,2.16,2.16,0,0,0-2.15,2,4.54,4.54,0,0,0,.06.59c0,.24.09.49.12.74.75.23,1.91.75,1.91,1.44a.59.59,0,0,1-.55.62.67.67,0,0,1-.49-.24,4.25,4.25,0,0,0-.92-.65A2.35,2.35,0,0,1,316.89,475.12Zm.33-1.92c-.7,0-1.3.24-1.3.46s.42.47.88.47a1.2,1.2,0,0,0,1.23-.83A3.74,3.74,0,0,0,317.22,473.2Z" transform="translate(-158.23 -328.55)"/><path class="cls-3" d="M328.77,470c-.63,4.28-4,5.24-4.4,5.24a.59.59,0,0,1-.6-.59.57.57,0,0,1,.45-.54,4.58,4.58,0,0,0,3.35-4.11h-1.08a.49.49,0,0,1-.52-.49v-.07c-.54.62-1.39,1.46-1.92,1.46a.63.63,0,0,1-.64-.61.62.62,0,0,1,.32-.52,6.35,6.35,0,0,0,2.38-2.68.6.6,0,0,1,.55-.37.64.64,0,0,1,.64.61,5.9,5.9,0,0,1-1,1.68.41.41,0,0,1,.16,0h3.93a1.2,1.2,0,0,1,1.27,1.32c0,2.33-.07,4.88-2.72,4.88a5.13,5.13,0,0,1-1.18-.16.56.56,0,0,1-.41-.56.59.59,0,0,1,.57-.62l.18,0a3.56,3.56,0,0,0,.94.15c.84,0,1.44-.41,1.44-3.37v-.18c0-.34-.17-.47-.42-.47Zm-1.56-3.68h0a.57.57,0,1,1,0-1.13l2,0h.05a1.39,1.39,0,0,1,1.39.74,8,8,0,0,0,3.05,3.51.67.67,0,0,1,.35.58.73.73,0,0,1-.71.71c-.67,0-2.49-1.72-3.61-4.07a.65.65,0,0,0-.69-.37h-.06Z" transform="translate(-158.23 -328.55)"/><path class="cls-3" d="M338.62,472v1.07c.59-.13,1.14-.29,1.63-.45l.15,0a.45.45,0,0,1,.42.47.52.52,0,0,1-.35.48,25.31,25.31,0,0,1-4.64,1.08.53.53,0,0,1-.53-.56.48.48,0,0,1,.45-.51c.63-.06,1.24-.16,1.83-.27V472H336a.43.43,0,0,1-.45-.45.45.45,0,0,1,.46-.48h1.54v-1l-.79,0a1.06,1.06,0,0,1-1.12-1c0-.4,0-.87,0-1.35s0-1,0-1.42a1.09,1.09,0,0,1,1.19-1.12c.43,0,.85,0,1.28,0s.87,0,1.29,0a1,1,0,0,1,1.05.91c0,.56.06,1.1.06,1.64s0,.9-.05,1.34c0,.6-.43.94-1.16,1l-.72,0v1h1.54a.44.44,0,0,1,.44.46.46.46,0,0,1-.46.48Zm-1-6c-1,0-1,0-1,1.13h1Zm0,2h-1c0,.28,0,.55,0,.81s.23.37.93.37Zm1.95-.87c0-.28,0-.53,0-.76s-.2-.37-.92-.37v1.13Zm-1,.87v1.18c.94,0,1,0,1-1.18Zm4,1.71-1.48,0h0a.48.48,0,0,1-.51-.48.49.49,0,0,1,.52-.5c.64,0,1.31,0,2,0a.31.31,0,0,1-.1-.1,3.21,3.21,0,0,0-1.14-.83.35.35,0,0,1-.23-.32.58.58,0,0,1,.58-.52,1.83,1.83,0,0,1,.73.3,6,6,0,0,0,.93-1s0-.06-.09-.06c-.68,0-1.53.06-2.33.09h0a.48.48,0,0,1-.5-.51.49.49,0,0,1,.51-.51l2.14,0h.79c.61,0,1,.33,1,.74,0,.25-.12.69-1.6,1.87l.06.06a.48.48,0,0,1,.14.32.65.65,0,0,1-.29.49l1.28,0a.92.92,0,0,1,1,.93,4.8,4.8,0,0,1-.69,1.71.78.78,0,0,1-.6.31.52.52,0,0,1-.57-.46.45.45,0,0,1,.1-.27,4.39,4.39,0,0,0,.56-1.08c0-.2-.18-.2-1.08-.2V472l0,1.69v0a1.52,1.52,0,0,1-1.73,1.56c-.68,0-1.2-.09-1.2-.69a.49.49,0,0,1,.46-.54h.12a2.81,2.81,0,0,0,.61.09c.38,0,.64-.16.64-.72Z" transform="translate(-158.23 -328.55)"/></g><g class="cls-2"><path class="cls-3" d="M186.94,498.69h-.12c-2.6-.24-4.25-2-4.25-3.89a3.37,3.37,0,0,1,.87-2.19c0-.05.06-.08.06-.11l0,0-.12,0c-1.88,1-2.11,1-2.37,1a.64.64,0,0,1-.18-1.27c.25-.09.93-.29,1.29-.42.57-.21,1.56-.52,2.75-1a9.33,9.33,0,0,1,3.18-.74c.6,0,.81.28.81.59,0,.61-.5.74-1,.74h-.56c-1.86,0-3.68,1.58-3.68,3.19,0,1.44,1.37,2.66,3.25,2.66.6,0,.89.35.89.71S187.49,498.69,186.94,498.69Zm1-4.21a4.44,4.44,0,0,0-1-.74.41.41,0,0,1-.3-.38.51.51,0,0,1,.53-.46c.15,0,1.62.55,1.62,1.17a.58.58,0,0,1-.52.57A.41.41,0,0,1,188,494.48Zm1.38-1a4.13,4.13,0,0,0-1-.7c-.22-.09-.32-.23-.32-.37a.52.52,0,0,1,.53-.48c.19,0,1.63.51,1.63,1.13a.56.56,0,0,1-.5.57A.43.43,0,0,1,189.35,493.48Z" transform="translate(-158.23 -328.55)"/><path class="cls-3" d="M192.93,493.68a4.47,4.47,0,0,0-1.4-.77.4.4,0,0,1-.3-.4.59.59,0,0,1,.57-.57,4.34,4.34,0,0,1,1.77.71.6.6,0,0,1,.25.5.64.64,0,0,1-.55.66A.54.54,0,0,1,192.93,493.68Zm-.64,5.42a.63.63,0,0,1-.63-.59.61.61,0,0,1,.14-.36,10.88,10.88,0,0,0,1.61-2.85.51.51,0,0,1,.48-.33.58.58,0,0,1,.6.55,10.4,10.4,0,0,1-1.63,3.27A.71.71,0,0,1,192.29,499.1Zm1.17-8.05a5,5,0,0,0-1.21-1,.44.44,0,0,1-.23-.38.59.59,0,0,1,.6-.53c.2,0,1.85.75,1.85,1.45a.66.66,0,0,1-.62.64A.52.52,0,0,1,193.46,491.05Zm5.25,2.27v1.51l.9,0A1.32,1.32,0,0,1,201,496c0,.34,0,.69,0,1s0,.55,0,.82c0,.71-.51,1.17-1.42,1.25-.36,0-.9,0-1.44,0-1.82,0-2.81-.06-2.85-1.26,0-.34,0-.69,0-1s0-.56,0-.81a1.25,1.25,0,0,1,1.35-1.18l.89,0v-1.51h-2.47a.53.53,0,1,1,0-1.06h2.47v-1.41c-.68.08-1.76.15-1.93.15a.52.52,0,0,1-.55-.55.49.49,0,0,1,.49-.53,15,15,0,0,0,4.48-.64.7.7,0,0,1,.23,0,.53.53,0,0,1,.54.55c0,.44-.23.6-2.11.9v1.57h2.54a.53.53,0,1,1,0,1.06Zm1.13,2.95c-.05-.49-.25-.49-1.7-.49l-1.13,0c-.55,0-.55.29-.55,1,0,.26,0,.52,0,.74,0,.57.42.57,1.7.57,1.69,0,1.69,0,1.69-1.17C199.86,496.71,199.85,496.48,199.84,496.27Z" transform="translate(-158.23 -328.55)"/><path class="cls-3" d="M205.66,496.67l-1.59,0h0a.42.42,0,0,1-.46-.42.44.44,0,0,1,.48-.42h1.59v-.47c-1.76,0-1.92,0-1.92-1.7,0-1.48.34-1.49,1.93-1.49v-.49h-1.82a.45.45,0,0,1-.48-.43.44.44,0,0,1,.48-.43h1.82v-.51c-.68,0-1.26,0-1.5,0a.47.47,0,0,1-.5-.48.45.45,0,0,1,.49-.45h0l.73,0a13.85,13.85,0,0,0,3-.34H208a.49.49,0,0,1,.49.49c0,.36-.24.48-1.82.65v.59h1.77a.44.44,0,0,1,.49.43s0,.06,0,.08a.49.49,0,0,1,.28-.07h1v-1.87a.52.52,0,0,1,.55-.53.54.54,0,0,1,.58.53l0,1.87h.9a1.23,1.23,0,0,1,1.29,1.33c0,.35,0,.71,0,1.07,0,2.3-.22,5.29-2.45,5.29a3.4,3.4,0,0,1-1-.18.56.56,0,0,1-.38-.54.53.53,0,0,1,.51-.57,1.11,1.11,0,0,1,.23,0,2.31,2.31,0,0,0,.63.12c.52,0,1.38-.31,1.38-4.26,0-.29,0-.56,0-.83a.41.41,0,0,0-.44-.45h-.64c-.08,2.53-.75,5.25-3,6.79a.67.67,0,0,1-.39.13.57.57,0,0,1-.57-.55.57.57,0,0,1,.28-.47,5.31,5.31,0,0,0,.51-.4,33.55,33.55,0,0,1-4.36.77.48.48,0,0,1-.48-.5.43.43,0,0,1,.42-.47c.65-.05,1.33-.11,2-.21Zm0-2.59h-1c0,.09,0,.16,0,.22,0,.36.14.37,1,.37Zm0-1.18c-.9,0-1,0-1,.43v.12h1Zm1,3.75v.59c.55-.1,1.05-.2,1.5-.31h.1a.39.39,0,0,1,.39.32,7.67,7.67,0,0,0,1.51-4.93h-1a.49.49,0,0,1-.51-.51.45.45,0,0,1,0-.16.61.61,0,0,1-.28.06h-1.77v.48c1.57,0,1.95,0,1.95,1.53s-.24,1.67-1.95,1.67v.46l1.49,0h0a.42.42,0,0,1,.44.41.43.43,0,0,1-.46.41Zm1-3.37c0-.38-.16-.38-1-.38v.55h1Zm-1,.8v.59c.75,0,1,0,1-.38,0-.07,0-.13,0-.21Z" transform="translate(-158.23 -328.55)"/><path class="cls-3" d="M218.86,498.8c-2.4,0-2.49-1.39-2.49-2.58,0-1.37.14-3.11.14-4.52a13.25,13.25,0,0,0-.07-1.37s0-.08,0-.12a.59.59,0,0,1,.63-.6.65.65,0,0,1,.67.58c0,.26,0,.55,0,.86,0,1.48-.26,3.36-.26,5,0,1,.05,1.58,1.24,1.58a8.14,8.14,0,0,0,2.87-.63,1.12,1.12,0,0,1,.37-.08.57.57,0,0,1,.59.58.82.82,0,0,1-.59.75A9.25,9.25,0,0,1,218.86,498.8Z" transform="translate(-158.23 -328.55)"/><path class="cls-3" d="M230.2,498.69h-.12c-2.6-.24-4.25-2-4.25-3.89a3.37,3.37,0,0,1,.87-2.19c0-.05.06-.08.06-.11l0,0-.12,0c-1.88,1-2.11,1-2.37,1a.64.64,0,0,1-.18-1.27c.25-.09.93-.29,1.29-.42.57-.21,1.56-.52,2.75-1a9.33,9.33,0,0,1,3.18-.74c.6,0,.81.28.81.59,0,.61-.5.74-1,.74h-.56c-1.86,0-3.68,1.58-3.68,3.19,0,1.44,1.37,2.66,3.25,2.66.6,0,.89.35.89.71S230.75,498.69,230.2,498.69Z" transform="translate(-158.23 -328.55)"/><path class="cls-3" d="M239.92,494.67a11.68,11.68,0,0,0,.44,1.11,1.63,1.63,0,0,1,.16.61.63.63,0,0,1-.67.67,1.82,1.82,0,0,1-.54-.1,8.3,8.3,0,0,0-2.11-.32c-.88,0-1.44.33-1.44.65s.52.79,1.87.79a3.57,3.57,0,0,0,.59,0h.14a.55.55,0,0,1,.62.54c0,.53-.5.68-.88.68-1.91,0-3.49-.85-3.49-1.89,0-.44.43-1.67,2.73-1.67.49,0,.95,0,1.3.06h.22c.14,0,.26,0,.26-.18a6.29,6.29,0,0,0-.27-.91,5,5,0,0,1-.78.05c-.23,0-2.52,0-2.52-1.36a1.17,1.17,0,0,1,.47-.9.22.22,0,0,0,.12-.19c0-.24-.72-.64-1.31-.76-.39-.08-.57-.32-.57-.54a.57.57,0,0,1,.62-.52c.76,0,2.59,1.08,2.59,1.8,0,.29-.24.49-.51.63s-.32.22-.32.32.69.44,1.38.44a2.52,2.52,0,0,0,.48,0,17.94,17.94,0,0,0-1.7-3.64.67.67,0,0,1-.12-.35.55.55,0,0,1,.61-.48.72.72,0,0,1,.66.41,35.66,35.66,0,0,1,1.54,3.81l.57-.19.23,0a.51.51,0,0,1,.5.55c0,.46-.33.6-.93.79Z" transform="translate(-158.23 -328.55)"/><path class="cls-3" d="M245.63,499.28c-1,0-2-.66-2-1.53,0-1.12,1.44-1.37,2.34-1.37a5.46,5.46,0,0,1,.9.07v-.21c0-.18,0-.37,0-.58,0-.38-.07-.76-.09-1.17a4.65,4.65,0,0,1-.91.12c-.23,0-1.45-.09-1.45-.9,0-.23.09-.62.88-1.32.16-.13.27-.25.27-.38,0-.32-1-.68-1.8-.7-.43,0-.64-.25-.64-.5s.22-.54.65-.54,2.51.44,2.88,1.28V491c0-.49,0-1,0-1.36a.54.54,0,0,1,.55-.59.6.6,0,0,1,.63.59v.05c-.06.81-.12,1.95-.12,3.08v.33a1.92,1.92,0,0,0,.57-.42.64.64,0,0,1,.43-.21.59.59,0,0,1,.57.59c0,.59-1,1-1.55,1.18,0,.45.05.89.1,1.26s.08.79.09,1.23c.88.32,1.8.88,1.8,1.47a.65.65,0,0,1-.6.67.7.7,0,0,1-.51-.28,3.51,3.51,0,0,0-.83-.69A2.4,2.4,0,0,1,245.63,499.28Zm.15-2c-.84,0-1.11.21-1.11.44s.46.52.87.52a1.23,1.23,0,0,0,1.18-.83A3.8,3.8,0,0,0,245.78,497.3Zm.86-5.13a1.33,1.33,0,0,1-.38.5c-.7.55-.71.73-.71.77s.19.16.33.16a2.88,2.88,0,0,0,.81-.13C246.66,493,246.65,492.6,246.64,492.17Z" transform="translate(-158.23 -328.55)"/><path class="cls-3" d="M255,498.8c-2.4,0-2.49-1.39-2.49-2.58,0-1.37.14-3.11.14-4.52a10.94,10.94,0,0,0-.07-1.37s0-.08,0-.12a.59.59,0,0,1,.62-.6.65.65,0,0,1,.67.58c0,.26,0,.55,0,.86,0,1.48-.25,3.36-.25,5,0,1,0,1.58,1.23,1.58a8.14,8.14,0,0,0,2.87-.63,1.12,1.12,0,0,1,.37-.08.57.57,0,0,1,.59.58.82.82,0,0,1-.59.75A9.25,9.25,0,0,1,255,498.8Z" transform="translate(-158.23 -328.55)"/><path class="cls-3" d="M264.57,492a58.66,58.66,0,0,1-2.78,6.3.63.63,0,0,1-.58.33.57.57,0,0,1-.62-.51.67.67,0,0,1,.09-.34,37.24,37.24,0,0,0,2.61-5.42l-.14,0a4,4,0,0,1-1,.15c-.12,0-1.05,0-1.05-.65a.57.57,0,0,1,.53-.61.82.82,0,0,1,.36.1.62.62,0,0,0,.31.07,5.32,5.32,0,0,0,1.4-.34,4.48,4.48,0,0,0,.09-1,.59.59,0,0,1,.65-.56.51.51,0,0,1,.57.43,1.34,1.34,0,0,1,0,.21,1.7,1.7,0,0,1,0,.22l.15,0a.57.57,0,0,1,.57.55c0,.31-.22.53-1.11.93Zm3.66,6.75c-2,0-3.27-1-3.27-1.65a.64.64,0,0,1,.59-.64.56.56,0,0,1,.47.27c.46.61.84.69,2.41.8a.59.59,0,0,1,.61.6C269,498.76,268.42,498.76,268.23,498.76Zm.69-4.51a6.89,6.89,0,0,0-2.12-.55,1.36,1.36,0,0,0-.41.05l-.13,0a.47.47,0,0,1-.46-.49c0-.19.06-.63,1.13-.63a7,7,0,0,1,2.44.53.57.57,0,0,1,.38.53.59.59,0,0,1-.83.54Z" transform="translate(-158.23 -328.55)"/><path class="cls-3" d="M272.66,499.43a1.37,1.37,0,1,1,1.37-1.36A1.36,1.36,0,0,1,272.66,499.43Zm0-2.26a.89.89,0,0,0-.91.9.91.91,0,1,0,.91-.9Z" transform="translate(-158.23 -328.55)"/></g></g></g></svg>