<svg xmlns="http://www.w3.org/2000/svg" width="181.527" height="9.596" viewBox="0 0 181.527 9.596"><g transform="translate(0.002 -0.005)"><path d="M40.222,90.387v3.625H39.127V90.387L35.85,85h1.2l2.6,4.35h0L42.266,85H43.5Z" transform="translate(-35.63 -84.711)" fill="#231815" stroke="#231815" stroke-miterlimit="10" stroke-width="0.25"/><path d="M69.571,89.46a5.728,5.728,0,0,1-.3,1.878,4.35,4.35,0,0,1-.841,1.45,3.726,3.726,0,0,1-1.319.964,4.147,4.147,0,0,1-1.725.348,4.27,4.27,0,0,1-1.762-.348,3.69,3.69,0,0,1-1.327-.964,4.408,4.408,0,0,1-.826-1.45,5.93,5.93,0,0,1-.283-1.878,5.619,5.619,0,0,1,.3-1.885,4.35,4.35,0,0,1,.841-1.45,3.878,3.878,0,0,1,1.312-.964,4.306,4.306,0,0,1,1.74-.341,4.35,4.35,0,0,1,1.754.341,3.835,3.835,0,0,1,1.319.964,4.2,4.2,0,0,1,.826,1.45,6.01,6.01,0,0,1,.29,1.885Zm-1.095,0a4.857,4.857,0,0,0-.239-1.595,3.27,3.27,0,0,0-.652-1.16,2.7,2.7,0,0,0-.986-.725,3.1,3.1,0,0,0-1.2-.217A3.132,3.132,0,0,0,64.177,86a2.769,2.769,0,0,0-.986.725A3.386,3.386,0,0,0,62.5,87.85a5.459,5.459,0,0,0,0,3.2,3.429,3.429,0,0,0,.674,1.153,2.748,2.748,0,0,0,.986.725,3.132,3.132,0,0,0,1.225.239,3.067,3.067,0,0,0,1.218-.239,2.726,2.726,0,0,0,.971-.725,3.3,3.3,0,0,0,.652-1.153,4.9,4.9,0,0,0,.247-1.588Z" transform="translate(-42.599 -84.661)" fill="#231815" stroke="#231815" stroke-miterlimit="10" stroke-width="0.25"/><path d="M92.285,93.2a3.161,3.161,0,0,0,.87-.116,2.08,2.08,0,0,0,.66-.326,1.82,1.82,0,0,0,.471-.5,2.371,2.371,0,0,0,.29-.645,3.131,3.131,0,0,0,.094-.493V85h1.095v6.213a4.03,4.03,0,0,1-.109.638,3.131,3.131,0,0,1-.384.921,2.537,2.537,0,0,1-.66.725,3.06,3.06,0,0,1-.986.486,5.336,5.336,0,0,1-2.646,0,3.038,3.038,0,0,1-.964-.449,2.509,2.509,0,0,1-.652-.674,3.342,3.342,0,0,1-.435-.834,4.349,4.349,0,0,1-.145-.725,6.642,6.642,0,0,1-.044-.725V85h1.131v5.582a4.67,4.67,0,0,0,.044.623,2.719,2.719,0,0,0,.138.58,2.023,2.023,0,0,0,.783,1.029A2.545,2.545,0,0,0,92.285,93.2Z" transform="translate(-50.176 -84.711)" fill="#231815" stroke="#231815" stroke-miterlimit="10" stroke-width="0.25"/><path d="M117.773,94h-1.095V86.029H113.67V85h7.112v.986h-3.009Z" transform="translate(-57.032 -84.711)" fill="#231815" stroke="#231815" stroke-miterlimit="10" stroke-width="0.25"/><path d="M139.822,88.9h4.712V85h1.095v9h-1.095V89.886h-4.712V94h-1.1V85h1.1Z" transform="translate(-63.921 -84.711)" fill="#231815" stroke="#231815" stroke-miterlimit="10" stroke-width="0.25"/><path d="M180.761,87.325a1.218,1.218,0,0,0,.16.66,1.449,1.449,0,0,0,.428.428,2.806,2.806,0,0,0,.631.276c.246.065.493.138.725.2s.689.181,1.029.283a3.437,3.437,0,0,1,.9.428,2.081,2.081,0,0,1,.638.725,2.247,2.247,0,0,1,.246,1.124,2.639,2.639,0,0,1-.261,1.211,2.334,2.334,0,0,1-.725.834,3.175,3.175,0,0,1-1.1.478,5.663,5.663,0,0,1-1.4.16,6.142,6.142,0,0,1-.725-.044,6.329,6.329,0,0,1-.725-.116c-.225-.051-.428-.109-.609-.167a2.363,2.363,0,0,1-.421-.188V92.6a3.857,3.857,0,0,0,.544.217,6.351,6.351,0,0,0,.631.174c.21.043.428.08.645.109a4.839,4.839,0,0,0,.623.043,5.184,5.184,0,0,0,.9-.08,2.342,2.342,0,0,0,.725-.275,1.348,1.348,0,0,0,.515-.515,1.6,1.6,0,0,0,.189-.812,1.247,1.247,0,0,0-.167-.667,1.334,1.334,0,0,0-.442-.435,2.451,2.451,0,0,0-.638-.276c-.239-.072-.486-.145-.725-.2s-.689-.174-1.022-.275a3.2,3.2,0,0,1-.9-.42,1.986,1.986,0,0,1-.631-.689,2.175,2.175,0,0,1-.239-1.087,2.552,2.552,0,0,1,.254-1.174,2.269,2.269,0,0,1,.674-.819,2.9,2.9,0,0,1,.993-.478,4.488,4.488,0,0,1,1.189-.152,6.046,6.046,0,0,1,1.341.138,6.343,6.343,0,0,1,1.138.355v1.015a8.6,8.6,0,0,0-1.153-.384,5.916,5.916,0,0,0-1.276-.152,3.168,3.168,0,0,0-.884.109,1.841,1.841,0,0,0-.631.319,1.254,1.254,0,0,0-.37.5A1.675,1.675,0,0,0,180.761,87.325Z" transform="translate(-75.15 -84.65)" fill="#231815" stroke="#231815" stroke-miterlimit="10" stroke-width="0.25"/><path d="M204.892,93.018H209.5V94H203.79V85h5.466v.986h-4.35v2.9h3.879v.986h-3.879Z" transform="translate(-81.817 -84.711)" fill="#231815" stroke="#231815" stroke-miterlimit="10" stroke-width="0.25"/><path d="M232.2,90.024c.551.79,1.095,1.609,1.631,2.45h.043c-.058-.877-.087-1.769-.087-2.682V85h1.1v9H233.8l-3.531-5.017c-.609-.877-1.153-1.689-1.638-2.45h0q.087,1.225.087,2.9v4.6H227.62V85h1.087Z" transform="translate(-88.37 -84.711)" fill="#231815" stroke="#231815" stroke-miterlimit="10" stroke-width="0.25"/><path d="M254.843,87.325a1.218,1.218,0,0,0,.167.66,1.341,1.341,0,0,0,.428.428,2.805,2.805,0,0,0,.631.275c.239.065.493.138.725.2s.725.181,1.03.283a3.488,3.488,0,0,1,.906.428,2.081,2.081,0,0,1,.638.725,2.247,2.247,0,0,1,.246,1.124,2.551,2.551,0,0,1-.268,1.211,2.313,2.313,0,0,1-.725.834,3.212,3.212,0,0,1-1.109.478,5.619,5.619,0,0,1-1.4.16,5.93,5.93,0,0,1-.725-.043,6.781,6.781,0,0,1-.725-.116c-.217-.051-.42-.109-.6-.167a2.174,2.174,0,0,1-.42-.188V92.6a3.856,3.856,0,0,0,.544.217c.2.065.413.123.623.174a6.447,6.447,0,0,0,.653.109,4.823,4.823,0,0,0,.616.044,5.077,5.077,0,0,0,.9-.08,2.327,2.327,0,0,0,.725-.275,1.283,1.283,0,0,0,.508-.515,1.53,1.53,0,0,0,.188-.812,1.247,1.247,0,0,0-.159-.667,1.486,1.486,0,0,0-.442-.435,2.69,2.69,0,0,0-.638-.275c-.239-.072-.493-.145-.725-.2s-.725-.174-1.029-.276a3.161,3.161,0,0,1-.892-.42,1.987,1.987,0,0,1-.631-.689,2.175,2.175,0,0,1-.239-1.087,2.552,2.552,0,0,1,.246-1.174,2.284,2.284,0,0,1,.681-.819,2.842,2.842,0,0,1,.986-.478,4.488,4.488,0,0,1,1.189-.152,6,6,0,0,1,1.341.138,6.244,6.244,0,0,1,1.145.355v1.015a9.346,9.346,0,0,0-1.153-.384,5.972,5.972,0,0,0-1.276-.152,3.263,3.263,0,0,0-.892.109,1.871,1.871,0,0,0-.623.319,1.254,1.254,0,0,0-.37.5A1.674,1.674,0,0,0,254.843,87.325Z" transform="translate(-95.526 -84.65)" fill="#231815" stroke="#231815" stroke-miterlimit="10" stroke-width="0.25"/><path d="M278.975,93.018h4.618V94H277.88V85h5.459v.986h-4.35v2.9h3.886v.986h-3.886Z" transform="translate(-102.193 -84.711)" fill="#231815" stroke="#231815" stroke-miterlimit="10" stroke-width="0.25"/></g></svg>