<svg id="レイヤー_1" data-name="レイヤー 1" xmlns="http://www.w3.org/2000/svg" viewBox="0 0 671.55 44.65"><defs><style>.cls-1{isolation:isolate;}.cls-2{fill:#040000;}</style></defs><g id="夢追い人で溢れる鹿児島を創る_" data-name="夢追い人で溢れる鹿児島を創る " class="cls-1"><g class="cls-1"><path class="cls-2" d="M162.08,352.1v2h8.45v10.8h-35.3V354.1h8.3v-2H131.18v-4.35h12.35v-2.7l5.4.3c.2,0,1.15,0,1.15.7,0,.25-.3.5-.4.6-.55.5-.55.65-.55,1.1h7.2V345l5.65.4c.5,0,1.05,0,1.05.6,0,.2-.05.4-.5.75s-.45.4-.45,1.05h12.35v4.35Zm6.4,22.2v-3.7h-17.3a10.74,10.74,0,0,1-1.65,2h15.7l1.4,1.5c-2.25,3.35-5,7.6-11.6,11.3s-11.55,3.95-15.65,4.15l-3-5.2a27.43,27.43,0,0,0,3.4.2,26.81,26.81,0,0,0,7.75-1.05A23,23,0,0,0,143,378.5a30,30,0,0,1-6.3,3.95l-4.15-3.55a32.78,32.78,0,0,0,7-3.65,17.3,17.3,0,0,0,4.95-4.65h-7.25v3.8h-5.35v-7.8H174v7.7Zm-23-16.6h-4.7v3.55h4.7Zm2.3,18.75a32.71,32.71,0,0,1,4.6,5.05,19.94,19.94,0,0,0,5.8-5.05Zm8.55-24.35h-7.2v2h7.2Zm-1.15,5.6h-4.75v3.55h4.75Zm9.85,0h-4.9v3.55H165Z" transform="translate(-131.18 -344.95)"/><path class="cls-2" d="M223.58,387.7h-20.8c-8.25,0-10.35-2.05-12.35-5.45-.6.45-5.2,3.85-5.3,3.95a2.06,2.06,0,0,0-.2.85c-.05.7-.05,1.15-.6,1.15s-.75-.55-1-1.25l-2.1-5.45a40,40,0,0,0,6.8-3.65V368h-6.15v-5.3h11.8v13.9c0,5.75,3,6.6,10.45,6.6a205.5,205.5,0,0,0,21.75-1.15Zm-33.4-31.65a33.66,33.66,0,0,0-6.5-6.8L188,345.3a41,41,0,0,1,6.6,6.85Zm27,24.9V379.1H203.33V381h-5.75v-30.5h6.2c.65-1.45,1.15-2.6,2-5l4.75.15c.9,0,2.05,0,2.05.65a.88.88,0,0,1-.35.6c-.8.5-.85.6-1,.9s-.85,2.3-1,2.7h11.55v13.4h-18.4v2.55h19.6V381Zm-1-25.8H203.33v4.05h12.85Zm1,15.55H203.33v4.05h13.85Z" transform="translate(-131.18 -344.95)"/><path class="cls-2" d="M241,383.8a5.45,5.45,0,0,1-3.7-1.65c-3.5-3.4-5.1-9.25-5.1-18.75a48.7,48.7,0,0,1,1.5-13l5.5,1.5c.35.1,1.15.35,1.15,1s-.6.75-1.45,1a51.83,51.83,0,0,0-1,11.15c0,9.75,2.4,11.55,3.4,11.55,1.8,0,3.85-5.3,4.8-7.7l4.15,3.7C247.58,378.5,245.08,383.8,241,383.8Zm25.35-8.9c-1.45-10.4-4.75-16.3-7.35-20.3l5.15-2.5a42.51,42.51,0,0,1,8.2,21.25Z" transform="translate(-131.18 -344.95)"/><path class="cls-2" d="M317.33,388.05c-9.35-5.7-12.7-9.25-16.8-18.15-3.65,8.6-6.85,12.05-16.6,18.4l-4.85-4.85c4.9-2.35,7.55-3.95,10.7-7.2,6.9-7.2,7.5-15.2,7.5-20.55,0-1.35-.15-7.8-.2-9.9l5.6.2c.55,0,2.25,0,2.25.75a1.2,1.2,0,0,1-.4.8c-.1.15-.9.8-1,1s-.1,3.55-.1,4.2c0,20.15,9.7,25.7,18.35,30.3Z" transform="translate(-131.18 -344.95)"/><path class="cls-2" d="M350.23,360.4c-3.7,3.7-6.1,8.2-6.1,12a7.94,7.94,0,0,0,3.6,6.5,15.75,15.75,0,0,0,8.8,2.55l-1.95,6.1c-2.65-.45-8.25-1.5-12.3-5.55a12.54,12.54,0,0,1-3.7-9,18.19,18.19,0,0,1,3.4-9.95,37.28,37.28,0,0,1,6.6-7.6c-6.7.55-14.05,1.15-19.05,1.85l-.85-5.6c10.8.1,26.3-1.1,35.75-4v5.8C362.08,353.65,356.58,354,350.23,360.4ZM360.68,369a22.2,22.2,0,0,0-4.1-3.85l2.05-2.4a21.8,21.8,0,0,1,4.15,3.85Zm4.05-4.55a23.15,23.15,0,0,0-4.15-3.8l2.1-2.4a23.07,23.07,0,0,1,4.15,3.8Z" transform="translate(-131.18 -344.95)"/><path class="cls-2" d="M377.83,365.65a25.23,25.23,0,0,0-7.75-3.85l2.65-4.8a26.89,26.89,0,0,1,7.65,3.9Zm-1.25,20a2.49,2.49,0,0,0-.4,1.3c-.1,1.15-.15,1.25-.45,1.25a2.66,2.66,0,0,1-1.05-.55l-4.25-3.4a74.65,74.65,0,0,0,7.95-13.2l3.8,3.85C381,377.3,377.18,384.6,376.58,385.65Zm5.35-30.85a41.49,41.49,0,0,0-8-4.05l2.7-4.65a39.71,39.71,0,0,1,7.95,4.15ZM412,375.35a24.44,24.44,0,0,1-2.1-1.45V383H415v4.75h-33.1V383h4.35v-9.5a7.09,7.09,0,0,1-1.8,1.6l-4.55-3.35a17.3,17.3,0,0,0,5.2-4.7,19.1,19.1,0,0,0,3.4-6.7l4.65,1.8a1.21,1.21,0,0,1,.8.95c0,.2-.15.3-.3.4-.65.45-.75.55-1,1.05a19.72,19.72,0,0,1-2.95,5.05h15.8a13.74,13.74,0,0,1-2.6-5.1h-8.45V359.9h12.75a9.82,9.82,0,0,0,1.9,5.7c2.25,3.25,5.25,4.55,7.65,5.6Zm-18.45-25.3c-.5.1-.65.15-.9.75a24.93,24.93,0,0,1-7.6,9.5l-4.3-3.6a13.32,13.32,0,0,0,4.15-3.35,19.22,19.22,0,0,0,3.8-6.55l4.35,2.25c.7.35.7.55.7.7A.29.29,0,0,1,393.58,350.05Zm-.35,24.05h-2.1V383h2.1Zm-1-16.55V353.5h11.65v4.05Zm19.15,2.75a15.69,15.69,0,0,1-4.7-3.5,11.75,11.75,0,0,1-3.35-5.7h-9.5v-4.45h14.05c-.5,5.45,4.55,8.15,7.7,9.4Zm-12.2,13.8H397V383h2.15Zm5.95,0H403V383h2.1Z" transform="translate(-131.18 -344.95)"/><path class="cls-2" d="M452,385.15c-5.8,0-5.8-6.95-5.8-8.2,0-1.9.9-11.2.9-13.3,0-1.3-.25-3.35-1.95-3.35-2.85,0-6.7,4.8-10.2,9.1,0,7,0,12.15.35,18l-5.6.3.15-11.55c-1.55,2.15-2.4,3.35-4.15,6.1l-5.2-3.5a57.21,57.21,0,0,0,9.5-11.5l.1-4.4c-2.65.95-4,1.45-6.5,2.25l-2.45-5.4a40.78,40.78,0,0,0,9-2.4l.2-10.75,4.95.55c.8.1,1.25.15,1.25.6,0,.15-.75.8-.9.95-.25.4-.35,2.8-.5,6.6l3.2,3.05-1.1,2.2c2-1.8,6.7-6.25,10.05-6.25a5.7,5.7,0,0,1,5.5,6c0,.9-.05,1.45-.7,8.15a69.42,69.42,0,0,0-.5,7.05c0,2.75.5,3.3,1.85,3.3s3.3-.9,5.35-3.8l1.55,5.6C458.08,383,455.33,385.15,452,385.15Z" transform="translate(-131.18 -344.95)"/><path class="cls-2" d="M482,387.05c-6.25,0-9.45-3.15-9.45-6.85a7,7,0,0,1,7.35-6.65c5.2,0,8.45,4.1,9.85,5.85a8.81,8.81,0,0,0,3.3-6.65c0-4.95-4.85-6.55-8.1-6.55a13.56,13.56,0,0,0-5.7,1.25c-3.1,1.65-7.5,6.1-10.3,8.95l-4.2-4.4c5.2-3.9,10.5-8.35,18.5-18.05a46.68,46.68,0,0,1-11.7,1.25l-1.15-5.6c1.2.1,4.05.3,5.6.3,1.9,0,10.4-.65,15.15-2.5l2.6,4.05c-3,2.5-3.85,3.3-11.1,10.7a39.81,39.81,0,0,1,4.85-.3,11,11,0,0,1,11.1,11C498.63,381.2,490.83,387.05,482,387.05Zm-1.9-9.1a2.2,2.2,0,0,0-2.5,2.1c0,1.75,2.3,2.25,4.1,2.25a14.22,14.22,0,0,0,3.4-.45C484.48,380.7,483,378,480.13,378Z" transform="translate(-131.18 -344.95)"/><path class="cls-2" d="M535.53,353.85v3.7h11.05v12.9H514.13c-1,9.9-2.15,14.35-4.35,18.9l-5.5-1.75a35.61,35.61,0,0,0,3.15-8.5,70.51,70.51,0,0,0,1.6-16.05c0-4.55-.2-9.1-.5-13.65h16.1v-4.15l5.55.2c.2,0,1.65.05,1.65.7,0,.25-.35.55-.45.65s-.55.5-.55.75v1.85h18.35v4.45ZM522.78,378.3v3.8a43.23,43.23,0,0,0,6.65-1.5v4.2c-.95.3-1.85.5-3,.8-2.2.55-5.7,1.35-7.9,1.85-2.5.6-2.65.65-3,1.45-.15.3-.3.55-.65.55-.6,0-.9-1.3-1-1.6l-1-4.3a32.64,32.64,0,0,0,4.55-.6V371.1l5.15.35c.2,0,1,.05,1,.4s-.3.55-.8.95v1.1h7v4.4Zm-2.85-24.45h-5.85c.1.95.15,1.35.25,3.7h5.6Zm0,8h-5.55c0,1.3,0,2.9-.1,4h5.65Zm10.45-8h-5.3v3.7h5.3Zm0,8h-5.3v4h5.3Zm18,23.35c-.55,1.35-2.15,3.3-4.4,3.3h-7.7c-1.6,0-4.3-1.25-4.3-4V371.1l5,.35c.25,0,1.1.05,1.1.45s-.35.6-.85,1v2.5a40.4,40.4,0,0,0,6.55-4.45l3.3,3.15c.1.1.55.6.55.9s-.2.4-1.3.4c-.45,0-.5,0-1.8.8a57.16,57.16,0,0,1-7.3,3.9v1.8a1.58,1.58,0,0,0,1.8,1.7h3.35c1.15,0,2.25-.55,2.45-4.05l4.45,2.5A22.37,22.37,0,0,1,548.38,385.25Zm-7.1-23.35h-5.75v4h5.75Z" transform="translate(-131.18 -344.95)"/><path class="cls-2" d="M575.58,371.05c-.7.4-.85.5-1,.75-1.15,8.5-6.7,15.25-15.45,17.1l-3.95-5.15c7.4-.25,13.75-5.75,14-14.75l5.55.85c.95.15,1.15.4,1.15.75C576,370.75,575.88,370.9,575.58,371.05Zm-9.4-22.85c-.4.3-.5.4-.5.55V369h-5.6V346.5l5.3.25c.3,0,1.45.05,1.45.7C566.83,347.8,566.48,348,566.18,348.2Zm3.35,19.45V347h25.7v20.7Zm20.1-15.75H575.08v3.15h14.55Zm0,7.8H575.08v3.4h14.55Zm3.3,28.2h-9.1c-3,0-5.25-1-5.25-4.1V369.25l5.25.1c.95,0,1.3.25,1.3.6s-.2.45-.45.65c-.45.3-.6.45-.6.7v9.45c0,1.25.6,1.7,2.25,1.7h5.5c.7,0,1.4-.1,1.85-1.55a18.71,18.71,0,0,0,.6-4.25l5.05,3.05C598.93,383.15,598.38,387.9,592.93,387.9Z" transform="translate(-131.18 -344.95)"/><path class="cls-2" d="M618.33,369.45v2.1h29.45c-.15,4.4-.9,11.5-2.75,14.55-1.35,2.2-3.1,2.5-6.9,2.5l-3-4.45h-23v3.2H607v-11.3l4.7.2c.3,0,1,.1,1,.6,0,.2-.1.3-.25.45a.68.68,0,0,0-.3.55v2.2h6.4V375.5h-6V349.55H620a17,17,0,0,0,.75-4l6.65.35c.4,0,1.15.1,1.15.5s-.3.45-.4.5-.85.35-1,.45a13,13,0,0,0-1.15,2.2h16.1v14.8h-23.8v1.8h30.3v3.3ZM636.73,353h-18.4v2.35h18.4Zm0,5.65h-18.4v2.5h18.4ZM624,375.5v4.55h6.35V376.5l4.95.2c.3,0,.8.05.8.45a.52.52,0,0,1-.2.4c-.4.4-.45.5-.45.75v4.9a11,11,0,0,0,2.65.35c1.25,0,2.25-.25,2.9-2.35a21.5,21.5,0,0,0,.8-5.7Z" transform="translate(-131.18 -344.95)"/><path class="cls-2" d="M680.53,370.15c0,2,.1,8.15.1,9.85h-5.8c.15-2.85.2-5.3.25-7.5-1.9.95-7.1,3.55-7.1,7.05,0,3.25,3.85,3.9,7.5,3.9a57.81,57.81,0,0,0,12.75-1.6v5.65a82.75,82.75,0,0,1-11.9.75c-2.8,0-8.6,0-11.75-3.35a6.84,6.84,0,0,1-1.9-4.9c0-6.2,4.6-8.55,12.1-12.4-.3-1.5-.9-3.3-3.8-3.3-4.9,0-7.9,4.55-10.65,9.05l-4.9-3.05a66.48,66.48,0,0,0,9.85-13.75c-2.85.15-4.4.2-6.5.2l-.6-5.2a70.33,70.33,0,0,0,9.55.2,38.77,38.77,0,0,0,2.5-6.65l6.25,1.1c.15.05,1,.15,1,.5s-.2.45-.5.55c-.1.05-1.1.5-1.15.5s-1.3,2.85-1.55,3.4a42.22,42.22,0,0,0,9.8-2.55l-.35,5.6a105.25,105.25,0,0,1-12,1.9c-1.6,2.95-2,3.65-2.85,4.95a9.67,9.67,0,0,1,4.3-1.05c3.45,0,5.65,1.75,6.8,5.05,5.85-2.75,6.5-3.05,8.85-4.1l1.7,5.7C686.63,367.9,684.23,368.75,680.53,370.15Z" transform="translate(-131.18 -344.95)"/><path class="cls-2" d="M717,388.75V387.3h-8.45v1.45h-4.8v-8.6a25.15,25.15,0,0,1-3.25,6.5l-5.15-2.3a21.56,21.56,0,0,0,4.9-8.35c1.25-3.9,1.2-5.65,1.2-16.3h20.15v13.6h-15.8a8,8,0,0,1-.35,1.5h16.25v13.95Zm4-32.95a15.35,15.35,0,0,1-2.85-1.2v3.95H705.28V356a44.06,44.06,0,0,1-4.85,3.3l-3.7-3.8c4.65-1.95,9.4-6,11.25-10.15l5.45.35c.1,0,1.1.05,1.1.6a.71.71,0,0,1-.1.3,29.68,29.68,0,0,0,9.35,5.3Zm-4.3,12.05H706.43c0,.85,0,.95-.15,1.85h10.4Zm0-4.7H706.53v1.65h10.15Zm-5.2-12.95a35.11,35.11,0,0,1-4.1,4.1h10.2A34.13,34.13,0,0,1,711.48,350.2ZM717,378.65h-8.45v4.65H717Zm14.15-25.1c-.75.55-.8.55-.8.75v22.9h-5V351.85l4.85.45c.45.05,1.31.2,1.31.8C731.54,353.25,731.38,353.4,731.18,353.55Zm8.4-5.65c-.14.1-.59.4-.59.65v34.1c0,4.8-2.5,5.25-8.06,5.35l-2.65-5.8c1,.05,3.26.1,4.3.1.4,0,1.1,0,1.1-1.3V345.75l5.11.6c.34,0,1.4.2,1.4.85C740.19,347.4,740,347.6,739.58,347.9Z" transform="translate(-131.18 -344.95)"/><path class="cls-2" d="M763.43,387.05c-6.25,0-9.45-3.15-9.45-6.85a7,7,0,0,1,7.35-6.65c5.21,0,8.46,4.1,9.85,5.85a8.78,8.78,0,0,0,3.31-6.65c0-4.95-4.86-6.55-8.11-6.55a13.56,13.56,0,0,0-5.7,1.25c-3.1,1.65-7.5,6.1-10.3,8.95l-4.2-4.4c5.2-3.9,10.5-8.35,18.5-18.05A46.68,46.68,0,0,1,753,355.2l-1.15-5.6c1.2.1,4,.3,5.6.3,1.9,0,10.4-.65,15.15-2.5l2.61,4.05c-3,2.5-3.86,3.3-11.11,10.7a39.81,39.81,0,0,1,4.85-.3,11,11,0,0,1,11.11,11C780,381.2,772.24,387.05,763.43,387.05Zm-1.9-9.1a2.2,2.2,0,0,0-2.5,2.1c0,1.75,2.3,2.25,4.1,2.25a14.4,14.4,0,0,0,3.41-.45C765.88,380.7,764.38,378,761.53,378Z" transform="translate(-131.18 -344.95)"/><path class="cls-2" d="M802.73,381.25a7.73,7.73,0,1,1-7.7-7.7A7.78,7.78,0,0,1,802.73,381.25Zm-13.05,0A5.33,5.33,0,1,0,795,376,5.35,5.35,0,0,0,789.68,381.25Z" transform="translate(-131.18 -344.95)"/></g></g></svg>