<svg xmlns="http://www.w3.org/2000/svg" width="151.712" height="312.982" viewBox="0 0 151.712 312.982"><path d="M76.51,0C34.255,0,0,37.681,0,84.162s57.631,84.162,76.51,84.162C166.905,156.1,186.19,10.275,76.51,0Z" fill="#3f4fff"/><path d="M116.243,338.941c-1.084-5.268-2.79-10.371-4.238-15.544a69.676,69.676,0,0,1-2.736-16.786c-.39-13.052,2.709-25.867,5.77-38.459.5-2.05-2.663-2.924-3.162-.872-2.684,11.042-5.35,22.2-5.844,33.6a70.584,70.584,0,0,0,1.143,16.531c1.084,5.57,2.933,10.946,4.443,16.406,4.674,16.894,4.268,35.267-2.316,51.616a60.9,60.9,0,0,1-16.5,23.335c-1.6,1.384.729,3.695,2.319,2.319,13.332-11.542,20.609-28.461,22.445-45.776A86.036,86.036,0,0,0,116.243,338.941Z" transform="translate(-34.164 -98.53)"/></svg>