<svg xmlns="http://www.w3.org/2000/svg" width="94.648" height="195.258" viewBox="0 0 94.648 195.258"><path d="M47.732,0C21.37,0,0,23.508,0,52.506s35.954,52.506,47.732,52.506C104.126,97.387,116.157,6.411,47.732,0Z" fill="#3f4fff"/><path d="M107.225,311.547c-.677-3.287-1.74-6.47-2.644-9.7a43.467,43.467,0,0,1-1.707-10.472c-.243-8.143,1.69-16.138,3.6-23.993.311-1.279-1.661-1.824-1.973-.544-1.674,6.889-3.338,13.852-3.646,20.963a44.035,44.035,0,0,0,.713,10.313c.677,3.475,1.83,6.829,2.772,10.235a50.576,50.576,0,0,1-1.445,32.2A37.995,37.995,0,0,1,92.6,355.111c-1,.863.455,2.305,1.447,1.447,8.317-7.2,12.857-17.756,14-28.558A53.674,53.674,0,0,0,107.225,311.547Z" transform="translate(-56.019 -161.563)"/></svg>