<svg xmlns="http://www.w3.org/2000/svg" width="425.683" height="546.672" viewBox="0 0 425.683 546.672"><path d="M488.14,1639.563a25.841,25.841,0,1,1-25.841-25.841A25.84,25.84,0,0,1,488.14,1639.563Zm143.837-44.117a26.622,26.622,0,1,0,26.622,26.622A26.62,26.62,0,0,0,631.977,1595.446Zm-98.15-104.6A49.155,49.155,0,1,0,582.982,1540,49.152,49.152,0,0,0,533.827,1490.841ZM516.5,1671.07a80.034,80.034,0,1,0,80.034,80.034A80.035,80.035,0,0,0,516.5,1671.07ZM743.678,1442a37.808,37.808,0,1,0,37.808,37.808A37.81,37.81,0,0,0,743.678,1442Zm19.54,110.278a61.444,61.444,0,1,0,61.444,61.444A61.445,61.445,0,0,0,763.218,1552.278Zm-19.379,230.647a102.874,102.874,0,1,0,102.874,102.881A102.874,102.874,0,0,0,743.839,1782.925ZM441.611,1490.841a20.581,20.581,0,1,0,20.581,20.581A20.581,20.581,0,0,0,441.611,1490.841Z" transform="translate(-421.03 -1442)" fill="#8bdfff"/></svg>