<svg xmlns="http://www.w3.org/2000/svg" width="73.608" height="151.853" viewBox="0 0 73.608 151.853"><path d="M37.122,0C16.62,0,0,18.282,0,40.834S27.962,81.668,37.122,81.668C80.98,75.739,90.336,4.985,37.122,0Z" fill="#f7c600"/><path d="M103.9,301.446c-.526-2.556-1.354-5.032-2.056-7.542a33.806,33.806,0,0,1-1.327-8.144c-.189-6.333,1.314-12.55,2.8-18.66.242-.995-1.292-1.419-1.534-.423-1.3,5.357-2.6,10.773-2.835,16.3A34.245,34.245,0,0,0,99.5,291c.526,2.7,1.423,5.311,2.156,7.96A39.333,39.333,0,0,1,100.534,324a29.549,29.549,0,0,1-8,11.322c-.775.671.354,1.793,1.125,1.125,6.468-5.6,10-13.809,10.89-22.21A41.744,41.744,0,0,0,103.9,301.446Z" transform="translate(-64.077 -184.803)"/></svg>