<svg id="風船青" xmlns="http://www.w3.org/2000/svg" width="145.142" height="299.427" viewBox="0 0 145.142 299.427">
  <path id="パス_7" data-name="パス 7" d="M73.2,0C32.771,0,0,36.049,0,80.517s55.136,80.517,73.2,80.517C159.677,149.343,178.127,9.83,73.2,0Z" fill="#3f4fff"/>
  <path id="パス_8" data-name="パス 8" d="M115.2,335.787c-1.037-5.04-2.669-9.922-4.055-14.871a66.658,66.658,0,0,1-2.617-16.059c-.373-12.487,2.592-24.747,5.52-36.793.477-1.961-2.548-2.8-3.025-.834-2.568,10.564-5.119,21.242-5.591,32.147a67.527,67.527,0,0,0,1.093,15.815c1.037,5.329,2.806,10.472,4.251,15.7,4.472,16.162,4.083,33.74-2.215,49.381a58.265,58.265,0,0,1-15.783,22.324c-1.529,1.324.7,3.535,2.218,2.218,12.754-11.042,19.716-27.229,21.473-43.794A82.309,82.309,0,0,0,115.2,335.787Z" transform="translate(-36.68 -105.787)"/>
</svg>
