<svg id="風船赤" xmlns="http://www.w3.org/2000/svg" width="242.578" height="500.439" viewBox="0 0 242.578 500.439">
  <path id="パス_36" data-name="パス 36" d="M122.336,0C54.771,0,0,60.249,0,134.57s92.149,134.57,122.336,134.57C266.872,249.6,297.707,16.43,122.336,0Z" fill="#f71140"/>
  <path id="パス_37" data-name="パス 37" d="M130.6,382.562c-1.734-8.424-4.461-16.583-6.777-24.854a111.407,111.407,0,0,1-4.374-26.839c-.623-20.869,4.332-41.36,9.225-61.494.8-3.277-4.258-4.676-5.056-1.394-4.291,17.655-8.555,35.5-9.344,53.727a112.855,112.855,0,0,0,1.828,26.432c1.734,8.906,4.689,17.5,7.1,26.232,7.473,27.013,6.824,56.389-3.7,82.531a97.38,97.38,0,0,1-26.378,37.311c-2.556,2.212,1.166,5.908,3.707,3.708,21.316-18.455,32.952-45.508,35.889-73.193A137.568,137.568,0,0,0,130.6,382.562Z" transform="translate(0.638 1.841)"/>
</svg>
