<svg id="風船黄" xmlns="http://www.w3.org/2000/svg" width="92.406" height="190.634" viewBox="0 0 92.406 190.634">
  <path id="パス_30" data-name="パス 30" d="M46.6,0C20.864,0,0,22.951,0,51.262s35.1,51.262,46.6,51.262C101.66,95.081,113.406,6.259,46.6,0Z" fill="#f7c600"/>
  <path id="パス_31" data-name="パス 31" d="M106.871,310.471c-.661-3.209-1.7-6.317-2.581-9.468a42.438,42.438,0,0,1-1.666-10.224c-.237-7.95,1.65-15.755,3.514-23.425.3-1.249-1.622-1.781-1.926-.531-1.635,6.725-3.259,13.524-3.56,20.466a42.991,42.991,0,0,0,.7,10.069c.661,3.393,1.786,6.667,2.706,9.993a49.378,49.378,0,0,1-1.41,31.439A37.094,37.094,0,0,1,92.6,353c-.973.843.444,2.25,1.412,1.412,8.12-7.03,12.553-17.335,13.671-27.882A52.4,52.4,0,0,0,106.871,310.471Z" transform="translate(-56.878 -164.039)"/>
</svg>
