<svg id="風船赤" xmlns="http://www.w3.org/2000/svg" width="114.918" height="237.076" viewBox="0 0 114.918 237.076">
  <path id="パス_36" data-name="パス 36" d="M57.955,0C25.947,0,0,28.542,0,63.751S43.654,127.5,57.955,127.5C126.427,118.245,141.035,7.783,57.955,0Z" fill="#f71140"/>
  <path id="パス_37" data-name="パス 37" d="M110.429,321.278c-.821-3.991-2.113-7.856-3.21-11.774a52.777,52.777,0,0,1-2.072-12.715c-.3-9.887,2.052-19.594,4.37-29.132.377-1.553-2.017-2.215-2.4-.66-2.033,8.364-4.053,16.819-4.427,25.453a53.464,53.464,0,0,0,.866,12.522c.821,4.219,2.221,8.291,3.366,12.427,3.54,12.8,3.233,26.714-1.754,39.1a46.132,46.132,0,0,1-12.5,17.676c-1.211,1.048.552,2.8,1.756,1.756,10.1-8.743,15.611-21.559,17-34.674A65.171,65.171,0,0,0,110.429,321.278Z" transform="translate(-48.256 -139.172)"/>
</svg>
