<svg id="風船青" xmlns="http://www.w3.org/2000/svg" width="118.292" height="244.036" viewBox="0 0 118.292 244.036">
  <path id="パス_7" data-name="パス 7" d="M59.656,0C26.709,0,0,29.38,0,65.622s44.936,65.622,59.656,65.622C130.138,121.716,145.175,8.012,59.656,0Z" fill="#3f4fff"/>
  <path id="パス_8" data-name="パス 8" d="M110.962,322.9c-.846-4.108-2.175-8.087-3.3-12.12a54.327,54.327,0,0,1-2.133-13.088c-.3-10.177,2.112-20.169,4.5-29.987.388-1.6-2.077-2.28-2.465-.68-2.093,8.609-4.172,17.313-4.557,26.2a55.035,55.035,0,0,0,.891,12.889c.846,4.343,2.287,8.535,3.465,12.792,3.644,13.173,3.328,27.5-1.805,40.246a47.486,47.486,0,0,1-12.863,18.195c-1.246,1.079.569,2.881,1.808,1.808,10.395-9,16.069-22.192,17.5-35.692A67.083,67.083,0,0,0,110.962,322.9Z" transform="translate(-46.963 -135.445)"/>
</svg>
