<svg id="風船青" xmlns="http://www.w3.org/2000/svg" width="199.284" height="411.124" viewBox="0 0 199.284 411.124">
  <path id="パス_7" data-name="パス 7" d="M100.5,0C45,0,0,49.5,0,110.553S75.7,221.105,100.5,221.105C219.242,205.053,244.574,13.5,100.5,0Z" fill="#3f4fff"/>
  <path id="パス_8" data-name="パス 8" d="M123.76,361.779c-1.424-6.92-3.665-13.623-5.567-20.418a91.523,91.523,0,0,1-3.593-22.049c-.512-17.145,3.559-33.978,7.579-50.518.654-2.693-3.5-3.842-4.153-1.145-3.526,14.5-7.028,29.167-7.676,44.138a92.717,92.717,0,0,0,1.5,21.714c1.424,7.317,3.852,14.379,5.837,21.55,6.14,22.192,5.606,46.326-3.042,67.8A80,80,0,0,1,92.975,453.5c-2.1,1.817.958,4.853,3.046,3.046,17.512-15.161,27.071-37.386,29.483-60.13A113.014,113.014,0,0,0,123.76,361.779Z" transform="translate(-15.943 -45.981)"/>
</svg>
